<?xml version="1.0" encoding="utf-8"?>
<svg xmlns="http://www.w3.org/2000/svg" xmlns:xlink="http://www.w3.org/1999/xlink" width="600" height="400" viewBox="0 0 2400 1600">
<defs>
  <clipPath id="clip280">
    <rect x="0" y="0" width="2400" height="1600"/>
  </clipPath>
</defs>
<path clip-path="url(#clip280)" d="M0 1600 L2400 1600 L2400 0 L0 0  Z" fill="#ffffff" fill-rule="evenodd" fill-opacity="1"/>
<defs>
  <clipPath id="clip281">
    <rect x="1409" y="47" width="945" height="1440"/>
  </clipPath>
</defs>
<path clip-path="url(#clip280)" d="M178.867 1486.45 L1122.59 1486.45 L1122.59 47.2441 L178.867 47.2441  Z" fill="#ffffff" fill-rule="evenodd" fill-opacity="1"/>
<defs>
  <clipPath id="clip282">
    <rect x="178" y="47" width="945" height="1440"/>
  </clipPath>
</defs>
<polyline clip-path="url(#clip282)" style="stroke:#000000; stroke-linecap:round; stroke-linejoin:round; stroke-width:2; stroke-opacity:0.1; fill:none" points="290.709,1486.45 290.709,47.2441 "/>
<polyline clip-path="url(#clip282)" style="stroke:#000000; stroke-linecap:round; stroke-linejoin:round; stroke-width:2; stroke-opacity:0.1; fill:none" points="409.946,1486.45 409.946,47.2441 "/>
<polyline clip-path="url(#clip282)" style="stroke:#000000; stroke-linecap:round; stroke-linejoin:round; stroke-width:2; stroke-opacity:0.1; fill:none" points="529.184,1486.45 529.184,47.2441 "/>
<polyline clip-path="url(#clip282)" style="stroke:#000000; stroke-linecap:round; stroke-linejoin:round; stroke-width:2; stroke-opacity:0.1; fill:none" points="648.421,1486.45 648.421,47.2441 "/>
<polyline clip-path="url(#clip282)" style="stroke:#000000; stroke-linecap:round; stroke-linejoin:round; stroke-width:2; stroke-opacity:0.1; fill:none" points="767.658,1486.45 767.658,47.2441 "/>
<polyline clip-path="url(#clip282)" style="stroke:#000000; stroke-linecap:round; stroke-linejoin:round; stroke-width:2; stroke-opacity:0.1; fill:none" points="886.896,1486.45 886.896,47.2441 "/>
<polyline clip-path="url(#clip282)" style="stroke:#000000; stroke-linecap:round; stroke-linejoin:round; stroke-width:2; stroke-opacity:0.1; fill:none" points="1006.13,1486.45 1006.13,47.2441 "/>
<polyline clip-path="url(#clip282)" style="stroke:#000000; stroke-linecap:round; stroke-linejoin:round; stroke-width:2; stroke-opacity:0.1; fill:none" points="178.867,1483.83 1122.59,1483.83 "/>
<polyline clip-path="url(#clip282)" style="stroke:#000000; stroke-linecap:round; stroke-linejoin:round; stroke-width:2; stroke-opacity:0.1; fill:none" points="178.867,1245.36 1122.59,1245.36 "/>
<polyline clip-path="url(#clip282)" style="stroke:#000000; stroke-linecap:round; stroke-linejoin:round; stroke-width:2; stroke-opacity:0.1; fill:none" points="178.867,1006.88 1122.59,1006.88 "/>
<polyline clip-path="url(#clip282)" style="stroke:#000000; stroke-linecap:round; stroke-linejoin:round; stroke-width:2; stroke-opacity:0.1; fill:none" points="178.867,768.408 1122.59,768.408 "/>
<polyline clip-path="url(#clip282)" style="stroke:#000000; stroke-linecap:round; stroke-linejoin:round; stroke-width:2; stroke-opacity:0.1; fill:none" points="178.867,529.934 1122.59,529.934 "/>
<polyline clip-path="url(#clip282)" style="stroke:#000000; stroke-linecap:round; stroke-linejoin:round; stroke-width:2; stroke-opacity:0.1; fill:none" points="178.867,291.459 1122.59,291.459 "/>
<polyline clip-path="url(#clip282)" style="stroke:#000000; stroke-linecap:round; stroke-linejoin:round; stroke-width:2; stroke-opacity:0.1; fill:none" points="178.867,52.9841 1122.59,52.9841 "/>
<polyline clip-path="url(#clip280)" style="stroke:#000000; stroke-linecap:round; stroke-linejoin:round; stroke-width:4; stroke-opacity:1; fill:none" points="178.867,1486.45 1122.59,1486.45 "/>
<polyline clip-path="url(#clip280)" style="stroke:#000000; stroke-linecap:round; stroke-linejoin:round; stroke-width:4; stroke-opacity:1; fill:none" points="290.709,1486.45 290.709,1467.55 "/>
<polyline clip-path="url(#clip280)" style="stroke:#000000; stroke-linecap:round; stroke-linejoin:round; stroke-width:4; stroke-opacity:1; fill:none" points="409.946,1486.45 409.946,1467.55 "/>
<polyline clip-path="url(#clip280)" style="stroke:#000000; stroke-linecap:round; stroke-linejoin:round; stroke-width:4; stroke-opacity:1; fill:none" points="529.184,1486.45 529.184,1467.55 "/>
<polyline clip-path="url(#clip280)" style="stroke:#000000; stroke-linecap:round; stroke-linejoin:round; stroke-width:4; stroke-opacity:1; fill:none" points="648.421,1486.45 648.421,1467.55 "/>
<polyline clip-path="url(#clip280)" style="stroke:#000000; stroke-linecap:round; stroke-linejoin:round; stroke-width:4; stroke-opacity:1; fill:none" points="767.658,1486.45 767.658,1467.55 "/>
<polyline clip-path="url(#clip280)" style="stroke:#000000; stroke-linecap:round; stroke-linejoin:round; stroke-width:4; stroke-opacity:1; fill:none" points="886.896,1486.45 886.896,1467.55 "/>
<polyline clip-path="url(#clip280)" style="stroke:#000000; stroke-linecap:round; stroke-linejoin:round; stroke-width:4; stroke-opacity:1; fill:none" points="1006.13,1486.45 1006.13,1467.55 "/>
<path clip-path="url(#clip280)" d="M245.269 1532.02 L274.945 1532.02 L274.945 1535.95 L245.269 1535.95 L245.269 1532.02 Z" fill="#000000" fill-rule="nonzero" fill-opacity="1" /><path clip-path="url(#clip280)" d="M283.857 1514.29 L306.079 1514.29 L306.079 1516.28 L293.533 1548.85 L288.649 1548.85 L300.454 1518.22 L283.857 1518.22 L283.857 1514.29 Z" fill="#000000" fill-rule="nonzero" fill-opacity="1" /><path clip-path="url(#clip280)" d="M315.246 1514.29 L333.602 1514.29 L333.602 1518.22 L319.528 1518.22 L319.528 1526.7 Q320.547 1526.35 321.565 1526.19 Q322.584 1526 323.602 1526 Q329.389 1526 332.769 1529.17 Q336.148 1532.34 336.148 1537.76 Q336.148 1543.34 332.676 1546.44 Q329.204 1549.52 322.885 1549.52 Q320.709 1549.52 318.44 1549.15 Q316.195 1548.78 313.787 1548.04 L313.787 1543.34 Q315.871 1544.47 318.093 1545.03 Q320.315 1545.58 322.792 1545.58 Q326.797 1545.58 329.135 1543.48 Q331.473 1541.37 331.473 1537.76 Q331.473 1534.15 329.135 1532.04 Q326.797 1529.94 322.792 1529.94 Q320.917 1529.94 319.042 1530.35 Q317.19 1530.77 315.246 1531.65 L315.246 1514.29 Z" fill="#000000" fill-rule="nonzero" fill-opacity="1" /><path clip-path="url(#clip280)" d="M364.009 1532.02 L393.685 1532.02 L393.685 1535.95 L364.009 1535.95 L364.009 1532.02 Z" fill="#000000" fill-rule="nonzero" fill-opacity="1" /><path clip-path="url(#clip280)" d="M403.824 1514.29 L422.18 1514.29 L422.18 1518.22 L408.106 1518.22 L408.106 1526.7 Q409.124 1526.35 410.143 1526.19 Q411.161 1526 412.18 1526 Q417.967 1526 421.347 1529.17 Q424.726 1532.34 424.726 1537.76 Q424.726 1543.34 421.254 1546.44 Q417.782 1549.52 411.462 1549.52 Q409.286 1549.52 407.018 1549.15 Q404.773 1548.78 402.365 1548.04 L402.365 1543.34 Q404.449 1544.47 406.671 1545.03 Q408.893 1545.58 411.37 1545.58 Q415.374 1545.58 417.712 1543.48 Q420.05 1541.37 420.05 1537.76 Q420.05 1534.15 417.712 1532.04 Q415.374 1529.94 411.37 1529.94 Q409.495 1529.94 407.62 1530.35 Q405.768 1530.77 403.824 1531.65 L403.824 1514.29 Z" fill="#000000" fill-rule="nonzero" fill-opacity="1" /><path clip-path="url(#clip280)" d="M443.939 1517.37 Q440.328 1517.37 438.499 1520.93 Q436.694 1524.47 436.694 1531.6 Q436.694 1538.71 438.499 1542.27 Q440.328 1545.82 443.939 1545.82 Q447.573 1545.82 449.379 1542.27 Q451.208 1538.71 451.208 1531.6 Q451.208 1524.47 449.379 1520.93 Q447.573 1517.37 443.939 1517.37 M443.939 1513.66 Q449.749 1513.66 452.805 1518.27 Q455.883 1522.85 455.883 1531.6 Q455.883 1540.33 452.805 1544.94 Q449.749 1549.52 443.939 1549.52 Q438.129 1549.52 435.05 1544.94 Q431.995 1540.33 431.995 1531.6 Q431.995 1522.85 435.05 1518.27 Q438.129 1513.66 443.939 1513.66 Z" fill="#000000" fill-rule="nonzero" fill-opacity="1" /><path clip-path="url(#clip280)" d="M483.744 1532.02 L513.42 1532.02 L513.42 1535.95 L483.744 1535.95 L483.744 1532.02 Z" fill="#000000" fill-rule="nonzero" fill-opacity="1" /><path clip-path="url(#clip280)" d="M527.54 1544.91 L543.859 1544.91 L543.859 1548.85 L521.915 1548.85 L521.915 1544.91 Q524.577 1542.16 529.16 1537.53 Q533.767 1532.88 534.947 1531.53 Q537.193 1529.01 538.072 1527.27 Q538.975 1525.51 538.975 1523.82 Q538.975 1521.07 537.031 1519.33 Q535.109 1517.6 532.008 1517.6 Q529.809 1517.6 527.355 1518.36 Q524.924 1519.13 522.147 1520.68 L522.147 1515.95 Q524.971 1514.82 527.424 1514.24 Q529.878 1513.66 531.915 1513.66 Q537.285 1513.66 540.48 1516.35 Q543.674 1519.03 543.674 1523.52 Q543.674 1525.65 542.864 1527.57 Q542.077 1529.47 539.971 1532.07 Q539.392 1532.74 536.29 1535.95 Q533.188 1539.15 527.54 1544.91 Z" fill="#000000" fill-rule="nonzero" fill-opacity="1" /><path clip-path="url(#clip280)" d="M553.72 1514.29 L572.077 1514.29 L572.077 1518.22 L558.003 1518.22 L558.003 1526.7 Q559.021 1526.35 560.04 1526.19 Q561.058 1526 562.077 1526 Q567.864 1526 571.243 1529.17 Q574.623 1532.34 574.623 1537.76 Q574.623 1543.34 571.151 1546.44 Q567.679 1549.52 561.359 1549.52 Q559.183 1549.52 556.915 1549.15 Q554.67 1548.78 552.262 1548.04 L552.262 1543.34 Q554.345 1544.47 556.568 1545.03 Q558.79 1545.58 561.267 1545.58 Q565.271 1545.58 567.609 1543.48 Q569.947 1541.37 569.947 1537.76 Q569.947 1534.15 567.609 1532.04 Q565.271 1529.94 561.267 1529.94 Q559.392 1529.94 557.517 1530.35 Q555.665 1530.77 553.72 1531.65 L553.72 1514.29 Z" fill="#000000" fill-rule="nonzero" fill-opacity="1" /><path clip-path="url(#clip280)" d="M648.421 1517.37 Q644.81 1517.37 642.981 1520.93 Q641.176 1524.47 641.176 1531.6 Q641.176 1538.71 642.981 1542.27 Q644.81 1545.82 648.421 1545.82 Q652.055 1545.82 653.861 1542.27 Q655.689 1538.71 655.689 1531.6 Q655.689 1524.47 653.861 1520.93 Q652.055 1517.37 648.421 1517.37 M648.421 1513.66 Q654.231 1513.66 657.287 1518.27 Q660.365 1522.85 660.365 1531.6 Q660.365 1540.33 657.287 1544.94 Q654.231 1549.52 648.421 1549.52 Q642.611 1549.52 639.532 1544.94 Q636.477 1540.33 636.477 1531.6 Q636.477 1522.85 639.532 1518.27 Q642.611 1513.66 648.421 1513.66 Z" fill="#000000" fill-rule="nonzero" fill-opacity="1" /><path clip-path="url(#clip280)" d="M746.929 1544.91 L763.249 1544.91 L763.249 1548.85 L741.304 1548.85 L741.304 1544.91 Q743.966 1542.16 748.55 1537.53 Q753.156 1532.88 754.337 1531.53 Q756.582 1529.01 757.462 1527.27 Q758.364 1525.51 758.364 1523.82 Q758.364 1521.07 756.42 1519.33 Q754.499 1517.6 751.397 1517.6 Q749.198 1517.6 746.744 1518.36 Q744.313 1519.13 741.536 1520.68 L741.536 1515.95 Q744.36 1514.82 746.813 1514.24 Q749.267 1513.66 751.304 1513.66 Q756.675 1513.66 759.869 1516.35 Q763.063 1519.03 763.063 1523.52 Q763.063 1525.65 762.253 1527.57 Q761.466 1529.47 759.36 1532.07 Q758.781 1532.74 755.679 1535.95 Q752.577 1539.15 746.929 1544.91 Z" fill="#000000" fill-rule="nonzero" fill-opacity="1" /><path clip-path="url(#clip280)" d="M773.11 1514.29 L791.466 1514.29 L791.466 1518.22 L777.392 1518.22 L777.392 1526.7 Q778.41 1526.35 779.429 1526.19 Q780.448 1526 781.466 1526 Q787.253 1526 790.633 1529.17 Q794.012 1532.34 794.012 1537.76 Q794.012 1543.34 790.54 1546.44 Q787.068 1549.52 780.748 1549.52 Q778.573 1549.52 776.304 1549.15 Q774.059 1548.78 771.651 1548.04 L771.651 1543.34 Q773.735 1544.47 775.957 1545.03 Q778.179 1545.58 780.656 1545.58 Q784.66 1545.58 786.998 1543.48 Q789.336 1541.37 789.336 1537.76 Q789.336 1534.15 786.998 1532.04 Q784.66 1529.94 780.656 1529.94 Q778.781 1529.94 776.906 1530.35 Q775.054 1530.77 773.11 1531.65 L773.11 1514.29 Z" fill="#000000" fill-rule="nonzero" fill-opacity="1" /><path clip-path="url(#clip280)" d="M861.595 1514.29 L879.951 1514.29 L879.951 1518.22 L865.877 1518.22 L865.877 1526.7 Q866.896 1526.35 867.914 1526.19 Q868.933 1526 869.951 1526 Q875.738 1526 879.118 1529.17 Q882.497 1532.34 882.497 1537.76 Q882.497 1543.34 879.025 1546.44 Q875.553 1549.52 869.234 1549.52 Q867.058 1549.52 864.789 1549.15 Q862.544 1548.78 860.136 1548.04 L860.136 1543.34 Q862.22 1544.47 864.442 1545.03 Q866.664 1545.58 869.141 1545.58 Q873.146 1545.58 875.484 1543.48 Q877.822 1541.37 877.822 1537.76 Q877.822 1534.15 875.484 1532.04 Q873.146 1529.94 869.141 1529.94 Q867.266 1529.94 865.391 1530.35 Q863.539 1530.77 861.595 1531.65 L861.595 1514.29 Z" fill="#000000" fill-rule="nonzero" fill-opacity="1" /><path clip-path="url(#clip280)" d="M901.71 1517.37 Q898.099 1517.37 896.271 1520.93 Q894.465 1524.47 894.465 1531.6 Q894.465 1538.71 896.271 1542.27 Q898.099 1545.82 901.71 1545.82 Q905.345 1545.82 907.15 1542.27 Q908.979 1538.71 908.979 1531.6 Q908.979 1524.47 907.15 1520.93 Q905.345 1517.37 901.71 1517.37 M901.71 1513.66 Q907.52 1513.66 910.576 1518.27 Q913.655 1522.85 913.655 1531.6 Q913.655 1540.33 910.576 1544.94 Q907.52 1549.52 901.71 1549.52 Q895.9 1549.52 892.821 1544.94 Q889.766 1540.33 889.766 1531.6 Q889.766 1522.85 892.821 1518.27 Q895.9 1513.66 901.71 1513.66 Z" fill="#000000" fill-rule="nonzero" fill-opacity="1" /><path clip-path="url(#clip280)" d="M979.987 1514.29 L1002.21 1514.29 L1002.21 1516.28 L989.663 1548.85 L984.779 1548.85 L996.584 1518.22 L979.987 1518.22 L979.987 1514.29 Z" fill="#000000" fill-rule="nonzero" fill-opacity="1" /><path clip-path="url(#clip280)" d="M1011.38 1514.29 L1029.73 1514.29 L1029.73 1518.22 L1015.66 1518.22 L1015.66 1526.7 Q1016.68 1526.35 1017.7 1526.19 Q1018.71 1526 1019.73 1526 Q1025.52 1526 1028.9 1529.17 Q1032.28 1532.34 1032.28 1537.76 Q1032.28 1543.34 1028.81 1546.44 Q1025.33 1549.52 1019.01 1549.52 Q1016.84 1549.52 1014.57 1549.15 Q1012.33 1548.78 1009.92 1548.04 L1009.92 1543.34 Q1012 1544.47 1014.22 1545.03 Q1016.45 1545.58 1018.92 1545.58 Q1022.93 1545.58 1025.26 1543.48 Q1027.6 1541.37 1027.6 1537.76 Q1027.6 1534.15 1025.26 1532.04 Q1022.93 1529.94 1018.92 1529.94 Q1017.05 1529.94 1015.17 1530.35 Q1013.32 1530.77 1011.38 1531.65 L1011.38 1514.29 Z" fill="#000000" fill-rule="nonzero" fill-opacity="1" /><polyline clip-path="url(#clip280)" style="stroke:#000000; stroke-linecap:round; stroke-linejoin:round; stroke-width:4; stroke-opacity:1; fill:none" points="178.867,1486.45 178.867,47.2441 "/>
<polyline clip-path="url(#clip280)" style="stroke:#000000; stroke-linecap:round; stroke-linejoin:round; stroke-width:4; stroke-opacity:1; fill:none" points="178.867,1483.83 197.764,1483.83 "/>
<polyline clip-path="url(#clip280)" style="stroke:#000000; stroke-linecap:round; stroke-linejoin:round; stroke-width:4; stroke-opacity:1; fill:none" points="178.867,1245.36 197.764,1245.36 "/>
<polyline clip-path="url(#clip280)" style="stroke:#000000; stroke-linecap:round; stroke-linejoin:round; stroke-width:4; stroke-opacity:1; fill:none" points="178.867,1006.88 197.764,1006.88 "/>
<polyline clip-path="url(#clip280)" style="stroke:#000000; stroke-linecap:round; stroke-linejoin:round; stroke-width:4; stroke-opacity:1; fill:none" points="178.867,768.408 197.764,768.408 "/>
<polyline clip-path="url(#clip280)" style="stroke:#000000; stroke-linecap:round; stroke-linejoin:round; stroke-width:4; stroke-opacity:1; fill:none" points="178.867,529.934 197.764,529.934 "/>
<polyline clip-path="url(#clip280)" style="stroke:#000000; stroke-linecap:round; stroke-linejoin:round; stroke-width:4; stroke-opacity:1; fill:none" points="178.867,291.459 197.764,291.459 "/>
<polyline clip-path="url(#clip280)" style="stroke:#000000; stroke-linecap:round; stroke-linejoin:round; stroke-width:4; stroke-opacity:1; fill:none" points="178.867,52.9841 197.764,52.9841 "/>
<path clip-path="url(#clip280)" d="M20.8303 1484.28 L50.506 1484.28 L50.506 1488.22 L20.8303 1488.22 L20.8303 1484.28 Z" fill="#000000" fill-rule="nonzero" fill-opacity="1" /><path clip-path="url(#clip280)" d="M61.4087 1497.18 L69.0476 1497.18 L69.0476 1470.81 L60.7374 1472.48 L60.7374 1468.22 L69.0013 1466.55 L73.6772 1466.55 L73.6772 1497.18 L81.316 1497.18 L81.316 1501.11 L61.4087 1501.11 L61.4087 1497.18 Z" fill="#000000" fill-rule="nonzero" fill-opacity="1" /><path clip-path="url(#clip280)" d="M90.8067 1466.55 L109.163 1466.55 L109.163 1470.49 L95.0891 1470.49 L95.0891 1478.96 Q96.1076 1478.61 97.1261 1478.45 Q98.1447 1478.27 99.1632 1478.27 Q104.95 1478.27 108.33 1481.44 Q111.709 1484.61 111.709 1490.02 Q111.709 1495.6 108.237 1498.7 Q104.765 1501.78 98.4456 1501.78 Q96.2697 1501.78 94.0012 1501.41 Q91.7558 1501.04 89.3484 1500.3 L89.3484 1495.6 Q91.4317 1496.74 93.6539 1497.29 Q95.8761 1497.85 98.353 1497.85 Q102.358 1497.85 104.696 1495.74 Q107.033 1493.64 107.033 1490.02 Q107.033 1486.41 104.696 1484.31 Q102.358 1482.2 98.353 1482.2 Q96.478 1482.2 94.603 1482.62 Q92.7512 1483.03 90.8067 1483.91 L90.8067 1466.55 Z" fill="#000000" fill-rule="nonzero" fill-opacity="1" /><path clip-path="url(#clip280)" d="M130.922 1469.63 Q127.311 1469.63 125.482 1473.2 Q123.677 1476.74 123.677 1483.87 Q123.677 1490.97 125.482 1494.54 Q127.311 1498.08 130.922 1498.08 Q134.556 1498.08 136.362 1494.54 Q138.191 1490.97 138.191 1483.87 Q138.191 1476.74 136.362 1473.2 Q134.556 1469.63 130.922 1469.63 M130.922 1465.93 Q136.732 1465.93 139.788 1470.53 Q142.867 1475.12 142.867 1483.87 Q142.867 1492.59 139.788 1497.2 Q136.732 1501.78 130.922 1501.78 Q125.112 1501.78 122.033 1497.2 Q118.978 1492.59 118.978 1483.87 Q118.978 1475.12 122.033 1470.53 Q125.112 1465.93 130.922 1465.93 Z" fill="#000000" fill-rule="nonzero" fill-opacity="1" /><path clip-path="url(#clip280)" d="M20.8303 1245.81 L50.506 1245.81 L50.506 1249.74 L20.8303 1249.74 L20.8303 1245.81 Z" fill="#000000" fill-rule="nonzero" fill-opacity="1" /><path clip-path="url(#clip280)" d="M61.4087 1258.7 L69.0476 1258.7 L69.0476 1232.34 L60.7374 1234 L60.7374 1229.74 L69.0013 1228.08 L73.6772 1228.08 L73.6772 1258.7 L81.316 1258.7 L81.316 1262.64 L61.4087 1262.64 L61.4087 1258.7 Z" fill="#000000" fill-rule="nonzero" fill-opacity="1" /><path clip-path="url(#clip280)" d="M100.76 1231.16 Q97.1493 1231.16 95.3206 1234.72 Q93.515 1238.26 93.515 1245.39 Q93.515 1252.5 95.3206 1256.06 Q97.1493 1259.61 100.76 1259.61 Q104.395 1259.61 106.2 1256.06 Q108.029 1252.5 108.029 1245.39 Q108.029 1238.26 106.2 1234.72 Q104.395 1231.16 100.76 1231.16 M100.76 1227.45 Q106.571 1227.45 109.626 1232.06 Q112.705 1236.64 112.705 1245.39 Q112.705 1254.12 109.626 1258.73 Q106.571 1263.31 100.76 1263.31 Q94.9502 1263.31 91.8715 1258.73 Q88.816 1254.12 88.816 1245.39 Q88.816 1236.64 91.8715 1232.06 Q94.9502 1227.45 100.76 1227.45 Z" fill="#000000" fill-rule="nonzero" fill-opacity="1" /><path clip-path="url(#clip280)" d="M130.922 1231.16 Q127.311 1231.16 125.482 1234.72 Q123.677 1238.26 123.677 1245.39 Q123.677 1252.5 125.482 1256.06 Q127.311 1259.61 130.922 1259.61 Q134.556 1259.61 136.362 1256.06 Q138.191 1252.5 138.191 1245.39 Q138.191 1238.26 136.362 1234.72 Q134.556 1231.16 130.922 1231.16 M130.922 1227.45 Q136.732 1227.45 139.788 1232.06 Q142.867 1236.64 142.867 1245.39 Q142.867 1254.12 139.788 1258.73 Q136.732 1263.31 130.922 1263.31 Q125.112 1263.31 122.033 1258.73 Q118.978 1254.12 118.978 1245.39 Q118.978 1236.64 122.033 1232.06 Q125.112 1227.45 130.922 1227.45 Z" fill="#000000" fill-rule="nonzero" fill-opacity="1" /><path clip-path="url(#clip280)" d="M50.9921 1007.33 L80.6679 1007.33 L80.6679 1011.27 L50.9921 1011.27 L50.9921 1007.33 Z" fill="#000000" fill-rule="nonzero" fill-opacity="1" /><path clip-path="url(#clip280)" d="M90.8067 989.603 L109.163 989.603 L109.163 993.538 L95.0891 993.538 L95.0891 1002.01 Q96.1076 1001.66 97.1261 1001.5 Q98.1447 1001.32 99.1632 1001.32 Q104.95 1001.32 108.33 1004.49 Q111.709 1007.66 111.709 1013.08 Q111.709 1018.65 108.237 1021.76 Q104.765 1024.83 98.4456 1024.83 Q96.2697 1024.83 94.0012 1024.46 Q91.7558 1024.09 89.3484 1023.35 L89.3484 1018.65 Q91.4317 1019.79 93.6539 1020.34 Q95.8761 1020.9 98.353 1020.9 Q102.358 1020.9 104.696 1018.79 Q107.033 1016.69 107.033 1013.08 Q107.033 1009.46 104.696 1007.36 Q102.358 1005.25 98.353 1005.25 Q96.478 1005.25 94.603 1005.67 Q92.7512 1006.08 90.8067 1006.96 L90.8067 989.603 Z" fill="#000000" fill-rule="nonzero" fill-opacity="1" /><path clip-path="url(#clip280)" d="M130.922 992.682 Q127.311 992.682 125.482 996.246 Q123.677 999.788 123.677 1006.92 Q123.677 1014.02 125.482 1017.59 Q127.311 1021.13 130.922 1021.13 Q134.556 1021.13 136.362 1017.59 Q138.191 1014.02 138.191 1006.92 Q138.191 999.788 136.362 996.246 Q134.556 992.682 130.922 992.682 M130.922 988.978 Q136.732 988.978 139.788 993.584 Q142.867 998.168 142.867 1006.92 Q142.867 1015.64 139.788 1020.25 Q136.732 1024.83 130.922 1024.83 Q125.112 1024.83 122.033 1020.25 Q118.978 1015.64 118.978 1006.92 Q118.978 998.168 122.033 993.584 Q125.112 988.978 130.922 988.978 Z" fill="#000000" fill-rule="nonzero" fill-opacity="1" /><path clip-path="url(#clip280)" d="M130.922 754.207 Q127.311 754.207 125.482 757.772 Q123.677 761.313 123.677 768.443 Q123.677 775.549 125.482 779.114 Q127.311 782.656 130.922 782.656 Q134.556 782.656 136.362 779.114 Q138.191 775.549 138.191 768.443 Q138.191 761.313 136.362 757.772 Q134.556 754.207 130.922 754.207 M130.922 750.503 Q136.732 750.503 139.788 755.11 Q142.867 759.693 142.867 768.443 Q142.867 777.17 139.788 781.776 Q136.732 786.36 130.922 786.36 Q125.112 786.36 122.033 781.776 Q118.978 777.17 118.978 768.443 Q118.978 759.693 122.033 755.11 Q125.112 750.503 130.922 750.503 Z" fill="#000000" fill-rule="nonzero" fill-opacity="1" /><path clip-path="url(#clip280)" d="M90.8067 512.654 L109.163 512.654 L109.163 516.589 L95.0891 516.589 L95.0891 525.061 Q96.1076 524.714 97.1261 524.552 Q98.1447 524.366 99.1632 524.366 Q104.95 524.366 108.33 527.538 Q111.709 530.709 111.709 536.126 Q111.709 541.704 108.237 544.806 Q104.765 547.885 98.4456 547.885 Q96.2697 547.885 94.0012 547.514 Q91.7558 547.144 89.3484 546.403 L89.3484 541.704 Q91.4317 542.839 93.6539 543.394 Q95.8761 543.95 98.353 543.95 Q102.358 543.95 104.696 541.843 Q107.033 539.737 107.033 536.126 Q107.033 532.515 104.696 530.408 Q102.358 528.302 98.353 528.302 Q96.478 528.302 94.603 528.718 Q92.7512 529.135 90.8067 530.015 L90.8067 512.654 Z" fill="#000000" fill-rule="nonzero" fill-opacity="1" /><path clip-path="url(#clip280)" d="M130.922 515.732 Q127.311 515.732 125.482 519.297 Q123.677 522.839 123.677 529.968 Q123.677 537.075 125.482 540.639 Q127.311 544.181 130.922 544.181 Q134.556 544.181 136.362 540.639 Q138.191 537.075 138.191 529.968 Q138.191 522.839 136.362 519.297 Q134.556 515.732 130.922 515.732 M130.922 512.029 Q136.732 512.029 139.788 516.635 Q142.867 521.218 142.867 529.968 Q142.867 538.695 139.788 543.302 Q136.732 547.885 130.922 547.885 Q125.112 547.885 122.033 543.302 Q118.978 538.695 118.978 529.968 Q118.978 521.218 122.033 516.635 Q125.112 512.029 130.922 512.029 Z" fill="#000000" fill-rule="nonzero" fill-opacity="1" /><path clip-path="url(#clip280)" d="M61.4087 304.804 L69.0476 304.804 L69.0476 278.438 L60.7374 280.105 L60.7374 275.845 L69.0013 274.179 L73.6772 274.179 L73.6772 304.804 L81.316 304.804 L81.316 308.739 L61.4087 308.739 L61.4087 304.804 Z" fill="#000000" fill-rule="nonzero" fill-opacity="1" /><path clip-path="url(#clip280)" d="M100.76 277.258 Q97.1493 277.258 95.3206 280.822 Q93.515 284.364 93.515 291.494 Q93.515 298.6 95.3206 302.165 Q97.1493 305.706 100.76 305.706 Q104.395 305.706 106.2 302.165 Q108.029 298.6 108.029 291.494 Q108.029 284.364 106.2 280.822 Q104.395 277.258 100.76 277.258 M100.76 273.554 Q106.571 273.554 109.626 278.16 Q112.705 282.744 112.705 291.494 Q112.705 300.22 109.626 304.827 Q106.571 309.41 100.76 309.41 Q94.9502 309.41 91.8715 304.827 Q88.816 300.22 88.816 291.494 Q88.816 282.744 91.8715 278.16 Q94.9502 273.554 100.76 273.554 Z" fill="#000000" fill-rule="nonzero" fill-opacity="1" /><path clip-path="url(#clip280)" d="M130.922 277.258 Q127.311 277.258 125.482 280.822 Q123.677 284.364 123.677 291.494 Q123.677 298.6 125.482 302.165 Q127.311 305.706 130.922 305.706 Q134.556 305.706 136.362 302.165 Q138.191 298.6 138.191 291.494 Q138.191 284.364 136.362 280.822 Q134.556 277.258 130.922 277.258 M130.922 273.554 Q136.732 273.554 139.788 278.16 Q142.867 282.744 142.867 291.494 Q142.867 300.22 139.788 304.827 Q136.732 309.41 130.922 309.41 Q125.112 309.41 122.033 304.827 Q118.978 300.22 118.978 291.494 Q118.978 282.744 122.033 278.16 Q125.112 273.554 130.922 273.554 Z" fill="#000000" fill-rule="nonzero" fill-opacity="1" /><path clip-path="url(#clip280)" d="M61.4087 66.329 L69.0476 66.329 L69.0476 39.9634 L60.7374 41.63 L60.7374 37.3708 L69.0013 35.7041 L73.6772 35.7041 L73.6772 66.329 L81.316 66.329 L81.316 70.2641 L61.4087 70.2641 L61.4087 66.329 Z" fill="#000000" fill-rule="nonzero" fill-opacity="1" /><path clip-path="url(#clip280)" d="M90.8067 35.7041 L109.163 35.7041 L109.163 39.6393 L95.0891 39.6393 L95.0891 48.1115 Q96.1076 47.7642 97.1261 47.6022 Q98.1447 47.417 99.1632 47.417 Q104.95 47.417 108.33 50.5883 Q111.709 53.7596 111.709 59.1762 Q111.709 64.7549 108.237 67.8567 Q104.765 70.9354 98.4456 70.9354 Q96.2697 70.9354 94.0012 70.565 Q91.7558 70.1947 89.3484 69.4539 L89.3484 64.7549 Q91.4317 65.8891 93.6539 66.4447 Q95.8761 67.0002 98.353 67.0002 Q102.358 67.0002 104.696 64.8938 Q107.033 62.7873 107.033 59.1762 Q107.033 55.5651 104.696 53.4587 Q102.358 51.3522 98.353 51.3522 Q96.478 51.3522 94.603 51.7688 Q92.7512 52.1855 90.8067 53.0651 L90.8067 35.7041 Z" fill="#000000" fill-rule="nonzero" fill-opacity="1" /><path clip-path="url(#clip280)" d="M130.922 38.7828 Q127.311 38.7828 125.482 42.3476 Q123.677 45.8892 123.677 53.0188 Q123.677 60.1253 125.482 63.6901 Q127.311 67.2317 130.922 67.2317 Q134.556 67.2317 136.362 63.6901 Q138.191 60.1253 138.191 53.0188 Q138.191 45.8892 136.362 42.3476 Q134.556 38.7828 130.922 38.7828 M130.922 35.0791 Q136.732 35.0791 139.788 39.6856 Q142.867 44.2689 142.867 53.0188 Q142.867 61.7456 139.788 66.3521 Q136.732 70.9354 130.922 70.9354 Q125.112 70.9354 122.033 66.3521 Q118.978 61.7456 118.978 53.0188 Q118.978 44.2689 122.033 39.6856 Q125.112 35.0791 130.922 35.0791 Z" fill="#000000" fill-rule="nonzero" fill-opacity="1" /><polyline clip-path="url(#clip282)" style="stroke:#000000; stroke-linecap:round; stroke-linejoin:round; stroke-width:4; stroke-opacity:1; fill:none" points="650.573,767.028 346.852,714.857 "/>
<polyline clip-path="url(#clip282)" style="stroke:#000000; stroke-linecap:round; stroke-linejoin:round; stroke-width:4; stroke-opacity:1; fill:none" points="650.573,767.028 205.576,823.143 "/>
<polyline clip-path="url(#clip282)" style="stroke:#000000; stroke-linecap:round; stroke-linejoin:round; stroke-width:4; stroke-opacity:1; fill:none" points="650.573,767.028 214.954,1011.07 "/>
<polyline clip-path="url(#clip282)" style="stroke:#000000; stroke-linecap:round; stroke-linejoin:round; stroke-width:4; stroke-opacity:1; fill:none" points="650.573,767.028 369.974,1117.48 "/>
<polyline clip-path="url(#clip282)" style="stroke:#000000; stroke-linecap:round; stroke-linejoin:round; stroke-width:4; stroke-opacity:1; fill:none" points="650.573,767.028 535.887,1053.65 "/>
<polyline clip-path="url(#clip282)" style="stroke:#000000; stroke-linecap:round; stroke-linejoin:round; stroke-width:4; stroke-opacity:1; fill:none" points="650.573,767.028 764.039,480.577 "/>
<polyline clip-path="url(#clip282)" style="stroke:#000000; stroke-linecap:round; stroke-linejoin:round; stroke-width:4; stroke-opacity:1; fill:none" points="650.573,767.028 930.008,416.214 "/>
<polyline clip-path="url(#clip282)" style="stroke:#000000; stroke-linecap:round; stroke-linejoin:round; stroke-width:4; stroke-opacity:1; fill:none" points="650.573,767.028 1085.64,521.934 "/>
<polyline clip-path="url(#clip282)" style="stroke:#000000; stroke-linecap:round; stroke-linejoin:round; stroke-width:4; stroke-opacity:1; fill:none" points="650.573,767.028 1095.88,709.655 "/>
<polyline clip-path="url(#clip282)" style="stroke:#000000; stroke-linecap:round; stroke-linejoin:round; stroke-width:4; stroke-opacity:1; fill:none" points="650.573,767.028 955.05,818.142 "/>
<polyline clip-path="url(#clip282)" style="stroke:#000000; stroke-linecap:round; stroke-linejoin:round; stroke-width:4; stroke-opacity:1; fill:none" points="346.852,714.857 205.576,823.143 "/>
<polyline clip-path="url(#clip282)" style="stroke:#000000; stroke-linecap:round; stroke-linejoin:round; stroke-width:4; stroke-opacity:1; fill:none" points="346.852,714.857 955.05,818.142 "/>
<polyline clip-path="url(#clip282)" style="stroke:#000000; stroke-linecap:round; stroke-linejoin:round; stroke-width:4; stroke-opacity:1; fill:none" points="205.576,823.143 214.954,1011.07 "/>
<polyline clip-path="url(#clip282)" style="stroke:#000000; stroke-linecap:round; stroke-linejoin:round; stroke-width:4; stroke-opacity:1; fill:none" points="214.954,1011.07 369.974,1117.48 "/>
<polyline clip-path="url(#clip282)" style="stroke:#000000; stroke-linecap:round; stroke-linejoin:round; stroke-width:4; stroke-opacity:1; fill:none" points="369.974,1117.48 535.887,1053.65 "/>
<polyline clip-path="url(#clip282)" style="stroke:#000000; stroke-linecap:round; stroke-linejoin:round; stroke-width:4; stroke-opacity:1; fill:none" points="535.887,1053.65 764.039,480.577 "/>
<polyline clip-path="url(#clip282)" style="stroke:#000000; stroke-linecap:round; stroke-linejoin:round; stroke-width:4; stroke-opacity:1; fill:none" points="764.039,480.577 930.008,416.214 "/>
<polyline clip-path="url(#clip282)" style="stroke:#000000; stroke-linecap:round; stroke-linejoin:round; stroke-width:4; stroke-opacity:1; fill:none" points="930.008,416.214 1085.64,521.934 "/>
<polyline clip-path="url(#clip282)" style="stroke:#000000; stroke-linecap:round; stroke-linejoin:round; stroke-width:4; stroke-opacity:1; fill:none" points="1085.64,521.934 1095.88,709.655 "/>
<polyline clip-path="url(#clip282)" style="stroke:#000000; stroke-linecap:round; stroke-linejoin:round; stroke-width:4; stroke-opacity:1; fill:none" points="1095.88,709.655 955.05,818.142 "/>
<circle clip-path="url(#clip282)" cx="650.573" cy="767.028" r="36" fill="#0000ff" fill-rule="evenodd" fill-opacity="1" stroke="#000000" stroke-opacity="1" stroke-width="3.2"/>
<circle clip-path="url(#clip282)" cx="346.852" cy="714.857" r="36" fill="#0000ff" fill-rule="evenodd" fill-opacity="1" stroke="#000000" stroke-opacity="1" stroke-width="3.2"/>
<circle clip-path="url(#clip282)" cx="205.576" cy="823.143" r="36" fill="#0000ff" fill-rule="evenodd" fill-opacity="1" stroke="#000000" stroke-opacity="1" stroke-width="3.2"/>
<circle clip-path="url(#clip282)" cx="214.954" cy="1011.07" r="36" fill="#0000ff" fill-rule="evenodd" fill-opacity="1" stroke="#000000" stroke-opacity="1" stroke-width="3.2"/>
<circle clip-path="url(#clip282)" cx="369.974" cy="1117.48" r="36" fill="#0000ff" fill-rule="evenodd" fill-opacity="1" stroke="#000000" stroke-opacity="1" stroke-width="3.2"/>
<circle clip-path="url(#clip282)" cx="535.887" cy="1053.65" r="36" fill="#0000ff" fill-rule="evenodd" fill-opacity="1" stroke="#000000" stroke-opacity="1" stroke-width="3.2"/>
<circle clip-path="url(#clip282)" cx="764.039" cy="480.577" r="36" fill="#0000ff" fill-rule="evenodd" fill-opacity="1" stroke="#000000" stroke-opacity="1" stroke-width="3.2"/>
<circle clip-path="url(#clip282)" cx="930.008" cy="416.214" r="36" fill="#0000ff" fill-rule="evenodd" fill-opacity="1" stroke="#000000" stroke-opacity="1" stroke-width="3.2"/>
<circle clip-path="url(#clip282)" cx="1085.64" cy="521.934" r="36" fill="#0000ff" fill-rule="evenodd" fill-opacity="1" stroke="#000000" stroke-opacity="1" stroke-width="3.2"/>
<circle clip-path="url(#clip282)" cx="1095.88" cy="709.655" r="36" fill="#0000ff" fill-rule="evenodd" fill-opacity="1" stroke="#000000" stroke-opacity="1" stroke-width="3.2"/>
<circle clip-path="url(#clip282)" cx="955.05" cy="818.142" r="36" fill="#0000ff" fill-rule="evenodd" fill-opacity="1" stroke="#000000" stroke-opacity="1" stroke-width="3.2"/>
<path clip-path="url(#clip280)" d="M1409.03 1486.45 L2352.76 1486.45 L2352.76 47.2441 L1409.03 47.2441  Z" fill="#ffffff" fill-rule="evenodd" fill-opacity="1"/>
<polyline clip-path="url(#clip281)" style="stroke:#000000; stroke-linecap:round; stroke-linejoin:round; stroke-width:2; stroke-opacity:0.1; fill:none" points="1435.28,1486.45 1435.28,47.2441 "/>
<polyline clip-path="url(#clip281)" style="stroke:#000000; stroke-linecap:round; stroke-linejoin:round; stroke-width:2; stroke-opacity:0.1; fill:none" points="1665.57,1486.45 1665.57,47.2441 "/>
<polyline clip-path="url(#clip281)" style="stroke:#000000; stroke-linecap:round; stroke-linejoin:round; stroke-width:2; stroke-opacity:0.1; fill:none" points="1895.86,1486.45 1895.86,47.2441 "/>
<polyline clip-path="url(#clip281)" style="stroke:#000000; stroke-linecap:round; stroke-linejoin:round; stroke-width:2; stroke-opacity:0.1; fill:none" points="2126.15,1486.45 2126.15,47.2441 "/>
<polyline clip-path="url(#clip281)" style="stroke:#000000; stroke-linecap:round; stroke-linejoin:round; stroke-width:2; stroke-opacity:0.1; fill:none" points="1409.03,1451.22 2352.76,1451.22 "/>
<polyline clip-path="url(#clip281)" style="stroke:#000000; stroke-linecap:round; stroke-linejoin:round; stroke-width:2; stroke-opacity:0.1; fill:none" points="1409.03,1233.43 2352.76,1233.43 "/>
<polyline clip-path="url(#clip281)" style="stroke:#000000; stroke-linecap:round; stroke-linejoin:round; stroke-width:2; stroke-opacity:0.1; fill:none" points="1409.03,1015.65 2352.76,1015.65 "/>
<polyline clip-path="url(#clip281)" style="stroke:#000000; stroke-linecap:round; stroke-linejoin:round; stroke-width:2; stroke-opacity:0.1; fill:none" points="1409.03,797.868 2352.76,797.868 "/>
<polyline clip-path="url(#clip281)" style="stroke:#000000; stroke-linecap:round; stroke-linejoin:round; stroke-width:2; stroke-opacity:0.1; fill:none" points="1409.03,580.085 2352.76,580.085 "/>
<polyline clip-path="url(#clip281)" style="stroke:#000000; stroke-linecap:round; stroke-linejoin:round; stroke-width:2; stroke-opacity:0.1; fill:none" points="1409.03,362.302 2352.76,362.302 "/>
<polyline clip-path="url(#clip281)" style="stroke:#000000; stroke-linecap:round; stroke-linejoin:round; stroke-width:2; stroke-opacity:0.1; fill:none" points="1409.03,144.519 2352.76,144.519 "/>
<polyline clip-path="url(#clip280)" style="stroke:#000000; stroke-linecap:round; stroke-linejoin:round; stroke-width:4; stroke-opacity:1; fill:none" points="1409.03,1486.45 2352.76,1486.45 "/>
<polyline clip-path="url(#clip280)" style="stroke:#000000; stroke-linecap:round; stroke-linejoin:round; stroke-width:4; stroke-opacity:1; fill:none" points="1435.28,1486.45 1435.28,1467.55 "/>
<polyline clip-path="url(#clip280)" style="stroke:#000000; stroke-linecap:round; stroke-linejoin:round; stroke-width:4; stroke-opacity:1; fill:none" points="1665.57,1486.45 1665.57,1467.55 "/>
<polyline clip-path="url(#clip280)" style="stroke:#000000; stroke-linecap:round; stroke-linejoin:round; stroke-width:4; stroke-opacity:1; fill:none" points="1895.86,1486.45 1895.86,1467.55 "/>
<polyline clip-path="url(#clip280)" style="stroke:#000000; stroke-linecap:round; stroke-linejoin:round; stroke-width:4; stroke-opacity:1; fill:none" points="2126.15,1486.45 2126.15,1467.55 "/>
<path clip-path="url(#clip280)" d="M1435.28 1517.37 Q1431.67 1517.37 1429.84 1520.93 Q1428.03 1524.47 1428.03 1531.6 Q1428.03 1538.71 1429.84 1542.27 Q1431.67 1545.82 1435.28 1545.82 Q1438.91 1545.82 1440.72 1542.27 Q1442.55 1538.71 1442.55 1531.6 Q1442.55 1524.47 1440.72 1520.93 Q1438.91 1517.37 1435.28 1517.37 M1435.28 1513.66 Q1441.09 1513.66 1444.14 1518.27 Q1447.22 1522.85 1447.22 1531.6 Q1447.22 1540.33 1444.14 1544.94 Q1441.09 1549.52 1435.28 1549.52 Q1429.47 1549.52 1426.39 1544.94 Q1423.33 1540.33 1423.33 1531.6 Q1423.33 1522.85 1426.39 1518.27 Q1429.47 1513.66 1435.28 1513.66 Z" fill="#000000" fill-rule="nonzero" fill-opacity="1" /><path clip-path="url(#clip280)" d="M1625.19 1514.29 L1643.54 1514.29 L1643.54 1518.22 L1629.47 1518.22 L1629.47 1526.7 Q1630.49 1526.35 1631.51 1526.19 Q1632.53 1526 1633.54 1526 Q1639.33 1526 1642.71 1529.17 Q1646.09 1532.34 1646.09 1537.76 Q1646.09 1543.34 1642.62 1546.44 Q1639.15 1549.52 1632.83 1549.52 Q1630.65 1549.52 1628.38 1549.15 Q1626.14 1548.78 1623.73 1548.04 L1623.73 1543.34 Q1625.81 1544.47 1628.03 1545.03 Q1630.26 1545.58 1632.73 1545.58 Q1636.74 1545.58 1639.08 1543.48 Q1641.41 1541.37 1641.41 1537.76 Q1641.41 1534.15 1639.08 1532.04 Q1636.74 1529.94 1632.73 1529.94 Q1630.86 1529.94 1628.98 1530.35 Q1627.13 1530.77 1625.19 1531.65 L1625.19 1514.29 Z" fill="#000000" fill-rule="nonzero" fill-opacity="1" /><path clip-path="url(#clip280)" d="M1665.3 1517.37 Q1661.69 1517.37 1659.86 1520.93 Q1658.06 1524.47 1658.06 1531.6 Q1658.06 1538.71 1659.86 1542.27 Q1661.69 1545.82 1665.3 1545.82 Q1668.94 1545.82 1670.74 1542.27 Q1672.57 1538.71 1672.57 1531.6 Q1672.57 1524.47 1670.74 1520.93 Q1668.94 1517.37 1665.3 1517.37 M1665.3 1513.66 Q1671.11 1513.66 1674.17 1518.27 Q1677.25 1522.85 1677.25 1531.6 Q1677.25 1540.33 1674.17 1544.94 Q1671.11 1549.52 1665.3 1549.52 Q1659.49 1549.52 1656.41 1544.94 Q1653.36 1540.33 1653.36 1531.6 Q1653.36 1522.85 1656.41 1518.27 Q1659.49 1513.66 1665.3 1513.66 Z" fill="#000000" fill-rule="nonzero" fill-opacity="1" /><path clip-path="url(#clip280)" d="M1695.46 1517.37 Q1691.85 1517.37 1690.03 1520.93 Q1688.22 1524.47 1688.22 1531.6 Q1688.22 1538.71 1690.03 1542.27 Q1691.85 1545.82 1695.46 1545.82 Q1699.1 1545.82 1700.9 1542.27 Q1702.73 1538.71 1702.73 1531.6 Q1702.73 1524.47 1700.9 1520.93 Q1699.1 1517.37 1695.46 1517.37 M1695.46 1513.66 Q1701.28 1513.66 1704.33 1518.27 Q1707.41 1522.85 1707.41 1531.6 Q1707.41 1540.33 1704.33 1544.94 Q1701.28 1549.52 1695.46 1549.52 Q1689.65 1549.52 1686.58 1544.94 Q1683.52 1540.33 1683.52 1531.6 Q1683.52 1522.85 1686.58 1518.27 Q1689.65 1513.66 1695.46 1513.66 Z" fill="#000000" fill-rule="nonzero" fill-opacity="1" /><path clip-path="url(#clip280)" d="M1840.39 1544.91 L1848.03 1544.91 L1848.03 1518.55 L1839.72 1520.21 L1839.72 1515.95 L1847.98 1514.29 L1852.66 1514.29 L1852.66 1544.91 L1860.29 1544.91 L1860.29 1548.85 L1840.39 1548.85 L1840.39 1544.91 Z" fill="#000000" fill-rule="nonzero" fill-opacity="1" /><path clip-path="url(#clip280)" d="M1879.74 1517.37 Q1876.13 1517.37 1874.3 1520.93 Q1872.49 1524.47 1872.49 1531.6 Q1872.49 1538.71 1874.3 1542.27 Q1876.13 1545.82 1879.74 1545.82 Q1883.37 1545.82 1885.18 1542.27 Q1887.01 1538.71 1887.01 1531.6 Q1887.01 1524.47 1885.18 1520.93 Q1883.37 1517.37 1879.74 1517.37 M1879.74 1513.66 Q1885.55 1513.66 1888.6 1518.27 Q1891.68 1522.85 1891.68 1531.6 Q1891.68 1540.33 1888.6 1544.94 Q1885.55 1549.52 1879.74 1549.52 Q1873.93 1549.52 1870.85 1544.94 Q1867.79 1540.33 1867.79 1531.6 Q1867.79 1522.85 1870.85 1518.27 Q1873.93 1513.66 1879.74 1513.66 Z" fill="#000000" fill-rule="nonzero" fill-opacity="1" /><path clip-path="url(#clip280)" d="M1909.9 1517.37 Q1906.29 1517.37 1904.46 1520.93 Q1902.66 1524.47 1902.66 1531.6 Q1902.66 1538.71 1904.46 1542.27 Q1906.29 1545.82 1909.9 1545.82 Q1913.53 1545.82 1915.34 1542.27 Q1917.17 1538.71 1917.17 1531.6 Q1917.17 1524.47 1915.34 1520.93 Q1913.53 1517.37 1909.9 1517.37 M1909.9 1513.66 Q1915.71 1513.66 1918.77 1518.27 Q1921.84 1522.85 1921.84 1531.6 Q1921.84 1540.33 1918.77 1544.94 Q1915.71 1549.52 1909.9 1549.52 Q1904.09 1549.52 1901.01 1544.94 Q1897.96 1540.33 1897.96 1531.6 Q1897.96 1522.85 1901.01 1518.27 Q1904.09 1513.66 1909.9 1513.66 Z" fill="#000000" fill-rule="nonzero" fill-opacity="1" /><path clip-path="url(#clip280)" d="M1940.06 1517.37 Q1936.45 1517.37 1934.62 1520.93 Q1932.82 1524.47 1932.82 1531.6 Q1932.82 1538.71 1934.62 1542.27 Q1936.45 1545.82 1940.06 1545.82 Q1943.7 1545.82 1945.5 1542.27 Q1947.33 1538.71 1947.33 1531.6 Q1947.33 1524.47 1945.5 1520.93 Q1943.7 1517.37 1940.06 1517.37 M1940.06 1513.66 Q1945.87 1513.66 1948.93 1518.27 Q1952.01 1522.85 1952.01 1531.6 Q1952.01 1540.33 1948.93 1544.94 Q1945.87 1549.52 1940.06 1549.52 Q1934.25 1549.52 1931.17 1544.94 Q1928.12 1540.33 1928.12 1531.6 Q1928.12 1522.85 1931.17 1518.27 Q1934.25 1513.66 1940.06 1513.66 Z" fill="#000000" fill-rule="nonzero" fill-opacity="1" /><path clip-path="url(#clip280)" d="M2070.68 1544.91 L2078.32 1544.91 L2078.32 1518.55 L2070.01 1520.21 L2070.01 1515.95 L2078.27 1514.29 L2082.95 1514.29 L2082.95 1544.91 L2090.59 1544.91 L2090.59 1548.85 L2070.68 1548.85 L2070.68 1544.91 Z" fill="#000000" fill-rule="nonzero" fill-opacity="1" /><path clip-path="url(#clip280)" d="M2100.08 1514.29 L2118.43 1514.29 L2118.43 1518.22 L2104.36 1518.22 L2104.36 1526.7 Q2105.38 1526.35 2106.4 1526.19 Q2107.41 1526 2108.43 1526 Q2114.22 1526 2117.6 1529.17 Q2120.98 1532.34 2120.98 1537.76 Q2120.98 1543.34 2117.51 1546.44 Q2114.04 1549.52 2107.72 1549.52 Q2105.54 1549.52 2103.27 1549.15 Q2101.03 1548.78 2098.62 1548.04 L2098.62 1543.34 Q2100.7 1544.47 2102.92 1545.03 Q2105.15 1545.58 2107.62 1545.58 Q2111.63 1545.58 2113.97 1543.48 Q2116.3 1541.37 2116.3 1537.76 Q2116.3 1534.15 2113.97 1532.04 Q2111.63 1529.94 2107.62 1529.94 Q2105.75 1529.94 2103.87 1530.35 Q2102.02 1530.77 2100.08 1531.65 L2100.08 1514.29 Z" fill="#000000" fill-rule="nonzero" fill-opacity="1" /><path clip-path="url(#clip280)" d="M2140.19 1517.37 Q2136.58 1517.37 2134.75 1520.93 Q2132.95 1524.47 2132.95 1531.6 Q2132.95 1538.71 2134.75 1542.27 Q2136.58 1545.82 2140.19 1545.82 Q2143.83 1545.82 2145.63 1542.27 Q2147.46 1538.71 2147.46 1531.6 Q2147.46 1524.47 2145.63 1520.93 Q2143.83 1517.37 2140.19 1517.37 M2140.19 1513.66 Q2146 1513.66 2149.06 1518.27 Q2152.14 1522.85 2152.14 1531.6 Q2152.14 1540.33 2149.06 1544.94 Q2146 1549.52 2140.19 1549.52 Q2134.38 1549.52 2131.3 1544.94 Q2128.25 1540.33 2128.25 1531.6 Q2128.25 1522.85 2131.3 1518.27 Q2134.38 1513.66 2140.19 1513.66 Z" fill="#000000" fill-rule="nonzero" fill-opacity="1" /><path clip-path="url(#clip280)" d="M2170.35 1517.37 Q2166.74 1517.37 2164.91 1520.93 Q2163.11 1524.47 2163.11 1531.6 Q2163.11 1538.71 2164.91 1542.27 Q2166.74 1545.82 2170.35 1545.82 Q2173.99 1545.82 2175.79 1542.27 Q2177.62 1538.71 2177.62 1531.6 Q2177.62 1524.47 2175.79 1520.93 Q2173.99 1517.37 2170.35 1517.37 M2170.35 1513.66 Q2176.16 1513.66 2179.22 1518.27 Q2182.3 1522.85 2182.3 1531.6 Q2182.3 1540.33 2179.22 1544.94 Q2176.16 1549.52 2170.35 1549.52 Q2164.54 1549.52 2161.47 1544.94 Q2158.41 1540.33 2158.41 1531.6 Q2158.41 1522.85 2161.47 1518.27 Q2164.54 1513.66 2170.35 1513.66 Z" fill="#000000" fill-rule="nonzero" fill-opacity="1" /><polyline clip-path="url(#clip280)" style="stroke:#000000; stroke-linecap:round; stroke-linejoin:round; stroke-width:4; stroke-opacity:1; fill:none" points="1409.03,1486.45 1409.03,47.2441 "/>
<polyline clip-path="url(#clip280)" style="stroke:#000000; stroke-linecap:round; stroke-linejoin:round; stroke-width:4; stroke-opacity:1; fill:none" points="1409.03,1451.22 1427.93,1451.22 "/>
<polyline clip-path="url(#clip280)" style="stroke:#000000; stroke-linecap:round; stroke-linejoin:round; stroke-width:4; stroke-opacity:1; fill:none" points="1409.03,1233.43 1427.93,1233.43 "/>
<polyline clip-path="url(#clip280)" style="stroke:#000000; stroke-linecap:round; stroke-linejoin:round; stroke-width:4; stroke-opacity:1; fill:none" points="1409.03,1015.65 1427.93,1015.65 "/>
<polyline clip-path="url(#clip280)" style="stroke:#000000; stroke-linecap:round; stroke-linejoin:round; stroke-width:4; stroke-opacity:1; fill:none" points="1409.03,797.868 1427.93,797.868 "/>
<polyline clip-path="url(#clip280)" style="stroke:#000000; stroke-linecap:round; stroke-linejoin:round; stroke-width:4; stroke-opacity:1; fill:none" points="1409.03,580.085 1427.93,580.085 "/>
<polyline clip-path="url(#clip280)" style="stroke:#000000; stroke-linecap:round; stroke-linejoin:round; stroke-width:4; stroke-opacity:1; fill:none" points="1409.03,362.302 1427.93,362.302 "/>
<polyline clip-path="url(#clip280)" style="stroke:#000000; stroke-linecap:round; stroke-linejoin:round; stroke-width:4; stroke-opacity:1; fill:none" points="1409.03,144.519 1427.93,144.519 "/>
<path clip-path="url(#clip280)" d="M1220.83 1451.67 L1250.51 1451.67 L1250.51 1455.6 L1220.83 1455.6 L1220.83 1451.67 Z" fill="#000000" fill-rule="nonzero" fill-opacity="1" /><path clip-path="url(#clip280)" d="M1264.63 1464.56 L1280.95 1464.56 L1280.95 1468.5 L1259 1468.5 L1259 1464.56 Q1261.66 1461.81 1266.25 1457.18 Q1270.85 1452.53 1272.03 1451.18 Q1274.28 1448.66 1275.16 1446.92 Q1276.06 1445.16 1276.06 1443.47 Q1276.06 1440.72 1274.12 1438.98 Q1272.2 1437.25 1269.09 1437.25 Q1266.89 1437.25 1264.44 1438.01 Q1262.01 1438.78 1259.23 1440.33 L1259.23 1435.6 Q1262.06 1434.47 1264.51 1433.89 Q1266.96 1433.31 1269 1433.31 Q1274.37 1433.31 1277.57 1436 Q1280.76 1438.68 1280.76 1443.17 Q1280.76 1445.3 1279.95 1447.22 Q1279.16 1449.12 1277.06 1451.72 Q1276.48 1452.39 1273.38 1455.6 Q1270.27 1458.8 1264.63 1464.56 Z" fill="#000000" fill-rule="nonzero" fill-opacity="1" /><path clip-path="url(#clip280)" d="M1290.81 1433.94 L1309.16 1433.94 L1309.16 1437.87 L1295.09 1437.87 L1295.09 1446.35 Q1296.11 1446 1297.13 1445.84 Q1298.14 1445.65 1299.16 1445.65 Q1304.95 1445.65 1308.33 1448.82 Q1311.71 1451.99 1311.71 1457.41 Q1311.71 1462.99 1308.24 1466.09 Q1304.76 1469.17 1298.45 1469.17 Q1296.27 1469.17 1294 1468.8 Q1291.76 1468.43 1289.35 1467.69 L1289.35 1462.99 Q1291.43 1464.12 1293.65 1464.68 Q1295.88 1465.23 1298.35 1465.23 Q1302.36 1465.23 1304.7 1463.13 Q1307.03 1461.02 1307.03 1457.41 Q1307.03 1453.8 1304.7 1451.69 Q1302.36 1449.59 1298.35 1449.59 Q1296.48 1449.59 1294.6 1450 Q1292.75 1450.42 1290.81 1451.3 L1290.81 1433.94 Z" fill="#000000" fill-rule="nonzero" fill-opacity="1" /><path clip-path="url(#clip280)" d="M1330.92 1437.02 Q1327.31 1437.02 1325.48 1440.58 Q1323.68 1444.12 1323.68 1451.25 Q1323.68 1458.36 1325.48 1461.92 Q1327.31 1465.47 1330.92 1465.47 Q1334.56 1465.47 1336.36 1461.92 Q1338.19 1458.36 1338.19 1451.25 Q1338.19 1444.12 1336.36 1440.58 Q1334.56 1437.02 1330.92 1437.02 M1330.92 1433.31 Q1336.73 1433.31 1339.79 1437.92 Q1342.87 1442.5 1342.87 1451.25 Q1342.87 1459.98 1339.79 1464.59 Q1336.73 1469.17 1330.92 1469.17 Q1325.11 1469.17 1322.03 1464.59 Q1318.98 1459.98 1318.98 1451.25 Q1318.98 1442.5 1322.03 1437.92 Q1325.11 1433.31 1330.92 1433.31 Z" fill="#000000" fill-rule="nonzero" fill-opacity="1" /><path clip-path="url(#clip280)" d="M1361.08 1437.02 Q1357.47 1437.02 1355.64 1440.58 Q1353.84 1444.12 1353.84 1451.25 Q1353.84 1458.36 1355.64 1461.92 Q1357.47 1465.47 1361.08 1465.47 Q1364.72 1465.47 1366.52 1461.92 Q1368.35 1458.36 1368.35 1451.25 Q1368.35 1444.12 1366.52 1440.58 Q1364.72 1437.02 1361.08 1437.02 M1361.08 1433.31 Q1366.89 1433.31 1369.95 1437.92 Q1373.03 1442.5 1373.03 1451.25 Q1373.03 1459.98 1369.95 1464.59 Q1366.89 1469.17 1361.08 1469.17 Q1355.27 1469.17 1352.2 1464.59 Q1349.14 1459.98 1349.14 1451.25 Q1349.14 1442.5 1352.2 1437.92 Q1355.27 1433.31 1361.08 1433.31 Z" fill="#000000" fill-rule="nonzero" fill-opacity="1" /><path clip-path="url(#clip280)" d="M1220.83 1233.89 L1250.51 1233.89 L1250.51 1237.82 L1220.83 1237.82 L1220.83 1233.89 Z" fill="#000000" fill-rule="nonzero" fill-opacity="1" /><path clip-path="url(#clip280)" d="M1264.63 1246.78 L1280.95 1246.78 L1280.95 1250.71 L1259 1250.71 L1259 1246.78 Q1261.66 1244.02 1266.25 1239.4 Q1270.85 1234.74 1272.03 1233.4 Q1274.28 1230.88 1275.16 1229.14 Q1276.06 1227.38 1276.06 1225.69 Q1276.06 1222.94 1274.12 1221.2 Q1272.2 1219.46 1269.09 1219.46 Q1266.89 1219.46 1264.44 1220.23 Q1262.01 1220.99 1259.23 1222.54 L1259.23 1217.82 Q1262.06 1216.69 1264.51 1216.11 Q1266.96 1215.53 1269 1215.53 Q1274.37 1215.53 1277.57 1218.21 Q1280.76 1220.9 1280.76 1225.39 Q1280.76 1227.52 1279.95 1229.44 Q1279.16 1231.34 1277.06 1233.93 Q1276.48 1234.6 1273.38 1237.82 Q1270.27 1241.02 1264.63 1246.78 Z" fill="#000000" fill-rule="nonzero" fill-opacity="1" /><path clip-path="url(#clip280)" d="M1300.76 1219.23 Q1297.15 1219.23 1295.32 1222.8 Q1293.52 1226.34 1293.52 1233.47 Q1293.52 1240.58 1295.32 1244.14 Q1297.15 1247.68 1300.76 1247.68 Q1304.39 1247.68 1306.2 1244.14 Q1308.03 1240.58 1308.03 1233.47 Q1308.03 1226.34 1306.2 1222.8 Q1304.39 1219.23 1300.76 1219.23 M1300.76 1215.53 Q1306.57 1215.53 1309.63 1220.14 Q1312.7 1224.72 1312.7 1233.47 Q1312.7 1242.2 1309.63 1246.8 Q1306.57 1251.39 1300.76 1251.39 Q1294.95 1251.39 1291.87 1246.8 Q1288.82 1242.2 1288.82 1233.47 Q1288.82 1224.72 1291.87 1220.14 Q1294.95 1215.53 1300.76 1215.53 Z" fill="#000000" fill-rule="nonzero" fill-opacity="1" /><path clip-path="url(#clip280)" d="M1330.92 1219.23 Q1327.31 1219.23 1325.48 1222.8 Q1323.68 1226.34 1323.68 1233.47 Q1323.68 1240.58 1325.48 1244.14 Q1327.31 1247.68 1330.92 1247.68 Q1334.56 1247.68 1336.36 1244.14 Q1338.19 1240.58 1338.19 1233.47 Q1338.19 1226.34 1336.36 1222.8 Q1334.56 1219.23 1330.92 1219.23 M1330.92 1215.53 Q1336.73 1215.53 1339.79 1220.14 Q1342.87 1224.72 1342.87 1233.47 Q1342.87 1242.2 1339.79 1246.8 Q1336.73 1251.39 1330.92 1251.39 Q1325.11 1251.39 1322.03 1246.8 Q1318.98 1242.2 1318.98 1233.47 Q1318.98 1224.72 1322.03 1220.14 Q1325.11 1215.53 1330.92 1215.53 Z" fill="#000000" fill-rule="nonzero" fill-opacity="1" /><path clip-path="url(#clip280)" d="M1361.08 1219.23 Q1357.47 1219.23 1355.64 1222.8 Q1353.84 1226.34 1353.84 1233.47 Q1353.84 1240.58 1355.64 1244.14 Q1357.47 1247.68 1361.08 1247.68 Q1364.72 1247.68 1366.52 1244.14 Q1368.35 1240.58 1368.35 1233.47 Q1368.35 1226.34 1366.52 1222.8 Q1364.72 1219.23 1361.08 1219.23 M1361.08 1215.53 Q1366.89 1215.53 1369.95 1220.14 Q1373.03 1224.72 1373.03 1233.47 Q1373.03 1242.2 1369.95 1246.8 Q1366.89 1251.39 1361.08 1251.39 Q1355.27 1251.39 1352.2 1246.8 Q1349.14 1242.2 1349.14 1233.47 Q1349.14 1224.72 1352.2 1220.14 Q1355.27 1215.53 1361.08 1215.53 Z" fill="#000000" fill-rule="nonzero" fill-opacity="1" /><path clip-path="url(#clip280)" d="M1220.83 1016.1 L1250.51 1016.1 L1250.51 1020.04 L1220.83 1020.04 L1220.83 1016.1 Z" fill="#000000" fill-rule="nonzero" fill-opacity="1" /><path clip-path="url(#clip280)" d="M1261.41 1029 L1269.05 1029 L1269.05 1002.63 L1260.74 1004.3 L1260.74 1000.04 L1269 998.372 L1273.68 998.372 L1273.68 1029 L1281.32 1029 L1281.32 1032.93 L1261.41 1032.93 L1261.41 1029 Z" fill="#000000" fill-rule="nonzero" fill-opacity="1" /><path clip-path="url(#clip280)" d="M1290.81 998.372 L1309.16 998.372 L1309.16 1002.31 L1295.09 1002.31 L1295.09 1010.78 Q1296.11 1010.43 1297.13 1010.27 Q1298.14 1010.08 1299.16 1010.08 Q1304.95 1010.08 1308.33 1013.26 Q1311.71 1016.43 1311.71 1021.84 Q1311.71 1027.42 1308.24 1030.52 Q1304.76 1033.6 1298.45 1033.6 Q1296.27 1033.6 1294 1033.23 Q1291.76 1032.86 1289.35 1032.12 L1289.35 1027.42 Q1291.43 1028.56 1293.65 1029.11 Q1295.88 1029.67 1298.35 1029.67 Q1302.36 1029.67 1304.7 1027.56 Q1307.03 1025.45 1307.03 1021.84 Q1307.03 1018.23 1304.7 1016.13 Q1302.36 1014.02 1298.35 1014.02 Q1296.48 1014.02 1294.6 1014.44 Q1292.75 1014.85 1290.81 1015.73 L1290.81 998.372 Z" fill="#000000" fill-rule="nonzero" fill-opacity="1" /><path clip-path="url(#clip280)" d="M1330.92 1001.45 Q1327.31 1001.45 1325.48 1005.02 Q1323.68 1008.56 1323.68 1015.69 Q1323.68 1022.79 1325.48 1026.36 Q1327.31 1029.9 1330.92 1029.9 Q1334.56 1029.9 1336.36 1026.36 Q1338.19 1022.79 1338.19 1015.69 Q1338.19 1008.56 1336.36 1005.02 Q1334.56 1001.45 1330.92 1001.45 M1330.92 997.747 Q1336.73 997.747 1339.79 1002.35 Q1342.87 1006.94 1342.87 1015.69 Q1342.87 1024.41 1339.79 1029.02 Q1336.73 1033.6 1330.92 1033.6 Q1325.11 1033.6 1322.03 1029.02 Q1318.98 1024.41 1318.98 1015.69 Q1318.98 1006.94 1322.03 1002.35 Q1325.11 997.747 1330.92 997.747 Z" fill="#000000" fill-rule="nonzero" fill-opacity="1" /><path clip-path="url(#clip280)" d="M1361.08 1001.45 Q1357.47 1001.45 1355.64 1005.02 Q1353.84 1008.56 1353.84 1015.69 Q1353.84 1022.79 1355.64 1026.36 Q1357.47 1029.9 1361.08 1029.9 Q1364.72 1029.9 1366.52 1026.36 Q1368.35 1022.79 1368.35 1015.69 Q1368.35 1008.56 1366.52 1005.02 Q1364.72 1001.45 1361.08 1001.45 M1361.08 997.747 Q1366.89 997.747 1369.95 1002.35 Q1373.03 1006.94 1373.03 1015.69 Q1373.03 1024.41 1369.95 1029.02 Q1366.89 1033.6 1361.08 1033.6 Q1355.27 1033.6 1352.2 1029.02 Q1349.14 1024.41 1349.14 1015.69 Q1349.14 1006.94 1352.2 1002.35 Q1355.27 997.747 1361.08 997.747 Z" fill="#000000" fill-rule="nonzero" fill-opacity="1" /><path clip-path="url(#clip280)" d="M1220.83 798.32 L1250.51 798.32 L1250.51 802.255 L1220.83 802.255 L1220.83 798.32 Z" fill="#000000" fill-rule="nonzero" fill-opacity="1" /><path clip-path="url(#clip280)" d="M1261.41 811.213 L1269.05 811.213 L1269.05 784.848 L1260.74 786.514 L1260.74 782.255 L1269 780.588 L1273.68 780.588 L1273.68 811.213 L1281.32 811.213 L1281.32 815.148 L1261.41 815.148 L1261.41 811.213 Z" fill="#000000" fill-rule="nonzero" fill-opacity="1" /><path clip-path="url(#clip280)" d="M1300.76 783.667 Q1297.15 783.667 1295.32 787.232 Q1293.52 790.773 1293.52 797.903 Q1293.52 805.01 1295.32 808.574 Q1297.15 812.116 1300.76 812.116 Q1304.39 812.116 1306.2 808.574 Q1308.03 805.01 1308.03 797.903 Q1308.03 790.773 1306.2 787.232 Q1304.39 783.667 1300.76 783.667 M1300.76 779.963 Q1306.57 779.963 1309.63 784.57 Q1312.7 789.153 1312.7 797.903 Q1312.7 806.63 1309.63 811.236 Q1306.57 815.82 1300.76 815.82 Q1294.95 815.82 1291.87 811.236 Q1288.82 806.63 1288.82 797.903 Q1288.82 789.153 1291.87 784.57 Q1294.95 779.963 1300.76 779.963 Z" fill="#000000" fill-rule="nonzero" fill-opacity="1" /><path clip-path="url(#clip280)" d="M1330.92 783.667 Q1327.31 783.667 1325.48 787.232 Q1323.68 790.773 1323.68 797.903 Q1323.68 805.01 1325.48 808.574 Q1327.31 812.116 1330.92 812.116 Q1334.56 812.116 1336.36 808.574 Q1338.19 805.01 1338.19 797.903 Q1338.19 790.773 1336.36 787.232 Q1334.56 783.667 1330.92 783.667 M1330.92 779.963 Q1336.73 779.963 1339.79 784.57 Q1342.87 789.153 1342.87 797.903 Q1342.87 806.63 1339.79 811.236 Q1336.73 815.82 1330.92 815.82 Q1325.11 815.82 1322.03 811.236 Q1318.98 806.63 1318.98 797.903 Q1318.98 789.153 1322.03 784.57 Q1325.11 779.963 1330.92 779.963 Z" fill="#000000" fill-rule="nonzero" fill-opacity="1" /><path clip-path="url(#clip280)" d="M1361.08 783.667 Q1357.47 783.667 1355.64 787.232 Q1353.84 790.773 1353.84 797.903 Q1353.84 805.01 1355.64 808.574 Q1357.47 812.116 1361.08 812.116 Q1364.72 812.116 1366.52 808.574 Q1368.35 805.01 1368.35 797.903 Q1368.35 790.773 1366.52 787.232 Q1364.72 783.667 1361.08 783.667 M1361.08 779.963 Q1366.89 779.963 1369.95 784.57 Q1373.03 789.153 1373.03 797.903 Q1373.03 806.63 1369.95 811.236 Q1366.89 815.82 1361.08 815.82 Q1355.27 815.82 1352.2 811.236 Q1349.14 806.63 1349.14 797.903 Q1349.14 789.153 1352.2 784.57 Q1355.27 779.963 1361.08 779.963 Z" fill="#000000" fill-rule="nonzero" fill-opacity="1" /><path clip-path="url(#clip280)" d="M1250.99 580.537 L1280.67 580.537 L1280.67 584.472 L1250.99 584.472 L1250.99 580.537 Z" fill="#000000" fill-rule="nonzero" fill-opacity="1" /><path clip-path="url(#clip280)" d="M1290.81 562.805 L1309.16 562.805 L1309.16 566.74 L1295.09 566.74 L1295.09 575.212 Q1296.11 574.865 1297.13 574.703 Q1298.14 574.518 1299.16 574.518 Q1304.95 574.518 1308.33 577.689 Q1311.71 580.861 1311.71 586.277 Q1311.71 591.856 1308.24 594.958 Q1304.76 598.036 1298.45 598.036 Q1296.27 598.036 1294 597.666 Q1291.76 597.296 1289.35 596.555 L1289.35 591.856 Q1291.43 592.99 1293.65 593.546 Q1295.88 594.101 1298.35 594.101 Q1302.36 594.101 1304.7 591.995 Q1307.03 589.888 1307.03 586.277 Q1307.03 582.666 1304.7 580.56 Q1302.36 578.453 1298.35 578.453 Q1296.48 578.453 1294.6 578.87 Q1292.75 579.287 1290.81 580.166 L1290.81 562.805 Z" fill="#000000" fill-rule="nonzero" fill-opacity="1" /><path clip-path="url(#clip280)" d="M1330.92 565.884 Q1327.31 565.884 1325.48 569.449 Q1323.68 572.99 1323.68 580.12 Q1323.68 587.226 1325.48 590.791 Q1327.31 594.333 1330.92 594.333 Q1334.56 594.333 1336.36 590.791 Q1338.19 587.226 1338.19 580.12 Q1338.19 572.99 1336.36 569.449 Q1334.56 565.884 1330.92 565.884 M1330.92 562.18 Q1336.73 562.18 1339.79 566.787 Q1342.87 571.37 1342.87 580.12 Q1342.87 588.847 1339.79 593.453 Q1336.73 598.036 1330.92 598.036 Q1325.11 598.036 1322.03 593.453 Q1318.98 588.847 1318.98 580.12 Q1318.98 571.37 1322.03 566.787 Q1325.11 562.18 1330.92 562.18 Z" fill="#000000" fill-rule="nonzero" fill-opacity="1" /><path clip-path="url(#clip280)" d="M1361.08 565.884 Q1357.47 565.884 1355.64 569.449 Q1353.84 572.99 1353.84 580.12 Q1353.84 587.226 1355.64 590.791 Q1357.47 594.333 1361.08 594.333 Q1364.72 594.333 1366.52 590.791 Q1368.35 587.226 1368.35 580.12 Q1368.35 572.99 1366.52 569.449 Q1364.72 565.884 1361.08 565.884 M1361.08 562.18 Q1366.89 562.18 1369.95 566.787 Q1373.03 571.37 1373.03 580.12 Q1373.03 588.847 1369.95 593.453 Q1366.89 598.036 1361.08 598.036 Q1355.27 598.036 1352.2 593.453 Q1349.14 588.847 1349.14 580.12 Q1349.14 571.37 1352.2 566.787 Q1355.27 562.18 1361.08 562.18 Z" fill="#000000" fill-rule="nonzero" fill-opacity="1" /><path clip-path="url(#clip280)" d="M1361.08 348.101 Q1357.47 348.101 1355.64 351.665 Q1353.84 355.207 1353.84 362.337 Q1353.84 369.443 1355.64 373.008 Q1357.47 376.55 1361.08 376.55 Q1364.72 376.55 1366.52 373.008 Q1368.35 369.443 1368.35 362.337 Q1368.35 355.207 1366.52 351.665 Q1364.72 348.101 1361.08 348.101 M1361.08 344.397 Q1366.89 344.397 1369.95 349.003 Q1373.03 353.587 1373.03 362.337 Q1373.03 371.063 1369.95 375.67 Q1366.89 380.253 1361.08 380.253 Q1355.27 380.253 1352.2 375.67 Q1349.14 371.063 1349.14 362.337 Q1349.14 353.587 1352.2 349.003 Q1355.27 344.397 1361.08 344.397 Z" fill="#000000" fill-rule="nonzero" fill-opacity="1" /><path clip-path="url(#clip280)" d="M1290.81 127.239 L1309.16 127.239 L1309.16 131.174 L1295.09 131.174 L1295.09 139.646 Q1296.11 139.299 1297.13 139.137 Q1298.14 138.952 1299.16 138.952 Q1304.95 138.952 1308.33 142.123 Q1311.71 145.294 1311.71 150.711 Q1311.71 156.29 1308.24 159.391 Q1304.76 162.47 1298.45 162.47 Q1296.27 162.47 1294 162.1 Q1291.76 161.729 1289.35 160.989 L1289.35 156.29 Q1291.43 157.424 1293.65 157.979 Q1295.88 158.535 1298.35 158.535 Q1302.36 158.535 1304.7 156.428 Q1307.03 154.322 1307.03 150.711 Q1307.03 147.1 1304.7 144.993 Q1302.36 142.887 1298.35 142.887 Q1296.48 142.887 1294.6 143.303 Q1292.75 143.72 1290.81 144.6 L1290.81 127.239 Z" fill="#000000" fill-rule="nonzero" fill-opacity="1" /><path clip-path="url(#clip280)" d="M1330.92 130.317 Q1327.31 130.317 1325.48 133.882 Q1323.68 137.424 1323.68 144.553 Q1323.68 151.66 1325.48 155.225 Q1327.31 158.766 1330.92 158.766 Q1334.56 158.766 1336.36 155.225 Q1338.19 151.66 1338.19 144.553 Q1338.19 137.424 1336.36 133.882 Q1334.56 130.317 1330.92 130.317 M1330.92 126.614 Q1336.73 126.614 1339.79 131.22 Q1342.87 135.804 1342.87 144.553 Q1342.87 153.28 1339.79 157.887 Q1336.73 162.47 1330.92 162.47 Q1325.11 162.47 1322.03 157.887 Q1318.98 153.28 1318.98 144.553 Q1318.98 135.804 1322.03 131.22 Q1325.11 126.614 1330.92 126.614 Z" fill="#000000" fill-rule="nonzero" fill-opacity="1" /><path clip-path="url(#clip280)" d="M1361.08 130.317 Q1357.47 130.317 1355.64 133.882 Q1353.84 137.424 1353.84 144.553 Q1353.84 151.66 1355.64 155.225 Q1357.47 158.766 1361.08 158.766 Q1364.72 158.766 1366.52 155.225 Q1368.35 151.66 1368.35 144.553 Q1368.35 137.424 1366.52 133.882 Q1364.72 130.317 1361.08 130.317 M1361.08 126.614 Q1366.89 126.614 1369.95 131.22 Q1373.03 135.804 1373.03 144.553 Q1373.03 153.28 1369.95 157.887 Q1366.89 162.47 1361.08 162.47 Q1355.27 162.47 1352.2 157.887 Q1349.14 153.28 1349.14 144.553 Q1349.14 135.804 1352.2 131.22 Q1355.27 126.614 1361.08 126.614 Z" fill="#000000" fill-rule="nonzero" fill-opacity="1" /><polyline clip-path="url(#clip281)" style="stroke:#009af9; stroke-linecap:round; stroke-linejoin:round; stroke-width:4; stroke-opacity:1; fill:none" points="1435.74,87.9763 1436.2,278.095 1436.66,289.222 1437.12,300.325 1437.58,311.402 1438.04,322.455 1438.5,333.481 1438.96,344.481 1439.42,355.455 1439.88,366.403 1440.34,377.323 1440.8,388.215 1441.26,399.08 1441.73,409.917 1442.19,420.724 1442.65,431.503 1443.11,442.253 1443.57,452.973 1444.03,463.662 1444.49,474.321 1444.95,484.948 1445.41,495.544 1445.87,506.108 1446.33,516.639 1446.79,527.138 1447.25,537.602 1447.71,548.033 1448.17,558.429 1448.63,568.79 1449.09,579.116 1449.56,589.405 1450.02,599.657 1450.48,609.872 1450.94,620.049 1451.4,630.188 1451.86,640.288 1452.32,650.348 1452.78,660.367 1453.24,670.346 1453.7,680.283 1454.16,690.177 1454.62,700.029 1455.08,709.837 1455.54,719.601 1456,729.32 1456.46,738.993 1456.92,748.619 1457.39,758.198 1457.85,767.729 1458.31,777.212 1458.77,786.645 1459.23,796.027 1459.69,805.359 1460.15,814.638 1460.61,823.865 1461.07,833.037 1461.53,842.156 1461.99,851.219 1462.45,860.225 1462.91,869.175 1463.37,878.066 1463.83,886.898 1464.29,895.67 1464.75,904.381 1465.22,913.03 1465.68,921.616 1466.14,930.138 1466.6,938.595 1467.06,946.986 1467.52,955.31 1467.98,963.566 1468.44,971.752 1468.9,979.868 1469.36,987.913 1469.82,995.885 1470.28,1003.78 1470.74,1011.61 1471.2,1019.35 1471.66,1027.02 1472.12,1034.62 1472.58,1042.13 1473.05,1049.56 1473.51,1056.91 1473.97,1064.18 1474.43,1071.36 1474.89,1078.46 1475.35,1085.47 1475.81,1092.39 1476.27,1099.22 1476.73,1105.97 1477.19,1112.62 1477.65,1119.18 1478.11,1125.65 1478.57,1132.02 1479.03,1138.3 1479.49,1144.48 1479.95,1150.56 1480.41,1156.54 1480.88,1162.43 1481.34,1168.21 1481.8,1173.9 1482.26,1179.48 1482.72,1184.96 1483.18,1190.34 1483.64,1195.61 1484.1,1200.78 1484.56,1205.84 1485.02,1210.8 1485.48,1215.66 1485.94,1220.41 1486.4,1225.05 1486.86,1229.59 1487.32,1234.03 1487.78,1238.36 1488.24,1242.59 1488.7,1246.72 1489.17,1250.74 1489.63,1254.67 1490.09,1258.49 1490.55,1262.22 1491.01,1265.85 1491.47,1269.39 1491.93,1272.84 1492.39,1276.19 1492.85,1279.46 1493.31,1282.64 1493.77,1285.74 1494.23,1288.76 1494.69,1291.71 1495.15,1294.57 1495.61,1297.37 1496.07,1300.1 1496.53,1302.76 1497,1305.36 1497.46,1307.9 1497.92,1310.38 1498.38,1312.81 1498.84,1315.19 1499.3,1317.51 1499.76,1319.79 1500.22,1322.02 1500.68,1324.2 1501.14,1326.34 1501.6,1328.44 1502.06,1330.5 1502.52,1332.52 1502.98,1334.49 1503.44,1336.43 1503.9,1338.32 1504.36,1340.18 1504.83,1342 1505.29,1343.78 1505.75,1345.53 1506.21,1347.23 1506.67,1348.9 1507.13,1350.53 1507.59,1352.12 1508.05,1353.68 1508.51,1355.19 1508.97,1356.67 1509.43,1358.12 1509.89,1359.52 1510.35,1360.89 1510.81,1362.23 1511.27,1363.53 1511.73,1364.79 1512.19,1366.02 1512.66,1367.21 1513.12,1368.37 1513.58,1369.5 1514.04,1370.6 1514.5,1371.66 1514.96,1372.7 1515.42,1373.7 1515.88,1374.67 1516.34,1375.62 1516.8,1376.54 1517.26,1377.42 1517.72,1378.29 1518.18,1379.13 1518.64,1379.94 1519.1,1380.73 1519.56,1381.49 1520.02,1382.24 1520.49,1382.96 1520.95,1383.66 1521.41,1384.34 1521.87,1385 1522.33,1385.65 1522.79,1386.28 1523.25,1386.89 1523.71,1387.48 1524.17,1388.06 1524.63,1388.63 1525.09,1389.18 1525.55,1389.72 1526.01,1390.25 1526.47,1390.77 1526.93,1391.27 1527.39,1391.77 1527.85,1392.26 1528.32,1392.74 1528.78,1393.21 1529.24,1393.67 1529.7,1394.13 1530.16,1394.58 1530.62,1395.02 1531.08,1395.46 1531.54,1395.9 1532,1396.33 1532.46,1396.75 1532.92,1397.18 1533.38,1397.6 1533.84,1398.01 1534.3,1398.43 1534.76,1398.84 1535.22,1399.25 1535.68,1399.66 1536.15,1400.06 1536.61,1400.47 1537.07,1400.87 1537.53,1401.28 1537.99,1401.68 1538.45,1402.08 1538.91,1402.48 1539.37,1402.88 1539.83,1403.28 1540.29,1403.68 1540.75,1404.08 1541.21,1404.48 1541.67,1404.88 1542.13,1405.27 1542.59,1405.67 1543.05,1406.07 1543.51,1406.47 1543.98,1406.86 1544.44,1407.26 1544.9,1407.65 1545.36,1408.05 1545.82,1408.44 1546.28,1408.83 1546.74,1409.22 1547.2,1409.62 1547.66,1410.01 1548.12,1410.39 1548.58,1410.78 1549.04,1411.17 1549.5,1411.55 1549.96,1411.94 1550.42,1412.32 1550.88,1412.7 1551.34,1413.08 1551.8,1413.46 1552.27,1413.83 1552.73,1414.21 1553.19,1414.58 1553.65,1414.95 1554.11,1415.32 1554.57,1415.68 1555.03,1416.05 1555.49,1416.41 1555.95,1416.76 1556.41,1417.12 1556.87,1417.47 1557.33,1417.83 1557.79,1418.17 1558.25,1418.52 1558.71,1418.86 1559.17,1419.2 1559.63,1419.54 1560.1,1419.87 1560.56,1420.2 1561.02,1420.53 1561.48,1420.85 1561.94,1421.17 1562.4,1421.49 1562.86,1421.81 1563.32,1422.12 1563.78,1422.43 1564.24,1422.73 1564.7,1423.03 1565.16,1423.33 1565.62,1423.62 1566.08,1423.91 1566.54,1424.2 1567,1424.49 1567.46,1424.77 1567.93,1425.04 1568.39,1425.32 1568.85,1425.59 1569.31,1425.85 1569.77,1426.12 1570.23,1426.38 1570.69,1426.63 1571.15,1426.89 1571.61,1427.13 1572.07,1427.38 1572.53,1427.62 1572.99,1427.86 1573.45,1428.1 1573.91,1428.33 1574.37,1428.56 1574.83,1428.79 1575.29,1429.01 1575.76,1429.23 1576.22,1429.45 1576.68,1429.66 1577.14,1429.87 1577.6,1430.08 1578.06,1430.28 1578.52,1430.48 1578.98,1430.68 1579.44,1430.88 1579.9,1431.07 1580.36,1431.26 1580.82,1431.45 1581.28,1431.63 1581.74,1431.81 1582.2,1431.99 1582.66,1432.17 1583.12,1432.34 1583.59,1432.51 1584.05,1432.68 1584.51,1432.85 1584.97,1433.01 1585.43,1433.17 1585.89,1433.33 1586.35,1433.49 1586.81,1433.64 1587.27,1433.8 1587.73,1433.95 1588.19,1434.1 1588.65,1434.24 1589.11,1434.39 1589.57,1434.53 1590.03,1434.67 1590.49,1434.81 1590.95,1434.94 1591.42,1435.08 1591.88,1435.21 1592.34,1435.34 1592.8,1435.47 1593.26,1435.6 1593.72,1435.72 1594.18,1435.85 1594.64,1435.97 1595.1,1436.09 1595.56,1436.21 1596.02,1436.33 1596.48,1436.44 1596.94,1436.56 1597.4,1436.67 1597.86,1436.78 1598.32,1436.89 1598.78,1437 1599.25,1437.11 1599.71,1437.21 1600.17,1437.32 1600.63,1437.42 1601.09,1437.52 1601.55,1437.62 1602.01,1437.72 1602.47,1437.82 1602.93,1437.91 1603.39,1438.01 1603.85,1438.1 1604.31,1438.2 1604.77,1438.29 1605.23,1438.38 1605.69,1438.47 1606.15,1438.55 1606.61,1438.64 1607.08,1438.73 1607.54,1438.81 1608,1438.9 1608.46,1438.98 1608.92,1439.06 1609.38,1439.14 1609.84,1439.22 1610.3,1439.3 1610.76,1439.38 1611.22,1439.46 1611.68,1439.53 1612.14,1439.61 1612.6,1439.68 1613.06,1439.75 1613.52,1439.83 1613.98,1439.9 1614.44,1439.97 1614.9,1440.04 1615.37,1440.11 1615.83,1440.17 1616.29,1440.24 1616.75,1440.31 1617.21,1440.37 1617.67,1440.44 1618.13,1440.5 1618.59,1440.57 1619.05,1440.63 1619.51,1440.69 1619.97,1440.75 1620.43,1440.81 1620.89,1440.87 1621.35,1440.93 1621.81,1440.99 1622.27,1441.04 1622.73,1441.1 1623.2,1441.16 1623.66,1441.21 1624.12,1441.27 1624.58,1441.32 1625.04,1441.37 1625.5,1441.43 1625.96,1441.48 1626.42,1441.53 1626.88,1441.58 1627.34,1441.63 1627.8,1441.68 1628.26,1441.73 1628.72,1441.78 1629.18,1441.82 1629.64,1441.87 1630.1,1441.92 1630.56,1441.96 1631.03,1442.01 1631.49,1442.05 1631.95,1442.1 1632.41,1442.14 1632.87,1442.19 1633.33,1442.23 1633.79,1442.27 1634.25,1442.31 1634.71,1442.35 1635.17,1442.39 1635.63,1442.43 1636.09,1442.47 1636.55,1442.51 1637.01,1442.55 1637.47,1442.59 1637.93,1442.63 1638.39,1442.66 1638.86,1442.7 1639.32,1442.74 1639.78,1442.77 1640.24,1442.81 1640.7,1442.84 1641.16,1442.88 1641.62,1442.91 1642.08,1442.94 1642.54,1442.98 1643,1443.01 1643.46,1443.04 1643.92,1443.07 1644.38,1443.1 1644.84,1443.14 1645.3,1443.17 1645.76,1443.2 1646.22,1443.23 1646.69,1443.26 1647.15,1443.29 1647.61,1443.31 1648.07,1443.34 1648.53,1443.37 1648.99,1443.4 1649.45,1443.43 1649.91,1443.45 1650.37,1443.48 1650.83,1443.5 1651.29,1443.53 1651.75,1443.56 1652.21,1443.58 1652.67,1443.61 1653.13,1443.63 1653.59,1443.66 1654.05,1443.68 1654.52,1443.7 1654.98,1443.73 1655.44,1443.75 1655.9,1443.77 1656.36,1443.79 1656.82,1443.82 1657.28,1443.84 1657.74,1443.86 1658.2,1443.88 1658.66,1443.9 1659.12,1443.92 1659.58,1443.94 1660.04,1443.96 1660.5,1443.98 1660.96,1444 1661.42,1444.02 1661.88,1444.04 1662.35,1444.06 1662.81,1444.08 1663.27,1444.1 1663.73,1444.12 1664.19,1444.13 1664.65,1444.15 1665.11,1444.17 1665.57,1444.19 1666.03,1444.2 1666.49,1444.22 1666.95,1444.24 1667.41,1444.25 1667.87,1444.27 1668.33,1444.29 1668.79,1444.3 1669.25,1444.32 1669.71,1444.33 1670.18,1444.35 1670.64,1444.36 1671.1,1444.38 1671.56,1444.39 1672.02,1444.41 1672.48,1444.42 1672.94,1444.43 1673.4,1444.45 1673.86,1444.46 1674.32,1444.48 1674.78,1444.49 1675.24,1444.5 1675.7,1444.52 1676.16,1444.53 1676.62,1444.54 1677.08,1444.55 1677.54,1444.57 1678,1444.58 1678.47,1444.59 1678.93,1444.6 1679.39,1444.61 1679.85,1444.63 1680.31,1444.64 1680.77,1444.65 1681.23,1444.66 1681.69,1444.67 1682.15,1444.68 1682.61,1444.69 1683.07,1444.7 1683.53,1444.71 1683.99,1444.72 1684.45,1444.73 1684.91,1444.74 1685.37,1444.75 1685.83,1444.76 1686.3,1444.77 1686.76,1444.78 1687.22,1444.79 1687.68,1444.8 1688.14,1444.81 1688.6,1444.82 1689.06,1444.83 1689.52,1444.84 1689.98,1444.85 1690.44,1444.86 1690.9,1444.86 1691.36,1444.87 1691.82,1444.88 1692.28,1444.89 1692.74,1444.9 1693.2,1444.91 1693.66,1444.91 1694.13,1444.92 1694.59,1444.93 1695.05,1444.94 1695.51,1444.95 1695.97,1444.95 1696.43,1444.96 1696.89,1444.97 1697.35,1444.98 1697.81,1444.98 1698.27,1444.99 1698.73,1445 1699.19,1445 1699.65,1445.01 1700.11,1445.02 1700.57,1445.02 1701.03,1445.03 1701.49,1445.04 1701.96,1445.04 1702.42,1445.05 1702.88,1445.06 1703.34,1445.06 1703.8,1445.07 1704.26,1445.08 1704.72,1445.08 1705.18,1445.09 1705.64,1445.09 1706.1,1445.1 1706.56,1445.1 1707.02,1445.11 1707.48,1445.12 1707.94,1445.12 1708.4,1445.13 1708.86,1445.13 1709.32,1445.14 1709.79,1445.14 1710.25,1445.15 1710.71,1445.15 1711.17,1445.16 1711.63,1445.16 1712.09,1445.17 1712.55,1445.17 1713.01,1445.18 1713.47,1445.18 1713.93,1445.19 1714.39,1445.19 1714.85,1445.2 1715.31,1445.2 1715.77,1445.21 1716.23,1445.21 1716.69,1445.22 1717.15,1445.22 1717.62,1445.23 1718.08,1445.23 1718.54,1445.24 1719,1445.24 1719.46,1445.24 1719.92,1445.25 1720.38,1445.25 1720.84,1445.26 1721.3,1445.26 1721.76,1445.26 1722.22,1445.27 1722.68,1445.27 1723.14,1445.28 1723.6,1445.28 1724.06,1445.28 1724.52,1445.29 1724.98,1445.29 1725.45,1445.3 1725.91,1445.3 1726.37,1445.3 1726.83,1445.31 1727.29,1445.31 1727.75,1445.31 1728.21,1445.32 1728.67,1445.32 1729.13,1445.32 1729.59,1445.33 1730.05,1445.33 1730.51,1445.33 1730.97,1445.34 1731.43,1445.34 1731.89,1445.34 1732.35,1445.35 1732.81,1445.35 1733.28,1445.35 1733.74,1445.36 1734.2,1445.36 1734.66,1445.36 1735.12,1445.37 1735.58,1445.37 1736.04,1445.37 1736.5,1445.38 1736.96,1445.38 1737.42,1445.38 1737.88,1445.38 1738.34,1445.39 1738.8,1445.39 1739.26,1445.39 1739.72,1445.4 1740.18,1445.4 1740.64,1445.4 1741.1,1445.4 1741.57,1445.41 1742.03,1445.41 1742.49,1445.41 1742.95,1445.41 1743.41,1445.42 1743.87,1445.42 1744.33,1445.42 1744.79,1445.42 1745.25,1445.43 1745.71,1445.43 1746.17,1445.43 1746.63,1445.43 1747.09,1445.44 1747.55,1445.44 1748.01,1445.44 1748.47,1445.44 1748.93,1445.44 1749.4,1445.45 1749.86,1445.45 1750.32,1445.45 1750.78,1445.45 1751.24,1445.46 1751.7,1445.46 1752.16,1445.46 1752.62,1445.46 1753.08,1445.46 1753.54,1445.47 1754,1445.47 1754.46,1445.47 1754.92,1445.47 1755.38,1445.47 1755.84,1445.48 1756.3,1445.48 1756.76,1445.48 1757.23,1445.48 1757.69,1445.48 1758.15,1445.49 1758.61,1445.49 1759.07,1445.49 1759.53,1445.49 1759.99,1445.49 1760.45,1445.5 1760.91,1445.5 1761.37,1445.5 1761.83,1445.5 1762.29,1445.5 1762.75,1445.5 1763.21,1445.51 1763.67,1445.51 1764.13,1445.51 1764.59,1445.51 1765.06,1445.51 1765.52,1445.51 1765.98,1445.52 1766.44,1445.52 1766.9,1445.52 1767.36,1445.52 1767.82,1445.52 1768.28,1445.52 1768.74,1445.53 1769.2,1445.53 1769.66,1445.53 1770.12,1445.53 1770.58,1445.53 1771.04,1445.53 1771.5,1445.53 1771.96,1445.54 1772.42,1445.54 1772.89,1445.54 1773.35,1445.54 1773.81,1445.54 1774.27,1445.54 1774.73,1445.54 1775.19,1445.55 1775.65,1445.55 1776.11,1445.55 1776.57,1445.55 1777.03,1445.55 1777.49,1445.55 1777.95,1445.55 1778.41,1445.55 1778.87,1445.56 1779.33,1445.56 1779.79,1445.56 1780.25,1445.56 1780.72,1445.56 1781.18,1445.56 1781.64,1445.56 1782.1,1445.56 1782.56,1445.57 1783.02,1445.57 1783.48,1445.57 1783.94,1445.57 1784.4,1445.57 1784.86,1445.57 1785.32,1445.57 1785.78,1445.57 1786.24,1445.57 1786.7,1445.58 1787.16,1445.58 1787.62,1445.58 1788.08,1445.58 1788.55,1445.58 1789.01,1445.58 1789.47,1445.58 1789.93,1445.58 1790.39,1445.58 1790.85,1445.59 1791.31,1445.59 1791.77,1445.59 1792.23,1445.59 1792.69,1445.59 1793.15,1445.59 1793.61,1445.59 1794.07,1445.59 1794.53,1445.59 1794.99,1445.59 1795.45,1445.59 1795.91,1445.6 1796.38,1445.6 1796.84,1445.6 1797.3,1445.6 1797.76,1445.6 1798.22,1445.6 1798.68,1445.6 1799.14,1445.6 1799.6,1445.6 1800.06,1445.6 1800.52,1445.6 1800.98,1445.61 1801.44,1445.61 1801.9,1445.61 1802.36,1445.61 1802.82,1445.61 1803.28,1445.61 1803.74,1445.61 1804.2,1445.61 1804.67,1445.61 1805.13,1445.61 1805.59,1445.61 1806.05,1445.61 1806.51,1445.61 1806.97,1445.62 1807.43,1445.62 1807.89,1445.62 1808.35,1445.62 1808.81,1445.62 1809.27,1445.62 1809.73,1445.62 1810.19,1445.62 1810.65,1445.62 1811.11,1445.62 1811.57,1445.62 1812.03,1445.62 1812.5,1445.62 1812.96,1445.62 1813.42,1445.63 1813.88,1445.63 1814.34,1445.63 1814.8,1445.63 1815.26,1445.63 1815.72,1445.63 1816.18,1445.63 1816.64,1445.63 1817.1,1445.63 1817.56,1445.63 1818.02,1445.63 1818.48,1445.63 1818.94,1445.63 1819.4,1445.63 1819.86,1445.63 1820.33,1445.64 1820.79,1445.64 1821.25,1445.64 1821.71,1445.64 1822.17,1445.64 1822.63,1445.64 1823.09,1445.64 1823.55,1445.64 1824.01,1445.64 1824.47,1445.64 1824.93,1445.64 1825.39,1445.64 1825.85,1445.64 1826.31,1445.64 1826.77,1445.64 1827.23,1445.64 1827.69,1445.64 1828.16,1445.64 1828.62,1445.65 1829.08,1445.65 1829.54,1445.65 1830,1445.65 1830.46,1445.65 1830.92,1445.65 1831.38,1445.65 1831.84,1445.65 1832.3,1445.65 1832.76,1445.65 1833.22,1445.65 1833.68,1445.65 1834.14,1445.65 1834.6,1445.65 1835.06,1445.65 1835.52,1445.65 1835.99,1445.65 1836.45,1445.65 1836.91,1445.65 1837.37,1445.65 1837.83,1445.65 1838.29,1445.66 1838.75,1445.66 1839.21,1445.66 1839.67,1445.66 1840.13,1445.66 1840.59,1445.66 1841.05,1445.66 1841.51,1445.66 1841.97,1445.66 1842.43,1445.66 1842.89,1445.66 1843.35,1445.66 1843.82,1445.66 1844.28,1445.66 1844.74,1445.66 1845.2,1445.66 1845.66,1445.66 1846.12,1445.66 1846.58,1445.66 1847.04,1445.66 1847.5,1445.66 1847.96,1445.66 1848.42,1445.66 1848.88,1445.66 1849.34,1445.66 1849.8,1445.67 1850.26,1445.67 1850.72,1445.67 1851.18,1445.67 1851.65,1445.67 1852.11,1445.67 1852.57,1445.67 1853.03,1445.67 1853.49,1445.67 1853.95,1445.67 1854.41,1445.67 1854.87,1445.67 1855.33,1445.67 1855.79,1445.67 1856.25,1445.67 1856.71,1445.67 1857.17,1445.67 1857.63,1445.67 1858.09,1445.67 1858.55,1445.67 1859.01,1445.67 1859.48,1445.67 1859.94,1445.67 1860.4,1445.67 1860.86,1445.67 1861.32,1445.67 1861.78,1445.67 1862.24,1445.67 1862.7,1445.67 1863.16,1445.67 1863.62,1445.67 1864.08,1445.68 1864.54,1445.68 1865,1445.68 1865.46,1445.68 1865.92,1445.68 1866.38,1445.68 1866.84,1445.68 1867.3,1445.68 1867.77,1445.68 1868.23,1445.68 1868.69,1445.68 1869.15,1445.68 1869.61,1445.68 1870.07,1445.68 1870.53,1445.68 1870.99,1445.68 1871.45,1445.68 1871.91,1445.68 1872.37,1445.68 1872.83,1445.68 1873.29,1445.68 1873.75,1445.68 1874.21,1445.68 1874.67,1445.68 1875.13,1445.68 1875.6,1445.68 1876.06,1445.68 1876.52,1445.68 1876.98,1445.68 1877.44,1445.68 1877.9,1445.68 1878.36,1445.68 1878.82,1445.68 1879.28,1445.68 1879.74,1445.68 1880.2,1445.68 1880.66,1445.68 1881.12,1445.68 1881.58,1445.68 1882.04,1445.68 1882.5,1445.68 1882.96,1445.69 1883.43,1445.69 1883.89,1445.69 1884.35,1445.69 1884.81,1445.69 1885.27,1445.69 1885.73,1445.69 1886.19,1445.69 1886.65,1445.69 1887.11,1445.69 1887.57,1445.69 1888.03,1445.69 1888.49,1445.69 1888.95,1445.69 1889.41,1445.69 1889.87,1445.69 1890.33,1445.69 1890.79,1445.69 1891.26,1445.69 1891.72,1445.69 1892.18,1445.69 1892.64,1445.69 1893.1,1445.69 1893.56,1445.69 1894.02,1445.69 1894.48,1445.69 1894.94,1445.69 1895.4,1445.69 1895.86,1445.69 1896.32,1445.69 1896.78,1445.69 1897.24,1445.69 1897.7,1445.69 1898.16,1445.69 1898.62,1445.69 1899.09,1445.69 1899.55,1445.69 1900.01,1445.69 1900.47,1445.69 1900.93,1445.69 1901.39,1445.69 1901.85,1445.69 1902.31,1445.69 1902.77,1445.69 1903.23,1445.69 1903.69,1445.69 1904.15,1445.69 1904.61,1445.69 1905.07,1445.69 1905.53,1445.69 1905.99,1445.69 1906.45,1445.69 1906.92,1445.69 1907.38,1445.69 1907.84,1445.69 1908.3,1445.69 1908.76,1445.69 1909.22,1445.7 1909.68,1445.7 1910.14,1445.7 1910.6,1445.7 1911.06,1445.7 1911.52,1445.7 1911.98,1445.7 1912.44,1445.7 1912.9,1445.7 1913.36,1445.7 1913.82,1445.7 1914.28,1445.7 1914.75,1445.7 1915.21,1445.7 1915.67,1445.7 1916.13,1445.7 1916.59,1445.7 1917.05,1445.7 1917.51,1445.7 1917.97,1445.7 1918.43,1445.7 1918.89,1445.7 1919.35,1445.7 1919.81,1445.7 1920.27,1445.7 1920.73,1445.7 1921.19,1445.7 1921.65,1445.7 1922.11,1445.7 1922.58,1445.7 1923.04,1445.7 1923.5,1445.7 1923.96,1445.7 1924.42,1445.7 1924.88,1445.7 1925.34,1445.7 1925.8,1445.7 1926.26,1445.7 1926.72,1445.7 1927.18,1445.7 1927.64,1445.7 1928.1,1445.7 1928.56,1445.7 1929.02,1445.7 1929.48,1445.7 1929.94,1445.7 1930.4,1445.7 1930.87,1445.7 1931.33,1445.7 1931.79,1445.7 1932.25,1445.7 1932.71,1445.7 1933.17,1445.7 1933.63,1445.7 1934.09,1445.7 1934.55,1445.7 1935.01,1445.7 1935.47,1445.7 1935.93,1445.7 1936.39,1445.7 1936.85,1445.7 1937.31,1445.7 1937.77,1445.7 1938.23,1445.7 1938.7,1445.7 1939.16,1445.7 1939.62,1445.7 1940.08,1445.7 1940.54,1445.7 1941,1445.7 1941.46,1445.7 1941.92,1445.7 1942.38,1445.7 1942.84,1445.7 1943.3,1445.7 1943.76,1445.7 1944.22,1445.7 1944.68,1445.7 1945.14,1445.7 1945.6,1445.7 1946.06,1445.7 1946.53,1445.7 1946.99,1445.7 1947.45,1445.7 1947.91,1445.7 1948.37,1445.7 1948.83,1445.7 1949.29,1445.7 1949.75,1445.7 1950.21,1445.7 1950.67,1445.7 1951.13,1445.7 1951.59,1445.7 1952.05,1445.7 1952.51,1445.7 1952.97,1445.7 1953.43,1445.7 1953.89,1445.7 1954.36,1445.7 1954.82,1445.71 1955.28,1445.71 1955.74,1445.71 1956.2,1445.71 1956.66,1445.71 1957.12,1445.71 1957.58,1445.71 1958.04,1445.71 1958.5,1445.71 1958.96,1445.71 1959.42,1445.71 1959.88,1445.71 1960.34,1445.71 1960.8,1445.71 1961.26,1445.71 1961.72,1445.71 1962.19,1445.71 1962.65,1445.71 1963.11,1445.71 1963.57,1445.71 1964.03,1445.71 1964.49,1445.71 1964.95,1445.71 1965.41,1445.71 1965.87,1445.71 1966.33,1445.71 1966.79,1445.71 1967.25,1445.71 1967.71,1445.71 1968.17,1445.71 1968.63,1445.71 1969.09,1445.71 1969.55,1445.71 1970.02,1445.71 1970.48,1445.71 1970.94,1445.71 1971.4,1445.71 1971.86,1445.71 1972.32,1445.71 1972.78,1445.71 1973.24,1445.71 1973.7,1445.71 1974.16,1445.71 1974.62,1445.71 1975.08,1445.71 1975.54,1445.71 1976,1445.71 1976.46,1445.71 1976.92,1445.71 1977.38,1445.71 1977.85,1445.71 1978.31,1445.71 1978.77,1445.71 1979.23,1445.71 1979.69,1445.71 1980.15,1445.71 1980.61,1445.71 1981.07,1445.71 1981.53,1445.71 1981.99,1445.71 1982.45,1445.71 1982.91,1445.71 1983.37,1445.71 1983.83,1445.71 1984.29,1445.71 1984.75,1445.71 1985.21,1445.71 1985.68,1445.71 1986.14,1445.71 1986.6,1445.71 1987.06,1445.71 1987.52,1445.71 1987.98,1445.71 1988.44,1445.71 1988.9,1445.71 1989.36,1445.71 1989.82,1445.71 1990.28,1445.71 1990.74,1445.71 1991.2,1445.71 1991.66,1445.71 1992.12,1445.71 1992.58,1445.71 1993.04,1445.71 1993.5,1445.71 1993.97,1445.71 1994.43,1445.71 1994.89,1445.71 1995.35,1445.71 1995.81,1445.71 1996.27,1445.71 1996.73,1445.71 1997.19,1445.71 1997.65,1445.71 1998.11,1445.71 1998.57,1445.71 1999.03,1445.71 1999.49,1445.71 1999.95,1445.71 2000.41,1445.71 2000.87,1445.71 2001.33,1445.71 2001.8,1445.71 2002.26,1445.71 2002.72,1445.71 2003.18,1445.71 2003.64,1445.71 2004.1,1445.71 2004.56,1445.71 2005.02,1445.71 2005.48,1445.71 2005.94,1445.71 2006.4,1445.71 2006.86,1445.71 2007.32,1445.71 2007.78,1445.71 2008.24,1445.71 2008.7,1445.71 2009.16,1445.71 2009.63,1445.71 2010.09,1445.71 2010.55,1445.71 2011.01,1445.71 2011.47,1445.71 2011.93,1445.71 2012.39,1445.71 2012.85,1445.71 2013.31,1445.71 2013.77,1445.71 2014.23,1445.71 2014.69,1445.71 2015.15,1445.71 2015.61,1445.71 2016.07,1445.71 2016.53,1445.71 2016.99,1445.71 2017.46,1445.71 2017.92,1445.71 2018.38,1445.71 2018.84,1445.71 2019.3,1445.71 2019.76,1445.71 2020.22,1445.71 2020.68,1445.71 2021.14,1445.71 2021.6,1445.71 2022.06,1445.71 2022.52,1445.71 2022.98,1445.71 2023.44,1445.71 2023.9,1445.71 2024.36,1445.71 2024.82,1445.71 2025.29,1445.71 2025.75,1445.71 2026.21,1445.71 2026.67,1445.71 2027.13,1445.71 2027.59,1445.71 2028.05,1445.71 2028.51,1445.71 2028.97,1445.71 2029.43,1445.71 2029.89,1445.71 2030.35,1445.71 2030.81,1445.71 2031.27,1445.71 2031.73,1445.71 2032.19,1445.71 2032.65,1445.71 2033.12,1445.71 2033.58,1445.71 2034.04,1445.71 2034.5,1445.71 2034.96,1445.71 2035.42,1445.71 2035.88,1445.71 2036.34,1445.71 2036.8,1445.71 2037.26,1445.71 2037.72,1445.71 2038.18,1445.71 2038.64,1445.71 2039.1,1445.71 2039.56,1445.71 2040.02,1445.71 2040.48,1445.71 2040.95,1445.71 2041.41,1445.71 2041.87,1445.71 2042.33,1445.71 2042.79,1445.71 2043.25,1445.71 2043.71,1445.71 2044.17,1445.71 2044.63,1445.71 2045.09,1445.71 2045.55,1445.71 2046.01,1445.71 2046.47,1445.71 2046.93,1445.71 2047.39,1445.71 2047.85,1445.71 2048.31,1445.71 2048.78,1445.71 2049.24,1445.71 2049.7,1445.71 2050.16,1445.71 2050.62,1445.71 2051.08,1445.71 2051.54,1445.71 2052,1445.71 2052.46,1445.71 2052.92,1445.71 2053.38,1445.71 2053.84,1445.71 2054.3,1445.71 2054.76,1445.71 2055.22,1445.71 2055.68,1445.71 2056.14,1445.71 2056.61,1445.71 2057.07,1445.71 2057.53,1445.71 2057.99,1445.71 2058.45,1445.71 2058.91,1445.71 2059.37,1445.71 2059.83,1445.71 2060.29,1445.71 2060.75,1445.71 2061.21,1445.71 2061.67,1445.71 2062.13,1445.71 2062.59,1445.71 2063.05,1445.71 2063.51,1445.71 2063.97,1445.71 2064.43,1445.71 2064.9,1445.71 2065.36,1445.71 2065.82,1445.71 2066.28,1445.71 2066.74,1445.71 2067.2,1445.71 2067.66,1445.71 2068.12,1445.71 2068.58,1445.71 2069.04,1445.71 2069.5,1445.71 2069.96,1445.71 2070.42,1445.71 2070.88,1445.71 2071.34,1445.71 2071.8,1445.71 2072.26,1445.71 2072.73,1445.71 2073.19,1445.71 2073.65,1445.71 2074.11,1445.71 2074.57,1445.71 2075.03,1445.71 2075.49,1445.71 2075.95,1445.71 2076.41,1445.71 2076.87,1445.71 2077.33,1445.71 2077.79,1445.71 2078.25,1445.71 2078.71,1445.71 2079.17,1445.71 2079.63,1445.71 2080.09,1445.71 2080.56,1445.71 2081.02,1445.71 2081.48,1445.71 2081.94,1445.71 2082.4,1445.71 2082.86,1445.71 2083.32,1445.71 2083.78,1445.71 2084.24,1445.71 2084.7,1445.71 2085.16,1445.71 2085.62,1445.71 2086.08,1445.71 2086.54,1445.71 2087,1445.71 2087.46,1445.71 2087.92,1445.71 2088.39,1445.71 2088.85,1445.71 2089.31,1445.71 2089.77,1445.71 2090.23,1445.71 2090.69,1445.71 2091.15,1445.71 2091.61,1445.71 2092.07,1445.71 2092.53,1445.71 2092.99,1445.71 2093.45,1445.71 2093.91,1445.71 2094.37,1445.71 2094.83,1445.71 2095.29,1445.71 2095.75,1445.71 2096.22,1445.71 2096.68,1445.71 2097.14,1445.71 2097.6,1445.71 2098.06,1445.71 2098.52,1445.71 2098.98,1445.71 2099.44,1445.71 2099.9,1445.71 2100.36,1445.71 2100.82,1445.71 2101.28,1445.71 2101.74,1445.71 2102.2,1445.71 2102.66,1445.71 2103.12,1445.71 2103.58,1445.71 2104.05,1445.71 2104.51,1445.71 2104.97,1445.71 2105.43,1445.71 2105.89,1445.71 2106.35,1445.71 2106.81,1445.71 2107.27,1445.71 2107.73,1445.71 2108.19,1445.71 2108.65,1445.71 2109.11,1445.71 2109.57,1445.71 2110.03,1445.71 2110.49,1445.71 2110.95,1445.71 2111.41,1445.71 2111.88,1445.71 2112.34,1445.71 2112.8,1445.71 2113.26,1445.71 2113.72,1445.71 2114.18,1445.71 2114.64,1445.71 2115.1,1445.71 2115.56,1445.71 2116.02,1445.71 2116.48,1445.71 2116.94,1445.71 2117.4,1445.71 2117.86,1445.71 2118.32,1445.71 2118.78,1445.71 2119.24,1445.71 2119.71,1445.71 2120.17,1445.71 2120.63,1445.71 2121.09,1445.71 2121.55,1445.71 2122.01,1445.71 2122.47,1445.71 2122.93,1445.71 2123.39,1445.71 2123.85,1445.71 2124.31,1445.71 2124.77,1445.71 2125.23,1445.71 2125.69,1445.71 2126.15,1445.71 2126.61,1445.71 2127.07,1445.71 2127.53,1445.71 2128,1445.71 2128.46,1445.71 2128.92,1445.71 2129.38,1445.71 2129.84,1445.71 2130.3,1445.71 2130.76,1445.71 2131.22,1445.71 2131.68,1445.71 2132.14,1445.71 2132.6,1445.71 2133.06,1445.71 2133.52,1445.71 2133.98,1445.71 2134.44,1445.71 2134.9,1445.71 2135.36,1445.71 2135.83,1445.71 2136.29,1445.71 2136.75,1445.71 2137.21,1445.71 2137.67,1445.71 2138.13,1445.71 2138.59,1445.71 2139.05,1445.71 2139.51,1445.71 2139.97,1445.71 2140.43,1445.71 2140.89,1445.71 2141.35,1445.71 2141.81,1445.71 2142.27,1445.71 2142.73,1445.71 2143.19,1445.71 2143.66,1445.71 2144.12,1445.71 2144.58,1445.71 2145.04,1445.71 2145.5,1445.71 2145.96,1445.71 2146.42,1445.71 2146.88,1445.71 2147.34,1445.71 2147.8,1445.72 2148.26,1445.72 2148.72,1445.72 2149.18,1445.72 2149.64,1445.72 2150.1,1445.72 2150.56,1445.72 2151.02,1445.72 2151.49,1445.72 2151.95,1445.72 2152.41,1445.72 2152.87,1445.72 2153.33,1445.72 2153.79,1445.72 2154.25,1445.72 2154.71,1445.72 2155.17,1445.72 2155.63,1445.72 2156.09,1445.72 2156.55,1445.72 2157.01,1445.72 2157.47,1445.72 2157.93,1445.72 2158.39,1445.72 2158.85,1445.72 2159.32,1445.72 2159.78,1445.72 2160.24,1445.72 2160.7,1445.72 2161.16,1445.72 2161.62,1445.72 2162.08,1445.72 2162.54,1445.72 2163,1445.72 2163.46,1445.72 2163.92,1445.72 2164.38,1445.72 2164.84,1445.72 2165.3,1445.72 2165.76,1445.72 2166.22,1445.72 2166.68,1445.72 2167.15,1445.72 2167.61,1445.72 2168.07,1445.72 2168.53,1445.72 2168.99,1445.72 2169.45,1445.72 2169.91,1445.72 2170.37,1445.72 2170.83,1445.72 2171.29,1445.72 2171.75,1445.72 2172.21,1445.72 2172.67,1445.72 2173.13,1445.72 2173.59,1445.72 2174.05,1445.72 2174.51,1445.72 2174.98,1445.72 2175.44,1445.72 2175.9,1445.72 2176.36,1445.72 2176.82,1445.72 2177.28,1445.72 2177.74,1445.72 2178.2,1445.72 2178.66,1445.72 2179.12,1445.72 2179.58,1445.72 2180.04,1445.72 2180.5,1445.72 2180.96,1445.72 2181.42,1445.72 2181.88,1445.72 2182.34,1445.72 2182.81,1445.72 2183.27,1445.72 2183.73,1445.72 2184.19,1445.72 2184.65,1445.72 2185.11,1445.72 2185.57,1445.72 2186.03,1445.72 2186.49,1445.72 2186.95,1445.72 2187.41,1445.72 2187.87,1445.72 2188.33,1445.72 2188.79,1445.72 2189.25,1445.72 2189.71,1445.72 2190.17,1445.72 2190.63,1445.72 2191.1,1445.72 2191.56,1445.72 2192.02,1445.72 2192.48,1445.72 2192.94,1445.72 2193.4,1445.72 2193.86,1445.72 2194.32,1445.72 2194.78,1445.72 2195.24,1445.72 2195.7,1445.72 2196.16,1445.72 2196.62,1445.72 2197.08,1445.72 2197.54,1445.72 2198,1445.72 2198.46,1445.72 2198.93,1445.72 2199.39,1445.72 2199.85,1445.72 2200.31,1445.72 2200.77,1445.72 2201.23,1445.72 2201.69,1445.72 2202.15,1445.72 2202.61,1445.72 2203.07,1445.72 2203.53,1445.72 2203.99,1445.72 2204.45,1445.72 2204.91,1445.72 2205.37,1445.72 2205.83,1445.72 2206.29,1445.72 2206.76,1445.72 2207.22,1445.72 2207.68,1445.72 2208.14,1445.72 2208.6,1445.72 2209.06,1445.72 2209.52,1445.72 2209.98,1445.72 2210.44,1445.72 2210.9,1445.72 2211.36,1445.72 2211.82,1445.72 2212.28,1445.72 2212.74,1445.72 2213.2,1445.72 2213.66,1445.72 2214.12,1445.72 2214.59,1445.72 2215.05,1445.72 2215.51,1445.72 2215.97,1445.72 2216.43,1445.72 2216.89,1445.72 2217.35,1445.72 2217.81,1445.72 2218.27,1445.72 2218.73,1445.72 2219.19,1445.72 2219.65,1445.72 2220.11,1445.72 2220.57,1445.72 2221.03,1445.72 2221.49,1445.72 2221.95,1445.72 2222.42,1445.72 2222.88,1445.72 2223.34,1445.72 2223.8,1445.72 2224.26,1445.72 2224.72,1445.72 2225.18,1445.72 2225.64,1445.72 2226.1,1445.72 2226.56,1445.72 2227.02,1445.72 2227.48,1445.72 2227.94,1445.72 2228.4,1445.72 2228.86,1445.72 2229.32,1445.72 2229.78,1445.72 2230.25,1445.72 2230.71,1445.72 2231.17,1445.72 2231.63,1445.72 2232.09,1445.72 2232.55,1445.72 2233.01,1445.72 2233.47,1445.72 2233.93,1445.72 2234.39,1445.72 2234.85,1445.72 2235.31,1445.72 2235.77,1445.72 2236.23,1445.72 2236.69,1445.72 2237.15,1445.72 2237.61,1445.72 2238.08,1445.72 2238.54,1445.72 2239,1445.72 2239.46,1445.72 2239.92,1445.72 2240.38,1445.72 2240.84,1445.72 2241.3,1445.72 2241.76,1445.72 2242.22,1445.72 2242.68,1445.72 2243.14,1445.72 2243.6,1445.72 2244.06,1445.72 2244.52,1445.72 2244.98,1445.72 2245.44,1445.72 2245.91,1445.72 2246.37,1445.72 2246.83,1445.72 2247.29,1445.72 2247.75,1445.72 2248.21,1445.72 2248.67,1445.72 2249.13,1445.72 2249.59,1445.72 2250.05,1445.72 2250.51,1445.72 2250.97,1445.72 2251.43,1445.72 2251.89,1445.72 2252.35,1445.72 2252.81,1445.72 2253.27,1445.72 2253.73,1445.72 2254.2,1445.72 2254.66,1445.72 2255.12,1445.72 2255.58,1445.72 2256.04,1445.72 2256.5,1445.72 2256.96,1445.72 2257.42,1445.72 2257.88,1445.72 2258.34,1445.72 2258.8,1445.72 2259.26,1445.72 2259.72,1445.72 2260.18,1445.72 2260.64,1445.72 2261.1,1445.72 2261.56,1445.72 2262.03,1445.72 2262.49,1445.72 2262.95,1445.72 2263.41,1445.72 2263.87,1445.72 2264.33,1445.72 2264.79,1445.72 2265.25,1445.72 2265.71,1445.72 2266.17,1445.72 2266.63,1445.72 2267.09,1445.72 2267.55,1445.72 2268.01,1445.72 2268.47,1445.72 2268.93,1445.72 2269.39,1445.72 2269.86,1445.72 2270.32,1445.72 2270.78,1445.72 2271.24,1445.72 2271.7,1445.72 2272.16,1445.72 2272.62,1445.72 2273.08,1445.72 2273.54,1445.72 2274,1445.72 2274.46,1445.72 2274.92,1445.72 2275.38,1445.72 2275.84,1445.72 2276.3,1445.72 2276.76,1445.72 2277.22,1445.72 2277.69,1445.72 2278.15,1445.72 2278.61,1445.72 2279.07,1445.72 2279.53,1445.72 2279.99,1445.72 2280.45,1445.72 2280.91,1445.72 2281.37,1445.72 2281.83,1445.72 2282.29,1445.72 2282.75,1445.72 2283.21,1445.72 2283.67,1445.72 2284.13,1445.72 2284.59,1445.72 2285.05,1445.72 2285.52,1445.72 2285.98,1445.72 2286.44,1445.72 2286.9,1445.72 2287.36,1445.72 2287.82,1445.72 2288.28,1445.72 2288.74,1445.72 2289.2,1445.72 2289.66,1445.72 2290.12,1445.72 2290.58,1445.72 2291.04,1445.72 2291.5,1445.72 2291.96,1445.72 2292.42,1445.72 2292.88,1445.72 2293.35,1445.72 2293.81,1445.72 2294.27,1445.72 2294.73,1445.72 2295.19,1445.72 2295.65,1445.72 2296.11,1445.72 2296.57,1445.72 2297.03,1445.72 2297.49,1445.72 2297.95,1445.72 2298.41,1445.72 2298.87,1445.72 2299.33,1445.72 2299.79,1445.72 2300.25,1445.72 2300.71,1445.72 2301.18,1445.72 2301.64,1445.72 2302.1,1445.72 2302.56,1445.72 2303.02,1445.72 2303.48,1445.72 2303.94,1445.72 2304.4,1445.72 2304.86,1445.72 2305.32,1445.72 2305.78,1445.72 2306.24,1445.72 2306.7,1445.72 2307.16,1445.72 2307.62,1445.72 2308.08,1445.72 2308.54,1445.72 2309.01,1445.72 2309.47,1445.72 2309.93,1445.72 2310.39,1445.72 2310.85,1445.72 2311.31,1445.72 2311.77,1445.72 2312.23,1445.72 2312.69,1445.72 2313.15,1445.72 2313.61,1445.72 2314.07,1445.72 2314.53,1445.72 2314.99,1445.72 2315.45,1445.72 2315.91,1445.72 2316.37,1445.72 2316.83,1445.72 2317.3,1445.72 2317.76,1445.72 2318.22,1445.72 2318.68,1445.72 2319.14,1445.72 2319.6,1445.72 2320.06,1445.72 2320.52,1445.72 2320.98,1445.72 2321.44,1445.72 2321.9,1445.72 2322.36,1445.72 2322.82,1445.72 2323.28,1445.72 2323.74,1445.72 2324.2,1445.72 2324.66,1445.72 2325.13,1445.72 2325.59,1445.72 2326.05,1445.72 "/>
<path clip-path="url(#clip280)" d="M2091.51 198.898 L2321.3 198.898 L2321.3 95.2176 L2091.51 95.2176  Z" fill="#ffffff" fill-rule="evenodd" fill-opacity="1"/>
<polyline clip-path="url(#clip280)" style="stroke:#000000; stroke-linecap:round; stroke-linejoin:round; stroke-width:4; stroke-opacity:1; fill:none" points="2091.51,198.898 2321.3,198.898 2321.3,95.2176 2091.51,95.2176 2091.51,198.898 "/>
<polyline clip-path="url(#clip280)" style="stroke:#009af9; stroke-linecap:round; stroke-linejoin:round; stroke-width:4; stroke-opacity:1; fill:none" points="2102,147.058 2164.91,147.058 "/>
<path clip-path="url(#clip280)" d="M2193.82 139.176 L2193.82 143.203 Q2192.02 142.277 2190.07 141.815 Q2188.13 141.352 2186.04 141.352 Q2182.87 141.352 2181.28 142.324 Q2179.7 143.296 2179.7 145.24 Q2179.7 146.722 2180.84 147.578 Q2181.97 148.412 2185.4 149.176 L2186.85 149.5 Q2191.39 150.472 2193.29 152.254 Q2195.21 154.014 2195.21 157.185 Q2195.21 160.796 2192.34 162.902 Q2189.49 165.009 2184.49 165.009 Q2182.41 165.009 2180.14 164.592 Q2177.9 164.199 2175.4 163.388 L2175.4 158.99 Q2177.76 160.217 2180.05 160.842 Q2182.34 161.444 2184.59 161.444 Q2187.6 161.444 2189.22 160.426 Q2190.84 159.384 2190.84 157.509 Q2190.84 155.773 2189.66 154.847 Q2188.5 153.921 2184.54 153.064 L2183.06 152.717 Q2179.1 151.884 2177.34 150.171 Q2175.58 148.435 2175.58 145.426 Q2175.58 141.768 2178.17 139.778 Q2180.77 137.787 2185.54 137.787 Q2187.9 137.787 2189.98 138.134 Q2192.06 138.481 2193.82 139.176 Z" fill="#000000" fill-rule="nonzero" fill-opacity="1" /><path clip-path="url(#clip280)" d="M2206.21 131.051 L2206.21 138.412 L2214.98 138.412 L2214.98 141.722 L2206.21 141.722 L2206.21 155.796 Q2206.21 158.967 2207.06 159.87 Q2207.94 160.773 2210.6 160.773 L2214.98 160.773 L2214.98 164.338 L2210.6 164.338 Q2205.67 164.338 2203.8 162.509 Q2201.92 160.657 2201.92 155.796 L2201.92 141.722 L2198.8 141.722 L2198.8 138.412 L2201.92 138.412 L2201.92 131.051 L2206.21 131.051 Z" fill="#000000" fill-rule="nonzero" fill-opacity="1" /><path clip-path="url(#clip280)" d="M2235.6 142.393 Q2234.89 141.977 2234.03 141.791 Q2233.2 141.583 2232.18 141.583 Q2228.57 141.583 2226.62 143.944 Q2224.7 146.282 2224.7 150.68 L2224.7 164.338 L2220.42 164.338 L2220.42 138.412 L2224.7 138.412 L2224.7 142.44 Q2226.04 140.078 2228.2 138.944 Q2230.35 137.787 2233.43 137.787 Q2233.87 137.787 2234.4 137.856 Q2234.93 137.903 2235.58 138.018 L2235.6 142.393 Z" fill="#000000" fill-rule="nonzero" fill-opacity="1" /><path clip-path="url(#clip280)" d="M2261.21 150.31 L2261.21 152.393 L2241.62 152.393 Q2241.9 156.791 2244.26 159.106 Q2246.65 161.398 2250.88 161.398 Q2253.34 161.398 2255.63 160.796 Q2257.94 160.194 2260.21 158.99 L2260.21 163.018 Q2257.92 163.99 2255.51 164.5 Q2253.1 165.009 2250.63 165.009 Q2244.42 165.009 2240.79 161.398 Q2237.18 157.787 2237.18 151.629 Q2237.18 145.264 2240.6 141.537 Q2244.05 137.787 2249.89 137.787 Q2255.12 137.787 2258.15 141.166 Q2261.21 144.523 2261.21 150.31 M2256.95 149.06 Q2256.9 145.565 2254.98 143.481 Q2253.08 141.398 2249.93 141.398 Q2246.37 141.398 2244.22 143.412 Q2242.09 145.426 2241.76 149.083 L2256.95 149.06 Z" fill="#000000" fill-rule="nonzero" fill-opacity="1" /><path clip-path="url(#clip280)" d="M2284.72 139.176 L2284.72 143.203 Q2282.92 142.277 2280.97 141.815 Q2279.03 141.352 2276.95 141.352 Q2273.78 141.352 2272.18 142.324 Q2270.6 143.296 2270.6 145.24 Q2270.6 146.722 2271.74 147.578 Q2272.87 148.412 2276.3 149.176 L2277.76 149.5 Q2282.29 150.472 2284.19 152.254 Q2286.11 154.014 2286.11 157.185 Q2286.11 160.796 2283.24 162.902 Q2280.4 165.009 2275.4 165.009 Q2273.31 165.009 2271.04 164.592 Q2268.8 164.199 2266.3 163.388 L2266.3 158.99 Q2268.66 160.217 2270.95 160.842 Q2273.24 161.444 2275.49 161.444 Q2278.5 161.444 2280.12 160.426 Q2281.74 159.384 2281.74 157.509 Q2281.74 155.773 2280.56 154.847 Q2279.4 153.921 2275.44 153.064 L2273.96 152.717 Q2270 151.884 2268.24 150.171 Q2266.48 148.435 2266.48 145.426 Q2266.48 141.768 2269.08 139.778 Q2271.67 137.787 2276.44 137.787 Q2278.8 137.787 2280.88 138.134 Q2282.97 138.481 2284.72 139.176 Z" fill="#000000" fill-rule="nonzero" fill-opacity="1" /><path clip-path="url(#clip280)" d="M2309.42 139.176 L2309.42 143.203 Q2307.62 142.277 2305.67 141.815 Q2303.73 141.352 2301.65 141.352 Q2298.47 141.352 2296.88 142.324 Q2295.3 143.296 2295.3 145.24 Q2295.3 146.722 2296.44 147.578 Q2297.57 148.412 2301 149.176 L2302.46 149.5 Q2306.99 150.472 2308.89 152.254 Q2310.81 154.014 2310.81 157.185 Q2310.81 160.796 2307.94 162.902 Q2305.09 165.009 2300.09 165.009 Q2298.01 165.009 2295.74 164.592 Q2293.5 164.199 2291 163.388 L2291 158.99 Q2293.36 160.217 2295.65 160.842 Q2297.94 161.444 2300.19 161.444 Q2303.2 161.444 2304.82 160.426 Q2306.44 159.384 2306.44 157.509 Q2306.44 155.773 2305.26 154.847 Q2304.1 153.921 2300.14 153.064 L2298.66 152.717 Q2294.7 151.884 2292.94 150.171 Q2291.18 148.435 2291.18 145.426 Q2291.18 141.768 2293.78 139.778 Q2296.37 137.787 2301.14 137.787 Q2303.5 137.787 2305.58 138.134 Q2307.66 138.481 2309.42 139.176 Z" fill="#000000" fill-rule="nonzero" fill-opacity="1" /></svg>
