<?xml version="1.0" encoding="utf-8"?>
<svg xmlns="http://www.w3.org/2000/svg" xmlns:xlink="http://www.w3.org/1999/xlink" width="600" height="400" viewBox="0 0 2400 1600">
<defs>
  <clipPath id="clip900">
    <rect x="0" y="0" width="2400" height="1600"/>
  </clipPath>
</defs>
<path clip-path="url(#clip900)" d="M0 1600 L2400 1600 L2400 0 L0 0  Z" fill="#ffffff" fill-rule="evenodd" fill-opacity="1"/>
<defs>
  <clipPath id="clip901">
    <rect x="1409" y="47" width="945" height="1440"/>
  </clipPath>
</defs>
<path clip-path="url(#clip900)" d="M178.867 1486.45 L1122.59 1486.45 L1122.59 47.2441 L178.867 47.2441  Z" fill="#ffffff" fill-rule="evenodd" fill-opacity="1"/>
<defs>
  <clipPath id="clip902">
    <rect x="178" y="47" width="945" height="1440"/>
  </clipPath>
</defs>
<polyline clip-path="url(#clip902)" style="stroke:#000000; stroke-linecap:round; stroke-linejoin:round; stroke-width:2; stroke-opacity:0.1; fill:none" points="255.789,1486.45 255.789,47.2441 "/>
<polyline clip-path="url(#clip902)" style="stroke:#000000; stroke-linecap:round; stroke-linejoin:round; stroke-width:2; stroke-opacity:0.1; fill:none" points="386.85,1486.45 386.85,47.2441 "/>
<polyline clip-path="url(#clip902)" style="stroke:#000000; stroke-linecap:round; stroke-linejoin:round; stroke-width:2; stroke-opacity:0.1; fill:none" points="517.91,1486.45 517.91,47.2441 "/>
<polyline clip-path="url(#clip902)" style="stroke:#000000; stroke-linecap:round; stroke-linejoin:round; stroke-width:2; stroke-opacity:0.1; fill:none" points="648.971,1486.45 648.971,47.2441 "/>
<polyline clip-path="url(#clip902)" style="stroke:#000000; stroke-linecap:round; stroke-linejoin:round; stroke-width:2; stroke-opacity:0.1; fill:none" points="780.032,1486.45 780.032,47.2441 "/>
<polyline clip-path="url(#clip902)" style="stroke:#000000; stroke-linecap:round; stroke-linejoin:round; stroke-width:2; stroke-opacity:0.1; fill:none" points="911.092,1486.45 911.092,47.2441 "/>
<polyline clip-path="url(#clip902)" style="stroke:#000000; stroke-linecap:round; stroke-linejoin:round; stroke-width:2; stroke-opacity:0.1; fill:none" points="1042.15,1486.45 1042.15,47.2441 "/>
<polyline clip-path="url(#clip902)" style="stroke:#000000; stroke-linecap:round; stroke-linejoin:round; stroke-width:2; stroke-opacity:0.1; fill:none" points="178.867,1293.65 1122.59,1293.65 "/>
<polyline clip-path="url(#clip902)" style="stroke:#000000; stroke-linecap:round; stroke-linejoin:round; stroke-width:2; stroke-opacity:0.1; fill:none" points="178.867,1031.53 1122.59,1031.53 "/>
<polyline clip-path="url(#clip902)" style="stroke:#000000; stroke-linecap:round; stroke-linejoin:round; stroke-width:2; stroke-opacity:0.1; fill:none" points="178.867,769.41 1122.59,769.41 "/>
<polyline clip-path="url(#clip902)" style="stroke:#000000; stroke-linecap:round; stroke-linejoin:round; stroke-width:2; stroke-opacity:0.1; fill:none" points="178.867,507.289 1122.59,507.289 "/>
<polyline clip-path="url(#clip902)" style="stroke:#000000; stroke-linecap:round; stroke-linejoin:round; stroke-width:2; stroke-opacity:0.1; fill:none" points="178.867,245.167 1122.59,245.167 "/>
<polyline clip-path="url(#clip900)" style="stroke:#000000; stroke-linecap:round; stroke-linejoin:round; stroke-width:4; stroke-opacity:1; fill:none" points="178.867,1486.45 1122.59,1486.45 "/>
<polyline clip-path="url(#clip900)" style="stroke:#000000; stroke-linecap:round; stroke-linejoin:round; stroke-width:4; stroke-opacity:1; fill:none" points="255.789,1486.45 255.789,1467.55 "/>
<polyline clip-path="url(#clip900)" style="stroke:#000000; stroke-linecap:round; stroke-linejoin:round; stroke-width:4; stroke-opacity:1; fill:none" points="386.85,1486.45 386.85,1467.55 "/>
<polyline clip-path="url(#clip900)" style="stroke:#000000; stroke-linecap:round; stroke-linejoin:round; stroke-width:4; stroke-opacity:1; fill:none" points="517.91,1486.45 517.91,1467.55 "/>
<polyline clip-path="url(#clip900)" style="stroke:#000000; stroke-linecap:round; stroke-linejoin:round; stroke-width:4; stroke-opacity:1; fill:none" points="648.971,1486.45 648.971,1467.55 "/>
<polyline clip-path="url(#clip900)" style="stroke:#000000; stroke-linecap:round; stroke-linejoin:round; stroke-width:4; stroke-opacity:1; fill:none" points="780.032,1486.45 780.032,1467.55 "/>
<polyline clip-path="url(#clip900)" style="stroke:#000000; stroke-linecap:round; stroke-linejoin:round; stroke-width:4; stroke-opacity:1; fill:none" points="911.092,1486.45 911.092,1467.55 "/>
<polyline clip-path="url(#clip900)" style="stroke:#000000; stroke-linecap:round; stroke-linejoin:round; stroke-width:4; stroke-opacity:1; fill:none" points="1042.15,1486.45 1042.15,1467.55 "/>
<path clip-path="url(#clip900)" d="M210.349 1532.02 L240.025 1532.02 L240.025 1535.95 L210.349 1535.95 L210.349 1532.02 Z" fill="#000000" fill-rule="nonzero" fill-opacity="1" /><path clip-path="url(#clip900)" d="M248.937 1514.29 L271.159 1514.29 L271.159 1516.28 L258.613 1548.85 L253.729 1548.85 L265.534 1518.22 L248.937 1518.22 L248.937 1514.29 Z" fill="#000000" fill-rule="nonzero" fill-opacity="1" /><path clip-path="url(#clip900)" d="M280.326 1514.29 L298.682 1514.29 L298.682 1518.22 L284.608 1518.22 L284.608 1526.7 Q285.627 1526.35 286.645 1526.19 Q287.664 1526 288.682 1526 Q294.469 1526 297.849 1529.17 Q301.229 1532.34 301.229 1537.76 Q301.229 1543.34 297.756 1546.44 Q294.284 1549.52 287.965 1549.52 Q285.789 1549.52 283.52 1549.15 Q281.275 1548.78 278.868 1548.04 L278.868 1543.34 Q280.951 1544.47 283.173 1545.03 Q285.395 1545.58 287.872 1545.58 Q291.877 1545.58 294.215 1543.48 Q296.553 1541.37 296.553 1537.76 Q296.553 1534.15 294.215 1532.04 Q291.877 1529.94 287.872 1529.94 Q285.997 1529.94 284.122 1530.35 Q282.27 1530.77 280.326 1531.65 L280.326 1514.29 Z" fill="#000000" fill-rule="nonzero" fill-opacity="1" /><path clip-path="url(#clip900)" d="M340.912 1532.02 L370.588 1532.02 L370.588 1535.95 L340.912 1535.95 L340.912 1532.02 Z" fill="#000000" fill-rule="nonzero" fill-opacity="1" /><path clip-path="url(#clip900)" d="M380.727 1514.29 L399.083 1514.29 L399.083 1518.22 L385.009 1518.22 L385.009 1526.7 Q386.028 1526.35 387.046 1526.19 Q388.065 1526 389.083 1526 Q394.87 1526 398.25 1529.17 Q401.63 1532.34 401.63 1537.76 Q401.63 1543.34 398.158 1546.44 Q394.685 1549.52 388.366 1549.52 Q386.19 1549.52 383.921 1549.15 Q381.676 1548.78 379.269 1548.04 L379.269 1543.34 Q381.352 1544.47 383.574 1545.03 Q385.796 1545.58 388.273 1545.58 Q392.278 1545.58 394.616 1543.48 Q396.954 1541.37 396.954 1537.76 Q396.954 1534.15 394.616 1532.04 Q392.278 1529.94 388.273 1529.94 Q386.398 1529.94 384.523 1530.35 Q382.671 1530.77 380.727 1531.65 L380.727 1514.29 Z" fill="#000000" fill-rule="nonzero" fill-opacity="1" /><path clip-path="url(#clip900)" d="M420.843 1517.37 Q417.231 1517.37 415.403 1520.93 Q413.597 1524.47 413.597 1531.6 Q413.597 1538.71 415.403 1542.27 Q417.231 1545.82 420.843 1545.82 Q424.477 1545.82 426.282 1542.27 Q428.111 1538.71 428.111 1531.6 Q428.111 1524.47 426.282 1520.93 Q424.477 1517.37 420.843 1517.37 M420.843 1513.66 Q426.653 1513.66 429.708 1518.27 Q432.787 1522.85 432.787 1531.6 Q432.787 1540.33 429.708 1544.94 Q426.653 1549.52 420.843 1549.52 Q415.032 1549.52 411.954 1544.94 Q408.898 1540.33 408.898 1531.6 Q408.898 1522.85 411.954 1518.27 Q415.032 1513.66 420.843 1513.66 Z" fill="#000000" fill-rule="nonzero" fill-opacity="1" /><path clip-path="url(#clip900)" d="M472.471 1532.02 L502.147 1532.02 L502.147 1535.95 L472.471 1535.95 L472.471 1532.02 Z" fill="#000000" fill-rule="nonzero" fill-opacity="1" /><path clip-path="url(#clip900)" d="M516.267 1544.91 L532.586 1544.91 L532.586 1548.85 L510.642 1548.85 L510.642 1544.91 Q513.304 1542.16 517.887 1537.53 Q522.494 1532.88 523.674 1531.53 Q525.92 1529.01 526.799 1527.27 Q527.702 1525.51 527.702 1523.82 Q527.702 1521.07 525.758 1519.33 Q523.836 1517.6 520.734 1517.6 Q518.535 1517.6 516.082 1518.36 Q513.651 1519.13 510.873 1520.68 L510.873 1515.95 Q513.697 1514.82 516.151 1514.24 Q518.605 1513.66 520.642 1513.66 Q526.012 1513.66 529.207 1516.35 Q532.401 1519.03 532.401 1523.52 Q532.401 1525.65 531.591 1527.57 Q530.804 1529.47 528.697 1532.07 Q528.119 1532.74 525.017 1535.95 Q521.915 1539.15 516.267 1544.91 Z" fill="#000000" fill-rule="nonzero" fill-opacity="1" /><path clip-path="url(#clip900)" d="M542.447 1514.29 L560.804 1514.29 L560.804 1518.22 L546.73 1518.22 L546.73 1526.7 Q547.748 1526.35 548.767 1526.19 Q549.785 1526 550.804 1526 Q556.591 1526 559.97 1529.17 Q563.35 1532.34 563.35 1537.76 Q563.35 1543.34 559.878 1546.44 Q556.406 1549.52 550.086 1549.52 Q547.91 1549.52 545.642 1549.15 Q543.396 1548.78 540.989 1548.04 L540.989 1543.34 Q543.072 1544.47 545.294 1545.03 Q547.517 1545.58 549.994 1545.58 Q553.998 1545.58 556.336 1543.48 Q558.674 1541.37 558.674 1537.76 Q558.674 1534.15 556.336 1532.04 Q553.998 1529.94 549.994 1529.94 Q548.119 1529.94 546.244 1530.35 Q544.392 1530.77 542.447 1531.65 L542.447 1514.29 Z" fill="#000000" fill-rule="nonzero" fill-opacity="1" /><path clip-path="url(#clip900)" d="M648.971 1517.37 Q645.36 1517.37 643.531 1520.93 Q641.726 1524.47 641.726 1531.6 Q641.726 1538.71 643.531 1542.27 Q645.36 1545.82 648.971 1545.82 Q652.605 1545.82 654.411 1542.27 Q656.24 1538.71 656.24 1531.6 Q656.24 1524.47 654.411 1520.93 Q652.605 1517.37 648.971 1517.37 M648.971 1513.66 Q654.781 1513.66 657.837 1518.27 Q660.915 1522.85 660.915 1531.6 Q660.915 1540.33 657.837 1544.94 Q654.781 1549.52 648.971 1549.52 Q643.161 1549.52 640.082 1544.94 Q637.027 1540.33 637.027 1531.6 Q637.027 1522.85 640.082 1518.27 Q643.161 1513.66 648.971 1513.66 Z" fill="#000000" fill-rule="nonzero" fill-opacity="1" /><path clip-path="url(#clip900)" d="M759.303 1544.91 L775.622 1544.91 L775.622 1548.85 L753.678 1548.85 L753.678 1544.91 Q756.34 1542.16 760.923 1537.53 Q765.529 1532.88 766.71 1531.53 Q768.955 1529.01 769.835 1527.27 Q770.738 1525.51 770.738 1523.82 Q770.738 1521.07 768.793 1519.33 Q766.872 1517.6 763.77 1517.6 Q761.571 1517.6 759.117 1518.36 Q756.687 1519.13 753.909 1520.68 L753.909 1515.95 Q756.733 1514.82 759.187 1514.24 Q761.641 1513.66 763.678 1513.66 Q769.048 1513.66 772.242 1516.35 Q775.437 1519.03 775.437 1523.52 Q775.437 1525.65 774.627 1527.57 Q773.84 1529.47 771.733 1532.07 Q771.154 1532.74 768.053 1535.95 Q764.951 1539.15 759.303 1544.91 Z" fill="#000000" fill-rule="nonzero" fill-opacity="1" /><path clip-path="url(#clip900)" d="M785.483 1514.29 L803.839 1514.29 L803.839 1518.22 L789.765 1518.22 L789.765 1526.7 Q790.784 1526.35 791.802 1526.19 Q792.821 1526 793.839 1526 Q799.627 1526 803.006 1529.17 Q806.386 1532.34 806.386 1537.76 Q806.386 1543.34 802.914 1546.44 Q799.441 1549.52 793.122 1549.52 Q790.946 1549.52 788.677 1549.15 Q786.432 1548.78 784.025 1548.04 L784.025 1543.34 Q786.108 1544.47 788.33 1545.03 Q790.552 1545.58 793.029 1545.58 Q797.034 1545.58 799.372 1543.48 Q801.71 1541.37 801.71 1537.76 Q801.71 1534.15 799.372 1532.04 Q797.034 1529.94 793.029 1529.94 Q791.154 1529.94 789.279 1530.35 Q787.427 1530.77 785.483 1531.65 L785.483 1514.29 Z" fill="#000000" fill-rule="nonzero" fill-opacity="1" /><path clip-path="url(#clip900)" d="M885.792 1514.29 L904.148 1514.29 L904.148 1518.22 L890.074 1518.22 L890.074 1526.7 Q891.092 1526.35 892.111 1526.19 Q893.129 1526 894.148 1526 Q899.935 1526 903.315 1529.17 Q906.694 1532.34 906.694 1537.76 Q906.694 1543.34 903.222 1546.44 Q899.75 1549.52 893.43 1549.52 Q891.255 1549.52 888.986 1549.15 Q886.741 1548.78 884.333 1548.04 L884.333 1543.34 Q886.417 1544.47 888.639 1545.03 Q890.861 1545.58 893.338 1545.58 Q897.342 1545.58 899.68 1543.48 Q902.018 1541.37 902.018 1537.76 Q902.018 1534.15 899.68 1532.04 Q897.342 1529.94 893.338 1529.94 Q891.463 1529.94 889.588 1530.35 Q887.736 1530.77 885.792 1531.65 L885.792 1514.29 Z" fill="#000000" fill-rule="nonzero" fill-opacity="1" /><path clip-path="url(#clip900)" d="M925.907 1517.37 Q922.296 1517.37 920.467 1520.93 Q918.662 1524.47 918.662 1531.6 Q918.662 1538.71 920.467 1542.27 Q922.296 1545.82 925.907 1545.82 Q929.541 1545.82 931.347 1542.27 Q933.176 1538.71 933.176 1531.6 Q933.176 1524.47 931.347 1520.93 Q929.541 1517.37 925.907 1517.37 M925.907 1513.66 Q931.717 1513.66 934.773 1518.27 Q937.851 1522.85 937.851 1531.6 Q937.851 1540.33 934.773 1544.94 Q931.717 1549.52 925.907 1549.52 Q920.097 1549.52 917.018 1544.94 Q913.963 1540.33 913.963 1531.6 Q913.963 1522.85 917.018 1518.27 Q920.097 1513.66 925.907 1513.66 Z" fill="#000000" fill-rule="nonzero" fill-opacity="1" /><path clip-path="url(#clip900)" d="M1016.01 1514.29 L1038.23 1514.29 L1038.23 1516.28 L1025.68 1548.85 L1020.8 1548.85 L1032.6 1518.22 L1016.01 1518.22 L1016.01 1514.29 Z" fill="#000000" fill-rule="nonzero" fill-opacity="1" /><path clip-path="url(#clip900)" d="M1047.4 1514.29 L1065.75 1514.29 L1065.75 1518.22 L1051.68 1518.22 L1051.68 1526.7 Q1052.7 1526.35 1053.72 1526.19 Q1054.73 1526 1055.75 1526 Q1061.54 1526 1064.92 1529.17 Q1068.3 1532.34 1068.3 1537.76 Q1068.3 1543.34 1064.83 1546.44 Q1061.35 1549.52 1055.03 1549.52 Q1052.86 1549.52 1050.59 1549.15 Q1048.35 1548.78 1045.94 1548.04 L1045.94 1543.34 Q1048.02 1544.47 1050.24 1545.03 Q1052.47 1545.58 1054.94 1545.58 Q1058.95 1545.58 1061.28 1543.48 Q1063.62 1541.37 1063.62 1537.76 Q1063.62 1534.15 1061.28 1532.04 Q1058.95 1529.94 1054.94 1529.94 Q1053.07 1529.94 1051.19 1530.35 Q1049.34 1530.77 1047.4 1531.65 L1047.4 1514.29 Z" fill="#000000" fill-rule="nonzero" fill-opacity="1" /><polyline clip-path="url(#clip900)" style="stroke:#000000; stroke-linecap:round; stroke-linejoin:round; stroke-width:4; stroke-opacity:1; fill:none" points="178.867,1486.45 178.867,47.2441 "/>
<polyline clip-path="url(#clip900)" style="stroke:#000000; stroke-linecap:round; stroke-linejoin:round; stroke-width:4; stroke-opacity:1; fill:none" points="178.867,1293.65 197.764,1293.65 "/>
<polyline clip-path="url(#clip900)" style="stroke:#000000; stroke-linecap:round; stroke-linejoin:round; stroke-width:4; stroke-opacity:1; fill:none" points="178.867,1031.53 197.764,1031.53 "/>
<polyline clip-path="url(#clip900)" style="stroke:#000000; stroke-linecap:round; stroke-linejoin:round; stroke-width:4; stroke-opacity:1; fill:none" points="178.867,769.41 197.764,769.41 "/>
<polyline clip-path="url(#clip900)" style="stroke:#000000; stroke-linecap:round; stroke-linejoin:round; stroke-width:4; stroke-opacity:1; fill:none" points="178.867,507.289 197.764,507.289 "/>
<polyline clip-path="url(#clip900)" style="stroke:#000000; stroke-linecap:round; stroke-linejoin:round; stroke-width:4; stroke-opacity:1; fill:none" points="178.867,245.167 197.764,245.167 "/>
<path clip-path="url(#clip900)" d="M20.8303 1294.1 L50.506 1294.1 L50.506 1298.04 L20.8303 1298.04 L20.8303 1294.1 Z" fill="#000000" fill-rule="nonzero" fill-opacity="1" /><path clip-path="url(#clip900)" d="M61.4087 1307 L69.0476 1307 L69.0476 1280.63 L60.7374 1282.3 L60.7374 1278.04 L69.0013 1276.37 L73.6772 1276.37 L73.6772 1307 L81.316 1307 L81.316 1310.93 L61.4087 1310.93 L61.4087 1307 Z" fill="#000000" fill-rule="nonzero" fill-opacity="1" /><path clip-path="url(#clip900)" d="M100.76 1279.45 Q97.1493 1279.45 95.3206 1283.02 Q93.515 1286.56 93.515 1293.69 Q93.515 1300.79 95.3206 1304.36 Q97.1493 1307.9 100.76 1307.9 Q104.395 1307.9 106.2 1304.36 Q108.029 1300.79 108.029 1293.69 Q108.029 1286.56 106.2 1283.02 Q104.395 1279.45 100.76 1279.45 M100.76 1275.75 Q106.571 1275.75 109.626 1280.35 Q112.705 1284.94 112.705 1293.69 Q112.705 1302.41 109.626 1307.02 Q106.571 1311.6 100.76 1311.6 Q94.9502 1311.6 91.8715 1307.02 Q88.816 1302.41 88.816 1293.69 Q88.816 1284.94 91.8715 1280.35 Q94.9502 1275.75 100.76 1275.75 Z" fill="#000000" fill-rule="nonzero" fill-opacity="1" /><path clip-path="url(#clip900)" d="M130.922 1279.45 Q127.311 1279.45 125.482 1283.02 Q123.677 1286.56 123.677 1293.69 Q123.677 1300.79 125.482 1304.36 Q127.311 1307.9 130.922 1307.9 Q134.556 1307.9 136.362 1304.36 Q138.191 1300.79 138.191 1293.69 Q138.191 1286.56 136.362 1283.02 Q134.556 1279.45 130.922 1279.45 M130.922 1275.75 Q136.732 1275.75 139.788 1280.35 Q142.867 1284.94 142.867 1293.69 Q142.867 1302.41 139.788 1307.02 Q136.732 1311.6 130.922 1311.6 Q125.112 1311.6 122.033 1307.02 Q118.978 1302.41 118.978 1293.69 Q118.978 1284.94 122.033 1280.35 Q125.112 1275.75 130.922 1275.75 Z" fill="#000000" fill-rule="nonzero" fill-opacity="1" /><path clip-path="url(#clip900)" d="M50.9921 1031.98 L80.6679 1031.98 L80.6679 1035.92 L50.9921 1035.92 L50.9921 1031.98 Z" fill="#000000" fill-rule="nonzero" fill-opacity="1" /><path clip-path="url(#clip900)" d="M90.8067 1014.25 L109.163 1014.25 L109.163 1018.19 L95.0891 1018.19 L95.0891 1026.66 Q96.1076 1026.31 97.1261 1026.15 Q98.1447 1025.96 99.1632 1025.96 Q104.95 1025.96 108.33 1029.14 Q111.709 1032.31 111.709 1037.72 Q111.709 1043.3 108.237 1046.4 Q104.765 1049.48 98.4456 1049.48 Q96.2697 1049.48 94.0012 1049.11 Q91.7558 1048.74 89.3484 1048 L89.3484 1043.3 Q91.4317 1044.44 93.6539 1044.99 Q95.8761 1045.55 98.353 1045.55 Q102.358 1045.55 104.696 1043.44 Q107.033 1041.33 107.033 1037.72 Q107.033 1034.11 104.696 1032.01 Q102.358 1029.9 98.353 1029.9 Q96.478 1029.9 94.603 1030.32 Q92.7512 1030.73 90.8067 1031.61 L90.8067 1014.25 Z" fill="#000000" fill-rule="nonzero" fill-opacity="1" /><path clip-path="url(#clip900)" d="M130.922 1017.33 Q127.311 1017.33 125.482 1020.89 Q123.677 1024.44 123.677 1031.57 Q123.677 1038.67 125.482 1042.24 Q127.311 1045.78 130.922 1045.78 Q134.556 1045.78 136.362 1042.24 Q138.191 1038.67 138.191 1031.57 Q138.191 1024.44 136.362 1020.89 Q134.556 1017.33 130.922 1017.33 M130.922 1013.63 Q136.732 1013.63 139.788 1018.23 Q142.867 1022.82 142.867 1031.57 Q142.867 1040.29 139.788 1044.9 Q136.732 1049.48 130.922 1049.48 Q125.112 1049.48 122.033 1044.9 Q118.978 1040.29 118.978 1031.57 Q118.978 1022.82 122.033 1018.23 Q125.112 1013.63 130.922 1013.63 Z" fill="#000000" fill-rule="nonzero" fill-opacity="1" /><path clip-path="url(#clip900)" d="M130.922 755.209 Q127.311 755.209 125.482 758.774 Q123.677 762.315 123.677 769.445 Q123.677 776.551 125.482 780.116 Q127.311 783.658 130.922 783.658 Q134.556 783.658 136.362 780.116 Q138.191 776.551 138.191 769.445 Q138.191 762.315 136.362 758.774 Q134.556 755.209 130.922 755.209 M130.922 751.505 Q136.732 751.505 139.788 756.112 Q142.867 760.695 142.867 769.445 Q142.867 778.172 139.788 782.778 Q136.732 787.361 130.922 787.361 Q125.112 787.361 122.033 782.778 Q118.978 778.172 118.978 769.445 Q118.978 760.695 122.033 756.112 Q125.112 751.505 130.922 751.505 Z" fill="#000000" fill-rule="nonzero" fill-opacity="1" /><path clip-path="url(#clip900)" d="M90.8067 490.009 L109.163 490.009 L109.163 493.944 L95.0891 493.944 L95.0891 502.416 Q96.1076 502.069 97.1261 501.907 Q98.1447 501.722 99.1632 501.722 Q104.95 501.722 108.33 504.893 Q111.709 508.064 111.709 513.481 Q111.709 519.06 108.237 522.161 Q104.765 525.24 98.4456 525.24 Q96.2697 525.24 94.0012 524.87 Q91.7558 524.499 89.3484 523.759 L89.3484 519.06 Q91.4317 520.194 93.6539 520.749 Q95.8761 521.305 98.353 521.305 Q102.358 521.305 104.696 519.198 Q107.033 517.092 107.033 513.481 Q107.033 509.87 104.696 507.763 Q102.358 505.657 98.353 505.657 Q96.478 505.657 94.603 506.073 Q92.7512 506.49 90.8067 507.37 L90.8067 490.009 Z" fill="#000000" fill-rule="nonzero" fill-opacity="1" /><path clip-path="url(#clip900)" d="M130.922 493.087 Q127.311 493.087 125.482 496.652 Q123.677 500.194 123.677 507.323 Q123.677 514.43 125.482 517.995 Q127.311 521.536 130.922 521.536 Q134.556 521.536 136.362 517.995 Q138.191 514.43 138.191 507.323 Q138.191 500.194 136.362 496.652 Q134.556 493.087 130.922 493.087 M130.922 489.384 Q136.732 489.384 139.788 493.99 Q142.867 498.574 142.867 507.323 Q142.867 516.05 139.788 520.657 Q136.732 525.24 130.922 525.24 Q125.112 525.24 122.033 520.657 Q118.978 516.05 118.978 507.323 Q118.978 498.574 122.033 493.99 Q125.112 489.384 130.922 489.384 Z" fill="#000000" fill-rule="nonzero" fill-opacity="1" /><path clip-path="url(#clip900)" d="M61.4087 258.512 L69.0476 258.512 L69.0476 232.147 L60.7374 233.813 L60.7374 229.554 L69.0013 227.887 L73.6772 227.887 L73.6772 258.512 L81.316 258.512 L81.316 262.447 L61.4087 262.447 L61.4087 258.512 Z" fill="#000000" fill-rule="nonzero" fill-opacity="1" /><path clip-path="url(#clip900)" d="M100.76 230.966 Q97.1493 230.966 95.3206 234.531 Q93.515 238.073 93.515 245.202 Q93.515 252.309 95.3206 255.873 Q97.1493 259.415 100.76 259.415 Q104.395 259.415 106.2 255.873 Q108.029 252.309 108.029 245.202 Q108.029 238.073 106.2 234.531 Q104.395 230.966 100.76 230.966 M100.76 227.262 Q106.571 227.262 109.626 231.869 Q112.705 236.452 112.705 245.202 Q112.705 253.929 109.626 258.535 Q106.571 263.119 100.76 263.119 Q94.9502 263.119 91.8715 258.535 Q88.816 253.929 88.816 245.202 Q88.816 236.452 91.8715 231.869 Q94.9502 227.262 100.76 227.262 Z" fill="#000000" fill-rule="nonzero" fill-opacity="1" /><path clip-path="url(#clip900)" d="M130.922 230.966 Q127.311 230.966 125.482 234.531 Q123.677 238.073 123.677 245.202 Q123.677 252.309 125.482 255.873 Q127.311 259.415 130.922 259.415 Q134.556 259.415 136.362 255.873 Q138.191 252.309 138.191 245.202 Q138.191 238.073 136.362 234.531 Q134.556 230.966 130.922 230.966 M130.922 227.262 Q136.732 227.262 139.788 231.869 Q142.867 236.452 142.867 245.202 Q142.867 253.929 139.788 258.535 Q136.732 263.119 130.922 263.119 Q125.112 263.119 122.033 258.535 Q118.978 253.929 118.978 245.202 Q118.978 236.452 122.033 231.869 Q125.112 227.262 130.922 227.262 Z" fill="#000000" fill-rule="nonzero" fill-opacity="1" /><polyline clip-path="url(#clip902)" style="stroke:#000000; stroke-linecap:round; stroke-linejoin:round; stroke-width:4; stroke-opacity:1; fill:none" points="650.728,766.845 689.939,1221.83 "/>
<polyline clip-path="url(#clip902)" style="stroke:#000000; stroke-linecap:round; stroke-linejoin:round; stroke-width:4; stroke-opacity:1; fill:none" points="650.728,766.845 950.148,1111.48 "/>
<polyline clip-path="url(#clip902)" style="stroke:#000000; stroke-linecap:round; stroke-linejoin:round; stroke-width:4; stroke-opacity:1; fill:none" points="650.728,766.845 1095.88,869.413 "/>
<polyline clip-path="url(#clip902)" style="stroke:#000000; stroke-linecap:round; stroke-linejoin:round; stroke-width:4; stroke-opacity:1; fill:none" points="650.728,766.845 1071.55,588.293 "/>
<polyline clip-path="url(#clip902)" style="stroke:#000000; stroke-linecap:round; stroke-linejoin:round; stroke-width:4; stroke-opacity:1; fill:none" points="650.728,766.845 886.595,375.369 "/>
<polyline clip-path="url(#clip902)" style="stroke:#000000; stroke-linecap:round; stroke-linejoin:round; stroke-width:4; stroke-opacity:1; fill:none" points="650.728,766.845 611.509,311.859 "/>
<polyline clip-path="url(#clip902)" style="stroke:#000000; stroke-linecap:round; stroke-linejoin:round; stroke-width:4; stroke-opacity:1; fill:none" points="650.728,766.845 351.309,422.211 "/>
<polyline clip-path="url(#clip902)" style="stroke:#000000; stroke-linecap:round; stroke-linejoin:round; stroke-width:4; stroke-opacity:1; fill:none" points="650.728,766.845 205.576,664.271 "/>
<polyline clip-path="url(#clip902)" style="stroke:#000000; stroke-linecap:round; stroke-linejoin:round; stroke-width:4; stroke-opacity:1; fill:none" points="650.728,766.845 229.91,945.398 "/>
<polyline clip-path="url(#clip902)" style="stroke:#000000; stroke-linecap:round; stroke-linejoin:round; stroke-width:4; stroke-opacity:1; fill:none" points="650.728,766.845 414.858,1158.32 "/>
<polyline clip-path="url(#clip902)" style="stroke:#000000; stroke-linecap:round; stroke-linejoin:round; stroke-width:4; stroke-opacity:1; fill:none" points="689.939,1221.83 950.148,1111.48 "/>
<polyline clip-path="url(#clip902)" style="stroke:#000000; stroke-linecap:round; stroke-linejoin:round; stroke-width:4; stroke-opacity:1; fill:none" points="689.939,1221.83 414.858,1158.32 "/>
<polyline clip-path="url(#clip902)" style="stroke:#000000; stroke-linecap:round; stroke-linejoin:round; stroke-width:4; stroke-opacity:1; fill:none" points="950.148,1111.48 1095.88,869.413 "/>
<polyline clip-path="url(#clip902)" style="stroke:#000000; stroke-linecap:round; stroke-linejoin:round; stroke-width:4; stroke-opacity:1; fill:none" points="1095.88,869.413 1071.55,588.293 "/>
<polyline clip-path="url(#clip902)" style="stroke:#000000; stroke-linecap:round; stroke-linejoin:round; stroke-width:4; stroke-opacity:1; fill:none" points="1071.55,588.293 886.595,375.369 "/>
<polyline clip-path="url(#clip902)" style="stroke:#000000; stroke-linecap:round; stroke-linejoin:round; stroke-width:4; stroke-opacity:1; fill:none" points="886.595,375.369 611.509,311.859 "/>
<polyline clip-path="url(#clip902)" style="stroke:#000000; stroke-linecap:round; stroke-linejoin:round; stroke-width:4; stroke-opacity:1; fill:none" points="611.509,311.859 351.309,422.211 "/>
<polyline clip-path="url(#clip902)" style="stroke:#000000; stroke-linecap:round; stroke-linejoin:round; stroke-width:4; stroke-opacity:1; fill:none" points="351.309,422.211 205.576,664.271 "/>
<polyline clip-path="url(#clip902)" style="stroke:#000000; stroke-linecap:round; stroke-linejoin:round; stroke-width:4; stroke-opacity:1; fill:none" points="205.576,664.271 229.91,945.398 "/>
<polyline clip-path="url(#clip902)" style="stroke:#000000; stroke-linecap:round; stroke-linejoin:round; stroke-width:4; stroke-opacity:1; fill:none" points="229.91,945.398 414.858,1158.32 "/>
<circle clip-path="url(#clip902)" cx="650.728" cy="766.845" r="36" fill="#0000ff" fill-rule="evenodd" fill-opacity="1" stroke="#000000" stroke-opacity="1" stroke-width="3.2"/>
<circle clip-path="url(#clip902)" cx="689.939" cy="1221.83" r="36" fill="#0000ff" fill-rule="evenodd" fill-opacity="1" stroke="#000000" stroke-opacity="1" stroke-width="3.2"/>
<circle clip-path="url(#clip902)" cx="950.148" cy="1111.48" r="36" fill="#0000ff" fill-rule="evenodd" fill-opacity="1" stroke="#000000" stroke-opacity="1" stroke-width="3.2"/>
<circle clip-path="url(#clip902)" cx="1095.88" cy="869.413" r="36" fill="#0000ff" fill-rule="evenodd" fill-opacity="1" stroke="#000000" stroke-opacity="1" stroke-width="3.2"/>
<circle clip-path="url(#clip902)" cx="1071.55" cy="588.293" r="36" fill="#0000ff" fill-rule="evenodd" fill-opacity="1" stroke="#000000" stroke-opacity="1" stroke-width="3.2"/>
<circle clip-path="url(#clip902)" cx="886.595" cy="375.369" r="36" fill="#0000ff" fill-rule="evenodd" fill-opacity="1" stroke="#000000" stroke-opacity="1" stroke-width="3.2"/>
<circle clip-path="url(#clip902)" cx="611.509" cy="311.859" r="36" fill="#0000ff" fill-rule="evenodd" fill-opacity="1" stroke="#000000" stroke-opacity="1" stroke-width="3.2"/>
<circle clip-path="url(#clip902)" cx="351.309" cy="422.211" r="36" fill="#0000ff" fill-rule="evenodd" fill-opacity="1" stroke="#000000" stroke-opacity="1" stroke-width="3.2"/>
<circle clip-path="url(#clip902)" cx="205.576" cy="664.271" r="36" fill="#0000ff" fill-rule="evenodd" fill-opacity="1" stroke="#000000" stroke-opacity="1" stroke-width="3.2"/>
<circle clip-path="url(#clip902)" cx="229.91" cy="945.398" r="36" fill="#0000ff" fill-rule="evenodd" fill-opacity="1" stroke="#000000" stroke-opacity="1" stroke-width="3.2"/>
<circle clip-path="url(#clip902)" cx="414.858" cy="1158.32" r="36" fill="#0000ff" fill-rule="evenodd" fill-opacity="1" stroke="#000000" stroke-opacity="1" stroke-width="3.2"/>
<path clip-path="url(#clip900)" d="M1409.03 1486.45 L2352.76 1486.45 L2352.76 47.2441 L1409.03 47.2441  Z" fill="#ffffff" fill-rule="evenodd" fill-opacity="1"/>
<polyline clip-path="url(#clip901)" style="stroke:#000000; stroke-linecap:round; stroke-linejoin:round; stroke-width:2; stroke-opacity:0.1; fill:none" points="1435.28,1486.45 1435.28,47.2441 "/>
<polyline clip-path="url(#clip901)" style="stroke:#000000; stroke-linecap:round; stroke-linejoin:round; stroke-width:2; stroke-opacity:0.1; fill:none" points="1663.22,1486.45 1663.22,47.2441 "/>
<polyline clip-path="url(#clip901)" style="stroke:#000000; stroke-linecap:round; stroke-linejoin:round; stroke-width:2; stroke-opacity:0.1; fill:none" points="1891.15,1486.45 1891.15,47.2441 "/>
<polyline clip-path="url(#clip901)" style="stroke:#000000; stroke-linecap:round; stroke-linejoin:round; stroke-width:2; stroke-opacity:0.1; fill:none" points="2119.08,1486.45 2119.08,47.2441 "/>
<polyline clip-path="url(#clip901)" style="stroke:#000000; stroke-linecap:round; stroke-linejoin:round; stroke-width:2; stroke-opacity:0.1; fill:none" points="2347.02,1486.45 2347.02,47.2441 "/>
<polyline clip-path="url(#clip901)" style="stroke:#000000; stroke-linecap:round; stroke-linejoin:round; stroke-width:2; stroke-opacity:0.1; fill:none" points="1409.03,1424.81 2352.76,1424.81 "/>
<polyline clip-path="url(#clip901)" style="stroke:#000000; stroke-linecap:round; stroke-linejoin:round; stroke-width:2; stroke-opacity:0.1; fill:none" points="1409.03,1208.08 2352.76,1208.08 "/>
<polyline clip-path="url(#clip901)" style="stroke:#000000; stroke-linecap:round; stroke-linejoin:round; stroke-width:2; stroke-opacity:0.1; fill:none" points="1409.03,991.346 2352.76,991.346 "/>
<polyline clip-path="url(#clip901)" style="stroke:#000000; stroke-linecap:round; stroke-linejoin:round; stroke-width:2; stroke-opacity:0.1; fill:none" points="1409.03,774.615 2352.76,774.615 "/>
<polyline clip-path="url(#clip901)" style="stroke:#000000; stroke-linecap:round; stroke-linejoin:round; stroke-width:2; stroke-opacity:0.1; fill:none" points="1409.03,557.885 2352.76,557.885 "/>
<polyline clip-path="url(#clip901)" style="stroke:#000000; stroke-linecap:round; stroke-linejoin:round; stroke-width:2; stroke-opacity:0.1; fill:none" points="1409.03,341.155 2352.76,341.155 "/>
<polyline clip-path="url(#clip901)" style="stroke:#000000; stroke-linecap:round; stroke-linejoin:round; stroke-width:2; stroke-opacity:0.1; fill:none" points="1409.03,124.424 2352.76,124.424 "/>
<polyline clip-path="url(#clip900)" style="stroke:#000000; stroke-linecap:round; stroke-linejoin:round; stroke-width:4; stroke-opacity:1; fill:none" points="1409.03,1486.45 2352.76,1486.45 "/>
<polyline clip-path="url(#clip900)" style="stroke:#000000; stroke-linecap:round; stroke-linejoin:round; stroke-width:4; stroke-opacity:1; fill:none" points="1435.28,1486.45 1435.28,1467.55 "/>
<polyline clip-path="url(#clip900)" style="stroke:#000000; stroke-linecap:round; stroke-linejoin:round; stroke-width:4; stroke-opacity:1; fill:none" points="1663.22,1486.45 1663.22,1467.55 "/>
<polyline clip-path="url(#clip900)" style="stroke:#000000; stroke-linecap:round; stroke-linejoin:round; stroke-width:4; stroke-opacity:1; fill:none" points="1891.15,1486.45 1891.15,1467.55 "/>
<polyline clip-path="url(#clip900)" style="stroke:#000000; stroke-linecap:round; stroke-linejoin:round; stroke-width:4; stroke-opacity:1; fill:none" points="2119.08,1486.45 2119.08,1467.55 "/>
<polyline clip-path="url(#clip900)" style="stroke:#000000; stroke-linecap:round; stroke-linejoin:round; stroke-width:4; stroke-opacity:1; fill:none" points="2347.02,1486.45 2347.02,1467.55 "/>
<path clip-path="url(#clip900)" d="M1435.28 1517.37 Q1431.67 1517.37 1429.84 1520.93 Q1428.04 1524.47 1428.04 1531.6 Q1428.04 1538.71 1429.84 1542.27 Q1431.67 1545.82 1435.28 1545.82 Q1438.92 1545.82 1440.72 1542.27 Q1442.55 1538.71 1442.55 1531.6 Q1442.55 1524.47 1440.72 1520.93 Q1438.92 1517.37 1435.28 1517.37 M1435.28 1513.66 Q1441.09 1513.66 1444.15 1518.27 Q1447.23 1522.85 1447.23 1531.6 Q1447.23 1540.33 1444.15 1544.94 Q1441.09 1549.52 1435.28 1549.52 Q1429.47 1549.52 1426.39 1544.94 Q1423.34 1540.33 1423.34 1531.6 Q1423.34 1522.85 1426.39 1518.27 Q1429.47 1513.66 1435.28 1513.66 Z" fill="#000000" fill-rule="nonzero" fill-opacity="1" /><path clip-path="url(#clip900)" d="M1622.83 1514.29 L1641.19 1514.29 L1641.19 1518.22 L1627.12 1518.22 L1627.12 1526.7 Q1628.13 1526.35 1629.15 1526.19 Q1630.17 1526 1631.19 1526 Q1636.98 1526 1640.36 1529.17 Q1643.74 1532.34 1643.74 1537.76 Q1643.74 1543.34 1640.26 1546.44 Q1636.79 1549.52 1630.47 1549.52 Q1628.3 1549.52 1626.03 1549.15 Q1623.78 1548.78 1621.38 1548.04 L1621.38 1543.34 Q1623.46 1544.47 1625.68 1545.03 Q1627.9 1545.58 1630.38 1545.58 Q1634.38 1545.58 1636.72 1543.48 Q1639.06 1541.37 1639.06 1537.76 Q1639.06 1534.15 1636.72 1532.04 Q1634.38 1529.94 1630.38 1529.94 Q1628.51 1529.94 1626.63 1530.35 Q1624.78 1530.77 1622.83 1531.65 L1622.83 1514.29 Z" fill="#000000" fill-rule="nonzero" fill-opacity="1" /><path clip-path="url(#clip900)" d="M1662.95 1517.37 Q1659.34 1517.37 1657.51 1520.93 Q1655.7 1524.47 1655.7 1531.6 Q1655.7 1538.71 1657.51 1542.27 Q1659.34 1545.82 1662.95 1545.82 Q1666.58 1545.82 1668.39 1542.27 Q1670.22 1538.71 1670.22 1531.6 Q1670.22 1524.47 1668.39 1520.93 Q1666.58 1517.37 1662.95 1517.37 M1662.95 1513.66 Q1668.76 1513.66 1671.82 1518.27 Q1674.89 1522.85 1674.89 1531.6 Q1674.89 1540.33 1671.82 1544.94 Q1668.76 1549.52 1662.95 1549.52 Q1657.14 1549.52 1654.06 1544.94 Q1651 1540.33 1651 1531.6 Q1651 1522.85 1654.06 1518.27 Q1657.14 1513.66 1662.95 1513.66 Z" fill="#000000" fill-rule="nonzero" fill-opacity="1" /><path clip-path="url(#clip900)" d="M1693.11 1517.37 Q1689.5 1517.37 1687.67 1520.93 Q1685.87 1524.47 1685.87 1531.6 Q1685.87 1538.71 1687.67 1542.27 Q1689.5 1545.82 1693.11 1545.82 Q1696.75 1545.82 1698.55 1542.27 Q1700.38 1538.71 1700.38 1531.6 Q1700.38 1524.47 1698.55 1520.93 Q1696.75 1517.37 1693.11 1517.37 M1693.11 1513.66 Q1698.92 1513.66 1701.98 1518.27 Q1705.06 1522.85 1705.06 1531.6 Q1705.06 1540.33 1701.98 1544.94 Q1698.92 1549.52 1693.11 1549.52 Q1687.3 1549.52 1684.22 1544.94 Q1681.17 1540.33 1681.17 1531.6 Q1681.17 1522.85 1684.22 1518.27 Q1687.3 1513.66 1693.11 1513.66 Z" fill="#000000" fill-rule="nonzero" fill-opacity="1" /><path clip-path="url(#clip900)" d="M1835.67 1544.91 L1843.31 1544.91 L1843.31 1518.55 L1835 1520.21 L1835 1515.95 L1843.27 1514.29 L1847.94 1514.29 L1847.94 1544.91 L1855.58 1544.91 L1855.58 1548.85 L1835.67 1548.85 L1835.67 1544.91 Z" fill="#000000" fill-rule="nonzero" fill-opacity="1" /><path clip-path="url(#clip900)" d="M1875.03 1517.37 Q1871.42 1517.37 1869.59 1520.93 Q1867.78 1524.47 1867.78 1531.6 Q1867.78 1538.71 1869.59 1542.27 Q1871.42 1545.82 1875.03 1545.82 Q1878.66 1545.82 1880.47 1542.27 Q1882.3 1538.71 1882.3 1531.6 Q1882.3 1524.47 1880.47 1520.93 Q1878.66 1517.37 1875.03 1517.37 M1875.03 1513.66 Q1880.84 1513.66 1883.89 1518.27 Q1886.97 1522.85 1886.97 1531.6 Q1886.97 1540.33 1883.89 1544.94 Q1880.84 1549.52 1875.03 1549.52 Q1869.22 1549.52 1866.14 1544.94 Q1863.08 1540.33 1863.08 1531.6 Q1863.08 1522.85 1866.14 1518.27 Q1869.22 1513.66 1875.03 1513.66 Z" fill="#000000" fill-rule="nonzero" fill-opacity="1" /><path clip-path="url(#clip900)" d="M1905.19 1517.37 Q1901.58 1517.37 1899.75 1520.93 Q1897.94 1524.47 1897.94 1531.6 Q1897.94 1538.71 1899.75 1542.27 Q1901.58 1545.82 1905.19 1545.82 Q1908.82 1545.82 1910.63 1542.27 Q1912.46 1538.71 1912.46 1531.6 Q1912.46 1524.47 1910.63 1520.93 Q1908.82 1517.37 1905.19 1517.37 M1905.19 1513.66 Q1911 1513.66 1914.05 1518.27 Q1917.13 1522.85 1917.13 1531.6 Q1917.13 1540.33 1914.05 1544.94 Q1911 1549.52 1905.19 1549.52 Q1899.38 1549.52 1896.3 1544.94 Q1893.24 1540.33 1893.24 1531.6 Q1893.24 1522.85 1896.3 1518.27 Q1899.38 1513.66 1905.19 1513.66 Z" fill="#000000" fill-rule="nonzero" fill-opacity="1" /><path clip-path="url(#clip900)" d="M1935.35 1517.37 Q1931.74 1517.37 1929.91 1520.93 Q1928.11 1524.47 1928.11 1531.6 Q1928.11 1538.71 1929.91 1542.27 Q1931.74 1545.82 1935.35 1545.82 Q1938.98 1545.82 1940.79 1542.27 Q1942.62 1538.71 1942.62 1531.6 Q1942.62 1524.47 1940.79 1520.93 Q1938.98 1517.37 1935.35 1517.37 M1935.35 1513.66 Q1941.16 1513.66 1944.22 1518.27 Q1947.29 1522.85 1947.29 1531.6 Q1947.29 1540.33 1944.22 1544.94 Q1941.16 1549.52 1935.35 1549.52 Q1929.54 1549.52 1926.46 1544.94 Q1923.41 1540.33 1923.41 1531.6 Q1923.41 1522.85 1926.46 1518.27 Q1929.54 1513.66 1935.35 1513.66 Z" fill="#000000" fill-rule="nonzero" fill-opacity="1" /><path clip-path="url(#clip900)" d="M2063.61 1544.91 L2071.25 1544.91 L2071.25 1518.55 L2062.94 1520.21 L2062.94 1515.95 L2071.2 1514.29 L2075.88 1514.29 L2075.88 1544.91 L2083.52 1544.91 L2083.52 1548.85 L2063.61 1548.85 L2063.61 1544.91 Z" fill="#000000" fill-rule="nonzero" fill-opacity="1" /><path clip-path="url(#clip900)" d="M2093.01 1514.29 L2111.36 1514.29 L2111.36 1518.22 L2097.29 1518.22 L2097.29 1526.7 Q2098.31 1526.35 2099.33 1526.19 Q2100.34 1526 2101.36 1526 Q2107.15 1526 2110.53 1529.17 Q2113.91 1532.34 2113.91 1537.76 Q2113.91 1543.34 2110.44 1546.44 Q2106.96 1549.52 2100.65 1549.52 Q2098.47 1549.52 2096.2 1549.15 Q2093.96 1548.78 2091.55 1548.04 L2091.55 1543.34 Q2093.63 1544.47 2095.85 1545.03 Q2098.08 1545.58 2100.55 1545.58 Q2104.56 1545.58 2106.9 1543.48 Q2109.23 1541.37 2109.23 1537.76 Q2109.23 1534.15 2106.9 1532.04 Q2104.56 1529.94 2100.55 1529.94 Q2098.68 1529.94 2096.8 1530.35 Q2094.95 1530.77 2093.01 1531.65 L2093.01 1514.29 Z" fill="#000000" fill-rule="nonzero" fill-opacity="1" /><path clip-path="url(#clip900)" d="M2133.12 1517.37 Q2129.51 1517.37 2127.68 1520.93 Q2125.88 1524.47 2125.88 1531.6 Q2125.88 1538.71 2127.68 1542.27 Q2129.51 1545.82 2133.12 1545.82 Q2136.76 1545.82 2138.56 1542.27 Q2140.39 1538.71 2140.39 1531.6 Q2140.39 1524.47 2138.56 1520.93 Q2136.76 1517.37 2133.12 1517.37 M2133.12 1513.66 Q2138.93 1513.66 2141.99 1518.27 Q2145.07 1522.85 2145.07 1531.6 Q2145.07 1540.33 2141.99 1544.94 Q2138.93 1549.52 2133.12 1549.52 Q2127.31 1549.52 2124.23 1544.94 Q2121.18 1540.33 2121.18 1531.6 Q2121.18 1522.85 2124.23 1518.27 Q2127.31 1513.66 2133.12 1513.66 Z" fill="#000000" fill-rule="nonzero" fill-opacity="1" /><path clip-path="url(#clip900)" d="M2163.28 1517.37 Q2159.67 1517.37 2157.84 1520.93 Q2156.04 1524.47 2156.04 1531.6 Q2156.04 1538.71 2157.84 1542.27 Q2159.67 1545.82 2163.28 1545.82 Q2166.92 1545.82 2168.72 1542.27 Q2170.55 1538.71 2170.55 1531.6 Q2170.55 1524.47 2168.72 1520.93 Q2166.92 1517.37 2163.28 1517.37 M2163.28 1513.66 Q2169.09 1513.66 2172.15 1518.27 Q2175.23 1522.85 2175.23 1531.6 Q2175.23 1540.33 2172.15 1544.94 Q2169.09 1549.52 2163.28 1549.52 Q2157.47 1549.52 2154.4 1544.94 Q2151.34 1540.33 2151.34 1531.6 Q2151.34 1522.85 2154.4 1518.27 Q2157.47 1513.66 2163.28 1513.66 Z" fill="#000000" fill-rule="nonzero" fill-opacity="1" /><path clip-path="url(#clip900)" d="M2295.63 1544.91 L2311.95 1544.91 L2311.95 1548.85 L2290 1548.85 L2290 1544.91 Q2292.66 1542.16 2297.25 1537.53 Q2301.85 1532.88 2303.04 1531.53 Q2305.28 1529.01 2306.16 1527.27 Q2307.06 1525.51 2307.06 1523.82 Q2307.06 1521.07 2305.12 1519.33 Q2303.2 1517.6 2300.1 1517.6 Q2297.9 1517.6 2295.44 1518.36 Q2293.01 1519.13 2290.23 1520.68 L2290.23 1515.95 Q2293.06 1514.82 2295.51 1514.24 Q2297.97 1513.66 2300 1513.66 Q2305.37 1513.66 2308.57 1516.35 Q2311.76 1519.03 2311.76 1523.52 Q2311.76 1525.65 2310.95 1527.57 Q2310.16 1529.47 2308.06 1532.07 Q2307.48 1532.74 2304.38 1535.95 Q2301.28 1539.15 2295.63 1544.91 Z" fill="#000000" fill-rule="nonzero" fill-opacity="1" /><path clip-path="url(#clip900)" d="M2331.76 1517.37 Q2328.15 1517.37 2326.32 1520.93 Q2324.52 1524.47 2324.52 1531.6 Q2324.52 1538.71 2326.32 1542.27 Q2328.15 1545.82 2331.76 1545.82 Q2335.4 1545.82 2337.2 1542.27 Q2339.03 1538.71 2339.03 1531.6 Q2339.03 1524.47 2337.2 1520.93 Q2335.4 1517.37 2331.76 1517.37 M2331.76 1513.66 Q2337.57 1513.66 2340.63 1518.27 Q2343.71 1522.85 2343.71 1531.6 Q2343.71 1540.33 2340.63 1544.94 Q2337.57 1549.52 2331.76 1549.52 Q2325.95 1549.52 2322.87 1544.94 Q2319.82 1540.33 2319.82 1531.6 Q2319.82 1522.85 2322.87 1518.27 Q2325.95 1513.66 2331.76 1513.66 Z" fill="#000000" fill-rule="nonzero" fill-opacity="1" /><path clip-path="url(#clip900)" d="M2361.92 1517.37 Q2358.31 1517.37 2356.48 1520.93 Q2354.68 1524.47 2354.68 1531.6 Q2354.68 1538.71 2356.48 1542.27 Q2358.31 1545.82 2361.92 1545.82 Q2365.56 1545.82 2367.36 1542.27 Q2369.19 1538.71 2369.19 1531.6 Q2369.19 1524.47 2367.36 1520.93 Q2365.56 1517.37 2361.92 1517.37 M2361.92 1513.66 Q2367.73 1513.66 2370.79 1518.27 Q2373.87 1522.85 2373.87 1531.6 Q2373.87 1540.33 2370.79 1544.94 Q2367.73 1549.52 2361.92 1549.52 Q2356.11 1549.52 2353.04 1544.94 Q2349.98 1540.33 2349.98 1531.6 Q2349.98 1522.85 2353.04 1518.27 Q2356.11 1513.66 2361.92 1513.66 Z" fill="#000000" fill-rule="nonzero" fill-opacity="1" /><path clip-path="url(#clip900)" d="M2392.09 1517.37 Q2388.47 1517.37 2386.65 1520.93 Q2384.84 1524.47 2384.84 1531.6 Q2384.84 1538.71 2386.65 1542.27 Q2388.47 1545.82 2392.09 1545.82 Q2395.72 1545.82 2397.53 1542.27 Q2399.35 1538.71 2399.35 1531.6 Q2399.35 1524.47 2397.53 1520.93 Q2395.72 1517.37 2392.09 1517.37 M2392.09 1513.66 Q2397.9 1513.66 2400.95 1518.27 Q2404.03 1522.85 2404.03 1531.6 Q2404.03 1540.33 2400.95 1544.94 Q2397.9 1549.52 2392.09 1549.52 Q2386.28 1549.52 2383.2 1544.94 Q2380.14 1540.33 2380.14 1531.6 Q2380.14 1522.85 2383.2 1518.27 Q2386.28 1513.66 2392.09 1513.66 Z" fill="#000000" fill-rule="nonzero" fill-opacity="1" /><polyline clip-path="url(#clip900)" style="stroke:#000000; stroke-linecap:round; stroke-linejoin:round; stroke-width:4; stroke-opacity:1; fill:none" points="1409.03,1486.45 1409.03,47.2441 "/>
<polyline clip-path="url(#clip900)" style="stroke:#000000; stroke-linecap:round; stroke-linejoin:round; stroke-width:4; stroke-opacity:1; fill:none" points="1409.03,1424.81 1427.93,1424.81 "/>
<polyline clip-path="url(#clip900)" style="stroke:#000000; stroke-linecap:round; stroke-linejoin:round; stroke-width:4; stroke-opacity:1; fill:none" points="1409.03,1208.08 1427.93,1208.08 "/>
<polyline clip-path="url(#clip900)" style="stroke:#000000; stroke-linecap:round; stroke-linejoin:round; stroke-width:4; stroke-opacity:1; fill:none" points="1409.03,991.346 1427.93,991.346 "/>
<polyline clip-path="url(#clip900)" style="stroke:#000000; stroke-linecap:round; stroke-linejoin:round; stroke-width:4; stroke-opacity:1; fill:none" points="1409.03,774.615 1427.93,774.615 "/>
<polyline clip-path="url(#clip900)" style="stroke:#000000; stroke-linecap:round; stroke-linejoin:round; stroke-width:4; stroke-opacity:1; fill:none" points="1409.03,557.885 1427.93,557.885 "/>
<polyline clip-path="url(#clip900)" style="stroke:#000000; stroke-linecap:round; stroke-linejoin:round; stroke-width:4; stroke-opacity:1; fill:none" points="1409.03,341.155 1427.93,341.155 "/>
<polyline clip-path="url(#clip900)" style="stroke:#000000; stroke-linecap:round; stroke-linejoin:round; stroke-width:4; stroke-opacity:1; fill:none" points="1409.03,124.424 1427.93,124.424 "/>
<path clip-path="url(#clip900)" d="M1220.83 1425.26 L1250.51 1425.26 L1250.51 1429.19 L1220.83 1429.19 L1220.83 1425.26 Z" fill="#000000" fill-rule="nonzero" fill-opacity="1" /><path clip-path="url(#clip900)" d="M1264.63 1438.15 L1280.95 1438.15 L1280.95 1442.09 L1259 1442.09 L1259 1438.15 Q1261.66 1435.4 1266.25 1430.77 Q1270.85 1426.11 1272.03 1424.77 Q1274.28 1422.25 1275.16 1420.51 Q1276.06 1418.75 1276.06 1417.06 Q1276.06 1414.31 1274.12 1412.57 Q1272.2 1410.84 1269.09 1410.84 Q1266.89 1410.84 1264.44 1411.6 Q1262.01 1412.36 1259.23 1413.92 L1259.23 1409.19 Q1262.06 1408.06 1264.51 1407.48 Q1266.96 1406.9 1269 1406.9 Q1274.37 1406.9 1277.57 1409.59 Q1280.76 1412.27 1280.76 1416.76 Q1280.76 1418.89 1279.95 1420.81 Q1279.16 1422.71 1277.06 1425.3 Q1276.48 1425.98 1273.38 1429.19 Q1270.27 1432.39 1264.63 1438.15 Z" fill="#000000" fill-rule="nonzero" fill-opacity="1" /><path clip-path="url(#clip900)" d="M1290.81 1407.53 L1309.16 1407.53 L1309.16 1411.46 L1295.09 1411.46 L1295.09 1419.93 Q1296.11 1419.59 1297.13 1419.42 Q1298.14 1419.24 1299.16 1419.24 Q1304.95 1419.24 1308.33 1422.41 Q1311.71 1425.58 1311.71 1431 Q1311.71 1436.58 1308.24 1439.68 Q1304.76 1442.76 1298.45 1442.76 Q1296.27 1442.76 1294 1442.39 Q1291.76 1442.02 1289.35 1441.28 L1289.35 1436.58 Q1291.43 1437.71 1293.65 1438.27 Q1295.88 1438.82 1298.35 1438.82 Q1302.36 1438.82 1304.7 1436.72 Q1307.03 1434.61 1307.03 1431 Q1307.03 1427.39 1304.7 1425.28 Q1302.36 1423.17 1298.35 1423.17 Q1296.48 1423.17 1294.6 1423.59 Q1292.75 1424.01 1290.81 1424.89 L1290.81 1407.53 Z" fill="#000000" fill-rule="nonzero" fill-opacity="1" /><path clip-path="url(#clip900)" d="M1330.92 1410.61 Q1327.31 1410.61 1325.48 1414.17 Q1323.68 1417.71 1323.68 1424.84 Q1323.68 1431.95 1325.48 1435.51 Q1327.31 1439.05 1330.92 1439.05 Q1334.56 1439.05 1336.36 1435.51 Q1338.19 1431.95 1338.19 1424.84 Q1338.19 1417.71 1336.36 1414.17 Q1334.56 1410.61 1330.92 1410.61 M1330.92 1406.9 Q1336.73 1406.9 1339.79 1411.51 Q1342.87 1416.09 1342.87 1424.84 Q1342.87 1433.57 1339.79 1438.17 Q1336.73 1442.76 1330.92 1442.76 Q1325.11 1442.76 1322.03 1438.17 Q1318.98 1433.57 1318.98 1424.84 Q1318.98 1416.09 1322.03 1411.51 Q1325.11 1406.9 1330.92 1406.9 Z" fill="#000000" fill-rule="nonzero" fill-opacity="1" /><path clip-path="url(#clip900)" d="M1361.08 1410.61 Q1357.47 1410.61 1355.64 1414.17 Q1353.84 1417.71 1353.84 1424.84 Q1353.84 1431.95 1355.64 1435.51 Q1357.47 1439.05 1361.08 1439.05 Q1364.72 1439.05 1366.52 1435.51 Q1368.35 1431.95 1368.35 1424.84 Q1368.35 1417.71 1366.52 1414.17 Q1364.72 1410.61 1361.08 1410.61 M1361.08 1406.9 Q1366.89 1406.9 1369.95 1411.51 Q1373.03 1416.09 1373.03 1424.84 Q1373.03 1433.57 1369.95 1438.17 Q1366.89 1442.76 1361.08 1442.76 Q1355.27 1442.76 1352.2 1438.17 Q1349.14 1433.57 1349.14 1424.84 Q1349.14 1416.09 1352.2 1411.51 Q1355.27 1406.9 1361.08 1406.9 Z" fill="#000000" fill-rule="nonzero" fill-opacity="1" /><path clip-path="url(#clip900)" d="M1220.83 1208.53 L1250.51 1208.53 L1250.51 1212.46 L1220.83 1212.46 L1220.83 1208.53 Z" fill="#000000" fill-rule="nonzero" fill-opacity="1" /><path clip-path="url(#clip900)" d="M1264.63 1221.42 L1280.95 1221.42 L1280.95 1225.36 L1259 1225.36 L1259 1221.42 Q1261.66 1218.67 1266.25 1214.04 Q1270.85 1209.38 1272.03 1208.04 Q1274.28 1205.52 1275.16 1203.78 Q1276.06 1202.02 1276.06 1200.33 Q1276.06 1197.58 1274.12 1195.84 Q1272.2 1194.11 1269.09 1194.11 Q1266.89 1194.11 1264.44 1194.87 Q1262.01 1195.63 1259.23 1197.19 L1259.23 1192.46 Q1262.06 1191.33 1264.51 1190.75 Q1266.96 1190.17 1269 1190.17 Q1274.37 1190.17 1277.57 1192.86 Q1280.76 1195.54 1280.76 1200.03 Q1280.76 1202.16 1279.95 1204.08 Q1279.16 1205.98 1277.06 1208.57 Q1276.48 1209.25 1273.38 1212.46 Q1270.27 1215.66 1264.63 1221.42 Z" fill="#000000" fill-rule="nonzero" fill-opacity="1" /><path clip-path="url(#clip900)" d="M1300.76 1193.87 Q1297.15 1193.87 1295.32 1197.44 Q1293.52 1200.98 1293.52 1208.11 Q1293.52 1215.22 1295.32 1218.78 Q1297.15 1222.32 1300.76 1222.32 Q1304.39 1222.32 1306.2 1218.78 Q1308.03 1215.22 1308.03 1208.11 Q1308.03 1200.98 1306.2 1197.44 Q1304.39 1193.87 1300.76 1193.87 M1300.76 1190.17 Q1306.57 1190.17 1309.63 1194.78 Q1312.7 1199.36 1312.7 1208.11 Q1312.7 1216.84 1309.63 1221.44 Q1306.57 1226.03 1300.76 1226.03 Q1294.95 1226.03 1291.87 1221.44 Q1288.82 1216.84 1288.82 1208.11 Q1288.82 1199.36 1291.87 1194.78 Q1294.95 1190.17 1300.76 1190.17 Z" fill="#000000" fill-rule="nonzero" fill-opacity="1" /><path clip-path="url(#clip900)" d="M1330.92 1193.87 Q1327.31 1193.87 1325.48 1197.44 Q1323.68 1200.98 1323.68 1208.11 Q1323.68 1215.22 1325.48 1218.78 Q1327.31 1222.32 1330.92 1222.32 Q1334.56 1222.32 1336.36 1218.78 Q1338.19 1215.22 1338.19 1208.11 Q1338.19 1200.98 1336.36 1197.44 Q1334.56 1193.87 1330.92 1193.87 M1330.92 1190.17 Q1336.73 1190.17 1339.79 1194.78 Q1342.87 1199.36 1342.87 1208.11 Q1342.87 1216.84 1339.79 1221.44 Q1336.73 1226.03 1330.92 1226.03 Q1325.11 1226.03 1322.03 1221.44 Q1318.98 1216.84 1318.98 1208.11 Q1318.98 1199.36 1322.03 1194.78 Q1325.11 1190.17 1330.92 1190.17 Z" fill="#000000" fill-rule="nonzero" fill-opacity="1" /><path clip-path="url(#clip900)" d="M1361.08 1193.87 Q1357.47 1193.87 1355.64 1197.44 Q1353.84 1200.98 1353.84 1208.11 Q1353.84 1215.22 1355.64 1218.78 Q1357.47 1222.32 1361.08 1222.32 Q1364.72 1222.32 1366.52 1218.78 Q1368.35 1215.22 1368.35 1208.11 Q1368.35 1200.98 1366.52 1197.44 Q1364.72 1193.87 1361.08 1193.87 M1361.08 1190.17 Q1366.89 1190.17 1369.95 1194.78 Q1373.03 1199.36 1373.03 1208.11 Q1373.03 1216.84 1369.95 1221.44 Q1366.89 1226.03 1361.08 1226.03 Q1355.27 1226.03 1352.2 1221.44 Q1349.14 1216.84 1349.14 1208.11 Q1349.14 1199.36 1352.2 1194.78 Q1355.27 1190.17 1361.08 1190.17 Z" fill="#000000" fill-rule="nonzero" fill-opacity="1" /><path clip-path="url(#clip900)" d="M1220.83 991.797 L1250.51 991.797 L1250.51 995.732 L1220.83 995.732 L1220.83 991.797 Z" fill="#000000" fill-rule="nonzero" fill-opacity="1" /><path clip-path="url(#clip900)" d="M1261.41 1004.69 L1269.05 1004.69 L1269.05 978.325 L1260.74 979.992 L1260.74 975.732 L1269 974.066 L1273.68 974.066 L1273.68 1004.69 L1281.32 1004.69 L1281.32 1008.63 L1261.41 1008.63 L1261.41 1004.69 Z" fill="#000000" fill-rule="nonzero" fill-opacity="1" /><path clip-path="url(#clip900)" d="M1290.81 974.066 L1309.16 974.066 L1309.16 978.001 L1295.09 978.001 L1295.09 986.473 Q1296.11 986.126 1297.13 985.964 Q1298.14 985.779 1299.16 985.779 Q1304.95 985.779 1308.33 988.95 Q1311.71 992.121 1311.71 997.538 Q1311.71 1003.12 1308.24 1006.22 Q1304.76 1009.3 1298.45 1009.3 Q1296.27 1009.3 1294 1008.93 Q1291.76 1008.56 1289.35 1007.82 L1289.35 1003.12 Q1291.43 1004.25 1293.65 1004.81 Q1295.88 1005.36 1298.35 1005.36 Q1302.36 1005.36 1304.7 1003.26 Q1307.03 1001.15 1307.03 997.538 Q1307.03 993.927 1304.7 991.82 Q1302.36 989.714 1298.35 989.714 Q1296.48 989.714 1294.6 990.131 Q1292.75 990.547 1290.81 991.427 L1290.81 974.066 Z" fill="#000000" fill-rule="nonzero" fill-opacity="1" /><path clip-path="url(#clip900)" d="M1330.92 977.144 Q1327.31 977.144 1325.48 980.709 Q1323.68 984.251 1323.68 991.38 Q1323.68 998.487 1325.48 1002.05 Q1327.31 1005.59 1330.92 1005.59 Q1334.56 1005.59 1336.36 1002.05 Q1338.19 998.487 1338.19 991.38 Q1338.19 984.251 1336.36 980.709 Q1334.56 977.144 1330.92 977.144 M1330.92 973.441 Q1336.73 973.441 1339.79 978.047 Q1342.87 982.631 1342.87 991.38 Q1342.87 1000.11 1339.79 1004.71 Q1336.73 1009.3 1330.92 1009.3 Q1325.11 1009.3 1322.03 1004.71 Q1318.98 1000.11 1318.98 991.38 Q1318.98 982.631 1322.03 978.047 Q1325.11 973.441 1330.92 973.441 Z" fill="#000000" fill-rule="nonzero" fill-opacity="1" /><path clip-path="url(#clip900)" d="M1361.08 977.144 Q1357.47 977.144 1355.64 980.709 Q1353.84 984.251 1353.84 991.38 Q1353.84 998.487 1355.64 1002.05 Q1357.47 1005.59 1361.08 1005.59 Q1364.72 1005.59 1366.52 1002.05 Q1368.35 998.487 1368.35 991.38 Q1368.35 984.251 1366.52 980.709 Q1364.72 977.144 1361.08 977.144 M1361.08 973.441 Q1366.89 973.441 1369.95 978.047 Q1373.03 982.631 1373.03 991.38 Q1373.03 1000.11 1369.95 1004.71 Q1366.89 1009.3 1361.08 1009.3 Q1355.27 1009.3 1352.2 1004.71 Q1349.14 1000.11 1349.14 991.38 Q1349.14 982.631 1352.2 978.047 Q1355.27 973.441 1361.08 973.441 Z" fill="#000000" fill-rule="nonzero" fill-opacity="1" /><path clip-path="url(#clip900)" d="M1220.83 775.067 L1250.51 775.067 L1250.51 779.002 L1220.83 779.002 L1220.83 775.067 Z" fill="#000000" fill-rule="nonzero" fill-opacity="1" /><path clip-path="url(#clip900)" d="M1261.41 787.96 L1269.05 787.96 L1269.05 761.595 L1260.74 763.261 L1260.74 759.002 L1269 757.335 L1273.68 757.335 L1273.68 787.96 L1281.32 787.96 L1281.32 791.895 L1261.41 791.895 L1261.41 787.96 Z" fill="#000000" fill-rule="nonzero" fill-opacity="1" /><path clip-path="url(#clip900)" d="M1300.76 760.414 Q1297.15 760.414 1295.32 763.979 Q1293.52 767.52 1293.52 774.65 Q1293.52 781.757 1295.32 785.321 Q1297.15 788.863 1300.76 788.863 Q1304.39 788.863 1306.2 785.321 Q1308.03 781.757 1308.03 774.65 Q1308.03 767.52 1306.2 763.979 Q1304.39 760.414 1300.76 760.414 M1300.76 756.71 Q1306.57 756.71 1309.63 761.317 Q1312.7 765.9 1312.7 774.65 Q1312.7 783.377 1309.63 787.983 Q1306.57 792.567 1300.76 792.567 Q1294.95 792.567 1291.87 787.983 Q1288.82 783.377 1288.82 774.65 Q1288.82 765.9 1291.87 761.317 Q1294.95 756.71 1300.76 756.71 Z" fill="#000000" fill-rule="nonzero" fill-opacity="1" /><path clip-path="url(#clip900)" d="M1330.92 760.414 Q1327.31 760.414 1325.48 763.979 Q1323.68 767.52 1323.68 774.65 Q1323.68 781.757 1325.48 785.321 Q1327.31 788.863 1330.92 788.863 Q1334.56 788.863 1336.36 785.321 Q1338.19 781.757 1338.19 774.65 Q1338.19 767.52 1336.36 763.979 Q1334.56 760.414 1330.92 760.414 M1330.92 756.71 Q1336.73 756.71 1339.79 761.317 Q1342.87 765.9 1342.87 774.65 Q1342.87 783.377 1339.79 787.983 Q1336.73 792.567 1330.92 792.567 Q1325.11 792.567 1322.03 787.983 Q1318.98 783.377 1318.98 774.65 Q1318.98 765.9 1322.03 761.317 Q1325.11 756.71 1330.92 756.71 Z" fill="#000000" fill-rule="nonzero" fill-opacity="1" /><path clip-path="url(#clip900)" d="M1361.08 760.414 Q1357.47 760.414 1355.64 763.979 Q1353.84 767.52 1353.84 774.65 Q1353.84 781.757 1355.64 785.321 Q1357.47 788.863 1361.08 788.863 Q1364.72 788.863 1366.52 785.321 Q1368.35 781.757 1368.35 774.65 Q1368.35 767.52 1366.52 763.979 Q1364.72 760.414 1361.08 760.414 M1361.08 756.71 Q1366.89 756.71 1369.95 761.317 Q1373.03 765.9 1373.03 774.65 Q1373.03 783.377 1369.95 787.983 Q1366.89 792.567 1361.08 792.567 Q1355.27 792.567 1352.2 787.983 Q1349.14 783.377 1349.14 774.65 Q1349.14 765.9 1352.2 761.317 Q1355.27 756.71 1361.08 756.71 Z" fill="#000000" fill-rule="nonzero" fill-opacity="1" /><path clip-path="url(#clip900)" d="M1250.99 558.336 L1280.67 558.336 L1280.67 562.272 L1250.99 562.272 L1250.99 558.336 Z" fill="#000000" fill-rule="nonzero" fill-opacity="1" /><path clip-path="url(#clip900)" d="M1290.81 540.605 L1309.16 540.605 L1309.16 544.54 L1295.09 544.54 L1295.09 553.012 Q1296.11 552.665 1297.13 552.503 Q1298.14 552.318 1299.16 552.318 Q1304.95 552.318 1308.33 555.489 Q1311.71 558.66 1311.71 564.077 Q1311.71 569.656 1308.24 572.758 Q1304.76 575.836 1298.45 575.836 Q1296.27 575.836 1294 575.466 Q1291.76 575.096 1289.35 574.355 L1289.35 569.656 Q1291.43 570.79 1293.65 571.346 Q1295.88 571.901 1298.35 571.901 Q1302.36 571.901 1304.7 569.795 Q1307.03 567.688 1307.03 564.077 Q1307.03 560.466 1304.7 558.359 Q1302.36 556.253 1298.35 556.253 Q1296.48 556.253 1294.6 556.67 Q1292.75 557.086 1290.81 557.966 L1290.81 540.605 Z" fill="#000000" fill-rule="nonzero" fill-opacity="1" /><path clip-path="url(#clip900)" d="M1330.92 543.684 Q1327.31 543.684 1325.48 547.248 Q1323.68 550.79 1323.68 557.92 Q1323.68 565.026 1325.48 568.591 Q1327.31 572.133 1330.92 572.133 Q1334.56 572.133 1336.36 568.591 Q1338.19 565.026 1338.19 557.92 Q1338.19 550.79 1336.36 547.248 Q1334.56 543.684 1330.92 543.684 M1330.92 539.98 Q1336.73 539.98 1339.79 544.586 Q1342.87 549.17 1342.87 557.92 Q1342.87 566.646 1339.79 571.253 Q1336.73 575.836 1330.92 575.836 Q1325.11 575.836 1322.03 571.253 Q1318.98 566.646 1318.98 557.92 Q1318.98 549.17 1322.03 544.586 Q1325.11 539.98 1330.92 539.98 Z" fill="#000000" fill-rule="nonzero" fill-opacity="1" /><path clip-path="url(#clip900)" d="M1361.08 543.684 Q1357.47 543.684 1355.64 547.248 Q1353.84 550.79 1353.84 557.92 Q1353.84 565.026 1355.64 568.591 Q1357.47 572.133 1361.08 572.133 Q1364.72 572.133 1366.52 568.591 Q1368.35 565.026 1368.35 557.92 Q1368.35 550.79 1366.52 547.248 Q1364.72 543.684 1361.08 543.684 M1361.08 539.98 Q1366.89 539.98 1369.95 544.586 Q1373.03 549.17 1373.03 557.92 Q1373.03 566.646 1369.95 571.253 Q1366.89 575.836 1361.08 575.836 Q1355.27 575.836 1352.2 571.253 Q1349.14 566.646 1349.14 557.92 Q1349.14 549.17 1352.2 544.586 Q1355.27 539.98 1361.08 539.98 Z" fill="#000000" fill-rule="nonzero" fill-opacity="1" /><path clip-path="url(#clip900)" d="M1361.08 326.953 Q1357.47 326.953 1355.64 330.518 Q1353.84 334.06 1353.84 341.189 Q1353.84 348.296 1355.64 351.861 Q1357.47 355.402 1361.08 355.402 Q1364.72 355.402 1366.52 351.861 Q1368.35 348.296 1368.35 341.189 Q1368.35 334.06 1366.52 330.518 Q1364.72 326.953 1361.08 326.953 M1361.08 323.25 Q1366.89 323.25 1369.95 327.856 Q1373.03 332.439 1373.03 341.189 Q1373.03 349.916 1369.95 354.523 Q1366.89 359.106 1361.08 359.106 Q1355.27 359.106 1352.2 354.523 Q1349.14 349.916 1349.14 341.189 Q1349.14 332.439 1352.2 327.856 Q1355.27 323.25 1361.08 323.25 Z" fill="#000000" fill-rule="nonzero" fill-opacity="1" /><path clip-path="url(#clip900)" d="M1290.81 107.144 L1309.16 107.144 L1309.16 111.079 L1295.09 111.079 L1295.09 119.551 Q1296.11 119.204 1297.13 119.042 Q1298.14 118.857 1299.16 118.857 Q1304.95 118.857 1308.33 122.028 Q1311.71 125.2 1311.71 130.616 Q1311.71 136.195 1308.24 139.297 Q1304.76 142.375 1298.45 142.375 Q1296.27 142.375 1294 142.005 Q1291.76 141.635 1289.35 140.894 L1289.35 136.195 Q1291.43 137.329 1293.65 137.885 Q1295.88 138.44 1298.35 138.44 Q1302.36 138.44 1304.7 136.334 Q1307.03 134.227 1307.03 130.616 Q1307.03 127.005 1304.7 124.899 Q1302.36 122.792 1298.35 122.792 Q1296.48 122.792 1294.6 123.209 Q1292.75 123.626 1290.81 124.505 L1290.81 107.144 Z" fill="#000000" fill-rule="nonzero" fill-opacity="1" /><path clip-path="url(#clip900)" d="M1330.92 110.223 Q1327.31 110.223 1325.48 113.788 Q1323.68 117.329 1323.68 124.459 Q1323.68 131.565 1325.48 135.13 Q1327.31 138.672 1330.92 138.672 Q1334.56 138.672 1336.36 135.13 Q1338.19 131.565 1338.19 124.459 Q1338.19 117.329 1336.36 113.788 Q1334.56 110.223 1330.92 110.223 M1330.92 106.519 Q1336.73 106.519 1339.79 111.126 Q1342.87 115.709 1342.87 124.459 Q1342.87 133.186 1339.79 137.792 Q1336.73 142.375 1330.92 142.375 Q1325.11 142.375 1322.03 137.792 Q1318.98 133.186 1318.98 124.459 Q1318.98 115.709 1322.03 111.126 Q1325.11 106.519 1330.92 106.519 Z" fill="#000000" fill-rule="nonzero" fill-opacity="1" /><path clip-path="url(#clip900)" d="M1361.08 110.223 Q1357.47 110.223 1355.64 113.788 Q1353.84 117.329 1353.84 124.459 Q1353.84 131.565 1355.64 135.13 Q1357.47 138.672 1361.08 138.672 Q1364.72 138.672 1366.52 135.13 Q1368.35 131.565 1368.35 124.459 Q1368.35 117.329 1366.52 113.788 Q1364.72 110.223 1361.08 110.223 M1361.08 106.519 Q1366.89 106.519 1369.95 111.126 Q1373.03 115.709 1373.03 124.459 Q1373.03 133.186 1369.95 137.792 Q1366.89 142.375 1361.08 142.375 Q1355.27 142.375 1352.2 137.792 Q1349.14 133.186 1349.14 124.459 Q1349.14 115.709 1352.2 111.126 Q1355.27 106.519 1361.08 106.519 Z" fill="#000000" fill-rule="nonzero" fill-opacity="1" /><polyline clip-path="url(#clip901)" style="stroke:#009af9; stroke-linecap:round; stroke-linejoin:round; stroke-width:4; stroke-opacity:1; fill:none" points="1435.74,87.9763 1436.19,98.7618 1436.65,110.05 1437.11,121.304 1437.56,132.525 1438.02,143.712 1438.47,154.865 1438.93,165.983 1439.38,177.066 1439.84,188.115 1440.3,199.128 1440.75,210.106 1441.21,221.049 1441.66,231.955 1442.12,242.824 1442.58,253.657 1443.03,264.453 1443.49,275.212 1443.94,285.932 1444.4,296.615 1444.86,307.259 1445.31,317.864 1445.77,328.429 1446.22,338.955 1446.68,349.44 1447.13,359.884 1447.59,370.288 1448.05,380.649 1448.5,390.969 1448.96,401.246 1449.41,411.479 1449.87,421.669 1450.33,431.814 1450.78,441.915 1451.24,451.971 1451.69,461.98 1452.15,471.943 1452.6,481.859 1453.06,491.727 1453.52,501.546 1453.97,511.317 1454.43,521.038 1454.88,530.709 1455.34,540.329 1455.8,549.897 1456.25,559.413 1456.71,568.876 1457.16,578.286 1457.62,587.641 1458.08,596.941 1458.53,606.185 1458.99,615.373 1459.44,624.503 1459.9,633.576 1460.35,642.589 1460.81,651.543 1461.27,660.437 1461.72,669.27 1462.18,678.041 1462.63,686.749 1463.09,695.394 1463.55,703.974 1464,712.49 1464.46,720.939 1464.91,729.322 1465.37,737.638 1465.83,745.885 1466.28,754.064 1466.74,762.172 1467.19,770.21 1467.65,778.176 1468.1,786.071 1468.56,793.892 1469.02,801.639 1469.47,809.312 1469.93,816.91 1470.38,824.431 1470.84,831.876 1471.3,839.243 1471.75,846.532 1472.21,853.741 1472.66,860.871 1473.12,867.92 1473.57,874.888 1474.03,881.774 1474.49,888.577 1474.94,895.297 1475.4,901.933 1475.85,908.484 1476.31,914.95 1476.77,921.33 1477.22,927.624 1477.68,933.831 1478.13,939.95 1478.59,945.981 1479.05,951.923 1479.5,957.776 1479.96,963.54 1480.41,969.214 1480.87,974.798 1481.32,980.291 1481.78,985.694 1482.24,991.006 1482.69,996.227 1483.15,1001.36 1483.6,1006.4 1484.06,1011.35 1484.52,1016.21 1484.97,1020.98 1485.43,1025.66 1485.88,1030.25 1486.34,1034.76 1486.79,1039.18 1487.25,1043.51 1487.71,1047.76 1488.16,1051.93 1488.62,1056.01 1489.07,1060.01 1489.53,1063.93 1489.99,1067.78 1490.44,1071.55 1490.9,1075.24 1491.35,1078.86 1491.81,1082.4 1492.27,1085.88 1492.72,1089.28 1493.18,1092.62 1493.63,1095.89 1494.09,1099.1 1494.54,1102.25 1495,1105.34 1495.46,1108.36 1495.91,1111.34 1496.37,1114.26 1496.82,1117.13 1497.28,1119.95 1497.74,1122.72 1498.19,1125.45 1498.65,1128.14 1499.1,1130.79 1499.56,1133.4 1500.02,1135.97 1500.47,1138.52 1500.93,1141.03 1501.38,1143.51 1501.84,1145.97 1502.29,1148.4 1502.75,1150.81 1503.21,1153.19 1503.66,1155.55 1504.12,1157.9 1504.57,1160.22 1505.03,1162.52 1505.49,1164.81 1505.94,1167.07 1506.4,1169.32 1506.85,1171.55 1507.31,1173.77 1507.76,1175.96 1508.22,1178.13 1508.68,1180.29 1509.13,1182.42 1509.59,1184.54 1510.04,1186.63 1510.5,1188.71 1510.96,1190.76 1511.41,1192.79 1511.87,1194.8 1512.32,1196.78 1512.78,1198.74 1513.24,1200.68 1513.69,1202.6 1514.15,1204.5 1514.6,1206.37 1515.06,1208.22 1515.51,1210.04 1515.97,1211.85 1516.43,1213.63 1516.88,1215.39 1517.34,1217.12 1517.79,1218.84 1518.25,1220.54 1518.71,1222.21 1519.16,1223.87 1519.62,1225.5 1520.07,1227.12 1520.53,1228.72 1520.98,1230.3 1521.44,1231.86 1521.9,1233.4 1522.35,1234.93 1522.81,1236.43 1523.26,1237.93 1523.72,1239.4 1524.18,1240.86 1524.63,1242.31 1525.09,1243.74 1525.54,1245.15 1526,1246.55 1526.46,1247.94 1526.91,1249.32 1527.37,1250.68 1527.82,1252.02 1528.28,1253.36 1528.73,1254.68 1529.19,1255.99 1529.65,1257.29 1530.1,1258.58 1530.56,1259.85 1531.01,1261.12 1531.47,1262.37 1531.93,1263.62 1532.38,1264.85 1532.84,1266.07 1533.29,1267.29 1533.75,1268.49 1534.21,1269.69 1534.66,1270.87 1535.12,1272.05 1535.57,1273.22 1536.03,1274.37 1536.48,1275.52 1536.94,1276.67 1537.4,1277.8 1537.85,1278.93 1538.31,1280.04 1538.76,1281.15 1539.22,1282.26 1539.68,1283.35 1540.13,1284.44 1540.59,1285.52 1541.04,1286.59 1541.5,1287.66 1541.95,1288.71 1542.41,1289.77 1542.87,1290.81 1543.32,1291.85 1543.78,1292.88 1544.23,1293.91 1544.69,1294.93 1545.15,1295.94 1545.6,1296.95 1546.06,1297.95 1546.51,1298.95 1546.97,1299.94 1547.43,1300.92 1547.88,1301.9 1548.34,1302.88 1548.79,1303.84 1549.25,1304.81 1549.7,1305.76 1550.16,1306.71 1550.62,1307.66 1551.07,1308.6 1551.53,1309.54 1551.98,1310.47 1552.44,1311.4 1552.9,1312.32 1553.35,1313.23 1553.81,1314.14 1554.26,1315.05 1554.72,1315.95 1555.18,1316.85 1555.63,1317.74 1556.09,1318.63 1556.54,1319.51 1557,1320.39 1557.45,1321.26 1557.91,1322.13 1558.37,1323 1558.82,1323.86 1559.28,1324.71 1559.73,1325.56 1560.19,1326.41 1560.65,1327.25 1561.1,1328.09 1561.56,1328.92 1562.01,1329.75 1562.47,1330.58 1562.92,1331.4 1563.38,1332.21 1563.84,1333.02 1564.29,1333.83 1564.75,1334.63 1565.2,1335.43 1565.66,1336.22 1566.12,1337.01 1566.57,1337.8 1567.03,1338.58 1567.48,1339.36 1567.94,1340.13 1568.4,1340.9 1568.85,1341.66 1569.31,1342.42 1569.76,1343.18 1570.22,1343.93 1570.67,1344.68 1571.13,1345.42 1571.59,1346.16 1572.04,1346.9 1572.5,1347.63 1572.95,1348.35 1573.41,1349.07 1573.87,1349.79 1574.32,1350.5 1574.78,1351.21 1575.23,1351.92 1575.69,1352.62 1576.14,1353.32 1576.6,1354.01 1577.06,1354.7 1577.51,1355.38 1577.97,1356.06 1578.42,1356.74 1578.88,1357.41 1579.34,1358.07 1579.79,1358.74 1580.25,1359.4 1580.7,1360.05 1581.16,1360.7 1581.62,1361.35 1582.07,1361.99 1582.53,1362.63 1582.98,1363.26 1583.44,1363.89 1583.89,1364.51 1584.35,1365.13 1584.81,1365.75 1585.26,1366.36 1585.72,1366.97 1586.17,1367.57 1586.63,1368.17 1587.09,1368.77 1587.54,1369.36 1588,1369.95 1588.45,1370.53 1588.91,1371.11 1589.37,1371.68 1589.82,1372.25 1590.28,1372.82 1590.73,1373.38 1591.19,1373.94 1591.64,1374.49 1592.1,1375.04 1592.56,1375.58 1593.01,1376.13 1593.47,1376.66 1593.92,1377.19 1594.38,1377.72 1594.84,1378.25 1595.29,1378.77 1595.75,1379.28 1596.2,1379.8 1596.66,1380.3 1597.11,1380.81 1597.57,1381.31 1598.03,1381.8 1598.48,1382.29 1598.94,1382.78 1599.39,1383.26 1599.85,1383.74 1600.31,1384.22 1600.76,1384.69 1601.22,1385.16 1601.67,1385.62 1602.13,1386.08 1602.59,1386.53 1603.04,1386.98 1603.5,1387.43 1603.95,1387.88 1604.41,1388.31 1604.86,1388.75 1605.32,1389.18 1605.78,1389.61 1606.23,1390.04 1606.69,1390.46 1607.14,1390.87 1607.6,1391.29 1608.06,1391.7 1608.51,1392.1 1608.97,1392.5 1609.42,1392.9 1609.88,1393.3 1610.33,1393.69 1610.79,1394.08 1611.25,1394.46 1611.7,1394.84 1612.16,1395.22 1612.61,1395.6 1613.07,1395.97 1613.53,1396.33 1613.98,1396.7 1614.44,1397.06 1614.89,1397.42 1615.35,1397.77 1615.81,1398.13 1616.26,1398.47 1616.72,1398.82 1617.17,1399.16 1617.63,1399.5 1618.08,1399.84 1618.54,1400.17 1619,1400.51 1619.45,1400.83 1619.91,1401.16 1620.36,1401.48 1620.82,1401.8 1621.28,1402.12 1621.73,1402.44 1622.19,1402.75 1622.64,1403.06 1623.1,1403.37 1623.56,1403.67 1624.01,1403.98 1624.47,1404.28 1624.92,1404.57 1625.38,1404.87 1625.83,1405.16 1626.29,1405.45 1626.75,1405.74 1627.2,1406.03 1627.66,1406.32 1628.11,1406.6 1628.57,1406.88 1629.03,1407.16 1629.48,1407.43 1629.94,1407.71 1630.39,1407.98 1630.85,1408.25 1631.3,1408.52 1631.76,1408.79 1632.22,1409.05 1632.67,1409.32 1633.13,1409.58 1633.58,1409.84 1634.04,1410.09 1634.5,1410.35 1634.95,1410.6 1635.41,1410.86 1635.86,1411.11 1636.32,1411.36 1636.78,1411.6 1637.23,1411.85 1637.69,1412.1 1638.14,1412.34 1638.6,1412.58 1639.05,1412.82 1639.51,1413.06 1639.97,1413.29 1640.42,1413.53 1640.88,1413.76 1641.33,1413.99 1641.79,1414.22 1642.25,1414.45 1642.7,1414.68 1643.16,1414.91 1643.61,1415.13 1644.07,1415.35 1644.53,1415.57 1644.98,1415.79 1645.44,1416.01 1645.89,1416.23 1646.35,1416.45 1646.8,1416.66 1647.26,1416.87 1647.72,1417.09 1648.17,1417.3 1648.63,1417.51 1649.08,1417.71 1649.54,1417.92 1650,1418.13 1650.45,1418.33 1650.91,1418.53 1651.36,1418.73 1651.82,1418.93 1652.27,1419.13 1652.73,1419.33 1653.19,1419.53 1653.64,1419.72 1654.1,1419.92 1654.55,1420.11 1655.01,1420.3 1655.47,1420.49 1655.92,1420.68 1656.38,1420.87 1656.83,1421.05 1657.29,1421.24 1657.75,1421.42 1658.2,1421.61 1658.66,1421.79 1659.11,1421.97 1659.57,1422.15 1660.02,1422.33 1660.48,1422.5 1660.94,1422.68 1661.39,1422.86 1661.85,1423.03 1662.3,1423.2 1662.76,1423.37 1663.22,1423.54 1663.67,1423.71 1664.13,1423.88 1664.58,1424.05 1665.04,1424.22 1665.49,1424.38 1665.95,1424.54 1666.41,1424.71 1666.86,1424.87 1667.32,1425.03 1667.77,1425.19 1668.23,1425.35 1668.69,1425.51 1669.14,1425.66 1669.6,1425.82 1670.05,1425.97 1670.51,1426.13 1670.97,1426.28 1671.42,1426.43 1671.88,1426.58 1672.33,1426.73 1672.79,1426.88 1673.24,1427.03 1673.7,1427.17 1674.16,1427.32 1674.61,1427.46 1675.07,1427.61 1675.52,1427.75 1675.98,1427.89 1676.44,1428.03 1676.89,1428.17 1677.35,1428.31 1677.8,1428.45 1678.26,1428.58 1678.72,1428.72 1679.17,1428.85 1679.63,1428.99 1680.08,1429.12 1680.54,1429.25 1680.99,1429.39 1681.45,1429.52 1681.91,1429.65 1682.36,1429.77 1682.82,1429.9 1683.27,1430.03 1683.73,1430.15 1684.19,1430.28 1684.64,1430.4 1685.1,1430.53 1685.55,1430.65 1686.01,1430.77 1686.46,1430.89 1686.92,1431.01 1687.38,1431.13 1687.83,1431.25 1688.29,1431.37 1688.74,1431.48 1689.2,1431.6 1689.66,1431.71 1690.11,1431.83 1690.57,1431.94 1691.02,1432.06 1691.48,1432.17 1691.94,1432.28 1692.39,1432.39 1692.85,1432.5 1693.3,1432.61 1693.76,1432.71 1694.21,1432.82 1694.67,1432.93 1695.13,1433.03 1695.58,1433.14 1696.04,1433.24 1696.49,1433.34 1696.95,1433.45 1697.41,1433.55 1697.86,1433.65 1698.32,1433.75 1698.77,1433.85 1699.23,1433.95 1699.68,1434.05 1700.14,1434.14 1700.6,1434.24 1701.05,1434.34 1701.51,1434.43 1701.96,1434.53 1702.42,1434.62 1702.88,1434.71 1703.33,1434.8 1703.79,1434.9 1704.24,1434.99 1704.7,1435.08 1705.16,1435.17 1705.61,1435.26 1706.07,1435.34 1706.52,1435.43 1706.98,1435.52 1707.43,1435.61 1707.89,1435.69 1708.35,1435.78 1708.8,1435.86 1709.26,1435.94 1709.71,1436.03 1710.17,1436.11 1710.63,1436.19 1711.08,1436.27 1711.54,1436.35 1711.99,1436.43 1712.45,1436.51 1712.91,1436.59 1713.36,1436.67 1713.82,1436.75 1714.27,1436.82 1714.73,1436.9 1715.18,1436.98 1715.64,1437.05 1716.1,1437.13 1716.55,1437.2 1717.01,1437.27 1717.46,1437.35 1717.92,1437.42 1718.38,1437.49 1718.83,1437.56 1719.29,1437.63 1719.74,1437.7 1720.2,1437.77 1720.65,1437.84 1721.11,1437.91 1721.57,1437.98 1722.02,1438.04 1722.48,1438.11 1722.93,1438.18 1723.39,1438.24 1723.85,1438.31 1724.3,1438.37 1724.76,1438.44 1725.21,1438.5 1725.67,1438.56 1726.13,1438.63 1726.58,1438.69 1727.04,1438.75 1727.49,1438.81 1727.95,1438.87 1728.4,1438.93 1728.86,1438.99 1729.32,1439.05 1729.77,1439.11 1730.23,1439.17 1730.68,1439.22 1731.14,1439.28 1731.6,1439.34 1732.05,1439.4 1732.51,1439.45 1732.96,1439.51 1733.42,1439.56 1733.87,1439.62 1734.33,1439.67 1734.79,1439.72 1735.24,1439.78 1735.7,1439.83 1736.15,1439.88 1736.61,1439.93 1737.07,1439.99 1737.52,1440.04 1737.98,1440.09 1738.43,1440.14 1738.89,1440.19 1739.35,1440.24 1739.8,1440.29 1740.26,1440.33 1740.71,1440.38 1741.17,1440.43 1741.62,1440.48 1742.08,1440.52 1742.54,1440.57 1742.99,1440.62 1743.45,1440.66 1743.9,1440.71 1744.36,1440.75 1744.82,1440.8 1745.27,1440.84 1745.73,1440.89 1746.18,1440.93 1746.64,1440.97 1747.1,1441.02 1747.55,1441.06 1748.01,1441.1 1748.46,1441.14 1748.92,1441.18 1749.37,1441.22 1749.83,1441.26 1750.29,1441.3 1750.74,1441.34 1751.2,1441.38 1751.65,1441.42 1752.11,1441.46 1752.57,1441.5 1753.02,1441.54 1753.48,1441.58 1753.93,1441.61 1754.39,1441.65 1754.84,1441.69 1755.3,1441.73 1755.76,1441.76 1756.21,1441.8 1756.67,1441.83 1757.12,1441.87 1757.58,1441.9 1758.04,1441.94 1758.49,1441.97 1758.95,1442.01 1759.4,1442.04 1759.86,1442.08 1760.32,1442.11 1760.77,1442.14 1761.23,1442.17 1761.68,1442.21 1762.14,1442.24 1762.59,1442.27 1763.05,1442.3 1763.51,1442.33 1763.96,1442.37 1764.42,1442.4 1764.87,1442.43 1765.33,1442.46 1765.79,1442.49 1766.24,1442.52 1766.7,1442.55 1767.15,1442.57 1767.61,1442.6 1768.07,1442.63 1768.52,1442.66 1768.98,1442.69 1769.43,1442.72 1769.89,1442.74 1770.34,1442.77 1770.8,1442.8 1771.26,1442.83 1771.71,1442.85 1772.17,1442.88 1772.62,1442.91 1773.08,1442.93 1773.54,1442.96 1773.99,1442.98 1774.45,1443.01 1774.9,1443.03 1775.36,1443.06 1775.81,1443.08 1776.27,1443.11 1776.73,1443.13 1777.18,1443.16 1777.64,1443.18 1778.09,1443.2 1778.55,1443.23 1779.01,1443.25 1779.46,1443.27 1779.92,1443.3 1780.37,1443.32 1780.83,1443.34 1781.29,1443.36 1781.74,1443.38 1782.2,1443.41 1782.65,1443.43 1783.11,1443.45 1783.56,1443.47 1784.02,1443.49 1784.48,1443.51 1784.93,1443.53 1785.39,1443.55 1785.84,1443.57 1786.3,1443.59 1786.76,1443.61 1787.21,1443.63 1787.67,1443.65 1788.12,1443.67 1788.58,1443.69 1789.03,1443.71 1789.49,1443.73 1789.95,1443.75 1790.4,1443.76 1790.86,1443.78 1791.31,1443.8 1791.77,1443.82 1792.23,1443.84 1792.68,1443.85 1793.14,1443.87 1793.59,1443.89 1794.05,1443.91 1794.51,1443.92 1794.96,1443.94 1795.42,1443.96 1795.87,1443.97 1796.33,1443.99 1796.78,1444.01 1797.24,1444.02 1797.7,1444.04 1798.15,1444.05 1798.61,1444.07 1799.06,1444.08 1799.52,1444.1 1799.98,1444.11 1800.43,1444.13 1800.89,1444.14 1801.34,1444.16 1801.8,1444.17 1802.26,1444.19 1802.71,1444.2 1803.17,1444.22 1803.62,1444.23 1804.08,1444.25 1804.53,1444.26 1804.99,1444.27 1805.45,1444.29 1805.9,1444.3 1806.36,1444.31 1806.81,1444.33 1807.27,1444.34 1807.73,1444.35 1808.18,1444.37 1808.64,1444.38 1809.09,1444.39 1809.55,1444.4 1810,1444.42 1810.46,1444.43 1810.92,1444.44 1811.37,1444.45 1811.83,1444.46 1812.28,1444.48 1812.74,1444.49 1813.2,1444.5 1813.65,1444.51 1814.11,1444.52 1814.56,1444.53 1815.02,1444.54 1815.48,1444.56 1815.93,1444.57 1816.39,1444.58 1816.84,1444.59 1817.3,1444.6 1817.75,1444.61 1818.21,1444.62 1818.67,1444.63 1819.12,1444.64 1819.58,1444.65 1820.03,1444.66 1820.49,1444.67 1820.95,1444.68 1821.4,1444.69 1821.86,1444.7 1822.31,1444.71 1822.77,1444.72 1823.22,1444.73 1823.68,1444.74 1824.14,1444.75 1824.59,1444.76 1825.05,1444.76 1825.5,1444.77 1825.96,1444.78 1826.42,1444.79 1826.87,1444.8 1827.33,1444.81 1827.78,1444.82 1828.24,1444.83 1828.7,1444.83 1829.15,1444.84 1829.61,1444.85 1830.06,1444.86 1830.52,1444.87 1830.97,1444.88 1831.43,1444.88 1831.89,1444.89 1832.34,1444.9 1832.8,1444.91 1833.25,1444.91 1833.71,1444.92 1834.17,1444.93 1834.62,1444.94 1835.08,1444.94 1835.53,1444.95 1835.99,1444.96 1836.45,1444.97 1836.9,1444.97 1837.36,1444.98 1837.81,1444.99 1838.27,1444.99 1838.72,1445 1839.18,1445.01 1839.64,1445.01 1840.09,1445.02 1840.55,1445.03 1841,1445.03 1841.46,1445.04 1841.92,1445.05 1842.37,1445.05 1842.83,1445.06 1843.28,1445.06 1843.74,1445.07 1844.19,1445.08 1844.65,1445.08 1845.11,1445.09 1845.56,1445.09 1846.02,1445.1 1846.47,1445.11 1846.93,1445.11 1847.39,1445.12 1847.84,1445.12 1848.3,1445.13 1848.75,1445.13 1849.21,1445.14 1849.67,1445.15 1850.12,1445.15 1850.58,1445.16 1851.03,1445.16 1851.49,1445.17 1851.94,1445.17 1852.4,1445.18 1852.86,1445.18 1853.31,1445.19 1853.77,1445.19 1854.22,1445.2 1854.68,1445.2 1855.14,1445.21 1855.59,1445.21 1856.05,1445.22 1856.5,1445.22 1856.96,1445.23 1857.42,1445.23 1857.87,1445.23 1858.33,1445.24 1858.78,1445.24 1859.24,1445.25 1859.69,1445.25 1860.15,1445.26 1860.61,1445.26 1861.06,1445.27 1861.52,1445.27 1861.97,1445.27 1862.43,1445.28 1862.89,1445.28 1863.34,1445.29 1863.8,1445.29 1864.25,1445.29 1864.71,1445.3 1865.16,1445.3 1865.62,1445.31 1866.08,1445.31 1866.53,1445.31 1866.99,1445.32 1867.44,1445.32 1867.9,1445.32 1868.36,1445.33 1868.81,1445.33 1869.27,1445.34 1869.72,1445.34 1870.18,1445.34 1870.64,1445.35 1871.09,1445.35 1871.55,1445.35 1872,1445.36 1872.46,1445.36 1872.91,1445.36 1873.37,1445.37 1873.83,1445.37 1874.28,1445.37 1874.74,1445.38 1875.19,1445.38 1875.65,1445.38 1876.11,1445.39 1876.56,1445.39 1877.02,1445.39 1877.47,1445.39 1877.93,1445.4 1878.38,1445.4 1878.84,1445.4 1879.3,1445.41 1879.75,1445.41 1880.21,1445.41 1880.66,1445.42 1881.12,1445.42 1881.58,1445.42 1882.03,1445.42 1882.49,1445.43 1882.94,1445.43 1883.4,1445.43 1883.86,1445.43 1884.31,1445.44 1884.77,1445.44 1885.22,1445.44 1885.68,1445.44 1886.13,1445.45 1886.59,1445.45 1887.05,1445.45 1887.5,1445.45 1887.96,1445.46 1888.41,1445.46 1888.87,1445.46 1889.33,1445.46 1889.78,1445.47 1890.24,1445.47 1890.69,1445.47 1891.15,1445.47 1891.61,1445.48 1892.06,1445.48 1892.52,1445.48 1892.97,1445.48 1893.43,1445.48 1893.88,1445.49 1894.34,1445.49 1894.8,1445.49 1895.25,1445.49 1895.71,1445.49 1896.16,1445.5 1896.62,1445.5 1897.08,1445.5 1897.53,1445.5 1897.99,1445.5 1898.44,1445.51 1898.9,1445.51 1899.35,1445.51 1899.81,1445.51 1900.27,1445.51 1900.72,1445.52 1901.18,1445.52 1901.63,1445.52 1902.09,1445.52 1902.55,1445.52 1903,1445.53 1903.46,1445.53 1903.91,1445.53 1904.37,1445.53 1904.83,1445.53 1905.28,1445.53 1905.74,1445.54 1906.19,1445.54 1906.65,1445.54 1907.1,1445.54 1907.56,1445.54 1908.02,1445.54 1908.47,1445.55 1908.93,1445.55 1909.38,1445.55 1909.84,1445.55 1910.3,1445.55 1910.75,1445.55 1911.21,1445.55 1911.66,1445.56 1912.12,1445.56 1912.57,1445.56 1913.03,1445.56 1913.49,1445.56 1913.94,1445.56 1914.4,1445.56 1914.85,1445.57 1915.31,1445.57 1915.77,1445.57 1916.22,1445.57 1916.68,1445.57 1917.13,1445.57 1917.59,1445.57 1918.05,1445.58 1918.5,1445.58 1918.96,1445.58 1919.41,1445.58 1919.87,1445.58 1920.32,1445.58 1920.78,1445.58 1921.24,1445.58 1921.69,1445.59 1922.15,1445.59 1922.6,1445.59 1923.06,1445.59 1923.52,1445.59 1923.97,1445.59 1924.43,1445.59 1924.88,1445.59 1925.34,1445.59 1925.8,1445.6 1926.25,1445.6 1926.71,1445.6 1927.16,1445.6 1927.62,1445.6 1928.07,1445.6 1928.53,1445.6 1928.99,1445.6 1929.44,1445.6 1929.9,1445.61 1930.35,1445.61 1930.81,1445.61 1931.27,1445.61 1931.72,1445.61 1932.18,1445.61 1932.63,1445.61 1933.09,1445.61 1933.54,1445.61 1934,1445.61 1934.46,1445.61 1934.91,1445.62 1935.37,1445.62 1935.82,1445.62 1936.28,1445.62 1936.74,1445.62 1937.19,1445.62 1937.65,1445.62 1938.1,1445.62 1938.56,1445.62 1939.02,1445.62 1939.47,1445.62 1939.93,1445.63 1940.38,1445.63 1940.84,1445.63 1941.29,1445.63 1941.75,1445.63 1942.21,1445.63 1942.66,1445.63 1943.12,1445.63 1943.57,1445.63 1944.03,1445.63 1944.49,1445.63 1944.94,1445.63 1945.4,1445.63 1945.85,1445.64 1946.31,1445.64 1946.77,1445.64 1947.22,1445.64 1947.68,1445.64 1948.13,1445.64 1948.59,1445.64 1949.04,1445.64 1949.5,1445.64 1949.96,1445.64 1950.41,1445.64 1950.87,1445.64 1951.32,1445.64 1951.78,1445.64 1952.24,1445.64 1952.69,1445.65 1953.15,1445.65 1953.6,1445.65 1954.06,1445.65 1954.51,1445.65 1954.97,1445.65 1955.43,1445.65 1955.88,1445.65 1956.34,1445.65 1956.79,1445.65 1957.25,1445.65 1957.71,1445.65 1958.16,1445.65 1958.62,1445.65 1959.07,1445.65 1959.53,1445.65 1959.99,1445.66 1960.44,1445.66 1960.9,1445.66 1961.35,1445.66 1961.81,1445.66 1962.26,1445.66 1962.72,1445.66 1963.18,1445.66 1963.63,1445.66 1964.09,1445.66 1964.54,1445.66 1965,1445.66 1965.46,1445.66 1965.91,1445.66 1966.37,1445.66 1966.82,1445.66 1967.28,1445.66 1967.73,1445.66 1968.19,1445.66 1968.65,1445.66 1969.1,1445.67 1969.56,1445.67 1970.01,1445.67 1970.47,1445.67 1970.93,1445.67 1971.38,1445.67 1971.84,1445.67 1972.29,1445.67 1972.75,1445.67 1973.21,1445.67 1973.66,1445.67 1974.12,1445.67 1974.57,1445.67 1975.03,1445.67 1975.48,1445.67 1975.94,1445.67 1976.4,1445.67 1976.85,1445.67 1977.31,1445.67 1977.76,1445.67 1978.22,1445.67 1978.68,1445.67 1979.13,1445.67 1979.59,1445.67 1980.04,1445.67 1980.5,1445.68 1980.96,1445.68 1981.41,1445.68 1981.87,1445.68 1982.32,1445.68 1982.78,1445.68 1983.23,1445.68 1983.69,1445.68 1984.15,1445.68 1984.6,1445.68 1985.06,1445.68 1985.51,1445.68 1985.97,1445.68 1986.43,1445.68 1986.88,1445.68 1987.34,1445.68 1987.79,1445.68 1988.25,1445.68 1988.7,1445.68 1989.16,1445.68 1989.62,1445.68 1990.07,1445.68 1990.53,1445.68 1990.98,1445.68 1991.44,1445.68 1991.9,1445.68 1992.35,1445.68 1992.81,1445.68 1993.26,1445.68 1993.72,1445.68 1994.18,1445.68 1994.63,1445.69 1995.09,1445.69 1995.54,1445.69 1996,1445.69 1996.45,1445.69 1996.91,1445.69 1997.37,1445.69 1997.82,1445.69 1998.28,1445.69 1998.73,1445.69 1999.19,1445.69 1999.65,1445.69 2000.1,1445.69 2000.56,1445.69 2001.01,1445.69 2001.47,1445.69 2001.92,1445.69 2002.38,1445.69 2002.84,1445.69 2003.29,1445.69 2003.75,1445.69 2004.2,1445.69 2004.66,1445.69 2005.12,1445.69 2005.57,1445.69 2006.03,1445.69 2006.48,1445.69 2006.94,1445.69 2007.4,1445.69 2007.85,1445.69 2008.31,1445.69 2008.76,1445.69 2009.22,1445.69 2009.67,1445.69 2010.13,1445.69 2010.59,1445.69 2011.04,1445.69 2011.5,1445.69 2011.95,1445.69 2012.41,1445.69 2012.87,1445.69 2013.32,1445.69 2013.78,1445.69 2014.23,1445.69 2014.69,1445.7 2015.15,1445.7 2015.6,1445.7 2016.06,1445.7 2016.51,1445.7 2016.97,1445.7 2017.42,1445.7 2017.88,1445.7 2018.34,1445.7 2018.79,1445.7 2019.25,1445.7 2019.7,1445.7 2020.16,1445.7 2020.62,1445.7 2021.07,1445.7 2021.53,1445.7 2021.98,1445.7 2022.44,1445.7 2022.89,1445.7 2023.35,1445.7 2023.81,1445.7 2024.26,1445.7 2024.72,1445.7 2025.17,1445.7 2025.63,1445.7 2026.09,1445.7 2026.54,1445.7 2027,1445.7 2027.45,1445.7 2027.91,1445.7 2028.37,1445.7 2028.82,1445.7 2029.28,1445.7 2029.73,1445.7 2030.19,1445.7 2030.64,1445.7 2031.1,1445.7 2031.56,1445.7 2032.01,1445.7 2032.47,1445.7 2032.92,1445.7 2033.38,1445.7 2033.84,1445.7 2034.29,1445.7 2034.75,1445.7 2035.2,1445.7 2035.66,1445.7 2036.12,1445.7 2036.57,1445.7 2037.03,1445.7 2037.48,1445.7 2037.94,1445.7 2038.39,1445.7 2038.85,1445.7 2039.31,1445.7 2039.76,1445.7 2040.22,1445.7 2040.67,1445.7 2041.13,1445.7 2041.59,1445.7 2042.04,1445.7 2042.5,1445.7 2042.95,1445.7 2043.41,1445.7 2043.86,1445.7 2044.32,1445.7 2044.78,1445.7 2045.23,1445.7 2045.69,1445.7 2046.14,1445.7 2046.6,1445.7 2047.06,1445.7 2047.51,1445.7 2047.97,1445.7 2048.42,1445.71 2048.88,1445.71 2049.34,1445.71 2049.79,1445.71 2050.25,1445.71 2050.7,1445.71 2051.16,1445.71 2051.61,1445.71 2052.07,1445.71 2052.53,1445.71 2052.98,1445.71 2053.44,1445.71 2053.89,1445.71 2054.35,1445.71 2054.81,1445.71 2055.26,1445.71 2055.72,1445.71 2056.17,1445.71 2056.63,1445.71 2057.08,1445.71 2057.54,1445.71 2058,1445.71 2058.45,1445.71 2058.91,1445.71 2059.36,1445.71 2059.82,1445.71 2060.28,1445.71 2060.73,1445.71 2061.19,1445.71 2061.64,1445.71 2062.1,1445.71 2062.56,1445.71 2063.01,1445.71 2063.47,1445.71 2063.92,1445.71 2064.38,1445.71 2064.83,1445.71 2065.29,1445.71 2065.75,1445.71 2066.2,1445.71 2066.66,1445.71 2067.11,1445.71 2067.57,1445.71 2068.03,1445.71 2068.48,1445.71 2068.94,1445.71 2069.39,1445.71 2069.85,1445.71 2070.31,1445.71 2070.76,1445.71 2071.22,1445.71 2071.67,1445.71 2072.13,1445.71 2072.58,1445.71 2073.04,1445.71 2073.5,1445.71 2073.95,1445.71 2074.41,1445.71 2074.86,1445.71 2075.32,1445.71 2075.78,1445.71 2076.23,1445.71 2076.69,1445.71 2077.14,1445.71 2077.6,1445.71 2078.05,1445.71 2078.51,1445.71 2078.97,1445.71 2079.42,1445.71 2079.88,1445.71 2080.33,1445.71 2080.79,1445.71 2081.25,1445.71 2081.7,1445.71 2082.16,1445.71 2082.61,1445.71 2083.07,1445.71 2083.53,1445.71 2083.98,1445.71 2084.44,1445.71 2084.89,1445.71 2085.35,1445.71 2085.8,1445.71 2086.26,1445.71 2086.72,1445.71 2087.17,1445.71 2087.63,1445.71 2088.08,1445.71 2088.54,1445.71 2089,1445.71 2089.45,1445.71 2089.91,1445.71 2090.36,1445.71 2090.82,1445.71 2091.27,1445.71 2091.73,1445.71 2092.19,1445.71 2092.64,1445.71 2093.1,1445.71 2093.55,1445.71 2094.01,1445.71 2094.47,1445.71 2094.92,1445.71 2095.38,1445.71 2095.83,1445.71 2096.29,1445.71 2096.75,1445.71 2097.2,1445.71 2097.66,1445.71 2098.11,1445.71 2098.57,1445.71 2099.02,1445.71 2099.48,1445.71 2099.94,1445.71 2100.39,1445.71 2100.85,1445.71 2101.3,1445.71 2101.76,1445.71 2102.22,1445.71 2102.67,1445.71 2103.13,1445.71 2103.58,1445.71 2104.04,1445.71 2104.5,1445.71 2104.95,1445.71 2105.41,1445.71 2105.86,1445.71 2106.32,1445.71 2106.77,1445.71 2107.23,1445.71 2107.69,1445.71 2108.14,1445.71 2108.6,1445.71 2109.05,1445.71 2109.51,1445.71 2109.97,1445.71 2110.42,1445.71 2110.88,1445.71 2111.33,1445.71 2111.79,1445.71 2112.24,1445.71 2112.7,1445.71 2113.16,1445.71 2113.61,1445.71 2114.07,1445.71 2114.52,1445.71 2114.98,1445.71 2115.44,1445.71 2115.89,1445.71 2116.35,1445.71 2116.8,1445.71 2117.26,1445.71 2117.72,1445.71 2118.17,1445.71 2118.63,1445.71 2119.08,1445.71 2119.54,1445.71 2119.99,1445.71 2120.45,1445.71 2120.91,1445.71 2121.36,1445.71 2121.82,1445.71 2122.27,1445.71 2122.73,1445.71 2123.19,1445.71 2123.64,1445.71 2124.1,1445.71 2124.55,1445.71 2125.01,1445.71 2125.47,1445.71 2125.92,1445.71 2126.38,1445.71 2126.83,1445.71 2127.29,1445.71 2127.74,1445.71 2128.2,1445.71 2128.66,1445.71 2129.11,1445.71 2129.57,1445.71 2130.02,1445.71 2130.48,1445.71 2130.94,1445.71 2131.39,1445.71 2131.85,1445.71 2132.3,1445.71 2132.76,1445.71 2133.21,1445.71 2133.67,1445.71 2134.13,1445.71 2134.58,1445.71 2135.04,1445.71 2135.49,1445.71 2135.95,1445.71 2136.41,1445.71 2136.86,1445.71 2137.32,1445.71 2137.77,1445.71 2138.23,1445.71 2138.69,1445.71 2139.14,1445.71 2139.6,1445.71 2140.05,1445.71 2140.51,1445.71 2140.96,1445.71 2141.42,1445.71 2141.88,1445.71 2142.33,1445.71 2142.79,1445.71 2143.24,1445.71 2143.7,1445.71 2144.16,1445.71 2144.61,1445.71 2145.07,1445.71 2145.52,1445.71 2145.98,1445.71 2146.43,1445.71 2146.89,1445.71 2147.35,1445.71 2147.8,1445.71 2148.26,1445.71 2148.71,1445.71 2149.17,1445.71 2149.63,1445.71 2150.08,1445.71 2150.54,1445.71 2150.99,1445.71 2151.45,1445.71 2151.91,1445.71 2152.36,1445.71 2152.82,1445.71 2153.27,1445.71 2153.73,1445.71 2154.18,1445.71 2154.64,1445.71 2155.1,1445.71 2155.55,1445.71 2156.01,1445.71 2156.46,1445.71 2156.92,1445.71 2157.38,1445.71 2157.83,1445.71 2158.29,1445.71 2158.74,1445.71 2159.2,1445.71 2159.66,1445.71 2160.11,1445.71 2160.57,1445.71 2161.02,1445.71 2161.48,1445.71 2161.93,1445.71 2162.39,1445.71 2162.85,1445.71 2163.3,1445.71 2163.76,1445.71 2164.21,1445.71 2164.67,1445.71 2165.13,1445.71 2165.58,1445.71 2166.04,1445.71 2166.49,1445.71 2166.95,1445.71 2167.4,1445.71 2167.86,1445.71 2168.32,1445.71 2168.77,1445.71 2169.23,1445.71 2169.68,1445.71 2170.14,1445.71 2170.6,1445.71 2171.05,1445.71 2171.51,1445.71 2171.96,1445.71 2172.42,1445.71 2172.88,1445.71 2173.33,1445.71 2173.79,1445.71 2174.24,1445.71 2174.7,1445.71 2175.15,1445.71 2175.61,1445.71 2176.07,1445.71 2176.52,1445.71 2176.98,1445.71 2177.43,1445.71 2177.89,1445.71 2178.35,1445.71 2178.8,1445.71 2179.26,1445.71 2179.71,1445.71 2180.17,1445.71 2180.62,1445.71 2181.08,1445.71 2181.54,1445.71 2181.99,1445.71 2182.45,1445.71 2182.9,1445.71 2183.36,1445.71 2183.82,1445.71 2184.27,1445.71 2184.73,1445.71 2185.18,1445.71 2185.64,1445.71 2186.1,1445.72 2186.55,1445.72 2187.01,1445.72 2187.46,1445.72 2187.92,1445.72 2188.37,1445.72 2188.83,1445.72 2189.29,1445.72 2189.74,1445.72 2190.2,1445.72 2190.65,1445.72 2191.11,1445.72 2191.57,1445.72 2192.02,1445.72 2192.48,1445.72 2192.93,1445.72 2193.39,1445.72 2193.85,1445.72 2194.3,1445.72 2194.76,1445.72 2195.21,1445.72 2195.67,1445.72 2196.12,1445.72 2196.58,1445.72 2197.04,1445.72 2197.49,1445.72 2197.95,1445.72 2198.4,1445.72 2198.86,1445.72 2199.32,1445.72 2199.77,1445.72 2200.23,1445.72 2200.68,1445.72 2201.14,1445.72 2201.59,1445.72 2202.05,1445.72 2202.51,1445.72 2202.96,1445.72 2203.42,1445.72 2203.87,1445.72 2204.33,1445.72 2204.79,1445.72 2205.24,1445.72 2205.7,1445.72 2206.15,1445.72 2206.61,1445.72 2207.07,1445.72 2207.52,1445.72 2207.98,1445.72 2208.43,1445.72 2208.89,1445.72 2209.34,1445.72 2209.8,1445.72 2210.26,1445.72 2210.71,1445.72 2211.17,1445.72 2211.62,1445.72 2212.08,1445.72 2212.54,1445.72 2212.99,1445.72 2213.45,1445.72 2213.9,1445.72 2214.36,1445.72 2214.82,1445.72 2215.27,1445.72 2215.73,1445.72 2216.18,1445.72 2216.64,1445.72 2217.09,1445.72 2217.55,1445.72 2218.01,1445.72 2218.46,1445.72 2218.92,1445.72 2219.37,1445.72 2219.83,1445.72 2220.29,1445.72 2220.74,1445.72 2221.2,1445.72 2221.65,1445.72 2222.11,1445.72 2222.56,1445.72 2223.02,1445.72 2223.48,1445.72 2223.93,1445.72 2224.39,1445.72 2224.84,1445.72 2225.3,1445.72 2225.76,1445.72 2226.21,1445.72 2226.67,1445.72 2227.12,1445.72 2227.58,1445.72 2228.04,1445.72 2228.49,1445.72 2228.95,1445.72 2229.4,1445.72 2229.86,1445.72 2230.31,1445.72 2230.77,1445.72 2231.23,1445.72 2231.68,1445.72 2232.14,1445.72 2232.59,1445.72 2233.05,1445.72 2233.51,1445.72 2233.96,1445.72 2234.42,1445.72 2234.87,1445.72 2235.33,1445.72 2235.78,1445.72 2236.24,1445.72 2236.7,1445.72 2237.15,1445.72 2237.61,1445.72 2238.06,1445.72 2238.52,1445.72 2238.98,1445.72 2239.43,1445.72 2239.89,1445.72 2240.34,1445.72 2240.8,1445.72 2241.26,1445.72 2241.71,1445.72 2242.17,1445.72 2242.62,1445.72 2243.08,1445.72 2243.53,1445.72 2243.99,1445.72 2244.45,1445.72 2244.9,1445.72 2245.36,1445.72 2245.81,1445.72 2246.27,1445.72 2246.73,1445.72 2247.18,1445.72 2247.64,1445.72 2248.09,1445.72 2248.55,1445.72 2249.01,1445.72 2249.46,1445.72 2249.92,1445.72 2250.37,1445.72 2250.83,1445.72 2251.28,1445.72 2251.74,1445.72 2252.2,1445.72 2252.65,1445.72 2253.11,1445.72 2253.56,1445.72 2254.02,1445.72 2254.48,1445.72 2254.93,1445.72 2255.39,1445.72 2255.84,1445.72 2256.3,1445.72 2256.75,1445.72 2257.21,1445.72 2257.67,1445.72 2258.12,1445.72 2258.58,1445.72 2259.03,1445.72 2259.49,1445.72 2259.95,1445.72 2260.4,1445.72 2260.86,1445.72 2261.31,1445.72 2261.77,1445.72 2262.23,1445.72 2262.68,1445.72 2263.14,1445.72 2263.59,1445.72 2264.05,1445.72 2264.5,1445.72 2264.96,1445.72 2265.42,1445.72 2265.87,1445.72 2266.33,1445.72 2266.78,1445.72 2267.24,1445.72 2267.7,1445.72 2268.15,1445.72 2268.61,1445.72 2269.06,1445.72 2269.52,1445.72 2269.97,1445.72 2270.43,1445.72 2270.89,1445.72 2271.34,1445.72 2271.8,1445.72 2272.25,1445.72 2272.71,1445.72 2273.17,1445.72 2273.62,1445.72 2274.08,1445.72 2274.53,1445.72 2274.99,1445.72 2275.45,1445.72 2275.9,1445.72 2276.36,1445.72 2276.81,1445.72 2277.27,1445.72 2277.72,1445.72 2278.18,1445.72 2278.64,1445.72 2279.09,1445.72 2279.55,1445.72 2280,1445.72 2280.46,1445.72 2280.92,1445.72 2281.37,1445.72 2281.83,1445.72 2282.28,1445.72 2282.74,1445.72 2283.2,1445.72 2283.65,1445.72 2284.11,1445.72 2284.56,1445.72 2285.02,1445.72 2285.47,1445.72 2285.93,1445.72 2286.39,1445.72 2286.84,1445.72 2287.3,1445.72 2287.75,1445.72 2288.21,1445.72 2288.67,1445.72 2289.12,1445.72 2289.58,1445.72 2290.03,1445.72 2290.49,1445.72 2290.94,1445.72 2291.4,1445.72 2291.86,1445.72 2292.31,1445.72 2292.77,1445.72 2293.22,1445.72 2293.68,1445.72 2294.14,1445.72 2294.59,1445.72 2295.05,1445.72 2295.5,1445.72 2295.96,1445.72 2296.42,1445.72 2296.87,1445.72 2297.33,1445.72 2297.78,1445.72 2298.24,1445.72 2298.69,1445.72 2299.15,1445.72 2299.61,1445.72 2300.06,1445.72 2300.52,1445.72 2300.97,1445.72 2301.43,1445.72 2301.89,1445.72 2302.34,1445.72 2302.8,1445.72 2303.25,1445.72 2303.71,1445.72 2304.17,1445.72 2304.62,1445.72 2305.08,1445.72 2305.53,1445.72 2305.99,1445.72 2306.44,1445.72 2306.9,1445.72 2307.36,1445.72 2307.81,1445.72 2308.27,1445.72 2308.72,1445.72 2309.18,1445.72 2309.64,1445.72 2310.09,1445.72 2310.55,1445.72 2311,1445.72 2311.46,1445.72 2311.91,1445.72 2312.37,1445.72 2312.83,1445.72 2313.28,1445.72 2313.74,1445.72 2314.19,1445.72 2314.65,1445.72 2315.11,1445.72 2315.56,1445.72 2316.02,1445.72 2316.47,1445.72 2316.93,1445.72 2317.39,1445.72 2317.84,1445.72 2318.3,1445.72 2318.75,1445.72 2319.21,1445.72 2319.66,1445.72 2320.12,1445.72 2320.58,1445.72 2321.03,1445.72 2321.49,1445.72 2321.94,1445.72 2322.4,1445.72 2322.86,1445.72 2323.31,1445.72 2323.77,1445.72 2324.22,1445.72 2324.68,1445.72 2325.13,1445.72 2325.59,1445.72 2326.05,1445.72 "/>
<path clip-path="url(#clip900)" d="M2091.51 198.898 L2321.3 198.898 L2321.3 95.2176 L2091.51 95.2176  Z" fill="#ffffff" fill-rule="evenodd" fill-opacity="1"/>
<polyline clip-path="url(#clip900)" style="stroke:#000000; stroke-linecap:round; stroke-linejoin:round; stroke-width:4; stroke-opacity:1; fill:none" points="2091.51,198.898 2321.3,198.898 2321.3,95.2176 2091.51,95.2176 2091.51,198.898 "/>
<polyline clip-path="url(#clip900)" style="stroke:#009af9; stroke-linecap:round; stroke-linejoin:round; stroke-width:4; stroke-opacity:1; fill:none" points="2102,147.058 2164.91,147.058 "/>
<path clip-path="url(#clip900)" d="M2193.82 139.176 L2193.82 143.203 Q2192.02 142.277 2190.07 141.815 Q2188.13 141.352 2186.04 141.352 Q2182.87 141.352 2181.28 142.324 Q2179.7 143.296 2179.7 145.24 Q2179.7 146.722 2180.84 147.578 Q2181.97 148.412 2185.4 149.176 L2186.85 149.5 Q2191.39 150.472 2193.29 152.254 Q2195.21 154.014 2195.21 157.185 Q2195.21 160.796 2192.34 162.902 Q2189.49 165.009 2184.49 165.009 Q2182.41 165.009 2180.14 164.592 Q2177.9 164.199 2175.4 163.388 L2175.4 158.99 Q2177.76 160.217 2180.05 160.842 Q2182.34 161.444 2184.59 161.444 Q2187.6 161.444 2189.22 160.426 Q2190.84 159.384 2190.84 157.509 Q2190.84 155.773 2189.66 154.847 Q2188.5 153.921 2184.54 153.064 L2183.06 152.717 Q2179.1 151.884 2177.34 150.171 Q2175.58 148.435 2175.58 145.426 Q2175.58 141.768 2178.17 139.778 Q2180.77 137.787 2185.54 137.787 Q2187.9 137.787 2189.98 138.134 Q2192.06 138.481 2193.82 139.176 Z" fill="#000000" fill-rule="nonzero" fill-opacity="1" /><path clip-path="url(#clip900)" d="M2206.21 131.051 L2206.21 138.412 L2214.98 138.412 L2214.98 141.722 L2206.21 141.722 L2206.21 155.796 Q2206.21 158.967 2207.06 159.87 Q2207.94 160.773 2210.6 160.773 L2214.98 160.773 L2214.98 164.338 L2210.6 164.338 Q2205.67 164.338 2203.8 162.509 Q2201.92 160.657 2201.92 155.796 L2201.92 141.722 L2198.8 141.722 L2198.8 138.412 L2201.92 138.412 L2201.92 131.051 L2206.21 131.051 Z" fill="#000000" fill-rule="nonzero" fill-opacity="1" /><path clip-path="url(#clip900)" d="M2235.6 142.393 Q2234.89 141.977 2234.03 141.791 Q2233.2 141.583 2232.18 141.583 Q2228.57 141.583 2226.62 143.944 Q2224.7 146.282 2224.7 150.68 L2224.7 164.338 L2220.42 164.338 L2220.42 138.412 L2224.7 138.412 L2224.7 142.44 Q2226.04 140.078 2228.2 138.944 Q2230.35 137.787 2233.43 137.787 Q2233.87 137.787 2234.4 137.856 Q2234.93 137.903 2235.58 138.018 L2235.6 142.393 Z" fill="#000000" fill-rule="nonzero" fill-opacity="1" /><path clip-path="url(#clip900)" d="M2261.21 150.31 L2261.21 152.393 L2241.62 152.393 Q2241.9 156.791 2244.26 159.106 Q2246.65 161.398 2250.88 161.398 Q2253.34 161.398 2255.63 160.796 Q2257.94 160.194 2260.21 158.99 L2260.21 163.018 Q2257.92 163.99 2255.51 164.5 Q2253.1 165.009 2250.63 165.009 Q2244.42 165.009 2240.79 161.398 Q2237.18 157.787 2237.18 151.629 Q2237.18 145.264 2240.6 141.537 Q2244.05 137.787 2249.89 137.787 Q2255.12 137.787 2258.15 141.166 Q2261.21 144.523 2261.21 150.31 M2256.95 149.06 Q2256.9 145.565 2254.98 143.481 Q2253.08 141.398 2249.93 141.398 Q2246.37 141.398 2244.22 143.412 Q2242.09 145.426 2241.76 149.083 L2256.95 149.06 Z" fill="#000000" fill-rule="nonzero" fill-opacity="1" /><path clip-path="url(#clip900)" d="M2284.72 139.176 L2284.72 143.203 Q2282.92 142.277 2280.97 141.815 Q2279.03 141.352 2276.95 141.352 Q2273.78 141.352 2272.18 142.324 Q2270.6 143.296 2270.6 145.24 Q2270.6 146.722 2271.74 147.578 Q2272.87 148.412 2276.3 149.176 L2277.76 149.5 Q2282.29 150.472 2284.19 152.254 Q2286.11 154.014 2286.11 157.185 Q2286.11 160.796 2283.24 162.902 Q2280.4 165.009 2275.4 165.009 Q2273.31 165.009 2271.04 164.592 Q2268.8 164.199 2266.3 163.388 L2266.3 158.99 Q2268.66 160.217 2270.95 160.842 Q2273.24 161.444 2275.49 161.444 Q2278.5 161.444 2280.12 160.426 Q2281.74 159.384 2281.74 157.509 Q2281.74 155.773 2280.56 154.847 Q2279.4 153.921 2275.44 153.064 L2273.96 152.717 Q2270 151.884 2268.24 150.171 Q2266.48 148.435 2266.48 145.426 Q2266.48 141.768 2269.08 139.778 Q2271.67 137.787 2276.44 137.787 Q2278.8 137.787 2280.88 138.134 Q2282.97 138.481 2284.72 139.176 Z" fill="#000000" fill-rule="nonzero" fill-opacity="1" /><path clip-path="url(#clip900)" d="M2309.42 139.176 L2309.42 143.203 Q2307.62 142.277 2305.67 141.815 Q2303.73 141.352 2301.65 141.352 Q2298.47 141.352 2296.88 142.324 Q2295.3 143.296 2295.3 145.24 Q2295.3 146.722 2296.44 147.578 Q2297.57 148.412 2301 149.176 L2302.46 149.5 Q2306.99 150.472 2308.89 152.254 Q2310.81 154.014 2310.81 157.185 Q2310.81 160.796 2307.94 162.902 Q2305.09 165.009 2300.09 165.009 Q2298.01 165.009 2295.74 164.592 Q2293.5 164.199 2291 163.388 L2291 158.99 Q2293.36 160.217 2295.65 160.842 Q2297.94 161.444 2300.19 161.444 Q2303.2 161.444 2304.82 160.426 Q2306.44 159.384 2306.44 157.509 Q2306.44 155.773 2305.26 154.847 Q2304.1 153.921 2300.14 153.064 L2298.66 152.717 Q2294.7 151.884 2292.94 150.171 Q2291.18 148.435 2291.18 145.426 Q2291.18 141.768 2293.78 139.778 Q2296.37 137.787 2301.14 137.787 Q2303.5 137.787 2305.58 138.134 Q2307.66 138.481 2309.42 139.176 Z" fill="#000000" fill-rule="nonzero" fill-opacity="1" /></svg>
