<?xml version="1.0" encoding="utf-8"?>
<svg xmlns="http://www.w3.org/2000/svg" xmlns:xlink="http://www.w3.org/1999/xlink" width="600" height="400" viewBox="0 0 2400 1600">
<defs>
  <clipPath id="clip500">
    <rect x="0" y="0" width="2400" height="1600"/>
  </clipPath>
</defs>
<path clip-path="url(#clip500)" d="M0 1600 L2400 1600 L2400 0 L0 0  Z" fill="#ffffff" fill-rule="evenodd" fill-opacity="1"/>
<defs>
  <clipPath id="clip501">
    <rect x="1363" y="47" width="991" height="1440"/>
  </clipPath>
</defs>
<path clip-path="url(#clip500)" d="M147.478 1486.45 L1137.06 1486.45 L1137.06 47.2441 L147.478 47.2441  Z" fill="#ffffff" fill-rule="evenodd" fill-opacity="1"/>
<defs>
  <clipPath id="clip502">
    <rect x="147" y="47" width="991" height="1440"/>
  </clipPath>
</defs>
<polyline clip-path="url(#clip502)" style="stroke:#000000; stroke-linecap:round; stroke-linejoin:round; stroke-width:2; stroke-opacity:0.1; fill:none" points="287.911,1486.45 287.911,47.2441 "/>
<polyline clip-path="url(#clip502)" style="stroke:#000000; stroke-linecap:round; stroke-linejoin:round; stroke-width:2; stroke-opacity:0.1; fill:none" points="452.084,1486.45 452.084,47.2441 "/>
<polyline clip-path="url(#clip502)" style="stroke:#000000; stroke-linecap:round; stroke-linejoin:round; stroke-width:2; stroke-opacity:0.1; fill:none" points="616.258,1486.45 616.258,47.2441 "/>
<polyline clip-path="url(#clip502)" style="stroke:#000000; stroke-linecap:round; stroke-linejoin:round; stroke-width:2; stroke-opacity:0.1; fill:none" points="780.431,1486.45 780.431,47.2441 "/>
<polyline clip-path="url(#clip502)" style="stroke:#000000; stroke-linecap:round; stroke-linejoin:round; stroke-width:2; stroke-opacity:0.1; fill:none" points="944.605,1486.45 944.605,47.2441 "/>
<polyline clip-path="url(#clip502)" style="stroke:#000000; stroke-linecap:round; stroke-linejoin:round; stroke-width:2; stroke-opacity:0.1; fill:none" points="1108.78,1486.45 1108.78,47.2441 "/>
<polyline clip-path="url(#clip502)" style="stroke:#000000; stroke-linecap:round; stroke-linejoin:round; stroke-width:2; stroke-opacity:0.1; fill:none" points="147.478,1275.31 1137.06,1275.31 "/>
<polyline clip-path="url(#clip502)" style="stroke:#000000; stroke-linecap:round; stroke-linejoin:round; stroke-width:2; stroke-opacity:0.1; fill:none" points="147.478,946.966 1137.06,946.966 "/>
<polyline clip-path="url(#clip502)" style="stroke:#000000; stroke-linecap:round; stroke-linejoin:round; stroke-width:2; stroke-opacity:0.1; fill:none" points="147.478,618.619 1137.06,618.619 "/>
<polyline clip-path="url(#clip502)" style="stroke:#000000; stroke-linecap:round; stroke-linejoin:round; stroke-width:2; stroke-opacity:0.1; fill:none" points="147.478,290.272 1137.06,290.272 "/>
<polyline clip-path="url(#clip500)" style="stroke:#000000; stroke-linecap:round; stroke-linejoin:round; stroke-width:4; stroke-opacity:1; fill:none" points="147.478,1486.45 1137.06,1486.45 "/>
<polyline clip-path="url(#clip500)" style="stroke:#000000; stroke-linecap:round; stroke-linejoin:round; stroke-width:4; stroke-opacity:1; fill:none" points="287.911,1486.45 287.911,1467.55 "/>
<polyline clip-path="url(#clip500)" style="stroke:#000000; stroke-linecap:round; stroke-linejoin:round; stroke-width:4; stroke-opacity:1; fill:none" points="452.084,1486.45 452.084,1467.55 "/>
<polyline clip-path="url(#clip500)" style="stroke:#000000; stroke-linecap:round; stroke-linejoin:round; stroke-width:4; stroke-opacity:1; fill:none" points="616.258,1486.45 616.258,1467.55 "/>
<polyline clip-path="url(#clip500)" style="stroke:#000000; stroke-linecap:round; stroke-linejoin:round; stroke-width:4; stroke-opacity:1; fill:none" points="780.431,1486.45 780.431,1467.55 "/>
<polyline clip-path="url(#clip500)" style="stroke:#000000; stroke-linecap:round; stroke-linejoin:round; stroke-width:4; stroke-opacity:1; fill:none" points="944.605,1486.45 944.605,1467.55 "/>
<polyline clip-path="url(#clip500)" style="stroke:#000000; stroke-linecap:round; stroke-linejoin:round; stroke-width:4; stroke-opacity:1; fill:none" points="1108.78,1486.45 1108.78,1467.55 "/>
<path clip-path="url(#clip500)" d="M234.937 1532.02 L264.613 1532.02 L264.613 1535.95 L234.937 1535.95 L234.937 1532.02 Z" fill="#000000" fill-rule="nonzero" fill-opacity="1" /><path clip-path="url(#clip500)" d="M284.705 1517.37 Q281.094 1517.37 279.265 1520.93 Q277.46 1524.47 277.46 1531.6 Q277.46 1538.71 279.265 1542.27 Q281.094 1545.82 284.705 1545.82 Q288.339 1545.82 290.145 1542.27 Q291.974 1538.71 291.974 1531.6 Q291.974 1524.47 290.145 1520.93 Q288.339 1517.37 284.705 1517.37 M284.705 1513.66 Q290.515 1513.66 293.571 1518.27 Q296.649 1522.85 296.649 1531.6 Q296.649 1540.33 293.571 1544.94 Q290.515 1549.52 284.705 1549.52 Q278.895 1549.52 275.816 1544.94 Q272.761 1540.33 272.761 1531.6 Q272.761 1522.85 275.816 1518.27 Q278.895 1513.66 284.705 1513.66 Z" fill="#000000" fill-rule="nonzero" fill-opacity="1" /><path clip-path="url(#clip500)" d="M304.867 1542.97 L309.751 1542.97 L309.751 1548.85 L304.867 1548.85 L304.867 1542.97 Z" fill="#000000" fill-rule="nonzero" fill-opacity="1" /><path clip-path="url(#clip500)" d="M319.983 1514.29 L338.339 1514.29 L338.339 1518.22 L324.265 1518.22 L324.265 1526.7 Q325.284 1526.35 326.302 1526.19 Q327.321 1526 328.339 1526 Q334.126 1526 337.506 1529.17 Q340.885 1532.34 340.885 1537.76 Q340.885 1543.34 337.413 1546.44 Q333.941 1549.52 327.622 1549.52 Q325.446 1549.52 323.177 1549.15 Q320.932 1548.78 318.524 1548.04 L318.524 1543.34 Q320.608 1544.47 322.83 1545.03 Q325.052 1545.58 327.529 1545.58 Q331.534 1545.58 333.871 1543.48 Q336.209 1541.37 336.209 1537.76 Q336.209 1534.15 333.871 1532.04 Q331.534 1529.94 327.529 1529.94 Q325.654 1529.94 323.779 1530.35 Q321.927 1530.77 319.983 1531.65 L319.983 1514.29 Z" fill="#000000" fill-rule="nonzero" fill-opacity="1" /><path clip-path="url(#clip500)" d="M429.469 1517.37 Q425.858 1517.37 424.029 1520.93 Q422.224 1524.47 422.224 1531.6 Q422.224 1538.71 424.029 1542.27 Q425.858 1545.82 429.469 1545.82 Q433.103 1545.82 434.909 1542.27 Q436.737 1538.71 436.737 1531.6 Q436.737 1524.47 434.909 1520.93 Q433.103 1517.37 429.469 1517.37 M429.469 1513.66 Q435.279 1513.66 438.335 1518.27 Q441.413 1522.85 441.413 1531.6 Q441.413 1540.33 438.335 1544.94 Q435.279 1549.52 429.469 1549.52 Q423.659 1549.52 420.58 1544.94 Q417.524 1540.33 417.524 1531.6 Q417.524 1522.85 420.58 1518.27 Q423.659 1513.66 429.469 1513.66 Z" fill="#000000" fill-rule="nonzero" fill-opacity="1" /><path clip-path="url(#clip500)" d="M449.631 1542.97 L454.515 1542.97 L454.515 1548.85 L449.631 1548.85 L449.631 1542.97 Z" fill="#000000" fill-rule="nonzero" fill-opacity="1" /><path clip-path="url(#clip500)" d="M474.7 1517.37 Q471.089 1517.37 469.26 1520.93 Q467.455 1524.47 467.455 1531.6 Q467.455 1538.71 469.26 1542.27 Q471.089 1545.82 474.7 1545.82 Q478.334 1545.82 480.14 1542.27 Q481.969 1538.71 481.969 1531.6 Q481.969 1524.47 480.14 1520.93 Q478.334 1517.37 474.7 1517.37 M474.7 1513.66 Q480.51 1513.66 483.566 1518.27 Q486.644 1522.85 486.644 1531.6 Q486.644 1540.33 483.566 1544.94 Q480.51 1549.52 474.7 1549.52 Q468.89 1549.52 465.811 1544.94 Q462.756 1540.33 462.756 1531.6 Q462.756 1522.85 465.811 1518.27 Q468.89 1513.66 474.7 1513.66 Z" fill="#000000" fill-rule="nonzero" fill-opacity="1" /><path clip-path="url(#clip500)" d="M594.14 1517.37 Q590.529 1517.37 588.7 1520.93 Q586.895 1524.47 586.895 1531.6 Q586.895 1538.71 588.7 1542.27 Q590.529 1545.82 594.14 1545.82 Q597.774 1545.82 599.58 1542.27 Q601.408 1538.71 601.408 1531.6 Q601.408 1524.47 599.58 1520.93 Q597.774 1517.37 594.14 1517.37 M594.14 1513.66 Q599.95 1513.66 603.006 1518.27 Q606.084 1522.85 606.084 1531.6 Q606.084 1540.33 603.006 1544.94 Q599.95 1549.52 594.14 1549.52 Q588.33 1549.52 585.251 1544.94 Q582.196 1540.33 582.196 1531.6 Q582.196 1522.85 585.251 1518.27 Q588.33 1513.66 594.14 1513.66 Z" fill="#000000" fill-rule="nonzero" fill-opacity="1" /><path clip-path="url(#clip500)" d="M614.302 1542.97 L619.186 1542.97 L619.186 1548.85 L614.302 1548.85 L614.302 1542.97 Z" fill="#000000" fill-rule="nonzero" fill-opacity="1" /><path clip-path="url(#clip500)" d="M629.418 1514.29 L647.774 1514.29 L647.774 1518.22 L633.7 1518.22 L633.7 1526.7 Q634.718 1526.35 635.737 1526.19 Q636.755 1526 637.774 1526 Q643.561 1526 646.941 1529.17 Q650.32 1532.34 650.32 1537.76 Q650.32 1543.34 646.848 1546.44 Q643.376 1549.52 637.056 1549.52 Q634.88 1549.52 632.612 1549.15 Q630.367 1548.78 627.959 1548.04 L627.959 1543.34 Q630.043 1544.47 632.265 1545.03 Q634.487 1545.58 636.964 1545.58 Q640.968 1545.58 643.306 1543.48 Q645.644 1541.37 645.644 1537.76 Q645.644 1534.15 643.306 1532.04 Q640.968 1529.94 636.964 1529.94 Q635.089 1529.94 633.214 1530.35 Q631.362 1530.77 629.418 1531.65 L629.418 1514.29 Z" fill="#000000" fill-rule="nonzero" fill-opacity="1" /><path clip-path="url(#clip500)" d="M747.584 1544.91 L755.223 1544.91 L755.223 1518.55 L746.913 1520.21 L746.913 1515.95 L755.177 1514.29 L759.853 1514.29 L759.853 1544.91 L767.492 1544.91 L767.492 1548.85 L747.584 1548.85 L747.584 1544.91 Z" fill="#000000" fill-rule="nonzero" fill-opacity="1" /><path clip-path="url(#clip500)" d="M776.936 1542.97 L781.82 1542.97 L781.82 1548.85 L776.936 1548.85 L776.936 1542.97 Z" fill="#000000" fill-rule="nonzero" fill-opacity="1" /><path clip-path="url(#clip500)" d="M802.005 1517.37 Q798.394 1517.37 796.565 1520.93 Q794.76 1524.47 794.76 1531.6 Q794.76 1538.71 796.565 1542.27 Q798.394 1545.82 802.005 1545.82 Q805.64 1545.82 807.445 1542.27 Q809.274 1538.71 809.274 1531.6 Q809.274 1524.47 807.445 1520.93 Q805.64 1517.37 802.005 1517.37 M802.005 1513.66 Q807.815 1513.66 810.871 1518.27 Q813.95 1522.85 813.95 1531.6 Q813.95 1540.33 810.871 1544.94 Q807.815 1549.52 802.005 1549.52 Q796.195 1549.52 793.116 1544.94 Q790.061 1540.33 790.061 1531.6 Q790.061 1522.85 793.116 1518.27 Q796.195 1513.66 802.005 1513.66 Z" fill="#000000" fill-rule="nonzero" fill-opacity="1" /><path clip-path="url(#clip500)" d="M912.255 1544.91 L919.894 1544.91 L919.894 1518.55 L911.584 1520.21 L911.584 1515.95 L919.848 1514.29 L924.524 1514.29 L924.524 1544.91 L932.163 1544.91 L932.163 1548.85 L912.255 1548.85 L912.255 1544.91 Z" fill="#000000" fill-rule="nonzero" fill-opacity="1" /><path clip-path="url(#clip500)" d="M941.607 1542.97 L946.491 1542.97 L946.491 1548.85 L941.607 1548.85 L941.607 1542.97 Z" fill="#000000" fill-rule="nonzero" fill-opacity="1" /><path clip-path="url(#clip500)" d="M956.723 1514.29 L975.079 1514.29 L975.079 1518.22 L961.005 1518.22 L961.005 1526.7 Q962.024 1526.35 963.042 1526.19 Q964.061 1526 965.079 1526 Q970.866 1526 974.246 1529.17 Q977.625 1532.34 977.625 1537.76 Q977.625 1543.34 974.153 1546.44 Q970.681 1549.52 964.362 1549.52 Q962.186 1549.52 959.917 1549.15 Q957.672 1548.78 955.264 1548.04 L955.264 1543.34 Q957.348 1544.47 959.57 1545.03 Q961.792 1545.58 964.269 1545.58 Q968.274 1545.58 970.612 1543.48 Q972.949 1541.37 972.949 1537.76 Q972.949 1534.15 970.612 1532.04 Q968.274 1529.94 964.269 1529.94 Q962.394 1529.94 960.519 1530.35 Q958.667 1530.77 956.723 1531.65 L956.723 1514.29 Z" fill="#000000" fill-rule="nonzero" fill-opacity="1" /><path clip-path="url(#clip500)" d="M1080.02 1544.91 L1096.34 1544.91 L1096.34 1548.85 L1074.39 1548.85 L1074.39 1544.91 Q1077.05 1542.16 1081.64 1537.53 Q1086.24 1532.88 1087.42 1531.53 Q1089.67 1529.01 1090.55 1527.27 Q1091.45 1525.51 1091.45 1523.82 Q1091.45 1521.07 1089.51 1519.33 Q1087.59 1517.6 1084.48 1517.6 Q1082.29 1517.6 1079.83 1518.36 Q1077.4 1519.13 1074.62 1520.68 L1074.62 1515.95 Q1077.45 1514.82 1079.9 1514.24 Q1082.35 1513.66 1084.39 1513.66 Q1089.76 1513.66 1092.96 1516.35 Q1096.15 1519.03 1096.15 1523.52 Q1096.15 1525.65 1095.34 1527.57 Q1094.55 1529.47 1092.45 1532.07 Q1091.87 1532.74 1088.77 1535.95 Q1085.66 1539.15 1080.02 1544.91 Z" fill="#000000" fill-rule="nonzero" fill-opacity="1" /><path clip-path="url(#clip500)" d="M1106.15 1542.97 L1111.04 1542.97 L1111.04 1548.85 L1106.15 1548.85 L1106.15 1542.97 Z" fill="#000000" fill-rule="nonzero" fill-opacity="1" /><path clip-path="url(#clip500)" d="M1131.22 1517.37 Q1127.61 1517.37 1125.78 1520.93 Q1123.97 1524.47 1123.97 1531.6 Q1123.97 1538.71 1125.78 1542.27 Q1127.61 1545.82 1131.22 1545.82 Q1134.85 1545.82 1136.66 1542.27 Q1138.49 1538.71 1138.49 1531.6 Q1138.49 1524.47 1136.66 1520.93 Q1134.85 1517.37 1131.22 1517.37 M1131.22 1513.66 Q1137.03 1513.66 1140.09 1518.27 Q1143.16 1522.85 1143.16 1531.6 Q1143.16 1540.33 1140.09 1544.94 Q1137.03 1549.52 1131.22 1549.52 Q1125.41 1549.52 1122.33 1544.94 Q1119.28 1540.33 1119.28 1531.6 Q1119.28 1522.85 1122.33 1518.27 Q1125.41 1513.66 1131.22 1513.66 Z" fill="#000000" fill-rule="nonzero" fill-opacity="1" /><polyline clip-path="url(#clip500)" style="stroke:#000000; stroke-linecap:round; stroke-linejoin:round; stroke-width:4; stroke-opacity:1; fill:none" points="147.478,1486.45 147.478,47.2441 "/>
<polyline clip-path="url(#clip500)" style="stroke:#000000; stroke-linecap:round; stroke-linejoin:round; stroke-width:4; stroke-opacity:1; fill:none" points="147.478,1275.31 166.376,1275.31 "/>
<polyline clip-path="url(#clip500)" style="stroke:#000000; stroke-linecap:round; stroke-linejoin:round; stroke-width:4; stroke-opacity:1; fill:none" points="147.478,946.966 166.376,946.966 "/>
<polyline clip-path="url(#clip500)" style="stroke:#000000; stroke-linecap:round; stroke-linejoin:round; stroke-width:4; stroke-opacity:1; fill:none" points="147.478,618.619 166.376,618.619 "/>
<polyline clip-path="url(#clip500)" style="stroke:#000000; stroke-linecap:round; stroke-linejoin:round; stroke-width:4; stroke-opacity:1; fill:none" points="147.478,290.272 166.376,290.272 "/>
<path clip-path="url(#clip500)" d="M50.9921 1275.76 L80.6679 1275.76 L80.6679 1279.7 L50.9921 1279.7 L50.9921 1275.76 Z" fill="#000000" fill-rule="nonzero" fill-opacity="1" /><path clip-path="url(#clip500)" d="M91.5706 1288.66 L99.2095 1288.66 L99.2095 1262.29 L90.8993 1263.96 L90.8993 1259.7 L99.1632 1258.03 L103.839 1258.03 L103.839 1288.66 L111.478 1288.66 L111.478 1292.59 L91.5706 1292.59 L91.5706 1288.66 Z" fill="#000000" fill-rule="nonzero" fill-opacity="1" /><path clip-path="url(#clip500)" d="M99.5335 932.765 Q95.9224 932.765 94.0937 936.329 Q92.2882 939.871 92.2882 947.001 Q92.2882 954.107 94.0937 957.672 Q95.9224 961.214 99.5335 961.214 Q103.168 961.214 104.973 957.672 Q106.802 954.107 106.802 947.001 Q106.802 939.871 104.973 936.329 Q103.168 932.765 99.5335 932.765 M99.5335 929.061 Q105.344 929.061 108.399 933.667 Q111.478 938.251 111.478 947.001 Q111.478 955.727 108.399 960.334 Q105.344 964.917 99.5335 964.917 Q93.7234 964.917 90.6447 960.334 Q87.5892 955.727 87.5892 947.001 Q87.5892 938.251 90.6447 933.667 Q93.7234 929.061 99.5335 929.061 Z" fill="#000000" fill-rule="nonzero" fill-opacity="1" /><path clip-path="url(#clip500)" d="M91.5706 631.964 L99.2095 631.964 L99.2095 605.598 L90.8993 607.265 L90.8993 603.006 L99.1632 601.339 L103.839 601.339 L103.839 631.964 L111.478 631.964 L111.478 635.899 L91.5706 635.899 L91.5706 631.964 Z" fill="#000000" fill-rule="nonzero" fill-opacity="1" /><path clip-path="url(#clip500)" d="M95.1586 303.617 L111.478 303.617 L111.478 307.552 L89.5336 307.552 L89.5336 303.617 Q92.1956 300.863 96.7789 296.233 Q101.385 291.58 102.566 290.238 Q104.811 287.714 105.691 285.978 Q106.594 284.219 106.594 282.529 Q106.594 279.775 104.649 278.039 Q102.728 276.302 99.6261 276.302 Q97.4271 276.302 94.9734 277.066 Q92.5428 277.83 89.7651 279.381 L89.7651 274.659 Q92.5891 273.525 95.0428 272.946 Q97.4965 272.367 99.5335 272.367 Q104.904 272.367 108.098 275.052 Q111.293 277.738 111.293 282.228 Q111.293 284.358 110.483 286.279 Q109.696 288.177 107.589 290.77 Q107.01 291.441 103.909 294.659 Q100.807 297.853 95.1586 303.617 Z" fill="#000000" fill-rule="nonzero" fill-opacity="1" /><polyline clip-path="url(#clip502)" style="stroke:#000000; stroke-linecap:round; stroke-linejoin:round; stroke-width:4; stroke-opacity:1; fill:none" points="1109.05,966.218 703.662,1360.92 "/>
<polyline clip-path="url(#clip502)" style="stroke:#000000; stroke-linecap:round; stroke-linejoin:round; stroke-width:4; stroke-opacity:1; fill:none" points="1109.05,966.218 627.018,619.318 "/>
<polyline clip-path="url(#clip502)" style="stroke:#000000; stroke-linecap:round; stroke-linejoin:round; stroke-width:4; stroke-opacity:1; fill:none" points="1109.05,966.218 1058.41,476.203 "/>
<polyline clip-path="url(#clip502)" style="stroke:#000000; stroke-linecap:round; stroke-linejoin:round; stroke-width:4; stroke-opacity:1; fill:none" points="703.662,1360.92 226.124,1057.47 "/>
<polyline clip-path="url(#clip502)" style="stroke:#000000; stroke-linecap:round; stroke-linejoin:round; stroke-width:4; stroke-opacity:1; fill:none" points="703.662,1360.92 657.532,914.374 "/>
<polyline clip-path="url(#clip502)" style="stroke:#000000; stroke-linecap:round; stroke-linejoin:round; stroke-width:4; stroke-opacity:1; fill:none" points="627.018,619.318 226.124,1057.47 "/>
<polyline clip-path="url(#clip502)" style="stroke:#000000; stroke-linecap:round; stroke-linejoin:round; stroke-width:4; stroke-opacity:1; fill:none" points="627.018,619.318 580.857,172.776 "/>
<polyline clip-path="url(#clip502)" style="stroke:#000000; stroke-linecap:round; stroke-linejoin:round; stroke-width:4; stroke-opacity:1; fill:none" points="226.124,1057.47 175.485,567.475 "/>
<polyline clip-path="url(#clip502)" style="stroke:#000000; stroke-linecap:round; stroke-linejoin:round; stroke-width:4; stroke-opacity:1; fill:none" points="1058.41,476.203 657.532,914.374 "/>
<polyline clip-path="url(#clip502)" style="stroke:#000000; stroke-linecap:round; stroke-linejoin:round; stroke-width:4; stroke-opacity:1; fill:none" points="1058.41,476.203 580.857,172.776 "/>
<polyline clip-path="url(#clip502)" style="stroke:#000000; stroke-linecap:round; stroke-linejoin:round; stroke-width:4; stroke-opacity:1; fill:none" points="657.532,914.374 175.485,567.475 "/>
<polyline clip-path="url(#clip502)" style="stroke:#000000; stroke-linecap:round; stroke-linejoin:round; stroke-width:4; stroke-opacity:1; fill:none" points="580.857,172.776 175.485,567.475 "/>
<circle clip-path="url(#clip502)" cx="1109.05" cy="966.218" r="18" fill="#0000ff" fill-rule="evenodd" fill-opacity="1" stroke="#000000" stroke-opacity="1" stroke-width="3.2"/>
<circle clip-path="url(#clip502)" cx="703.662" cy="1360.92" r="18" fill="#0000ff" fill-rule="evenodd" fill-opacity="1" stroke="#000000" stroke-opacity="1" stroke-width="3.2"/>
<circle clip-path="url(#clip502)" cx="627.018" cy="619.318" r="18" fill="#0000ff" fill-rule="evenodd" fill-opacity="1" stroke="#000000" stroke-opacity="1" stroke-width="3.2"/>
<circle clip-path="url(#clip502)" cx="226.124" cy="1057.47" r="18" fill="#0000ff" fill-rule="evenodd" fill-opacity="1" stroke="#000000" stroke-opacity="1" stroke-width="3.2"/>
<circle clip-path="url(#clip502)" cx="1058.41" cy="476.203" r="18" fill="#0000ff" fill-rule="evenodd" fill-opacity="1" stroke="#000000" stroke-opacity="1" stroke-width="3.2"/>
<circle clip-path="url(#clip502)" cx="657.532" cy="914.374" r="18" fill="#0000ff" fill-rule="evenodd" fill-opacity="1" stroke="#000000" stroke-opacity="1" stroke-width="3.2"/>
<circle clip-path="url(#clip502)" cx="580.857" cy="172.776" r="18" fill="#0000ff" fill-rule="evenodd" fill-opacity="1" stroke="#000000" stroke-opacity="1" stroke-width="3.2"/>
<circle clip-path="url(#clip502)" cx="175.485" cy="567.475" r="18" fill="#0000ff" fill-rule="evenodd" fill-opacity="1" stroke="#000000" stroke-opacity="1" stroke-width="3.2"/>
<path clip-path="url(#clip500)" d="M1363.17 1486.45 L2352.76 1486.45 L2352.76 47.2441 L1363.17 47.2441  Z" fill="#ffffff" fill-rule="evenodd" fill-opacity="1"/>
<polyline clip-path="url(#clip501)" style="stroke:#000000; stroke-linecap:round; stroke-linejoin:round; stroke-width:2; stroke-opacity:0.1; fill:none" points="1385.34,1486.45 1385.34,47.2441 "/>
<polyline clip-path="url(#clip501)" style="stroke:#000000; stroke-linecap:round; stroke-linejoin:round; stroke-width:2; stroke-opacity:0.1; fill:none" points="1677.09,1486.45 1677.09,47.2441 "/>
<polyline clip-path="url(#clip501)" style="stroke:#000000; stroke-linecap:round; stroke-linejoin:round; stroke-width:2; stroke-opacity:0.1; fill:none" points="1968.83,1486.45 1968.83,47.2441 "/>
<polyline clip-path="url(#clip501)" style="stroke:#000000; stroke-linecap:round; stroke-linejoin:round; stroke-width:2; stroke-opacity:0.1; fill:none" points="2260.57,1486.45 2260.57,47.2441 "/>
<polyline clip-path="url(#clip501)" style="stroke:#000000; stroke-linecap:round; stroke-linejoin:round; stroke-width:2; stroke-opacity:0.1; fill:none" points="1363.17,1481.6 2352.76,1481.6 "/>
<polyline clip-path="url(#clip501)" style="stroke:#000000; stroke-linecap:round; stroke-linejoin:round; stroke-width:2; stroke-opacity:0.1; fill:none" points="1363.17,1228.69 2352.76,1228.69 "/>
<polyline clip-path="url(#clip501)" style="stroke:#000000; stroke-linecap:round; stroke-linejoin:round; stroke-width:2; stroke-opacity:0.1; fill:none" points="1363.17,975.784 2352.76,975.784 "/>
<polyline clip-path="url(#clip501)" style="stroke:#000000; stroke-linecap:round; stroke-linejoin:round; stroke-width:2; stroke-opacity:0.1; fill:none" points="1363.17,722.874 2352.76,722.874 "/>
<polyline clip-path="url(#clip501)" style="stroke:#000000; stroke-linecap:round; stroke-linejoin:round; stroke-width:2; stroke-opacity:0.1; fill:none" points="1363.17,469.963 2352.76,469.963 "/>
<polyline clip-path="url(#clip501)" style="stroke:#000000; stroke-linecap:round; stroke-linejoin:round; stroke-width:2; stroke-opacity:0.1; fill:none" points="1363.17,217.053 2352.76,217.053 "/>
<polyline clip-path="url(#clip500)" style="stroke:#000000; stroke-linecap:round; stroke-linejoin:round; stroke-width:4; stroke-opacity:1; fill:none" points="1363.17,1486.45 2352.76,1486.45 "/>
<polyline clip-path="url(#clip500)" style="stroke:#000000; stroke-linecap:round; stroke-linejoin:round; stroke-width:4; stroke-opacity:1; fill:none" points="1385.34,1486.45 1385.34,1467.55 "/>
<polyline clip-path="url(#clip500)" style="stroke:#000000; stroke-linecap:round; stroke-linejoin:round; stroke-width:4; stroke-opacity:1; fill:none" points="1677.09,1486.45 1677.09,1467.55 "/>
<polyline clip-path="url(#clip500)" style="stroke:#000000; stroke-linecap:round; stroke-linejoin:round; stroke-width:4; stroke-opacity:1; fill:none" points="1968.83,1486.45 1968.83,1467.55 "/>
<polyline clip-path="url(#clip500)" style="stroke:#000000; stroke-linecap:round; stroke-linejoin:round; stroke-width:4; stroke-opacity:1; fill:none" points="2260.57,1486.45 2260.57,1467.55 "/>
<path clip-path="url(#clip500)" d="M1385.34 1517.37 Q1381.73 1517.37 1379.9 1520.93 Q1378.1 1524.47 1378.1 1531.6 Q1378.1 1538.71 1379.9 1542.27 Q1381.73 1545.82 1385.34 1545.82 Q1388.98 1545.82 1390.78 1542.27 Q1392.61 1538.71 1392.61 1531.6 Q1392.61 1524.47 1390.78 1520.93 Q1388.98 1517.37 1385.34 1517.37 M1385.34 1513.66 Q1391.15 1513.66 1394.21 1518.27 Q1397.29 1522.85 1397.29 1531.6 Q1397.29 1540.33 1394.21 1544.94 Q1391.15 1549.52 1385.34 1549.52 Q1379.53 1549.52 1376.46 1544.94 Q1373.4 1540.33 1373.4 1531.6 Q1373.4 1522.85 1376.46 1518.27 Q1379.53 1513.66 1385.34 1513.66 Z" fill="#000000" fill-rule="nonzero" fill-opacity="1" /><path clip-path="url(#clip500)" d="M1651.78 1514.29 L1670.14 1514.29 L1670.14 1518.22 L1656.07 1518.22 L1656.07 1526.7 Q1657.09 1526.35 1658.1 1526.19 Q1659.12 1526 1660.14 1526 Q1665.93 1526 1669.31 1529.17 Q1672.69 1532.34 1672.69 1537.76 Q1672.69 1543.34 1669.21 1546.44 Q1665.74 1549.52 1659.42 1549.52 Q1657.25 1549.52 1654.98 1549.15 Q1652.73 1548.78 1650.33 1548.04 L1650.33 1543.34 Q1652.41 1544.47 1654.63 1545.03 Q1656.85 1545.58 1659.33 1545.58 Q1663.34 1545.58 1665.67 1543.48 Q1668.01 1541.37 1668.01 1537.76 Q1668.01 1534.15 1665.67 1532.04 Q1663.34 1529.94 1659.33 1529.94 Q1657.46 1529.94 1655.58 1530.35 Q1653.73 1530.77 1651.78 1531.65 L1651.78 1514.29 Z" fill="#000000" fill-rule="nonzero" fill-opacity="1" /><path clip-path="url(#clip500)" d="M1691.9 1517.37 Q1688.29 1517.37 1686.46 1520.93 Q1684.65 1524.47 1684.65 1531.6 Q1684.65 1538.71 1686.46 1542.27 Q1688.29 1545.82 1691.9 1545.82 Q1695.53 1545.82 1697.34 1542.27 Q1699.17 1538.71 1699.17 1531.6 Q1699.17 1524.47 1697.34 1520.93 Q1695.53 1517.37 1691.9 1517.37 M1691.9 1513.66 Q1697.71 1513.66 1700.77 1518.27 Q1703.84 1522.85 1703.84 1531.6 Q1703.84 1540.33 1700.77 1544.94 Q1697.71 1549.52 1691.9 1549.52 Q1686.09 1549.52 1683.01 1544.94 Q1679.96 1540.33 1679.96 1531.6 Q1679.96 1522.85 1683.01 1518.27 Q1686.09 1513.66 1691.9 1513.66 Z" fill="#000000" fill-rule="nonzero" fill-opacity="1" /><path clip-path="url(#clip500)" d="M1928.43 1544.91 L1936.07 1544.91 L1936.07 1518.55 L1927.76 1520.21 L1927.76 1515.95 L1936.02 1514.29 L1940.7 1514.29 L1940.7 1544.91 L1948.34 1544.91 L1948.34 1548.85 L1928.43 1548.85 L1928.43 1544.91 Z" fill="#000000" fill-rule="nonzero" fill-opacity="1" /><path clip-path="url(#clip500)" d="M1967.78 1517.37 Q1964.17 1517.37 1962.34 1520.93 Q1960.54 1524.47 1960.54 1531.6 Q1960.54 1538.71 1962.34 1542.27 Q1964.17 1545.82 1967.78 1545.82 Q1971.42 1545.82 1973.22 1542.27 Q1975.05 1538.71 1975.05 1531.6 Q1975.05 1524.47 1973.22 1520.93 Q1971.42 1517.37 1967.78 1517.37 M1967.78 1513.66 Q1973.59 1513.66 1976.65 1518.27 Q1979.73 1522.85 1979.73 1531.6 Q1979.73 1540.33 1976.65 1544.94 Q1973.59 1549.52 1967.78 1549.52 Q1961.97 1549.52 1958.89 1544.94 Q1955.84 1540.33 1955.84 1531.6 Q1955.84 1522.85 1958.89 1518.27 Q1961.97 1513.66 1967.78 1513.66 Z" fill="#000000" fill-rule="nonzero" fill-opacity="1" /><path clip-path="url(#clip500)" d="M1997.95 1517.37 Q1994.33 1517.37 1992.51 1520.93 Q1990.7 1524.47 1990.7 1531.6 Q1990.7 1538.71 1992.51 1542.27 Q1994.33 1545.82 1997.95 1545.82 Q2001.58 1545.82 2003.39 1542.27 Q2005.21 1538.71 2005.21 1531.6 Q2005.21 1524.47 2003.39 1520.93 Q2001.58 1517.37 1997.95 1517.37 M1997.95 1513.66 Q2003.76 1513.66 2006.81 1518.27 Q2009.89 1522.85 2009.89 1531.6 Q2009.89 1540.33 2006.81 1544.94 Q2003.76 1549.52 1997.95 1549.52 Q1992.14 1549.52 1989.06 1544.94 Q1986 1540.33 1986 1531.6 Q1986 1522.85 1989.06 1518.27 Q1992.14 1513.66 1997.95 1513.66 Z" fill="#000000" fill-rule="nonzero" fill-opacity="1" /><path clip-path="url(#clip500)" d="M2220.17 1544.91 L2227.81 1544.91 L2227.81 1518.55 L2219.5 1520.21 L2219.5 1515.95 L2227.77 1514.29 L2232.44 1514.29 L2232.44 1544.91 L2240.08 1544.91 L2240.08 1548.85 L2220.17 1548.85 L2220.17 1544.91 Z" fill="#000000" fill-rule="nonzero" fill-opacity="1" /><path clip-path="url(#clip500)" d="M2249.57 1514.29 L2267.93 1514.29 L2267.93 1518.22 L2253.85 1518.22 L2253.85 1526.7 Q2254.87 1526.35 2255.89 1526.19 Q2256.91 1526 2257.93 1526 Q2263.71 1526 2267.09 1529.17 Q2270.47 1532.34 2270.47 1537.76 Q2270.47 1543.34 2267 1546.44 Q2263.53 1549.52 2257.21 1549.52 Q2255.03 1549.52 2252.77 1549.15 Q2250.52 1548.78 2248.11 1548.04 L2248.11 1543.34 Q2250.2 1544.47 2252.42 1545.03 Q2254.64 1545.58 2257.12 1545.58 Q2261.12 1545.58 2263.46 1543.48 Q2265.8 1541.37 2265.8 1537.76 Q2265.8 1534.15 2263.46 1532.04 Q2261.12 1529.94 2257.12 1529.94 Q2255.24 1529.94 2253.37 1530.35 Q2251.52 1530.77 2249.57 1531.65 L2249.57 1514.29 Z" fill="#000000" fill-rule="nonzero" fill-opacity="1" /><path clip-path="url(#clip500)" d="M2289.69 1517.37 Q2286.08 1517.37 2284.25 1520.93 Q2282.44 1524.47 2282.44 1531.6 Q2282.44 1538.71 2284.25 1542.27 Q2286.08 1545.82 2289.69 1545.82 Q2293.32 1545.82 2295.13 1542.27 Q2296.95 1538.71 2296.95 1531.6 Q2296.95 1524.47 2295.13 1520.93 Q2293.32 1517.37 2289.69 1517.37 M2289.69 1513.66 Q2295.5 1513.66 2298.55 1518.27 Q2301.63 1522.85 2301.63 1531.6 Q2301.63 1540.33 2298.55 1544.94 Q2295.5 1549.52 2289.69 1549.52 Q2283.88 1549.52 2280.8 1544.94 Q2277.74 1540.33 2277.74 1531.6 Q2277.74 1522.85 2280.8 1518.27 Q2283.88 1513.66 2289.69 1513.66 Z" fill="#000000" fill-rule="nonzero" fill-opacity="1" /><polyline clip-path="url(#clip500)" style="stroke:#000000; stroke-linecap:round; stroke-linejoin:round; stroke-width:4; stroke-opacity:1; fill:none" points="1363.17,1486.45 1363.17,47.2441 "/>
<polyline clip-path="url(#clip500)" style="stroke:#000000; stroke-linecap:round; stroke-linejoin:round; stroke-width:4; stroke-opacity:1; fill:none" points="1363.17,1481.6 1382.07,1481.6 "/>
<polyline clip-path="url(#clip500)" style="stroke:#000000; stroke-linecap:round; stroke-linejoin:round; stroke-width:4; stroke-opacity:1; fill:none" points="1363.17,1228.69 1382.07,1228.69 "/>
<polyline clip-path="url(#clip500)" style="stroke:#000000; stroke-linecap:round; stroke-linejoin:round; stroke-width:4; stroke-opacity:1; fill:none" points="1363.17,975.784 1382.07,975.784 "/>
<polyline clip-path="url(#clip500)" style="stroke:#000000; stroke-linecap:round; stroke-linejoin:round; stroke-width:4; stroke-opacity:1; fill:none" points="1363.17,722.874 1382.07,722.874 "/>
<polyline clip-path="url(#clip500)" style="stroke:#000000; stroke-linecap:round; stroke-linejoin:round; stroke-width:4; stroke-opacity:1; fill:none" points="1363.17,469.963 1382.07,469.963 "/>
<polyline clip-path="url(#clip500)" style="stroke:#000000; stroke-linecap:round; stroke-linejoin:round; stroke-width:4; stroke-opacity:1; fill:none" points="1363.17,217.053 1382.07,217.053 "/>
<path clip-path="url(#clip500)" d="M1235.3 1482.06 L1264.97 1482.06 L1264.97 1485.99 L1235.3 1485.99 L1235.3 1482.06 Z" fill="#000000" fill-rule="nonzero" fill-opacity="1" /><path clip-path="url(#clip500)" d="M1275.88 1494.95 L1283.52 1494.95 L1283.52 1468.58 L1275.2 1470.25 L1275.2 1465.99 L1283.47 1464.32 L1288.14 1464.32 L1288.14 1494.95 L1295.78 1494.95 L1295.78 1498.88 L1275.88 1498.88 L1275.88 1494.95 Z" fill="#000000" fill-rule="nonzero" fill-opacity="1" /><path clip-path="url(#clip500)" d="M1315.23 1467.4 Q1311.62 1467.4 1309.79 1470.97 Q1307.98 1474.51 1307.98 1481.64 Q1307.98 1488.75 1309.79 1492.31 Q1311.62 1495.85 1315.23 1495.85 Q1318.86 1495.85 1320.67 1492.31 Q1322.5 1488.75 1322.5 1481.64 Q1322.5 1474.51 1320.67 1470.97 Q1318.86 1467.4 1315.23 1467.4 M1315.23 1463.7 Q1321.04 1463.7 1324.09 1468.31 Q1327.17 1472.89 1327.17 1481.64 Q1327.17 1490.37 1324.09 1494.97 Q1321.04 1499.56 1315.23 1499.56 Q1309.42 1499.56 1306.34 1494.97 Q1303.28 1490.37 1303.28 1481.64 Q1303.28 1472.89 1306.34 1468.31 Q1309.42 1463.7 1315.23 1463.7 Z" fill="#000000" fill-rule="nonzero" fill-opacity="1" /><path clip-path="url(#clip500)" d="M1266.46 1229.15 L1296.13 1229.15 L1296.13 1233.08 L1266.46 1233.08 L1266.46 1229.15 Z" fill="#000000" fill-rule="nonzero" fill-opacity="1" /><path clip-path="url(#clip500)" d="M1306.27 1211.41 L1324.63 1211.41 L1324.63 1215.35 L1310.55 1215.35 L1310.55 1223.82 Q1311.57 1223.47 1312.59 1223.31 Q1313.61 1223.13 1314.63 1223.13 Q1320.41 1223.13 1323.79 1226.3 Q1327.17 1229.47 1327.17 1234.89 Q1327.17 1240.47 1323.7 1243.57 Q1320.23 1246.65 1313.91 1246.65 Q1311.73 1246.65 1309.46 1246.28 Q1307.22 1245.9 1304.81 1245.16 L1304.81 1240.47 Q1306.89 1241.6 1309.12 1242.15 Q1311.34 1242.71 1313.82 1242.71 Q1317.82 1242.71 1320.16 1240.6 Q1322.5 1238.5 1322.5 1234.89 Q1322.5 1231.28 1320.16 1229.17 Q1317.82 1227.06 1313.82 1227.06 Q1311.94 1227.06 1310.07 1227.48 Q1308.21 1227.9 1306.27 1228.78 L1306.27 1211.41 Z" fill="#000000" fill-rule="nonzero" fill-opacity="1" /><path clip-path="url(#clip500)" d="M1315.23 961.583 Q1311.62 961.583 1309.79 965.147 Q1307.98 968.689 1307.98 975.819 Q1307.98 982.925 1309.79 986.49 Q1311.62 990.032 1315.23 990.032 Q1318.86 990.032 1320.67 986.49 Q1322.5 982.925 1322.5 975.819 Q1322.5 968.689 1320.67 965.147 Q1318.86 961.583 1315.23 961.583 M1315.23 957.879 Q1321.04 957.879 1324.09 962.485 Q1327.17 967.069 1327.17 975.819 Q1327.17 984.545 1324.09 989.152 Q1321.04 993.735 1315.23 993.735 Q1309.42 993.735 1306.34 989.152 Q1303.28 984.545 1303.28 975.819 Q1303.28 967.069 1306.34 962.485 Q1309.42 957.879 1315.23 957.879 Z" fill="#000000" fill-rule="nonzero" fill-opacity="1" /><path clip-path="url(#clip500)" d="M1306.27 705.594 L1324.63 705.594 L1324.63 709.529 L1310.55 709.529 L1310.55 718.001 Q1311.57 717.654 1312.59 717.492 Q1313.61 717.307 1314.63 717.307 Q1320.41 717.307 1323.79 720.478 Q1327.17 723.649 1327.17 729.066 Q1327.17 734.644 1323.7 737.746 Q1320.23 740.825 1313.91 740.825 Q1311.73 740.825 1309.46 740.455 Q1307.22 740.084 1304.81 739.343 L1304.81 734.644 Q1306.89 735.779 1309.12 736.334 Q1311.34 736.89 1313.82 736.89 Q1317.82 736.89 1320.16 734.783 Q1322.5 732.677 1322.5 729.066 Q1322.5 725.455 1320.16 723.348 Q1317.82 721.242 1313.82 721.242 Q1311.94 721.242 1310.07 721.658 Q1308.21 722.075 1306.27 722.955 L1306.27 705.594 Z" fill="#000000" fill-rule="nonzero" fill-opacity="1" /><path clip-path="url(#clip500)" d="M1275.88 483.308 L1283.52 483.308 L1283.52 456.942 L1275.2 458.609 L1275.2 454.35 L1283.47 452.683 L1288.14 452.683 L1288.14 483.308 L1295.78 483.308 L1295.78 487.243 L1275.88 487.243 L1275.88 483.308 Z" fill="#000000" fill-rule="nonzero" fill-opacity="1" /><path clip-path="url(#clip500)" d="M1315.23 455.762 Q1311.62 455.762 1309.79 459.327 Q1307.98 462.868 1307.98 469.998 Q1307.98 477.104 1309.79 480.669 Q1311.62 484.211 1315.23 484.211 Q1318.86 484.211 1320.67 480.669 Q1322.5 477.104 1322.5 469.998 Q1322.5 462.868 1320.67 459.327 Q1318.86 455.762 1315.23 455.762 M1315.23 452.058 Q1321.04 452.058 1324.09 456.665 Q1327.17 461.248 1327.17 469.998 Q1327.17 478.725 1324.09 483.331 Q1321.04 487.915 1315.23 487.915 Q1309.42 487.915 1306.34 483.331 Q1303.28 478.725 1303.28 469.998 Q1303.28 461.248 1306.34 456.665 Q1309.42 452.058 1315.23 452.058 Z" fill="#000000" fill-rule="nonzero" fill-opacity="1" /><path clip-path="url(#clip500)" d="M1276.87 230.398 L1284.51 230.398 L1284.51 204.032 L1276.2 205.699 L1276.2 201.44 L1284.46 199.773 L1289.14 199.773 L1289.14 230.398 L1296.78 230.398 L1296.78 234.333 L1276.87 234.333 L1276.87 230.398 Z" fill="#000000" fill-rule="nonzero" fill-opacity="1" /><path clip-path="url(#clip500)" d="M1306.27 199.773 L1324.63 199.773 L1324.63 203.708 L1310.55 203.708 L1310.55 212.18 Q1311.57 211.833 1312.59 211.671 Q1313.61 211.486 1314.63 211.486 Q1320.41 211.486 1323.79 214.657 Q1327.17 217.828 1327.17 223.245 Q1327.17 228.824 1323.7 231.926 Q1320.23 235.004 1313.91 235.004 Q1311.73 235.004 1309.46 234.634 Q1307.22 234.263 1304.81 233.523 L1304.81 228.824 Q1306.89 229.958 1309.12 230.513 Q1311.34 231.069 1313.82 231.069 Q1317.82 231.069 1320.16 228.963 Q1322.5 226.856 1322.5 223.245 Q1322.5 219.634 1320.16 217.527 Q1317.82 215.421 1313.82 215.421 Q1311.94 215.421 1310.07 215.838 Q1308.21 216.254 1306.27 217.134 L1306.27 199.773 Z" fill="#000000" fill-rule="nonzero" fill-opacity="1" /><polyline clip-path="url(#clip501)" style="stroke:#009af9; stroke-linecap:round; stroke-linejoin:round; stroke-width:4; stroke-opacity:1; fill:none" points="1391.18,87.9763 1397.01,525.867 1402.85,817.253 1408.68,989.448 1414.52,1062.87 1420.35,1071.6 1426.19,1054.2 1432.02,1041.89 1437.86,1050.74 1443.69,1081.8 1449.53,1127.22 1455.36,1177.98 1461.2,1228.68 1467.03,1276.9 1472.87,1319.84 1478.7,1353.93 1484.54,1376.91 1490.37,1388.97 1496.21,1392.61 1502.04,1391.75 1507.88,1390.21 1513.71,1390.55 1519.55,1393.64 1525.38,1399.18 1531.21,1406.23 1537.05,1413.71 1542.88,1420.71 1548.72,1426.6 1554.55,1431.17 1560.39,1434.48 1566.22,1436.77 1572.06,1438.33 1577.89,1439.42 1583.73,1440.22 1589.56,1440.83 1595.4,1441.31 1601.23,1441.72 1607.07,1442.08 1612.9,1442.42 1618.74,1442.77 1624.57,1443.11 1630.41,1443.45 1636.24,1443.77 1642.08,1444.05 1647.91,1444.28 1653.75,1444.46 1659.58,1444.6 1665.42,1444.71 1671.25,1444.81 1677.09,1444.89 1682.92,1444.98 1688.75,1445.07 1694.59,1445.16 1700.42,1445.24 1706.26,1445.32 1712.09,1445.38 1717.93,1445.44 1723.76,1445.48 1729.6,1445.52 1735.43,1445.54 1741.27,1445.56 1747.1,1445.58 1752.94,1445.59 1758.77,1445.6 1764.61,1445.61 1770.44,1445.62 1776.28,1445.63 1782.11,1445.63 1787.95,1445.64 1793.78,1445.65 1799.62,1445.65 1805.45,1445.66 1811.29,1445.67 1817.12,1445.68 1822.96,1445.68 1828.79,1445.69 1834.62,1445.7 1840.46,1445.7 1846.29,1445.7 1852.13,1445.71 1857.96,1445.71 1863.8,1445.71 1869.63,1445.71 1875.47,1445.71 1881.3,1445.71 1887.14,1445.71 1892.97,1445.71 1898.81,1445.71 1904.64,1445.71 1910.48,1445.71 1916.31,1445.71 1922.15,1445.71 1927.98,1445.71 1933.82,1445.71 1939.65,1445.71 1945.49,1445.71 1951.32,1445.71 1957.16,1445.71 1962.99,1445.71 1968.83,1445.72 1974.66,1445.72 1980.5,1445.72 1986.33,1445.72 1992.16,1445.72 1998,1445.72 2003.83,1445.72 2009.67,1445.72 2015.5,1445.72 2021.34,1445.72 2027.17,1445.72 2033.01,1445.72 2038.84,1445.72 2044.68,1445.72 2050.51,1445.72 2056.35,1445.72 2062.18,1445.72 2068.02,1445.72 2073.85,1445.72 2079.69,1445.72 2085.52,1445.72 2091.36,1445.72 2097.19,1445.72 2103.03,1445.72 2108.86,1445.72 2114.7,1445.72 2120.53,1445.72 2126.37,1445.72 2132.2,1445.72 2138.03,1445.72 2143.87,1445.72 2149.7,1445.72 2155.54,1445.72 2161.37,1445.72 2167.21,1445.72 2173.04,1445.72 2178.88,1445.72 2184.71,1445.72 2190.55,1445.72 2196.38,1445.72 2202.22,1445.72 2208.05,1445.72 2213.89,1445.72 2219.72,1445.72 2225.56,1445.72 2231.39,1445.72 2237.23,1445.72 2243.06,1445.72 2248.9,1445.72 2254.73,1445.72 2260.57,1445.72 2266.4,1445.72 2272.24,1445.72 2278.07,1445.72 2283.91,1445.72 2289.74,1445.72 2295.57,1445.72 2301.41,1445.72 2307.24,1445.72 2313.08,1445.72 2318.91,1445.72 2324.75,1445.72 "/>
<path clip-path="url(#clip500)" d="M2085.4 198.898 L2319.77 198.898 L2319.77 95.2176 L2085.4 95.2176  Z" fill="#ffffff" fill-rule="evenodd" fill-opacity="1"/>
<polyline clip-path="url(#clip500)" style="stroke:#000000; stroke-linecap:round; stroke-linejoin:round; stroke-width:4; stroke-opacity:1; fill:none" points="2085.4,198.898 2319.77,198.898 2319.77,95.2176 2085.4,95.2176 2085.4,198.898 "/>
<polyline clip-path="url(#clip500)" style="stroke:#009af9; stroke-linecap:round; stroke-linejoin:round; stroke-width:4; stroke-opacity:1; fill:none" points="2096.39,147.058 2162.36,147.058 "/>
<path clip-path="url(#clip500)" d="M2191.78 139.176 L2191.78 143.203 Q2189.98 142.277 2188.03 141.815 Q2186.09 141.352 2184.01 141.352 Q2180.84 141.352 2179.24 142.324 Q2177.66 143.296 2177.66 145.24 Q2177.66 146.722 2178.8 147.578 Q2179.93 148.412 2183.36 149.176 L2184.82 149.5 Q2189.35 150.472 2191.25 152.254 Q2193.17 154.014 2193.17 157.185 Q2193.17 160.796 2190.3 162.902 Q2187.46 165.009 2182.46 165.009 Q2180.37 165.009 2178.1 164.592 Q2175.86 164.199 2173.36 163.388 L2173.36 158.99 Q2175.72 160.217 2178.01 160.842 Q2180.3 161.444 2182.55 161.444 Q2185.56 161.444 2187.18 160.426 Q2188.8 159.384 2188.8 157.509 Q2188.8 155.773 2187.62 154.847 Q2186.46 153.921 2182.5 153.064 L2181.02 152.717 Q2177.06 151.884 2175.3 150.171 Q2173.54 148.435 2173.54 145.426 Q2173.54 141.768 2176.14 139.778 Q2178.73 137.787 2183.5 137.787 Q2185.86 137.787 2187.94 138.134 Q2190.03 138.481 2191.78 139.176 Z" fill="#000000" fill-rule="nonzero" fill-opacity="1" /><path clip-path="url(#clip500)" d="M2204.17 131.051 L2204.17 138.412 L2212.94 138.412 L2212.94 141.722 L2204.17 141.722 L2204.17 155.796 Q2204.17 158.967 2205.02 159.87 Q2205.9 160.773 2208.57 160.773 L2212.94 160.773 L2212.94 164.338 L2208.57 164.338 Q2203.64 164.338 2201.76 162.509 Q2199.89 160.657 2199.89 155.796 L2199.89 141.722 L2196.76 141.722 L2196.76 138.412 L2199.89 138.412 L2199.89 131.051 L2204.17 131.051 Z" fill="#000000" fill-rule="nonzero" fill-opacity="1" /><path clip-path="url(#clip500)" d="M2233.57 142.393 Q2232.85 141.977 2231.99 141.791 Q2231.16 141.583 2230.14 141.583 Q2226.53 141.583 2224.59 143.944 Q2222.66 146.282 2222.66 150.68 L2222.66 164.338 L2218.38 164.338 L2218.38 138.412 L2222.66 138.412 L2222.66 142.44 Q2224.01 140.078 2226.16 138.944 Q2228.31 137.787 2231.39 137.787 Q2231.83 137.787 2232.36 137.856 Q2232.9 137.903 2233.54 138.018 L2233.57 142.393 Z" fill="#000000" fill-rule="nonzero" fill-opacity="1" /><path clip-path="url(#clip500)" d="M2259.17 150.31 L2259.17 152.393 L2239.58 152.393 Q2239.86 156.791 2242.22 159.106 Q2244.61 161.398 2248.84 161.398 Q2251.3 161.398 2253.59 160.796 Q2255.9 160.194 2258.17 158.99 L2258.17 163.018 Q2255.88 163.99 2253.47 164.5 Q2251.07 165.009 2248.59 165.009 Q2242.39 165.009 2238.75 161.398 Q2235.14 157.787 2235.14 151.629 Q2235.14 145.264 2238.57 141.537 Q2242.02 137.787 2247.85 137.787 Q2253.08 137.787 2256.11 141.166 Q2259.17 144.523 2259.17 150.31 M2254.91 149.06 Q2254.86 145.565 2252.94 143.481 Q2251.04 141.398 2247.9 141.398 Q2244.33 141.398 2242.18 143.412 Q2240.05 145.426 2239.72 149.083 L2254.91 149.06 Z" fill="#000000" fill-rule="nonzero" fill-opacity="1" /><path clip-path="url(#clip500)" d="M2282.69 139.176 L2282.69 143.203 Q2280.88 142.277 2278.94 141.815 Q2276.99 141.352 2274.91 141.352 Q2271.74 141.352 2270.14 142.324 Q2268.57 143.296 2268.57 145.24 Q2268.57 146.722 2269.7 147.578 Q2270.83 148.412 2274.26 149.176 L2275.72 149.5 Q2280.26 150.472 2282.15 152.254 Q2284.08 154.014 2284.08 157.185 Q2284.08 160.796 2281.21 162.902 Q2278.36 165.009 2273.36 165.009 Q2271.27 165.009 2269.01 164.592 Q2266.76 164.199 2264.26 163.388 L2264.26 158.99 Q2266.62 160.217 2268.91 160.842 Q2271.21 161.444 2273.45 161.444 Q2276.46 161.444 2278.08 160.426 Q2279.7 159.384 2279.7 157.509 Q2279.7 155.773 2278.52 154.847 Q2277.36 153.921 2273.4 153.064 L2271.92 152.717 Q2267.96 151.884 2266.21 150.171 Q2264.45 148.435 2264.45 145.426 Q2264.45 141.768 2267.04 139.778 Q2269.63 137.787 2274.4 137.787 Q2276.76 137.787 2278.84 138.134 Q2280.93 138.481 2282.69 139.176 Z" fill="#000000" fill-rule="nonzero" fill-opacity="1" /><path clip-path="url(#clip500)" d="M2307.39 139.176 L2307.39 143.203 Q2305.58 142.277 2303.64 141.815 Q2301.69 141.352 2299.61 141.352 Q2296.44 141.352 2294.84 142.324 Q2293.27 143.296 2293.27 145.24 Q2293.27 146.722 2294.4 147.578 Q2295.53 148.412 2298.96 149.176 L2300.42 149.5 Q2304.95 150.472 2306.85 152.254 Q2308.77 154.014 2308.77 157.185 Q2308.77 160.796 2305.9 162.902 Q2303.06 165.009 2298.06 165.009 Q2295.97 165.009 2293.71 164.592 Q2291.46 164.199 2288.96 163.388 L2288.96 158.99 Q2291.32 160.217 2293.61 160.842 Q2295.9 161.444 2298.15 161.444 Q2301.16 161.444 2302.78 160.426 Q2304.4 159.384 2304.4 157.509 Q2304.4 155.773 2303.22 154.847 Q2302.06 153.921 2298.1 153.064 L2296.62 152.717 Q2292.66 151.884 2290.9 150.171 Q2289.14 148.435 2289.14 145.426 Q2289.14 141.768 2291.74 139.778 Q2294.33 137.787 2299.1 137.787 Q2301.46 137.787 2303.54 138.134 Q2305.63 138.481 2307.39 139.176 Z" fill="#000000" fill-rule="nonzero" fill-opacity="1" /></svg>
