<?xml version="1.0" encoding="utf-8"?>
<svg xmlns="http://www.w3.org/2000/svg" xmlns:xlink="http://www.w3.org/1999/xlink" width="600" height="400" viewBox="0 0 2400 1600">
<defs>
  <clipPath id="clip880">
    <rect x="0" y="0" width="2400" height="1600"/>
  </clipPath>
</defs>
<path clip-path="url(#clip880)" d="M0 1600 L2400 1600 L2400 0 L0 0  Z" fill="#ffffff" fill-rule="evenodd" fill-opacity="1"/>
<defs>
  <clipPath id="clip881">
    <rect x="1401" y="47" width="952" height="1440"/>
  </clipPath>
</defs>
<path clip-path="url(#clip880)" d="M193.936 1486.45 L1145.21 1486.45 L1145.21 47.2441 L193.936 47.2441  Z" fill="#ffffff" fill-rule="evenodd" fill-opacity="1"/>
<defs>
  <clipPath id="clip882">
    <rect x="193" y="47" width="952" height="1440"/>
  </clipPath>
</defs>
<polyline clip-path="url(#clip882)" style="stroke:#000000; stroke-linecap:round; stroke-linejoin:round; stroke-width:2; stroke-opacity:0.1; fill:none" points="239.747,1486.45 239.747,47.2441 "/>
<polyline clip-path="url(#clip882)" style="stroke:#000000; stroke-linecap:round; stroke-linejoin:round; stroke-width:2; stroke-opacity:0.1; fill:none" points="433.052,1486.45 433.052,47.2441 "/>
<polyline clip-path="url(#clip882)" style="stroke:#000000; stroke-linecap:round; stroke-linejoin:round; stroke-width:2; stroke-opacity:0.1; fill:none" points="626.357,1486.45 626.357,47.2441 "/>
<polyline clip-path="url(#clip882)" style="stroke:#000000; stroke-linecap:round; stroke-linejoin:round; stroke-width:2; stroke-opacity:0.1; fill:none" points="819.662,1486.45 819.662,47.2441 "/>
<polyline clip-path="url(#clip882)" style="stroke:#000000; stroke-linecap:round; stroke-linejoin:round; stroke-width:2; stroke-opacity:0.1; fill:none" points="1012.97,1486.45 1012.97,47.2441 "/>
<polyline clip-path="url(#clip882)" style="stroke:#000000; stroke-linecap:round; stroke-linejoin:round; stroke-width:2; stroke-opacity:0.1; fill:none" points="193.936,1386.54 1145.21,1386.54 "/>
<polyline clip-path="url(#clip882)" style="stroke:#000000; stroke-linecap:round; stroke-linejoin:round; stroke-width:2; stroke-opacity:0.1; fill:none" points="193.936,1193.24 1145.21,1193.24 "/>
<polyline clip-path="url(#clip882)" style="stroke:#000000; stroke-linecap:round; stroke-linejoin:round; stroke-width:2; stroke-opacity:0.1; fill:none" points="193.936,999.934 1145.21,999.934 "/>
<polyline clip-path="url(#clip882)" style="stroke:#000000; stroke-linecap:round; stroke-linejoin:round; stroke-width:2; stroke-opacity:0.1; fill:none" points="193.936,806.629 1145.21,806.629 "/>
<polyline clip-path="url(#clip882)" style="stroke:#000000; stroke-linecap:round; stroke-linejoin:round; stroke-width:2; stroke-opacity:0.1; fill:none" points="193.936,613.324 1145.21,613.324 "/>
<polyline clip-path="url(#clip882)" style="stroke:#000000; stroke-linecap:round; stroke-linejoin:round; stroke-width:2; stroke-opacity:0.1; fill:none" points="193.936,420.019 1145.21,420.019 "/>
<polyline clip-path="url(#clip882)" style="stroke:#000000; stroke-linecap:round; stroke-linejoin:round; stroke-width:2; stroke-opacity:0.1; fill:none" points="193.936,226.714 1145.21,226.714 "/>
<polyline clip-path="url(#clip880)" style="stroke:#000000; stroke-linecap:round; stroke-linejoin:round; stroke-width:4; stroke-opacity:1; fill:none" points="193.936,1486.45 1145.21,1486.45 "/>
<polyline clip-path="url(#clip880)" style="stroke:#000000; stroke-linecap:round; stroke-linejoin:round; stroke-width:4; stroke-opacity:1; fill:none" points="239.747,1486.45 239.747,1467.55 "/>
<polyline clip-path="url(#clip880)" style="stroke:#000000; stroke-linecap:round; stroke-linejoin:round; stroke-width:4; stroke-opacity:1; fill:none" points="433.052,1486.45 433.052,1467.55 "/>
<polyline clip-path="url(#clip880)" style="stroke:#000000; stroke-linecap:round; stroke-linejoin:round; stroke-width:4; stroke-opacity:1; fill:none" points="626.357,1486.45 626.357,1467.55 "/>
<polyline clip-path="url(#clip880)" style="stroke:#000000; stroke-linecap:round; stroke-linejoin:round; stroke-width:4; stroke-opacity:1; fill:none" points="819.662,1486.45 819.662,1467.55 "/>
<polyline clip-path="url(#clip880)" style="stroke:#000000; stroke-linecap:round; stroke-linejoin:round; stroke-width:4; stroke-opacity:1; fill:none" points="1012.97,1486.45 1012.97,1467.55 "/>
<path clip-path="url(#clip880)" d="M186.275 1532.02 L215.951 1532.02 L215.951 1535.95 L186.275 1535.95 L186.275 1532.02 Z" fill="#000000" fill-rule="nonzero" fill-opacity="1" /><path clip-path="url(#clip880)" d="M226.09 1514.29 L244.446 1514.29 L244.446 1518.22 L230.372 1518.22 L230.372 1526.7 Q231.391 1526.35 232.409 1526.19 Q233.428 1526 234.446 1526 Q240.233 1526 243.613 1529.17 Q246.993 1532.34 246.993 1537.76 Q246.993 1543.34 243.52 1546.44 Q240.048 1549.52 233.729 1549.52 Q231.553 1549.52 229.284 1549.15 Q227.039 1548.78 224.632 1548.04 L224.632 1543.34 Q226.715 1544.47 228.937 1545.03 Q231.159 1545.58 233.636 1545.58 Q237.641 1545.58 239.979 1543.48 Q242.317 1541.37 242.317 1537.76 Q242.317 1534.15 239.979 1532.04 Q237.641 1529.94 233.636 1529.94 Q231.761 1529.94 229.886 1530.35 Q228.034 1530.77 226.09 1531.65 L226.09 1514.29 Z" fill="#000000" fill-rule="nonzero" fill-opacity="1" /><path clip-path="url(#clip880)" d="M256.206 1542.97 L261.09 1542.97 L261.09 1548.85 L256.206 1548.85 L256.206 1542.97 Z" fill="#000000" fill-rule="nonzero" fill-opacity="1" /><path clip-path="url(#clip880)" d="M281.275 1517.37 Q277.664 1517.37 275.835 1520.93 Q274.029 1524.47 274.029 1531.6 Q274.029 1538.71 275.835 1542.27 Q277.664 1545.82 281.275 1545.82 Q284.909 1545.82 286.715 1542.27 Q288.543 1538.71 288.543 1531.6 Q288.543 1524.47 286.715 1520.93 Q284.909 1517.37 281.275 1517.37 M281.275 1513.66 Q287.085 1513.66 290.141 1518.27 Q293.219 1522.85 293.219 1531.6 Q293.219 1540.33 290.141 1544.94 Q287.085 1549.52 281.275 1549.52 Q275.465 1549.52 272.386 1544.94 Q269.33 1540.33 269.33 1531.6 Q269.33 1522.85 272.386 1518.27 Q275.465 1513.66 281.275 1513.66 Z" fill="#000000" fill-rule="nonzero" fill-opacity="1" /><path clip-path="url(#clip880)" d="M380.078 1532.02 L409.754 1532.02 L409.754 1535.95 L380.078 1535.95 L380.078 1532.02 Z" fill="#000000" fill-rule="nonzero" fill-opacity="1" /><path clip-path="url(#clip880)" d="M423.874 1544.91 L440.193 1544.91 L440.193 1548.85 L418.249 1548.85 L418.249 1544.91 Q420.911 1542.16 425.494 1537.53 Q430.101 1532.88 431.281 1531.53 Q433.527 1529.01 434.406 1527.27 Q435.309 1525.51 435.309 1523.82 Q435.309 1521.07 433.365 1519.33 Q431.444 1517.6 428.342 1517.6 Q426.143 1517.6 423.689 1518.36 Q421.258 1519.13 418.481 1520.68 L418.481 1515.95 Q421.305 1514.82 423.758 1514.24 Q426.212 1513.66 428.249 1513.66 Q433.619 1513.66 436.814 1516.35 Q440.008 1519.03 440.008 1523.52 Q440.008 1525.65 439.198 1527.57 Q438.411 1529.47 436.305 1532.07 Q435.726 1532.74 432.624 1535.95 Q429.522 1539.15 423.874 1544.91 Z" fill="#000000" fill-rule="nonzero" fill-opacity="1" /><path clip-path="url(#clip880)" d="M450.008 1542.97 L454.892 1542.97 L454.892 1548.85 L450.008 1548.85 L450.008 1542.97 Z" fill="#000000" fill-rule="nonzero" fill-opacity="1" /><path clip-path="url(#clip880)" d="M465.124 1514.29 L483.48 1514.29 L483.48 1518.22 L469.406 1518.22 L469.406 1526.7 Q470.425 1526.35 471.443 1526.19 Q472.462 1526 473.48 1526 Q479.267 1526 482.647 1529.17 Q486.027 1532.34 486.027 1537.76 Q486.027 1543.34 482.554 1546.44 Q479.082 1549.52 472.763 1549.52 Q470.587 1549.52 468.318 1549.15 Q466.073 1548.78 463.666 1548.04 L463.666 1543.34 Q465.749 1544.47 467.971 1545.03 Q470.193 1545.58 472.67 1545.58 Q476.675 1545.58 479.013 1543.48 Q481.351 1541.37 481.351 1537.76 Q481.351 1534.15 479.013 1532.04 Q476.675 1529.94 472.67 1529.94 Q470.795 1529.94 468.92 1530.35 Q467.068 1530.77 465.124 1531.65 L465.124 1514.29 Z" fill="#000000" fill-rule="nonzero" fill-opacity="1" /><path clip-path="url(#clip880)" d="M603.742 1517.37 Q600.131 1517.37 598.302 1520.93 Q596.496 1524.47 596.496 1531.6 Q596.496 1538.71 598.302 1542.27 Q600.131 1545.82 603.742 1545.82 Q607.376 1545.82 609.182 1542.27 Q611.01 1538.71 611.01 1531.6 Q611.01 1524.47 609.182 1520.93 Q607.376 1517.37 603.742 1517.37 M603.742 1513.66 Q609.552 1513.66 612.607 1518.27 Q615.686 1522.85 615.686 1531.6 Q615.686 1540.33 612.607 1544.94 Q609.552 1549.52 603.742 1549.52 Q597.932 1549.52 594.853 1544.94 Q591.797 1540.33 591.797 1531.6 Q591.797 1522.85 594.853 1518.27 Q597.932 1513.66 603.742 1513.66 Z" fill="#000000" fill-rule="nonzero" fill-opacity="1" /><path clip-path="url(#clip880)" d="M623.904 1542.97 L628.788 1542.97 L628.788 1548.85 L623.904 1548.85 L623.904 1542.97 Z" fill="#000000" fill-rule="nonzero" fill-opacity="1" /><path clip-path="url(#clip880)" d="M648.973 1517.37 Q645.362 1517.37 643.533 1520.93 Q641.728 1524.47 641.728 1531.6 Q641.728 1538.71 643.533 1542.27 Q645.362 1545.82 648.973 1545.82 Q652.607 1545.82 654.413 1542.27 Q656.241 1538.71 656.241 1531.6 Q656.241 1524.47 654.413 1520.93 Q652.607 1517.37 648.973 1517.37 M648.973 1513.66 Q654.783 1513.66 657.839 1518.27 Q660.917 1522.85 660.917 1531.6 Q660.917 1540.33 657.839 1544.94 Q654.783 1549.52 648.973 1549.52 Q643.163 1549.52 640.084 1544.94 Q637.029 1540.33 637.029 1531.6 Q637.029 1522.85 640.084 1518.27 Q643.163 1513.66 648.973 1513.66 Z" fill="#000000" fill-rule="nonzero" fill-opacity="1" /><path clip-path="url(#clip880)" d="M791.399 1544.91 L807.718 1544.91 L807.718 1548.85 L785.774 1548.85 L785.774 1544.91 Q788.436 1542.16 793.019 1537.53 Q797.626 1532.88 798.806 1531.53 Q801.051 1529.01 801.931 1527.27 Q802.834 1525.51 802.834 1523.82 Q802.834 1521.07 800.889 1519.33 Q798.968 1517.6 795.866 1517.6 Q793.667 1517.6 791.214 1518.36 Q788.783 1519.13 786.005 1520.68 L786.005 1515.95 Q788.829 1514.82 791.283 1514.24 Q793.737 1513.66 795.774 1513.66 Q801.144 1513.66 804.338 1516.35 Q807.533 1519.03 807.533 1523.52 Q807.533 1525.65 806.723 1527.57 Q805.936 1529.47 803.829 1532.07 Q803.25 1532.74 800.149 1535.95 Q797.047 1539.15 791.399 1544.91 Z" fill="#000000" fill-rule="nonzero" fill-opacity="1" /><path clip-path="url(#clip880)" d="M817.533 1542.97 L822.417 1542.97 L822.417 1548.85 L817.533 1548.85 L817.533 1542.97 Z" fill="#000000" fill-rule="nonzero" fill-opacity="1" /><path clip-path="url(#clip880)" d="M832.648 1514.29 L851.005 1514.29 L851.005 1518.22 L836.931 1518.22 L836.931 1526.7 Q837.949 1526.35 838.968 1526.19 Q839.986 1526 841.005 1526 Q846.792 1526 850.172 1529.17 Q853.551 1532.34 853.551 1537.76 Q853.551 1543.34 850.079 1546.44 Q846.607 1549.52 840.287 1549.52 Q838.111 1549.52 835.843 1549.15 Q833.598 1548.78 831.19 1548.04 L831.19 1543.34 Q833.273 1544.47 835.496 1545.03 Q837.718 1545.58 840.195 1545.58 Q844.199 1545.58 846.537 1543.48 Q848.875 1541.37 848.875 1537.76 Q848.875 1534.15 846.537 1532.04 Q844.199 1529.94 840.195 1529.94 Q838.32 1529.94 836.445 1530.35 Q834.593 1530.77 832.648 1531.65 L832.648 1514.29 Z" fill="#000000" fill-rule="nonzero" fill-opacity="1" /><path clip-path="url(#clip880)" d="M980.132 1514.29 L998.488 1514.29 L998.488 1518.22 L984.414 1518.22 L984.414 1526.7 Q985.433 1526.35 986.451 1526.19 Q987.47 1526 988.488 1526 Q994.275 1526 997.655 1529.17 Q1001.03 1532.34 1001.03 1537.76 Q1001.03 1543.34 997.562 1546.44 Q994.09 1549.52 987.771 1549.52 Q985.595 1549.52 983.326 1549.15 Q981.081 1548.78 978.674 1548.04 L978.674 1543.34 Q980.757 1544.47 982.979 1545.03 Q985.201 1545.58 987.678 1545.58 Q991.683 1545.58 994.021 1543.48 Q996.359 1541.37 996.359 1537.76 Q996.359 1534.15 994.021 1532.04 Q991.683 1529.94 987.678 1529.94 Q985.803 1529.94 983.928 1530.35 Q982.076 1530.77 980.132 1531.65 L980.132 1514.29 Z" fill="#000000" fill-rule="nonzero" fill-opacity="1" /><path clip-path="url(#clip880)" d="M1010.25 1542.97 L1015.13 1542.97 L1015.13 1548.85 L1010.25 1548.85 L1010.25 1542.97 Z" fill="#000000" fill-rule="nonzero" fill-opacity="1" /><path clip-path="url(#clip880)" d="M1035.32 1517.37 Q1031.71 1517.37 1029.88 1520.93 Q1028.07 1524.47 1028.07 1531.6 Q1028.07 1538.71 1029.88 1542.27 Q1031.71 1545.82 1035.32 1545.82 Q1038.95 1545.82 1040.76 1542.27 Q1042.59 1538.71 1042.59 1531.6 Q1042.59 1524.47 1040.76 1520.93 Q1038.95 1517.37 1035.32 1517.37 M1035.32 1513.66 Q1041.13 1513.66 1044.18 1518.27 Q1047.26 1522.85 1047.26 1531.6 Q1047.26 1540.33 1044.18 1544.94 Q1041.13 1549.52 1035.32 1549.52 Q1029.51 1549.52 1026.43 1544.94 Q1023.37 1540.33 1023.37 1531.6 Q1023.37 1522.85 1026.43 1518.27 Q1029.51 1513.66 1035.32 1513.66 Z" fill="#000000" fill-rule="nonzero" fill-opacity="1" /><polyline clip-path="url(#clip880)" style="stroke:#000000; stroke-linecap:round; stroke-linejoin:round; stroke-width:4; stroke-opacity:1; fill:none" points="193.936,1486.45 193.936,47.2441 "/>
<polyline clip-path="url(#clip880)" style="stroke:#000000; stroke-linecap:round; stroke-linejoin:round; stroke-width:4; stroke-opacity:1; fill:none" points="193.936,1386.54 212.834,1386.54 "/>
<polyline clip-path="url(#clip880)" style="stroke:#000000; stroke-linecap:round; stroke-linejoin:round; stroke-width:4; stroke-opacity:1; fill:none" points="193.936,1193.24 212.834,1193.24 "/>
<polyline clip-path="url(#clip880)" style="stroke:#000000; stroke-linecap:round; stroke-linejoin:round; stroke-width:4; stroke-opacity:1; fill:none" points="193.936,999.934 212.834,999.934 "/>
<polyline clip-path="url(#clip880)" style="stroke:#000000; stroke-linecap:round; stroke-linejoin:round; stroke-width:4; stroke-opacity:1; fill:none" points="193.936,806.629 212.834,806.629 "/>
<polyline clip-path="url(#clip880)" style="stroke:#000000; stroke-linecap:round; stroke-linejoin:round; stroke-width:4; stroke-opacity:1; fill:none" points="193.936,613.324 212.834,613.324 "/>
<polyline clip-path="url(#clip880)" style="stroke:#000000; stroke-linecap:round; stroke-linejoin:round; stroke-width:4; stroke-opacity:1; fill:none" points="193.936,420.019 212.834,420.019 "/>
<polyline clip-path="url(#clip880)" style="stroke:#000000; stroke-linecap:round; stroke-linejoin:round; stroke-width:4; stroke-opacity:1; fill:none" points="193.936,226.714 212.834,226.714 "/>
<path clip-path="url(#clip880)" d="M51.9875 1387 L81.6633 1387 L81.6633 1390.93 L51.9875 1390.93 L51.9875 1387 Z" fill="#000000" fill-rule="nonzero" fill-opacity="1" /><path clip-path="url(#clip880)" d="M90.5752 1369.26 L112.797 1369.26 L112.797 1371.26 L100.251 1403.82 L95.3669 1403.82 L107.172 1373.2 L90.5752 1373.2 L90.5752 1369.26 Z" fill="#000000" fill-rule="nonzero" fill-opacity="1" /><path clip-path="url(#clip880)" d="M121.918 1397.94 L126.802 1397.94 L126.802 1403.82 L121.918 1403.82 L121.918 1397.94 Z" fill="#000000" fill-rule="nonzero" fill-opacity="1" /><path clip-path="url(#clip880)" d="M137.033 1369.26 L155.39 1369.26 L155.39 1373.2 L141.316 1373.2 L141.316 1381.67 Q142.334 1381.32 143.353 1381.16 Q144.371 1380.98 145.39 1380.98 Q151.177 1380.98 154.556 1384.15 Q157.936 1387.32 157.936 1392.74 Q157.936 1398.32 154.464 1401.42 Q150.992 1404.5 144.672 1404.5 Q142.496 1404.5 140.228 1404.13 Q137.982 1403.75 135.575 1403.01 L135.575 1398.32 Q137.658 1399.45 139.881 1400.01 Q142.103 1400.56 144.58 1400.56 Q148.584 1400.56 150.922 1398.45 Q153.26 1396.35 153.26 1392.74 Q153.26 1389.13 150.922 1387.02 Q148.584 1384.91 144.58 1384.91 Q142.705 1384.91 140.83 1385.33 Q138.978 1385.75 137.033 1386.63 L137.033 1369.26 Z" fill="#000000" fill-rule="nonzero" fill-opacity="1" /><path clip-path="url(#clip880)" d="M50.9921 1193.69 L80.6679 1193.69 L80.6679 1197.63 L50.9921 1197.63 L50.9921 1193.69 Z" fill="#000000" fill-rule="nonzero" fill-opacity="1" /><path clip-path="url(#clip880)" d="M90.8067 1175.96 L109.163 1175.96 L109.163 1179.89 L95.0891 1179.89 L95.0891 1188.37 Q96.1076 1188.02 97.1261 1187.86 Q98.1447 1187.67 99.1632 1187.67 Q104.95 1187.67 108.33 1190.84 Q111.709 1194.01 111.709 1199.43 Q111.709 1205.01 108.237 1208.11 Q104.765 1211.19 98.4456 1211.19 Q96.2697 1211.19 94.0012 1210.82 Q91.7558 1210.45 89.3484 1209.71 L89.3484 1205.01 Q91.4317 1206.14 93.6539 1206.7 Q95.8761 1207.26 98.353 1207.26 Q102.358 1207.26 104.696 1205.15 Q107.033 1203.04 107.033 1199.43 Q107.033 1195.82 104.696 1193.71 Q102.358 1191.61 98.353 1191.61 Q96.478 1191.61 94.603 1192.02 Q92.7512 1192.44 90.8067 1193.32 L90.8067 1175.96 Z" fill="#000000" fill-rule="nonzero" fill-opacity="1" /><path clip-path="url(#clip880)" d="M120.922 1204.64 L125.807 1204.64 L125.807 1210.52 L120.922 1210.52 L120.922 1204.64 Z" fill="#000000" fill-rule="nonzero" fill-opacity="1" /><path clip-path="url(#clip880)" d="M145.992 1179.04 Q142.381 1179.04 140.552 1182.6 Q138.746 1186.14 138.746 1193.27 Q138.746 1200.38 140.552 1203.95 Q142.381 1207.49 145.992 1207.49 Q149.626 1207.49 151.431 1203.95 Q153.26 1200.38 153.26 1193.27 Q153.26 1186.14 151.431 1182.6 Q149.626 1179.04 145.992 1179.04 M145.992 1175.33 Q151.802 1175.33 154.857 1179.94 Q157.936 1184.52 157.936 1193.27 Q157.936 1202 154.857 1206.61 Q151.802 1211.19 145.992 1211.19 Q140.181 1211.19 137.103 1206.61 Q134.047 1202 134.047 1193.27 Q134.047 1184.52 137.103 1179.94 Q140.181 1175.33 145.992 1175.33 Z" fill="#000000" fill-rule="nonzero" fill-opacity="1" /><path clip-path="url(#clip880)" d="M51.9875 1000.39 L81.6633 1000.39 L81.6633 1004.32 L51.9875 1004.32 L51.9875 1000.39 Z" fill="#000000" fill-rule="nonzero" fill-opacity="1" /><path clip-path="url(#clip880)" d="M95.7836 1013.28 L112.103 1013.28 L112.103 1017.21 L90.1586 1017.21 L90.1586 1013.28 Q92.8206 1010.52 97.4039 1005.89 Q102.01 1001.24 103.191 999.9 Q105.436 997.376 106.316 995.64 Q107.219 993.881 107.219 992.191 Q107.219 989.437 105.274 987.701 Q103.353 985.965 100.251 985.965 Q98.0521 985.965 95.5984 986.728 Q93.1678 987.492 90.3901 989.043 L90.3901 984.321 Q93.2141 983.187 95.6678 982.608 Q98.1215 982.029 100.159 982.029 Q105.529 982.029 108.723 984.715 Q111.918 987.4 111.918 991.89 Q111.918 994.02 111.108 995.941 Q110.321 997.839 108.214 1000.43 Q107.635 1001.1 104.534 1004.32 Q101.432 1007.52 95.7836 1013.28 Z" fill="#000000" fill-rule="nonzero" fill-opacity="1" /><path clip-path="url(#clip880)" d="M121.918 1011.33 L126.802 1011.33 L126.802 1017.21 L121.918 1017.21 L121.918 1011.33 Z" fill="#000000" fill-rule="nonzero" fill-opacity="1" /><path clip-path="url(#clip880)" d="M137.033 982.654 L155.39 982.654 L155.39 986.59 L141.316 986.59 L141.316 995.062 Q142.334 994.714 143.353 994.552 Q144.371 994.367 145.39 994.367 Q151.177 994.367 154.556 997.539 Q157.936 1000.71 157.936 1006.13 Q157.936 1011.71 154.464 1014.81 Q150.992 1017.89 144.672 1017.89 Q142.496 1017.89 140.228 1017.52 Q137.982 1017.14 135.575 1016.4 L135.575 1011.71 Q137.658 1012.84 139.881 1013.39 Q142.103 1013.95 144.58 1013.95 Q148.584 1013.95 150.922 1011.84 Q153.26 1009.74 153.26 1006.13 Q153.26 1002.52 150.922 1000.41 Q148.584 998.302 144.58 998.302 Q142.705 998.302 140.83 998.719 Q138.978 999.136 137.033 1000.02 L137.033 982.654 Z" fill="#000000" fill-rule="nonzero" fill-opacity="1" /><path clip-path="url(#clip880)" d="M100.76 792.428 Q97.1493 792.428 95.3206 795.993 Q93.515 799.534 93.515 806.664 Q93.515 813.77 95.3206 817.335 Q97.1493 820.877 100.76 820.877 Q104.395 820.877 106.2 817.335 Q108.029 813.77 108.029 806.664 Q108.029 799.534 106.2 795.993 Q104.395 792.428 100.76 792.428 M100.76 788.724 Q106.571 788.724 109.626 793.331 Q112.705 797.914 112.705 806.664 Q112.705 815.391 109.626 819.997 Q106.571 824.581 100.76 824.581 Q94.9502 824.581 91.8715 819.997 Q88.816 815.391 88.816 806.664 Q88.816 797.914 91.8715 793.331 Q94.9502 788.724 100.76 788.724 Z" fill="#000000" fill-rule="nonzero" fill-opacity="1" /><path clip-path="url(#clip880)" d="M120.922 818.03 L125.807 818.03 L125.807 823.909 L120.922 823.909 L120.922 818.03 Z" fill="#000000" fill-rule="nonzero" fill-opacity="1" /><path clip-path="url(#clip880)" d="M145.992 792.428 Q142.381 792.428 140.552 795.993 Q138.746 799.534 138.746 806.664 Q138.746 813.77 140.552 817.335 Q142.381 820.877 145.992 820.877 Q149.626 820.877 151.431 817.335 Q153.26 813.77 153.26 806.664 Q153.26 799.534 151.431 795.993 Q149.626 792.428 145.992 792.428 M145.992 788.724 Q151.802 788.724 154.857 793.331 Q157.936 797.914 157.936 806.664 Q157.936 815.391 154.857 819.997 Q151.802 824.581 145.992 824.581 Q140.181 824.581 137.103 819.997 Q134.047 815.391 134.047 806.664 Q134.047 797.914 137.103 793.331 Q140.181 788.724 145.992 788.724 Z" fill="#000000" fill-rule="nonzero" fill-opacity="1" /><path clip-path="url(#clip880)" d="M95.7836 626.669 L112.103 626.669 L112.103 630.604 L90.1586 630.604 L90.1586 626.669 Q92.8206 623.914 97.4039 619.285 Q102.01 614.632 103.191 613.29 Q105.436 610.766 106.316 609.03 Q107.219 607.271 107.219 605.581 Q107.219 602.827 105.274 601.091 Q103.353 599.354 100.251 599.354 Q98.0521 599.354 95.5984 600.118 Q93.1678 600.882 90.3901 602.433 L90.3901 597.711 Q93.2141 596.577 95.6678 595.998 Q98.1215 595.419 100.159 595.419 Q105.529 595.419 108.723 598.104 Q111.918 600.79 111.918 605.28 Q111.918 607.41 111.108 609.331 Q110.321 611.229 108.214 613.822 Q107.635 614.493 104.534 617.711 Q101.432 620.905 95.7836 626.669 Z" fill="#000000" fill-rule="nonzero" fill-opacity="1" /><path clip-path="url(#clip880)" d="M121.918 624.725 L126.802 624.725 L126.802 630.604 L121.918 630.604 L121.918 624.725 Z" fill="#000000" fill-rule="nonzero" fill-opacity="1" /><path clip-path="url(#clip880)" d="M137.033 596.044 L155.39 596.044 L155.39 599.979 L141.316 599.979 L141.316 608.452 Q142.334 608.104 143.353 607.942 Q144.371 607.757 145.39 607.757 Q151.177 607.757 154.556 610.928 Q157.936 614.1 157.936 619.516 Q157.936 625.095 154.464 628.197 Q150.992 631.276 144.672 631.276 Q142.496 631.276 140.228 630.905 Q137.982 630.535 135.575 629.794 L135.575 625.095 Q137.658 626.229 139.881 626.785 Q142.103 627.34 144.58 627.34 Q148.584 627.34 150.922 625.234 Q153.26 623.127 153.26 619.516 Q153.26 615.905 150.922 613.799 Q148.584 611.692 144.58 611.692 Q142.705 611.692 140.83 612.109 Q138.978 612.526 137.033 613.405 L137.033 596.044 Z" fill="#000000" fill-rule="nonzero" fill-opacity="1" /><path clip-path="url(#clip880)" d="M90.8067 402.739 L109.163 402.739 L109.163 406.674 L95.0891 406.674 L95.0891 415.147 Q96.1076 414.799 97.1261 414.637 Q98.1447 414.452 99.1632 414.452 Q104.95 414.452 108.33 417.623 Q111.709 420.795 111.709 426.211 Q111.709 431.79 108.237 434.892 Q104.765 437.97 98.4456 437.97 Q96.2697 437.97 94.0012 437.6 Q91.7558 437.23 89.3484 436.489 L89.3484 431.79 Q91.4317 432.924 93.6539 433.48 Q95.8761 434.035 98.353 434.035 Q102.358 434.035 104.696 431.929 Q107.033 429.822 107.033 426.211 Q107.033 422.6 104.696 420.494 Q102.358 418.387 98.353 418.387 Q96.478 418.387 94.603 418.804 Q92.7512 419.221 90.8067 420.1 L90.8067 402.739 Z" fill="#000000" fill-rule="nonzero" fill-opacity="1" /><path clip-path="url(#clip880)" d="M120.922 431.42 L125.807 431.42 L125.807 437.299 L120.922 437.299 L120.922 431.42 Z" fill="#000000" fill-rule="nonzero" fill-opacity="1" /><path clip-path="url(#clip880)" d="M145.992 405.818 Q142.381 405.818 140.552 409.383 Q138.746 412.924 138.746 420.054 Q138.746 427.16 140.552 430.725 Q142.381 434.267 145.992 434.267 Q149.626 434.267 151.431 430.725 Q153.26 427.16 153.26 420.054 Q153.26 412.924 151.431 409.383 Q149.626 405.818 145.992 405.818 M145.992 402.114 Q151.802 402.114 154.857 406.721 Q157.936 411.304 157.936 420.054 Q157.936 428.781 154.857 433.387 Q151.802 437.97 145.992 437.97 Q140.181 437.97 137.103 433.387 Q134.047 428.781 134.047 420.054 Q134.047 411.304 137.103 406.721 Q140.181 402.114 145.992 402.114 Z" fill="#000000" fill-rule="nonzero" fill-opacity="1" /><path clip-path="url(#clip880)" d="M90.5752 209.434 L112.797 209.434 L112.797 211.425 L100.251 243.994 L95.3669 243.994 L107.172 213.369 L90.5752 213.369 L90.5752 209.434 Z" fill="#000000" fill-rule="nonzero" fill-opacity="1" /><path clip-path="url(#clip880)" d="M121.918 238.115 L126.802 238.115 L126.802 243.994 L121.918 243.994 L121.918 238.115 Z" fill="#000000" fill-rule="nonzero" fill-opacity="1" /><path clip-path="url(#clip880)" d="M137.033 209.434 L155.39 209.434 L155.39 213.369 L141.316 213.369 L141.316 221.841 Q142.334 221.494 143.353 221.332 Q144.371 221.147 145.39 221.147 Q151.177 221.147 154.556 224.318 Q157.936 227.49 157.936 232.906 Q157.936 238.485 154.464 241.587 Q150.992 244.665 144.672 244.665 Q142.496 244.665 140.228 244.295 Q137.982 243.925 135.575 243.184 L135.575 238.485 Q137.658 239.619 139.881 240.175 Q142.103 240.73 144.58 240.73 Q148.584 240.73 150.922 238.624 Q153.26 236.517 153.26 232.906 Q153.26 229.295 150.922 227.189 Q148.584 225.082 144.58 225.082 Q142.705 225.082 140.83 225.499 Q138.978 225.916 137.033 226.795 L137.033 209.434 Z" fill="#000000" fill-rule="nonzero" fill-opacity="1" /><polyline clip-path="url(#clip882)" style="stroke:#000000; stroke-linecap:round; stroke-linejoin:round; stroke-width:4; stroke-opacity:1; fill:none" points="334.148,1072.01 224.843,881.144 "/>
<polyline clip-path="url(#clip882)" style="stroke:#000000; stroke-linecap:round; stroke-linejoin:round; stroke-width:4; stroke-opacity:1; fill:none" points="334.148,1072.01 526.292,1174.3 "/>
<polyline clip-path="url(#clip882)" style="stroke:#000000; stroke-linecap:round; stroke-linejoin:round; stroke-width:4; stroke-opacity:1; fill:none" points="334.148,1072.01 432.848,1071.5 "/>
<polyline clip-path="url(#clip882)" style="stroke:#000000; stroke-linecap:round; stroke-linejoin:round; stroke-width:4; stroke-opacity:1; fill:none" points="224.843,881.144 220.859,658.89 "/>
<polyline clip-path="url(#clip882)" style="stroke:#000000; stroke-linecap:round; stroke-linejoin:round; stroke-width:4; stroke-opacity:1; fill:none" points="224.843,881.144 328.289,886.863 "/>
<polyline clip-path="url(#clip882)" style="stroke:#000000; stroke-linecap:round; stroke-linejoin:round; stroke-width:4; stroke-opacity:1; fill:none" points="220.859,658.89 321.721,461.581 "/>
<polyline clip-path="url(#clip882)" style="stroke:#000000; stroke-linecap:round; stroke-linejoin:round; stroke-width:4; stroke-opacity:1; fill:none" points="220.859,658.89 323.239,678.621 "/>
<polyline clip-path="url(#clip882)" style="stroke:#000000; stroke-linecap:round; stroke-linejoin:round; stroke-width:4; stroke-opacity:1; fill:none" points="321.721,461.581 505.027,342.579 "/>
<polyline clip-path="url(#clip882)" style="stroke:#000000; stroke-linecap:round; stroke-linejoin:round; stroke-width:4; stroke-opacity:1; fill:none" points="321.721,461.581 419.46,493.784 "/>
<polyline clip-path="url(#clip882)" style="stroke:#000000; stroke-linecap:round; stroke-linejoin:round; stroke-width:4; stroke-opacity:1; fill:none" points="505.027,342.579 722.871,344.987 "/>
<polyline clip-path="url(#clip882)" style="stroke:#000000; stroke-linecap:round; stroke-linejoin:round; stroke-width:4; stroke-opacity:1; fill:none" points="505.027,342.579 595.851,374.846 "/>
<polyline clip-path="url(#clip882)" style="stroke:#000000; stroke-linecap:round; stroke-linejoin:round; stroke-width:4; stroke-opacity:1; fill:none" points="722.871,344.987 905.991,462.601 "/>
<polyline clip-path="url(#clip882)" style="stroke:#000000; stroke-linecap:round; stroke-linejoin:round; stroke-width:4; stroke-opacity:1; fill:none" points="722.871,344.987 813.65,354.928 "/>
<polyline clip-path="url(#clip882)" style="stroke:#000000; stroke-linecap:round; stroke-linejoin:round; stroke-width:4; stroke-opacity:1; fill:none" points="905.991,462.601 1011.01,645.941 "/>
<polyline clip-path="url(#clip882)" style="stroke:#000000; stroke-linecap:round; stroke-linejoin:round; stroke-width:4; stroke-opacity:1; fill:none" points="905.991,462.601 1005.2,458.577 "/>
<polyline clip-path="url(#clip882)" style="stroke:#000000; stroke-linecap:round; stroke-linejoin:round; stroke-width:4; stroke-opacity:1; fill:none" points="1011.01,645.941 1016.32,853.286 "/>
<polyline clip-path="url(#clip882)" style="stroke:#000000; stroke-linecap:round; stroke-linejoin:round; stroke-width:4; stroke-opacity:1; fill:none" points="1011.01,645.941 1114.36,650.259 "/>
<polyline clip-path="url(#clip882)" style="stroke:#000000; stroke-linecap:round; stroke-linejoin:round; stroke-width:4; stroke-opacity:1; fill:none" points="1016.32,853.286 920.088,1037.11 "/>
<polyline clip-path="url(#clip882)" style="stroke:#000000; stroke-linecap:round; stroke-linejoin:round; stroke-width:4; stroke-opacity:1; fill:none" points="1016.32,853.286 1118.29,873.2 "/>
<polyline clip-path="url(#clip882)" style="stroke:#000000; stroke-linecap:round; stroke-linejoin:round; stroke-width:4; stroke-opacity:1; fill:none" points="920.088,1037.11 743.761,1154.55 "/>
<polyline clip-path="url(#clip882)" style="stroke:#000000; stroke-linecap:round; stroke-linejoin:round; stroke-width:4; stroke-opacity:1; fill:none" points="920.088,1037.11 1017.17,1071.16 "/>
<polyline clip-path="url(#clip882)" style="stroke:#000000; stroke-linecap:round; stroke-linejoin:round; stroke-width:4; stroke-opacity:1; fill:none" points="743.761,1154.55 526.292,1174.3 "/>
<polyline clip-path="url(#clip882)" style="stroke:#000000; stroke-linecap:round; stroke-linejoin:round; stroke-width:4; stroke-opacity:1; fill:none" points="743.761,1154.55 833.803,1191.11 "/>
<polyline clip-path="url(#clip882)" style="stroke:#000000; stroke-linecap:round; stroke-linejoin:round; stroke-width:4; stroke-opacity:1; fill:none" points="526.292,1174.3 616.044,1190.16 "/>
<polyline clip-path="url(#clip882)" style="stroke:#000000; stroke-linecap:round; stroke-linejoin:round; stroke-width:4; stroke-opacity:1; fill:none" points="432.848,1071.5 328.289,886.863 "/>
<polyline clip-path="url(#clip882)" style="stroke:#000000; stroke-linecap:round; stroke-linejoin:round; stroke-width:4; stroke-opacity:1; fill:none" points="432.848,1071.5 616.044,1190.16 "/>
<polyline clip-path="url(#clip882)" style="stroke:#000000; stroke-linecap:round; stroke-linejoin:round; stroke-width:4; stroke-opacity:1; fill:none" points="328.289,886.863 323.239,678.621 "/>
<polyline clip-path="url(#clip882)" style="stroke:#000000; stroke-linecap:round; stroke-linejoin:round; stroke-width:4; stroke-opacity:1; fill:none" points="323.239,678.621 419.46,493.784 "/>
<polyline clip-path="url(#clip882)" style="stroke:#000000; stroke-linecap:round; stroke-linejoin:round; stroke-width:4; stroke-opacity:1; fill:none" points="419.46,493.784 595.851,374.846 "/>
<polyline clip-path="url(#clip882)" style="stroke:#000000; stroke-linecap:round; stroke-linejoin:round; stroke-width:4; stroke-opacity:1; fill:none" points="595.851,374.846 813.65,354.928 "/>
<polyline clip-path="url(#clip882)" style="stroke:#000000; stroke-linecap:round; stroke-linejoin:round; stroke-width:4; stroke-opacity:1; fill:none" points="813.65,354.928 1005.2,458.577 "/>
<polyline clip-path="url(#clip882)" style="stroke:#000000; stroke-linecap:round; stroke-linejoin:round; stroke-width:4; stroke-opacity:1; fill:none" points="1005.2,458.577 1114.36,650.259 "/>
<polyline clip-path="url(#clip882)" style="stroke:#000000; stroke-linecap:round; stroke-linejoin:round; stroke-width:4; stroke-opacity:1; fill:none" points="1114.36,650.259 1118.29,873.2 "/>
<polyline clip-path="url(#clip882)" style="stroke:#000000; stroke-linecap:round; stroke-linejoin:round; stroke-width:4; stroke-opacity:1; fill:none" points="1118.29,873.2 1017.17,1071.16 "/>
<polyline clip-path="url(#clip882)" style="stroke:#000000; stroke-linecap:round; stroke-linejoin:round; stroke-width:4; stroke-opacity:1; fill:none" points="1017.17,1071.16 833.803,1191.11 "/>
<polyline clip-path="url(#clip882)" style="stroke:#000000; stroke-linecap:round; stroke-linejoin:round; stroke-width:4; stroke-opacity:1; fill:none" points="833.803,1191.11 616.044,1190.16 "/>
<circle clip-path="url(#clip882)" cx="334.148" cy="1072.01" r="18" fill="#0000ff" fill-rule="evenodd" fill-opacity="1" stroke="#000000" stroke-opacity="1" stroke-width="3.2"/>
<circle clip-path="url(#clip882)" cx="224.843" cy="881.144" r="18" fill="#0000ff" fill-rule="evenodd" fill-opacity="1" stroke="#000000" stroke-opacity="1" stroke-width="3.2"/>
<circle clip-path="url(#clip882)" cx="220.859" cy="658.89" r="18" fill="#0000ff" fill-rule="evenodd" fill-opacity="1" stroke="#000000" stroke-opacity="1" stroke-width="3.2"/>
<circle clip-path="url(#clip882)" cx="321.721" cy="461.581" r="18" fill="#0000ff" fill-rule="evenodd" fill-opacity="1" stroke="#000000" stroke-opacity="1" stroke-width="3.2"/>
<circle clip-path="url(#clip882)" cx="505.027" cy="342.579" r="18" fill="#0000ff" fill-rule="evenodd" fill-opacity="1" stroke="#000000" stroke-opacity="1" stroke-width="3.2"/>
<circle clip-path="url(#clip882)" cx="722.871" cy="344.987" r="18" fill="#0000ff" fill-rule="evenodd" fill-opacity="1" stroke="#000000" stroke-opacity="1" stroke-width="3.2"/>
<circle clip-path="url(#clip882)" cx="905.991" cy="462.601" r="18" fill="#0000ff" fill-rule="evenodd" fill-opacity="1" stroke="#000000" stroke-opacity="1" stroke-width="3.2"/>
<circle clip-path="url(#clip882)" cx="1011.01" cy="645.941" r="18" fill="#0000ff" fill-rule="evenodd" fill-opacity="1" stroke="#000000" stroke-opacity="1" stroke-width="3.2"/>
<circle clip-path="url(#clip882)" cx="1016.32" cy="853.286" r="18" fill="#0000ff" fill-rule="evenodd" fill-opacity="1" stroke="#000000" stroke-opacity="1" stroke-width="3.2"/>
<circle clip-path="url(#clip882)" cx="920.088" cy="1037.11" r="18" fill="#0000ff" fill-rule="evenodd" fill-opacity="1" stroke="#000000" stroke-opacity="1" stroke-width="3.2"/>
<circle clip-path="url(#clip882)" cx="743.761" cy="1154.55" r="18" fill="#0000ff" fill-rule="evenodd" fill-opacity="1" stroke="#000000" stroke-opacity="1" stroke-width="3.2"/>
<circle clip-path="url(#clip882)" cx="526.292" cy="1174.3" r="18" fill="#0000ff" fill-rule="evenodd" fill-opacity="1" stroke="#000000" stroke-opacity="1" stroke-width="3.2"/>
<circle clip-path="url(#clip882)" cx="432.848" cy="1071.5" r="18" fill="#0000ff" fill-rule="evenodd" fill-opacity="1" stroke="#000000" stroke-opacity="1" stroke-width="3.2"/>
<circle clip-path="url(#clip882)" cx="328.289" cy="886.863" r="18" fill="#0000ff" fill-rule="evenodd" fill-opacity="1" stroke="#000000" stroke-opacity="1" stroke-width="3.2"/>
<circle clip-path="url(#clip882)" cx="323.239" cy="678.621" r="18" fill="#0000ff" fill-rule="evenodd" fill-opacity="1" stroke="#000000" stroke-opacity="1" stroke-width="3.2"/>
<circle clip-path="url(#clip882)" cx="419.46" cy="493.784" r="18" fill="#0000ff" fill-rule="evenodd" fill-opacity="1" stroke="#000000" stroke-opacity="1" stroke-width="3.2"/>
<circle clip-path="url(#clip882)" cx="595.851" cy="374.846" r="18" fill="#0000ff" fill-rule="evenodd" fill-opacity="1" stroke="#000000" stroke-opacity="1" stroke-width="3.2"/>
<circle clip-path="url(#clip882)" cx="813.65" cy="354.928" r="18" fill="#0000ff" fill-rule="evenodd" fill-opacity="1" stroke="#000000" stroke-opacity="1" stroke-width="3.2"/>
<circle clip-path="url(#clip882)" cx="1005.2" cy="458.577" r="18" fill="#0000ff" fill-rule="evenodd" fill-opacity="1" stroke="#000000" stroke-opacity="1" stroke-width="3.2"/>
<circle clip-path="url(#clip882)" cx="1114.36" cy="650.259" r="18" fill="#0000ff" fill-rule="evenodd" fill-opacity="1" stroke="#000000" stroke-opacity="1" stroke-width="3.2"/>
<circle clip-path="url(#clip882)" cx="1118.29" cy="873.2" r="18" fill="#0000ff" fill-rule="evenodd" fill-opacity="1" stroke="#000000" stroke-opacity="1" stroke-width="3.2"/>
<circle clip-path="url(#clip882)" cx="1017.17" cy="1071.16" r="18" fill="#0000ff" fill-rule="evenodd" fill-opacity="1" stroke="#000000" stroke-opacity="1" stroke-width="3.2"/>
<circle clip-path="url(#clip882)" cx="833.803" cy="1191.11" r="18" fill="#0000ff" fill-rule="evenodd" fill-opacity="1" stroke="#000000" stroke-opacity="1" stroke-width="3.2"/>
<circle clip-path="url(#clip882)" cx="616.044" cy="1190.16" r="18" fill="#0000ff" fill-rule="evenodd" fill-opacity="1" stroke="#000000" stroke-opacity="1" stroke-width="3.2"/>
<path clip-path="url(#clip880)" d="M1401.48 1486.45 L2352.76 1486.45 L2352.76 47.2441 L1401.48 47.2441  Z" fill="#ffffff" fill-rule="evenodd" fill-opacity="1"/>
<polyline clip-path="url(#clip881)" style="stroke:#000000; stroke-linecap:round; stroke-linejoin:round; stroke-width:2; stroke-opacity:0.1; fill:none" points="1427.71,1486.45 1427.71,47.2441 "/>
<polyline clip-path="url(#clip881)" style="stroke:#000000; stroke-linecap:round; stroke-linejoin:round; stroke-width:2; stroke-opacity:0.1; fill:none" points="1566.63,1486.45 1566.63,47.2441 "/>
<polyline clip-path="url(#clip881)" style="stroke:#000000; stroke-linecap:round; stroke-linejoin:round; stroke-width:2; stroke-opacity:0.1; fill:none" points="1705.55,1486.45 1705.55,47.2441 "/>
<polyline clip-path="url(#clip881)" style="stroke:#000000; stroke-linecap:round; stroke-linejoin:round; stroke-width:2; stroke-opacity:0.1; fill:none" points="1844.47,1486.45 1844.47,47.2441 "/>
<polyline clip-path="url(#clip881)" style="stroke:#000000; stroke-linecap:round; stroke-linejoin:round; stroke-width:2; stroke-opacity:0.1; fill:none" points="1983.39,1486.45 1983.39,47.2441 "/>
<polyline clip-path="url(#clip881)" style="stroke:#000000; stroke-linecap:round; stroke-linejoin:round; stroke-width:2; stroke-opacity:0.1; fill:none" points="2122.31,1486.45 2122.31,47.2441 "/>
<polyline clip-path="url(#clip881)" style="stroke:#000000; stroke-linecap:round; stroke-linejoin:round; stroke-width:2; stroke-opacity:0.1; fill:none" points="2261.23,1486.45 2261.23,47.2441 "/>
<polyline clip-path="url(#clip881)" style="stroke:#000000; stroke-linecap:round; stroke-linejoin:round; stroke-width:2; stroke-opacity:0.1; fill:none" points="1401.48,1411.14 2352.76,1411.14 "/>
<polyline clip-path="url(#clip881)" style="stroke:#000000; stroke-linecap:round; stroke-linejoin:round; stroke-width:2; stroke-opacity:0.1; fill:none" points="1401.48,1202.86 2352.76,1202.86 "/>
<polyline clip-path="url(#clip881)" style="stroke:#000000; stroke-linecap:round; stroke-linejoin:round; stroke-width:2; stroke-opacity:0.1; fill:none" points="1401.48,994.578 2352.76,994.578 "/>
<polyline clip-path="url(#clip881)" style="stroke:#000000; stroke-linecap:round; stroke-linejoin:round; stroke-width:2; stroke-opacity:0.1; fill:none" points="1401.48,786.296 2352.76,786.296 "/>
<polyline clip-path="url(#clip881)" style="stroke:#000000; stroke-linecap:round; stroke-linejoin:round; stroke-width:2; stroke-opacity:0.1; fill:none" points="1401.48,578.014 2352.76,578.014 "/>
<polyline clip-path="url(#clip881)" style="stroke:#000000; stroke-linecap:round; stroke-linejoin:round; stroke-width:2; stroke-opacity:0.1; fill:none" points="1401.48,369.733 2352.76,369.733 "/>
<polyline clip-path="url(#clip881)" style="stroke:#000000; stroke-linecap:round; stroke-linejoin:round; stroke-width:2; stroke-opacity:0.1; fill:none" points="1401.48,161.451 2352.76,161.451 "/>
<polyline clip-path="url(#clip880)" style="stroke:#000000; stroke-linecap:round; stroke-linejoin:round; stroke-width:4; stroke-opacity:1; fill:none" points="1401.48,1486.45 2352.76,1486.45 "/>
<polyline clip-path="url(#clip880)" style="stroke:#000000; stroke-linecap:round; stroke-linejoin:round; stroke-width:4; stroke-opacity:1; fill:none" points="1427.71,1486.45 1427.71,1467.55 "/>
<polyline clip-path="url(#clip880)" style="stroke:#000000; stroke-linecap:round; stroke-linejoin:round; stroke-width:4; stroke-opacity:1; fill:none" points="1566.63,1486.45 1566.63,1467.55 "/>
<polyline clip-path="url(#clip880)" style="stroke:#000000; stroke-linecap:round; stroke-linejoin:round; stroke-width:4; stroke-opacity:1; fill:none" points="1705.55,1486.45 1705.55,1467.55 "/>
<polyline clip-path="url(#clip880)" style="stroke:#000000; stroke-linecap:round; stroke-linejoin:round; stroke-width:4; stroke-opacity:1; fill:none" points="1844.47,1486.45 1844.47,1467.55 "/>
<polyline clip-path="url(#clip880)" style="stroke:#000000; stroke-linecap:round; stroke-linejoin:round; stroke-width:4; stroke-opacity:1; fill:none" points="1983.39,1486.45 1983.39,1467.55 "/>
<polyline clip-path="url(#clip880)" style="stroke:#000000; stroke-linecap:round; stroke-linejoin:round; stroke-width:4; stroke-opacity:1; fill:none" points="2122.31,1486.45 2122.31,1467.55 "/>
<polyline clip-path="url(#clip880)" style="stroke:#000000; stroke-linecap:round; stroke-linejoin:round; stroke-width:4; stroke-opacity:1; fill:none" points="2261.23,1486.45 2261.23,1467.55 "/>
<path clip-path="url(#clip880)" d="M1427.71 1517.37 Q1424.1 1517.37 1422.27 1520.93 Q1420.47 1524.47 1420.47 1531.6 Q1420.47 1538.71 1422.27 1542.27 Q1424.1 1545.82 1427.71 1545.82 Q1431.34 1545.82 1433.15 1542.27 Q1434.98 1538.71 1434.98 1531.6 Q1434.98 1524.47 1433.15 1520.93 Q1431.34 1517.37 1427.71 1517.37 M1427.71 1513.66 Q1433.52 1513.66 1436.58 1518.27 Q1439.65 1522.85 1439.65 1531.6 Q1439.65 1540.33 1436.58 1544.94 Q1433.52 1549.52 1427.71 1549.52 Q1421.9 1549.52 1418.82 1544.94 Q1415.77 1540.33 1415.77 1531.6 Q1415.77 1522.85 1418.82 1518.27 Q1421.9 1513.66 1427.71 1513.66 Z" fill="#000000" fill-rule="nonzero" fill-opacity="1" /><path clip-path="url(#clip880)" d="M1530.32 1544.91 L1546.64 1544.91 L1546.64 1548.85 L1524.7 1548.85 L1524.7 1544.91 Q1527.36 1542.16 1531.94 1537.53 Q1536.55 1532.88 1537.73 1531.53 Q1539.98 1529.01 1540.86 1527.27 Q1541.76 1525.51 1541.76 1523.82 Q1541.76 1521.07 1539.81 1519.33 Q1537.89 1517.6 1534.79 1517.6 Q1532.59 1517.6 1530.14 1518.36 Q1527.71 1519.13 1524.93 1520.68 L1524.93 1515.95 Q1527.75 1514.82 1530.21 1514.24 Q1532.66 1513.66 1534.7 1513.66 Q1540.07 1513.66 1543.26 1516.35 Q1546.46 1519.03 1546.46 1523.52 Q1546.46 1525.65 1545.65 1527.57 Q1544.86 1529.47 1542.75 1532.07 Q1542.18 1532.74 1539.07 1535.95 Q1535.97 1539.15 1530.32 1544.91 Z" fill="#000000" fill-rule="nonzero" fill-opacity="1" /><path clip-path="url(#clip880)" d="M1566.46 1517.37 Q1562.85 1517.37 1561.02 1520.93 Q1559.21 1524.47 1559.21 1531.6 Q1559.21 1538.71 1561.02 1542.27 Q1562.85 1545.82 1566.46 1545.82 Q1570.09 1545.82 1571.9 1542.27 Q1573.73 1538.71 1573.73 1531.6 Q1573.73 1524.47 1571.9 1520.93 Q1570.09 1517.37 1566.46 1517.37 M1566.46 1513.66 Q1572.27 1513.66 1575.32 1518.27 Q1578.4 1522.85 1578.4 1531.6 Q1578.4 1540.33 1575.32 1544.94 Q1572.27 1549.52 1566.46 1549.52 Q1560.65 1549.52 1557.57 1544.94 Q1554.51 1540.33 1554.51 1531.6 Q1554.51 1522.85 1557.57 1518.27 Q1560.65 1513.66 1566.46 1513.66 Z" fill="#000000" fill-rule="nonzero" fill-opacity="1" /><path clip-path="url(#clip880)" d="M1596.62 1517.37 Q1593.01 1517.37 1591.18 1520.93 Q1589.37 1524.47 1589.37 1531.6 Q1589.37 1538.71 1591.18 1542.27 Q1593.01 1545.82 1596.62 1545.82 Q1600.25 1545.82 1602.06 1542.27 Q1603.89 1538.71 1603.89 1531.6 Q1603.89 1524.47 1602.06 1520.93 Q1600.25 1517.37 1596.62 1517.37 M1596.62 1513.66 Q1602.43 1513.66 1605.49 1518.27 Q1608.56 1522.85 1608.56 1531.6 Q1608.56 1540.33 1605.49 1544.94 Q1602.43 1549.52 1596.62 1549.52 Q1590.81 1549.52 1587.73 1544.94 Q1584.68 1540.33 1584.68 1531.6 Q1584.68 1522.85 1587.73 1518.27 Q1590.81 1513.66 1596.62 1513.66 Z" fill="#000000" fill-rule="nonzero" fill-opacity="1" /><path clip-path="url(#clip880)" d="M1678.64 1518.36 L1666.84 1536.81 L1678.64 1536.81 L1678.64 1518.36 M1677.42 1514.29 L1683.3 1514.29 L1683.3 1536.81 L1688.23 1536.81 L1688.23 1540.7 L1683.3 1540.7 L1683.3 1548.85 L1678.64 1548.85 L1678.64 1540.7 L1663.04 1540.7 L1663.04 1536.19 L1677.42 1514.29 Z" fill="#000000" fill-rule="nonzero" fill-opacity="1" /><path clip-path="url(#clip880)" d="M1705.96 1517.37 Q1702.35 1517.37 1700.52 1520.93 Q1698.71 1524.47 1698.71 1531.6 Q1698.71 1538.71 1700.52 1542.27 Q1702.35 1545.82 1705.96 1545.82 Q1709.59 1545.82 1711.4 1542.27 Q1713.23 1538.71 1713.23 1531.6 Q1713.23 1524.47 1711.4 1520.93 Q1709.59 1517.37 1705.96 1517.37 M1705.96 1513.66 Q1711.77 1513.66 1714.82 1518.27 Q1717.9 1522.85 1717.9 1531.6 Q1717.9 1540.33 1714.82 1544.94 Q1711.77 1549.52 1705.96 1549.52 Q1700.15 1549.52 1697.07 1544.94 Q1694.01 1540.33 1694.01 1531.6 Q1694.01 1522.85 1697.07 1518.27 Q1700.15 1513.66 1705.96 1513.66 Z" fill="#000000" fill-rule="nonzero" fill-opacity="1" /><path clip-path="url(#clip880)" d="M1736.12 1517.37 Q1732.51 1517.37 1730.68 1520.93 Q1728.87 1524.47 1728.87 1531.6 Q1728.87 1538.71 1730.68 1542.27 Q1732.51 1545.82 1736.12 1545.82 Q1739.75 1545.82 1741.56 1542.27 Q1743.39 1538.71 1743.39 1531.6 Q1743.39 1524.47 1741.56 1520.93 Q1739.75 1517.37 1736.12 1517.37 M1736.12 1513.66 Q1741.93 1513.66 1744.98 1518.27 Q1748.06 1522.85 1748.06 1531.6 Q1748.06 1540.33 1744.98 1544.94 Q1741.93 1549.52 1736.12 1549.52 Q1730.31 1549.52 1727.23 1544.94 Q1724.17 1540.33 1724.17 1531.6 Q1724.17 1522.85 1727.23 1518.27 Q1730.31 1513.66 1736.12 1513.66 Z" fill="#000000" fill-rule="nonzero" fill-opacity="1" /><path clip-path="url(#clip880)" d="M1814.8 1529.7 Q1811.65 1529.7 1809.8 1531.86 Q1807.97 1534.01 1807.97 1537.76 Q1807.97 1541.49 1809.8 1543.66 Q1811.65 1545.82 1814.8 1545.82 Q1817.95 1545.82 1819.77 1543.66 Q1821.63 1541.49 1821.63 1537.76 Q1821.63 1534.01 1819.77 1531.86 Q1817.95 1529.7 1814.8 1529.7 M1824.08 1515.05 L1824.08 1519.31 Q1822.32 1518.48 1820.51 1518.04 Q1818.73 1517.6 1816.97 1517.6 Q1812.34 1517.6 1809.89 1520.72 Q1807.46 1523.85 1807.11 1530.17 Q1808.48 1528.15 1810.54 1527.09 Q1812.6 1526 1815.07 1526 Q1820.28 1526 1823.29 1529.17 Q1826.32 1532.32 1826.32 1537.76 Q1826.32 1543.08 1823.18 1546.3 Q1820.03 1549.52 1814.8 1549.52 Q1808.8 1549.52 1805.63 1544.94 Q1802.46 1540.33 1802.46 1531.6 Q1802.46 1523.41 1806.35 1518.55 Q1810.24 1513.66 1816.79 1513.66 Q1818.55 1513.66 1820.33 1514.01 Q1822.13 1514.36 1824.08 1515.05 Z" fill="#000000" fill-rule="nonzero" fill-opacity="1" /><path clip-path="url(#clip880)" d="M1844.38 1517.37 Q1840.77 1517.37 1838.94 1520.93 Q1837.13 1524.47 1837.13 1531.6 Q1837.13 1538.71 1838.94 1542.27 Q1840.77 1545.82 1844.38 1545.82 Q1848.01 1545.82 1849.82 1542.27 Q1851.65 1538.71 1851.65 1531.6 Q1851.65 1524.47 1849.82 1520.93 Q1848.01 1517.37 1844.38 1517.37 M1844.38 1513.66 Q1850.19 1513.66 1853.25 1518.27 Q1856.32 1522.85 1856.32 1531.6 Q1856.32 1540.33 1853.25 1544.94 Q1850.19 1549.52 1844.38 1549.52 Q1838.57 1549.52 1835.49 1544.94 Q1832.44 1540.33 1832.44 1531.6 Q1832.44 1522.85 1835.49 1518.27 Q1838.57 1513.66 1844.38 1513.66 Z" fill="#000000" fill-rule="nonzero" fill-opacity="1" /><path clip-path="url(#clip880)" d="M1874.54 1517.37 Q1870.93 1517.37 1869.1 1520.93 Q1867.3 1524.47 1867.3 1531.6 Q1867.3 1538.71 1869.1 1542.27 Q1870.93 1545.82 1874.54 1545.82 Q1878.18 1545.82 1879.98 1542.27 Q1881.81 1538.71 1881.81 1531.6 Q1881.81 1524.47 1879.98 1520.93 Q1878.18 1517.37 1874.54 1517.37 M1874.54 1513.66 Q1880.35 1513.66 1883.41 1518.27 Q1886.49 1522.85 1886.49 1531.6 Q1886.49 1540.33 1883.41 1544.94 Q1880.35 1549.52 1874.54 1549.52 Q1868.73 1549.52 1865.65 1544.94 Q1862.6 1540.33 1862.6 1531.6 Q1862.6 1522.85 1865.65 1518.27 Q1868.73 1513.66 1874.54 1513.66 Z" fill="#000000" fill-rule="nonzero" fill-opacity="1" /><path clip-path="url(#clip880)" d="M1953.19 1532.44 Q1949.85 1532.44 1947.93 1534.22 Q1946.03 1536 1946.03 1539.13 Q1946.03 1542.25 1947.93 1544.03 Q1949.85 1545.82 1953.19 1545.82 Q1956.52 1545.82 1958.44 1544.03 Q1960.36 1542.23 1960.36 1539.13 Q1960.36 1536 1958.44 1534.22 Q1956.54 1532.44 1953.19 1532.44 M1948.51 1530.45 Q1945.5 1529.7 1943.81 1527.64 Q1942.14 1525.58 1942.14 1522.62 Q1942.14 1518.48 1945.08 1516.07 Q1948.05 1513.66 1953.19 1513.66 Q1958.35 1513.66 1961.29 1516.07 Q1964.23 1518.48 1964.23 1522.62 Q1964.23 1525.58 1962.54 1527.64 Q1960.87 1529.7 1957.88 1530.45 Q1961.26 1531.23 1963.14 1533.52 Q1965.04 1535.82 1965.04 1539.13 Q1965.04 1544.15 1961.96 1546.83 Q1958.9 1549.52 1953.19 1549.52 Q1947.47 1549.52 1944.39 1546.83 Q1941.33 1544.15 1941.33 1539.13 Q1941.33 1535.82 1943.23 1533.52 Q1945.13 1531.23 1948.51 1530.45 M1946.8 1523.06 Q1946.8 1525.75 1948.46 1527.25 Q1950.15 1528.76 1953.19 1528.76 Q1956.19 1528.76 1957.88 1527.25 Q1959.6 1525.75 1959.6 1523.06 Q1959.6 1520.38 1957.88 1518.87 Q1956.19 1517.37 1953.19 1517.37 Q1950.15 1517.37 1948.46 1518.87 Q1946.8 1520.38 1946.8 1523.06 Z" fill="#000000" fill-rule="nonzero" fill-opacity="1" /><path clip-path="url(#clip880)" d="M1983.35 1517.37 Q1979.74 1517.37 1977.91 1520.93 Q1976.1 1524.47 1976.1 1531.6 Q1976.1 1538.71 1977.91 1542.27 Q1979.74 1545.82 1983.35 1545.82 Q1986.98 1545.82 1988.79 1542.27 Q1990.62 1538.71 1990.62 1531.6 Q1990.62 1524.47 1988.79 1520.93 Q1986.98 1517.37 1983.35 1517.37 M1983.35 1513.66 Q1989.16 1513.66 1992.21 1518.27 Q1995.29 1522.85 1995.29 1531.6 Q1995.29 1540.33 1992.21 1544.94 Q1989.16 1549.52 1983.35 1549.52 Q1977.54 1549.52 1974.46 1544.94 Q1971.4 1540.33 1971.4 1531.6 Q1971.4 1522.85 1974.46 1518.27 Q1977.54 1513.66 1983.35 1513.66 Z" fill="#000000" fill-rule="nonzero" fill-opacity="1" /><path clip-path="url(#clip880)" d="M2013.51 1517.37 Q2009.9 1517.37 2008.07 1520.93 Q2006.26 1524.47 2006.26 1531.6 Q2006.26 1538.71 2008.07 1542.27 Q2009.9 1545.82 2013.51 1545.82 Q2017.14 1545.82 2018.95 1542.27 Q2020.78 1538.71 2020.78 1531.6 Q2020.78 1524.47 2018.95 1520.93 Q2017.14 1517.37 2013.51 1517.37 M2013.51 1513.66 Q2019.32 1513.66 2022.37 1518.27 Q2025.45 1522.85 2025.45 1531.6 Q2025.45 1540.33 2022.37 1544.94 Q2019.32 1549.52 2013.51 1549.52 Q2007.7 1549.52 2004.62 1544.94 Q2001.56 1540.33 2001.56 1531.6 Q2001.56 1522.85 2004.62 1518.27 Q2007.7 1513.66 2013.51 1513.66 Z" fill="#000000" fill-rule="nonzero" fill-opacity="1" /><path clip-path="url(#clip880)" d="M2066.84 1544.91 L2074.48 1544.91 L2074.48 1518.55 L2066.17 1520.21 L2066.17 1515.95 L2074.43 1514.29 L2079.11 1514.29 L2079.11 1544.91 L2086.75 1544.91 L2086.75 1548.85 L2066.84 1548.85 L2066.84 1544.91 Z" fill="#000000" fill-rule="nonzero" fill-opacity="1" /><path clip-path="url(#clip880)" d="M2106.19 1517.37 Q2102.58 1517.37 2100.75 1520.93 Q2098.95 1524.47 2098.95 1531.6 Q2098.95 1538.71 2100.75 1542.27 Q2102.58 1545.82 2106.19 1545.82 Q2109.83 1545.82 2111.63 1542.27 Q2113.46 1538.71 2113.46 1531.6 Q2113.46 1524.47 2111.63 1520.93 Q2109.83 1517.37 2106.19 1517.37 M2106.19 1513.66 Q2112 1513.66 2115.06 1518.27 Q2118.14 1522.85 2118.14 1531.6 Q2118.14 1540.33 2115.06 1544.94 Q2112 1549.52 2106.19 1549.52 Q2100.38 1549.52 2097.3 1544.94 Q2094.25 1540.33 2094.25 1531.6 Q2094.25 1522.85 2097.3 1518.27 Q2100.38 1513.66 2106.19 1513.66 Z" fill="#000000" fill-rule="nonzero" fill-opacity="1" /><path clip-path="url(#clip880)" d="M2136.35 1517.37 Q2132.74 1517.37 2130.91 1520.93 Q2129.11 1524.47 2129.11 1531.6 Q2129.11 1538.71 2130.91 1542.27 Q2132.74 1545.82 2136.35 1545.82 Q2139.99 1545.82 2141.79 1542.27 Q2143.62 1538.71 2143.62 1531.6 Q2143.62 1524.47 2141.79 1520.93 Q2139.99 1517.37 2136.35 1517.37 M2136.35 1513.66 Q2142.16 1513.66 2145.22 1518.27 Q2148.3 1522.85 2148.3 1531.6 Q2148.3 1540.33 2145.22 1544.94 Q2142.16 1549.52 2136.35 1549.52 Q2130.54 1549.52 2127.46 1544.94 Q2124.41 1540.33 2124.41 1531.6 Q2124.41 1522.85 2127.46 1518.27 Q2130.54 1513.66 2136.35 1513.66 Z" fill="#000000" fill-rule="nonzero" fill-opacity="1" /><path clip-path="url(#clip880)" d="M2166.52 1517.37 Q2162.9 1517.37 2161.08 1520.93 Q2159.27 1524.47 2159.27 1531.6 Q2159.27 1538.71 2161.08 1542.27 Q2162.9 1545.82 2166.52 1545.82 Q2170.15 1545.82 2171.96 1542.27 Q2173.78 1538.71 2173.78 1531.6 Q2173.78 1524.47 2171.96 1520.93 Q2170.15 1517.37 2166.52 1517.37 M2166.52 1513.66 Q2172.33 1513.66 2175.38 1518.27 Q2178.46 1522.85 2178.46 1531.6 Q2178.46 1540.33 2175.38 1544.94 Q2172.33 1549.52 2166.52 1549.52 Q2160.71 1549.52 2157.63 1544.94 Q2154.57 1540.33 2154.57 1531.6 Q2154.57 1522.85 2157.63 1518.27 Q2160.71 1513.66 2166.52 1513.66 Z" fill="#000000" fill-rule="nonzero" fill-opacity="1" /><path clip-path="url(#clip880)" d="M2205.76 1544.91 L2213.4 1544.91 L2213.4 1518.55 L2205.09 1520.21 L2205.09 1515.95 L2213.35 1514.29 L2218.03 1514.29 L2218.03 1544.91 L2225.67 1544.91 L2225.67 1548.85 L2205.76 1548.85 L2205.76 1544.91 Z" fill="#000000" fill-rule="nonzero" fill-opacity="1" /><path clip-path="url(#clip880)" d="M2239.14 1544.91 L2255.46 1544.91 L2255.46 1548.85 L2233.52 1548.85 L2233.52 1544.91 Q2236.18 1542.16 2240.76 1537.53 Q2245.37 1532.88 2246.55 1531.53 Q2248.79 1529.01 2249.67 1527.27 Q2250.58 1525.51 2250.58 1523.82 Q2250.58 1521.07 2248.63 1519.33 Q2246.71 1517.6 2243.61 1517.6 Q2241.41 1517.6 2238.95 1518.36 Q2236.52 1519.13 2233.75 1520.68 L2233.75 1515.95 Q2236.57 1514.82 2239.02 1514.24 Q2241.48 1513.66 2243.52 1513.66 Q2248.89 1513.66 2252.08 1516.35 Q2255.27 1519.03 2255.27 1523.52 Q2255.27 1525.65 2254.46 1527.57 Q2253.68 1529.47 2251.57 1532.07 Q2250.99 1532.74 2247.89 1535.95 Q2244.79 1539.15 2239.14 1544.91 Z" fill="#000000" fill-rule="nonzero" fill-opacity="1" /><path clip-path="url(#clip880)" d="M2275.27 1517.37 Q2271.66 1517.37 2269.83 1520.93 Q2268.03 1524.47 2268.03 1531.6 Q2268.03 1538.71 2269.83 1542.27 Q2271.66 1545.82 2275.27 1545.82 Q2278.91 1545.82 2280.71 1542.27 Q2282.54 1538.71 2282.54 1531.6 Q2282.54 1524.47 2280.71 1520.93 Q2278.91 1517.37 2275.27 1517.37 M2275.27 1513.66 Q2281.08 1513.66 2284.14 1518.27 Q2287.22 1522.85 2287.22 1531.6 Q2287.22 1540.33 2284.14 1544.94 Q2281.08 1549.52 2275.27 1549.52 Q2269.46 1549.52 2266.39 1544.94 Q2263.33 1540.33 2263.33 1531.6 Q2263.33 1522.85 2266.39 1518.27 Q2269.46 1513.66 2275.27 1513.66 Z" fill="#000000" fill-rule="nonzero" fill-opacity="1" /><path clip-path="url(#clip880)" d="M2305.44 1517.37 Q2301.82 1517.37 2300 1520.93 Q2298.19 1524.47 2298.19 1531.6 Q2298.19 1538.71 2300 1542.27 Q2301.82 1545.82 2305.44 1545.82 Q2309.07 1545.82 2310.88 1542.27 Q2312.7 1538.71 2312.7 1531.6 Q2312.7 1524.47 2310.88 1520.93 Q2309.07 1517.37 2305.44 1517.37 M2305.44 1513.66 Q2311.25 1513.66 2314.3 1518.27 Q2317.38 1522.85 2317.38 1531.6 Q2317.38 1540.33 2314.3 1544.94 Q2311.25 1549.52 2305.44 1549.52 Q2299.63 1549.52 2296.55 1544.94 Q2293.49 1540.33 2293.49 1531.6 Q2293.49 1522.85 2296.55 1518.27 Q2299.63 1513.66 2305.44 1513.66 Z" fill="#000000" fill-rule="nonzero" fill-opacity="1" /><polyline clip-path="url(#clip880)" style="stroke:#000000; stroke-linecap:round; stroke-linejoin:round; stroke-width:4; stroke-opacity:1; fill:none" points="1401.48,1486.45 1401.48,47.2441 "/>
<polyline clip-path="url(#clip880)" style="stroke:#000000; stroke-linecap:round; stroke-linejoin:round; stroke-width:4; stroke-opacity:1; fill:none" points="1401.48,1411.14 1420.38,1411.14 "/>
<polyline clip-path="url(#clip880)" style="stroke:#000000; stroke-linecap:round; stroke-linejoin:round; stroke-width:4; stroke-opacity:1; fill:none" points="1401.48,1202.86 1420.38,1202.86 "/>
<polyline clip-path="url(#clip880)" style="stroke:#000000; stroke-linecap:round; stroke-linejoin:round; stroke-width:4; stroke-opacity:1; fill:none" points="1401.48,994.578 1420.38,994.578 "/>
<polyline clip-path="url(#clip880)" style="stroke:#000000; stroke-linecap:round; stroke-linejoin:round; stroke-width:4; stroke-opacity:1; fill:none" points="1401.48,786.296 1420.38,786.296 "/>
<polyline clip-path="url(#clip880)" style="stroke:#000000; stroke-linecap:round; stroke-linejoin:round; stroke-width:4; stroke-opacity:1; fill:none" points="1401.48,578.014 1420.38,578.014 "/>
<polyline clip-path="url(#clip880)" style="stroke:#000000; stroke-linecap:round; stroke-linejoin:round; stroke-width:4; stroke-opacity:1; fill:none" points="1401.48,369.733 1420.38,369.733 "/>
<polyline clip-path="url(#clip880)" style="stroke:#000000; stroke-linecap:round; stroke-linejoin:round; stroke-width:4; stroke-opacity:1; fill:none" points="1401.48,161.451 1420.38,161.451 "/>
<path clip-path="url(#clip880)" d="M1243.45 1411.59 L1273.12 1411.59 L1273.12 1415.53 L1243.45 1415.53 L1243.45 1411.59 Z" fill="#000000" fill-rule="nonzero" fill-opacity="1" /><path clip-path="url(#clip880)" d="M1296.06 1397.94 L1284.26 1416.38 L1296.06 1416.38 L1296.06 1397.94 M1294.83 1393.86 L1300.71 1393.86 L1300.71 1416.38 L1305.64 1416.38 L1305.64 1420.27 L1300.71 1420.27 L1300.71 1428.42 L1296.06 1428.42 L1296.06 1420.27 L1280.46 1420.27 L1280.46 1415.76 L1294.83 1393.86 Z" fill="#000000" fill-rule="nonzero" fill-opacity="1" /><path clip-path="url(#clip880)" d="M1323.38 1396.94 Q1319.76 1396.94 1317.94 1400.51 Q1316.13 1404.05 1316.13 1411.18 Q1316.13 1418.28 1317.94 1421.85 Q1319.76 1425.39 1323.38 1425.39 Q1327.01 1425.39 1328.82 1421.85 Q1330.64 1418.28 1330.64 1411.18 Q1330.64 1404.05 1328.82 1400.51 Q1327.01 1396.94 1323.38 1396.94 M1323.38 1393.24 Q1329.19 1393.24 1332.24 1397.84 Q1335.32 1402.43 1335.32 1411.18 Q1335.32 1419.9 1332.24 1424.51 Q1329.19 1429.09 1323.38 1429.09 Q1317.57 1429.09 1314.49 1424.51 Q1311.43 1419.9 1311.43 1411.18 Q1311.43 1402.43 1314.49 1397.84 Q1317.57 1393.24 1323.38 1393.24 Z" fill="#000000" fill-rule="nonzero" fill-opacity="1" /><path clip-path="url(#clip880)" d="M1353.54 1396.94 Q1349.93 1396.94 1348.1 1400.51 Q1346.29 1404.05 1346.29 1411.18 Q1346.29 1418.28 1348.1 1421.85 Q1349.93 1425.39 1353.54 1425.39 Q1357.17 1425.39 1358.98 1421.85 Q1360.81 1418.28 1360.81 1411.18 Q1360.81 1404.05 1358.98 1400.51 Q1357.17 1396.94 1353.54 1396.94 M1353.54 1393.24 Q1359.35 1393.24 1362.4 1397.84 Q1365.48 1402.43 1365.48 1411.18 Q1365.48 1419.9 1362.4 1424.51 Q1359.35 1429.09 1353.54 1429.09 Q1347.73 1429.09 1344.65 1424.51 Q1341.59 1419.9 1341.59 1411.18 Q1341.59 1402.43 1344.65 1397.84 Q1347.73 1393.24 1353.54 1393.24 Z" fill="#000000" fill-rule="nonzero" fill-opacity="1" /><path clip-path="url(#clip880)" d="M1243.45 1203.31 L1273.12 1203.31 L1273.12 1207.25 L1243.45 1207.25 L1243.45 1203.31 Z" fill="#000000" fill-rule="nonzero" fill-opacity="1" /><path clip-path="url(#clip880)" d="M1297.38 1201.51 Q1300.74 1202.22 1302.61 1204.49 Q1304.51 1206.76 1304.51 1210.09 Q1304.51 1215.21 1300.99 1218.01 Q1297.47 1220.81 1290.99 1220.81 Q1288.82 1220.81 1286.5 1220.37 Q1284.21 1219.95 1281.76 1219.1 L1281.76 1214.58 Q1283.7 1215.72 1286.02 1216.3 Q1288.33 1216.88 1290.85 1216.88 Q1295.25 1216.88 1297.54 1215.14 Q1299.86 1213.4 1299.86 1210.09 Q1299.86 1207.04 1297.7 1205.33 Q1295.58 1203.59 1291.76 1203.59 L1287.73 1203.59 L1287.73 1199.75 L1291.94 1199.75 Q1295.39 1199.75 1297.22 1198.38 Q1299.05 1196.99 1299.05 1194.4 Q1299.05 1191.74 1297.15 1190.33 Q1295.27 1188.89 1291.76 1188.89 Q1289.83 1188.89 1287.64 1189.31 Q1285.44 1189.72 1282.8 1190.6 L1282.8 1186.44 Q1285.46 1185.7 1287.77 1185.33 Q1290.11 1184.95 1292.17 1184.95 Q1297.5 1184.95 1300.6 1187.39 Q1303.7 1189.79 1303.7 1193.91 Q1303.7 1196.78 1302.06 1198.77 Q1300.41 1200.74 1297.38 1201.51 Z" fill="#000000" fill-rule="nonzero" fill-opacity="1" /><path clip-path="url(#clip880)" d="M1323.38 1188.66 Q1319.76 1188.66 1317.94 1192.22 Q1316.13 1195.77 1316.13 1202.89 Q1316.13 1210 1317.94 1213.57 Q1319.76 1217.11 1323.38 1217.11 Q1327.01 1217.11 1328.82 1213.57 Q1330.64 1210 1330.64 1202.89 Q1330.64 1195.77 1328.82 1192.22 Q1327.01 1188.66 1323.38 1188.66 M1323.38 1184.95 Q1329.19 1184.95 1332.24 1189.56 Q1335.32 1194.14 1335.32 1202.89 Q1335.32 1211.62 1332.24 1216.23 Q1329.19 1220.81 1323.38 1220.81 Q1317.57 1220.81 1314.49 1216.23 Q1311.43 1211.62 1311.43 1202.89 Q1311.43 1194.14 1314.49 1189.56 Q1317.57 1184.95 1323.38 1184.95 Z" fill="#000000" fill-rule="nonzero" fill-opacity="1" /><path clip-path="url(#clip880)" d="M1353.54 1188.66 Q1349.93 1188.66 1348.1 1192.22 Q1346.29 1195.77 1346.29 1202.89 Q1346.29 1210 1348.1 1213.57 Q1349.93 1217.11 1353.54 1217.11 Q1357.17 1217.11 1358.98 1213.57 Q1360.81 1210 1360.81 1202.89 Q1360.81 1195.77 1358.98 1192.22 Q1357.17 1188.66 1353.54 1188.66 M1353.54 1184.95 Q1359.35 1184.95 1362.4 1189.56 Q1365.48 1194.14 1365.48 1202.89 Q1365.48 1211.62 1362.4 1216.23 Q1359.35 1220.81 1353.54 1220.81 Q1347.73 1220.81 1344.65 1216.23 Q1341.59 1211.62 1341.59 1202.89 Q1341.59 1194.14 1344.65 1189.56 Q1347.73 1184.95 1353.54 1184.95 Z" fill="#000000" fill-rule="nonzero" fill-opacity="1" /><path clip-path="url(#clip880)" d="M1243.45 995.029 L1273.12 995.029 L1273.12 998.965 L1243.45 998.965 L1243.45 995.029 Z" fill="#000000" fill-rule="nonzero" fill-opacity="1" /><path clip-path="url(#clip880)" d="M1287.24 1007.92 L1303.56 1007.92 L1303.56 1011.86 L1281.62 1011.86 L1281.62 1007.92 Q1284.28 1005.17 1288.86 1000.54 Q1293.47 995.886 1294.65 994.543 Q1296.89 992.02 1297.77 990.284 Q1298.68 988.525 1298.68 986.835 Q1298.68 984.08 1296.73 982.344 Q1294.81 980.608 1291.71 980.608 Q1289.51 980.608 1287.06 981.372 Q1284.63 982.136 1281.85 983.687 L1281.85 978.965 Q1284.67 977.83 1287.13 977.252 Q1289.58 976.673 1291.62 976.673 Q1296.99 976.673 1300.18 979.358 Q1303.38 982.043 1303.38 986.534 Q1303.38 988.664 1302.57 990.585 Q1301.78 992.483 1299.67 995.076 Q1299.09 995.747 1295.99 998.965 Q1292.89 1002.16 1287.24 1007.92 Z" fill="#000000" fill-rule="nonzero" fill-opacity="1" /><path clip-path="url(#clip880)" d="M1323.38 980.377 Q1319.76 980.377 1317.94 983.942 Q1316.13 987.483 1316.13 994.613 Q1316.13 1001.72 1317.94 1005.28 Q1319.76 1008.83 1323.38 1008.83 Q1327.01 1008.83 1328.82 1005.28 Q1330.64 1001.72 1330.64 994.613 Q1330.64 987.483 1328.82 983.942 Q1327.01 980.377 1323.38 980.377 M1323.38 976.673 Q1329.19 976.673 1332.24 981.28 Q1335.32 985.863 1335.32 994.613 Q1335.32 1003.34 1332.24 1007.95 Q1329.19 1012.53 1323.38 1012.53 Q1317.57 1012.53 1314.49 1007.95 Q1311.43 1003.34 1311.43 994.613 Q1311.43 985.863 1314.49 981.28 Q1317.57 976.673 1323.38 976.673 Z" fill="#000000" fill-rule="nonzero" fill-opacity="1" /><path clip-path="url(#clip880)" d="M1353.54 980.377 Q1349.93 980.377 1348.1 983.942 Q1346.29 987.483 1346.29 994.613 Q1346.29 1001.72 1348.1 1005.28 Q1349.93 1008.83 1353.54 1008.83 Q1357.17 1008.83 1358.98 1005.28 Q1360.81 1001.72 1360.81 994.613 Q1360.81 987.483 1358.98 983.942 Q1357.17 980.377 1353.54 980.377 M1353.54 976.673 Q1359.35 976.673 1362.4 981.28 Q1365.48 985.863 1365.48 994.613 Q1365.48 1003.34 1362.4 1007.95 Q1359.35 1012.53 1353.54 1012.53 Q1347.73 1012.53 1344.65 1007.95 Q1341.59 1003.34 1341.59 994.613 Q1341.59 985.863 1344.65 981.28 Q1347.73 976.673 1353.54 976.673 Z" fill="#000000" fill-rule="nonzero" fill-opacity="1" /><path clip-path="url(#clip880)" d="M1243.45 786.748 L1273.12 786.748 L1273.12 790.683 L1243.45 790.683 L1243.45 786.748 Z" fill="#000000" fill-rule="nonzero" fill-opacity="1" /><path clip-path="url(#clip880)" d="M1284.02 799.641 L1291.66 799.641 L1291.66 773.276 L1283.35 774.942 L1283.35 770.683 L1291.62 769.016 L1296.29 769.016 L1296.29 799.641 L1303.93 799.641 L1303.93 803.576 L1284.02 803.576 L1284.02 799.641 Z" fill="#000000" fill-rule="nonzero" fill-opacity="1" /><path clip-path="url(#clip880)" d="M1323.38 772.095 Q1319.76 772.095 1317.94 775.66 Q1316.13 779.201 1316.13 786.331 Q1316.13 793.437 1317.94 797.002 Q1319.76 800.544 1323.38 800.544 Q1327.01 800.544 1328.82 797.002 Q1330.64 793.437 1330.64 786.331 Q1330.64 779.201 1328.82 775.66 Q1327.01 772.095 1323.38 772.095 M1323.38 768.391 Q1329.19 768.391 1332.24 772.998 Q1335.32 777.581 1335.32 786.331 Q1335.32 795.058 1332.24 799.664 Q1329.19 804.248 1323.38 804.248 Q1317.57 804.248 1314.49 799.664 Q1311.43 795.058 1311.43 786.331 Q1311.43 777.581 1314.49 772.998 Q1317.57 768.391 1323.38 768.391 Z" fill="#000000" fill-rule="nonzero" fill-opacity="1" /><path clip-path="url(#clip880)" d="M1353.54 772.095 Q1349.93 772.095 1348.1 775.66 Q1346.29 779.201 1346.29 786.331 Q1346.29 793.437 1348.1 797.002 Q1349.93 800.544 1353.54 800.544 Q1357.17 800.544 1358.98 797.002 Q1360.81 793.437 1360.81 786.331 Q1360.81 779.201 1358.98 775.66 Q1357.17 772.095 1353.54 772.095 M1353.54 768.391 Q1359.35 768.391 1362.4 772.998 Q1365.48 777.581 1365.48 786.331 Q1365.48 795.058 1362.4 799.664 Q1359.35 804.248 1353.54 804.248 Q1347.73 804.248 1344.65 799.664 Q1341.59 795.058 1341.59 786.331 Q1341.59 777.581 1344.65 772.998 Q1347.73 768.391 1353.54 768.391 Z" fill="#000000" fill-rule="nonzero" fill-opacity="1" /><path clip-path="url(#clip880)" d="M1353.54 563.813 Q1349.93 563.813 1348.1 567.378 Q1346.29 570.92 1346.29 578.049 Q1346.29 585.156 1348.1 588.72 Q1349.93 592.262 1353.54 592.262 Q1357.17 592.262 1358.98 588.72 Q1360.81 585.156 1360.81 578.049 Q1360.81 570.92 1358.98 567.378 Q1357.17 563.813 1353.54 563.813 M1353.54 560.109 Q1359.35 560.109 1362.4 564.716 Q1365.48 569.299 1365.48 578.049 Q1365.48 586.776 1362.4 591.382 Q1359.35 595.966 1353.54 595.966 Q1347.73 595.966 1344.65 591.382 Q1341.59 586.776 1341.59 578.049 Q1341.59 569.299 1344.65 564.716 Q1347.73 560.109 1353.54 560.109 Z" fill="#000000" fill-rule="nonzero" fill-opacity="1" /><path clip-path="url(#clip880)" d="M1284.02 383.078 L1291.66 383.078 L1291.66 356.712 L1283.35 358.379 L1283.35 354.119 L1291.62 352.453 L1296.29 352.453 L1296.29 383.078 L1303.93 383.078 L1303.93 387.013 L1284.02 387.013 L1284.02 383.078 Z" fill="#000000" fill-rule="nonzero" fill-opacity="1" /><path clip-path="url(#clip880)" d="M1323.38 355.531 Q1319.76 355.531 1317.94 359.096 Q1316.13 362.638 1316.13 369.767 Q1316.13 376.874 1317.94 380.439 Q1319.76 383.98 1323.38 383.98 Q1327.01 383.98 1328.82 380.439 Q1330.64 376.874 1330.64 369.767 Q1330.64 362.638 1328.82 359.096 Q1327.01 355.531 1323.38 355.531 M1323.38 351.828 Q1329.19 351.828 1332.24 356.434 Q1335.32 361.017 1335.32 369.767 Q1335.32 378.494 1332.24 383.101 Q1329.19 387.684 1323.38 387.684 Q1317.57 387.684 1314.49 383.101 Q1311.43 378.494 1311.43 369.767 Q1311.43 361.017 1314.49 356.434 Q1317.57 351.828 1323.38 351.828 Z" fill="#000000" fill-rule="nonzero" fill-opacity="1" /><path clip-path="url(#clip880)" d="M1353.54 355.531 Q1349.93 355.531 1348.1 359.096 Q1346.29 362.638 1346.29 369.767 Q1346.29 376.874 1348.1 380.439 Q1349.93 383.98 1353.54 383.98 Q1357.17 383.98 1358.98 380.439 Q1360.81 376.874 1360.81 369.767 Q1360.81 362.638 1358.98 359.096 Q1357.17 355.531 1353.54 355.531 M1353.54 351.828 Q1359.35 351.828 1362.4 356.434 Q1365.48 361.017 1365.48 369.767 Q1365.48 378.494 1362.4 383.101 Q1359.35 387.684 1353.54 387.684 Q1347.73 387.684 1344.65 383.101 Q1341.59 378.494 1341.59 369.767 Q1341.59 361.017 1344.65 356.434 Q1347.73 351.828 1353.54 351.828 Z" fill="#000000" fill-rule="nonzero" fill-opacity="1" /><path clip-path="url(#clip880)" d="M1287.24 174.796 L1303.56 174.796 L1303.56 178.731 L1281.62 178.731 L1281.62 174.796 Q1284.28 172.041 1288.86 167.411 Q1293.47 162.759 1294.65 161.416 Q1296.89 158.893 1297.77 157.157 Q1298.68 155.398 1298.68 153.708 Q1298.68 150.953 1296.73 149.217 Q1294.81 147.481 1291.71 147.481 Q1289.51 147.481 1287.06 148.245 Q1284.63 149.009 1281.85 150.56 L1281.85 145.838 Q1284.67 144.703 1287.13 144.125 Q1289.58 143.546 1291.62 143.546 Q1296.99 143.546 1300.18 146.231 Q1303.38 148.916 1303.38 153.407 Q1303.38 155.537 1302.57 157.458 Q1301.78 159.356 1299.67 161.949 Q1299.09 162.62 1295.99 165.837 Q1292.89 169.032 1287.24 174.796 Z" fill="#000000" fill-rule="nonzero" fill-opacity="1" /><path clip-path="url(#clip880)" d="M1323.38 147.25 Q1319.76 147.25 1317.94 150.814 Q1316.13 154.356 1316.13 161.486 Q1316.13 168.592 1317.94 172.157 Q1319.76 175.698 1323.38 175.698 Q1327.01 175.698 1328.82 172.157 Q1330.64 168.592 1330.64 161.486 Q1330.64 154.356 1328.82 150.814 Q1327.01 147.25 1323.38 147.25 M1323.38 143.546 Q1329.19 143.546 1332.24 148.152 Q1335.32 152.736 1335.32 161.486 Q1335.32 170.212 1332.24 174.819 Q1329.19 179.402 1323.38 179.402 Q1317.57 179.402 1314.49 174.819 Q1311.43 170.212 1311.43 161.486 Q1311.43 152.736 1314.49 148.152 Q1317.57 143.546 1323.38 143.546 Z" fill="#000000" fill-rule="nonzero" fill-opacity="1" /><path clip-path="url(#clip880)" d="M1353.54 147.25 Q1349.93 147.25 1348.1 150.814 Q1346.29 154.356 1346.29 161.486 Q1346.29 168.592 1348.1 172.157 Q1349.93 175.698 1353.54 175.698 Q1357.17 175.698 1358.98 172.157 Q1360.81 168.592 1360.81 161.486 Q1360.81 154.356 1358.98 150.814 Q1357.17 147.25 1353.54 147.25 M1353.54 143.546 Q1359.35 143.546 1362.4 148.152 Q1365.48 152.736 1365.48 161.486 Q1365.48 170.212 1362.4 174.819 Q1359.35 179.402 1353.54 179.402 Q1347.73 179.402 1344.65 174.819 Q1341.59 170.212 1341.59 161.486 Q1341.59 152.736 1344.65 148.152 Q1347.73 143.546 1353.54 143.546 Z" fill="#000000" fill-rule="nonzero" fill-opacity="1" /><polyline clip-path="url(#clip881)" style="stroke:#009af9; stroke-linecap:round; stroke-linejoin:round; stroke-width:4; stroke-opacity:1; fill:none" points="1428.41,87.9763 1429.1,188.966 1429.79,283.723 1430.49,372.231 1431.18,451.161 1431.88,519.473 1432.57,577.265 1433.27,625.162 1433.96,664.033 1434.66,694.864 1435.35,718.691 1436.05,736.564 1436.74,749.513 1437.43,758.524 1438.13,764.51 1438.82,768.296 1439.52,770.598 1440.21,772.019 1440.91,773.039 1441.6,774.025 1442.3,775.237 1442.99,776.838 1443.69,778.913 1444.38,781.481 1445.08,784.514 1445.77,787.951 1446.46,791.712 1447.16,795.708 1447.85,799.854 1448.55,804.071 1449.24,808.295 1449.94,812.475 1450.63,816.572 1451.33,820.562 1452.02,824.451 1452.72,828.28 1453.41,832.121 1454.11,836.029 1454.8,839.992 1455.49,843.955 1456.19,847.866 1456.88,851.701 1457.58,855.449 1458.27,859.113 1458.97,862.697 1459.66,866.207 1460.36,869.649 1461.05,873.03 1461.75,876.366 1462.44,879.68 1463.14,883.012 1463.83,886.405 1464.52,889.886 1465.22,893.455 1465.91,897.094 1466.61,900.782 1467.3,904.507 1468,908.265 1468.69,912.059 1469.39,915.894 1470.08,919.779 1470.78,923.719 1471.47,927.713 1472.17,931.754 1472.86,935.828 1473.55,939.914 1474.25,943.995 1474.94,948.05 1475.64,952.065 1476.33,956.027 1477.03,959.925 1477.72,963.754 1478.42,967.509 1479.11,971.187 1479.81,974.788 1480.5,978.313 1481.19,981.767 1481.89,985.152 1482.58,988.475 1483.28,991.744 1483.97,994.965 1484.67,998.147 1485.36,1001.3 1486.06,1004.43 1486.75,1007.55 1487.45,1010.66 1488.14,1013.76 1488.84,1016.87 1489.53,1019.99 1490.22,1023.1 1490.92,1026.21 1491.61,1029.32 1492.31,1032.4 1493,1035.47 1493.7,1038.51 1494.39,1041.51 1495.09,1044.48 1495.78,1047.41 1496.48,1050.3 1497.17,1053.16 1497.87,1056 1498.56,1058.81 1499.25,1061.6 1499.95,1064.38 1500.64,1067.12 1501.34,1069.84 1502.03,1072.51 1502.73,1075.13 1503.42,1077.7 1504.12,1080.21 1504.81,1082.66 1505.51,1085.05 1506.2,1087.38 1506.9,1089.64 1507.59,1091.84 1508.28,1093.97 1508.98,1096.04 1509.67,1098.05 1510.37,1100 1511.06,1101.88 1511.76,1103.7 1512.45,1105.46 1513.15,1107.16 1513.84,1108.8 1514.54,1110.39 1515.23,1111.92 1515.93,1113.4 1516.62,1114.83 1517.31,1116.22 1518.01,1117.56 1518.7,1118.86 1519.4,1120.11 1520.09,1121.33 1520.79,1122.51 1521.48,1123.66 1522.18,1124.78 1522.87,1125.86 1523.57,1126.91 1524.26,1127.94 1524.96,1128.94 1525.65,1129.92 1526.34,1130.87 1527.04,1131.81 1527.73,1132.74 1528.43,1133.65 1529.12,1134.54 1529.82,1135.43 1530.51,1136.32 1531.21,1137.2 1531.9,1138.08 1532.6,1138.95 1533.29,1139.83 1533.98,1140.71 1534.68,1141.59 1535.37,1142.47 1536.07,1143.36 1536.76,1144.24 1537.46,1145.13 1538.15,1146.02 1538.85,1146.91 1539.54,1147.8 1540.24,1148.69 1540.93,1149.58 1541.63,1150.47 1542.32,1151.36 1543.01,1152.24 1543.71,1153.13 1544.4,1154.01 1545.1,1154.88 1545.79,1155.76 1546.49,1156.63 1547.18,1157.49 1547.88,1158.36 1548.57,1159.22 1549.27,1160.08 1549.96,1160.94 1550.66,1161.79 1551.35,1162.64 1552.04,1163.48 1552.74,1164.32 1553.43,1165.16 1554.13,1165.98 1554.82,1166.8 1555.52,1167.61 1556.21,1168.41 1556.91,1169.21 1557.6,1169.99 1558.3,1170.77 1558.99,1171.53 1559.69,1172.29 1560.38,1173.03 1561.07,1173.77 1561.77,1174.49 1562.46,1175.21 1563.16,1175.92 1563.85,1176.61 1564.55,1177.3 1565.24,1177.98 1565.94,1178.65 1566.63,1179.32 1567.33,1179.97 1568.02,1180.62 1568.72,1181.27 1569.41,1181.9 1570.1,1182.53 1570.8,1183.16 1571.49,1183.78 1572.19,1184.39 1572.88,1185 1573.58,1185.61 1574.27,1186.21 1574.97,1186.81 1575.66,1187.41 1576.36,1188 1577.05,1188.59 1577.74,1189.18 1578.44,1189.77 1579.13,1190.36 1579.83,1190.94 1580.52,1191.53 1581.22,1192.11 1581.91,1192.7 1582.61,1193.28 1583.3,1193.87 1584,1194.46 1584.69,1195.05 1585.39,1195.64 1586.08,1196.23 1586.77,1196.83 1587.47,1197.43 1588.16,1198.03 1588.86,1198.64 1589.55,1199.25 1590.25,1199.86 1590.94,1200.48 1591.64,1201.11 1592.33,1201.74 1593.03,1202.38 1593.72,1203.03 1594.42,1203.68 1595.11,1204.34 1595.8,1205.01 1596.5,1205.69 1597.19,1206.38 1597.89,1207.08 1598.58,1207.79 1599.28,1208.51 1599.97,1209.24 1600.67,1209.98 1601.36,1210.74 1602.06,1211.5 1602.75,1212.28 1603.45,1213.07 1604.14,1213.86 1604.83,1214.67 1605.53,1215.48 1606.22,1216.3 1606.92,1217.13 1607.61,1217.97 1608.31,1218.8 1609,1219.64 1609.7,1220.49 1610.39,1221.33 1611.09,1222.18 1611.78,1223.03 1612.48,1223.88 1613.17,1224.72 1613.86,1225.57 1614.56,1226.42 1615.25,1227.26 1615.95,1228.1 1616.64,1228.95 1617.34,1229.79 1618.03,1230.63 1618.73,1231.48 1619.42,1232.32 1620.12,1233.16 1620.81,1234.01 1621.5,1234.85 1622.2,1235.7 1622.89,1236.55 1623.59,1237.4 1624.28,1238.25 1624.98,1239.1 1625.67,1239.96 1626.37,1240.83 1627.06,1241.69 1627.76,1242.56 1628.45,1243.43 1629.15,1244.3 1629.84,1245.18 1630.53,1246.05 1631.23,1246.93 1631.92,1247.81 1632.62,1248.69 1633.31,1249.57 1634.01,1250.45 1634.7,1251.33 1635.4,1252.21 1636.09,1253.09 1636.79,1253.97 1637.48,1254.86 1638.18,1255.75 1638.87,1256.64 1639.56,1257.54 1640.26,1258.44 1640.95,1259.35 1641.65,1260.27 1642.34,1261.2 1643.04,1262.13 1643.73,1263.08 1644.43,1264.03 1645.12,1264.99 1645.82,1265.96 1646.51,1266.94 1647.21,1267.93 1647.9,1268.92 1648.59,1269.92 1649.29,1270.92 1649.98,1271.93 1650.68,1272.94 1651.37,1273.96 1652.07,1274.99 1652.76,1276.03 1653.46,1277.09 1654.15,1278.18 1654.85,1279.3 1655.54,1280.47 1656.24,1281.69 1656.93,1282.97 1657.62,1284.31 1658.32,1285.71 1659.01,1287.17 1659.71,1288.67 1660.4,1290.2 1661.1,1291.76 1661.79,1293.34 1662.49,1294.93 1663.18,1296.51 1663.88,1298.09 1664.57,1299.66 1665.26,1301.21 1665.96,1302.73 1666.65,1304.24 1667.35,1305.72 1668.04,1307.18 1668.74,1308.61 1669.43,1310.02 1670.13,1311.41 1670.82,1312.76 1671.52,1314.1 1672.21,1315.41 1672.91,1316.7 1673.6,1317.97 1674.29,1319.22 1674.99,1320.45 1675.68,1321.66 1676.38,1322.85 1677.07,1324.03 1677.77,1325.18 1678.46,1326.32 1679.16,1327.44 1679.85,1328.54 1680.55,1329.62 1681.24,1330.68 1681.94,1331.73 1682.63,1332.75 1683.32,1333.76 1684.02,1334.75 1684.71,1335.72 1685.41,1336.67 1686.1,1337.6 1686.8,1338.51 1687.49,1339.4 1688.19,1340.27 1688.88,1341.12 1689.58,1341.95 1690.27,1342.76 1690.97,1343.56 1691.66,1344.34 1692.35,1345.1 1693.05,1345.85 1693.74,1346.59 1694.44,1347.32 1695.13,1348.03 1695.83,1348.74 1696.52,1349.45 1697.22,1350.16 1697.91,1350.87 1698.61,1351.58 1699.3,1352.3 1700,1353.03 1700.69,1353.78 1701.38,1354.54 1702.08,1355.31 1702.77,1356.1 1703.47,1356.9 1704.16,1357.73 1704.86,1358.57 1705.55,1359.43 1706.25,1360.31 1706.94,1361.2 1707.64,1362.1 1708.33,1363.02 1709.02,1363.96 1709.72,1364.9 1710.41,1365.86 1711.11,1366.83 1711.8,1367.8 1712.5,1368.78 1713.19,1369.77 1713.89,1370.77 1714.58,1371.77 1715.28,1372.77 1715.97,1373.78 1716.67,1374.78 1717.36,1375.79 1718.05,1376.79 1718.75,1377.79 1719.44,1378.79 1720.14,1379.79 1720.83,1380.78 1721.53,1381.76 1722.22,1382.74 1722.92,1383.71 1723.61,1384.67 1724.31,1385.63 1725,1386.57 1725.7,1387.51 1726.39,1388.44 1727.08,1389.36 1727.78,1390.26 1728.47,1391.16 1729.17,1392.05 1729.86,1392.93 1730.56,1393.8 1731.25,1394.65 1731.95,1395.5 1732.64,1396.34 1733.34,1397.16 1734.03,1397.98 1734.73,1398.79 1735.42,1399.58 1736.11,1400.37 1736.81,1401.14 1737.5,1401.91 1738.2,1402.66 1738.89,1403.4 1739.59,1404.13 1740.28,1404.86 1740.98,1405.57 1741.67,1406.27 1742.37,1406.96 1743.06,1407.64 1743.76,1408.3 1744.45,1408.96 1745.14,1409.61 1745.84,1410.25 1746.53,1410.88 1747.23,1411.49 1747.92,1412.1 1748.62,1412.7 1749.31,1413.29 1750.01,1413.86 1750.7,1414.43 1751.4,1414.99 1752.09,1415.54 1752.79,1416.08 1753.48,1416.61 1754.17,1417.13 1754.87,1417.64 1755.56,1418.14 1756.26,1418.64 1756.95,1419.12 1757.65,1419.6 1758.34,1420.07 1759.04,1420.52 1759.73,1420.97 1760.43,1421.41 1761.12,1421.85 1761.81,1422.27 1762.51,1422.69 1763.2,1423.1 1763.9,1423.5 1764.59,1423.89 1765.29,1424.27 1765.98,1424.65 1766.68,1425.02 1767.37,1425.38 1768.07,1425.74 1768.76,1426.08 1769.46,1426.43 1770.15,1426.76 1770.84,1427.09 1771.54,1427.41 1772.23,1427.72 1772.93,1428.03 1773.62,1428.33 1774.32,1428.63 1775.01,1428.92 1775.71,1429.2 1776.4,1429.48 1777.1,1429.75 1777.79,1430.02 1778.49,1430.28 1779.18,1430.54 1779.87,1430.79 1780.57,1431.04 1781.26,1431.28 1781.96,1431.52 1782.65,1431.75 1783.35,1431.98 1784.04,1432.2 1784.74,1432.42 1785.43,1432.63 1786.13,1432.84 1786.82,1433.05 1787.52,1433.25 1788.21,1433.45 1788.9,1433.65 1789.6,1433.84 1790.29,1434.02 1790.99,1434.21 1791.68,1434.39 1792.38,1434.56 1793.07,1434.74 1793.77,1434.9 1794.46,1435.07 1795.16,1435.23 1795.85,1435.39 1796.55,1435.55 1797.24,1435.71 1797.93,1435.86 1798.63,1436 1799.32,1436.15 1800.02,1436.29 1800.71,1436.43 1801.41,1436.57 1802.1,1436.7 1802.8,1436.84 1803.49,1436.97 1804.19,1437.09 1804.88,1437.22 1805.57,1437.34 1806.27,1437.46 1806.96,1437.58 1807.66,1437.7 1808.35,1437.81 1809.05,1437.92 1809.74,1438.03 1810.44,1438.14 1811.13,1438.24 1811.83,1438.35 1812.52,1438.45 1813.22,1438.55 1813.91,1438.65 1814.6,1438.75 1815.3,1438.84 1815.99,1438.93 1816.69,1439.02 1817.38,1439.11 1818.08,1439.2 1818.77,1439.29 1819.47,1439.38 1820.16,1439.46 1820.86,1439.54 1821.55,1439.62 1822.25,1439.7 1822.94,1439.78 1823.63,1439.86 1824.33,1439.93 1825.02,1440.01 1825.72,1440.08 1826.41,1440.15 1827.11,1440.22 1827.8,1440.29 1828.5,1440.36 1829.19,1440.43 1829.89,1440.49 1830.58,1440.56 1831.28,1440.62 1831.97,1440.68 1832.66,1440.75 1833.36,1440.81 1834.05,1440.87 1834.75,1440.93 1835.44,1440.98 1836.14,1441.04 1836.83,1441.1 1837.53,1441.15 1838.22,1441.21 1838.92,1441.26 1839.61,1441.31 1840.31,1441.36 1841,1441.42 1841.69,1441.47 1842.39,1441.51 1843.08,1441.56 1843.78,1441.61 1844.47,1441.66 1845.17,1441.71 1845.86,1441.75 1846.56,1441.8 1847.25,1441.84 1847.95,1441.88 1848.64,1441.93 1849.33,1441.97 1850.03,1442.01 1850.72,1442.05 1851.42,1442.09 1852.11,1442.13 1852.81,1442.17 1853.5,1442.21 1854.2,1442.25 1854.89,1442.29 1855.59,1442.33 1856.28,1442.36 1856.98,1442.4 1857.67,1442.44 1858.36,1442.47 1859.06,1442.51 1859.75,1442.54 1860.45,1442.57 1861.14,1442.61 1861.84,1442.64 1862.53,1442.67 1863.23,1442.7 1863.92,1442.74 1864.62,1442.77 1865.31,1442.8 1866.01,1442.83 1866.7,1442.86 1867.39,1442.89 1868.09,1442.92 1868.78,1442.95 1869.48,1442.97 1870.17,1443 1870.87,1443.03 1871.56,1443.06 1872.26,1443.08 1872.95,1443.11 1873.65,1443.14 1874.34,1443.16 1875.04,1443.19 1875.73,1443.22 1876.42,1443.24 1877.12,1443.27 1877.81,1443.29 1878.51,1443.31 1879.2,1443.34 1879.9,1443.36 1880.59,1443.38 1881.29,1443.41 1881.98,1443.43 1882.68,1443.45 1883.37,1443.47 1884.07,1443.5 1884.76,1443.52 1885.45,1443.54 1886.15,1443.56 1886.84,1443.58 1887.54,1443.6 1888.23,1443.62 1888.93,1443.64 1889.62,1443.66 1890.32,1443.68 1891.01,1443.7 1891.71,1443.72 1892.4,1443.74 1893.09,1443.76 1893.79,1443.78 1894.48,1443.8 1895.18,1443.81 1895.87,1443.83 1896.57,1443.85 1897.26,1443.87 1897.96,1443.89 1898.65,1443.9 1899.35,1443.92 1900.04,1443.94 1900.74,1443.95 1901.43,1443.97 1902.12,1443.99 1902.82,1444 1903.51,1444.02 1904.21,1444.03 1904.9,1444.05 1905.6,1444.07 1906.29,1444.08 1906.99,1444.1 1907.68,1444.11 1908.38,1444.13 1909.07,1444.14 1909.77,1444.15 1910.46,1444.17 1911.15,1444.18 1911.85,1444.2 1912.54,1444.21 1913.24,1444.23 1913.93,1444.24 1914.63,1444.25 1915.32,1444.27 1916.02,1444.28 1916.71,1444.29 1917.41,1444.31 1918.1,1444.32 1918.8,1444.33 1919.49,1444.34 1920.18,1444.36 1920.88,1444.37 1921.57,1444.38 1922.27,1444.39 1922.96,1444.4 1923.66,1444.42 1924.35,1444.43 1925.05,1444.44 1925.74,1444.45 1926.44,1444.46 1927.13,1444.47 1927.83,1444.48 1928.52,1444.5 1929.21,1444.51 1929.91,1444.52 1930.6,1444.53 1931.3,1444.54 1931.99,1444.55 1932.69,1444.56 1933.38,1444.57 1934.08,1444.58 1934.77,1444.59 1935.47,1444.6 1936.16,1444.61 1936.85,1444.62 1937.55,1444.63 1938.24,1444.64 1938.94,1444.65 1939.63,1444.66 1940.33,1444.67 1941.02,1444.68 1941.72,1444.69 1942.41,1444.69 1943.11,1444.7 1943.8,1444.71 1944.5,1444.72 1945.19,1444.73 1945.88,1444.74 1946.58,1444.75 1947.27,1444.76 1947.97,1444.76 1948.66,1444.77 1949.36,1444.78 1950.05,1444.79 1950.75,1444.8 1951.44,1444.81 1952.14,1444.81 1952.83,1444.82 1953.53,1444.83 1954.22,1444.84 1954.91,1444.84 1955.61,1444.85 1956.3,1444.86 1957,1444.87 1957.69,1444.87 1958.39,1444.88 1959.08,1444.89 1959.78,1444.9 1960.47,1444.9 1961.17,1444.91 1961.86,1444.92 1962.56,1444.92 1963.25,1444.93 1963.94,1444.94 1964.64,1444.95 1965.33,1444.95 1966.03,1444.96 1966.72,1444.97 1967.42,1444.97 1968.11,1444.98 1968.81,1444.98 1969.5,1444.99 1970.2,1445 1970.89,1445 1971.59,1445.01 1972.28,1445.02 1972.97,1445.02 1973.67,1445.03 1974.36,1445.03 1975.06,1445.04 1975.75,1445.05 1976.45,1445.05 1977.14,1445.06 1977.84,1445.06 1978.53,1445.07 1979.23,1445.07 1979.92,1445.08 1980.62,1445.09 1981.31,1445.09 1982,1445.1 1982.7,1445.1 1983.39,1445.11 1984.09,1445.11 1984.78,1445.12 1985.48,1445.12 1986.17,1445.13 1986.87,1445.13 1987.56,1445.14 1988.26,1445.14 1988.95,1445.15 1989.64,1445.15 1990.34,1445.16 1991.03,1445.16 1991.73,1445.17 1992.42,1445.17 1993.12,1445.18 1993.81,1445.18 1994.51,1445.19 1995.2,1445.19 1995.9,1445.19 1996.59,1445.2 1997.29,1445.2 1997.98,1445.21 1998.67,1445.21 1999.37,1445.22 2000.06,1445.22 2000.76,1445.23 2001.45,1445.23 2002.15,1445.23 2002.84,1445.24 2003.54,1445.24 2004.23,1445.25 2004.93,1445.25 2005.62,1445.25 2006.32,1445.26 2007.01,1445.26 2007.7,1445.27 2008.4,1445.27 2009.09,1445.27 2009.79,1445.28 2010.48,1445.28 2011.18,1445.28 2011.87,1445.29 2012.57,1445.29 2013.26,1445.3 2013.96,1445.3 2014.65,1445.3 2015.35,1445.31 2016.04,1445.31 2016.73,1445.31 2017.43,1445.32 2018.12,1445.32 2018.82,1445.32 2019.51,1445.33 2020.21,1445.33 2020.9,1445.33 2021.6,1445.34 2022.29,1445.34 2022.99,1445.34 2023.68,1445.35 2024.38,1445.35 2025.07,1445.35 2025.76,1445.36 2026.46,1445.36 2027.15,1445.36 2027.85,1445.37 2028.54,1445.37 2029.24,1445.37 2029.93,1445.37 2030.63,1445.38 2031.32,1445.38 2032.02,1445.38 2032.71,1445.39 2033.4,1445.39 2034.1,1445.39 2034.79,1445.39 2035.49,1445.4 2036.18,1445.4 2036.88,1445.4 2037.57,1445.41 2038.27,1445.41 2038.96,1445.41 2039.66,1445.41 2040.35,1445.42 2041.05,1445.42 2041.74,1445.42 2042.43,1445.42 2043.13,1445.43 2043.82,1445.43 2044.52,1445.43 2045.21,1445.43 2045.91,1445.44 2046.6,1445.44 2047.3,1445.44 2047.99,1445.44 2048.69,1445.45 2049.38,1445.45 2050.08,1445.45 2050.77,1445.45 2051.46,1445.45 2052.16,1445.46 2052.85,1445.46 2053.55,1445.46 2054.24,1445.46 2054.94,1445.47 2055.63,1445.47 2056.33,1445.47 2057.02,1445.47 2057.72,1445.47 2058.41,1445.48 2059.11,1445.48 2059.8,1445.48 2060.49,1445.48 2061.19,1445.48 2061.88,1445.49 2062.58,1445.49 2063.27,1445.49 2063.97,1445.49 2064.66,1445.49 2065.36,1445.5 2066.05,1445.5 2066.75,1445.5 2067.44,1445.5 2068.14,1445.5 2068.83,1445.51 2069.52,1445.51 2070.22,1445.51 2070.91,1445.51 2071.61,1445.51 2072.3,1445.51 2073,1445.52 2073.69,1445.52 2074.39,1445.52 2075.08,1445.52 2075.78,1445.52 2076.47,1445.53 2077.16,1445.53 2077.86,1445.53 2078.55,1445.53 2079.25,1445.53 2079.94,1445.53 2080.64,1445.53 2081.33,1445.54 2082.03,1445.54 2082.72,1445.54 2083.42,1445.54 2084.11,1445.54 2084.81,1445.54 2085.5,1445.55 2086.19,1445.55 2086.89,1445.55 2087.58,1445.55 2088.28,1445.55 2088.97,1445.55 2089.67,1445.55 2090.36,1445.56 2091.06,1445.56 2091.75,1445.56 2092.45,1445.56 2093.14,1445.56 2093.84,1445.56 2094.53,1445.56 2095.22,1445.57 2095.92,1445.57 2096.61,1445.57 2097.31,1445.57 2098,1445.57 2098.7,1445.57 2099.39,1445.57 2100.09,1445.57 2100.78,1445.58 2101.48,1445.58 2102.17,1445.58 2102.87,1445.58 2103.56,1445.58 2104.25,1445.58 2104.95,1445.58 2105.64,1445.58 2106.34,1445.59 2107.03,1445.59 2107.73,1445.59 2108.42,1445.59 2109.12,1445.59 2109.81,1445.59 2110.51,1445.59 2111.2,1445.59 2111.9,1445.59 2112.59,1445.6 2113.28,1445.6 2113.98,1445.6 2114.67,1445.6 2115.37,1445.6 2116.06,1445.6 2116.76,1445.6 2117.45,1445.6 2118.15,1445.6 2118.84,1445.6 2119.54,1445.61 2120.23,1445.61 2120.92,1445.61 2121.62,1445.61 2122.31,1445.61 2123.01,1445.61 2123.7,1445.61 2124.4,1445.61 2125.09,1445.61 2125.79,1445.61 2126.48,1445.62 2127.18,1445.62 2127.87,1445.62 2128.57,1445.62 2129.26,1445.62 2129.95,1445.62 2130.65,1445.62 2131.34,1445.62 2132.04,1445.62 2132.73,1445.62 2133.43,1445.62 2134.12,1445.63 2134.82,1445.63 2135.51,1445.63 2136.21,1445.63 2136.9,1445.63 2137.6,1445.63 2138.29,1445.63 2138.98,1445.63 2139.68,1445.63 2140.37,1445.63 2141.07,1445.63 2141.76,1445.63 2142.46,1445.63 2143.15,1445.64 2143.85,1445.64 2144.54,1445.64 2145.24,1445.64 2145.93,1445.64 2146.63,1445.64 2147.32,1445.64 2148.01,1445.64 2148.71,1445.64 2149.4,1445.64 2150.1,1445.64 2150.79,1445.64 2151.49,1445.64 2152.18,1445.64 2152.88,1445.65 2153.57,1445.65 2154.27,1445.65 2154.96,1445.65 2155.66,1445.65 2156.35,1445.65 2157.04,1445.65 2157.74,1445.65 2158.43,1445.65 2159.13,1445.65 2159.82,1445.65 2160.52,1445.65 2161.21,1445.65 2161.91,1445.65 2162.6,1445.65 2163.3,1445.65 2163.99,1445.66 2164.69,1445.66 2165.38,1445.66 2166.07,1445.66 2166.77,1445.66 2167.46,1445.66 2168.16,1445.66 2168.85,1445.66 2169.55,1445.66 2170.24,1445.66 2170.94,1445.66 2171.63,1445.66 2172.33,1445.66 2173.02,1445.66 2173.71,1445.66 2174.41,1445.66 2175.1,1445.66 2175.8,1445.66 2176.49,1445.66 2177.19,1445.67 2177.88,1445.67 2178.58,1445.67 2179.27,1445.67 2179.97,1445.67 2180.66,1445.67 2181.36,1445.67 2182.05,1445.67 2182.74,1445.67 2183.44,1445.67 2184.13,1445.67 2184.83,1445.67 2185.52,1445.67 2186.22,1445.67 2186.91,1445.67 2187.61,1445.67 2188.3,1445.67 2189,1445.67 2189.69,1445.67 2190.39,1445.67 2191.08,1445.67 2191.77,1445.68 2192.47,1445.68 2193.16,1445.68 2193.86,1445.68 2194.55,1445.68 2195.25,1445.68 2195.94,1445.68 2196.64,1445.68 2197.33,1445.68 2198.03,1445.68 2198.72,1445.68 2199.42,1445.68 2200.11,1445.68 2200.8,1445.68 2201.5,1445.68 2202.19,1445.68 2202.89,1445.68 2203.58,1445.68 2204.28,1445.68 2204.97,1445.68 2205.67,1445.68 2206.36,1445.68 2207.06,1445.68 2207.75,1445.68 2208.45,1445.68 2209.14,1445.68 2209.83,1445.68 2210.53,1445.69 2211.22,1445.69 2211.92,1445.69 2212.61,1445.69 2213.31,1445.69 2214,1445.69 2214.7,1445.69 2215.39,1445.69 2216.09,1445.69 2216.78,1445.69 2217.47,1445.69 2218.17,1445.69 2218.86,1445.69 2219.56,1445.69 2220.25,1445.69 2220.95,1445.69 2221.64,1445.69 2222.34,1445.69 2223.03,1445.69 2223.73,1445.69 2224.42,1445.69 2225.12,1445.69 2225.81,1445.69 2226.5,1445.69 2227.2,1445.69 2227.89,1445.69 2228.59,1445.69 2229.28,1445.69 2229.98,1445.69 2230.67,1445.69 2231.37,1445.69 2232.06,1445.69 2232.76,1445.69 2233.45,1445.69 2234.15,1445.7 2234.84,1445.7 2235.53,1445.7 2236.23,1445.7 2236.92,1445.7 2237.62,1445.7 2238.31,1445.7 2239.01,1445.7 2239.7,1445.7 2240.4,1445.7 2241.09,1445.7 2241.79,1445.7 2242.48,1445.7 2243.18,1445.7 2243.87,1445.7 2244.56,1445.7 2245.26,1445.7 2245.95,1445.7 2246.65,1445.7 2247.34,1445.7 2248.04,1445.7 2248.73,1445.7 2249.43,1445.7 2250.12,1445.7 2250.82,1445.7 2251.51,1445.7 2252.21,1445.7 2252.9,1445.7 2253.59,1445.7 2254.29,1445.7 2254.98,1445.7 2255.68,1445.7 2256.37,1445.7 2257.07,1445.7 2257.76,1445.7 2258.46,1445.7 2259.15,1445.7 2259.85,1445.7 2260.54,1445.7 2261.23,1445.7 2261.93,1445.7 2262.62,1445.7 2263.32,1445.7 2264.01,1445.7 2264.71,1445.7 2265.4,1445.7 2266.1,1445.7 2266.79,1445.71 2267.49,1445.71 2268.18,1445.71 2268.88,1445.71 2269.57,1445.71 2270.26,1445.71 2270.96,1445.71 2271.65,1445.71 2272.35,1445.71 2273.04,1445.71 2273.74,1445.71 2274.43,1445.71 2275.13,1445.71 2275.82,1445.71 2276.52,1445.71 2277.21,1445.71 2277.91,1445.71 2278.6,1445.71 2279.29,1445.71 2279.99,1445.71 2280.68,1445.71 2281.38,1445.71 2282.07,1445.71 2282.77,1445.71 2283.46,1445.71 2284.16,1445.71 2284.85,1445.71 2285.55,1445.71 2286.24,1445.71 2286.94,1445.71 2287.63,1445.71 2288.32,1445.71 2289.02,1445.71 2289.71,1445.71 2290.41,1445.71 2291.1,1445.71 2291.8,1445.71 2292.49,1445.71 2293.19,1445.71 2293.88,1445.71 2294.58,1445.71 2295.27,1445.71 2295.97,1445.71 2296.66,1445.71 2297.35,1445.71 2298.05,1445.71 2298.74,1445.71 2299.44,1445.71 2300.13,1445.71 2300.83,1445.71 2301.52,1445.71 2302.22,1445.71 2302.91,1445.71 2303.61,1445.71 2304.3,1445.71 2304.99,1445.71 2305.69,1445.71 2306.38,1445.71 2307.08,1445.71 2307.77,1445.71 2308.47,1445.71 2309.16,1445.71 2309.86,1445.71 2310.55,1445.71 2311.25,1445.71 2311.94,1445.71 2312.64,1445.71 2313.33,1445.71 2314.02,1445.71 2314.72,1445.71 2315.41,1445.71 2316.11,1445.71 2316.8,1445.71 2317.5,1445.71 2318.19,1445.71 2318.89,1445.71 2319.58,1445.71 2320.28,1445.71 2320.97,1445.72 2321.67,1445.72 2322.36,1445.72 2323.05,1445.72 2323.75,1445.72 2324.44,1445.72 2325.14,1445.72 2325.83,1445.72 "/>
<path clip-path="url(#clip880)" d="M2090.5 198.898 L2321.05 198.898 L2321.05 95.2176 L2090.5 95.2176  Z" fill="#ffffff" fill-rule="evenodd" fill-opacity="1"/>
<polyline clip-path="url(#clip880)" style="stroke:#000000; stroke-linecap:round; stroke-linejoin:round; stroke-width:4; stroke-opacity:1; fill:none" points="2090.5,198.898 2321.05,198.898 2321.05,95.2176 2090.5,95.2176 2090.5,198.898 "/>
<polyline clip-path="url(#clip880)" style="stroke:#009af9; stroke-linecap:round; stroke-linejoin:round; stroke-width:4; stroke-opacity:1; fill:none" points="2101.07,147.058 2164.49,147.058 "/>
<path clip-path="url(#clip880)" d="M2193.49 139.176 L2193.49 143.203 Q2191.68 142.277 2189.74 141.815 Q2187.79 141.352 2185.71 141.352 Q2182.54 141.352 2180.94 142.324 Q2179.37 143.296 2179.37 145.24 Q2179.37 146.722 2180.5 147.578 Q2181.64 148.412 2185.06 149.176 L2186.52 149.5 Q2191.06 150.472 2192.95 152.254 Q2194.88 154.014 2194.88 157.185 Q2194.88 160.796 2192.01 162.902 Q2189.16 165.009 2184.16 165.009 Q2182.07 165.009 2179.81 164.592 Q2177.56 164.199 2175.06 163.388 L2175.06 158.99 Q2177.42 160.217 2179.71 160.842 Q2182.01 161.444 2184.25 161.444 Q2187.26 161.444 2188.88 160.426 Q2190.5 159.384 2190.5 157.509 Q2190.5 155.773 2189.32 154.847 Q2188.16 153.921 2184.2 153.064 L2182.72 152.717 Q2178.76 151.884 2177.01 150.171 Q2175.25 148.435 2175.25 145.426 Q2175.25 141.768 2177.84 139.778 Q2180.43 137.787 2185.2 137.787 Q2187.56 137.787 2189.64 138.134 Q2191.73 138.481 2193.49 139.176 Z" fill="#000000" fill-rule="nonzero" fill-opacity="1" /><path clip-path="url(#clip880)" d="M2205.87 131.051 L2205.87 138.412 L2214.64 138.412 L2214.64 141.722 L2205.87 141.722 L2205.87 155.796 Q2205.87 158.967 2206.73 159.87 Q2207.61 160.773 2210.27 160.773 L2214.64 160.773 L2214.64 164.338 L2210.27 164.338 Q2205.34 164.338 2203.46 162.509 Q2201.59 160.657 2201.59 155.796 L2201.59 141.722 L2198.46 141.722 L2198.46 138.412 L2201.59 138.412 L2201.59 131.051 L2205.87 131.051 Z" fill="#000000" fill-rule="nonzero" fill-opacity="1" /><path clip-path="url(#clip880)" d="M2235.27 142.393 Q2234.55 141.977 2233.7 141.791 Q2232.86 141.583 2231.84 141.583 Q2228.23 141.583 2226.29 143.944 Q2224.37 146.282 2224.37 150.68 L2224.37 164.338 L2220.08 164.338 L2220.08 138.412 L2224.37 138.412 L2224.37 142.44 Q2225.71 140.078 2227.86 138.944 Q2230.01 137.787 2233.09 137.787 Q2233.53 137.787 2234.07 137.856 Q2234.6 137.903 2235.25 138.018 L2235.27 142.393 Z" fill="#000000" fill-rule="nonzero" fill-opacity="1" /><path clip-path="url(#clip880)" d="M2260.87 150.31 L2260.87 152.393 L2241.29 152.393 Q2241.57 156.791 2243.93 159.106 Q2246.31 161.398 2250.55 161.398 Q2253 161.398 2255.29 160.796 Q2257.61 160.194 2259.88 158.99 L2259.88 163.018 Q2257.58 163.99 2255.18 164.5 Q2252.77 165.009 2250.29 165.009 Q2244.09 165.009 2240.45 161.398 Q2236.84 157.787 2236.84 151.629 Q2236.84 145.264 2240.27 141.537 Q2243.72 137.787 2249.55 137.787 Q2254.78 137.787 2257.82 141.166 Q2260.87 144.523 2260.87 150.31 M2256.61 149.06 Q2256.57 145.565 2254.64 143.481 Q2252.75 141.398 2249.6 141.398 Q2246.03 141.398 2243.88 143.412 Q2241.75 145.426 2241.43 149.083 L2256.61 149.06 Z" fill="#000000" fill-rule="nonzero" fill-opacity="1" /><path clip-path="url(#clip880)" d="M2284.39 139.176 L2284.39 143.203 Q2282.58 142.277 2280.64 141.815 Q2278.69 141.352 2276.61 141.352 Q2273.44 141.352 2271.84 142.324 Q2270.27 143.296 2270.27 145.24 Q2270.27 146.722 2271.4 147.578 Q2272.54 148.412 2275.96 149.176 L2277.42 149.5 Q2281.96 150.472 2283.86 152.254 Q2285.78 154.014 2285.78 157.185 Q2285.78 160.796 2282.91 162.902 Q2280.06 165.009 2275.06 165.009 Q2272.98 165.009 2270.71 164.592 Q2268.46 164.199 2265.96 163.388 L2265.96 158.99 Q2268.32 160.217 2270.62 160.842 Q2272.91 161.444 2275.15 161.444 Q2278.16 161.444 2279.78 160.426 Q2281.4 159.384 2281.4 157.509 Q2281.4 155.773 2280.22 154.847 Q2279.07 153.921 2275.11 153.064 L2273.63 152.717 Q2269.67 151.884 2267.91 150.171 Q2266.15 148.435 2266.15 145.426 Q2266.15 141.768 2268.74 139.778 Q2271.33 137.787 2276.1 137.787 Q2278.46 137.787 2280.55 138.134 Q2282.63 138.481 2284.39 139.176 Z" fill="#000000" fill-rule="nonzero" fill-opacity="1" /><path clip-path="url(#clip880)" d="M2309.09 139.176 L2309.09 143.203 Q2307.28 142.277 2305.34 141.815 Q2303.39 141.352 2301.31 141.352 Q2298.14 141.352 2296.54 142.324 Q2294.97 143.296 2294.97 145.24 Q2294.97 146.722 2296.1 147.578 Q2297.24 148.412 2300.66 149.176 L2302.12 149.5 Q2306.66 150.472 2308.56 152.254 Q2310.48 154.014 2310.48 157.185 Q2310.48 160.796 2307.61 162.902 Q2304.76 165.009 2299.76 165.009 Q2297.68 165.009 2295.41 164.592 Q2293.16 164.199 2290.66 163.388 L2290.66 158.99 Q2293.02 160.217 2295.32 160.842 Q2297.61 161.444 2299.85 161.444 Q2302.86 161.444 2304.48 160.426 Q2306.1 159.384 2306.1 157.509 Q2306.1 155.773 2304.92 154.847 Q2303.76 153.921 2299.81 153.064 L2298.32 152.717 Q2294.37 151.884 2292.61 150.171 Q2290.85 148.435 2290.85 145.426 Q2290.85 141.768 2293.44 139.778 Q2296.03 137.787 2300.8 137.787 Q2303.16 137.787 2305.25 138.134 Q2307.33 138.481 2309.09 139.176 Z" fill="#000000" fill-rule="nonzero" fill-opacity="1" /></svg>
