<?xml version="1.0" encoding="utf-8"?>
<svg xmlns="http://www.w3.org/2000/svg" xmlns:xlink="http://www.w3.org/1999/xlink" width="600" height="400" viewBox="0 0 2400 1600">
<defs>
  <clipPath id="clip110">
    <rect x="0" y="0" width="2400" height="1600"/>
  </clipPath>
</defs>
<path clip-path="url(#clip110)" d="M0 1600 L2400 1600 L2400 0 L0 0  Z" fill="#ffffff" fill-rule="evenodd" fill-opacity="1"/>
<defs>
  <clipPath id="clip111">
    <rect x="1363" y="47" width="991" height="1440"/>
  </clipPath>
</defs>
<path clip-path="url(#clip110)" d="M147.478 1486.45 L1137.06 1486.45 L1137.06 47.2441 L147.478 47.2441  Z" fill="#ffffff" fill-rule="evenodd" fill-opacity="1"/>
<defs>
  <clipPath id="clip112">
    <rect x="147" y="47" width="991" height="1440"/>
  </clipPath>
</defs>
<polyline clip-path="url(#clip112)" style="stroke:#000000; stroke-linecap:round; stroke-linejoin:round; stroke-width:2; stroke-opacity:0.1; fill:none" points="200.033,1486.45 200.033,47.2441 "/>
<polyline clip-path="url(#clip112)" style="stroke:#000000; stroke-linecap:round; stroke-linejoin:round; stroke-width:2; stroke-opacity:0.1; fill:none" points="473.25,1486.45 473.25,47.2441 "/>
<polyline clip-path="url(#clip112)" style="stroke:#000000; stroke-linecap:round; stroke-linejoin:round; stroke-width:2; stroke-opacity:0.1; fill:none" points="746.468,1486.45 746.468,47.2441 "/>
<polyline clip-path="url(#clip112)" style="stroke:#000000; stroke-linecap:round; stroke-linejoin:round; stroke-width:2; stroke-opacity:0.1; fill:none" points="1019.69,1486.45 1019.69,47.2441 "/>
<polyline clip-path="url(#clip112)" style="stroke:#000000; stroke-linecap:round; stroke-linejoin:round; stroke-width:2; stroke-opacity:0.1; fill:none" points="147.478,1472.18 1137.06,1472.18 "/>
<polyline clip-path="url(#clip112)" style="stroke:#000000; stroke-linecap:round; stroke-linejoin:round; stroke-width:2; stroke-opacity:0.1; fill:none" points="147.478,1198.96 1137.06,1198.96 "/>
<polyline clip-path="url(#clip112)" style="stroke:#000000; stroke-linecap:round; stroke-linejoin:round; stroke-width:2; stroke-opacity:0.1; fill:none" points="147.478,925.743 1137.06,925.743 "/>
<polyline clip-path="url(#clip112)" style="stroke:#000000; stroke-linecap:round; stroke-linejoin:round; stroke-width:2; stroke-opacity:0.1; fill:none" points="147.478,652.526 1137.06,652.526 "/>
<polyline clip-path="url(#clip112)" style="stroke:#000000; stroke-linecap:round; stroke-linejoin:round; stroke-width:2; stroke-opacity:0.1; fill:none" points="147.478,379.308 1137.06,379.308 "/>
<polyline clip-path="url(#clip112)" style="stroke:#000000; stroke-linecap:round; stroke-linejoin:round; stroke-width:2; stroke-opacity:0.1; fill:none" points="147.478,106.091 1137.06,106.091 "/>
<polyline clip-path="url(#clip110)" style="stroke:#000000; stroke-linecap:round; stroke-linejoin:round; stroke-width:4; stroke-opacity:1; fill:none" points="147.478,1486.45 1137.06,1486.45 "/>
<polyline clip-path="url(#clip110)" style="stroke:#000000; stroke-linecap:round; stroke-linejoin:round; stroke-width:4; stroke-opacity:1; fill:none" points="200.033,1486.45 200.033,1467.55 "/>
<polyline clip-path="url(#clip110)" style="stroke:#000000; stroke-linecap:round; stroke-linejoin:round; stroke-width:4; stroke-opacity:1; fill:none" points="473.25,1486.45 473.25,1467.55 "/>
<polyline clip-path="url(#clip110)" style="stroke:#000000; stroke-linecap:round; stroke-linejoin:round; stroke-width:4; stroke-opacity:1; fill:none" points="746.468,1486.45 746.468,1467.55 "/>
<polyline clip-path="url(#clip110)" style="stroke:#000000; stroke-linecap:round; stroke-linejoin:round; stroke-width:4; stroke-opacity:1; fill:none" points="1019.69,1486.45 1019.69,1467.55 "/>
<path clip-path="url(#clip110)" d="M169.79 1532.02 L199.466 1532.02 L199.466 1535.95 L169.79 1535.95 L169.79 1532.02 Z" fill="#000000" fill-rule="nonzero" fill-opacity="1" /><path clip-path="url(#clip110)" d="M210.369 1544.91 L218.007 1544.91 L218.007 1518.55 L209.697 1520.21 L209.697 1515.95 L217.961 1514.29 L222.637 1514.29 L222.637 1544.91 L230.276 1544.91 L230.276 1548.85 L210.369 1548.85 L210.369 1544.91 Z" fill="#000000" fill-rule="nonzero" fill-opacity="1" /><path clip-path="url(#clip110)" d="M473.25 1517.37 Q469.639 1517.37 467.811 1520.93 Q466.005 1524.47 466.005 1531.6 Q466.005 1538.71 467.811 1542.27 Q469.639 1545.82 473.25 1545.82 Q476.885 1545.82 478.69 1542.27 Q480.519 1538.71 480.519 1531.6 Q480.519 1524.47 478.69 1520.93 Q476.885 1517.37 473.25 1517.37 M473.25 1513.66 Q479.06 1513.66 482.116 1518.27 Q485.195 1522.85 485.195 1531.6 Q485.195 1540.33 482.116 1544.94 Q479.06 1549.52 473.25 1549.52 Q467.44 1549.52 464.362 1544.94 Q461.306 1540.33 461.306 1531.6 Q461.306 1522.85 464.362 1518.27 Q467.44 1513.66 473.25 1513.66 Z" fill="#000000" fill-rule="nonzero" fill-opacity="1" /><path clip-path="url(#clip110)" d="M736.85 1544.91 L744.489 1544.91 L744.489 1518.55 L736.178 1520.21 L736.178 1515.95 L744.442 1514.29 L749.118 1514.29 L749.118 1544.91 L756.757 1544.91 L756.757 1548.85 L736.85 1548.85 L736.85 1544.91 Z" fill="#000000" fill-rule="nonzero" fill-opacity="1" /><path clip-path="url(#clip110)" d="M1014.34 1544.91 L1030.66 1544.91 L1030.66 1548.85 L1008.71 1548.85 L1008.71 1544.91 Q1011.37 1542.16 1015.96 1537.53 Q1020.56 1532.88 1021.75 1531.53 Q1023.99 1529.01 1024.87 1527.27 Q1025.77 1525.51 1025.77 1523.82 Q1025.77 1521.07 1023.83 1519.33 Q1021.91 1517.6 1018.81 1517.6 Q1016.61 1517.6 1014.15 1518.36 Q1011.72 1519.13 1008.94 1520.68 L1008.94 1515.95 Q1011.77 1514.82 1014.22 1514.24 Q1016.68 1513.66 1018.71 1513.66 Q1024.08 1513.66 1027.28 1516.35 Q1030.47 1519.03 1030.47 1523.52 Q1030.47 1525.65 1029.66 1527.57 Q1028.87 1529.47 1026.77 1532.07 Q1026.19 1532.74 1023.09 1535.95 Q1019.99 1539.15 1014.34 1544.91 Z" fill="#000000" fill-rule="nonzero" fill-opacity="1" /><polyline clip-path="url(#clip110)" style="stroke:#000000; stroke-linecap:round; stroke-linejoin:round; stroke-width:4; stroke-opacity:1; fill:none" points="147.478,1486.45 147.478,47.2441 "/>
<polyline clip-path="url(#clip110)" style="stroke:#000000; stroke-linecap:round; stroke-linejoin:round; stroke-width:4; stroke-opacity:1; fill:none" points="147.478,1472.18 166.376,1472.18 "/>
<polyline clip-path="url(#clip110)" style="stroke:#000000; stroke-linecap:round; stroke-linejoin:round; stroke-width:4; stroke-opacity:1; fill:none" points="147.478,1198.96 166.376,1198.96 "/>
<polyline clip-path="url(#clip110)" style="stroke:#000000; stroke-linecap:round; stroke-linejoin:round; stroke-width:4; stroke-opacity:1; fill:none" points="147.478,925.743 166.376,925.743 "/>
<polyline clip-path="url(#clip110)" style="stroke:#000000; stroke-linecap:round; stroke-linejoin:round; stroke-width:4; stroke-opacity:1; fill:none" points="147.478,652.526 166.376,652.526 "/>
<polyline clip-path="url(#clip110)" style="stroke:#000000; stroke-linecap:round; stroke-linejoin:round; stroke-width:4; stroke-opacity:1; fill:none" points="147.478,379.308 166.376,379.308 "/>
<polyline clip-path="url(#clip110)" style="stroke:#000000; stroke-linecap:round; stroke-linejoin:round; stroke-width:4; stroke-opacity:1; fill:none" points="147.478,106.091 166.376,106.091 "/>
<path clip-path="url(#clip110)" d="M51.3625 1472.63 L81.0383 1472.63 L81.0383 1476.56 L51.3625 1476.56 L51.3625 1472.63 Z" fill="#000000" fill-rule="nonzero" fill-opacity="1" /><path clip-path="url(#clip110)" d="M95.1586 1485.52 L111.478 1485.52 L111.478 1489.46 L89.5336 1489.46 L89.5336 1485.52 Q92.1956 1482.77 96.7789 1478.14 Q101.385 1473.49 102.566 1472.14 Q104.811 1469.62 105.691 1467.88 Q106.594 1466.12 106.594 1464.43 Q106.594 1461.68 104.649 1459.94 Q102.728 1458.21 99.6261 1458.21 Q97.4271 1458.21 94.9734 1458.97 Q92.5428 1459.74 89.7651 1461.29 L89.7651 1456.56 Q92.5891 1455.43 95.0428 1454.85 Q97.4965 1454.27 99.5335 1454.27 Q104.904 1454.27 108.098 1456.96 Q111.293 1459.64 111.293 1464.13 Q111.293 1466.26 110.483 1468.18 Q109.696 1470.08 107.589 1472.68 Q107.01 1473.35 103.909 1476.56 Q100.807 1479.76 95.1586 1485.52 Z" fill="#000000" fill-rule="nonzero" fill-opacity="1" /><path clip-path="url(#clip110)" d="M50.9921 1199.41 L80.6679 1199.41 L80.6679 1203.35 L50.9921 1203.35 L50.9921 1199.41 Z" fill="#000000" fill-rule="nonzero" fill-opacity="1" /><path clip-path="url(#clip110)" d="M91.5706 1212.31 L99.2095 1212.31 L99.2095 1185.94 L90.8993 1187.61 L90.8993 1183.35 L99.1632 1181.68 L103.839 1181.68 L103.839 1212.31 L111.478 1212.31 L111.478 1216.24 L91.5706 1216.24 L91.5706 1212.31 Z" fill="#000000" fill-rule="nonzero" fill-opacity="1" /><path clip-path="url(#clip110)" d="M99.5335 911.542 Q95.9224 911.542 94.0937 915.107 Q92.2882 918.648 92.2882 925.778 Q92.2882 932.884 94.0937 936.449 Q95.9224 939.991 99.5335 939.991 Q103.168 939.991 104.973 936.449 Q106.802 932.884 106.802 925.778 Q106.802 918.648 104.973 915.107 Q103.168 911.542 99.5335 911.542 M99.5335 907.838 Q105.344 907.838 108.399 912.445 Q111.478 917.028 111.478 925.778 Q111.478 934.505 108.399 939.111 Q105.344 943.694 99.5335 943.694 Q93.7234 943.694 90.6447 939.111 Q87.5892 934.505 87.5892 925.778 Q87.5892 917.028 90.6447 912.445 Q93.7234 907.838 99.5335 907.838 Z" fill="#000000" fill-rule="nonzero" fill-opacity="1" /><path clip-path="url(#clip110)" d="M91.5706 665.871 L99.2095 665.871 L99.2095 639.505 L90.8993 641.172 L90.8993 636.912 L99.1632 635.246 L103.839 635.246 L103.839 665.871 L111.478 665.871 L111.478 669.806 L91.5706 669.806 L91.5706 665.871 Z" fill="#000000" fill-rule="nonzero" fill-opacity="1" /><path clip-path="url(#clip110)" d="M95.1586 392.653 L111.478 392.653 L111.478 396.588 L89.5336 396.588 L89.5336 392.653 Q92.1956 389.899 96.7789 385.269 Q101.385 380.616 102.566 379.274 Q104.811 376.751 105.691 375.015 Q106.594 373.255 106.594 371.565 Q106.594 368.811 104.649 367.075 Q102.728 365.339 99.6261 365.339 Q97.4271 365.339 94.9734 366.103 Q92.5428 366.866 89.7651 368.417 L89.7651 363.695 Q92.5891 362.561 95.0428 361.982 Q97.4965 361.403 99.5335 361.403 Q104.904 361.403 108.098 364.089 Q111.293 366.774 111.293 371.265 Q111.293 373.394 110.483 375.315 Q109.696 377.214 107.589 379.806 Q107.01 380.477 103.909 383.695 Q100.807 386.889 95.1586 392.653 Z" fill="#000000" fill-rule="nonzero" fill-opacity="1" /><path clip-path="url(#clip110)" d="M104.348 104.737 Q107.705 105.455 109.58 107.723 Q111.478 109.992 111.478 113.325 Q111.478 118.441 107.959 121.241 Q104.441 124.042 97.9595 124.042 Q95.7836 124.042 93.4688 123.603 Q91.1771 123.186 88.7234 122.329 L88.7234 117.816 Q90.6678 118.95 92.9826 119.529 Q95.2974 120.107 97.8206 120.107 Q102.219 120.107 104.51 118.371 Q106.825 116.635 106.825 113.325 Q106.825 110.269 104.672 108.556 Q102.543 106.82 98.7234 106.82 L94.6956 106.82 L94.6956 102.978 L98.9085 102.978 Q102.358 102.978 104.186 101.612 Q106.015 100.223 106.015 97.6305 Q106.015 94.9685 104.117 93.5565 Q102.242 92.1213 98.7234 92.1213 Q96.8021 92.1213 94.603 92.5379 Q92.4039 92.9546 89.7651 93.8342 L89.7651 89.6676 Q92.4271 88.9269 94.7419 88.5565 Q97.0798 88.1861 99.14 88.1861 Q104.464 88.1861 107.566 90.6167 Q110.668 93.0241 110.668 97.1444 Q110.668 100.015 109.024 102.005 Q107.381 103.973 104.348 104.737 Z" fill="#000000" fill-rule="nonzero" fill-opacity="1" /><polyline clip-path="url(#clip112)" style="stroke:#000000; stroke-linecap:round; stroke-linejoin:round; stroke-width:4; stroke-opacity:1; fill:none" points="175.485,841.911 591.038,676.638 "/>
<polyline clip-path="url(#clip112)" style="stroke:#000000; stroke-linecap:round; stroke-linejoin:round; stroke-width:4; stroke-opacity:1; fill:none" points="175.485,841.911 582.985,1166.59 "/>
<polyline clip-path="url(#clip112)" style="stroke:#000000; stroke-linecap:round; stroke-linejoin:round; stroke-width:4; stroke-opacity:1; fill:none" points="175.485,841.911 266.706,616.842 "/>
<polyline clip-path="url(#clip112)" style="stroke:#000000; stroke-linecap:round; stroke-linejoin:round; stroke-width:4; stroke-opacity:1; fill:none" points="175.485,841.911 394.346,335.127 "/>
<polyline clip-path="url(#clip112)" style="stroke:#000000; stroke-linecap:round; stroke-linejoin:round; stroke-width:4; stroke-opacity:1; fill:none" points="175.485,841.911 342.046,1132.78 "/>
<polyline clip-path="url(#clip112)" style="stroke:#000000; stroke-linecap:round; stroke-linejoin:round; stroke-width:4; stroke-opacity:1; fill:none" points="591.038,676.638 942.488,400.91 "/>
<polyline clip-path="url(#clip112)" style="stroke:#000000; stroke-linecap:round; stroke-linejoin:round; stroke-width:4; stroke-opacity:1; fill:none" points="591.038,676.638 582.985,1166.59 "/>
<polyline clip-path="url(#clip112)" style="stroke:#000000; stroke-linecap:round; stroke-linejoin:round; stroke-width:4; stroke-opacity:1; fill:none" points="591.038,676.638 1017.81,916.845 "/>
<polyline clip-path="url(#clip112)" style="stroke:#000000; stroke-linecap:round; stroke-linejoin:round; stroke-width:4; stroke-opacity:1; fill:none" points="591.038,676.638 394.346,335.127 "/>
<polyline clip-path="url(#clip112)" style="stroke:#000000; stroke-linecap:round; stroke-linejoin:round; stroke-width:4; stroke-opacity:1; fill:none" points="942.488,400.91 1109.05,691.787 "/>
<polyline clip-path="url(#clip112)" style="stroke:#000000; stroke-linecap:round; stroke-linejoin:round; stroke-width:4; stroke-opacity:1; fill:none" points="942.488,400.91 1017.81,916.845 "/>
<polyline clip-path="url(#clip112)" style="stroke:#000000; stroke-linecap:round; stroke-linejoin:round; stroke-width:4; stroke-opacity:1; fill:none" points="942.488,400.91 394.346,335.127 "/>
<polyline clip-path="url(#clip112)" style="stroke:#000000; stroke-linecap:round; stroke-linejoin:round; stroke-width:4; stroke-opacity:1; fill:none" points="942.488,400.91 701.549,367.121 "/>
<polyline clip-path="url(#clip112)" style="stroke:#000000; stroke-linecap:round; stroke-linejoin:round; stroke-width:4; stroke-opacity:1; fill:none" points="1109.05,691.787 890.193,1198.57 "/>
<polyline clip-path="url(#clip112)" style="stroke:#000000; stroke-linecap:round; stroke-linejoin:round; stroke-width:4; stroke-opacity:1; fill:none" points="1109.05,691.787 1017.81,916.845 "/>
<polyline clip-path="url(#clip112)" style="stroke:#000000; stroke-linecap:round; stroke-linejoin:round; stroke-width:4; stroke-opacity:1; fill:none" points="1109.05,691.787 701.549,367.121 "/>
<polyline clip-path="url(#clip112)" style="stroke:#000000; stroke-linecap:round; stroke-linejoin:round; stroke-width:4; stroke-opacity:1; fill:none" points="1109.05,691.787 693.489,857.061 "/>
<polyline clip-path="url(#clip112)" style="stroke:#000000; stroke-linecap:round; stroke-linejoin:round; stroke-width:4; stroke-opacity:1; fill:none" points="890.193,1198.57 582.985,1166.59 "/>
<polyline clip-path="url(#clip112)" style="stroke:#000000; stroke-linecap:round; stroke-linejoin:round; stroke-width:4; stroke-opacity:1; fill:none" points="890.193,1198.57 1017.81,916.845 "/>
<polyline clip-path="url(#clip112)" style="stroke:#000000; stroke-linecap:round; stroke-linejoin:round; stroke-width:4; stroke-opacity:1; fill:none" points="890.193,1198.57 693.489,857.061 "/>
<polyline clip-path="url(#clip112)" style="stroke:#000000; stroke-linecap:round; stroke-linejoin:round; stroke-width:4; stroke-opacity:1; fill:none" points="890.193,1198.57 342.046,1132.78 "/>
<polyline clip-path="url(#clip112)" style="stroke:#000000; stroke-linecap:round; stroke-linejoin:round; stroke-width:4; stroke-opacity:1; fill:none" points="582.985,1166.59 1017.81,916.845 "/>
<polyline clip-path="url(#clip112)" style="stroke:#000000; stroke-linecap:round; stroke-linejoin:round; stroke-width:4; stroke-opacity:1; fill:none" points="582.985,1166.59 342.046,1132.78 "/>
<polyline clip-path="url(#clip112)" style="stroke:#000000; stroke-linecap:round; stroke-linejoin:round; stroke-width:4; stroke-opacity:1; fill:none" points="266.706,616.842 394.346,335.127 "/>
<polyline clip-path="url(#clip112)" style="stroke:#000000; stroke-linecap:round; stroke-linejoin:round; stroke-width:4; stroke-opacity:1; fill:none" points="266.706,616.842 701.549,367.121 "/>
<polyline clip-path="url(#clip112)" style="stroke:#000000; stroke-linecap:round; stroke-linejoin:round; stroke-width:4; stroke-opacity:1; fill:none" points="266.706,616.842 693.489,857.061 "/>
<polyline clip-path="url(#clip112)" style="stroke:#000000; stroke-linecap:round; stroke-linejoin:round; stroke-width:4; stroke-opacity:1; fill:none" points="266.706,616.842 342.046,1132.78 "/>
<polyline clip-path="url(#clip112)" style="stroke:#000000; stroke-linecap:round; stroke-linejoin:round; stroke-width:4; stroke-opacity:1; fill:none" points="394.346,335.127 701.549,367.121 "/>
<polyline clip-path="url(#clip112)" style="stroke:#000000; stroke-linecap:round; stroke-linejoin:round; stroke-width:4; stroke-opacity:1; fill:none" points="701.549,367.121 693.489,857.061 "/>
<polyline clip-path="url(#clip112)" style="stroke:#000000; stroke-linecap:round; stroke-linejoin:round; stroke-width:4; stroke-opacity:1; fill:none" points="693.489,857.061 342.046,1132.78 "/>
<circle clip-path="url(#clip112)" cx="175.485" cy="841.911" r="18" fill="#0000ff" fill-rule="evenodd" fill-opacity="1" stroke="#000000" stroke-opacity="1" stroke-width="3.2"/>
<circle clip-path="url(#clip112)" cx="591.038" cy="676.638" r="18" fill="#0000ff" fill-rule="evenodd" fill-opacity="1" stroke="#000000" stroke-opacity="1" stroke-width="3.2"/>
<circle clip-path="url(#clip112)" cx="942.488" cy="400.91" r="18" fill="#0000ff" fill-rule="evenodd" fill-opacity="1" stroke="#000000" stroke-opacity="1" stroke-width="3.2"/>
<circle clip-path="url(#clip112)" cx="1109.05" cy="691.787" r="18" fill="#0000ff" fill-rule="evenodd" fill-opacity="1" stroke="#000000" stroke-opacity="1" stroke-width="3.2"/>
<circle clip-path="url(#clip112)" cx="890.193" cy="1198.57" r="18" fill="#0000ff" fill-rule="evenodd" fill-opacity="1" stroke="#000000" stroke-opacity="1" stroke-width="3.2"/>
<circle clip-path="url(#clip112)" cx="582.985" cy="1166.59" r="18" fill="#0000ff" fill-rule="evenodd" fill-opacity="1" stroke="#000000" stroke-opacity="1" stroke-width="3.2"/>
<circle clip-path="url(#clip112)" cx="1017.81" cy="916.845" r="18" fill="#0000ff" fill-rule="evenodd" fill-opacity="1" stroke="#000000" stroke-opacity="1" stroke-width="3.2"/>
<circle clip-path="url(#clip112)" cx="266.706" cy="616.842" r="18" fill="#0000ff" fill-rule="evenodd" fill-opacity="1" stroke="#000000" stroke-opacity="1" stroke-width="3.2"/>
<circle clip-path="url(#clip112)" cx="394.346" cy="335.127" r="18" fill="#0000ff" fill-rule="evenodd" fill-opacity="1" stroke="#000000" stroke-opacity="1" stroke-width="3.2"/>
<circle clip-path="url(#clip112)" cx="701.549" cy="367.121" r="18" fill="#0000ff" fill-rule="evenodd" fill-opacity="1" stroke="#000000" stroke-opacity="1" stroke-width="3.2"/>
<circle clip-path="url(#clip112)" cx="693.489" cy="857.061" r="18" fill="#0000ff" fill-rule="evenodd" fill-opacity="1" stroke="#000000" stroke-opacity="1" stroke-width="3.2"/>
<circle clip-path="url(#clip112)" cx="342.046" cy="1132.78" r="18" fill="#0000ff" fill-rule="evenodd" fill-opacity="1" stroke="#000000" stroke-opacity="1" stroke-width="3.2"/>
<path clip-path="url(#clip110)" d="M1363.17 1486.45 L2352.76 1486.45 L2352.76 47.2441 L1363.17 47.2441  Z" fill="#ffffff" fill-rule="evenodd" fill-opacity="1"/>
<polyline clip-path="url(#clip111)" style="stroke:#000000; stroke-linecap:round; stroke-linejoin:round; stroke-width:2; stroke-opacity:0.1; fill:none" points="1388.78,1486.45 1388.78,47.2441 "/>
<polyline clip-path="url(#clip111)" style="stroke:#000000; stroke-linecap:round; stroke-linejoin:round; stroke-width:2; stroke-opacity:0.1; fill:none" points="1628.77,1486.45 1628.77,47.2441 "/>
<polyline clip-path="url(#clip111)" style="stroke:#000000; stroke-linecap:round; stroke-linejoin:round; stroke-width:2; stroke-opacity:0.1; fill:none" points="1868.76,1486.45 1868.76,47.2441 "/>
<polyline clip-path="url(#clip111)" style="stroke:#000000; stroke-linecap:round; stroke-linejoin:round; stroke-width:2; stroke-opacity:0.1; fill:none" points="2108.76,1486.45 2108.76,47.2441 "/>
<polyline clip-path="url(#clip111)" style="stroke:#000000; stroke-linecap:round; stroke-linejoin:round; stroke-width:2; stroke-opacity:0.1; fill:none" points="2348.75,1486.45 2348.75,47.2441 "/>
<polyline clip-path="url(#clip111)" style="stroke:#000000; stroke-linecap:round; stroke-linejoin:round; stroke-width:2; stroke-opacity:0.1; fill:none" points="1363.17,1416.72 2352.76,1416.72 "/>
<polyline clip-path="url(#clip111)" style="stroke:#000000; stroke-linecap:round; stroke-linejoin:round; stroke-width:2; stroke-opacity:0.1; fill:none" points="1363.17,1104.77 2352.76,1104.77 "/>
<polyline clip-path="url(#clip111)" style="stroke:#000000; stroke-linecap:round; stroke-linejoin:round; stroke-width:2; stroke-opacity:0.1; fill:none" points="1363.17,792.816 2352.76,792.816 "/>
<polyline clip-path="url(#clip111)" style="stroke:#000000; stroke-linecap:round; stroke-linejoin:round; stroke-width:2; stroke-opacity:0.1; fill:none" points="1363.17,480.864 2352.76,480.864 "/>
<polyline clip-path="url(#clip111)" style="stroke:#000000; stroke-linecap:round; stroke-linejoin:round; stroke-width:2; stroke-opacity:0.1; fill:none" points="1363.17,168.912 2352.76,168.912 "/>
<polyline clip-path="url(#clip110)" style="stroke:#000000; stroke-linecap:round; stroke-linejoin:round; stroke-width:4; stroke-opacity:1; fill:none" points="1363.17,1486.45 2352.76,1486.45 "/>
<polyline clip-path="url(#clip110)" style="stroke:#000000; stroke-linecap:round; stroke-linejoin:round; stroke-width:4; stroke-opacity:1; fill:none" points="1388.78,1486.45 1388.78,1467.55 "/>
<polyline clip-path="url(#clip110)" style="stroke:#000000; stroke-linecap:round; stroke-linejoin:round; stroke-width:4; stroke-opacity:1; fill:none" points="1628.77,1486.45 1628.77,1467.55 "/>
<polyline clip-path="url(#clip110)" style="stroke:#000000; stroke-linecap:round; stroke-linejoin:round; stroke-width:4; stroke-opacity:1; fill:none" points="1868.76,1486.45 1868.76,1467.55 "/>
<polyline clip-path="url(#clip110)" style="stroke:#000000; stroke-linecap:round; stroke-linejoin:round; stroke-width:4; stroke-opacity:1; fill:none" points="2108.76,1486.45 2108.76,1467.55 "/>
<polyline clip-path="url(#clip110)" style="stroke:#000000; stroke-linecap:round; stroke-linejoin:round; stroke-width:4; stroke-opacity:1; fill:none" points="2348.75,1486.45 2348.75,1467.55 "/>
<path clip-path="url(#clip110)" d="M1388.78 1517.37 Q1385.17 1517.37 1383.34 1520.93 Q1381.53 1524.47 1381.53 1531.6 Q1381.53 1538.71 1383.34 1542.27 Q1385.17 1545.82 1388.78 1545.82 Q1392.41 1545.82 1394.22 1542.27 Q1396.05 1538.71 1396.05 1531.6 Q1396.05 1524.47 1394.22 1520.93 Q1392.41 1517.37 1388.78 1517.37 M1388.78 1513.66 Q1394.59 1513.66 1397.65 1518.27 Q1400.72 1522.85 1400.72 1531.6 Q1400.72 1540.33 1397.65 1544.94 Q1394.59 1549.52 1388.78 1549.52 Q1382.97 1549.52 1379.89 1544.94 Q1376.84 1540.33 1376.84 1531.6 Q1376.84 1522.85 1379.89 1518.27 Q1382.97 1513.66 1388.78 1513.66 Z" fill="#000000" fill-rule="nonzero" fill-opacity="1" /><path clip-path="url(#clip110)" d="M1588.38 1544.91 L1596.02 1544.91 L1596.02 1518.55 L1587.71 1520.21 L1587.71 1515.95 L1595.97 1514.29 L1600.65 1514.29 L1600.65 1544.91 L1608.29 1544.91 L1608.29 1548.85 L1588.38 1548.85 L1588.38 1544.91 Z" fill="#000000" fill-rule="nonzero" fill-opacity="1" /><path clip-path="url(#clip110)" d="M1627.73 1517.37 Q1624.12 1517.37 1622.29 1520.93 Q1620.48 1524.47 1620.48 1531.6 Q1620.48 1538.71 1622.29 1542.27 Q1624.12 1545.82 1627.73 1545.82 Q1631.36 1545.82 1633.17 1542.27 Q1635 1538.71 1635 1531.6 Q1635 1524.47 1633.17 1520.93 Q1631.36 1517.37 1627.73 1517.37 M1627.73 1513.66 Q1633.54 1513.66 1636.6 1518.27 Q1639.67 1522.85 1639.67 1531.6 Q1639.67 1540.33 1636.6 1544.94 Q1633.54 1549.52 1627.73 1549.52 Q1621.92 1549.52 1618.84 1544.94 Q1615.79 1540.33 1615.79 1531.6 Q1615.79 1522.85 1618.84 1518.27 Q1621.92 1513.66 1627.73 1513.66 Z" fill="#000000" fill-rule="nonzero" fill-opacity="1" /><path clip-path="url(#clip110)" d="M1657.89 1517.37 Q1654.28 1517.37 1652.45 1520.93 Q1650.65 1524.47 1650.65 1531.6 Q1650.65 1538.71 1652.45 1542.27 Q1654.28 1545.82 1657.89 1545.82 Q1661.53 1545.82 1663.33 1542.27 Q1665.16 1538.71 1665.16 1531.6 Q1665.16 1524.47 1663.33 1520.93 Q1661.53 1517.37 1657.89 1517.37 M1657.89 1513.66 Q1663.7 1513.66 1666.76 1518.27 Q1669.84 1522.85 1669.84 1531.6 Q1669.84 1540.33 1666.76 1544.94 Q1663.7 1549.52 1657.89 1549.52 Q1652.08 1549.52 1649 1544.94 Q1645.95 1540.33 1645.95 1531.6 Q1645.95 1522.85 1649 1518.27 Q1652.08 1513.66 1657.89 1513.66 Z" fill="#000000" fill-rule="nonzero" fill-opacity="1" /><path clip-path="url(#clip110)" d="M1832.46 1544.91 L1848.78 1544.91 L1848.78 1548.85 L1826.83 1548.85 L1826.83 1544.91 Q1829.49 1542.16 1834.08 1537.53 Q1838.68 1532.88 1839.86 1531.53 Q1842.11 1529.01 1842.99 1527.27 Q1843.89 1525.51 1843.89 1523.82 Q1843.89 1521.07 1841.95 1519.33 Q1840.03 1517.6 1836.92 1517.6 Q1834.72 1517.6 1832.27 1518.36 Q1829.84 1519.13 1827.06 1520.68 L1827.06 1515.95 Q1829.89 1514.82 1832.34 1514.24 Q1834.79 1513.66 1836.83 1513.66 Q1842.2 1513.66 1845.4 1516.35 Q1848.59 1519.03 1848.59 1523.52 Q1848.59 1525.65 1847.78 1527.57 Q1846.99 1529.47 1844.89 1532.07 Q1844.31 1532.74 1841.21 1535.95 Q1838.1 1539.15 1832.46 1544.91 Z" fill="#000000" fill-rule="nonzero" fill-opacity="1" /><path clip-path="url(#clip110)" d="M1868.59 1517.37 Q1864.98 1517.37 1863.15 1520.93 Q1861.34 1524.47 1861.34 1531.6 Q1861.34 1538.71 1863.15 1542.27 Q1864.98 1545.82 1868.59 1545.82 Q1872.22 1545.82 1874.03 1542.27 Q1875.86 1538.71 1875.86 1531.6 Q1875.86 1524.47 1874.03 1520.93 Q1872.22 1517.37 1868.59 1517.37 M1868.59 1513.66 Q1874.4 1513.66 1877.46 1518.27 Q1880.53 1522.85 1880.53 1531.6 Q1880.53 1540.33 1877.46 1544.94 Q1874.4 1549.52 1868.59 1549.52 Q1862.78 1549.52 1859.7 1544.94 Q1856.65 1540.33 1856.65 1531.6 Q1856.65 1522.85 1859.7 1518.27 Q1862.78 1513.66 1868.59 1513.66 Z" fill="#000000" fill-rule="nonzero" fill-opacity="1" /><path clip-path="url(#clip110)" d="M1898.75 1517.37 Q1895.14 1517.37 1893.31 1520.93 Q1891.51 1524.47 1891.51 1531.6 Q1891.51 1538.71 1893.31 1542.27 Q1895.14 1545.82 1898.75 1545.82 Q1902.39 1545.82 1904.19 1542.27 Q1906.02 1538.71 1906.02 1531.6 Q1906.02 1524.47 1904.19 1520.93 Q1902.39 1517.37 1898.75 1517.37 M1898.75 1513.66 Q1904.56 1513.66 1907.62 1518.27 Q1910.7 1522.85 1910.7 1531.6 Q1910.7 1540.33 1907.62 1544.94 Q1904.56 1549.52 1898.75 1549.52 Q1892.94 1549.52 1889.86 1544.94 Q1886.81 1540.33 1886.81 1531.6 Q1886.81 1522.85 1889.86 1518.27 Q1892.94 1513.66 1898.75 1513.66 Z" fill="#000000" fill-rule="nonzero" fill-opacity="1" /><path clip-path="url(#clip110)" d="M2082.52 1530.21 Q2085.87 1530.93 2087.75 1533.2 Q2089.65 1535.47 2089.65 1538.8 Q2089.65 1543.92 2086.13 1546.72 Q2082.61 1549.52 2076.13 1549.52 Q2073.95 1549.52 2071.64 1549.08 Q2069.35 1548.66 2066.89 1547.81 L2066.89 1543.29 Q2068.84 1544.43 2071.15 1545.01 Q2073.47 1545.58 2075.99 1545.58 Q2080.39 1545.58 2082.68 1543.85 Q2084.99 1542.11 2084.99 1538.8 Q2084.99 1535.75 2082.84 1534.03 Q2080.71 1532.3 2076.89 1532.3 L2072.86 1532.3 L2072.86 1528.45 L2077.08 1528.45 Q2080.53 1528.45 2082.36 1527.09 Q2084.18 1525.7 2084.18 1523.11 Q2084.18 1520.45 2082.29 1519.03 Q2080.41 1517.6 2076.89 1517.6 Q2074.97 1517.6 2072.77 1518.01 Q2070.57 1518.43 2067.93 1519.31 L2067.93 1515.14 Q2070.6 1514.4 2072.91 1514.03 Q2075.25 1513.66 2077.31 1513.66 Q2082.63 1513.66 2085.74 1516.09 Q2088.84 1518.5 2088.84 1522.62 Q2088.84 1525.49 2087.19 1527.48 Q2085.55 1529.45 2082.52 1530.21 Z" fill="#000000" fill-rule="nonzero" fill-opacity="1" /><path clip-path="url(#clip110)" d="M2108.51 1517.37 Q2104.9 1517.37 2103.07 1520.93 Q2101.27 1524.47 2101.27 1531.6 Q2101.27 1538.71 2103.07 1542.27 Q2104.9 1545.82 2108.51 1545.82 Q2112.15 1545.82 2113.95 1542.27 Q2115.78 1538.71 2115.78 1531.6 Q2115.78 1524.47 2113.95 1520.93 Q2112.15 1517.37 2108.51 1517.37 M2108.51 1513.66 Q2114.32 1513.66 2117.38 1518.27 Q2120.46 1522.85 2120.46 1531.6 Q2120.46 1540.33 2117.38 1544.94 Q2114.32 1549.52 2108.51 1549.52 Q2102.7 1549.52 2099.62 1544.94 Q2096.57 1540.33 2096.57 1531.6 Q2096.57 1522.85 2099.62 1518.27 Q2102.7 1513.66 2108.51 1513.66 Z" fill="#000000" fill-rule="nonzero" fill-opacity="1" /><path clip-path="url(#clip110)" d="M2138.67 1517.37 Q2135.06 1517.37 2133.23 1520.93 Q2131.43 1524.47 2131.43 1531.6 Q2131.43 1538.71 2133.23 1542.27 Q2135.06 1545.82 2138.67 1545.82 Q2142.31 1545.82 2144.11 1542.27 Q2145.94 1538.71 2145.94 1531.6 Q2145.94 1524.47 2144.11 1520.93 Q2142.31 1517.37 2138.67 1517.37 M2138.67 1513.66 Q2144.48 1513.66 2147.54 1518.27 Q2150.62 1522.85 2150.62 1531.6 Q2150.62 1540.33 2147.54 1544.94 Q2144.48 1549.52 2138.67 1549.52 Q2132.86 1549.52 2129.79 1544.94 Q2126.73 1540.33 2126.73 1531.6 Q2126.73 1522.85 2129.79 1518.27 Q2132.86 1513.66 2138.67 1513.66 Z" fill="#000000" fill-rule="nonzero" fill-opacity="1" /><path clip-path="url(#clip110)" d="M2321.84 1518.36 L2310.03 1536.81 L2321.84 1536.81 L2321.84 1518.36 M2320.61 1514.29 L2326.49 1514.29 L2326.49 1536.81 L2331.42 1536.81 L2331.42 1540.7 L2326.49 1540.7 L2326.49 1548.85 L2321.84 1548.85 L2321.84 1540.7 L2306.24 1540.7 L2306.24 1536.19 L2320.61 1514.29 Z" fill="#000000" fill-rule="nonzero" fill-opacity="1" /><path clip-path="url(#clip110)" d="M2349.15 1517.37 Q2345.54 1517.37 2343.71 1520.93 Q2341.91 1524.47 2341.91 1531.6 Q2341.91 1538.71 2343.71 1542.27 Q2345.54 1545.82 2349.15 1545.82 Q2352.79 1545.82 2354.59 1542.27 Q2356.42 1538.71 2356.42 1531.6 Q2356.42 1524.47 2354.59 1520.93 Q2352.79 1517.37 2349.15 1517.37 M2349.15 1513.66 Q2354.96 1513.66 2358.02 1518.27 Q2361.1 1522.85 2361.1 1531.6 Q2361.1 1540.33 2358.02 1544.94 Q2354.96 1549.52 2349.15 1549.52 Q2343.34 1549.52 2340.26 1544.94 Q2337.21 1540.33 2337.21 1531.6 Q2337.21 1522.85 2340.26 1518.27 Q2343.34 1513.66 2349.15 1513.66 Z" fill="#000000" fill-rule="nonzero" fill-opacity="1" /><path clip-path="url(#clip110)" d="M2379.32 1517.37 Q2375.7 1517.37 2373.88 1520.93 Q2372.07 1524.47 2372.07 1531.6 Q2372.07 1538.71 2373.88 1542.27 Q2375.7 1545.82 2379.32 1545.82 Q2382.95 1545.82 2384.75 1542.27 Q2386.58 1538.71 2386.58 1531.6 Q2386.58 1524.47 2384.75 1520.93 Q2382.95 1517.37 2379.32 1517.37 M2379.32 1513.66 Q2385.13 1513.66 2388.18 1518.27 Q2391.26 1522.85 2391.26 1531.6 Q2391.26 1540.33 2388.18 1544.94 Q2385.13 1549.52 2379.32 1549.52 Q2373.5 1549.52 2370.43 1544.94 Q2367.37 1540.33 2367.37 1531.6 Q2367.37 1522.85 2370.43 1518.27 Q2373.5 1513.66 2379.32 1513.66 Z" fill="#000000" fill-rule="nonzero" fill-opacity="1" /><polyline clip-path="url(#clip110)" style="stroke:#000000; stroke-linecap:round; stroke-linejoin:round; stroke-width:4; stroke-opacity:1; fill:none" points="1363.17,1486.45 1363.17,47.2441 "/>
<polyline clip-path="url(#clip110)" style="stroke:#000000; stroke-linecap:round; stroke-linejoin:round; stroke-width:4; stroke-opacity:1; fill:none" points="1363.17,1416.72 1382.07,1416.72 "/>
<polyline clip-path="url(#clip110)" style="stroke:#000000; stroke-linecap:round; stroke-linejoin:round; stroke-width:4; stroke-opacity:1; fill:none" points="1363.17,1104.77 1382.07,1104.77 "/>
<polyline clip-path="url(#clip110)" style="stroke:#000000; stroke-linecap:round; stroke-linejoin:round; stroke-width:4; stroke-opacity:1; fill:none" points="1363.17,792.816 1382.07,792.816 "/>
<polyline clip-path="url(#clip110)" style="stroke:#000000; stroke-linecap:round; stroke-linejoin:round; stroke-width:4; stroke-opacity:1; fill:none" points="1363.17,480.864 1382.07,480.864 "/>
<polyline clip-path="url(#clip110)" style="stroke:#000000; stroke-linecap:round; stroke-linejoin:round; stroke-width:4; stroke-opacity:1; fill:none" points="1363.17,168.912 1382.07,168.912 "/>
<path clip-path="url(#clip110)" d="M1235.3 1417.17 L1264.97 1417.17 L1264.97 1421.11 L1235.3 1421.11 L1235.3 1417.17 Z" fill="#000000" fill-rule="nonzero" fill-opacity="1" /><path clip-path="url(#clip110)" d="M1279.09 1430.06 L1295.41 1430.06 L1295.41 1434 L1273.47 1434 L1273.47 1430.06 Q1276.13 1427.31 1280.71 1422.68 Q1285.32 1418.03 1286.5 1416.69 Q1288.75 1414.16 1289.63 1412.43 Q1290.53 1410.67 1290.53 1408.98 Q1290.53 1406.22 1288.58 1404.49 Q1286.66 1402.75 1283.56 1402.75 Q1281.36 1402.75 1278.91 1403.51 Q1276.48 1404.28 1273.7 1405.83 L1273.7 1401.11 Q1276.52 1399.97 1278.98 1399.39 Q1281.43 1398.81 1283.47 1398.81 Q1288.84 1398.81 1292.03 1401.5 Q1295.23 1404.19 1295.23 1408.68 Q1295.23 1410.81 1294.42 1412.73 Q1293.63 1414.63 1291.52 1417.22 Q1290.95 1417.89 1287.84 1421.11 Q1284.74 1424.3 1279.09 1430.06 Z" fill="#000000" fill-rule="nonzero" fill-opacity="1" /><path clip-path="url(#clip110)" d="M1315.23 1402.52 Q1311.62 1402.52 1309.79 1406.08 Q1307.98 1409.63 1307.98 1416.75 Q1307.98 1423.86 1309.79 1427.43 Q1311.62 1430.97 1315.23 1430.97 Q1318.86 1430.97 1320.67 1427.43 Q1322.5 1423.86 1322.5 1416.75 Q1322.5 1409.63 1320.67 1406.08 Q1318.86 1402.52 1315.23 1402.52 M1315.23 1398.81 Q1321.04 1398.81 1324.09 1403.42 Q1327.17 1408 1327.17 1416.75 Q1327.17 1425.48 1324.09 1430.09 Q1321.04 1434.67 1315.23 1434.67 Q1309.42 1434.67 1306.34 1430.09 Q1303.28 1425.48 1303.28 1416.75 Q1303.28 1408 1306.34 1403.42 Q1309.42 1398.81 1315.23 1398.81 Z" fill="#000000" fill-rule="nonzero" fill-opacity="1" /><path clip-path="url(#clip110)" d="M1315.23 1090.57 Q1311.62 1090.57 1309.79 1094.13 Q1307.98 1097.67 1307.98 1104.8 Q1307.98 1111.91 1309.79 1115.47 Q1311.62 1119.02 1315.23 1119.02 Q1318.86 1119.02 1320.67 1115.47 Q1322.5 1111.91 1322.5 1104.8 Q1322.5 1097.67 1320.67 1094.13 Q1318.86 1090.57 1315.23 1090.57 M1315.23 1086.86 Q1321.04 1086.86 1324.09 1091.47 Q1327.17 1096.05 1327.17 1104.8 Q1327.17 1113.53 1324.09 1118.14 Q1321.04 1122.72 1315.23 1122.72 Q1309.42 1122.72 1306.34 1118.14 Q1303.28 1113.53 1303.28 1104.8 Q1303.28 1096.05 1306.34 1091.47 Q1309.42 1086.86 1315.23 1086.86 Z" fill="#000000" fill-rule="nonzero" fill-opacity="1" /><path clip-path="url(#clip110)" d="M1279.09 806.161 L1295.41 806.161 L1295.41 810.096 L1273.47 810.096 L1273.47 806.161 Q1276.13 803.406 1280.71 798.776 Q1285.32 794.124 1286.5 792.781 Q1288.75 790.258 1289.63 788.522 Q1290.53 786.763 1290.53 785.073 Q1290.53 782.318 1288.58 780.582 Q1286.66 778.846 1283.56 778.846 Q1281.36 778.846 1278.91 779.61 Q1276.48 780.374 1273.7 781.925 L1273.7 777.202 Q1276.52 776.068 1278.98 775.49 Q1281.43 774.911 1283.47 774.911 Q1288.84 774.911 1292.03 777.596 Q1295.23 780.281 1295.23 784.772 Q1295.23 786.901 1294.42 788.823 Q1293.63 790.721 1291.52 793.313 Q1290.95 793.985 1287.84 797.202 Q1284.74 800.397 1279.09 806.161 Z" fill="#000000" fill-rule="nonzero" fill-opacity="1" /><path clip-path="url(#clip110)" d="M1315.23 778.614 Q1311.62 778.614 1309.79 782.179 Q1307.98 785.721 1307.98 792.851 Q1307.98 799.957 1309.79 803.522 Q1311.62 807.063 1315.23 807.063 Q1318.86 807.063 1320.67 803.522 Q1322.5 799.957 1322.5 792.851 Q1322.5 785.721 1320.67 782.179 Q1318.86 778.614 1315.23 778.614 M1315.23 774.911 Q1321.04 774.911 1324.09 779.517 Q1327.17 784.101 1327.17 792.851 Q1327.17 801.577 1324.09 806.184 Q1321.04 810.767 1315.23 810.767 Q1309.42 810.767 1306.34 806.184 Q1303.28 801.577 1303.28 792.851 Q1303.28 784.101 1306.34 779.517 Q1309.42 774.911 1315.23 774.911 Z" fill="#000000" fill-rule="nonzero" fill-opacity="1" /><path clip-path="url(#clip110)" d="M1287.91 467.658 L1276.11 486.107 L1287.91 486.107 L1287.91 467.658 M1286.69 463.584 L1292.57 463.584 L1292.57 486.107 L1297.5 486.107 L1297.5 489.996 L1292.57 489.996 L1292.57 498.144 L1287.91 498.144 L1287.91 489.996 L1272.31 489.996 L1272.31 485.482 L1286.69 463.584 Z" fill="#000000" fill-rule="nonzero" fill-opacity="1" /><path clip-path="url(#clip110)" d="M1315.23 466.662 Q1311.62 466.662 1309.79 470.227 Q1307.98 473.769 1307.98 480.898 Q1307.98 488.005 1309.79 491.57 Q1311.62 495.111 1315.23 495.111 Q1318.86 495.111 1320.67 491.57 Q1322.5 488.005 1322.5 480.898 Q1322.5 473.769 1320.67 470.227 Q1318.86 466.662 1315.23 466.662 M1315.23 462.959 Q1321.04 462.959 1324.09 467.565 Q1327.17 472.149 1327.17 480.898 Q1327.17 489.625 1324.09 494.232 Q1321.04 498.815 1315.23 498.815 Q1309.42 498.815 1306.34 494.232 Q1303.28 489.625 1303.28 480.898 Q1303.28 472.149 1306.34 467.565 Q1309.42 462.959 1315.23 462.959 Z" fill="#000000" fill-rule="nonzero" fill-opacity="1" /><path clip-path="url(#clip110)" d="M1285.64 167.048 Q1282.5 167.048 1280.64 169.201 Q1278.82 171.354 1278.82 175.104 Q1278.82 178.831 1280.64 181.007 Q1282.5 183.159 1285.64 183.159 Q1288.79 183.159 1290.62 181.007 Q1292.47 178.831 1292.47 175.104 Q1292.47 171.354 1290.62 169.201 Q1288.79 167.048 1285.64 167.048 M1294.93 152.396 L1294.93 156.655 Q1293.17 155.821 1291.36 155.382 Q1289.58 154.942 1287.82 154.942 Q1283.19 154.942 1280.74 158.067 Q1278.31 161.192 1277.96 167.511 Q1279.33 165.497 1281.39 164.433 Q1283.45 163.345 1285.92 163.345 Q1291.13 163.345 1294.14 166.516 Q1297.17 169.664 1297.17 175.104 Q1297.17 180.428 1294.02 183.645 Q1290.88 186.863 1285.64 186.863 Q1279.65 186.863 1276.48 182.28 Q1273.31 177.673 1273.31 168.946 Q1273.31 160.752 1277.2 155.891 Q1281.08 151.007 1287.64 151.007 Q1289.39 151.007 1291.18 151.354 Q1292.98 151.701 1294.93 152.396 Z" fill="#000000" fill-rule="nonzero" fill-opacity="1" /><path clip-path="url(#clip110)" d="M1315.23 154.71 Q1311.62 154.71 1309.79 158.275 Q1307.98 161.817 1307.98 168.946 Q1307.98 176.053 1309.79 179.618 Q1311.62 183.159 1315.23 183.159 Q1318.86 183.159 1320.67 179.618 Q1322.5 176.053 1322.5 168.946 Q1322.5 161.817 1320.67 158.275 Q1318.86 154.71 1315.23 154.71 M1315.23 151.007 Q1321.04 151.007 1324.09 155.613 Q1327.17 160.196 1327.17 168.946 Q1327.17 177.673 1324.09 182.28 Q1321.04 186.863 1315.23 186.863 Q1309.42 186.863 1306.34 182.28 Q1303.28 177.673 1303.28 168.946 Q1303.28 160.196 1306.34 155.613 Q1309.42 151.007 1315.23 151.007 Z" fill="#000000" fill-rule="nonzero" fill-opacity="1" /><polyline clip-path="url(#clip111)" style="stroke:#009af9; stroke-linecap:round; stroke-linejoin:round; stroke-width:4; stroke-opacity:1; fill:none" points="1391.18,87.9763 1393.58,241.94 1395.98,371.462 1398.38,495.07 1400.78,607.236 1403.18,705.51 1405.58,789.191 1407.98,858.54 1410.38,914.388 1412.78,957.917 1415.18,990.535 1417.58,1013.78 1419.98,1029.24 1422.38,1038.51 1424.78,1043.08 1427.18,1044.35 1429.58,1043.55 1431.98,1041.69 1434.38,1039.63 1436.78,1037.98 1439.18,1037.18 1441.58,1037.48 1443.98,1039 1446.38,1041.71 1448.78,1045.51 1451.18,1050.21 1453.58,1055.6 1455.98,1061.45 1458.38,1067.52 1460.78,1073.61 1463.18,1079.55 1465.58,1085.21 1467.98,1090.51 1470.38,1095.4 1472.78,1099.88 1475.18,1103.99 1477.58,1107.78 1479.98,1111.33 1482.38,1114.73 1484.78,1118.03 1487.18,1121.33 1489.58,1124.65 1491.98,1128.04 1494.38,1131.52 1496.78,1135.1 1499.18,1138.79 1501.58,1142.59 1503.98,1146.48 1506.38,1150.46 1508.78,1154.51 1511.18,1158.63 1513.58,1162.79 1515.98,1166.99 1518.38,1171.21 1520.78,1175.45 1523.18,1179.7 1525.57,1183.96 1527.97,1188.23 1530.37,1192.51 1532.77,1196.79 1535.17,1201.09 1537.57,1205.41 1539.97,1209.75 1542.37,1214.11 1544.77,1218.49 1547.17,1222.88 1549.57,1227.27 1551.97,1231.65 1554.37,1236.01 1556.77,1240.33 1559.17,1244.58 1561.57,1248.76 1563.97,1252.85 1566.37,1256.84 1568.77,1260.71 1571.17,1264.47 1573.57,1268.09 1575.97,1271.59 1578.37,1274.97 1580.77,1278.23 1583.17,1281.39 1585.57,1284.45 1587.97,1287.43 1590.37,1290.36 1592.77,1293.24 1595.17,1296.1 1597.57,1298.95 1599.97,1301.81 1602.37,1304.69 1604.77,1307.6 1607.17,1310.54 1609.57,1313.52 1611.97,1316.53 1614.37,1319.58 1616.77,1322.67 1619.17,1325.79 1621.57,1328.94 1623.97,1332.12 1626.37,1335.32 1628.77,1338.55 1631.17,1341.81 1633.57,1345.08 1635.97,1348.37 1638.37,1351.67 1640.77,1354.98 1643.17,1358.3 1645.57,1361.61 1647.97,1364.92 1650.37,1368.21 1652.77,1371.48 1655.17,1374.72 1657.57,1377.93 1659.97,1381.08 1662.37,1384.19 1664.77,1387.23 1667.17,1390.21 1669.57,1393.11 1671.97,1395.94 1674.37,1398.68 1676.77,1401.33 1679.17,1403.89 1681.57,1406.36 1683.97,1408.73 1686.37,1411 1688.77,1413.17 1691.17,1415.24 1693.57,1417.21 1695.97,1419.08 1698.37,1420.86 1700.77,1422.53 1703.17,1424.11 1705.57,1425.59 1707.97,1426.98 1710.37,1428.28 1712.77,1429.49 1715.17,1430.62 1717.57,1431.67 1719.97,1432.64 1722.37,1433.53 1724.77,1434.36 1727.17,1435.12 1729.57,1435.82 1731.97,1436.46 1734.37,1437.05 1736.77,1437.59 1739.17,1438.09 1741.57,1438.54 1743.97,1438.96 1746.37,1439.34 1748.77,1439.68 1751.17,1440 1753.57,1440.3 1755.97,1440.57 1758.37,1440.82 1760.77,1441.05 1763.17,1441.26 1765.57,1441.45 1767.97,1441.64 1770.37,1441.81 1772.77,1441.97 1775.17,1442.11 1777.57,1442.25 1779.97,1442.38 1782.37,1442.51 1784.77,1442.62 1787.17,1442.73 1789.57,1442.84 1791.97,1442.94 1794.37,1443.03 1796.77,1443.13 1799.17,1443.21 1801.57,1443.3 1803.97,1443.38 1806.37,1443.45 1808.77,1443.53 1811.17,1443.6 1813.57,1443.67 1815.97,1443.73 1818.37,1443.79 1820.77,1443.86 1823.17,1443.92 1825.57,1443.97 1827.97,1444.03 1830.36,1444.08 1832.76,1444.13 1835.16,1444.18 1837.56,1444.23 1839.96,1444.28 1842.36,1444.33 1844.76,1444.37 1847.16,1444.41 1849.56,1444.45 1851.96,1444.49 1854.36,1444.53 1856.76,1444.57 1859.16,1444.61 1861.56,1444.64 1863.96,1444.67 1866.36,1444.71 1868.76,1444.74 1871.16,1444.77 1873.56,1444.8 1875.96,1444.83 1878.36,1444.86 1880.76,1444.89 1883.16,1444.91 1885.56,1444.94 1887.96,1444.96 1890.36,1444.99 1892.76,1445.01 1895.16,1445.03 1897.56,1445.05 1899.96,1445.08 1902.36,1445.1 1904.76,1445.12 1907.16,1445.14 1909.56,1445.16 1911.96,1445.17 1914.36,1445.19 1916.76,1445.21 1919.16,1445.23 1921.56,1445.24 1923.96,1445.26 1926.36,1445.27 1928.76,1445.29 1931.16,1445.3 1933.56,1445.31 1935.96,1445.33 1938.36,1445.34 1940.76,1445.35 1943.16,1445.37 1945.56,1445.38 1947.96,1445.39 1950.36,1445.4 1952.76,1445.41 1955.16,1445.42 1957.56,1445.43 1959.96,1445.44 1962.36,1445.45 1964.76,1445.46 1967.16,1445.47 1969.56,1445.48 1971.96,1445.48 1974.36,1445.49 1976.76,1445.5 1979.16,1445.51 1981.56,1445.51 1983.96,1445.52 1986.36,1445.53 1988.76,1445.54 1991.16,1445.54 1993.56,1445.55 1995.96,1445.55 1998.36,1445.56 2000.76,1445.56 2003.16,1445.57 2005.56,1445.58 2007.96,1445.58 2010.36,1445.58 2012.76,1445.59 2015.16,1445.59 2017.56,1445.6 2019.96,1445.6 2022.36,1445.61 2024.76,1445.61 2027.16,1445.61 2029.56,1445.62 2031.96,1445.62 2034.36,1445.62 2036.76,1445.63 2039.16,1445.63 2041.56,1445.63 2043.96,1445.64 2046.36,1445.64 2048.76,1445.64 2051.16,1445.65 2053.56,1445.65 2055.96,1445.65 2058.36,1445.65 2060.76,1445.66 2063.16,1445.66 2065.56,1445.66 2067.96,1445.66 2070.36,1445.66 2072.76,1445.67 2075.16,1445.67 2077.56,1445.67 2079.96,1445.67 2082.36,1445.67 2084.76,1445.67 2087.16,1445.68 2089.56,1445.68 2091.96,1445.68 2094.36,1445.68 2096.76,1445.68 2099.16,1445.68 2101.56,1445.68 2103.96,1445.69 2106.36,1445.69 2108.76,1445.69 2111.16,1445.69 2113.56,1445.69 2115.96,1445.69 2118.36,1445.69 2120.76,1445.69 2123.16,1445.69 2125.56,1445.69 2127.96,1445.7 2130.36,1445.7 2132.76,1445.7 2135.16,1445.7 2137.55,1445.7 2139.95,1445.7 2142.35,1445.7 2144.75,1445.7 2147.15,1445.7 2149.55,1445.7 2151.95,1445.7 2154.35,1445.7 2156.75,1445.7 2159.15,1445.7 2161.55,1445.7 2163.95,1445.7 2166.35,1445.71 2168.75,1445.71 2171.15,1445.71 2173.55,1445.71 2175.95,1445.71 2178.35,1445.71 2180.75,1445.71 2183.15,1445.71 2185.55,1445.71 2187.95,1445.71 2190.35,1445.71 2192.75,1445.71 2195.15,1445.71 2197.55,1445.71 2199.95,1445.71 2202.35,1445.71 2204.75,1445.71 2207.15,1445.71 2209.55,1445.71 2211.95,1445.71 2214.35,1445.71 2216.75,1445.71 2219.15,1445.71 2221.55,1445.71 2223.95,1445.71 2226.35,1445.71 2228.75,1445.71 2231.15,1445.71 2233.55,1445.71 2235.95,1445.71 2238.35,1445.71 2240.75,1445.71 2243.15,1445.71 2245.55,1445.71 2247.95,1445.71 2250.35,1445.71 2252.75,1445.71 2255.15,1445.71 2257.55,1445.71 2259.95,1445.71 2262.35,1445.71 2264.75,1445.71 2267.15,1445.71 2269.55,1445.71 2271.95,1445.71 2274.35,1445.71 2276.75,1445.71 2279.15,1445.71 2281.55,1445.71 2283.95,1445.71 2286.35,1445.71 2288.75,1445.72 2291.15,1445.72 2293.55,1445.72 2295.95,1445.72 2298.35,1445.72 2300.75,1445.72 2303.15,1445.72 2305.55,1445.72 2307.95,1445.72 2310.35,1445.72 2312.75,1445.72 2315.15,1445.72 2317.55,1445.72 2319.95,1445.72 2322.35,1445.72 2324.75,1445.72 "/>
<path clip-path="url(#clip110)" d="M2085.4 198.898 L2319.77 198.898 L2319.77 95.2176 L2085.4 95.2176  Z" fill="#ffffff" fill-rule="evenodd" fill-opacity="1"/>
<polyline clip-path="url(#clip110)" style="stroke:#000000; stroke-linecap:round; stroke-linejoin:round; stroke-width:4; stroke-opacity:1; fill:none" points="2085.4,198.898 2319.77,198.898 2319.77,95.2176 2085.4,95.2176 2085.4,198.898 "/>
<polyline clip-path="url(#clip110)" style="stroke:#009af9; stroke-linecap:round; stroke-linejoin:round; stroke-width:4; stroke-opacity:1; fill:none" points="2096.39,147.058 2162.36,147.058 "/>
<path clip-path="url(#clip110)" d="M2191.78 139.176 L2191.78 143.203 Q2189.98 142.277 2188.03 141.815 Q2186.09 141.352 2184.01 141.352 Q2180.84 141.352 2179.24 142.324 Q2177.66 143.296 2177.66 145.24 Q2177.66 146.722 2178.8 147.578 Q2179.93 148.412 2183.36 149.176 L2184.82 149.5 Q2189.35 150.472 2191.25 152.254 Q2193.17 154.014 2193.17 157.185 Q2193.17 160.796 2190.3 162.902 Q2187.46 165.009 2182.46 165.009 Q2180.37 165.009 2178.1 164.592 Q2175.86 164.199 2173.36 163.388 L2173.36 158.99 Q2175.72 160.217 2178.01 160.842 Q2180.3 161.444 2182.55 161.444 Q2185.56 161.444 2187.18 160.426 Q2188.8 159.384 2188.8 157.509 Q2188.8 155.773 2187.62 154.847 Q2186.46 153.921 2182.5 153.064 L2181.02 152.717 Q2177.06 151.884 2175.3 150.171 Q2173.54 148.435 2173.54 145.426 Q2173.54 141.768 2176.14 139.778 Q2178.73 137.787 2183.5 137.787 Q2185.86 137.787 2187.94 138.134 Q2190.03 138.481 2191.78 139.176 Z" fill="#000000" fill-rule="nonzero" fill-opacity="1" /><path clip-path="url(#clip110)" d="M2204.17 131.051 L2204.17 138.412 L2212.94 138.412 L2212.94 141.722 L2204.17 141.722 L2204.17 155.796 Q2204.17 158.967 2205.02 159.87 Q2205.9 160.773 2208.57 160.773 L2212.94 160.773 L2212.94 164.338 L2208.57 164.338 Q2203.64 164.338 2201.76 162.509 Q2199.89 160.657 2199.89 155.796 L2199.89 141.722 L2196.76 141.722 L2196.76 138.412 L2199.89 138.412 L2199.89 131.051 L2204.17 131.051 Z" fill="#000000" fill-rule="nonzero" fill-opacity="1" /><path clip-path="url(#clip110)" d="M2233.57 142.393 Q2232.85 141.977 2231.99 141.791 Q2231.16 141.583 2230.14 141.583 Q2226.53 141.583 2224.59 143.944 Q2222.66 146.282 2222.66 150.68 L2222.66 164.338 L2218.38 164.338 L2218.38 138.412 L2222.66 138.412 L2222.66 142.44 Q2224.01 140.078 2226.16 138.944 Q2228.31 137.787 2231.39 137.787 Q2231.83 137.787 2232.36 137.856 Q2232.9 137.903 2233.54 138.018 L2233.57 142.393 Z" fill="#000000" fill-rule="nonzero" fill-opacity="1" /><path clip-path="url(#clip110)" d="M2259.17 150.31 L2259.17 152.393 L2239.58 152.393 Q2239.86 156.791 2242.22 159.106 Q2244.61 161.398 2248.84 161.398 Q2251.3 161.398 2253.59 160.796 Q2255.9 160.194 2258.17 158.99 L2258.17 163.018 Q2255.88 163.99 2253.47 164.5 Q2251.07 165.009 2248.59 165.009 Q2242.39 165.009 2238.75 161.398 Q2235.14 157.787 2235.14 151.629 Q2235.14 145.264 2238.57 141.537 Q2242.02 137.787 2247.85 137.787 Q2253.08 137.787 2256.11 141.166 Q2259.17 144.523 2259.17 150.31 M2254.91 149.06 Q2254.86 145.565 2252.94 143.481 Q2251.04 141.398 2247.9 141.398 Q2244.33 141.398 2242.18 143.412 Q2240.05 145.426 2239.72 149.083 L2254.91 149.06 Z" fill="#000000" fill-rule="nonzero" fill-opacity="1" /><path clip-path="url(#clip110)" d="M2282.69 139.176 L2282.69 143.203 Q2280.88 142.277 2278.94 141.815 Q2276.99 141.352 2274.91 141.352 Q2271.74 141.352 2270.14 142.324 Q2268.57 143.296 2268.57 145.24 Q2268.57 146.722 2269.7 147.578 Q2270.83 148.412 2274.26 149.176 L2275.72 149.5 Q2280.26 150.472 2282.15 152.254 Q2284.08 154.014 2284.08 157.185 Q2284.08 160.796 2281.21 162.902 Q2278.36 165.009 2273.36 165.009 Q2271.27 165.009 2269.01 164.592 Q2266.76 164.199 2264.26 163.388 L2264.26 158.99 Q2266.62 160.217 2268.91 160.842 Q2271.21 161.444 2273.45 161.444 Q2276.46 161.444 2278.08 160.426 Q2279.7 159.384 2279.7 157.509 Q2279.7 155.773 2278.52 154.847 Q2277.36 153.921 2273.4 153.064 L2271.92 152.717 Q2267.96 151.884 2266.21 150.171 Q2264.45 148.435 2264.45 145.426 Q2264.45 141.768 2267.04 139.778 Q2269.63 137.787 2274.4 137.787 Q2276.76 137.787 2278.84 138.134 Q2280.93 138.481 2282.69 139.176 Z" fill="#000000" fill-rule="nonzero" fill-opacity="1" /><path clip-path="url(#clip110)" d="M2307.39 139.176 L2307.39 143.203 Q2305.58 142.277 2303.64 141.815 Q2301.69 141.352 2299.61 141.352 Q2296.44 141.352 2294.84 142.324 Q2293.27 143.296 2293.27 145.24 Q2293.27 146.722 2294.4 147.578 Q2295.53 148.412 2298.96 149.176 L2300.42 149.5 Q2304.95 150.472 2306.85 152.254 Q2308.77 154.014 2308.77 157.185 Q2308.77 160.796 2305.9 162.902 Q2303.06 165.009 2298.06 165.009 Q2295.97 165.009 2293.71 164.592 Q2291.46 164.199 2288.96 163.388 L2288.96 158.99 Q2291.32 160.217 2293.61 160.842 Q2295.9 161.444 2298.15 161.444 Q2301.16 161.444 2302.78 160.426 Q2304.4 159.384 2304.4 157.509 Q2304.4 155.773 2303.22 154.847 Q2302.06 153.921 2298.1 153.064 L2296.62 152.717 Q2292.66 151.884 2290.9 150.171 Q2289.14 148.435 2289.14 145.426 Q2289.14 141.768 2291.74 139.778 Q2294.33 137.787 2299.1 137.787 Q2301.46 137.787 2303.54 138.134 Q2305.63 138.481 2307.39 139.176 Z" fill="#000000" fill-rule="nonzero" fill-opacity="1" /></svg>
