<?xml version="1.0" encoding="utf-8"?>
<svg xmlns="http://www.w3.org/2000/svg" xmlns:xlink="http://www.w3.org/1999/xlink" width="600" height="400" viewBox="0 0 2400 1600">
<defs>
  <clipPath id="clip160">
    <rect x="0" y="0" width="2400" height="1600"/>
  </clipPath>
</defs>
<path clip-path="url(#clip160)" d="M0 1600 L2400 1600 L2400 0 L0 0  Z" fill="#ffffff" fill-rule="evenodd" fill-opacity="1"/>
<defs>
  <clipPath id="clip161">
    <rect x="1385" y="47" width="968" height="1440"/>
  </clipPath>
</defs>
<path clip-path="url(#clip160)" d="M192.941 1486.45 L1159.79 1486.45 L1159.79 47.2441 L192.941 47.2441  Z" fill="#ffffff" fill-rule="evenodd" fill-opacity="1"/>
<defs>
  <clipPath id="clip162">
    <rect x="192" y="47" width="968" height="1440"/>
  </clipPath>
</defs>
<polyline clip-path="url(#clip162)" style="stroke:#000000; stroke-linecap:round; stroke-linejoin:round; stroke-width:2; stroke-opacity:0.1; fill:none" points="253.559,1486.45 253.559,47.2441 "/>
<polyline clip-path="url(#clip162)" style="stroke:#000000; stroke-linecap:round; stroke-linejoin:round; stroke-width:2; stroke-opacity:0.1; fill:none" points="550.879,1486.45 550.879,47.2441 "/>
<polyline clip-path="url(#clip162)" style="stroke:#000000; stroke-linecap:round; stroke-linejoin:round; stroke-width:2; stroke-opacity:0.1; fill:none" points="848.199,1486.45 848.199,47.2441 "/>
<polyline clip-path="url(#clip162)" style="stroke:#000000; stroke-linecap:round; stroke-linejoin:round; stroke-width:2; stroke-opacity:0.1; fill:none" points="1145.52,1486.45 1145.52,47.2441 "/>
<polyline clip-path="url(#clip162)" style="stroke:#000000; stroke-linecap:round; stroke-linejoin:round; stroke-width:2; stroke-opacity:0.1; fill:none" points="192.941,1276.22 1159.79,1276.22 "/>
<polyline clip-path="url(#clip162)" style="stroke:#000000; stroke-linecap:round; stroke-linejoin:round; stroke-width:2; stroke-opacity:0.1; fill:none" points="192.941,978.902 1159.79,978.902 "/>
<polyline clip-path="url(#clip162)" style="stroke:#000000; stroke-linecap:round; stroke-linejoin:round; stroke-width:2; stroke-opacity:0.1; fill:none" points="192.941,681.583 1159.79,681.583 "/>
<polyline clip-path="url(#clip162)" style="stroke:#000000; stroke-linecap:round; stroke-linejoin:round; stroke-width:2; stroke-opacity:0.1; fill:none" points="192.941,384.263 1159.79,384.263 "/>
<polyline clip-path="url(#clip162)" style="stroke:#000000; stroke-linecap:round; stroke-linejoin:round; stroke-width:2; stroke-opacity:0.1; fill:none" points="192.941,86.943 1159.79,86.943 "/>
<polyline clip-path="url(#clip160)" style="stroke:#000000; stroke-linecap:round; stroke-linejoin:round; stroke-width:4; stroke-opacity:1; fill:none" points="192.941,1486.45 1159.79,1486.45 "/>
<polyline clip-path="url(#clip160)" style="stroke:#000000; stroke-linecap:round; stroke-linejoin:round; stroke-width:4; stroke-opacity:1; fill:none" points="253.559,1486.45 253.559,1467.55 "/>
<polyline clip-path="url(#clip160)" style="stroke:#000000; stroke-linecap:round; stroke-linejoin:round; stroke-width:4; stroke-opacity:1; fill:none" points="550.879,1486.45 550.879,1467.55 "/>
<polyline clip-path="url(#clip160)" style="stroke:#000000; stroke-linecap:round; stroke-linejoin:round; stroke-width:4; stroke-opacity:1; fill:none" points="848.199,1486.45 848.199,1467.55 "/>
<polyline clip-path="url(#clip160)" style="stroke:#000000; stroke-linecap:round; stroke-linejoin:round; stroke-width:4; stroke-opacity:1; fill:none" points="1145.52,1486.45 1145.52,1467.55 "/>
<path clip-path="url(#clip160)" d="M223.316 1532.02 L252.992 1532.02 L252.992 1535.95 L223.316 1535.95 L223.316 1532.02 Z" fill="#000000" fill-rule="nonzero" fill-opacity="1" /><path clip-path="url(#clip160)" d="M263.895 1544.91 L271.534 1544.91 L271.534 1518.55 L263.223 1520.21 L263.223 1515.95 L271.487 1514.29 L276.163 1514.29 L276.163 1544.91 L283.802 1544.91 L283.802 1548.85 L263.895 1548.85 L263.895 1544.91 Z" fill="#000000" fill-rule="nonzero" fill-opacity="1" /><path clip-path="url(#clip160)" d="M550.879 1517.37 Q547.268 1517.37 545.439 1520.93 Q543.633 1524.47 543.633 1531.6 Q543.633 1538.71 545.439 1542.27 Q547.268 1545.82 550.879 1545.82 Q554.513 1545.82 556.319 1542.27 Q558.147 1538.71 558.147 1531.6 Q558.147 1524.47 556.319 1520.93 Q554.513 1517.37 550.879 1517.37 M550.879 1513.66 Q556.689 1513.66 559.745 1518.27 Q562.823 1522.85 562.823 1531.6 Q562.823 1540.33 559.745 1544.94 Q556.689 1549.52 550.879 1549.52 Q545.069 1549.52 541.99 1544.94 Q538.934 1540.33 538.934 1531.6 Q538.934 1522.85 541.99 1518.27 Q545.069 1513.66 550.879 1513.66 Z" fill="#000000" fill-rule="nonzero" fill-opacity="1" /><path clip-path="url(#clip160)" d="M838.581 1544.91 L846.219 1544.91 L846.219 1518.55 L837.909 1520.21 L837.909 1515.95 L846.173 1514.29 L850.849 1514.29 L850.849 1544.91 L858.488 1544.91 L858.488 1548.85 L838.581 1548.85 L838.581 1544.91 Z" fill="#000000" fill-rule="nonzero" fill-opacity="1" /><path clip-path="url(#clip160)" d="M1140.17 1544.91 L1156.49 1544.91 L1156.49 1548.85 L1134.55 1548.85 L1134.55 1544.91 Q1137.21 1542.16 1141.79 1537.53 Q1146.4 1532.88 1147.58 1531.53 Q1149.82 1529.01 1150.7 1527.27 Q1151.61 1525.51 1151.61 1523.82 Q1151.61 1521.07 1149.66 1519.33 Q1147.74 1517.6 1144.64 1517.6 Q1142.44 1517.6 1139.99 1518.36 Q1137.56 1519.13 1134.78 1520.68 L1134.78 1515.95 Q1137.6 1514.82 1140.06 1514.24 Q1142.51 1513.66 1144.55 1513.66 Q1149.92 1513.66 1153.11 1516.35 Q1156.31 1519.03 1156.31 1523.52 Q1156.31 1525.65 1155.5 1527.57 Q1154.71 1529.47 1152.6 1532.07 Q1152.02 1532.74 1148.92 1535.95 Q1145.82 1539.15 1140.17 1544.91 Z" fill="#000000" fill-rule="nonzero" fill-opacity="1" /><polyline clip-path="url(#clip160)" style="stroke:#000000; stroke-linecap:round; stroke-linejoin:round; stroke-width:4; stroke-opacity:1; fill:none" points="192.941,1486.45 192.941,47.2441 "/>
<polyline clip-path="url(#clip160)" style="stroke:#000000; stroke-linecap:round; stroke-linejoin:round; stroke-width:4; stroke-opacity:1; fill:none" points="192.941,1276.22 211.838,1276.22 "/>
<polyline clip-path="url(#clip160)" style="stroke:#000000; stroke-linecap:round; stroke-linejoin:round; stroke-width:4; stroke-opacity:1; fill:none" points="192.941,978.902 211.838,978.902 "/>
<polyline clip-path="url(#clip160)" style="stroke:#000000; stroke-linecap:round; stroke-linejoin:round; stroke-width:4; stroke-opacity:1; fill:none" points="192.941,681.583 211.838,681.583 "/>
<polyline clip-path="url(#clip160)" style="stroke:#000000; stroke-linecap:round; stroke-linejoin:round; stroke-width:4; stroke-opacity:1; fill:none" points="192.941,384.263 211.838,384.263 "/>
<polyline clip-path="url(#clip160)" style="stroke:#000000; stroke-linecap:round; stroke-linejoin:round; stroke-width:4; stroke-opacity:1; fill:none" points="192.941,86.943 211.838,86.943 "/>
<path clip-path="url(#clip160)" d="M96.4548 1276.67 L126.131 1276.67 L126.131 1280.61 L96.4548 1280.61 L96.4548 1276.67 Z" fill="#000000" fill-rule="nonzero" fill-opacity="1" /><path clip-path="url(#clip160)" d="M137.033 1289.57 L144.672 1289.57 L144.672 1263.2 L136.362 1264.87 L136.362 1260.61 L144.626 1258.94 L149.302 1258.94 L149.302 1289.57 L156.941 1289.57 L156.941 1293.5 L137.033 1293.5 L137.033 1289.57 Z" fill="#000000" fill-rule="nonzero" fill-opacity="1" /><path clip-path="url(#clip160)" d="M144.996 964.701 Q141.385 964.701 139.556 968.266 Q137.751 971.807 137.751 978.937 Q137.751 986.043 139.556 989.608 Q141.385 993.15 144.996 993.15 Q148.63 993.15 150.436 989.608 Q152.265 986.043 152.265 978.937 Q152.265 971.807 150.436 968.266 Q148.63 964.701 144.996 964.701 M144.996 960.997 Q150.806 960.997 153.862 965.604 Q156.941 970.187 156.941 978.937 Q156.941 987.664 153.862 992.27 Q150.806 996.854 144.996 996.854 Q139.186 996.854 136.107 992.27 Q133.052 987.664 133.052 978.937 Q133.052 970.187 136.107 965.604 Q139.186 960.997 144.996 960.997 Z" fill="#000000" fill-rule="nonzero" fill-opacity="1" /><path clip-path="url(#clip160)" d="M137.033 694.927 L144.672 694.927 L144.672 668.562 L136.362 670.228 L136.362 665.969 L144.626 664.303 L149.302 664.303 L149.302 694.927 L156.941 694.927 L156.941 698.863 L137.033 698.863 L137.033 694.927 Z" fill="#000000" fill-rule="nonzero" fill-opacity="1" /><path clip-path="url(#clip160)" d="M140.621 397.608 L156.941 397.608 L156.941 401.543 L134.996 401.543 L134.996 397.608 Q137.658 394.853 142.242 390.223 Q146.848 385.571 148.029 384.228 Q150.274 381.705 151.154 379.969 Q152.056 378.21 152.056 376.52 Q152.056 373.765 150.112 372.029 Q148.191 370.293 145.089 370.293 Q142.89 370.293 140.436 371.057 Q138.006 371.821 135.228 373.372 L135.228 368.649 Q138.052 367.515 140.506 366.936 Q142.959 366.358 144.996 366.358 Q150.367 366.358 153.561 369.043 Q156.755 371.728 156.755 376.219 Q156.755 378.348 155.945 380.27 Q155.158 382.168 153.052 384.76 Q152.473 385.432 149.371 388.649 Q146.269 391.844 140.621 397.608 Z" fill="#000000" fill-rule="nonzero" fill-opacity="1" /><path clip-path="url(#clip160)" d="M149.811 85.5889 Q153.168 86.3065 155.042 88.575 Q156.941 90.8435 156.941 94.1768 Q156.941 99.2925 153.422 102.093 Q149.904 104.894 143.422 104.894 Q141.246 104.894 138.931 104.455 Q136.64 104.038 134.186 103.181 L134.186 98.6675 Q136.131 99.8018 138.445 100.38 Q140.76 100.959 143.283 100.959 Q147.681 100.959 149.973 99.2231 Q152.288 97.487 152.288 94.1768 Q152.288 91.1212 150.135 89.4083 Q148.005 87.6722 144.186 87.6722 L140.158 87.6722 L140.158 83.8296 L144.371 83.8296 Q147.82 83.8296 149.649 82.4639 Q151.478 81.075 151.478 78.4824 Q151.478 75.8204 149.58 74.4084 Q147.705 72.9732 144.186 72.9732 Q142.265 72.9732 140.066 73.3899 Q137.867 73.8065 135.228 74.6861 L135.228 70.5195 Q137.89 69.7788 140.205 69.4084 Q142.543 69.038 144.603 69.038 Q149.927 69.038 153.029 71.4686 Q156.13 73.876 156.13 77.9963 Q156.13 80.8667 154.487 82.8574 Q152.843 84.825 149.811 85.5889 Z" fill="#000000" fill-rule="nonzero" fill-opacity="1" /><polyline clip-path="url(#clip162)" style="stroke:#000000; stroke-linecap:round; stroke-linejoin:round; stroke-width:4; stroke-opacity:1; fill:none" points="760.37,692.054 236.642,793.288 "/>
<polyline clip-path="url(#clip162)" style="stroke:#000000; stroke-linecap:round; stroke-linejoin:round; stroke-width:4; stroke-opacity:1; fill:none" points="760.37,692.054 599.964,1200.74 "/>
<polyline clip-path="url(#clip162)" style="stroke:#000000; stroke-linecap:round; stroke-linejoin:round; stroke-width:4; stroke-opacity:1; fill:none" points="760.37,692.054 1080.6,406.396 "/>
<polyline clip-path="url(#clip162)" style="stroke:#000000; stroke-linecap:round; stroke-linejoin:round; stroke-width:4; stroke-opacity:1; fill:none" points="760.37,692.054 492.046,286.708 "/>
<polyline clip-path="url(#clip162)" style="stroke:#000000; stroke-linecap:round; stroke-linejoin:round; stroke-width:4; stroke-opacity:1; fill:none" points="760.37,692.054 1132.43,1004.77 "/>
<polyline clip-path="url(#clip162)" style="stroke:#000000; stroke-linecap:round; stroke-linejoin:round; stroke-width:4; stroke-opacity:1; fill:none" points="236.642,793.288 220.304,528.924 "/>
<polyline clip-path="url(#clip162)" style="stroke:#000000; stroke-linecap:round; stroke-linejoin:round; stroke-width:4; stroke-opacity:1; fill:none" points="236.642,793.288 599.964,1200.74 "/>
<polyline clip-path="url(#clip162)" style="stroke:#000000; stroke-linecap:round; stroke-linejoin:round; stroke-width:4; stroke-opacity:1; fill:none" points="236.642,793.288 272.133,1127.3 "/>
<polyline clip-path="url(#clip162)" style="stroke:#000000; stroke-linecap:round; stroke-linejoin:round; stroke-width:4; stroke-opacity:1; fill:none" points="236.642,793.288 492.046,286.708 "/>
<polyline clip-path="url(#clip162)" style="stroke:#000000; stroke-linecap:round; stroke-linejoin:round; stroke-width:4; stroke-opacity:1; fill:none" points="220.304,528.924 592.363,841.638 "/>
<polyline clip-path="url(#clip162)" style="stroke:#000000; stroke-linecap:round; stroke-linejoin:round; stroke-width:4; stroke-opacity:1; fill:none" points="220.304,528.924 272.133,1127.3 "/>
<polyline clip-path="url(#clip162)" style="stroke:#000000; stroke-linecap:round; stroke-linejoin:round; stroke-width:4; stroke-opacity:1; fill:none" points="220.304,528.924 492.046,286.708 "/>
<polyline clip-path="url(#clip162)" style="stroke:#000000; stroke-linecap:round; stroke-linejoin:round; stroke-width:4; stroke-opacity:1; fill:none" points="220.304,528.924 752.77,332.953 "/>
<polyline clip-path="url(#clip162)" style="stroke:#000000; stroke-linecap:round; stroke-linejoin:round; stroke-width:4; stroke-opacity:1; fill:none" points="592.363,841.638 860.688,1246.98 "/>
<polyline clip-path="url(#clip162)" style="stroke:#000000; stroke-linecap:round; stroke-linejoin:round; stroke-width:4; stroke-opacity:1; fill:none" points="592.363,841.638 272.133,1127.3 "/>
<polyline clip-path="url(#clip162)" style="stroke:#000000; stroke-linecap:round; stroke-linejoin:round; stroke-width:4; stroke-opacity:1; fill:none" points="592.363,841.638 752.77,332.953 "/>
<polyline clip-path="url(#clip162)" style="stroke:#000000; stroke-linecap:round; stroke-linejoin:round; stroke-width:4; stroke-opacity:1; fill:none" points="592.363,841.638 1116.09,740.404 "/>
<polyline clip-path="url(#clip162)" style="stroke:#000000; stroke-linecap:round; stroke-linejoin:round; stroke-width:4; stroke-opacity:1; fill:none" points="860.688,1246.98 599.964,1200.74 "/>
<polyline clip-path="url(#clip162)" style="stroke:#000000; stroke-linecap:round; stroke-linejoin:round; stroke-width:4; stroke-opacity:1; fill:none" points="860.688,1246.98 272.133,1127.3 "/>
<polyline clip-path="url(#clip162)" style="stroke:#000000; stroke-linecap:round; stroke-linejoin:round; stroke-width:4; stroke-opacity:1; fill:none" points="860.688,1246.98 1116.09,740.404 "/>
<polyline clip-path="url(#clip162)" style="stroke:#000000; stroke-linecap:round; stroke-linejoin:round; stroke-width:4; stroke-opacity:1; fill:none" points="860.688,1246.98 1132.43,1004.77 "/>
<polyline clip-path="url(#clip162)" style="stroke:#000000; stroke-linecap:round; stroke-linejoin:round; stroke-width:4; stroke-opacity:1; fill:none" points="599.964,1200.74 272.133,1127.3 "/>
<polyline clip-path="url(#clip162)" style="stroke:#000000; stroke-linecap:round; stroke-linejoin:round; stroke-width:4; stroke-opacity:1; fill:none" points="599.964,1200.74 1132.43,1004.77 "/>
<polyline clip-path="url(#clip162)" style="stroke:#000000; stroke-linecap:round; stroke-linejoin:round; stroke-width:4; stroke-opacity:1; fill:none" points="1080.6,406.396 492.046,286.708 "/>
<polyline clip-path="url(#clip162)" style="stroke:#000000; stroke-linecap:round; stroke-linejoin:round; stroke-width:4; stroke-opacity:1; fill:none" points="1080.6,406.396 752.77,332.953 "/>
<polyline clip-path="url(#clip162)" style="stroke:#000000; stroke-linecap:round; stroke-linejoin:round; stroke-width:4; stroke-opacity:1; fill:none" points="1080.6,406.396 1116.09,740.404 "/>
<polyline clip-path="url(#clip162)" style="stroke:#000000; stroke-linecap:round; stroke-linejoin:round; stroke-width:4; stroke-opacity:1; fill:none" points="1080.6,406.396 1132.43,1004.77 "/>
<polyline clip-path="url(#clip162)" style="stroke:#000000; stroke-linecap:round; stroke-linejoin:round; stroke-width:4; stroke-opacity:1; fill:none" points="492.046,286.708 752.77,332.953 "/>
<polyline clip-path="url(#clip162)" style="stroke:#000000; stroke-linecap:round; stroke-linejoin:round; stroke-width:4; stroke-opacity:1; fill:none" points="752.77,332.953 1116.09,740.404 "/>
<polyline clip-path="url(#clip162)" style="stroke:#000000; stroke-linecap:round; stroke-linejoin:round; stroke-width:4; stroke-opacity:1; fill:none" points="1116.09,740.404 1132.43,1004.77 "/>
<circle clip-path="url(#clip162)" cx="760.37" cy="692.054" r="18" fill="#0000ff" fill-rule="evenodd" fill-opacity="1" stroke="#000000" stroke-opacity="1" stroke-width="3.2"/>
<circle clip-path="url(#clip162)" cx="236.642" cy="793.288" r="18" fill="#0000ff" fill-rule="evenodd" fill-opacity="1" stroke="#000000" stroke-opacity="1" stroke-width="3.2"/>
<circle clip-path="url(#clip162)" cx="220.304" cy="528.924" r="18" fill="#0000ff" fill-rule="evenodd" fill-opacity="1" stroke="#000000" stroke-opacity="1" stroke-width="3.2"/>
<circle clip-path="url(#clip162)" cx="592.363" cy="841.638" r="18" fill="#0000ff" fill-rule="evenodd" fill-opacity="1" stroke="#000000" stroke-opacity="1" stroke-width="3.2"/>
<circle clip-path="url(#clip162)" cx="860.688" cy="1246.98" r="18" fill="#0000ff" fill-rule="evenodd" fill-opacity="1" stroke="#000000" stroke-opacity="1" stroke-width="3.2"/>
<circle clip-path="url(#clip162)" cx="599.964" cy="1200.74" r="18" fill="#0000ff" fill-rule="evenodd" fill-opacity="1" stroke="#000000" stroke-opacity="1" stroke-width="3.2"/>
<circle clip-path="url(#clip162)" cx="272.133" cy="1127.3" r="18" fill="#0000ff" fill-rule="evenodd" fill-opacity="1" stroke="#000000" stroke-opacity="1" stroke-width="3.2"/>
<circle clip-path="url(#clip162)" cx="1080.6" cy="406.396" r="18" fill="#0000ff" fill-rule="evenodd" fill-opacity="1" stroke="#000000" stroke-opacity="1" stroke-width="3.2"/>
<circle clip-path="url(#clip162)" cx="492.046" cy="286.708" r="18" fill="#0000ff" fill-rule="evenodd" fill-opacity="1" stroke="#000000" stroke-opacity="1" stroke-width="3.2"/>
<circle clip-path="url(#clip162)" cx="752.77" cy="332.953" r="18" fill="#0000ff" fill-rule="evenodd" fill-opacity="1" stroke="#000000" stroke-opacity="1" stroke-width="3.2"/>
<circle clip-path="url(#clip162)" cx="1116.09" cy="740.404" r="18" fill="#0000ff" fill-rule="evenodd" fill-opacity="1" stroke="#000000" stroke-opacity="1" stroke-width="3.2"/>
<circle clip-path="url(#clip162)" cx="1132.43" cy="1004.77" r="18" fill="#0000ff" fill-rule="evenodd" fill-opacity="1" stroke="#000000" stroke-opacity="1" stroke-width="3.2"/>
<path clip-path="url(#clip160)" d="M1385.9 1486.45 L2352.76 1486.45 L2352.76 47.2441 L1385.9 47.2441  Z" fill="#ffffff" fill-rule="evenodd" fill-opacity="1"/>
<polyline clip-path="url(#clip161)" style="stroke:#000000; stroke-linecap:round; stroke-linejoin:round; stroke-width:2; stroke-opacity:0.1; fill:none" points="1411.77,1486.45 1411.77,47.2441 "/>
<polyline clip-path="url(#clip161)" style="stroke:#000000; stroke-linecap:round; stroke-linejoin:round; stroke-width:2; stroke-opacity:0.1; fill:none" points="1561.54,1486.45 1561.54,47.2441 "/>
<polyline clip-path="url(#clip161)" style="stroke:#000000; stroke-linecap:round; stroke-linejoin:round; stroke-width:2; stroke-opacity:0.1; fill:none" points="1711.32,1486.45 1711.32,47.2441 "/>
<polyline clip-path="url(#clip161)" style="stroke:#000000; stroke-linecap:round; stroke-linejoin:round; stroke-width:2; stroke-opacity:0.1; fill:none" points="1861.09,1486.45 1861.09,47.2441 "/>
<polyline clip-path="url(#clip161)" style="stroke:#000000; stroke-linecap:round; stroke-linejoin:round; stroke-width:2; stroke-opacity:0.1; fill:none" points="2010.87,1486.45 2010.87,47.2441 "/>
<polyline clip-path="url(#clip161)" style="stroke:#000000; stroke-linecap:round; stroke-linejoin:round; stroke-width:2; stroke-opacity:0.1; fill:none" points="2160.64,1486.45 2160.64,47.2441 "/>
<polyline clip-path="url(#clip161)" style="stroke:#000000; stroke-linecap:round; stroke-linejoin:round; stroke-width:2; stroke-opacity:0.1; fill:none" points="2310.41,1486.45 2310.41,47.2441 "/>
<polyline clip-path="url(#clip161)" style="stroke:#000000; stroke-linecap:round; stroke-linejoin:round; stroke-width:2; stroke-opacity:0.1; fill:none" points="1385.9,1416.88 2352.76,1416.88 "/>
<polyline clip-path="url(#clip161)" style="stroke:#000000; stroke-linecap:round; stroke-linejoin:round; stroke-width:2; stroke-opacity:0.1; fill:none" points="1385.9,1106.64 2352.76,1106.64 "/>
<polyline clip-path="url(#clip161)" style="stroke:#000000; stroke-linecap:round; stroke-linejoin:round; stroke-width:2; stroke-opacity:0.1; fill:none" points="1385.9,796.402 2352.76,796.402 "/>
<polyline clip-path="url(#clip161)" style="stroke:#000000; stroke-linecap:round; stroke-linejoin:round; stroke-width:2; stroke-opacity:0.1; fill:none" points="1385.9,486.164 2352.76,486.164 "/>
<polyline clip-path="url(#clip161)" style="stroke:#000000; stroke-linecap:round; stroke-linejoin:round; stroke-width:2; stroke-opacity:0.1; fill:none" points="1385.9,175.925 2352.76,175.925 "/>
<polyline clip-path="url(#clip160)" style="stroke:#000000; stroke-linecap:round; stroke-linejoin:round; stroke-width:4; stroke-opacity:1; fill:none" points="1385.9,1486.45 2352.76,1486.45 "/>
<polyline clip-path="url(#clip160)" style="stroke:#000000; stroke-linecap:round; stroke-linejoin:round; stroke-width:4; stroke-opacity:1; fill:none" points="1411.77,1486.45 1411.77,1467.55 "/>
<polyline clip-path="url(#clip160)" style="stroke:#000000; stroke-linecap:round; stroke-linejoin:round; stroke-width:4; stroke-opacity:1; fill:none" points="1561.54,1486.45 1561.54,1467.55 "/>
<polyline clip-path="url(#clip160)" style="stroke:#000000; stroke-linecap:round; stroke-linejoin:round; stroke-width:4; stroke-opacity:1; fill:none" points="1711.32,1486.45 1711.32,1467.55 "/>
<polyline clip-path="url(#clip160)" style="stroke:#000000; stroke-linecap:round; stroke-linejoin:round; stroke-width:4; stroke-opacity:1; fill:none" points="1861.09,1486.45 1861.09,1467.55 "/>
<polyline clip-path="url(#clip160)" style="stroke:#000000; stroke-linecap:round; stroke-linejoin:round; stroke-width:4; stroke-opacity:1; fill:none" points="2010.87,1486.45 2010.87,1467.55 "/>
<polyline clip-path="url(#clip160)" style="stroke:#000000; stroke-linecap:round; stroke-linejoin:round; stroke-width:4; stroke-opacity:1; fill:none" points="2160.64,1486.45 2160.64,1467.55 "/>
<polyline clip-path="url(#clip160)" style="stroke:#000000; stroke-linecap:round; stroke-linejoin:round; stroke-width:4; stroke-opacity:1; fill:none" points="2310.41,1486.45 2310.41,1467.55 "/>
<path clip-path="url(#clip160)" d="M1411.77 1517.37 Q1408.16 1517.37 1406.33 1520.93 Q1404.52 1524.47 1404.52 1531.6 Q1404.52 1538.71 1406.33 1542.27 Q1408.16 1545.82 1411.77 1545.82 Q1415.4 1545.82 1417.21 1542.27 Q1419.04 1538.71 1419.04 1531.6 Q1419.04 1524.47 1417.21 1520.93 Q1415.4 1517.37 1411.77 1517.37 M1411.77 1513.66 Q1417.58 1513.66 1420.64 1518.27 Q1423.71 1522.85 1423.71 1531.6 Q1423.71 1540.33 1420.64 1544.94 Q1417.58 1549.52 1411.77 1549.52 Q1405.96 1549.52 1402.88 1544.94 Q1399.83 1540.33 1399.83 1531.6 Q1399.83 1522.85 1402.88 1518.27 Q1405.96 1513.66 1411.77 1513.66 Z" fill="#000000" fill-rule="nonzero" fill-opacity="1" /><path clip-path="url(#clip160)" d="M1521.15 1544.91 L1528.79 1544.91 L1528.79 1518.55 L1520.48 1520.21 L1520.48 1515.95 L1528.74 1514.29 L1533.42 1514.29 L1533.42 1544.91 L1541.06 1544.91 L1541.06 1548.85 L1521.15 1548.85 L1521.15 1544.91 Z" fill="#000000" fill-rule="nonzero" fill-opacity="1" /><path clip-path="url(#clip160)" d="M1560.5 1517.37 Q1556.89 1517.37 1555.06 1520.93 Q1553.26 1524.47 1553.26 1531.6 Q1553.26 1538.71 1555.06 1542.27 Q1556.89 1545.82 1560.5 1545.82 Q1564.14 1545.82 1565.94 1542.27 Q1567.77 1538.71 1567.77 1531.6 Q1567.77 1524.47 1565.94 1520.93 Q1564.14 1517.37 1560.5 1517.37 M1560.5 1513.66 Q1566.31 1513.66 1569.37 1518.27 Q1572.45 1522.85 1572.45 1531.6 Q1572.45 1540.33 1569.37 1544.94 Q1566.31 1549.52 1560.5 1549.52 Q1554.69 1549.52 1551.61 1544.94 Q1548.56 1540.33 1548.56 1531.6 Q1548.56 1522.85 1551.61 1518.27 Q1554.69 1513.66 1560.5 1513.66 Z" fill="#000000" fill-rule="nonzero" fill-opacity="1" /><path clip-path="url(#clip160)" d="M1590.66 1517.37 Q1587.05 1517.37 1585.22 1520.93 Q1583.42 1524.47 1583.42 1531.6 Q1583.42 1538.71 1585.22 1542.27 Q1587.05 1545.82 1590.66 1545.82 Q1594.3 1545.82 1596.1 1542.27 Q1597.93 1538.71 1597.93 1531.6 Q1597.93 1524.47 1596.1 1520.93 Q1594.3 1517.37 1590.66 1517.37 M1590.66 1513.66 Q1596.47 1513.66 1599.53 1518.27 Q1602.61 1522.85 1602.61 1531.6 Q1602.61 1540.33 1599.53 1544.94 Q1596.47 1549.52 1590.66 1549.52 Q1584.85 1549.52 1581.78 1544.94 Q1578.72 1540.33 1578.72 1531.6 Q1578.72 1522.85 1581.78 1518.27 Q1584.85 1513.66 1590.66 1513.66 Z" fill="#000000" fill-rule="nonzero" fill-opacity="1" /><path clip-path="url(#clip160)" d="M1675.01 1544.91 L1691.33 1544.91 L1691.33 1548.85 L1669.39 1548.85 L1669.39 1544.91 Q1672.05 1542.16 1676.63 1537.53 Q1681.24 1532.88 1682.42 1531.53 Q1684.66 1529.01 1685.54 1527.27 Q1686.45 1525.51 1686.45 1523.82 Q1686.45 1521.07 1684.5 1519.33 Q1682.58 1517.6 1679.48 1517.6 Q1677.28 1517.6 1674.83 1518.36 Q1672.39 1519.13 1669.62 1520.68 L1669.62 1515.95 Q1672.44 1514.82 1674.89 1514.24 Q1677.35 1513.66 1679.39 1513.66 Q1684.76 1513.66 1687.95 1516.35 Q1691.14 1519.03 1691.14 1523.52 Q1691.14 1525.65 1690.33 1527.57 Q1689.55 1529.47 1687.44 1532.07 Q1686.86 1532.74 1683.76 1535.95 Q1680.66 1539.15 1675.01 1544.91 Z" fill="#000000" fill-rule="nonzero" fill-opacity="1" /><path clip-path="url(#clip160)" d="M1711.14 1517.37 Q1707.53 1517.37 1705.7 1520.93 Q1703.9 1524.47 1703.9 1531.6 Q1703.9 1538.71 1705.7 1542.27 Q1707.53 1545.82 1711.14 1545.82 Q1714.78 1545.82 1716.58 1542.27 Q1718.41 1538.71 1718.41 1531.6 Q1718.41 1524.47 1716.58 1520.93 Q1714.78 1517.37 1711.14 1517.37 M1711.14 1513.66 Q1716.95 1513.66 1720.01 1518.27 Q1723.09 1522.85 1723.09 1531.6 Q1723.09 1540.33 1720.01 1544.94 Q1716.95 1549.52 1711.14 1549.52 Q1705.33 1549.52 1702.26 1544.94 Q1699.2 1540.33 1699.2 1531.6 Q1699.2 1522.85 1702.26 1518.27 Q1705.33 1513.66 1711.14 1513.66 Z" fill="#000000" fill-rule="nonzero" fill-opacity="1" /><path clip-path="url(#clip160)" d="M1741.31 1517.37 Q1737.7 1517.37 1735.87 1520.93 Q1734.06 1524.47 1734.06 1531.6 Q1734.06 1538.71 1735.87 1542.27 Q1737.7 1545.82 1741.31 1545.82 Q1744.94 1545.82 1746.75 1542.27 Q1748.57 1538.71 1748.57 1531.6 Q1748.57 1524.47 1746.75 1520.93 Q1744.94 1517.37 1741.31 1517.37 M1741.31 1513.66 Q1747.12 1513.66 1750.17 1518.27 Q1753.25 1522.85 1753.25 1531.6 Q1753.25 1540.33 1750.17 1544.94 Q1747.12 1549.52 1741.31 1549.52 Q1735.5 1549.52 1732.42 1544.94 Q1729.36 1540.33 1729.36 1531.6 Q1729.36 1522.85 1732.42 1518.27 Q1735.5 1513.66 1741.31 1513.66 Z" fill="#000000" fill-rule="nonzero" fill-opacity="1" /><path clip-path="url(#clip160)" d="M1834.85 1530.21 Q1838.21 1530.93 1840.09 1533.2 Q1841.98 1535.47 1841.98 1538.8 Q1841.98 1543.92 1838.46 1546.72 Q1834.95 1549.52 1828.47 1549.52 Q1826.29 1549.52 1823.97 1549.08 Q1821.68 1548.66 1819.23 1547.81 L1819.23 1543.29 Q1821.17 1544.43 1823.49 1545.01 Q1825.8 1545.58 1828.33 1545.58 Q1832.72 1545.58 1835.02 1543.85 Q1837.33 1542.11 1837.33 1538.8 Q1837.33 1535.75 1835.18 1534.03 Q1833.05 1532.3 1829.23 1532.3 L1825.2 1532.3 L1825.2 1528.45 L1829.41 1528.45 Q1832.86 1528.45 1834.69 1527.09 Q1836.52 1525.7 1836.52 1523.11 Q1836.52 1520.45 1834.62 1519.03 Q1832.75 1517.6 1829.23 1517.6 Q1827.31 1517.6 1825.11 1518.01 Q1822.91 1518.43 1820.27 1519.31 L1820.27 1515.14 Q1822.93 1514.4 1825.25 1514.03 Q1827.59 1513.66 1829.65 1513.66 Q1834.97 1513.66 1838.07 1516.09 Q1841.17 1518.5 1841.17 1522.62 Q1841.17 1525.49 1839.53 1527.48 Q1837.89 1529.45 1834.85 1530.21 Z" fill="#000000" fill-rule="nonzero" fill-opacity="1" /><path clip-path="url(#clip160)" d="M1860.85 1517.37 Q1857.24 1517.37 1855.41 1520.93 Q1853.6 1524.47 1853.6 1531.6 Q1853.6 1538.71 1855.41 1542.27 Q1857.24 1545.82 1860.85 1545.82 Q1864.48 1545.82 1866.29 1542.27 Q1868.12 1538.71 1868.12 1531.6 Q1868.12 1524.47 1866.29 1520.93 Q1864.48 1517.37 1860.85 1517.37 M1860.85 1513.66 Q1866.66 1513.66 1869.71 1518.27 Q1872.79 1522.85 1872.79 1531.6 Q1872.79 1540.33 1869.71 1544.94 Q1866.66 1549.52 1860.85 1549.52 Q1855.04 1549.52 1851.96 1544.94 Q1848.9 1540.33 1848.9 1531.6 Q1848.9 1522.85 1851.96 1518.27 Q1855.04 1513.66 1860.85 1513.66 Z" fill="#000000" fill-rule="nonzero" fill-opacity="1" /><path clip-path="url(#clip160)" d="M1891.01 1517.37 Q1887.4 1517.37 1885.57 1520.93 Q1883.77 1524.47 1883.77 1531.6 Q1883.77 1538.71 1885.57 1542.27 Q1887.4 1545.82 1891.01 1545.82 Q1894.65 1545.82 1896.45 1542.27 Q1898.28 1538.71 1898.28 1531.6 Q1898.28 1524.47 1896.45 1520.93 Q1894.65 1517.37 1891.01 1517.37 M1891.01 1513.66 Q1896.82 1513.66 1899.88 1518.27 Q1902.96 1522.85 1902.96 1531.6 Q1902.96 1540.33 1899.88 1544.94 Q1896.82 1549.52 1891.01 1549.52 Q1885.2 1549.52 1882.12 1544.94 Q1879.07 1540.33 1879.07 1531.6 Q1879.07 1522.85 1882.12 1518.27 Q1885.2 1513.66 1891.01 1513.66 Z" fill="#000000" fill-rule="nonzero" fill-opacity="1" /><path clip-path="url(#clip160)" d="M1983.96 1518.36 L1972.15 1536.81 L1983.96 1536.81 L1983.96 1518.36 M1982.73 1514.29 L1988.61 1514.29 L1988.61 1536.81 L1993.54 1536.81 L1993.54 1540.7 L1988.61 1540.7 L1988.61 1548.85 L1983.96 1548.85 L1983.96 1540.7 L1968.36 1540.7 L1968.36 1536.19 L1982.73 1514.29 Z" fill="#000000" fill-rule="nonzero" fill-opacity="1" /><path clip-path="url(#clip160)" d="M2011.27 1517.37 Q2007.66 1517.37 2005.83 1520.93 Q2004.03 1524.47 2004.03 1531.6 Q2004.03 1538.71 2005.83 1542.27 Q2007.66 1545.82 2011.27 1545.82 Q2014.91 1545.82 2016.71 1542.27 Q2018.54 1538.71 2018.54 1531.6 Q2018.54 1524.47 2016.71 1520.93 Q2014.91 1517.37 2011.27 1517.37 M2011.27 1513.66 Q2017.08 1513.66 2020.14 1518.27 Q2023.22 1522.85 2023.22 1531.6 Q2023.22 1540.33 2020.14 1544.94 Q2017.08 1549.52 2011.27 1549.52 Q2005.46 1549.52 2002.38 1544.94 Q1999.33 1540.33 1999.33 1531.6 Q1999.33 1522.85 2002.38 1518.27 Q2005.46 1513.66 2011.27 1513.66 Z" fill="#000000" fill-rule="nonzero" fill-opacity="1" /><path clip-path="url(#clip160)" d="M2041.43 1517.37 Q2037.82 1517.37 2035.99 1520.93 Q2034.19 1524.47 2034.19 1531.6 Q2034.19 1538.71 2035.99 1542.27 Q2037.82 1545.82 2041.43 1545.82 Q2045.07 1545.82 2046.87 1542.27 Q2048.7 1538.71 2048.7 1531.6 Q2048.7 1524.47 2046.87 1520.93 Q2045.07 1517.37 2041.43 1517.37 M2041.43 1513.66 Q2047.24 1513.66 2050.3 1518.27 Q2053.38 1522.85 2053.38 1531.6 Q2053.38 1540.33 2050.3 1544.94 Q2047.24 1549.52 2041.43 1549.52 Q2035.62 1549.52 2032.54 1544.94 Q2029.49 1540.33 2029.49 1531.6 Q2029.49 1522.85 2032.54 1518.27 Q2035.62 1513.66 2041.43 1513.66 Z" fill="#000000" fill-rule="nonzero" fill-opacity="1" /><path clip-path="url(#clip160)" d="M2120.26 1514.29 L2138.62 1514.29 L2138.62 1518.22 L2124.54 1518.22 L2124.54 1526.7 Q2125.56 1526.35 2126.58 1526.19 Q2127.6 1526 2128.62 1526 Q2134.4 1526 2137.78 1529.17 Q2141.16 1532.34 2141.16 1537.76 Q2141.16 1543.34 2137.69 1546.44 Q2134.22 1549.52 2127.9 1549.52 Q2125.72 1549.52 2123.45 1549.15 Q2121.21 1548.78 2118.8 1548.04 L2118.8 1543.34 Q2120.88 1544.47 2123.11 1545.03 Q2125.33 1545.58 2127.81 1545.58 Q2131.81 1545.58 2134.15 1543.48 Q2136.49 1541.37 2136.49 1537.76 Q2136.49 1534.15 2134.15 1532.04 Q2131.81 1529.94 2127.81 1529.94 Q2125.93 1529.94 2124.06 1530.35 Q2122.2 1530.77 2120.26 1531.65 L2120.26 1514.29 Z" fill="#000000" fill-rule="nonzero" fill-opacity="1" /><path clip-path="url(#clip160)" d="M2160.37 1517.37 Q2156.76 1517.37 2154.93 1520.93 Q2153.13 1524.47 2153.13 1531.6 Q2153.13 1538.71 2154.93 1542.27 Q2156.76 1545.82 2160.37 1545.82 Q2164.01 1545.82 2165.81 1542.27 Q2167.64 1538.71 2167.64 1531.6 Q2167.64 1524.47 2165.81 1520.93 Q2164.01 1517.37 2160.37 1517.37 M2160.37 1513.66 Q2166.18 1513.66 2169.24 1518.27 Q2172.32 1522.85 2172.32 1531.6 Q2172.32 1540.33 2169.24 1544.94 Q2166.18 1549.52 2160.37 1549.52 Q2154.56 1549.52 2151.49 1544.94 Q2148.43 1540.33 2148.43 1531.6 Q2148.43 1522.85 2151.49 1518.27 Q2154.56 1513.66 2160.37 1513.66 Z" fill="#000000" fill-rule="nonzero" fill-opacity="1" /><path clip-path="url(#clip160)" d="M2190.54 1517.37 Q2186.93 1517.37 2185.1 1520.93 Q2183.29 1524.47 2183.29 1531.6 Q2183.29 1538.71 2185.1 1542.27 Q2186.93 1545.82 2190.54 1545.82 Q2194.17 1545.82 2195.98 1542.27 Q2197.8 1538.71 2197.8 1531.6 Q2197.8 1524.47 2195.98 1520.93 Q2194.17 1517.37 2190.54 1517.37 M2190.54 1513.66 Q2196.35 1513.66 2199.4 1518.27 Q2202.48 1522.85 2202.48 1531.6 Q2202.48 1540.33 2199.4 1544.94 Q2196.35 1549.52 2190.54 1549.52 Q2184.73 1549.52 2181.65 1544.94 Q2178.59 1540.33 2178.59 1531.6 Q2178.59 1522.85 2181.65 1518.27 Q2184.73 1513.66 2190.54 1513.66 Z" fill="#000000" fill-rule="nonzero" fill-opacity="1" /><path clip-path="url(#clip160)" d="M2280.74 1529.7 Q2277.59 1529.7 2275.74 1531.86 Q2273.91 1534.01 2273.91 1537.76 Q2273.91 1541.49 2275.74 1543.66 Q2277.59 1545.82 2280.74 1545.82 Q2283.89 1545.82 2285.72 1543.66 Q2287.57 1541.49 2287.57 1537.76 Q2287.57 1534.01 2285.72 1531.86 Q2283.89 1529.7 2280.74 1529.7 M2290.02 1515.05 L2290.02 1519.31 Q2288.26 1518.48 2286.46 1518.04 Q2284.67 1517.6 2282.91 1517.6 Q2278.29 1517.6 2275.83 1520.72 Q2273.4 1523.85 2273.05 1530.17 Q2274.42 1528.15 2276.48 1527.09 Q2278.54 1526 2281.02 1526 Q2286.23 1526 2289.23 1529.17 Q2292.27 1532.32 2292.27 1537.76 Q2292.27 1543.08 2289.12 1546.3 Q2285.97 1549.52 2280.74 1549.52 Q2274.74 1549.52 2271.57 1544.94 Q2268.4 1540.33 2268.4 1531.6 Q2268.4 1523.41 2272.29 1518.55 Q2276.18 1513.66 2282.73 1513.66 Q2284.49 1513.66 2286.27 1514.01 Q2288.08 1514.36 2290.02 1515.05 Z" fill="#000000" fill-rule="nonzero" fill-opacity="1" /><path clip-path="url(#clip160)" d="M2310.32 1517.37 Q2306.71 1517.37 2304.88 1520.93 Q2303.08 1524.47 2303.08 1531.6 Q2303.08 1538.71 2304.88 1542.27 Q2306.71 1545.82 2310.32 1545.82 Q2313.96 1545.82 2315.76 1542.27 Q2317.59 1538.71 2317.59 1531.6 Q2317.59 1524.47 2315.76 1520.93 Q2313.96 1517.37 2310.32 1517.37 M2310.32 1513.66 Q2316.13 1513.66 2319.19 1518.27 Q2322.27 1522.85 2322.27 1531.6 Q2322.27 1540.33 2319.19 1544.94 Q2316.13 1549.52 2310.32 1549.52 Q2304.51 1549.52 2301.43 1544.94 Q2298.38 1540.33 2298.38 1531.6 Q2298.38 1522.85 2301.43 1518.27 Q2304.51 1513.66 2310.32 1513.66 Z" fill="#000000" fill-rule="nonzero" fill-opacity="1" /><path clip-path="url(#clip160)" d="M2340.48 1517.37 Q2336.87 1517.37 2335.04 1520.93 Q2333.24 1524.47 2333.24 1531.6 Q2333.24 1538.71 2335.04 1542.27 Q2336.87 1545.82 2340.48 1545.82 Q2344.12 1545.82 2345.92 1542.27 Q2347.75 1538.71 2347.75 1531.6 Q2347.75 1524.47 2345.92 1520.93 Q2344.12 1517.37 2340.48 1517.37 M2340.48 1513.66 Q2346.29 1513.66 2349.35 1518.27 Q2352.43 1522.85 2352.43 1531.6 Q2352.43 1540.33 2349.35 1544.94 Q2346.29 1549.52 2340.48 1549.52 Q2334.67 1549.52 2331.6 1544.94 Q2328.54 1540.33 2328.54 1531.6 Q2328.54 1522.85 2331.6 1518.27 Q2334.67 1513.66 2340.48 1513.66 Z" fill="#000000" fill-rule="nonzero" fill-opacity="1" /><polyline clip-path="url(#clip160)" style="stroke:#000000; stroke-linecap:round; stroke-linejoin:round; stroke-width:4; stroke-opacity:1; fill:none" points="1385.9,1486.45 1385.9,47.2441 "/>
<polyline clip-path="url(#clip160)" style="stroke:#000000; stroke-linecap:round; stroke-linejoin:round; stroke-width:4; stroke-opacity:1; fill:none" points="1385.9,1416.88 1404.8,1416.88 "/>
<polyline clip-path="url(#clip160)" style="stroke:#000000; stroke-linecap:round; stroke-linejoin:round; stroke-width:4; stroke-opacity:1; fill:none" points="1385.9,1106.64 1404.8,1106.64 "/>
<polyline clip-path="url(#clip160)" style="stroke:#000000; stroke-linecap:round; stroke-linejoin:round; stroke-width:4; stroke-opacity:1; fill:none" points="1385.9,796.402 1404.8,796.402 "/>
<polyline clip-path="url(#clip160)" style="stroke:#000000; stroke-linecap:round; stroke-linejoin:round; stroke-width:4; stroke-opacity:1; fill:none" points="1385.9,486.164 1404.8,486.164 "/>
<polyline clip-path="url(#clip160)" style="stroke:#000000; stroke-linecap:round; stroke-linejoin:round; stroke-width:4; stroke-opacity:1; fill:none" points="1385.9,175.925 1404.8,175.925 "/>
<path clip-path="url(#clip160)" d="M1258.03 1417.33 L1287.7 1417.33 L1287.7 1421.26 L1258.03 1421.26 L1258.03 1417.33 Z" fill="#000000" fill-rule="nonzero" fill-opacity="1" /><path clip-path="url(#clip160)" d="M1301.83 1430.22 L1318.14 1430.22 L1318.14 1434.16 L1296.2 1434.16 L1296.2 1430.22 Q1298.86 1427.47 1303.45 1422.84 Q1308.05 1418.19 1309.23 1416.84 Q1311.48 1414.32 1312.36 1412.58 Q1313.26 1410.83 1313.26 1409.14 Q1313.26 1406.38 1311.32 1404.64 Q1309.39 1402.91 1306.29 1402.91 Q1304.09 1402.91 1301.64 1403.67 Q1299.21 1404.44 1296.43 1405.99 L1296.43 1401.27 Q1299.26 1400.13 1301.71 1399.55 Q1304.16 1398.97 1306.2 1398.97 Q1311.57 1398.97 1314.76 1401.66 Q1317.96 1404.34 1317.96 1408.83 Q1317.96 1410.96 1317.15 1412.89 Q1316.36 1414.78 1314.26 1417.38 Q1313.68 1418.05 1310.58 1421.26 Q1307.47 1424.46 1301.83 1430.22 Z" fill="#000000" fill-rule="nonzero" fill-opacity="1" /><path clip-path="url(#clip160)" d="M1337.96 1402.68 Q1334.35 1402.68 1332.52 1406.24 Q1330.71 1409.78 1330.71 1416.91 Q1330.71 1424.02 1332.52 1427.58 Q1334.35 1431.13 1337.96 1431.13 Q1341.59 1431.13 1343.4 1427.58 Q1345.23 1424.02 1345.23 1416.91 Q1345.23 1409.78 1343.4 1406.24 Q1341.59 1402.68 1337.96 1402.68 M1337.96 1398.97 Q1343.77 1398.97 1346.82 1403.58 Q1349.9 1408.16 1349.9 1416.91 Q1349.9 1425.64 1346.82 1430.25 Q1343.77 1434.83 1337.96 1434.83 Q1332.15 1434.83 1329.07 1430.25 Q1326.01 1425.64 1326.01 1416.91 Q1326.01 1408.16 1329.07 1403.58 Q1332.15 1398.97 1337.96 1398.97 Z" fill="#000000" fill-rule="nonzero" fill-opacity="1" /><path clip-path="url(#clip160)" d="M1337.96 1092.44 Q1334.35 1092.44 1332.52 1096 Q1330.71 1099.55 1330.71 1106.67 Q1330.71 1113.78 1332.52 1117.35 Q1334.35 1120.89 1337.96 1120.89 Q1341.59 1120.89 1343.4 1117.35 Q1345.23 1113.78 1345.23 1106.67 Q1345.23 1099.55 1343.4 1096 Q1341.59 1092.44 1337.96 1092.44 M1337.96 1088.74 Q1343.77 1088.74 1346.82 1093.34 Q1349.9 1097.92 1349.9 1106.67 Q1349.9 1115.4 1346.82 1120.01 Q1343.77 1124.59 1337.96 1124.59 Q1332.15 1124.59 1329.07 1120.01 Q1326.01 1115.4 1326.01 1106.67 Q1326.01 1097.92 1329.07 1093.34 Q1332.15 1088.74 1337.96 1088.74 Z" fill="#000000" fill-rule="nonzero" fill-opacity="1" /><path clip-path="url(#clip160)" d="M1301.83 809.747 L1318.14 809.747 L1318.14 813.682 L1296.2 813.682 L1296.2 809.747 Q1298.86 806.992 1303.45 802.362 Q1308.05 797.71 1309.23 796.367 Q1311.48 793.844 1312.36 792.108 Q1313.26 790.349 1313.26 788.659 Q1313.26 785.904 1311.32 784.168 Q1309.39 782.432 1306.29 782.432 Q1304.09 782.432 1301.64 783.196 Q1299.21 783.96 1296.43 785.511 L1296.43 780.788 Q1299.26 779.654 1301.71 779.076 Q1304.16 778.497 1306.2 778.497 Q1311.57 778.497 1314.76 781.182 Q1317.96 783.867 1317.96 788.358 Q1317.96 790.487 1317.15 792.409 Q1316.36 794.307 1314.26 796.899 Q1313.68 797.571 1310.58 800.788 Q1307.47 803.983 1301.83 809.747 Z" fill="#000000" fill-rule="nonzero" fill-opacity="1" /><path clip-path="url(#clip160)" d="M1337.96 782.2 Q1334.35 782.2 1332.52 785.765 Q1330.71 789.307 1330.71 796.437 Q1330.71 803.543 1332.52 807.108 Q1334.35 810.649 1337.96 810.649 Q1341.59 810.649 1343.4 807.108 Q1345.23 803.543 1345.23 796.437 Q1345.23 789.307 1343.4 785.765 Q1341.59 782.2 1337.96 782.2 M1337.96 778.497 Q1343.77 778.497 1346.82 783.103 Q1349.9 787.687 1349.9 796.437 Q1349.9 805.163 1346.82 809.77 Q1343.77 814.353 1337.96 814.353 Q1332.15 814.353 1329.07 809.77 Q1326.01 805.163 1326.01 796.437 Q1326.01 787.687 1329.07 783.103 Q1332.15 778.497 1337.96 778.497 Z" fill="#000000" fill-rule="nonzero" fill-opacity="1" /><path clip-path="url(#clip160)" d="M1310.64 472.958 L1298.84 491.407 L1310.64 491.407 L1310.64 472.958 M1309.42 468.884 L1315.3 468.884 L1315.3 491.407 L1320.23 491.407 L1320.23 495.295 L1315.3 495.295 L1315.3 503.444 L1310.64 503.444 L1310.64 495.295 L1295.04 495.295 L1295.04 490.782 L1309.42 468.884 Z" fill="#000000" fill-rule="nonzero" fill-opacity="1" /><path clip-path="url(#clip160)" d="M1337.96 471.962 Q1334.35 471.962 1332.52 475.527 Q1330.71 479.069 1330.71 486.198 Q1330.71 493.305 1332.52 496.869 Q1334.35 500.411 1337.96 500.411 Q1341.59 500.411 1343.4 496.869 Q1345.23 493.305 1345.23 486.198 Q1345.23 479.069 1343.4 475.527 Q1341.59 471.962 1337.96 471.962 M1337.96 468.259 Q1343.77 468.259 1346.82 472.865 Q1349.9 477.448 1349.9 486.198 Q1349.9 494.925 1346.82 499.531 Q1343.77 504.115 1337.96 504.115 Q1332.15 504.115 1329.07 499.531 Q1326.01 494.925 1326.01 486.198 Q1326.01 477.448 1329.07 472.865 Q1332.15 468.259 1337.96 468.259 Z" fill="#000000" fill-rule="nonzero" fill-opacity="1" /><path clip-path="url(#clip160)" d="M1308.38 174.062 Q1305.23 174.062 1303.38 176.215 Q1301.55 178.367 1301.55 182.117 Q1301.55 185.844 1303.38 188.02 Q1305.23 190.173 1308.38 190.173 Q1311.52 190.173 1313.35 188.02 Q1315.2 185.844 1315.2 182.117 Q1315.2 178.367 1313.35 176.215 Q1311.52 174.062 1308.38 174.062 M1317.66 159.409 L1317.66 163.668 Q1315.9 162.835 1314.09 162.395 Q1312.31 161.955 1310.55 161.955 Q1305.92 161.955 1303.47 165.08 Q1301.04 168.205 1300.69 174.525 Q1302.06 172.511 1304.12 171.446 Q1306.18 170.358 1308.65 170.358 Q1313.86 170.358 1316.87 173.529 Q1319.9 176.678 1319.9 182.117 Q1319.9 187.441 1316.76 190.659 Q1313.61 193.876 1308.38 193.876 Q1302.38 193.876 1299.21 189.293 Q1296.04 184.687 1296.04 175.96 Q1296.04 167.766 1299.93 162.904 Q1303.82 158.02 1310.37 158.02 Q1312.13 158.02 1313.91 158.367 Q1315.71 158.715 1317.66 159.409 Z" fill="#000000" fill-rule="nonzero" fill-opacity="1" /><path clip-path="url(#clip160)" d="M1337.96 161.724 Q1334.35 161.724 1332.52 165.289 Q1330.71 168.83 1330.71 175.96 Q1330.71 183.066 1332.52 186.631 Q1334.35 190.173 1337.96 190.173 Q1341.59 190.173 1343.4 186.631 Q1345.23 183.066 1345.23 175.96 Q1345.23 168.83 1343.4 165.289 Q1341.59 161.724 1337.96 161.724 M1337.96 158.02 Q1343.77 158.02 1346.82 162.627 Q1349.9 167.21 1349.9 175.96 Q1349.9 184.687 1346.82 189.293 Q1343.77 193.876 1337.96 193.876 Q1332.15 193.876 1329.07 189.293 Q1326.01 184.687 1326.01 175.96 Q1326.01 167.21 1329.07 162.627 Q1332.15 158.02 1337.96 158.02 Z" fill="#000000" fill-rule="nonzero" fill-opacity="1" /><polyline clip-path="url(#clip161)" style="stroke:#009af9; stroke-linecap:round; stroke-linejoin:round; stroke-width:4; stroke-opacity:1; fill:none" points="1413.27,87.9763 1414.77,252.284 1416.26,394.669 1417.76,527.074 1419.26,646.122 1420.76,750.691 1422.25,840.848 1423.75,917.254 1425.25,980.869 1426.75,1032.82 1428.24,1074.34 1429.74,1106.71 1431.24,1131.2 1432.74,1149.11 1434.24,1161.64 1435.73,1169.95 1437.23,1175.08 1438.73,1177.95 1440.23,1179.37 1441.72,1179.99 1443.22,1180.33 1444.72,1180.8 1446.22,1181.66 1447.72,1183.1 1449.21,1185.2 1450.71,1187.97 1452.21,1191.38 1453.71,1195.35 1455.2,1199.78 1456.7,1204.57 1458.2,1209.59 1459.7,1214.75 1461.2,1219.96 1462.69,1225.14 1464.19,1230.23 1465.69,1235.2 1467.19,1240.02 1468.68,1244.68 1470.18,1249.19 1471.68,1253.57 1473.18,1257.82 1474.67,1261.97 1476.17,1266.04 1477.67,1270.05 1479.17,1274.02 1480.67,1277.97 1482.16,1281.89 1483.66,1285.81 1485.16,1289.72 1486.66,1293.64 1488.15,1297.55 1489.65,1301.46 1491.15,1305.37 1492.65,1309.27 1494.15,1313.16 1495.64,1317.02 1497.14,1320.87 1498.64,1324.69 1500.14,1328.47 1501.63,1332.22 1503.13,1335.93 1504.63,1339.59 1506.13,1343.2 1507.63,1346.75 1509.12,1350.24 1510.62,1353.66 1512.12,1357.01 1513.62,1360.28 1515.11,1363.47 1516.61,1366.57 1518.11,1369.58 1519.61,1372.5 1521.1,1375.32 1522.6,1378.03 1524.1,1380.64 1525.6,1383.14 1527.1,1385.53 1528.59,1387.81 1530.09,1389.98 1531.59,1392.04 1533.09,1393.98 1534.58,1395.82 1536.08,1397.54 1537.58,1399.16 1539.08,1400.67 1540.58,1402.08 1542.07,1403.39 1543.57,1404.61 1545.07,1405.73 1546.57,1406.77 1548.06,1407.73 1549.56,1408.6 1551.06,1409.4 1552.56,1410.14 1554.06,1410.8 1555.55,1411.41 1557.05,1411.96 1558.55,1412.46 1560.05,1412.91 1561.54,1413.31 1563.04,1413.68 1564.54,1414.01 1566.04,1414.31 1567.53,1414.57 1569.03,1414.81 1570.53,1415.02 1572.03,1415.22 1573.53,1415.39 1575.02,1415.54 1576.52,1415.68 1578.02,1415.81 1579.52,1415.92 1581.01,1416.02 1582.51,1416.11 1584.01,1416.2 1585.51,1416.27 1587.01,1416.34 1588.5,1416.41 1590,1416.46 1591.5,1416.52 1593,1416.57 1594.49,1416.61 1595.99,1416.66 1597.49,1416.7 1598.99,1416.74 1600.49,1416.77 1601.98,1416.81 1603.48,1416.84 1604.98,1416.88 1606.48,1416.91 1607.97,1416.94 1609.47,1416.98 1610.97,1417.01 1612.47,1417.04 1613.96,1417.07 1615.46,1417.1 1616.96,1417.14 1618.46,1417.17 1619.96,1417.2 1621.45,1417.24 1622.95,1417.27 1624.45,1417.31 1625.95,1417.35 1627.44,1417.39 1628.94,1417.43 1630.44,1417.47 1631.94,1417.51 1633.44,1417.56 1634.93,1417.6 1636.43,1417.65 1637.93,1417.7 1639.43,1417.76 1640.92,1417.81 1642.42,1417.87 1643.92,1417.93 1645.42,1417.99 1646.92,1418.05 1648.41,1418.12 1649.91,1418.19 1651.41,1418.26 1652.91,1418.34 1654.4,1418.42 1655.9,1418.5 1657.4,1418.59 1658.9,1418.68 1660.39,1418.77 1661.89,1418.87 1663.39,1418.97 1664.89,1419.07 1666.39,1419.18 1667.88,1419.29 1669.38,1419.41 1670.88,1419.53 1672.38,1419.65 1673.87,1419.78 1675.37,1419.92 1676.87,1420.06 1678.37,1420.2 1679.87,1420.35 1681.36,1420.5 1682.86,1420.66 1684.36,1420.83 1685.86,1420.99 1687.35,1421.17 1688.85,1421.35 1690.35,1421.53 1691.85,1421.72 1693.35,1421.91 1694.84,1422.11 1696.34,1422.32 1697.84,1422.53 1699.34,1422.74 1700.83,1422.96 1702.33,1423.19 1703.83,1423.42 1705.33,1423.65 1706.82,1423.89 1708.32,1424.14 1709.82,1424.39 1711.32,1424.64 1712.82,1424.9 1714.31,1425.16 1715.81,1425.43 1717.31,1425.7 1718.81,1425.97 1720.3,1426.25 1721.8,1426.53 1723.3,1426.82 1724.8,1427.11 1726.3,1427.4 1727.79,1427.69 1729.29,1427.99 1730.79,1428.29 1732.29,1428.59 1733.78,1428.9 1735.28,1429.2 1736.78,1429.51 1738.28,1429.82 1739.78,1430.12 1741.27,1430.43 1742.77,1430.74 1744.27,1431.05 1745.77,1431.36 1747.26,1431.67 1748.76,1431.98 1750.26,1432.28 1751.76,1432.58 1753.25,1432.89 1754.75,1433.19 1756.25,1433.48 1757.75,1433.78 1759.25,1434.07 1760.74,1434.35 1762.24,1434.63 1763.74,1434.91 1765.24,1435.19 1766.73,1435.46 1768.23,1435.72 1769.73,1435.98 1771.23,1436.23 1772.73,1436.48 1774.22,1436.72 1775.72,1436.96 1777.22,1437.19 1778.72,1437.42 1780.21,1437.64 1781.71,1437.85 1783.21,1438.06 1784.71,1438.26 1786.21,1438.45 1787.7,1438.64 1789.2,1438.83 1790.7,1439.01 1792.2,1439.18 1793.69,1439.35 1795.19,1439.51 1796.69,1439.67 1798.19,1439.82 1799.68,1439.97 1801.18,1440.11 1802.68,1440.25 1804.18,1440.38 1805.68,1440.51 1807.17,1440.64 1808.67,1440.76 1810.17,1440.88 1811.67,1440.99 1813.16,1441.1 1814.66,1441.21 1816.16,1441.31 1817.66,1441.41 1819.16,1441.51 1820.65,1441.61 1822.15,1441.7 1823.65,1441.79 1825.15,1441.88 1826.64,1441.96 1828.14,1442.04 1829.64,1442.12 1831.14,1442.2 1832.64,1442.28 1834.13,1442.35 1835.63,1442.42 1837.13,1442.49 1838.63,1442.56 1840.12,1442.63 1841.62,1442.7 1843.12,1442.76 1844.62,1442.82 1846.11,1442.88 1847.61,1442.94 1849.11,1443 1850.61,1443.06 1852.11,1443.12 1853.6,1443.17 1855.1,1443.22 1856.6,1443.28 1858.1,1443.33 1859.59,1443.38 1861.09,1443.43 1862.59,1443.48 1864.09,1443.53 1865.59,1443.57 1867.08,1443.62 1868.58,1443.66 1870.08,1443.71 1871.58,1443.75 1873.07,1443.79 1874.57,1443.84 1876.07,1443.88 1877.57,1443.92 1879.07,1443.96 1880.56,1444 1882.06,1444.04 1883.56,1444.07 1885.06,1444.11 1886.55,1444.15 1888.05,1444.18 1889.55,1444.22 1891.05,1444.25 1892.54,1444.29 1894.04,1444.32 1895.54,1444.35 1897.04,1444.38 1898.54,1444.42 1900.03,1444.45 1901.53,1444.48 1903.03,1444.51 1904.53,1444.54 1906.02,1444.57 1907.52,1444.59 1909.02,1444.62 1910.52,1444.65 1912.02,1444.68 1913.51,1444.7 1915.01,1444.73 1916.51,1444.75 1918.01,1444.78 1919.5,1444.8 1921,1444.83 1922.5,1444.85 1924,1444.87 1925.5,1444.89 1926.99,1444.92 1928.49,1444.94 1929.99,1444.96 1931.49,1444.98 1932.98,1445 1934.48,1445.02 1935.98,1445.04 1937.48,1445.06 1938.97,1445.08 1940.47,1445.09 1941.97,1445.11 1943.47,1445.13 1944.97,1445.14 1946.46,1445.16 1947.96,1445.18 1949.46,1445.19 1950.96,1445.21 1952.45,1445.22 1953.95,1445.24 1955.45,1445.25 1956.95,1445.27 1958.45,1445.28 1959.94,1445.29 1961.44,1445.3 1962.94,1445.32 1964.44,1445.33 1965.93,1445.34 1967.43,1445.35 1968.93,1445.36 1970.43,1445.37 1971.93,1445.38 1973.42,1445.4 1974.92,1445.41 1976.42,1445.42 1977.92,1445.42 1979.41,1445.43 1980.91,1445.44 1982.41,1445.45 1983.91,1445.46 1985.4,1445.47 1986.9,1445.48 1988.4,1445.48 1989.9,1445.49 1991.4,1445.5 1992.89,1445.51 1994.39,1445.51 1995.89,1445.52 1997.39,1445.53 1998.88,1445.53 2000.38,1445.54 2001.88,1445.54 2003.38,1445.55 2004.88,1445.56 2006.37,1445.56 2007.87,1445.57 2009.37,1445.57 2010.87,1445.58 2012.36,1445.58 2013.86,1445.59 2015.36,1445.59 2016.86,1445.59 2018.36,1445.6 2019.85,1445.6 2021.35,1445.61 2022.85,1445.61 2024.35,1445.61 2025.84,1445.62 2027.34,1445.62 2028.84,1445.62 2030.34,1445.63 2031.83,1445.63 2033.33,1445.63 2034.83,1445.64 2036.33,1445.64 2037.83,1445.64 2039.32,1445.64 2040.82,1445.65 2042.32,1445.65 2043.82,1445.65 2045.31,1445.65 2046.81,1445.66 2048.31,1445.66 2049.81,1445.66 2051.31,1445.66 2052.8,1445.66 2054.3,1445.67 2055.8,1445.67 2057.3,1445.67 2058.79,1445.67 2060.29,1445.67 2061.79,1445.68 2063.29,1445.68 2064.79,1445.68 2066.28,1445.68 2067.78,1445.68 2069.28,1445.68 2070.78,1445.68 2072.27,1445.68 2073.77,1445.69 2075.27,1445.69 2076.77,1445.69 2078.26,1445.69 2079.76,1445.69 2081.26,1445.69 2082.76,1445.69 2084.26,1445.69 2085.75,1445.69 2087.25,1445.69 2088.75,1445.7 2090.25,1445.7 2091.74,1445.7 2093.24,1445.7 2094.74,1445.7 2096.24,1445.7 2097.74,1445.7 2099.23,1445.7 2100.73,1445.7 2102.23,1445.7 2103.73,1445.7 2105.22,1445.7 2106.72,1445.7 2108.22,1445.7 2109.72,1445.7 2111.22,1445.7 2112.71,1445.7 2114.21,1445.71 2115.71,1445.71 2117.21,1445.71 2118.7,1445.71 2120.2,1445.71 2121.7,1445.71 2123.2,1445.71 2124.69,1445.71 2126.19,1445.71 2127.69,1445.71 2129.19,1445.71 2130.69,1445.71 2132.18,1445.71 2133.68,1445.71 2135.18,1445.71 2136.68,1445.71 2138.17,1445.71 2139.67,1445.71 2141.17,1445.71 2142.67,1445.71 2144.17,1445.71 2145.66,1445.71 2147.16,1445.71 2148.66,1445.71 2150.16,1445.71 2151.65,1445.71 2153.15,1445.71 2154.65,1445.71 2156.15,1445.71 2157.65,1445.71 2159.14,1445.71 2160.64,1445.71 2162.14,1445.71 2163.64,1445.71 2165.13,1445.71 2166.63,1445.71 2168.13,1445.71 2169.63,1445.71 2171.12,1445.71 2172.62,1445.71 2174.12,1445.71 2175.62,1445.71 2177.12,1445.71 2178.61,1445.71 2180.11,1445.71 2181.61,1445.71 2183.11,1445.71 2184.6,1445.71 2186.1,1445.71 2187.6,1445.71 2189.1,1445.71 2190.6,1445.71 2192.09,1445.71 2193.59,1445.71 2195.09,1445.71 2196.59,1445.71 2198.08,1445.71 2199.58,1445.71 2201.08,1445.71 2202.58,1445.71 2204.08,1445.71 2205.57,1445.71 2207.07,1445.71 2208.57,1445.71 2210.07,1445.71 2211.56,1445.71 2213.06,1445.71 2214.56,1445.72 2216.06,1445.72 2217.55,1445.72 2219.05,1445.72 2220.55,1445.72 2222.05,1445.72 2223.55,1445.72 2225.04,1445.72 2226.54,1445.72 2228.04,1445.72 2229.54,1445.72 2231.03,1445.72 2232.53,1445.72 2234.03,1445.72 2235.53,1445.72 2237.03,1445.72 2238.52,1445.72 2240.02,1445.72 2241.52,1445.72 2243.02,1445.72 2244.51,1445.72 2246.01,1445.72 2247.51,1445.72 2249.01,1445.72 2250.51,1445.72 2252,1445.72 2253.5,1445.72 2255,1445.72 2256.5,1445.72 2257.99,1445.72 2259.49,1445.72 2260.99,1445.72 2262.49,1445.72 2263.98,1445.72 2265.48,1445.72 2266.98,1445.72 2268.48,1445.72 2269.98,1445.72 2271.47,1445.72 2272.97,1445.72 2274.47,1445.72 2275.97,1445.72 2277.46,1445.72 2278.96,1445.72 2280.46,1445.72 2281.96,1445.72 2283.46,1445.72 2284.95,1445.72 2286.45,1445.72 2287.95,1445.72 2289.45,1445.72 2290.94,1445.72 2292.44,1445.72 2293.94,1445.72 2295.44,1445.72 2296.94,1445.72 2298.43,1445.72 2299.93,1445.72 2301.43,1445.72 2302.93,1445.72 2304.42,1445.72 2305.92,1445.72 2307.42,1445.72 2308.92,1445.72 2310.41,1445.72 2311.91,1445.72 2313.41,1445.72 2314.91,1445.72 2316.41,1445.72 2317.9,1445.72 2319.4,1445.72 2320.9,1445.72 2322.4,1445.72 2323.89,1445.72 2325.39,1445.72 "/>
<path clip-path="url(#clip160)" d="M2088.43 198.898 L2320.53 198.898 L2320.53 95.2176 L2088.43 95.2176  Z" fill="#ffffff" fill-rule="evenodd" fill-opacity="1"/>
<polyline clip-path="url(#clip160)" style="stroke:#000000; stroke-linecap:round; stroke-linejoin:round; stroke-width:4; stroke-opacity:1; fill:none" points="2088.43,198.898 2320.53,198.898 2320.53,95.2176 2088.43,95.2176 2088.43,198.898 "/>
<polyline clip-path="url(#clip160)" style="stroke:#009af9; stroke-linecap:round; stroke-linejoin:round; stroke-width:4; stroke-opacity:1; fill:none" points="2099.17,147.058 2163.63,147.058 "/>
<path clip-path="url(#clip160)" d="M2192.79 139.176 L2192.79 143.203 Q2190.99 142.277 2189.04 141.815 Q2187.1 141.352 2185.02 141.352 Q2181.85 141.352 2180.25 142.324 Q2178.67 143.296 2178.67 145.24 Q2178.67 146.722 2179.81 147.578 Q2180.94 148.412 2184.37 149.176 L2185.83 149.5 Q2190.36 150.472 2192.26 152.254 Q2194.18 154.014 2194.18 157.185 Q2194.18 160.796 2191.31 162.902 Q2188.47 165.009 2183.47 165.009 Q2181.38 165.009 2179.11 164.592 Q2176.87 164.199 2174.37 163.388 L2174.37 158.99 Q2176.73 160.217 2179.02 160.842 Q2181.31 161.444 2183.56 161.444 Q2186.57 161.444 2188.19 160.426 Q2189.81 159.384 2189.81 157.509 Q2189.81 155.773 2188.63 154.847 Q2187.47 153.921 2183.51 153.064 L2182.03 152.717 Q2178.07 151.884 2176.31 150.171 Q2174.55 148.435 2174.55 145.426 Q2174.55 141.768 2177.15 139.778 Q2179.74 137.787 2184.51 137.787 Q2186.87 137.787 2188.95 138.134 Q2191.04 138.481 2192.79 139.176 Z" fill="#000000" fill-rule="nonzero" fill-opacity="1" /><path clip-path="url(#clip160)" d="M2205.18 131.051 L2205.18 138.412 L2213.95 138.412 L2213.95 141.722 L2205.18 141.722 L2205.18 155.796 Q2205.18 158.967 2206.04 159.87 Q2206.91 160.773 2209.58 160.773 L2213.95 160.773 L2213.95 164.338 L2209.58 164.338 Q2204.65 164.338 2202.77 162.509 Q2200.9 160.657 2200.9 155.796 L2200.9 141.722 L2197.77 141.722 L2197.77 138.412 L2200.9 138.412 L2200.9 131.051 L2205.18 131.051 Z" fill="#000000" fill-rule="nonzero" fill-opacity="1" /><path clip-path="url(#clip160)" d="M2234.58 142.393 Q2233.86 141.977 2233 141.791 Q2232.17 141.583 2231.15 141.583 Q2227.54 141.583 2225.6 143.944 Q2223.67 146.282 2223.67 150.68 L2223.67 164.338 L2219.39 164.338 L2219.39 138.412 L2223.67 138.412 L2223.67 142.44 Q2225.02 140.078 2227.17 138.944 Q2229.32 137.787 2232.4 137.787 Q2232.84 137.787 2233.37 137.856 Q2233.91 137.903 2234.55 138.018 L2234.58 142.393 Z" fill="#000000" fill-rule="nonzero" fill-opacity="1" /><path clip-path="url(#clip160)" d="M2260.18 150.31 L2260.18 152.393 L2240.6 152.393 Q2240.87 156.791 2243.23 159.106 Q2245.62 161.398 2249.85 161.398 Q2252.31 161.398 2254.6 160.796 Q2256.91 160.194 2259.18 158.99 L2259.18 163.018 Q2256.89 163.99 2254.48 164.5 Q2252.08 165.009 2249.6 165.009 Q2243.4 165.009 2239.76 161.398 Q2236.15 157.787 2236.15 151.629 Q2236.15 145.264 2239.58 141.537 Q2243.03 137.787 2248.86 137.787 Q2254.09 137.787 2257.12 141.166 Q2260.18 144.523 2260.18 150.31 M2255.92 149.06 Q2255.87 145.565 2253.95 143.481 Q2252.05 141.398 2248.91 141.398 Q2245.34 141.398 2243.19 143.412 Q2241.06 145.426 2240.73 149.083 L2255.92 149.06 Z" fill="#000000" fill-rule="nonzero" fill-opacity="1" /><path clip-path="url(#clip160)" d="M2283.7 139.176 L2283.7 143.203 Q2281.89 142.277 2279.95 141.815 Q2278 141.352 2275.92 141.352 Q2272.75 141.352 2271.15 142.324 Q2269.58 143.296 2269.58 145.24 Q2269.58 146.722 2270.71 147.578 Q2271.85 148.412 2275.27 149.176 L2276.73 149.5 Q2281.27 150.472 2283.16 152.254 Q2285.09 154.014 2285.09 157.185 Q2285.09 160.796 2282.22 162.902 Q2279.37 165.009 2274.37 165.009 Q2272.28 165.009 2270.02 164.592 Q2267.77 164.199 2265.27 163.388 L2265.27 158.99 Q2267.63 160.217 2269.92 160.842 Q2272.22 161.444 2274.46 161.444 Q2277.47 161.444 2279.09 160.426 Q2280.71 159.384 2280.71 157.509 Q2280.71 155.773 2279.53 154.847 Q2278.37 153.921 2274.41 153.064 L2272.93 152.717 Q2268.97 151.884 2267.22 150.171 Q2265.46 148.435 2265.46 145.426 Q2265.46 141.768 2268.05 139.778 Q2270.64 137.787 2275.41 137.787 Q2277.77 137.787 2279.85 138.134 Q2281.94 138.481 2283.7 139.176 Z" fill="#000000" fill-rule="nonzero" fill-opacity="1" /><path clip-path="url(#clip160)" d="M2308.4 139.176 L2308.4 143.203 Q2306.59 142.277 2304.65 141.815 Q2302.7 141.352 2300.62 141.352 Q2297.45 141.352 2295.85 142.324 Q2294.28 143.296 2294.28 145.24 Q2294.28 146.722 2295.41 147.578 Q2296.54 148.412 2299.97 149.176 L2301.43 149.5 Q2305.97 150.472 2307.86 152.254 Q2309.78 154.014 2309.78 157.185 Q2309.78 160.796 2306.91 162.902 Q2304.07 165.009 2299.07 165.009 Q2296.98 165.009 2294.72 164.592 Q2292.47 164.199 2289.97 163.388 L2289.97 158.99 Q2292.33 160.217 2294.62 160.842 Q2296.91 161.444 2299.16 161.444 Q2302.17 161.444 2303.79 160.426 Q2305.41 159.384 2305.41 157.509 Q2305.41 155.773 2304.23 154.847 Q2303.07 153.921 2299.11 153.064 L2297.63 152.717 Q2293.67 151.884 2291.91 150.171 Q2290.16 148.435 2290.16 145.426 Q2290.16 141.768 2292.75 139.778 Q2295.34 137.787 2300.11 137.787 Q2302.47 137.787 2304.55 138.134 Q2306.64 138.481 2308.4 139.176 Z" fill="#000000" fill-rule="nonzero" fill-opacity="1" /></svg>
