<?xml version="1.0" encoding="utf-8"?>
<svg xmlns="http://www.w3.org/2000/svg" xmlns:xlink="http://www.w3.org/1999/xlink" width="600" height="400" viewBox="0 0 2400 1600">
<defs>
  <clipPath id="clip120">
    <rect x="0" y="0" width="2400" height="1600"/>
  </clipPath>
</defs>
<path clip-path="url(#clip120)" d="M0 1600 L2400 1600 L2400 0 L0 0  Z" fill="#ffffff" fill-rule="evenodd" fill-opacity="1"/>
<defs>
  <clipPath id="clip121">
    <rect x="1363" y="47" width="991" height="1440"/>
  </clipPath>
</defs>
<path clip-path="url(#clip120)" d="M147.478 1486.45 L1137.06 1486.45 L1137.06 47.2441 L147.478 47.2441  Z" fill="#ffffff" fill-rule="evenodd" fill-opacity="1"/>
<defs>
  <clipPath id="clip122">
    <rect x="147" y="47" width="991" height="1440"/>
  </clipPath>
</defs>
<polyline clip-path="url(#clip122)" style="stroke:#000000; stroke-linecap:round; stroke-linejoin:round; stroke-width:2; stroke-opacity:0.1; fill:none" points="273.745,1486.45 273.745,47.2441 "/>
<polyline clip-path="url(#clip122)" style="stroke:#000000; stroke-linecap:round; stroke-linejoin:round; stroke-width:2; stroke-opacity:0.1; fill:none" points="419.555,1486.45 419.555,47.2441 "/>
<polyline clip-path="url(#clip122)" style="stroke:#000000; stroke-linecap:round; stroke-linejoin:round; stroke-width:2; stroke-opacity:0.1; fill:none" points="565.365,1486.45 565.365,47.2441 "/>
<polyline clip-path="url(#clip122)" style="stroke:#000000; stroke-linecap:round; stroke-linejoin:round; stroke-width:2; stroke-opacity:0.1; fill:none" points="711.174,1486.45 711.174,47.2441 "/>
<polyline clip-path="url(#clip122)" style="stroke:#000000; stroke-linecap:round; stroke-linejoin:round; stroke-width:2; stroke-opacity:0.1; fill:none" points="856.984,1486.45 856.984,47.2441 "/>
<polyline clip-path="url(#clip122)" style="stroke:#000000; stroke-linecap:round; stroke-linejoin:round; stroke-width:2; stroke-opacity:0.1; fill:none" points="1002.79,1486.45 1002.79,47.2441 "/>
<polyline clip-path="url(#clip122)" style="stroke:#000000; stroke-linecap:round; stroke-linejoin:round; stroke-width:2; stroke-opacity:0.1; fill:none" points="147.478,1484.4 1137.06,1484.4 "/>
<polyline clip-path="url(#clip122)" style="stroke:#000000; stroke-linecap:round; stroke-linejoin:round; stroke-width:2; stroke-opacity:0.1; fill:none" points="147.478,1192.78 1137.06,1192.78 "/>
<polyline clip-path="url(#clip122)" style="stroke:#000000; stroke-linecap:round; stroke-linejoin:round; stroke-width:2; stroke-opacity:0.1; fill:none" points="147.478,901.159 1137.06,901.159 "/>
<polyline clip-path="url(#clip122)" style="stroke:#000000; stroke-linecap:round; stroke-linejoin:round; stroke-width:2; stroke-opacity:0.1; fill:none" points="147.478,609.54 1137.06,609.54 "/>
<polyline clip-path="url(#clip122)" style="stroke:#000000; stroke-linecap:round; stroke-linejoin:round; stroke-width:2; stroke-opacity:0.1; fill:none" points="147.478,317.92 1137.06,317.92 "/>
<polyline clip-path="url(#clip120)" style="stroke:#000000; stroke-linecap:round; stroke-linejoin:round; stroke-width:4; stroke-opacity:1; fill:none" points="147.478,1486.45 1137.06,1486.45 "/>
<polyline clip-path="url(#clip120)" style="stroke:#000000; stroke-linecap:round; stroke-linejoin:round; stroke-width:4; stroke-opacity:1; fill:none" points="273.745,1486.45 273.745,1467.55 "/>
<polyline clip-path="url(#clip120)" style="stroke:#000000; stroke-linecap:round; stroke-linejoin:round; stroke-width:4; stroke-opacity:1; fill:none" points="419.555,1486.45 419.555,1467.55 "/>
<polyline clip-path="url(#clip120)" style="stroke:#000000; stroke-linecap:round; stroke-linejoin:round; stroke-width:4; stroke-opacity:1; fill:none" points="565.365,1486.45 565.365,1467.55 "/>
<polyline clip-path="url(#clip120)" style="stroke:#000000; stroke-linecap:round; stroke-linejoin:round; stroke-width:4; stroke-opacity:1; fill:none" points="711.174,1486.45 711.174,1467.55 "/>
<polyline clip-path="url(#clip120)" style="stroke:#000000; stroke-linecap:round; stroke-linejoin:round; stroke-width:4; stroke-opacity:1; fill:none" points="856.984,1486.45 856.984,1467.55 "/>
<polyline clip-path="url(#clip120)" style="stroke:#000000; stroke-linecap:round; stroke-linejoin:round; stroke-width:4; stroke-opacity:1; fill:none" points="1002.79,1486.45 1002.79,1467.55 "/>
<path clip-path="url(#clip120)" d="M220.273 1532.02 L249.949 1532.02 L249.949 1535.95 L220.273 1535.95 L220.273 1532.02 Z" fill="#000000" fill-rule="nonzero" fill-opacity="1" /><path clip-path="url(#clip120)" d="M260.851 1544.91 L268.49 1544.91 L268.49 1518.55 L260.18 1520.21 L260.18 1515.95 L268.444 1514.29 L273.12 1514.29 L273.12 1544.91 L280.759 1544.91 L280.759 1548.85 L260.851 1548.85 L260.851 1544.91 Z" fill="#000000" fill-rule="nonzero" fill-opacity="1" /><path clip-path="url(#clip120)" d="M290.203 1542.97 L295.087 1542.97 L295.087 1548.85 L290.203 1548.85 L290.203 1542.97 Z" fill="#000000" fill-rule="nonzero" fill-opacity="1" /><path clip-path="url(#clip120)" d="M315.272 1517.37 Q311.661 1517.37 309.833 1520.93 Q308.027 1524.47 308.027 1531.6 Q308.027 1538.71 309.833 1542.27 Q311.661 1545.82 315.272 1545.82 Q318.907 1545.82 320.712 1542.27 Q322.541 1538.71 322.541 1531.6 Q322.541 1524.47 320.712 1520.93 Q318.907 1517.37 315.272 1517.37 M315.272 1513.66 Q321.083 1513.66 324.138 1518.27 Q327.217 1522.85 327.217 1531.6 Q327.217 1540.33 324.138 1544.94 Q321.083 1549.52 315.272 1549.52 Q309.462 1549.52 306.384 1544.94 Q303.328 1540.33 303.328 1531.6 Q303.328 1522.85 306.384 1518.27 Q309.462 1513.66 315.272 1513.66 Z" fill="#000000" fill-rule="nonzero" fill-opacity="1" /><path clip-path="url(#clip120)" d="M366.581 1532.02 L396.256 1532.02 L396.256 1535.95 L366.581 1535.95 L366.581 1532.02 Z" fill="#000000" fill-rule="nonzero" fill-opacity="1" /><path clip-path="url(#clip120)" d="M416.349 1517.37 Q412.738 1517.37 410.909 1520.93 Q409.103 1524.47 409.103 1531.6 Q409.103 1538.71 410.909 1542.27 Q412.738 1545.82 416.349 1545.82 Q419.983 1545.82 421.789 1542.27 Q423.617 1538.71 423.617 1531.6 Q423.617 1524.47 421.789 1520.93 Q419.983 1517.37 416.349 1517.37 M416.349 1513.66 Q422.159 1513.66 425.214 1518.27 Q428.293 1522.85 428.293 1531.6 Q428.293 1540.33 425.214 1544.94 Q422.159 1549.52 416.349 1549.52 Q410.539 1549.52 407.46 1544.94 Q404.404 1540.33 404.404 1531.6 Q404.404 1522.85 407.46 1518.27 Q410.539 1513.66 416.349 1513.66 Z" fill="#000000" fill-rule="nonzero" fill-opacity="1" /><path clip-path="url(#clip120)" d="M436.511 1542.97 L441.395 1542.97 L441.395 1548.85 L436.511 1548.85 L436.511 1542.97 Z" fill="#000000" fill-rule="nonzero" fill-opacity="1" /><path clip-path="url(#clip120)" d="M451.626 1514.29 L469.983 1514.29 L469.983 1518.22 L455.909 1518.22 L455.909 1526.7 Q456.927 1526.35 457.946 1526.19 Q458.964 1526 459.983 1526 Q465.77 1526 469.149 1529.17 Q472.529 1532.34 472.529 1537.76 Q472.529 1543.34 469.057 1546.44 Q465.585 1549.52 459.265 1549.52 Q457.089 1549.52 454.821 1549.15 Q452.575 1548.78 450.168 1548.04 L450.168 1543.34 Q452.251 1544.47 454.474 1545.03 Q456.696 1545.58 459.173 1545.58 Q463.177 1545.58 465.515 1543.48 Q467.853 1541.37 467.853 1537.76 Q467.853 1534.15 465.515 1532.04 Q463.177 1529.94 459.173 1529.94 Q457.298 1529.94 455.423 1530.35 Q453.571 1530.77 451.626 1531.65 L451.626 1514.29 Z" fill="#000000" fill-rule="nonzero" fill-opacity="1" /><path clip-path="url(#clip120)" d="M542.749 1517.37 Q539.138 1517.37 537.309 1520.93 Q535.504 1524.47 535.504 1531.6 Q535.504 1538.71 537.309 1542.27 Q539.138 1545.82 542.749 1545.82 Q546.383 1545.82 548.189 1542.27 Q550.017 1538.71 550.017 1531.6 Q550.017 1524.47 548.189 1520.93 Q546.383 1517.37 542.749 1517.37 M542.749 1513.66 Q548.559 1513.66 551.615 1518.27 Q554.693 1522.85 554.693 1531.6 Q554.693 1540.33 551.615 1544.94 Q548.559 1549.52 542.749 1549.52 Q536.939 1549.52 533.86 1544.94 Q530.805 1540.33 530.805 1531.6 Q530.805 1522.85 533.86 1518.27 Q536.939 1513.66 542.749 1513.66 Z" fill="#000000" fill-rule="nonzero" fill-opacity="1" /><path clip-path="url(#clip120)" d="M562.911 1542.97 L567.795 1542.97 L567.795 1548.85 L562.911 1548.85 L562.911 1542.97 Z" fill="#000000" fill-rule="nonzero" fill-opacity="1" /><path clip-path="url(#clip120)" d="M587.98 1517.37 Q584.369 1517.37 582.54 1520.93 Q580.735 1524.47 580.735 1531.6 Q580.735 1538.71 582.54 1542.27 Q584.369 1545.82 587.98 1545.82 Q591.614 1545.82 593.42 1542.27 Q595.249 1538.71 595.249 1531.6 Q595.249 1524.47 593.42 1520.93 Q591.614 1517.37 587.98 1517.37 M587.98 1513.66 Q593.79 1513.66 596.846 1518.27 Q599.925 1522.85 599.925 1531.6 Q599.925 1540.33 596.846 1544.94 Q593.79 1549.52 587.98 1549.52 Q582.17 1549.52 579.091 1544.94 Q576.036 1540.33 576.036 1531.6 Q576.036 1522.85 579.091 1518.27 Q582.17 1513.66 587.98 1513.66 Z" fill="#000000" fill-rule="nonzero" fill-opacity="1" /><path clip-path="url(#clip120)" d="M689.056 1517.37 Q685.445 1517.37 683.617 1520.93 Q681.811 1524.47 681.811 1531.6 Q681.811 1538.71 683.617 1542.27 Q685.445 1545.82 689.056 1545.82 Q692.691 1545.82 694.496 1542.27 Q696.325 1538.71 696.325 1531.6 Q696.325 1524.47 694.496 1520.93 Q692.691 1517.37 689.056 1517.37 M689.056 1513.66 Q694.867 1513.66 697.922 1518.27 Q701.001 1522.85 701.001 1531.6 Q701.001 1540.33 697.922 1544.94 Q694.867 1549.52 689.056 1549.52 Q683.246 1549.52 680.168 1544.94 Q677.112 1540.33 677.112 1531.6 Q677.112 1522.85 680.168 1518.27 Q683.246 1513.66 689.056 1513.66 Z" fill="#000000" fill-rule="nonzero" fill-opacity="1" /><path clip-path="url(#clip120)" d="M709.218 1542.97 L714.103 1542.97 L714.103 1548.85 L709.218 1548.85 L709.218 1542.97 Z" fill="#000000" fill-rule="nonzero" fill-opacity="1" /><path clip-path="url(#clip120)" d="M724.334 1514.29 L742.69 1514.29 L742.69 1518.22 L728.616 1518.22 L728.616 1526.7 Q729.635 1526.35 730.653 1526.19 Q731.672 1526 732.69 1526 Q738.477 1526 741.857 1529.17 Q745.237 1532.34 745.237 1537.76 Q745.237 1543.34 741.765 1546.44 Q738.292 1549.52 731.973 1549.52 Q729.797 1549.52 727.528 1549.15 Q725.283 1548.78 722.876 1548.04 L722.876 1543.34 Q724.959 1544.47 727.181 1545.03 Q729.403 1545.58 731.88 1545.58 Q735.885 1545.58 738.223 1543.48 Q740.561 1541.37 740.561 1537.76 Q740.561 1534.15 738.223 1532.04 Q735.885 1529.94 731.88 1529.94 Q730.005 1529.94 728.13 1530.35 Q726.278 1530.77 724.334 1531.65 L724.334 1514.29 Z" fill="#000000" fill-rule="nonzero" fill-opacity="1" /><path clip-path="url(#clip120)" d="M824.137 1544.91 L831.776 1544.91 L831.776 1518.55 L823.466 1520.21 L823.466 1515.95 L831.73 1514.29 L836.406 1514.29 L836.406 1544.91 L844.044 1544.91 L844.044 1548.85 L824.137 1548.85 L824.137 1544.91 Z" fill="#000000" fill-rule="nonzero" fill-opacity="1" /><path clip-path="url(#clip120)" d="M853.489 1542.97 L858.373 1542.97 L858.373 1548.85 L853.489 1548.85 L853.489 1542.97 Z" fill="#000000" fill-rule="nonzero" fill-opacity="1" /><path clip-path="url(#clip120)" d="M878.558 1517.37 Q874.947 1517.37 873.118 1520.93 Q871.313 1524.47 871.313 1531.6 Q871.313 1538.71 873.118 1542.27 Q874.947 1545.82 878.558 1545.82 Q882.192 1545.82 883.998 1542.27 Q885.827 1538.71 885.827 1531.6 Q885.827 1524.47 883.998 1520.93 Q882.192 1517.37 878.558 1517.37 M878.558 1513.66 Q884.368 1513.66 887.424 1518.27 Q890.503 1522.85 890.503 1531.6 Q890.503 1540.33 887.424 1544.94 Q884.368 1549.52 878.558 1549.52 Q872.748 1549.52 869.669 1544.94 Q866.614 1540.33 866.614 1531.6 Q866.614 1522.85 869.669 1518.27 Q872.748 1513.66 878.558 1513.66 Z" fill="#000000" fill-rule="nonzero" fill-opacity="1" /><path clip-path="url(#clip120)" d="M970.445 1544.91 L978.084 1544.91 L978.084 1518.55 L969.773 1520.21 L969.773 1515.95 L978.037 1514.29 L982.713 1514.29 L982.713 1544.91 L990.352 1544.91 L990.352 1548.85 L970.445 1548.85 L970.445 1544.91 Z" fill="#000000" fill-rule="nonzero" fill-opacity="1" /><path clip-path="url(#clip120)" d="M999.796 1542.97 L1004.68 1542.97 L1004.68 1548.85 L999.796 1548.85 L999.796 1542.97 Z" fill="#000000" fill-rule="nonzero" fill-opacity="1" /><path clip-path="url(#clip120)" d="M1014.91 1514.29 L1033.27 1514.29 L1033.27 1518.22 L1019.19 1518.22 L1019.19 1526.7 Q1020.21 1526.35 1021.23 1526.19 Q1022.25 1526 1023.27 1526 Q1029.06 1526 1032.44 1529.17 Q1035.81 1532.34 1035.81 1537.76 Q1035.81 1543.34 1032.34 1546.44 Q1028.87 1549.52 1022.55 1549.52 Q1020.37 1549.52 1018.11 1549.15 Q1015.86 1548.78 1013.45 1548.04 L1013.45 1543.34 Q1015.54 1544.47 1017.76 1545.03 Q1019.98 1545.58 1022.46 1545.58 Q1026.46 1545.58 1028.8 1543.48 Q1031.14 1541.37 1031.14 1537.76 Q1031.14 1534.15 1028.8 1532.04 Q1026.46 1529.94 1022.46 1529.94 Q1020.58 1529.94 1018.71 1530.35 Q1016.86 1530.77 1014.91 1531.65 L1014.91 1514.29 Z" fill="#000000" fill-rule="nonzero" fill-opacity="1" /><polyline clip-path="url(#clip120)" style="stroke:#000000; stroke-linecap:round; stroke-linejoin:round; stroke-width:4; stroke-opacity:1; fill:none" points="147.478,1486.45 147.478,47.2441 "/>
<polyline clip-path="url(#clip120)" style="stroke:#000000; stroke-linecap:round; stroke-linejoin:round; stroke-width:4; stroke-opacity:1; fill:none" points="147.478,1484.4 166.376,1484.4 "/>
<polyline clip-path="url(#clip120)" style="stroke:#000000; stroke-linecap:round; stroke-linejoin:round; stroke-width:4; stroke-opacity:1; fill:none" points="147.478,1192.78 166.376,1192.78 "/>
<polyline clip-path="url(#clip120)" style="stroke:#000000; stroke-linecap:round; stroke-linejoin:round; stroke-width:4; stroke-opacity:1; fill:none" points="147.478,901.159 166.376,901.159 "/>
<polyline clip-path="url(#clip120)" style="stroke:#000000; stroke-linecap:round; stroke-linejoin:round; stroke-width:4; stroke-opacity:1; fill:none" points="147.478,609.54 166.376,609.54 "/>
<polyline clip-path="url(#clip120)" style="stroke:#000000; stroke-linecap:round; stroke-linejoin:round; stroke-width:4; stroke-opacity:1; fill:none" points="147.478,317.92 166.376,317.92 "/>
<path clip-path="url(#clip120)" d="M51.3625 1484.85 L81.0383 1484.85 L81.0383 1488.79 L51.3625 1488.79 L51.3625 1484.85 Z" fill="#000000" fill-rule="nonzero" fill-opacity="1" /><path clip-path="url(#clip120)" d="M95.1586 1497.74 L111.478 1497.74 L111.478 1501.68 L89.5336 1501.68 L89.5336 1497.74 Q92.1956 1494.99 96.7789 1490.36 Q101.385 1485.71 102.566 1484.36 Q104.811 1481.84 105.691 1480.1 Q106.594 1478.35 106.594 1476.66 Q106.594 1473.9 104.649 1472.16 Q102.728 1470.43 99.6261 1470.43 Q97.4271 1470.43 94.9734 1471.19 Q92.5428 1471.96 89.7651 1473.51 L89.7651 1468.79 Q92.5891 1467.65 95.0428 1467.07 Q97.4965 1466.49 99.5335 1466.49 Q104.904 1466.49 108.098 1469.18 Q111.293 1471.86 111.293 1476.35 Q111.293 1478.48 110.483 1480.41 Q109.696 1482.3 107.589 1484.9 Q107.01 1485.57 103.909 1488.79 Q100.807 1491.98 95.1586 1497.74 Z" fill="#000000" fill-rule="nonzero" fill-opacity="1" /><path clip-path="url(#clip120)" d="M50.9921 1193.23 L80.6679 1193.23 L80.6679 1197.17 L50.9921 1197.17 L50.9921 1193.23 Z" fill="#000000" fill-rule="nonzero" fill-opacity="1" /><path clip-path="url(#clip120)" d="M91.5706 1206.12 L99.2095 1206.12 L99.2095 1179.76 L90.8993 1181.42 L90.8993 1177.17 L99.1632 1175.5 L103.839 1175.5 L103.839 1206.12 L111.478 1206.12 L111.478 1210.06 L91.5706 1210.06 L91.5706 1206.12 Z" fill="#000000" fill-rule="nonzero" fill-opacity="1" /><path clip-path="url(#clip120)" d="M99.5335 886.958 Q95.9224 886.958 94.0937 890.523 Q92.2882 894.065 92.2882 901.194 Q92.2882 908.301 94.0937 911.865 Q95.9224 915.407 99.5335 915.407 Q103.168 915.407 104.973 911.865 Q106.802 908.301 106.802 901.194 Q106.802 894.065 104.973 890.523 Q103.168 886.958 99.5335 886.958 M99.5335 883.254 Q105.344 883.254 108.399 887.861 Q111.478 892.444 111.478 901.194 Q111.478 909.921 108.399 914.527 Q105.344 919.111 99.5335 919.111 Q93.7234 919.111 90.6447 914.527 Q87.5892 909.921 87.5892 901.194 Q87.5892 892.444 90.6447 887.861 Q93.7234 883.254 99.5335 883.254 Z" fill="#000000" fill-rule="nonzero" fill-opacity="1" /><path clip-path="url(#clip120)" d="M91.5706 622.885 L99.2095 622.885 L99.2095 596.519 L90.8993 598.186 L90.8993 593.926 L99.1632 592.26 L103.839 592.26 L103.839 622.885 L111.478 622.885 L111.478 626.82 L91.5706 626.82 L91.5706 622.885 Z" fill="#000000" fill-rule="nonzero" fill-opacity="1" /><path clip-path="url(#clip120)" d="M95.1586 331.265 L111.478 331.265 L111.478 335.2 L89.5336 335.2 L89.5336 331.265 Q92.1956 328.51 96.7789 323.881 Q101.385 319.228 102.566 317.885 Q104.811 315.362 105.691 313.626 Q106.594 311.867 106.594 310.177 Q106.594 307.423 104.649 305.686 Q102.728 303.95 99.6261 303.95 Q97.4271 303.95 94.9734 304.714 Q92.5428 305.478 89.7651 307.029 L89.7651 302.307 Q92.5891 301.173 95.0428 300.594 Q97.4965 300.015 99.5335 300.015 Q104.904 300.015 108.098 302.7 Q111.293 305.386 111.293 309.876 Q111.293 312.006 110.483 313.927 Q109.696 315.825 107.589 318.418 Q107.01 319.089 103.909 322.307 Q100.807 325.501 95.1586 331.265 Z" fill="#000000" fill-rule="nonzero" fill-opacity="1" /><polyline clip-path="url(#clip122)" style="stroke:#000000; stroke-linecap:round; stroke-linejoin:round; stroke-width:4; stroke-opacity:1; fill:none" points="310.362,1375.89 175.485,958.138 "/>
<polyline clip-path="url(#clip122)" style="stroke:#000000; stroke-linecap:round; stroke-linejoin:round; stroke-width:4; stroke-opacity:1; fill:none" points="310.362,1375.89 676.282,1250.68 "/>
<polyline clip-path="url(#clip122)" style="stroke:#000000; stroke-linecap:round; stroke-linejoin:round; stroke-width:4; stroke-opacity:1; fill:none" points="310.362,1375.89 745.39,815.996 "/>
<polyline clip-path="url(#clip122)" style="stroke:#000000; stroke-linecap:round; stroke-linejoin:round; stroke-width:4; stroke-opacity:1; fill:none" points="510.572,832.977 175.485,958.138 "/>
<polyline clip-path="url(#clip122)" style="stroke:#000000; stroke-linecap:round; stroke-linejoin:round; stroke-width:4; stroke-opacity:1; fill:none" points="510.572,832.977 969.227,924.252 "/>
<polyline clip-path="url(#clip122)" style="stroke:#000000; stroke-linecap:round; stroke-linejoin:round; stroke-width:4; stroke-opacity:1; fill:none" points="510.572,832.977 1032.5,425.972 "/>
<polyline clip-path="url(#clip122)" style="stroke:#000000; stroke-linecap:round; stroke-linejoin:round; stroke-width:4; stroke-opacity:1; fill:none" points="510.572,832.977 577.336,550.38 "/>
<polyline clip-path="url(#clip122)" style="stroke:#000000; stroke-linecap:round; stroke-linejoin:round; stroke-width:4; stroke-opacity:1; fill:none" points="510.572,832.977 745.39,815.996 "/>
<polyline clip-path="url(#clip122)" style="stroke:#000000; stroke-linecap:round; stroke-linejoin:round; stroke-width:4; stroke-opacity:1; fill:none" points="175.485,958.138 189.176,405.145 "/>
<polyline clip-path="url(#clip122)" style="stroke:#000000; stroke-linecap:round; stroke-linejoin:round; stroke-width:4; stroke-opacity:1; fill:none" points="175.485,958.138 676.282,1250.68 "/>
<polyline clip-path="url(#clip122)" style="stroke:#000000; stroke-linecap:round; stroke-linejoin:round; stroke-width:4; stroke-opacity:1; fill:none" points="175.485,958.138 577.336,550.38 "/>
<polyline clip-path="url(#clip122)" style="stroke:#000000; stroke-linecap:round; stroke-linejoin:round; stroke-width:4; stroke-opacity:1; fill:none" points="969.227,924.252 797.396,508.967 "/>
<polyline clip-path="url(#clip122)" style="stroke:#000000; stroke-linecap:round; stroke-linejoin:round; stroke-width:4; stroke-opacity:1; fill:none" points="969.227,924.252 577.336,550.38 "/>
<polyline clip-path="url(#clip122)" style="stroke:#000000; stroke-linecap:round; stroke-linejoin:round; stroke-width:4; stroke-opacity:1; fill:none" points="969.227,924.252 1109.05,1146.59 "/>
<polyline clip-path="url(#clip122)" style="stroke:#000000; stroke-linecap:round; stroke-linejoin:round; stroke-width:4; stroke-opacity:1; fill:none" points="969.227,924.252 1008.94,698.504 "/>
<polyline clip-path="url(#clip122)" style="stroke:#000000; stroke-linecap:round; stroke-linejoin:round; stroke-width:4; stroke-opacity:1; fill:none" points="969.227,924.252 745.39,815.996 "/>
<polyline clip-path="url(#clip122)" style="stroke:#000000; stroke-linecap:round; stroke-linejoin:round; stroke-width:4; stroke-opacity:1; fill:none" points="867.877,157.801 588.249,262.142 "/>
<polyline clip-path="url(#clip122)" style="stroke:#000000; stroke-linecap:round; stroke-linejoin:round; stroke-width:4; stroke-opacity:1; fill:none" points="867.877,157.801 797.396,508.967 "/>
<polyline clip-path="url(#clip122)" style="stroke:#000000; stroke-linecap:round; stroke-linejoin:round; stroke-width:4; stroke-opacity:1; fill:none" points="867.877,157.801 1032.5,425.972 "/>
<polyline clip-path="url(#clip122)" style="stroke:#000000; stroke-linecap:round; stroke-linejoin:round; stroke-width:4; stroke-opacity:1; fill:none" points="867.877,157.801 577.336,550.38 "/>
<polyline clip-path="url(#clip122)" style="stroke:#000000; stroke-linecap:round; stroke-linejoin:round; stroke-width:4; stroke-opacity:1; fill:none" points="867.877,157.801 745.39,815.996 "/>
<polyline clip-path="url(#clip122)" style="stroke:#000000; stroke-linecap:round; stroke-linejoin:round; stroke-width:4; stroke-opacity:1; fill:none" points="189.176,405.145 588.249,262.142 "/>
<polyline clip-path="url(#clip122)" style="stroke:#000000; stroke-linecap:round; stroke-linejoin:round; stroke-width:4; stroke-opacity:1; fill:none" points="189.176,405.145 797.396,508.967 "/>
<polyline clip-path="url(#clip122)" style="stroke:#000000; stroke-linecap:round; stroke-linejoin:round; stroke-width:4; stroke-opacity:1; fill:none" points="189.176,405.145 577.336,550.38 "/>
<polyline clip-path="url(#clip122)" style="stroke:#000000; stroke-linecap:round; stroke-linejoin:round; stroke-width:4; stroke-opacity:1; fill:none" points="588.249,262.142 797.396,508.967 "/>
<polyline clip-path="url(#clip122)" style="stroke:#000000; stroke-linecap:round; stroke-linejoin:round; stroke-width:4; stroke-opacity:1; fill:none" points="588.249,262.142 577.336,550.38 "/>
<polyline clip-path="url(#clip122)" style="stroke:#000000; stroke-linecap:round; stroke-linejoin:round; stroke-width:4; stroke-opacity:1; fill:none" points="588.249,262.142 1008.94,698.504 "/>
<polyline clip-path="url(#clip122)" style="stroke:#000000; stroke-linecap:round; stroke-linejoin:round; stroke-width:4; stroke-opacity:1; fill:none" points="588.249,262.142 745.39,815.996 "/>
<polyline clip-path="url(#clip122)" style="stroke:#000000; stroke-linecap:round; stroke-linejoin:round; stroke-width:4; stroke-opacity:1; fill:none" points="797.396,508.967 577.336,550.38 "/>
<polyline clip-path="url(#clip122)" style="stroke:#000000; stroke-linecap:round; stroke-linejoin:round; stroke-width:4; stroke-opacity:1; fill:none" points="797.396,508.967 1109.05,1146.59 "/>
<polyline clip-path="url(#clip122)" style="stroke:#000000; stroke-linecap:round; stroke-linejoin:round; stroke-width:4; stroke-opacity:1; fill:none" points="676.282,1250.68 1109.05,1146.59 "/>
<polyline clip-path="url(#clip122)" style="stroke:#000000; stroke-linecap:round; stroke-linejoin:round; stroke-width:4; stroke-opacity:1; fill:none" points="676.282,1250.68 1008.94,698.504 "/>
<polyline clip-path="url(#clip122)" style="stroke:#000000; stroke-linecap:round; stroke-linejoin:round; stroke-width:4; stroke-opacity:1; fill:none" points="676.282,1250.68 745.39,815.996 "/>
<polyline clip-path="url(#clip122)" style="stroke:#000000; stroke-linecap:round; stroke-linejoin:round; stroke-width:4; stroke-opacity:1; fill:none" points="1032.5,425.972 577.336,550.38 "/>
<polyline clip-path="url(#clip122)" style="stroke:#000000; stroke-linecap:round; stroke-linejoin:round; stroke-width:4; stroke-opacity:1; fill:none" points="1032.5,425.972 1008.94,698.504 "/>
<polyline clip-path="url(#clip122)" style="stroke:#000000; stroke-linecap:round; stroke-linejoin:round; stroke-width:4; stroke-opacity:1; fill:none" points="1032.5,425.972 745.39,815.996 "/>
<polyline clip-path="url(#clip122)" style="stroke:#000000; stroke-linecap:round; stroke-linejoin:round; stroke-width:4; stroke-opacity:1; fill:none" points="577.336,550.38 1008.94,698.504 "/>
<polyline clip-path="url(#clip122)" style="stroke:#000000; stroke-linecap:round; stroke-linejoin:round; stroke-width:4; stroke-opacity:1; fill:none" points="577.336,550.38 745.39,815.996 "/>
<polyline clip-path="url(#clip122)" style="stroke:#000000; stroke-linecap:round; stroke-linejoin:round; stroke-width:4; stroke-opacity:1; fill:none" points="1109.05,1146.59 745.39,815.996 "/>
<polyline clip-path="url(#clip122)" style="stroke:#000000; stroke-linecap:round; stroke-linejoin:round; stroke-width:4; stroke-opacity:1; fill:none" points="1008.94,698.504 745.39,815.996 "/>
<circle clip-path="url(#clip122)" cx="310.362" cy="1375.89" r="18" fill="#0000ff" fill-rule="evenodd" fill-opacity="1" stroke="#000000" stroke-opacity="1" stroke-width="3.2"/>
<circle clip-path="url(#clip122)" cx="510.572" cy="832.977" r="18" fill="#0000ff" fill-rule="evenodd" fill-opacity="1" stroke="#000000" stroke-opacity="1" stroke-width="3.2"/>
<circle clip-path="url(#clip122)" cx="175.485" cy="958.138" r="18" fill="#0000ff" fill-rule="evenodd" fill-opacity="1" stroke="#000000" stroke-opacity="1" stroke-width="3.2"/>
<circle clip-path="url(#clip122)" cx="969.227" cy="924.252" r="18" fill="#0000ff" fill-rule="evenodd" fill-opacity="1" stroke="#000000" stroke-opacity="1" stroke-width="3.2"/>
<circle clip-path="url(#clip122)" cx="867.877" cy="157.801" r="18" fill="#0000ff" fill-rule="evenodd" fill-opacity="1" stroke="#000000" stroke-opacity="1" stroke-width="3.2"/>
<circle clip-path="url(#clip122)" cx="189.176" cy="405.145" r="18" fill="#0000ff" fill-rule="evenodd" fill-opacity="1" stroke="#000000" stroke-opacity="1" stroke-width="3.2"/>
<circle clip-path="url(#clip122)" cx="588.249" cy="262.142" r="18" fill="#0000ff" fill-rule="evenodd" fill-opacity="1" stroke="#000000" stroke-opacity="1" stroke-width="3.2"/>
<circle clip-path="url(#clip122)" cx="797.396" cy="508.967" r="18" fill="#0000ff" fill-rule="evenodd" fill-opacity="1" stroke="#000000" stroke-opacity="1" stroke-width="3.2"/>
<circle clip-path="url(#clip122)" cx="676.282" cy="1250.68" r="18" fill="#0000ff" fill-rule="evenodd" fill-opacity="1" stroke="#000000" stroke-opacity="1" stroke-width="3.2"/>
<circle clip-path="url(#clip122)" cx="1032.5" cy="425.972" r="18" fill="#0000ff" fill-rule="evenodd" fill-opacity="1" stroke="#000000" stroke-opacity="1" stroke-width="3.2"/>
<circle clip-path="url(#clip122)" cx="577.336" cy="550.38" r="18" fill="#0000ff" fill-rule="evenodd" fill-opacity="1" stroke="#000000" stroke-opacity="1" stroke-width="3.2"/>
<circle clip-path="url(#clip122)" cx="1109.05" cy="1146.59" r="18" fill="#0000ff" fill-rule="evenodd" fill-opacity="1" stroke="#000000" stroke-opacity="1" stroke-width="3.2"/>
<circle clip-path="url(#clip122)" cx="1008.94" cy="698.504" r="18" fill="#0000ff" fill-rule="evenodd" fill-opacity="1" stroke="#000000" stroke-opacity="1" stroke-width="3.2"/>
<circle clip-path="url(#clip122)" cx="745.39" cy="815.996" r="18" fill="#0000ff" fill-rule="evenodd" fill-opacity="1" stroke="#000000" stroke-opacity="1" stroke-width="3.2"/>
<path clip-path="url(#clip120)" d="M1363.17 1486.45 L2352.76 1486.45 L2352.76 47.2441 L1363.17 47.2441  Z" fill="#ffffff" fill-rule="evenodd" fill-opacity="1"/>
<polyline clip-path="url(#clip121)" style="stroke:#000000; stroke-linecap:round; stroke-linejoin:round; stroke-width:2; stroke-opacity:0.1; fill:none" points="1390.12,1486.45 1390.12,47.2441 "/>
<polyline clip-path="url(#clip121)" style="stroke:#000000; stroke-linecap:round; stroke-linejoin:round; stroke-width:2; stroke-opacity:0.1; fill:none" points="1601.34,1486.45 1601.34,47.2441 "/>
<polyline clip-path="url(#clip121)" style="stroke:#000000; stroke-linecap:round; stroke-linejoin:round; stroke-width:2; stroke-opacity:0.1; fill:none" points="1812.55,1486.45 1812.55,47.2441 "/>
<polyline clip-path="url(#clip121)" style="stroke:#000000; stroke-linecap:round; stroke-linejoin:round; stroke-width:2; stroke-opacity:0.1; fill:none" points="2023.77,1486.45 2023.77,47.2441 "/>
<polyline clip-path="url(#clip121)" style="stroke:#000000; stroke-linecap:round; stroke-linejoin:round; stroke-width:2; stroke-opacity:0.1; fill:none" points="2234.98,1486.45 2234.98,47.2441 "/>
<polyline clip-path="url(#clip121)" style="stroke:#000000; stroke-linecap:round; stroke-linejoin:round; stroke-width:2; stroke-opacity:0.1; fill:none" points="1363.17,1292.82 2352.76,1292.82 "/>
<polyline clip-path="url(#clip121)" style="stroke:#000000; stroke-linecap:round; stroke-linejoin:round; stroke-width:2; stroke-opacity:0.1; fill:none" points="1363.17,1006.76 2352.76,1006.76 "/>
<polyline clip-path="url(#clip121)" style="stroke:#000000; stroke-linecap:round; stroke-linejoin:round; stroke-width:2; stroke-opacity:0.1; fill:none" points="1363.17,720.691 2352.76,720.691 "/>
<polyline clip-path="url(#clip121)" style="stroke:#000000; stroke-linecap:round; stroke-linejoin:round; stroke-width:2; stroke-opacity:0.1; fill:none" points="1363.17,434.626 2352.76,434.626 "/>
<polyline clip-path="url(#clip121)" style="stroke:#000000; stroke-linecap:round; stroke-linejoin:round; stroke-width:2; stroke-opacity:0.1; fill:none" points="1363.17,148.56 2352.76,148.56 "/>
<polyline clip-path="url(#clip120)" style="stroke:#000000; stroke-linecap:round; stroke-linejoin:round; stroke-width:4; stroke-opacity:1; fill:none" points="1363.17,1486.45 2352.76,1486.45 "/>
<polyline clip-path="url(#clip120)" style="stroke:#000000; stroke-linecap:round; stroke-linejoin:round; stroke-width:4; stroke-opacity:1; fill:none" points="1390.12,1486.45 1390.12,1467.55 "/>
<polyline clip-path="url(#clip120)" style="stroke:#000000; stroke-linecap:round; stroke-linejoin:round; stroke-width:4; stroke-opacity:1; fill:none" points="1601.34,1486.45 1601.34,1467.55 "/>
<polyline clip-path="url(#clip120)" style="stroke:#000000; stroke-linecap:round; stroke-linejoin:round; stroke-width:4; stroke-opacity:1; fill:none" points="1812.55,1486.45 1812.55,1467.55 "/>
<polyline clip-path="url(#clip120)" style="stroke:#000000; stroke-linecap:round; stroke-linejoin:round; stroke-width:4; stroke-opacity:1; fill:none" points="2023.77,1486.45 2023.77,1467.55 "/>
<polyline clip-path="url(#clip120)" style="stroke:#000000; stroke-linecap:round; stroke-linejoin:round; stroke-width:4; stroke-opacity:1; fill:none" points="2234.98,1486.45 2234.98,1467.55 "/>
<path clip-path="url(#clip120)" d="M1390.12 1517.37 Q1386.51 1517.37 1384.68 1520.93 Q1382.88 1524.47 1382.88 1531.6 Q1382.88 1538.71 1384.68 1542.27 Q1386.51 1545.82 1390.12 1545.82 Q1393.76 1545.82 1395.56 1542.27 Q1397.39 1538.71 1397.39 1531.6 Q1397.39 1524.47 1395.56 1520.93 Q1393.76 1517.37 1390.12 1517.37 M1390.12 1513.66 Q1395.93 1513.66 1398.99 1518.27 Q1402.07 1522.85 1402.07 1531.6 Q1402.07 1540.33 1398.99 1544.94 Q1395.93 1549.52 1390.12 1549.52 Q1384.31 1549.52 1381.23 1544.94 Q1378.18 1540.33 1378.18 1531.6 Q1378.18 1522.85 1381.23 1518.27 Q1384.31 1513.66 1390.12 1513.66 Z" fill="#000000" fill-rule="nonzero" fill-opacity="1" /><path clip-path="url(#clip120)" d="M1565.03 1544.91 L1581.35 1544.91 L1581.35 1548.85 L1559.41 1548.85 L1559.41 1544.91 Q1562.07 1542.16 1566.65 1537.53 Q1571.26 1532.88 1572.44 1531.53 Q1574.68 1529.01 1575.56 1527.27 Q1576.47 1525.51 1576.47 1523.82 Q1576.47 1521.07 1574.52 1519.33 Q1572.6 1517.6 1569.5 1517.6 Q1567.3 1517.6 1564.85 1518.36 Q1562.41 1519.13 1559.64 1520.68 L1559.64 1515.95 Q1562.46 1514.82 1564.91 1514.24 Q1567.37 1513.66 1569.41 1513.66 Q1574.78 1513.66 1577.97 1516.35 Q1581.16 1519.03 1581.16 1523.52 Q1581.16 1525.65 1580.35 1527.57 Q1579.57 1529.47 1577.46 1532.07 Q1576.88 1532.74 1573.78 1535.95 Q1570.68 1539.15 1565.03 1544.91 Z" fill="#000000" fill-rule="nonzero" fill-opacity="1" /><path clip-path="url(#clip120)" d="M1601.16 1517.37 Q1597.55 1517.37 1595.72 1520.93 Q1593.92 1524.47 1593.92 1531.6 Q1593.92 1538.71 1595.72 1542.27 Q1597.55 1545.82 1601.16 1545.82 Q1604.8 1545.82 1606.6 1542.27 Q1608.43 1538.71 1608.43 1531.6 Q1608.43 1524.47 1606.6 1520.93 Q1604.8 1517.37 1601.16 1517.37 M1601.16 1513.66 Q1606.97 1513.66 1610.03 1518.27 Q1613.11 1522.85 1613.11 1531.6 Q1613.11 1540.33 1610.03 1544.94 Q1606.97 1549.52 1601.16 1549.52 Q1595.35 1549.52 1592.28 1544.94 Q1589.22 1540.33 1589.22 1531.6 Q1589.22 1522.85 1592.28 1518.27 Q1595.35 1513.66 1601.16 1513.66 Z" fill="#000000" fill-rule="nonzero" fill-opacity="1" /><path clip-path="url(#clip120)" d="M1631.33 1517.37 Q1627.72 1517.37 1625.89 1520.93 Q1624.08 1524.47 1624.08 1531.6 Q1624.08 1538.71 1625.89 1542.27 Q1627.72 1545.82 1631.33 1545.82 Q1634.96 1545.82 1636.77 1542.27 Q1638.59 1538.71 1638.59 1531.6 Q1638.59 1524.47 1636.77 1520.93 Q1634.96 1517.37 1631.33 1517.37 M1631.33 1513.66 Q1637.14 1513.66 1640.19 1518.27 Q1643.27 1522.85 1643.27 1531.6 Q1643.27 1540.33 1640.19 1544.94 Q1637.14 1549.52 1631.33 1549.52 Q1625.52 1549.52 1622.44 1544.94 Q1619.38 1540.33 1619.38 1531.6 Q1619.38 1522.85 1622.44 1518.27 Q1625.52 1513.66 1631.33 1513.66 Z" fill="#000000" fill-rule="nonzero" fill-opacity="1" /><path clip-path="url(#clip120)" d="M1785.64 1518.36 L1773.84 1536.81 L1785.64 1536.81 L1785.64 1518.36 M1784.42 1514.29 L1790.3 1514.29 L1790.3 1536.81 L1795.23 1536.81 L1795.23 1540.7 L1790.3 1540.7 L1790.3 1548.85 L1785.64 1548.85 L1785.64 1540.7 L1770.04 1540.7 L1770.04 1536.19 L1784.42 1514.29 Z" fill="#000000" fill-rule="nonzero" fill-opacity="1" /><path clip-path="url(#clip120)" d="M1812.96 1517.37 Q1809.35 1517.37 1807.52 1520.93 Q1805.71 1524.47 1805.71 1531.6 Q1805.71 1538.71 1807.52 1542.27 Q1809.35 1545.82 1812.96 1545.82 Q1816.59 1545.82 1818.4 1542.27 Q1820.23 1538.71 1820.23 1531.6 Q1820.23 1524.47 1818.4 1520.93 Q1816.59 1517.37 1812.96 1517.37 M1812.96 1513.66 Q1818.77 1513.66 1821.82 1518.27 Q1824.9 1522.85 1824.9 1531.6 Q1824.9 1540.33 1821.82 1544.94 Q1818.77 1549.52 1812.96 1549.52 Q1807.15 1549.52 1804.07 1544.94 Q1801.01 1540.33 1801.01 1531.6 Q1801.01 1522.85 1804.07 1518.27 Q1807.15 1513.66 1812.96 1513.66 Z" fill="#000000" fill-rule="nonzero" fill-opacity="1" /><path clip-path="url(#clip120)" d="M1843.12 1517.37 Q1839.51 1517.37 1837.68 1520.93 Q1835.87 1524.47 1835.87 1531.6 Q1835.87 1538.71 1837.68 1542.27 Q1839.51 1545.82 1843.12 1545.82 Q1846.75 1545.82 1848.56 1542.27 Q1850.39 1538.71 1850.39 1531.6 Q1850.39 1524.47 1848.56 1520.93 Q1846.75 1517.37 1843.12 1517.37 M1843.12 1513.66 Q1848.93 1513.66 1851.99 1518.27 Q1855.06 1522.85 1855.06 1531.6 Q1855.06 1540.33 1851.99 1544.94 Q1848.93 1549.52 1843.12 1549.52 Q1837.31 1549.52 1834.23 1544.94 Q1831.18 1540.33 1831.18 1531.6 Q1831.18 1522.85 1834.23 1518.27 Q1837.31 1513.66 1843.12 1513.66 Z" fill="#000000" fill-rule="nonzero" fill-opacity="1" /><path clip-path="url(#clip120)" d="M1994.09 1529.7 Q1990.94 1529.7 1989.09 1531.86 Q1987.26 1534.01 1987.26 1537.76 Q1987.26 1541.49 1989.09 1543.66 Q1990.94 1545.82 1994.09 1545.82 Q1997.24 1545.82 1999.07 1543.66 Q2000.92 1541.49 2000.92 1537.76 Q2000.92 1534.01 1999.07 1531.86 Q1997.24 1529.7 1994.09 1529.7 M2003.37 1515.05 L2003.37 1519.31 Q2001.62 1518.48 1999.81 1518.04 Q1998.03 1517.6 1996.27 1517.6 Q1991.64 1517.6 1989.18 1520.72 Q1986.75 1523.85 1986.41 1530.17 Q1987.77 1528.15 1989.83 1527.09 Q1991.89 1526 1994.37 1526 Q1999.58 1526 2002.59 1529.17 Q2005.62 1532.32 2005.62 1537.76 Q2005.62 1543.08 2002.47 1546.3 Q1999.32 1549.52 1994.09 1549.52 Q1988.1 1549.52 1984.93 1544.94 Q1981.75 1540.33 1981.75 1531.6 Q1981.75 1523.41 1985.64 1518.55 Q1989.53 1513.66 1996.08 1513.66 Q1997.84 1513.66 1999.62 1514.01 Q2001.43 1514.36 2003.37 1515.05 Z" fill="#000000" fill-rule="nonzero" fill-opacity="1" /><path clip-path="url(#clip120)" d="M2023.68 1517.37 Q2020.06 1517.37 2018.24 1520.93 Q2016.43 1524.47 2016.43 1531.6 Q2016.43 1538.71 2018.24 1542.27 Q2020.06 1545.82 2023.68 1545.82 Q2027.31 1545.82 2029.11 1542.27 Q2030.94 1538.71 2030.94 1531.6 Q2030.94 1524.47 2029.11 1520.93 Q2027.31 1517.37 2023.68 1517.37 M2023.68 1513.66 Q2029.49 1513.66 2032.54 1518.27 Q2035.62 1522.85 2035.62 1531.6 Q2035.62 1540.33 2032.54 1544.94 Q2029.49 1549.52 2023.68 1549.52 Q2017.86 1549.52 2014.79 1544.94 Q2011.73 1540.33 2011.73 1531.6 Q2011.73 1522.85 2014.79 1518.27 Q2017.86 1513.66 2023.68 1513.66 Z" fill="#000000" fill-rule="nonzero" fill-opacity="1" /><path clip-path="url(#clip120)" d="M2053.84 1517.37 Q2050.23 1517.37 2048.4 1520.93 Q2046.59 1524.47 2046.59 1531.6 Q2046.59 1538.71 2048.4 1542.27 Q2050.23 1545.82 2053.84 1545.82 Q2057.47 1545.82 2059.28 1542.27 Q2061.11 1538.71 2061.11 1531.6 Q2061.11 1524.47 2059.28 1520.93 Q2057.47 1517.37 2053.84 1517.37 M2053.84 1513.66 Q2059.65 1513.66 2062.7 1518.27 Q2065.78 1522.85 2065.78 1531.6 Q2065.78 1540.33 2062.7 1544.94 Q2059.65 1549.52 2053.84 1549.52 Q2048.03 1549.52 2044.95 1544.94 Q2041.89 1540.33 2041.89 1531.6 Q2041.89 1522.85 2044.95 1518.27 Q2048.03 1513.66 2053.84 1513.66 Z" fill="#000000" fill-rule="nonzero" fill-opacity="1" /><path clip-path="url(#clip120)" d="M2204.77 1532.44 Q2201.44 1532.44 2199.52 1534.22 Q2197.62 1536 2197.62 1539.13 Q2197.62 1542.25 2199.52 1544.03 Q2201.44 1545.82 2204.77 1545.82 Q2208.11 1545.82 2210.03 1544.03 Q2211.95 1542.23 2211.95 1539.13 Q2211.95 1536 2210.03 1534.22 Q2208.13 1532.44 2204.77 1532.44 M2200.1 1530.45 Q2197.09 1529.7 2195.4 1527.64 Q2193.73 1525.58 2193.73 1522.62 Q2193.73 1518.48 2196.67 1516.07 Q2199.64 1513.66 2204.77 1513.66 Q2209.94 1513.66 2212.88 1516.07 Q2215.82 1518.48 2215.82 1522.62 Q2215.82 1525.58 2214.13 1527.64 Q2212.46 1529.7 2209.47 1530.45 Q2212.85 1531.23 2214.73 1533.52 Q2216.63 1535.82 2216.63 1539.13 Q2216.63 1544.15 2213.55 1546.83 Q2210.49 1549.52 2204.77 1549.52 Q2199.06 1549.52 2195.98 1546.83 Q2192.92 1544.15 2192.92 1539.13 Q2192.92 1535.82 2194.82 1533.52 Q2196.72 1531.23 2200.1 1530.45 M2198.39 1523.06 Q2198.39 1525.75 2200.05 1527.25 Q2201.74 1528.76 2204.77 1528.76 Q2207.78 1528.76 2209.47 1527.25 Q2211.19 1525.75 2211.19 1523.06 Q2211.19 1520.38 2209.47 1518.87 Q2207.78 1517.37 2204.77 1517.37 Q2201.74 1517.37 2200.05 1518.87 Q2198.39 1520.38 2198.39 1523.06 Z" fill="#000000" fill-rule="nonzero" fill-opacity="1" /><path clip-path="url(#clip120)" d="M2234.94 1517.37 Q2231.33 1517.37 2229.5 1520.93 Q2227.69 1524.47 2227.69 1531.6 Q2227.69 1538.71 2229.5 1542.27 Q2231.33 1545.82 2234.94 1545.82 Q2238.57 1545.82 2240.38 1542.27 Q2242.2 1538.71 2242.2 1531.6 Q2242.2 1524.47 2240.38 1520.93 Q2238.57 1517.37 2234.94 1517.37 M2234.94 1513.66 Q2240.75 1513.66 2243.8 1518.27 Q2246.88 1522.85 2246.88 1531.6 Q2246.88 1540.33 2243.8 1544.94 Q2240.75 1549.52 2234.94 1549.52 Q2229.13 1549.52 2226.05 1544.94 Q2222.99 1540.33 2222.99 1531.6 Q2222.99 1522.85 2226.05 1518.27 Q2229.13 1513.66 2234.94 1513.66 Z" fill="#000000" fill-rule="nonzero" fill-opacity="1" /><path clip-path="url(#clip120)" d="M2265.1 1517.37 Q2261.49 1517.37 2259.66 1520.93 Q2257.85 1524.47 2257.85 1531.6 Q2257.85 1538.71 2259.66 1542.27 Q2261.49 1545.82 2265.1 1545.82 Q2268.73 1545.82 2270.54 1542.27 Q2272.37 1538.71 2272.37 1531.6 Q2272.37 1524.47 2270.54 1520.93 Q2268.73 1517.37 2265.1 1517.37 M2265.1 1513.66 Q2270.91 1513.66 2273.96 1518.27 Q2277.04 1522.85 2277.04 1531.6 Q2277.04 1540.33 2273.96 1544.94 Q2270.91 1549.52 2265.1 1549.52 Q2259.29 1549.52 2256.21 1544.94 Q2253.15 1540.33 2253.15 1531.6 Q2253.15 1522.85 2256.21 1518.27 Q2259.29 1513.66 2265.1 1513.66 Z" fill="#000000" fill-rule="nonzero" fill-opacity="1" /><polyline clip-path="url(#clip120)" style="stroke:#000000; stroke-linecap:round; stroke-linejoin:round; stroke-width:4; stroke-opacity:1; fill:none" points="1363.17,1486.45 1363.17,47.2441 "/>
<polyline clip-path="url(#clip120)" style="stroke:#000000; stroke-linecap:round; stroke-linejoin:round; stroke-width:4; stroke-opacity:1; fill:none" points="1363.17,1292.82 1382.07,1292.82 "/>
<polyline clip-path="url(#clip120)" style="stroke:#000000; stroke-linecap:round; stroke-linejoin:round; stroke-width:4; stroke-opacity:1; fill:none" points="1363.17,1006.76 1382.07,1006.76 "/>
<polyline clip-path="url(#clip120)" style="stroke:#000000; stroke-linecap:round; stroke-linejoin:round; stroke-width:4; stroke-opacity:1; fill:none" points="1363.17,720.691 1382.07,720.691 "/>
<polyline clip-path="url(#clip120)" style="stroke:#000000; stroke-linecap:round; stroke-linejoin:round; stroke-width:4; stroke-opacity:1; fill:none" points="1363.17,434.626 1382.07,434.626 "/>
<polyline clip-path="url(#clip120)" style="stroke:#000000; stroke-linecap:round; stroke-linejoin:round; stroke-width:4; stroke-opacity:1; fill:none" points="1363.17,148.56 1382.07,148.56 "/>
<path clip-path="url(#clip120)" d="M1235.3 1293.27 L1264.97 1293.27 L1264.97 1297.21 L1235.3 1297.21 L1235.3 1293.27 Z" fill="#000000" fill-rule="nonzero" fill-opacity="1" /><path clip-path="url(#clip120)" d="M1279.09 1306.17 L1295.41 1306.17 L1295.41 1310.1 L1273.47 1310.1 L1273.47 1306.17 Q1276.13 1303.41 1280.71 1298.78 Q1285.32 1294.13 1286.5 1292.79 Q1288.75 1290.26 1289.63 1288.53 Q1290.53 1286.77 1290.53 1285.08 Q1290.53 1282.32 1288.58 1280.59 Q1286.66 1278.85 1283.56 1278.85 Q1281.36 1278.85 1278.91 1279.62 Q1276.48 1280.38 1273.7 1281.93 L1273.7 1277.21 Q1276.52 1276.07 1278.98 1275.49 Q1281.43 1274.92 1283.47 1274.92 Q1288.84 1274.92 1292.03 1277.6 Q1295.23 1280.29 1295.23 1284.78 Q1295.23 1286.91 1294.42 1288.83 Q1293.63 1290.73 1291.52 1293.32 Q1290.95 1293.99 1287.84 1297.21 Q1284.74 1300.4 1279.09 1306.17 Z" fill="#000000" fill-rule="nonzero" fill-opacity="1" /><path clip-path="url(#clip120)" d="M1315.23 1278.62 Q1311.62 1278.62 1309.79 1282.18 Q1307.98 1285.73 1307.98 1292.86 Q1307.98 1299.96 1309.79 1303.53 Q1311.62 1307.07 1315.23 1307.07 Q1318.86 1307.07 1320.67 1303.53 Q1322.5 1299.96 1322.5 1292.86 Q1322.5 1285.73 1320.67 1282.18 Q1318.86 1278.62 1315.23 1278.62 M1315.23 1274.92 Q1321.04 1274.92 1324.09 1279.52 Q1327.17 1284.11 1327.17 1292.86 Q1327.17 1301.58 1324.09 1306.19 Q1321.04 1310.77 1315.23 1310.77 Q1309.42 1310.77 1306.34 1306.19 Q1303.28 1301.58 1303.28 1292.86 Q1303.28 1284.11 1306.34 1279.52 Q1309.42 1274.92 1315.23 1274.92 Z" fill="#000000" fill-rule="nonzero" fill-opacity="1" /><path clip-path="url(#clip120)" d="M1315.23 992.555 Q1311.62 992.555 1309.79 996.119 Q1307.98 999.661 1307.98 1006.79 Q1307.98 1013.9 1309.79 1017.46 Q1311.62 1021 1315.23 1021 Q1318.86 1021 1320.67 1017.46 Q1322.5 1013.9 1322.5 1006.79 Q1322.5 999.661 1320.67 996.119 Q1318.86 992.555 1315.23 992.555 M1315.23 988.851 Q1321.04 988.851 1324.09 993.457 Q1327.17 998.041 1327.17 1006.79 Q1327.17 1015.52 1324.09 1020.12 Q1321.04 1024.71 1315.23 1024.71 Q1309.42 1024.71 1306.34 1020.12 Q1303.28 1015.52 1303.28 1006.79 Q1303.28 998.041 1306.34 993.457 Q1309.42 988.851 1315.23 988.851 Z" fill="#000000" fill-rule="nonzero" fill-opacity="1" /><path clip-path="url(#clip120)" d="M1279.09 734.036 L1295.41 734.036 L1295.41 737.971 L1273.47 737.971 L1273.47 734.036 Q1276.13 731.281 1280.71 726.651 Q1285.32 721.999 1286.5 720.656 Q1288.75 718.133 1289.63 716.397 Q1290.53 714.638 1290.53 712.948 Q1290.53 710.193 1288.58 708.457 Q1286.66 706.721 1283.56 706.721 Q1281.36 706.721 1278.91 707.485 Q1276.48 708.249 1273.7 709.8 L1273.7 705.077 Q1276.52 703.943 1278.98 703.365 Q1281.43 702.786 1283.47 702.786 Q1288.84 702.786 1292.03 705.471 Q1295.23 708.156 1295.23 712.647 Q1295.23 714.777 1294.42 716.698 Q1293.63 718.596 1291.52 721.189 Q1290.95 721.86 1287.84 725.077 Q1284.74 728.272 1279.09 734.036 Z" fill="#000000" fill-rule="nonzero" fill-opacity="1" /><path clip-path="url(#clip120)" d="M1315.23 706.49 Q1311.62 706.49 1309.79 710.054 Q1307.98 713.596 1307.98 720.726 Q1307.98 727.832 1309.79 731.397 Q1311.62 734.938 1315.23 734.938 Q1318.86 734.938 1320.67 731.397 Q1322.5 727.832 1322.5 720.726 Q1322.5 713.596 1320.67 710.054 Q1318.86 706.49 1315.23 706.49 M1315.23 702.786 Q1321.04 702.786 1324.09 707.392 Q1327.17 711.976 1327.17 720.726 Q1327.17 729.452 1324.09 734.059 Q1321.04 738.642 1315.23 738.642 Q1309.42 738.642 1306.34 734.059 Q1303.28 729.452 1303.28 720.726 Q1303.28 711.976 1306.34 707.392 Q1309.42 702.786 1315.23 702.786 Z" fill="#000000" fill-rule="nonzero" fill-opacity="1" /><path clip-path="url(#clip120)" d="M1287.91 421.42 L1276.11 439.869 L1287.91 439.869 L1287.91 421.42 M1286.69 417.346 L1292.57 417.346 L1292.57 439.869 L1297.5 439.869 L1297.5 443.758 L1292.57 443.758 L1292.57 451.906 L1287.91 451.906 L1287.91 443.758 L1272.31 443.758 L1272.31 439.244 L1286.69 417.346 Z" fill="#000000" fill-rule="nonzero" fill-opacity="1" /><path clip-path="url(#clip120)" d="M1315.23 420.424 Q1311.62 420.424 1309.79 423.989 Q1307.98 427.531 1307.98 434.66 Q1307.98 441.767 1309.79 445.332 Q1311.62 448.873 1315.23 448.873 Q1318.86 448.873 1320.67 445.332 Q1322.5 441.767 1322.5 434.66 Q1322.5 427.531 1320.67 423.989 Q1318.86 420.424 1315.23 420.424 M1315.23 416.721 Q1321.04 416.721 1324.09 421.327 Q1327.17 425.91 1327.17 434.66 Q1327.17 443.387 1324.09 447.994 Q1321.04 452.577 1315.23 452.577 Q1309.42 452.577 1306.34 447.994 Q1303.28 443.387 1303.28 434.66 Q1303.28 425.91 1306.34 421.327 Q1309.42 416.721 1315.23 416.721 Z" fill="#000000" fill-rule="nonzero" fill-opacity="1" /><path clip-path="url(#clip120)" d="M1285.64 146.697 Q1282.5 146.697 1280.64 148.85 Q1278.82 151.003 1278.82 154.753 Q1278.82 158.479 1280.64 160.655 Q1282.5 162.808 1285.64 162.808 Q1288.79 162.808 1290.62 160.655 Q1292.47 158.479 1292.47 154.753 Q1292.47 151.003 1290.62 148.85 Q1288.79 146.697 1285.64 146.697 M1294.93 132.044 L1294.93 136.304 Q1293.17 135.47 1291.36 135.03 Q1289.58 134.591 1287.82 134.591 Q1283.19 134.591 1280.74 137.716 Q1278.31 140.841 1277.96 147.16 Q1279.33 145.146 1281.39 144.081 Q1283.45 142.993 1285.92 142.993 Q1291.13 142.993 1294.14 146.165 Q1297.17 149.313 1297.17 154.753 Q1297.17 160.077 1294.02 163.294 Q1290.88 166.512 1285.64 166.512 Q1279.65 166.512 1276.48 161.928 Q1273.31 157.322 1273.31 148.595 Q1273.31 140.401 1277.2 135.54 Q1281.08 130.655 1287.64 130.655 Q1289.39 130.655 1291.18 131.003 Q1292.98 131.35 1294.93 132.044 Z" fill="#000000" fill-rule="nonzero" fill-opacity="1" /><path clip-path="url(#clip120)" d="M1315.23 134.359 Q1311.62 134.359 1309.79 137.924 Q1307.98 141.466 1307.98 148.595 Q1307.98 155.702 1309.79 159.266 Q1311.62 162.808 1315.23 162.808 Q1318.86 162.808 1320.67 159.266 Q1322.5 155.702 1322.5 148.595 Q1322.5 141.466 1320.67 137.924 Q1318.86 134.359 1315.23 134.359 M1315.23 130.655 Q1321.04 130.655 1324.09 135.262 Q1327.17 139.845 1327.17 148.595 Q1327.17 157.322 1324.09 161.928 Q1321.04 166.512 1315.23 166.512 Q1309.42 166.512 1306.34 161.928 Q1303.28 157.322 1303.28 148.595 Q1303.28 139.845 1306.34 135.262 Q1309.42 130.655 1315.23 130.655 Z" fill="#000000" fill-rule="nonzero" fill-opacity="1" /><polyline clip-path="url(#clip121)" style="stroke:#009af9; stroke-linecap:round; stroke-linejoin:round; stroke-width:4; stroke-opacity:1; fill:none" points="1391.18,87.9763 1392.24,180.795 1393.29,288.185 1394.35,397.568 1395.4,501.103 1396.46,594.217 1397.52,674.545 1398.57,741.23 1399.63,794.462 1400.68,835.157 1401.74,864.725 1402.8,884.873 1403.85,897.448 1404.91,904.299 1405.96,907.163 1407.02,907.583 1408.08,906.845 1409.13,905.955 1410.19,905.635 1411.24,906.341 1412.3,908.301 1413.36,911.559 1414.41,916.029 1415.47,921.539 1416.53,927.875 1417.58,934.815 1418.64,942.152 1419.69,949.708 1420.75,957.338 1421.81,964.926 1422.86,972.381 1423.92,979.626 1424.97,986.602 1426.03,993.259 1427.09,999.567 1428.14,1005.51 1429.2,1011.1 1430.25,1016.34 1431.31,1021.28 1432.37,1025.94 1433.42,1030.38 1434.48,1034.65 1435.53,1038.77 1436.59,1042.8 1437.65,1046.77 1438.7,1050.71 1439.76,1054.64 1440.81,1058.59 1441.87,1062.56 1442.93,1066.57 1443.98,1070.62 1445.04,1074.73 1446.1,1078.89 1447.15,1083.09 1448.21,1087.35 1449.26,1091.65 1450.32,1095.98 1451.38,1100.34 1452.43,1104.71 1453.49,1109.08 1454.54,1113.45 1455.6,1117.79 1456.66,1122.1 1457.71,1126.37 1458.77,1130.58 1459.82,1134.74 1460.88,1138.84 1461.94,1142.87 1462.99,1146.83 1464.05,1150.73 1465.1,1154.56 1466.16,1158.34 1467.22,1162.06 1468.27,1165.73 1469.33,1169.36 1470.38,1172.95 1471.44,1176.52 1472.5,1180.07 1473.55,1183.61 1474.61,1187.14 1475.67,1190.66 1476.72,1194.18 1477.78,1197.69 1478.83,1201.21 1479.89,1204.71 1480.95,1208.21 1482,1211.7 1483.06,1215.17 1484.11,1218.63 1485.17,1222.07 1486.23,1225.49 1487.28,1228.89 1488.34,1232.28 1489.39,1235.66 1490.45,1239.04 1491.51,1242.41 1492.56,1245.8 1493.62,1249.2 1494.67,1252.62 1495.73,1256.08 1496.79,1259.58 1497.84,1263.11 1498.9,1266.7 1499.95,1270.33 1501.01,1274.01 1502.07,1277.73 1503.12,1281.49 1504.18,1285.28 1505.24,1289.08 1506.29,1292.89 1507.35,1296.69 1508.4,1300.47 1509.46,1304.21 1510.52,1307.9 1511.57,1311.52 1512.63,1315.05 1513.68,1318.5 1514.74,1321.83 1515.8,1325.05 1516.85,1328.15 1517.91,1331.12 1518.96,1333.95 1520.02,1336.65 1521.08,1339.22 1522.13,1341.64 1523.19,1343.94 1524.24,1346.12 1525.3,1348.18 1526.36,1350.12 1527.41,1351.97 1528.47,1353.74 1529.53,1355.43 1530.58,1357.05 1531.64,1358.63 1532.69,1360.17 1533.75,1361.67 1534.81,1363.16 1535.86,1364.64 1536.92,1366.1 1537.97,1367.57 1539.03,1369.03 1540.09,1370.49 1541.14,1371.94 1542.2,1373.39 1543.25,1374.84 1544.31,1376.27 1545.37,1377.69 1546.42,1379.09 1547.48,1380.47 1548.53,1381.84 1549.59,1383.17 1550.65,1384.48 1551.7,1385.76 1552.76,1387.01 1553.81,1388.23 1554.87,1389.42 1555.93,1390.57 1556.98,1391.69 1558.04,1392.78 1559.1,1393.83 1560.15,1394.85 1561.21,1395.84 1562.26,1396.8 1563.32,1397.73 1564.38,1398.64 1565.43,1399.52 1566.49,1400.38 1567.54,1401.22 1568.6,1402.03 1569.66,1402.83 1570.71,1403.61 1571.77,1404.38 1572.82,1405.13 1573.88,1405.87 1574.94,1406.6 1575.99,1407.32 1577.05,1408.02 1578.1,1408.72 1579.16,1409.41 1580.22,1410.09 1581.27,1410.76 1582.33,1411.43 1583.38,1412.09 1584.44,1412.74 1585.5,1413.39 1586.55,1414.03 1587.61,1414.66 1588.67,1415.29 1589.72,1415.91 1590.78,1416.52 1591.83,1417.13 1592.89,1417.73 1593.95,1418.32 1595,1418.9 1596.06,1419.48 1597.11,1420.04 1598.17,1420.6 1599.23,1421.15 1600.28,1421.69 1601.34,1422.21 1602.39,1422.73 1603.45,1423.24 1604.51,1423.73 1605.56,1424.21 1606.62,1424.69 1607.67,1425.15 1608.73,1425.59 1609.79,1426.03 1610.84,1426.45 1611.9,1426.86 1612.95,1427.26 1614.01,1427.64 1615.07,1428.01 1616.12,1428.37 1617.18,1428.72 1618.24,1429.06 1619.29,1429.38 1620.35,1429.7 1621.4,1430 1622.46,1430.29 1623.52,1430.57 1624.57,1430.85 1625.63,1431.11 1626.68,1431.36 1627.74,1431.61 1628.8,1431.84 1629.85,1432.07 1630.91,1432.29 1631.96,1432.5 1633.02,1432.7 1634.08,1432.9 1635.13,1433.09 1636.19,1433.28 1637.24,1433.45 1638.3,1433.62 1639.36,1433.79 1640.41,1433.95 1641.47,1434.1 1642.52,1434.25 1643.58,1434.4 1644.64,1434.53 1645.69,1434.67 1646.75,1434.8 1647.81,1434.92 1648.86,1435.05 1649.92,1435.16 1650.97,1435.28 1652.03,1435.39 1653.09,1435.49 1654.14,1435.6 1655.2,1435.7 1656.25,1435.79 1657.31,1435.89 1658.37,1435.98 1659.42,1436.07 1660.48,1436.15 1661.53,1436.24 1662.59,1436.32 1663.65,1436.39 1664.7,1436.47 1665.76,1436.54 1666.81,1436.62 1667.87,1436.68 1668.93,1436.75 1669.98,1436.82 1671.04,1436.88 1672.1,1436.94 1673.15,1437 1674.21,1437.06 1675.26,1437.12 1676.32,1437.18 1677.38,1437.23 1678.43,1437.28 1679.49,1437.34 1680.54,1437.39 1681.6,1437.44 1682.66,1437.48 1683.71,1437.53 1684.77,1437.58 1685.82,1437.62 1686.88,1437.67 1687.94,1437.71 1688.99,1437.75 1690.05,1437.79 1691.1,1437.83 1692.16,1437.87 1693.22,1437.91 1694.27,1437.94 1695.33,1437.98 1696.38,1438.02 1697.44,1438.05 1698.5,1438.09 1699.55,1438.12 1700.61,1438.15 1701.67,1438.18 1702.72,1438.22 1703.78,1438.25 1704.83,1438.28 1705.89,1438.31 1706.95,1438.34 1708,1438.37 1709.06,1438.39 1710.11,1438.42 1711.17,1438.45 1712.23,1438.47 1713.28,1438.5 1714.34,1438.53 1715.39,1438.55 1716.45,1438.58 1717.51,1438.6 1718.56,1438.62 1719.62,1438.65 1720.67,1438.67 1721.73,1438.69 1722.79,1438.72 1723.84,1438.74 1724.9,1438.76 1725.95,1438.78 1727.01,1438.8 1728.07,1438.82 1729.12,1438.84 1730.18,1438.86 1731.24,1438.88 1732.29,1438.9 1733.35,1438.92 1734.4,1438.94 1735.46,1438.96 1736.52,1438.98 1737.57,1438.99 1738.63,1439.01 1739.68,1439.03 1740.74,1439.05 1741.8,1439.06 1742.85,1439.08 1743.91,1439.1 1744.96,1439.11 1746.02,1439.13 1747.08,1439.14 1748.13,1439.16 1749.19,1439.18 1750.24,1439.19 1751.3,1439.21 1752.36,1439.22 1753.41,1439.23 1754.47,1439.25 1755.52,1439.26 1756.58,1439.28 1757.64,1439.29 1758.69,1439.3 1759.75,1439.32 1760.81,1439.33 1761.86,1439.34 1762.92,1439.36 1763.97,1439.37 1765.03,1439.38 1766.09,1439.4 1767.14,1439.41 1768.2,1439.42 1769.25,1439.43 1770.31,1439.44 1771.37,1439.46 1772.42,1439.47 1773.48,1439.48 1774.53,1439.49 1775.59,1439.5 1776.65,1439.51 1777.7,1439.53 1778.76,1439.54 1779.81,1439.55 1780.87,1439.56 1781.93,1439.57 1782.98,1439.58 1784.04,1439.59 1785.09,1439.6 1786.15,1439.61 1787.21,1439.62 1788.26,1439.63 1789.32,1439.64 1790.38,1439.65 1791.43,1439.66 1792.49,1439.67 1793.54,1439.68 1794.6,1439.69 1795.66,1439.7 1796.71,1439.71 1797.77,1439.72 1798.82,1439.73 1799.88,1439.74 1800.94,1439.75 1801.99,1439.76 1803.05,1439.76 1804.1,1439.77 1805.16,1439.78 1806.22,1439.79 1807.27,1439.8 1808.33,1439.81 1809.38,1439.82 1810.44,1439.83 1811.5,1439.84 1812.55,1439.85 1813.61,1439.85 1814.67,1439.86 1815.72,1439.87 1816.78,1439.88 1817.83,1439.89 1818.89,1439.9 1819.95,1439.91 1821,1439.91 1822.06,1439.92 1823.11,1439.93 1824.17,1439.94 1825.23,1439.95 1826.28,1439.96 1827.34,1439.97 1828.39,1439.97 1829.45,1439.98 1830.51,1439.99 1831.56,1440 1832.62,1440.01 1833.67,1440.02 1834.73,1440.03 1835.79,1440.03 1836.84,1440.04 1837.9,1440.05 1838.95,1440.06 1840.01,1440.07 1841.07,1440.08 1842.12,1440.09 1843.18,1440.1 1844.24,1440.11 1845.29,1440.11 1846.35,1440.12 1847.4,1440.13 1848.46,1440.14 1849.52,1440.15 1850.57,1440.16 1851.63,1440.17 1852.68,1440.18 1853.74,1440.19 1854.8,1440.2 1855.85,1440.21 1856.91,1440.22 1857.96,1440.23 1859.02,1440.24 1860.08,1440.25 1861.13,1440.26 1862.19,1440.27 1863.24,1440.29 1864.3,1440.3 1865.36,1440.31 1866.41,1440.32 1867.47,1440.33 1868.52,1440.34 1869.58,1440.36 1870.64,1440.37 1871.69,1440.38 1872.75,1440.39 1873.81,1440.41 1874.86,1440.42 1875.92,1440.43 1876.97,1440.45 1878.03,1440.46 1879.09,1440.48 1880.14,1440.49 1881.2,1440.51 1882.25,1440.52 1883.31,1440.54 1884.37,1440.56 1885.42,1440.57 1886.48,1440.59 1887.53,1440.61 1888.59,1440.63 1889.65,1440.65 1890.7,1440.66 1891.76,1440.68 1892.81,1440.7 1893.87,1440.73 1894.93,1440.75 1895.98,1440.77 1897.04,1440.79 1898.09,1440.81 1899.15,1440.84 1900.21,1440.86 1901.26,1440.89 1902.32,1440.91 1903.38,1440.94 1904.43,1440.97 1905.49,1441 1906.54,1441.03 1907.6,1441.05 1908.66,1441.09 1909.71,1441.12 1910.77,1441.15 1911.82,1441.18 1912.88,1441.22 1913.94,1441.25 1914.99,1441.29 1916.05,1441.32 1917.1,1441.36 1918.16,1441.4 1919.22,1441.44 1920.27,1441.48 1921.33,1441.53 1922.38,1441.57 1923.44,1441.61 1924.5,1441.66 1925.55,1441.7 1926.61,1441.75 1927.66,1441.8 1928.72,1441.85 1929.78,1441.9 1930.83,1441.95 1931.89,1442.01 1932.95,1442.06 1934,1442.11 1935.06,1442.17 1936.11,1442.23 1937.17,1442.28 1938.23,1442.34 1939.28,1442.4 1940.34,1442.46 1941.39,1442.52 1942.45,1442.58 1943.51,1442.64 1944.56,1442.71 1945.62,1442.77 1946.67,1442.83 1947.73,1442.9 1948.79,1442.96 1949.84,1443.02 1950.9,1443.09 1951.95,1443.15 1953.01,1443.21 1954.07,1443.28 1955.12,1443.34 1956.18,1443.4 1957.24,1443.47 1958.29,1443.53 1959.35,1443.59 1960.4,1443.65 1961.46,1443.71 1962.52,1443.77 1963.57,1443.83 1964.63,1443.89 1965.68,1443.95 1966.74,1444 1967.8,1444.06 1968.85,1444.11 1969.91,1444.16 1970.96,1444.21 1972.02,1444.26 1973.08,1444.31 1974.13,1444.36 1975.19,1444.41 1976.24,1444.45 1977.3,1444.49 1978.36,1444.54 1979.41,1444.58 1980.47,1444.62 1981.52,1444.66 1982.58,1444.69 1983.64,1444.73 1984.69,1444.76 1985.75,1444.8 1986.81,1444.83 1987.86,1444.86 1988.92,1444.89 1989.97,1444.92 1991.03,1444.95 1992.09,1444.97 1993.14,1445 1994.2,1445.02 1995.25,1445.05 1996.31,1445.07 1997.37,1445.09 1998.42,1445.11 1999.48,1445.13 2000.53,1445.15 2001.59,1445.17 2002.65,1445.19 2003.7,1445.2 2004.76,1445.22 2005.81,1445.23 2006.87,1445.25 2007.93,1445.26 2008.98,1445.28 2010.04,1445.29 2011.09,1445.3 2012.15,1445.32 2013.21,1445.33 2014.26,1445.34 2015.32,1445.35 2016.38,1445.36 2017.43,1445.37 2018.49,1445.38 2019.54,1445.39 2020.6,1445.4 2021.66,1445.41 2022.71,1445.42 2023.77,1445.42 2024.82,1445.43 2025.88,1445.44 2026.94,1445.45 2027.99,1445.45 2029.05,1445.46 2030.1,1445.47 2031.16,1445.47 2032.22,1445.48 2033.27,1445.48 2034.33,1445.49 2035.38,1445.5 2036.44,1445.5 2037.5,1445.51 2038.55,1445.51 2039.61,1445.52 2040.66,1445.52 2041.72,1445.53 2042.78,1445.53 2043.83,1445.53 2044.89,1445.54 2045.95,1445.54 2047,1445.55 2048.06,1445.55 2049.11,1445.55 2050.17,1445.56 2051.23,1445.56 2052.28,1445.56 2053.34,1445.57 2054.39,1445.57 2055.45,1445.57 2056.51,1445.58 2057.56,1445.58 2058.62,1445.58 2059.67,1445.59 2060.73,1445.59 2061.79,1445.59 2062.84,1445.59 2063.9,1445.6 2064.95,1445.6 2066.01,1445.6 2067.07,1445.6 2068.12,1445.61 2069.18,1445.61 2070.23,1445.61 2071.29,1445.61 2072.35,1445.62 2073.4,1445.62 2074.46,1445.62 2075.52,1445.62 2076.57,1445.62 2077.63,1445.63 2078.68,1445.63 2079.74,1445.63 2080.8,1445.63 2081.85,1445.63 2082.91,1445.63 2083.96,1445.64 2085.02,1445.64 2086.08,1445.64 2087.13,1445.64 2088.19,1445.64 2089.24,1445.64 2090.3,1445.64 2091.36,1445.65 2092.41,1445.65 2093.47,1445.65 2094.52,1445.65 2095.58,1445.65 2096.64,1445.65 2097.69,1445.65 2098.75,1445.66 2099.81,1445.66 2100.86,1445.66 2101.92,1445.66 2102.97,1445.66 2104.03,1445.66 2105.09,1445.66 2106.14,1445.66 2107.2,1445.66 2108.25,1445.66 2109.31,1445.67 2110.37,1445.67 2111.42,1445.67 2112.48,1445.67 2113.53,1445.67 2114.59,1445.67 2115.65,1445.67 2116.7,1445.67 2117.76,1445.67 2118.81,1445.67 2119.87,1445.67 2120.93,1445.68 2121.98,1445.68 2123.04,1445.68 2124.09,1445.68 2125.15,1445.68 2126.21,1445.68 2127.26,1445.68 2128.32,1445.68 2129.38,1445.68 2130.43,1445.68 2131.49,1445.68 2132.54,1445.68 2133.6,1445.68 2134.66,1445.68 2135.71,1445.68 2136.77,1445.69 2137.82,1445.69 2138.88,1445.69 2139.94,1445.69 2140.99,1445.69 2142.05,1445.69 2143.1,1445.69 2144.16,1445.69 2145.22,1445.69 2146.27,1445.69 2147.33,1445.69 2148.38,1445.69 2149.44,1445.69 2150.5,1445.69 2151.55,1445.69 2152.61,1445.69 2153.66,1445.69 2154.72,1445.69 2155.78,1445.69 2156.83,1445.69 2157.89,1445.69 2158.95,1445.69 2160,1445.7 2161.06,1445.7 2162.11,1445.7 2163.17,1445.7 2164.23,1445.7 2165.28,1445.7 2166.34,1445.7 2167.39,1445.7 2168.45,1445.7 2169.51,1445.7 2170.56,1445.7 2171.62,1445.7 2172.67,1445.7 2173.73,1445.7 2174.79,1445.7 2175.84,1445.7 2176.9,1445.7 2177.95,1445.7 2179.01,1445.7 2180.07,1445.7 2181.12,1445.7 2182.18,1445.7 2183.23,1445.7 2184.29,1445.7 2185.35,1445.7 2186.4,1445.7 2187.46,1445.7 2188.52,1445.7 2189.57,1445.7 2190.63,1445.7 2191.68,1445.7 2192.74,1445.7 2193.8,1445.7 2194.85,1445.7 2195.91,1445.7 2196.96,1445.7 2198.02,1445.7 2199.08,1445.7 2200.13,1445.7 2201.19,1445.71 2202.24,1445.71 2203.3,1445.71 2204.36,1445.71 2205.41,1445.71 2206.47,1445.71 2207.52,1445.71 2208.58,1445.71 2209.64,1445.71 2210.69,1445.71 2211.75,1445.71 2212.8,1445.71 2213.86,1445.71 2214.92,1445.71 2215.97,1445.71 2217.03,1445.71 2218.09,1445.71 2219.14,1445.71 2220.2,1445.71 2221.25,1445.71 2222.31,1445.71 2223.37,1445.71 2224.42,1445.71 2225.48,1445.71 2226.53,1445.71 2227.59,1445.71 2228.65,1445.71 2229.7,1445.71 2230.76,1445.71 2231.81,1445.71 2232.87,1445.71 2233.93,1445.71 2234.98,1445.71 2236.04,1445.71 2237.09,1445.71 2238.15,1445.71 2239.21,1445.71 2240.26,1445.71 2241.32,1445.71 2242.38,1445.71 2243.43,1445.71 2244.49,1445.71 2245.54,1445.71 2246.6,1445.71 2247.66,1445.71 2248.71,1445.71 2249.77,1445.71 2250.82,1445.71 2251.88,1445.71 2252.94,1445.71 2253.99,1445.71 2255.05,1445.71 2256.1,1445.71 2257.16,1445.71 2258.22,1445.71 2259.27,1445.71 2260.33,1445.71 2261.38,1445.71 2262.44,1445.71 2263.5,1445.71 2264.55,1445.71 2265.61,1445.71 2266.66,1445.71 2267.72,1445.71 2268.78,1445.71 2269.83,1445.71 2270.89,1445.71 2271.95,1445.71 2273,1445.71 2274.06,1445.71 2275.11,1445.71 2276.17,1445.71 2277.23,1445.71 2278.28,1445.71 2279.34,1445.71 2280.39,1445.71 2281.45,1445.71 2282.51,1445.71 2283.56,1445.71 2284.62,1445.71 2285.67,1445.71 2286.73,1445.71 2287.79,1445.71 2288.84,1445.71 2289.9,1445.71 2290.95,1445.71 2292.01,1445.71 2293.07,1445.71 2294.12,1445.71 2295.18,1445.71 2296.23,1445.71 2297.29,1445.71 2298.35,1445.71 2299.4,1445.71 2300.46,1445.71 2301.52,1445.71 2302.57,1445.71 2303.63,1445.71 2304.68,1445.71 2305.74,1445.71 2306.8,1445.71 2307.85,1445.71 2308.91,1445.71 2309.96,1445.72 2311.02,1445.72 2312.08,1445.72 2313.13,1445.72 2314.19,1445.72 2315.24,1445.72 2316.3,1445.72 2317.36,1445.72 2318.41,1445.72 2319.47,1445.72 2320.52,1445.72 2321.58,1445.72 2322.64,1445.72 2323.69,1445.72 2324.75,1445.72 "/>
<path clip-path="url(#clip120)" d="M2085.4 198.898 L2319.77 198.898 L2319.77 95.2176 L2085.4 95.2176  Z" fill="#ffffff" fill-rule="evenodd" fill-opacity="1"/>
<polyline clip-path="url(#clip120)" style="stroke:#000000; stroke-linecap:round; stroke-linejoin:round; stroke-width:4; stroke-opacity:1; fill:none" points="2085.4,198.898 2319.77,198.898 2319.77,95.2176 2085.4,95.2176 2085.4,198.898 "/>
<polyline clip-path="url(#clip120)" style="stroke:#009af9; stroke-linecap:round; stroke-linejoin:round; stroke-width:4; stroke-opacity:1; fill:none" points="2096.39,147.058 2162.36,147.058 "/>
<path clip-path="url(#clip120)" d="M2191.78 139.176 L2191.78 143.203 Q2189.98 142.277 2188.03 141.815 Q2186.09 141.352 2184.01 141.352 Q2180.84 141.352 2179.24 142.324 Q2177.66 143.296 2177.66 145.24 Q2177.66 146.722 2178.8 147.578 Q2179.93 148.412 2183.36 149.176 L2184.82 149.5 Q2189.35 150.472 2191.25 152.254 Q2193.17 154.014 2193.17 157.185 Q2193.17 160.796 2190.3 162.902 Q2187.46 165.009 2182.46 165.009 Q2180.37 165.009 2178.1 164.592 Q2175.86 164.199 2173.36 163.388 L2173.36 158.99 Q2175.72 160.217 2178.01 160.842 Q2180.3 161.444 2182.55 161.444 Q2185.56 161.444 2187.18 160.426 Q2188.8 159.384 2188.8 157.509 Q2188.8 155.773 2187.62 154.847 Q2186.46 153.921 2182.5 153.064 L2181.02 152.717 Q2177.06 151.884 2175.3 150.171 Q2173.54 148.435 2173.54 145.426 Q2173.54 141.768 2176.14 139.778 Q2178.73 137.787 2183.5 137.787 Q2185.86 137.787 2187.94 138.134 Q2190.03 138.481 2191.78 139.176 Z" fill="#000000" fill-rule="nonzero" fill-opacity="1" /><path clip-path="url(#clip120)" d="M2204.17 131.051 L2204.17 138.412 L2212.94 138.412 L2212.94 141.722 L2204.17 141.722 L2204.17 155.796 Q2204.17 158.967 2205.02 159.87 Q2205.9 160.773 2208.57 160.773 L2212.94 160.773 L2212.94 164.338 L2208.57 164.338 Q2203.64 164.338 2201.76 162.509 Q2199.89 160.657 2199.89 155.796 L2199.89 141.722 L2196.76 141.722 L2196.76 138.412 L2199.89 138.412 L2199.89 131.051 L2204.17 131.051 Z" fill="#000000" fill-rule="nonzero" fill-opacity="1" /><path clip-path="url(#clip120)" d="M2233.57 142.393 Q2232.85 141.977 2231.99 141.791 Q2231.16 141.583 2230.14 141.583 Q2226.53 141.583 2224.59 143.944 Q2222.66 146.282 2222.66 150.68 L2222.66 164.338 L2218.38 164.338 L2218.38 138.412 L2222.66 138.412 L2222.66 142.44 Q2224.01 140.078 2226.16 138.944 Q2228.31 137.787 2231.39 137.787 Q2231.83 137.787 2232.36 137.856 Q2232.9 137.903 2233.54 138.018 L2233.57 142.393 Z" fill="#000000" fill-rule="nonzero" fill-opacity="1" /><path clip-path="url(#clip120)" d="M2259.17 150.31 L2259.17 152.393 L2239.58 152.393 Q2239.86 156.791 2242.22 159.106 Q2244.61 161.398 2248.84 161.398 Q2251.3 161.398 2253.59 160.796 Q2255.9 160.194 2258.17 158.99 L2258.17 163.018 Q2255.88 163.99 2253.47 164.5 Q2251.07 165.009 2248.59 165.009 Q2242.39 165.009 2238.75 161.398 Q2235.14 157.787 2235.14 151.629 Q2235.14 145.264 2238.57 141.537 Q2242.02 137.787 2247.85 137.787 Q2253.08 137.787 2256.11 141.166 Q2259.17 144.523 2259.17 150.31 M2254.91 149.06 Q2254.86 145.565 2252.94 143.481 Q2251.04 141.398 2247.9 141.398 Q2244.33 141.398 2242.18 143.412 Q2240.05 145.426 2239.72 149.083 L2254.91 149.06 Z" fill="#000000" fill-rule="nonzero" fill-opacity="1" /><path clip-path="url(#clip120)" d="M2282.69 139.176 L2282.69 143.203 Q2280.88 142.277 2278.94 141.815 Q2276.99 141.352 2274.91 141.352 Q2271.74 141.352 2270.14 142.324 Q2268.57 143.296 2268.57 145.24 Q2268.57 146.722 2269.7 147.578 Q2270.83 148.412 2274.26 149.176 L2275.72 149.5 Q2280.26 150.472 2282.15 152.254 Q2284.08 154.014 2284.08 157.185 Q2284.08 160.796 2281.21 162.902 Q2278.36 165.009 2273.36 165.009 Q2271.27 165.009 2269.01 164.592 Q2266.76 164.199 2264.26 163.388 L2264.26 158.99 Q2266.62 160.217 2268.91 160.842 Q2271.21 161.444 2273.45 161.444 Q2276.46 161.444 2278.08 160.426 Q2279.7 159.384 2279.7 157.509 Q2279.7 155.773 2278.52 154.847 Q2277.36 153.921 2273.4 153.064 L2271.92 152.717 Q2267.96 151.884 2266.21 150.171 Q2264.45 148.435 2264.45 145.426 Q2264.45 141.768 2267.04 139.778 Q2269.63 137.787 2274.4 137.787 Q2276.76 137.787 2278.84 138.134 Q2280.93 138.481 2282.69 139.176 Z" fill="#000000" fill-rule="nonzero" fill-opacity="1" /><path clip-path="url(#clip120)" d="M2307.39 139.176 L2307.39 143.203 Q2305.58 142.277 2303.64 141.815 Q2301.69 141.352 2299.61 141.352 Q2296.44 141.352 2294.84 142.324 Q2293.27 143.296 2293.27 145.24 Q2293.27 146.722 2294.4 147.578 Q2295.53 148.412 2298.96 149.176 L2300.42 149.5 Q2304.95 150.472 2306.85 152.254 Q2308.77 154.014 2308.77 157.185 Q2308.77 160.796 2305.9 162.902 Q2303.06 165.009 2298.06 165.009 Q2295.97 165.009 2293.71 164.592 Q2291.46 164.199 2288.96 163.388 L2288.96 158.99 Q2291.32 160.217 2293.61 160.842 Q2295.9 161.444 2298.15 161.444 Q2301.16 161.444 2302.78 160.426 Q2304.4 159.384 2304.4 157.509 Q2304.4 155.773 2303.22 154.847 Q2302.06 153.921 2298.1 153.064 L2296.62 152.717 Q2292.66 151.884 2290.9 150.171 Q2289.14 148.435 2289.14 145.426 Q2289.14 141.768 2291.74 139.778 Q2294.33 137.787 2299.1 137.787 Q2301.46 137.787 2303.54 138.134 Q2305.63 138.481 2307.39 139.176 Z" fill="#000000" fill-rule="nonzero" fill-opacity="1" /></svg>
