<?xml version="1.0" encoding="utf-8"?>
<svg xmlns="http://www.w3.org/2000/svg" xmlns:xlink="http://www.w3.org/1999/xlink" width="600" height="400" viewBox="0 0 2400 1600">
<defs>
  <clipPath id="clip960">
    <rect x="0" y="0" width="2400" height="1600"/>
  </clipPath>
</defs>
<path clip-path="url(#clip960)" d="M0 1600 L2400 1600 L2400 0 L0 0  Z" fill="#ffffff" fill-rule="evenodd" fill-opacity="1"/>
<defs>
  <clipPath id="clip961">
    <rect x="1363" y="47" width="991" height="1440"/>
  </clipPath>
</defs>
<path clip-path="url(#clip960)" d="M147.478 1486.45 L1137.06 1486.45 L1137.06 47.2441 L147.478 47.2441  Z" fill="#ffffff" fill-rule="evenodd" fill-opacity="1"/>
<defs>
  <clipPath id="clip962">
    <rect x="147" y="47" width="991" height="1440"/>
  </clipPath>
</defs>
<polyline clip-path="url(#clip962)" style="stroke:#000000; stroke-linecap:round; stroke-linejoin:round; stroke-width:2; stroke-opacity:0.1; fill:none" points="274.074,1486.45 274.074,47.2441 "/>
<polyline clip-path="url(#clip962)" style="stroke:#000000; stroke-linecap:round; stroke-linejoin:round; stroke-width:2; stroke-opacity:0.1; fill:none" points="522.07,1486.45 522.07,47.2441 "/>
<polyline clip-path="url(#clip962)" style="stroke:#000000; stroke-linecap:round; stroke-linejoin:round; stroke-width:2; stroke-opacity:0.1; fill:none" points="770.066,1486.45 770.066,47.2441 "/>
<polyline clip-path="url(#clip962)" style="stroke:#000000; stroke-linecap:round; stroke-linejoin:round; stroke-width:2; stroke-opacity:0.1; fill:none" points="1018.06,1486.45 1018.06,47.2441 "/>
<polyline clip-path="url(#clip962)" style="stroke:#000000; stroke-linecap:round; stroke-linejoin:round; stroke-width:2; stroke-opacity:0.1; fill:none" points="147.478,1326.85 1137.06,1326.85 "/>
<polyline clip-path="url(#clip962)" style="stroke:#000000; stroke-linecap:round; stroke-linejoin:round; stroke-width:2; stroke-opacity:0.1; fill:none" points="147.478,1078.85 1137.06,1078.85 "/>
<polyline clip-path="url(#clip962)" style="stroke:#000000; stroke-linecap:round; stroke-linejoin:round; stroke-width:2; stroke-opacity:0.1; fill:none" points="147.478,830.855 1137.06,830.855 "/>
<polyline clip-path="url(#clip962)" style="stroke:#000000; stroke-linecap:round; stroke-linejoin:round; stroke-width:2; stroke-opacity:0.1; fill:none" points="147.478,582.859 1137.06,582.859 "/>
<polyline clip-path="url(#clip962)" style="stroke:#000000; stroke-linecap:round; stroke-linejoin:round; stroke-width:2; stroke-opacity:0.1; fill:none" points="147.478,334.863 1137.06,334.863 "/>
<polyline clip-path="url(#clip962)" style="stroke:#000000; stroke-linecap:round; stroke-linejoin:round; stroke-width:2; stroke-opacity:0.1; fill:none" points="147.478,86.8663 1137.06,86.8663 "/>
<polyline clip-path="url(#clip960)" style="stroke:#000000; stroke-linecap:round; stroke-linejoin:round; stroke-width:4; stroke-opacity:1; fill:none" points="147.478,1486.45 1137.06,1486.45 "/>
<polyline clip-path="url(#clip960)" style="stroke:#000000; stroke-linecap:round; stroke-linejoin:round; stroke-width:4; stroke-opacity:1; fill:none" points="274.074,1486.45 274.074,1467.55 "/>
<polyline clip-path="url(#clip960)" style="stroke:#000000; stroke-linecap:round; stroke-linejoin:round; stroke-width:4; stroke-opacity:1; fill:none" points="522.07,1486.45 522.07,1467.55 "/>
<polyline clip-path="url(#clip960)" style="stroke:#000000; stroke-linecap:round; stroke-linejoin:round; stroke-width:4; stroke-opacity:1; fill:none" points="770.066,1486.45 770.066,1467.55 "/>
<polyline clip-path="url(#clip960)" style="stroke:#000000; stroke-linecap:round; stroke-linejoin:round; stroke-width:4; stroke-opacity:1; fill:none" points="1018.06,1486.45 1018.06,1467.55 "/>
<path clip-path="url(#clip960)" d="M243.831 1532.02 L273.507 1532.02 L273.507 1535.95 L243.831 1535.95 L243.831 1532.02 Z" fill="#000000" fill-rule="nonzero" fill-opacity="1" /><path clip-path="url(#clip960)" d="M284.409 1544.91 L292.048 1544.91 L292.048 1518.55 L283.738 1520.21 L283.738 1515.95 L292.002 1514.29 L296.678 1514.29 L296.678 1544.91 L304.317 1544.91 L304.317 1548.85 L284.409 1548.85 L284.409 1544.91 Z" fill="#000000" fill-rule="nonzero" fill-opacity="1" /><path clip-path="url(#clip960)" d="M522.07 1517.37 Q518.459 1517.37 516.63 1520.93 Q514.825 1524.47 514.825 1531.6 Q514.825 1538.71 516.63 1542.27 Q518.459 1545.82 522.07 1545.82 Q525.704 1545.82 527.51 1542.27 Q529.338 1538.71 529.338 1531.6 Q529.338 1524.47 527.51 1520.93 Q525.704 1517.37 522.07 1517.37 M522.07 1513.66 Q527.88 1513.66 530.936 1518.27 Q534.014 1522.85 534.014 1531.6 Q534.014 1540.33 530.936 1544.94 Q527.88 1549.52 522.07 1549.52 Q516.26 1549.52 513.181 1544.94 Q510.126 1540.33 510.126 1531.6 Q510.126 1522.85 513.181 1518.27 Q516.26 1513.66 522.07 1513.66 Z" fill="#000000" fill-rule="nonzero" fill-opacity="1" /><path clip-path="url(#clip960)" d="M760.448 1544.91 L768.087 1544.91 L768.087 1518.55 L759.777 1520.21 L759.777 1515.95 L768.041 1514.29 L772.717 1514.29 L772.717 1544.91 L780.356 1544.91 L780.356 1548.85 L760.448 1548.85 L760.448 1544.91 Z" fill="#000000" fill-rule="nonzero" fill-opacity="1" /><path clip-path="url(#clip960)" d="M1012.72 1544.91 L1029.03 1544.91 L1029.03 1548.85 L1007.09 1548.85 L1007.09 1544.91 Q1009.75 1542.16 1014.34 1537.53 Q1018.94 1532.88 1020.12 1531.53 Q1022.37 1529.01 1023.25 1527.27 Q1024.15 1525.51 1024.15 1523.82 Q1024.15 1521.07 1022.21 1519.33 Q1020.28 1517.6 1017.18 1517.6 Q1014.98 1517.6 1012.53 1518.36 Q1010.1 1519.13 1007.32 1520.68 L1007.32 1515.95 Q1010.15 1514.82 1012.6 1514.24 Q1015.05 1513.66 1017.09 1513.66 Q1022.46 1513.66 1025.66 1516.35 Q1028.85 1519.03 1028.85 1523.52 Q1028.85 1525.65 1028.04 1527.57 Q1027.25 1529.47 1025.15 1532.07 Q1024.57 1532.74 1021.47 1535.95 Q1018.36 1539.15 1012.72 1544.91 Z" fill="#000000" fill-rule="nonzero" fill-opacity="1" /><polyline clip-path="url(#clip960)" style="stroke:#000000; stroke-linecap:round; stroke-linejoin:round; stroke-width:4; stroke-opacity:1; fill:none" points="147.478,1486.45 147.478,47.2441 "/>
<polyline clip-path="url(#clip960)" style="stroke:#000000; stroke-linecap:round; stroke-linejoin:round; stroke-width:4; stroke-opacity:1; fill:none" points="147.478,1326.85 166.376,1326.85 "/>
<polyline clip-path="url(#clip960)" style="stroke:#000000; stroke-linecap:round; stroke-linejoin:round; stroke-width:4; stroke-opacity:1; fill:none" points="147.478,1078.85 166.376,1078.85 "/>
<polyline clip-path="url(#clip960)" style="stroke:#000000; stroke-linecap:round; stroke-linejoin:round; stroke-width:4; stroke-opacity:1; fill:none" points="147.478,830.855 166.376,830.855 "/>
<polyline clip-path="url(#clip960)" style="stroke:#000000; stroke-linecap:round; stroke-linejoin:round; stroke-width:4; stroke-opacity:1; fill:none" points="147.478,582.859 166.376,582.859 "/>
<polyline clip-path="url(#clip960)" style="stroke:#000000; stroke-linecap:round; stroke-linejoin:round; stroke-width:4; stroke-opacity:1; fill:none" points="147.478,334.863 166.376,334.863 "/>
<polyline clip-path="url(#clip960)" style="stroke:#000000; stroke-linecap:round; stroke-linejoin:round; stroke-width:4; stroke-opacity:1; fill:none" points="147.478,86.8663 166.376,86.8663 "/>
<path clip-path="url(#clip960)" d="M51.3625 1327.3 L81.0383 1327.3 L81.0383 1331.23 L51.3625 1331.23 L51.3625 1327.3 Z" fill="#000000" fill-rule="nonzero" fill-opacity="1" /><path clip-path="url(#clip960)" d="M95.1586 1340.19 L111.478 1340.19 L111.478 1344.13 L89.5336 1344.13 L89.5336 1340.19 Q92.1956 1337.44 96.7789 1332.81 Q101.385 1328.16 102.566 1326.81 Q104.811 1324.29 105.691 1322.55 Q106.594 1320.79 106.594 1319.11 Q106.594 1316.35 104.649 1314.61 Q102.728 1312.88 99.6261 1312.88 Q97.4271 1312.88 94.9734 1313.64 Q92.5428 1314.41 89.7651 1315.96 L89.7651 1311.23 Q92.5891 1310.1 95.0428 1309.52 Q97.4965 1308.94 99.5335 1308.94 Q104.904 1308.94 108.098 1311.63 Q111.293 1314.31 111.293 1318.8 Q111.293 1320.93 110.483 1322.86 Q109.696 1324.75 107.589 1327.35 Q107.01 1328.02 103.909 1331.23 Q100.807 1334.43 95.1586 1340.19 Z" fill="#000000" fill-rule="nonzero" fill-opacity="1" /><path clip-path="url(#clip960)" d="M50.9921 1079.3 L80.6679 1079.3 L80.6679 1083.24 L50.9921 1083.24 L50.9921 1079.3 Z" fill="#000000" fill-rule="nonzero" fill-opacity="1" /><path clip-path="url(#clip960)" d="M91.5706 1092.2 L99.2095 1092.2 L99.2095 1065.83 L90.8993 1067.5 L90.8993 1063.24 L99.1632 1061.57 L103.839 1061.57 L103.839 1092.2 L111.478 1092.2 L111.478 1096.13 L91.5706 1096.13 L91.5706 1092.2 Z" fill="#000000" fill-rule="nonzero" fill-opacity="1" /><path clip-path="url(#clip960)" d="M99.5335 816.654 Q95.9224 816.654 94.0937 820.219 Q92.2882 823.76 92.2882 830.89 Q92.2882 837.997 94.0937 841.561 Q95.9224 845.103 99.5335 845.103 Q103.168 845.103 104.973 841.561 Q106.802 837.997 106.802 830.89 Q106.802 823.76 104.973 820.219 Q103.168 816.654 99.5335 816.654 M99.5335 812.95 Q105.344 812.95 108.399 817.557 Q111.478 822.14 111.478 830.89 Q111.478 839.617 108.399 844.223 Q105.344 848.807 99.5335 848.807 Q93.7234 848.807 90.6447 844.223 Q87.5892 839.617 87.5892 830.89 Q87.5892 822.14 90.6447 817.557 Q93.7234 812.95 99.5335 812.95 Z" fill="#000000" fill-rule="nonzero" fill-opacity="1" /><path clip-path="url(#clip960)" d="M91.5706 596.204 L99.2095 596.204 L99.2095 569.838 L90.8993 571.505 L90.8993 567.246 L99.1632 565.579 L103.839 565.579 L103.839 596.204 L111.478 596.204 L111.478 600.139 L91.5706 600.139 L91.5706 596.204 Z" fill="#000000" fill-rule="nonzero" fill-opacity="1" /><path clip-path="url(#clip960)" d="M95.1586 348.207 L111.478 348.207 L111.478 352.143 L89.5336 352.143 L89.5336 348.207 Q92.1956 345.453 96.7789 340.823 Q101.385 336.17 102.566 334.828 Q104.811 332.305 105.691 330.569 Q106.594 328.809 106.594 327.12 Q106.594 324.365 104.649 322.629 Q102.728 320.893 99.6261 320.893 Q97.4271 320.893 94.9734 321.657 Q92.5428 322.421 89.7651 323.971 L89.7651 319.249 Q92.5891 318.115 95.0428 317.536 Q97.4965 316.958 99.5335 316.958 Q104.904 316.958 108.098 319.643 Q111.293 322.328 111.293 326.819 Q111.293 328.948 110.483 330.87 Q109.696 332.768 107.589 335.36 Q107.01 336.032 103.909 339.249 Q100.807 342.444 95.1586 348.207 Z" fill="#000000" fill-rule="nonzero" fill-opacity="1" /><path clip-path="url(#clip960)" d="M104.348 85.5121 Q107.705 86.2297 109.58 88.4982 Q111.478 90.7667 111.478 94.1 Q111.478 99.2157 107.959 102.017 Q104.441 104.818 97.9595 104.818 Q95.7836 104.818 93.4688 104.378 Q91.1771 103.961 88.7234 103.105 L88.7234 98.5907 Q90.6678 99.725 92.9826 100.304 Q95.2974 100.882 97.8206 100.882 Q102.219 100.882 104.51 99.1463 Q106.825 97.4102 106.825 94.1 Q106.825 91.0445 104.672 89.3315 Q102.543 87.5954 98.7234 87.5954 L94.6956 87.5954 L94.6956 83.7529 L98.9085 83.7529 Q102.358 83.7529 104.186 82.3871 Q106.015 80.9982 106.015 78.4057 Q106.015 75.7436 104.117 74.3316 Q102.242 72.8964 98.7234 72.8964 Q96.8021 72.8964 94.603 73.3131 Q92.4039 73.7298 89.7651 74.6094 L89.7651 70.4427 Q92.4271 69.702 94.7419 69.3316 Q97.0798 68.9613 99.14 68.9613 Q104.464 68.9613 107.566 71.3918 Q110.668 73.7992 110.668 77.9196 Q110.668 80.7899 109.024 82.7806 Q107.381 84.7482 104.348 85.5121 Z" fill="#000000" fill-rule="nonzero" fill-opacity="1" /><polyline clip-path="url(#clip962)" style="stroke:#000000; stroke-linecap:round; stroke-linejoin:round; stroke-width:4; stroke-opacity:1; fill:none" points="229.601,743.094 431.059,616.01 "/>
<polyline clip-path="url(#clip962)" style="stroke:#000000; stroke-linecap:round; stroke-linejoin:round; stroke-width:4; stroke-opacity:1; fill:none" points="229.601,743.094 175.485,452.557 "/>
<polyline clip-path="url(#clip962)" style="stroke:#000000; stroke-linecap:round; stroke-linejoin:round; stroke-width:4; stroke-opacity:1; fill:none" points="229.601,743.094 345.191,1030.9 "/>
<polyline clip-path="url(#clip962)" style="stroke:#000000; stroke-linecap:round; stroke-linejoin:round; stroke-width:4; stroke-opacity:1; fill:none" points="229.601,743.094 768.304,873.519 "/>
<polyline clip-path="url(#clip962)" style="stroke:#000000; stroke-linecap:round; stroke-linejoin:round; stroke-width:4; stroke-opacity:1; fill:none" points="229.601,743.094 530.601,405.093 "/>
<polyline clip-path="url(#clip962)" style="stroke:#000000; stroke-linecap:round; stroke-linejoin:round; stroke-width:4; stroke-opacity:1; fill:none" points="229.601,743.094 525.44,765.361 "/>
<polyline clip-path="url(#clip962)" style="stroke:#000000; stroke-linecap:round; stroke-linejoin:round; stroke-width:4; stroke-opacity:1; fill:none" points="1060.27,397.705 748.249,616.889 "/>
<polyline clip-path="url(#clip962)" style="stroke:#000000; stroke-linecap:round; stroke-linejoin:round; stroke-width:4; stroke-opacity:1; fill:none" points="1060.27,397.705 689.105,228.3 "/>
<polyline clip-path="url(#clip962)" style="stroke:#000000; stroke-linecap:round; stroke-linejoin:round; stroke-width:4; stroke-opacity:1; fill:none" points="1060.27,397.705 940.928,652.591 "/>
<polyline clip-path="url(#clip962)" style="stroke:#000000; stroke-linecap:round; stroke-linejoin:round; stroke-width:4; stroke-opacity:1; fill:none" points="1060.27,397.705 768.304,873.519 "/>
<polyline clip-path="url(#clip962)" style="stroke:#000000; stroke-linecap:round; stroke-linejoin:round; stroke-width:4; stroke-opacity:1; fill:none" points="431.059,616.01 748.249,616.889 "/>
<polyline clip-path="url(#clip962)" style="stroke:#000000; stroke-linecap:round; stroke-linejoin:round; stroke-width:4; stroke-opacity:1; fill:none" points="431.059,616.01 689.105,228.3 "/>
<polyline clip-path="url(#clip962)" style="stroke:#000000; stroke-linecap:round; stroke-linejoin:round; stroke-width:4; stroke-opacity:1; fill:none" points="431.059,616.01 345.191,1030.9 "/>
<polyline clip-path="url(#clip962)" style="stroke:#000000; stroke-linecap:round; stroke-linejoin:round; stroke-width:4; stroke-opacity:1; fill:none" points="431.059,616.01 710.852,1020.66 "/>
<polyline clip-path="url(#clip962)" style="stroke:#000000; stroke-linecap:round; stroke-linejoin:round; stroke-width:4; stroke-opacity:1; fill:none" points="431.059,616.01 530.601,405.093 "/>
<polyline clip-path="url(#clip962)" style="stroke:#000000; stroke-linecap:round; stroke-linejoin:round; stroke-width:4; stroke-opacity:1; fill:none" points="431.059,616.01 525.44,765.361 "/>
<polyline clip-path="url(#clip962)" style="stroke:#000000; stroke-linecap:round; stroke-linejoin:round; stroke-width:4; stroke-opacity:1; fill:none" points="175.485,452.557 748.249,616.889 "/>
<polyline clip-path="url(#clip962)" style="stroke:#000000; stroke-linecap:round; stroke-linejoin:round; stroke-width:4; stroke-opacity:1; fill:none" points="175.485,452.557 525.44,765.361 "/>
<polyline clip-path="url(#clip962)" style="stroke:#000000; stroke-linecap:round; stroke-linejoin:round; stroke-width:4; stroke-opacity:1; fill:none" points="748.249,616.889 1109.05,1026.4 "/>
<polyline clip-path="url(#clip962)" style="stroke:#000000; stroke-linecap:round; stroke-linejoin:round; stroke-width:4; stroke-opacity:1; fill:none" points="748.249,616.889 710.852,1020.66 "/>
<polyline clip-path="url(#clip962)" style="stroke:#000000; stroke-linecap:round; stroke-linejoin:round; stroke-width:4; stroke-opacity:1; fill:none" points="748.249,616.889 940.928,652.591 "/>
<polyline clip-path="url(#clip962)" style="stroke:#000000; stroke-linecap:round; stroke-linejoin:round; stroke-width:4; stroke-opacity:1; fill:none" points="748.249,616.889 768.304,873.519 "/>
<polyline clip-path="url(#clip962)" style="stroke:#000000; stroke-linecap:round; stroke-linejoin:round; stroke-width:4; stroke-opacity:1; fill:none" points="748.249,616.889 530.601,405.093 "/>
<polyline clip-path="url(#clip962)" style="stroke:#000000; stroke-linecap:round; stroke-linejoin:round; stroke-width:4; stroke-opacity:1; fill:none" points="1109.05,1026.4 710.852,1020.66 "/>
<polyline clip-path="url(#clip962)" style="stroke:#000000; stroke-linecap:round; stroke-linejoin:round; stroke-width:4; stroke-opacity:1; fill:none" points="1109.05,1026.4 768.304,873.519 "/>
<polyline clip-path="url(#clip962)" style="stroke:#000000; stroke-linecap:round; stroke-linejoin:round; stroke-width:4; stroke-opacity:1; fill:none" points="653.519,1305.39 710.852,1020.66 "/>
<polyline clip-path="url(#clip962)" style="stroke:#000000; stroke-linecap:round; stroke-linejoin:round; stroke-width:4; stroke-opacity:1; fill:none" points="653.519,1305.39 768.304,873.519 "/>
<polyline clip-path="url(#clip962)" style="stroke:#000000; stroke-linecap:round; stroke-linejoin:round; stroke-width:4; stroke-opacity:1; fill:none" points="653.519,1305.39 525.44,765.361 "/>
<polyline clip-path="url(#clip962)" style="stroke:#000000; stroke-linecap:round; stroke-linejoin:round; stroke-width:4; stroke-opacity:1; fill:none" points="689.105,228.3 530.601,405.093 "/>
<polyline clip-path="url(#clip962)" style="stroke:#000000; stroke-linecap:round; stroke-linejoin:round; stroke-width:4; stroke-opacity:1; fill:none" points="689.105,228.3 525.44,765.361 "/>
<polyline clip-path="url(#clip962)" style="stroke:#000000; stroke-linecap:round; stroke-linejoin:round; stroke-width:4; stroke-opacity:1; fill:none" points="345.191,1030.9 710.852,1020.66 "/>
<polyline clip-path="url(#clip962)" style="stroke:#000000; stroke-linecap:round; stroke-linejoin:round; stroke-width:4; stroke-opacity:1; fill:none" points="345.191,1030.9 768.304,873.519 "/>
<polyline clip-path="url(#clip962)" style="stroke:#000000; stroke-linecap:round; stroke-linejoin:round; stroke-width:4; stroke-opacity:1; fill:none" points="345.191,1030.9 525.44,765.361 "/>
<polyline clip-path="url(#clip962)" style="stroke:#000000; stroke-linecap:round; stroke-linejoin:round; stroke-width:4; stroke-opacity:1; fill:none" points="710.852,1020.66 940.928,652.591 "/>
<polyline clip-path="url(#clip962)" style="stroke:#000000; stroke-linecap:round; stroke-linejoin:round; stroke-width:4; stroke-opacity:1; fill:none" points="710.852,1020.66 525.44,765.361 "/>
<polyline clip-path="url(#clip962)" style="stroke:#000000; stroke-linecap:round; stroke-linejoin:round; stroke-width:4; stroke-opacity:1; fill:none" points="940.928,652.591 768.304,873.519 "/>
<polyline clip-path="url(#clip962)" style="stroke:#000000; stroke-linecap:round; stroke-linejoin:round; stroke-width:4; stroke-opacity:1; fill:none" points="940.928,652.591 530.601,405.093 "/>
<polyline clip-path="url(#clip962)" style="stroke:#000000; stroke-linecap:round; stroke-linejoin:round; stroke-width:4; stroke-opacity:1; fill:none" points="940.928,652.591 525.44,765.361 "/>
<polyline clip-path="url(#clip962)" style="stroke:#000000; stroke-linecap:round; stroke-linejoin:round; stroke-width:4; stroke-opacity:1; fill:none" points="768.304,873.519 525.44,765.361 "/>
<polyline clip-path="url(#clip962)" style="stroke:#000000; stroke-linecap:round; stroke-linejoin:round; stroke-width:4; stroke-opacity:1; fill:none" points="530.601,405.093 525.44,765.361 "/>
<circle clip-path="url(#clip962)" cx="229.601" cy="743.094" r="18" fill="#0000ff" fill-rule="evenodd" fill-opacity="1" stroke="#000000" stroke-opacity="1" stroke-width="3.2"/>
<circle clip-path="url(#clip962)" cx="1060.27" cy="397.705" r="18" fill="#0000ff" fill-rule="evenodd" fill-opacity="1" stroke="#000000" stroke-opacity="1" stroke-width="3.2"/>
<circle clip-path="url(#clip962)" cx="431.059" cy="616.01" r="18" fill="#0000ff" fill-rule="evenodd" fill-opacity="1" stroke="#000000" stroke-opacity="1" stroke-width="3.2"/>
<circle clip-path="url(#clip962)" cx="175.485" cy="452.557" r="18" fill="#0000ff" fill-rule="evenodd" fill-opacity="1" stroke="#000000" stroke-opacity="1" stroke-width="3.2"/>
<circle clip-path="url(#clip962)" cx="748.249" cy="616.889" r="18" fill="#0000ff" fill-rule="evenodd" fill-opacity="1" stroke="#000000" stroke-opacity="1" stroke-width="3.2"/>
<circle clip-path="url(#clip962)" cx="1109.05" cy="1026.4" r="18" fill="#0000ff" fill-rule="evenodd" fill-opacity="1" stroke="#000000" stroke-opacity="1" stroke-width="3.2"/>
<circle clip-path="url(#clip962)" cx="653.519" cy="1305.39" r="18" fill="#0000ff" fill-rule="evenodd" fill-opacity="1" stroke="#000000" stroke-opacity="1" stroke-width="3.2"/>
<circle clip-path="url(#clip962)" cx="689.105" cy="228.3" r="18" fill="#0000ff" fill-rule="evenodd" fill-opacity="1" stroke="#000000" stroke-opacity="1" stroke-width="3.2"/>
<circle clip-path="url(#clip962)" cx="345.191" cy="1030.9" r="18" fill="#0000ff" fill-rule="evenodd" fill-opacity="1" stroke="#000000" stroke-opacity="1" stroke-width="3.2"/>
<circle clip-path="url(#clip962)" cx="710.852" cy="1020.66" r="18" fill="#0000ff" fill-rule="evenodd" fill-opacity="1" stroke="#000000" stroke-opacity="1" stroke-width="3.2"/>
<circle clip-path="url(#clip962)" cx="940.928" cy="652.591" r="18" fill="#0000ff" fill-rule="evenodd" fill-opacity="1" stroke="#000000" stroke-opacity="1" stroke-width="3.2"/>
<circle clip-path="url(#clip962)" cx="768.304" cy="873.519" r="18" fill="#0000ff" fill-rule="evenodd" fill-opacity="1" stroke="#000000" stroke-opacity="1" stroke-width="3.2"/>
<circle clip-path="url(#clip962)" cx="530.601" cy="405.093" r="18" fill="#0000ff" fill-rule="evenodd" fill-opacity="1" stroke="#000000" stroke-opacity="1" stroke-width="3.2"/>
<circle clip-path="url(#clip962)" cx="525.44" cy="765.361" r="18" fill="#0000ff" fill-rule="evenodd" fill-opacity="1" stroke="#000000" stroke-opacity="1" stroke-width="3.2"/>
<path clip-path="url(#clip960)" d="M1363.17 1486.45 L2352.76 1486.45 L2352.76 47.2441 L1363.17 47.2441  Z" fill="#ffffff" fill-rule="evenodd" fill-opacity="1"/>
<polyline clip-path="url(#clip961)" style="stroke:#000000; stroke-linecap:round; stroke-linejoin:round; stroke-width:2; stroke-opacity:0.1; fill:none" points="1390.5,1486.45 1390.5,47.2441 "/>
<polyline clip-path="url(#clip961)" style="stroke:#000000; stroke-linecap:round; stroke-linejoin:round; stroke-width:2; stroke-opacity:0.1; fill:none" points="1559.26,1486.45 1559.26,47.2441 "/>
<polyline clip-path="url(#clip961)" style="stroke:#000000; stroke-linecap:round; stroke-linejoin:round; stroke-width:2; stroke-opacity:0.1; fill:none" points="1728.02,1486.45 1728.02,47.2441 "/>
<polyline clip-path="url(#clip961)" style="stroke:#000000; stroke-linecap:round; stroke-linejoin:round; stroke-width:2; stroke-opacity:0.1; fill:none" points="1896.78,1486.45 1896.78,47.2441 "/>
<polyline clip-path="url(#clip961)" style="stroke:#000000; stroke-linecap:round; stroke-linejoin:round; stroke-width:2; stroke-opacity:0.1; fill:none" points="2065.54,1486.45 2065.54,47.2441 "/>
<polyline clip-path="url(#clip961)" style="stroke:#000000; stroke-linecap:round; stroke-linejoin:round; stroke-width:2; stroke-opacity:0.1; fill:none" points="2234.29,1486.45 2234.29,47.2441 "/>
<polyline clip-path="url(#clip961)" style="stroke:#000000; stroke-linecap:round; stroke-linejoin:round; stroke-width:2; stroke-opacity:0.1; fill:none" points="1363.17,1284.62 2352.76,1284.62 "/>
<polyline clip-path="url(#clip961)" style="stroke:#000000; stroke-linecap:round; stroke-linejoin:round; stroke-width:2; stroke-opacity:0.1; fill:none" points="1363.17,1036.27 2352.76,1036.27 "/>
<polyline clip-path="url(#clip961)" style="stroke:#000000; stroke-linecap:round; stroke-linejoin:round; stroke-width:2; stroke-opacity:0.1; fill:none" points="1363.17,787.916 2352.76,787.916 "/>
<polyline clip-path="url(#clip961)" style="stroke:#000000; stroke-linecap:round; stroke-linejoin:round; stroke-width:2; stroke-opacity:0.1; fill:none" points="1363.17,539.564 2352.76,539.564 "/>
<polyline clip-path="url(#clip961)" style="stroke:#000000; stroke-linecap:round; stroke-linejoin:round; stroke-width:2; stroke-opacity:0.1; fill:none" points="1363.17,291.212 2352.76,291.212 "/>
<polyline clip-path="url(#clip960)" style="stroke:#000000; stroke-linecap:round; stroke-linejoin:round; stroke-width:4; stroke-opacity:1; fill:none" points="1363.17,1486.45 2352.76,1486.45 "/>
<polyline clip-path="url(#clip960)" style="stroke:#000000; stroke-linecap:round; stroke-linejoin:round; stroke-width:4; stroke-opacity:1; fill:none" points="1390.5,1486.45 1390.5,1467.55 "/>
<polyline clip-path="url(#clip960)" style="stroke:#000000; stroke-linecap:round; stroke-linejoin:round; stroke-width:4; stroke-opacity:1; fill:none" points="1559.26,1486.45 1559.26,1467.55 "/>
<polyline clip-path="url(#clip960)" style="stroke:#000000; stroke-linecap:round; stroke-linejoin:round; stroke-width:4; stroke-opacity:1; fill:none" points="1728.02,1486.45 1728.02,1467.55 "/>
<polyline clip-path="url(#clip960)" style="stroke:#000000; stroke-linecap:round; stroke-linejoin:round; stroke-width:4; stroke-opacity:1; fill:none" points="1896.78,1486.45 1896.78,1467.55 "/>
<polyline clip-path="url(#clip960)" style="stroke:#000000; stroke-linecap:round; stroke-linejoin:round; stroke-width:4; stroke-opacity:1; fill:none" points="2065.54,1486.45 2065.54,1467.55 "/>
<polyline clip-path="url(#clip960)" style="stroke:#000000; stroke-linecap:round; stroke-linejoin:round; stroke-width:4; stroke-opacity:1; fill:none" points="2234.29,1486.45 2234.29,1467.55 "/>
<path clip-path="url(#clip960)" d="M1390.5 1517.37 Q1386.89 1517.37 1385.06 1520.93 Q1383.26 1524.47 1383.26 1531.6 Q1383.26 1538.71 1385.06 1542.27 Q1386.89 1545.82 1390.5 1545.82 Q1394.14 1545.82 1395.94 1542.27 Q1397.77 1538.71 1397.77 1531.6 Q1397.77 1524.47 1395.94 1520.93 Q1394.14 1517.37 1390.5 1517.37 M1390.5 1513.66 Q1396.31 1513.66 1399.37 1518.27 Q1402.45 1522.85 1402.45 1531.6 Q1402.45 1540.33 1399.37 1544.94 Q1396.31 1549.52 1390.5 1549.52 Q1384.69 1549.52 1381.62 1544.94 Q1378.56 1540.33 1378.56 1531.6 Q1378.56 1522.85 1381.62 1518.27 Q1384.69 1513.66 1390.5 1513.66 Z" fill="#000000" fill-rule="nonzero" fill-opacity="1" /><path clip-path="url(#clip960)" d="M1522.95 1544.91 L1539.27 1544.91 L1539.27 1548.85 L1517.33 1548.85 L1517.33 1544.91 Q1519.99 1542.16 1524.58 1537.53 Q1529.18 1532.88 1530.36 1531.53 Q1532.61 1529.01 1533.49 1527.27 Q1534.39 1525.51 1534.39 1523.82 Q1534.39 1521.07 1532.45 1519.33 Q1530.52 1517.6 1527.42 1517.6 Q1525.22 1517.6 1522.77 1518.36 Q1520.34 1519.13 1517.56 1520.68 L1517.56 1515.95 Q1520.39 1514.82 1522.84 1514.24 Q1525.29 1513.66 1527.33 1513.66 Q1532.7 1513.66 1535.89 1516.35 Q1539.09 1519.03 1539.09 1523.52 Q1539.09 1525.65 1538.28 1527.57 Q1537.49 1529.47 1535.39 1532.07 Q1534.81 1532.74 1531.7 1535.95 Q1528.6 1539.15 1522.95 1544.91 Z" fill="#000000" fill-rule="nonzero" fill-opacity="1" /><path clip-path="url(#clip960)" d="M1549.14 1514.29 L1567.49 1514.29 L1567.49 1518.22 L1553.42 1518.22 L1553.42 1526.7 Q1554.44 1526.35 1555.45 1526.19 Q1556.47 1526 1557.49 1526 Q1563.28 1526 1566.66 1529.17 Q1570.04 1532.34 1570.04 1537.76 Q1570.04 1543.34 1566.57 1546.44 Q1563.09 1549.52 1556.77 1549.52 Q1554.6 1549.52 1552.33 1549.15 Q1550.08 1548.78 1547.68 1548.04 L1547.68 1543.34 Q1549.76 1544.47 1551.98 1545.03 Q1554.2 1545.58 1556.68 1545.58 Q1560.69 1545.58 1563.02 1543.48 Q1565.36 1541.37 1565.36 1537.76 Q1565.36 1534.15 1563.02 1532.04 Q1560.69 1529.94 1556.68 1529.94 Q1554.81 1529.94 1552.93 1530.35 Q1551.08 1530.77 1549.14 1531.65 L1549.14 1514.29 Z" fill="#000000" fill-rule="nonzero" fill-opacity="1" /><path clip-path="url(#clip960)" d="M1589.25 1517.37 Q1585.64 1517.37 1583.81 1520.93 Q1582.01 1524.47 1582.01 1531.6 Q1582.01 1538.71 1583.81 1542.27 Q1585.64 1545.82 1589.25 1545.82 Q1592.88 1545.82 1594.69 1542.27 Q1596.52 1538.71 1596.52 1531.6 Q1596.52 1524.47 1594.69 1520.93 Q1592.88 1517.37 1589.25 1517.37 M1589.25 1513.66 Q1595.06 1513.66 1598.12 1518.27 Q1601.2 1522.85 1601.2 1531.6 Q1601.2 1540.33 1598.12 1544.94 Q1595.06 1549.52 1589.25 1549.52 Q1583.44 1549.52 1580.36 1544.94 Q1577.31 1540.33 1577.31 1531.6 Q1577.31 1522.85 1580.36 1518.27 Q1583.44 1513.66 1589.25 1513.66 Z" fill="#000000" fill-rule="nonzero" fill-opacity="1" /><path clip-path="url(#clip960)" d="M1687.64 1514.29 L1706 1514.29 L1706 1518.22 L1691.92 1518.22 L1691.92 1526.7 Q1692.94 1526.35 1693.96 1526.19 Q1694.98 1526 1696 1526 Q1701.78 1526 1705.16 1529.17 Q1708.54 1532.34 1708.54 1537.76 Q1708.54 1543.34 1705.07 1546.44 Q1701.6 1549.52 1695.28 1549.52 Q1693.1 1549.52 1690.83 1549.15 Q1688.59 1548.78 1686.18 1548.04 L1686.18 1543.34 Q1688.26 1544.47 1690.49 1545.03 Q1692.71 1545.58 1695.18 1545.58 Q1699.19 1545.58 1701.53 1543.48 Q1703.87 1541.37 1703.87 1537.76 Q1703.87 1534.15 1701.53 1532.04 Q1699.19 1529.94 1695.18 1529.94 Q1693.31 1529.94 1691.43 1530.35 Q1689.58 1530.77 1687.64 1531.65 L1687.64 1514.29 Z" fill="#000000" fill-rule="nonzero" fill-opacity="1" /><path clip-path="url(#clip960)" d="M1727.75 1517.37 Q1724.14 1517.37 1722.31 1520.93 Q1720.51 1524.47 1720.51 1531.6 Q1720.51 1538.71 1722.31 1542.27 Q1724.14 1545.82 1727.75 1545.82 Q1731.39 1545.82 1733.19 1542.27 Q1735.02 1538.71 1735.02 1531.6 Q1735.02 1524.47 1733.19 1520.93 Q1731.39 1517.37 1727.75 1517.37 M1727.75 1513.66 Q1733.56 1513.66 1736.62 1518.27 Q1739.7 1522.85 1739.7 1531.6 Q1739.7 1540.33 1736.62 1544.94 Q1733.56 1549.52 1727.75 1549.52 Q1721.94 1549.52 1718.87 1544.94 Q1715.81 1540.33 1715.81 1531.6 Q1715.81 1522.85 1718.87 1518.27 Q1721.94 1513.66 1727.75 1513.66 Z" fill="#000000" fill-rule="nonzero" fill-opacity="1" /><path clip-path="url(#clip960)" d="M1757.92 1517.37 Q1754.3 1517.37 1752.48 1520.93 Q1750.67 1524.47 1750.67 1531.6 Q1750.67 1538.71 1752.48 1542.27 Q1754.3 1545.82 1757.92 1545.82 Q1761.55 1545.82 1763.36 1542.27 Q1765.18 1538.71 1765.18 1531.6 Q1765.18 1524.47 1763.36 1520.93 Q1761.55 1517.37 1757.92 1517.37 M1757.92 1513.66 Q1763.73 1513.66 1766.78 1518.27 Q1769.86 1522.85 1769.86 1531.6 Q1769.86 1540.33 1766.78 1544.94 Q1763.73 1549.52 1757.92 1549.52 Q1752.11 1549.52 1749.03 1544.94 Q1745.97 1540.33 1745.97 1531.6 Q1745.97 1522.85 1749.03 1518.27 Q1752.11 1513.66 1757.92 1513.66 Z" fill="#000000" fill-rule="nonzero" fill-opacity="1" /><path clip-path="url(#clip960)" d="M1855.05 1514.29 L1877.28 1514.29 L1877.28 1516.28 L1864.73 1548.85 L1859.85 1548.85 L1871.65 1518.22 L1855.05 1518.22 L1855.05 1514.29 Z" fill="#000000" fill-rule="nonzero" fill-opacity="1" /><path clip-path="url(#clip960)" d="M1886.44 1514.29 L1904.8 1514.29 L1904.8 1518.22 L1890.73 1518.22 L1890.73 1526.7 Q1891.74 1526.35 1892.76 1526.19 Q1893.78 1526 1894.8 1526 Q1900.59 1526 1903.97 1529.17 Q1907.35 1532.34 1907.35 1537.76 Q1907.35 1543.34 1903.87 1546.44 Q1900.4 1549.52 1894.08 1549.52 Q1891.91 1549.52 1889.64 1549.15 Q1887.39 1548.78 1884.98 1548.04 L1884.98 1543.34 Q1887.07 1544.47 1889.29 1545.03 Q1891.51 1545.58 1893.99 1545.58 Q1897.99 1545.58 1900.33 1543.48 Q1902.67 1541.37 1902.67 1537.76 Q1902.67 1534.15 1900.33 1532.04 Q1897.99 1529.94 1893.99 1529.94 Q1892.11 1529.94 1890.24 1530.35 Q1888.39 1530.77 1886.44 1531.65 L1886.44 1514.29 Z" fill="#000000" fill-rule="nonzero" fill-opacity="1" /><path clip-path="url(#clip960)" d="M1926.56 1517.37 Q1922.95 1517.37 1921.12 1520.93 Q1919.31 1524.47 1919.31 1531.6 Q1919.31 1538.71 1921.12 1542.27 Q1922.95 1545.82 1926.56 1545.82 Q1930.19 1545.82 1932 1542.27 Q1933.83 1538.71 1933.83 1531.6 Q1933.83 1524.47 1932 1520.93 Q1930.19 1517.37 1926.56 1517.37 M1926.56 1513.66 Q1932.37 1513.66 1935.42 1518.27 Q1938.5 1522.85 1938.5 1531.6 Q1938.5 1540.33 1935.42 1544.94 Q1932.37 1549.52 1926.56 1549.52 Q1920.75 1549.52 1917.67 1544.94 Q1914.61 1540.33 1914.61 1531.6 Q1914.61 1522.85 1917.67 1518.27 Q1920.75 1513.66 1926.56 1513.66 Z" fill="#000000" fill-rule="nonzero" fill-opacity="1" /><path clip-path="url(#clip960)" d="M2010.06 1544.91 L2017.7 1544.91 L2017.7 1518.55 L2009.39 1520.21 L2009.39 1515.95 L2017.65 1514.29 L2022.33 1514.29 L2022.33 1544.91 L2029.97 1544.91 L2029.97 1548.85 L2010.06 1548.85 L2010.06 1544.91 Z" fill="#000000" fill-rule="nonzero" fill-opacity="1" /><path clip-path="url(#clip960)" d="M2049.41 1517.37 Q2045.8 1517.37 2043.97 1520.93 Q2042.17 1524.47 2042.17 1531.6 Q2042.17 1538.71 2043.97 1542.27 Q2045.8 1545.82 2049.41 1545.82 Q2053.05 1545.82 2054.85 1542.27 Q2056.68 1538.71 2056.68 1531.6 Q2056.68 1524.47 2054.85 1520.93 Q2053.05 1517.37 2049.41 1517.37 M2049.41 1513.66 Q2055.22 1513.66 2058.28 1518.27 Q2061.36 1522.85 2061.36 1531.6 Q2061.36 1540.33 2058.28 1544.94 Q2055.22 1549.52 2049.41 1549.52 Q2043.6 1549.52 2040.53 1544.94 Q2037.47 1540.33 2037.47 1531.6 Q2037.47 1522.85 2040.53 1518.27 Q2043.6 1513.66 2049.41 1513.66 Z" fill="#000000" fill-rule="nonzero" fill-opacity="1" /><path clip-path="url(#clip960)" d="M2079.58 1517.37 Q2075.96 1517.37 2074.14 1520.93 Q2072.33 1524.47 2072.33 1531.6 Q2072.33 1538.71 2074.14 1542.27 Q2075.96 1545.82 2079.58 1545.82 Q2083.21 1545.82 2085.02 1542.27 Q2086.84 1538.71 2086.84 1531.6 Q2086.84 1524.47 2085.02 1520.93 Q2083.21 1517.37 2079.58 1517.37 M2079.58 1513.66 Q2085.39 1513.66 2088.44 1518.27 Q2091.52 1522.85 2091.52 1531.6 Q2091.52 1540.33 2088.44 1544.94 Q2085.39 1549.52 2079.58 1549.52 Q2073.77 1549.52 2070.69 1544.94 Q2067.63 1540.33 2067.63 1531.6 Q2067.63 1522.85 2070.69 1518.27 Q2073.77 1513.66 2079.58 1513.66 Z" fill="#000000" fill-rule="nonzero" fill-opacity="1" /><path clip-path="url(#clip960)" d="M2109.74 1517.37 Q2106.13 1517.37 2104.3 1520.93 Q2102.49 1524.47 2102.49 1531.6 Q2102.49 1538.71 2104.3 1542.27 Q2106.13 1545.82 2109.74 1545.82 Q2113.37 1545.82 2115.18 1542.27 Q2117.01 1538.71 2117.01 1531.6 Q2117.01 1524.47 2115.18 1520.93 Q2113.37 1517.37 2109.74 1517.37 M2109.74 1513.66 Q2115.55 1513.66 2118.6 1518.27 Q2121.68 1522.85 2121.68 1531.6 Q2121.68 1540.33 2118.6 1544.94 Q2115.55 1549.52 2109.74 1549.52 Q2103.93 1549.52 2100.85 1544.94 Q2097.79 1540.33 2097.79 1531.6 Q2097.79 1522.85 2100.85 1518.27 Q2103.93 1513.66 2109.74 1513.66 Z" fill="#000000" fill-rule="nonzero" fill-opacity="1" /><path clip-path="url(#clip960)" d="M2178.82 1544.91 L2186.46 1544.91 L2186.46 1518.55 L2178.15 1520.21 L2178.15 1515.95 L2186.41 1514.29 L2191.09 1514.29 L2191.09 1544.91 L2198.73 1544.91 L2198.73 1548.85 L2178.82 1548.85 L2178.82 1544.91 Z" fill="#000000" fill-rule="nonzero" fill-opacity="1" /><path clip-path="url(#clip960)" d="M2212.2 1544.91 L2228.52 1544.91 L2228.52 1548.85 L2206.57 1548.85 L2206.57 1544.91 Q2209.24 1542.16 2213.82 1537.53 Q2218.43 1532.88 2219.61 1531.53 Q2221.85 1529.01 2222.73 1527.27 Q2223.63 1525.51 2223.63 1523.82 Q2223.63 1521.07 2221.69 1519.33 Q2219.77 1517.6 2216.67 1517.6 Q2214.47 1517.6 2212.01 1518.36 Q2209.58 1519.13 2206.81 1520.68 L2206.81 1515.95 Q2209.63 1514.82 2212.08 1514.24 Q2214.54 1513.66 2216.57 1513.66 Q2221.95 1513.66 2225.14 1516.35 Q2228.33 1519.03 2228.33 1523.52 Q2228.33 1525.65 2227.52 1527.57 Q2226.74 1529.47 2224.63 1532.07 Q2224.05 1532.74 2220.95 1535.95 Q2217.85 1539.15 2212.2 1544.91 Z" fill="#000000" fill-rule="nonzero" fill-opacity="1" /><path clip-path="url(#clip960)" d="M2238.38 1514.29 L2256.74 1514.29 L2256.74 1518.22 L2242.66 1518.22 L2242.66 1526.7 Q2243.68 1526.35 2244.7 1526.19 Q2245.72 1526 2246.74 1526 Q2252.52 1526 2255.9 1529.17 Q2259.28 1532.34 2259.28 1537.76 Q2259.28 1543.34 2255.81 1546.44 Q2252.34 1549.52 2246.02 1549.52 Q2243.84 1549.52 2241.57 1549.15 Q2239.33 1548.78 2236.92 1548.04 L2236.92 1543.34 Q2239.01 1544.47 2241.23 1545.03 Q2243.45 1545.58 2245.93 1545.58 Q2249.93 1545.58 2252.27 1543.48 Q2254.61 1541.37 2254.61 1537.76 Q2254.61 1534.15 2252.27 1532.04 Q2249.93 1529.94 2245.93 1529.94 Q2244.05 1529.94 2242.18 1530.35 Q2240.32 1530.77 2238.38 1531.65 L2238.38 1514.29 Z" fill="#000000" fill-rule="nonzero" fill-opacity="1" /><path clip-path="url(#clip960)" d="M2278.5 1517.37 Q2274.88 1517.37 2273.06 1520.93 Q2271.25 1524.47 2271.25 1531.6 Q2271.25 1538.71 2273.06 1542.27 Q2274.88 1545.82 2278.5 1545.82 Q2282.13 1545.82 2283.94 1542.27 Q2285.76 1538.71 2285.76 1531.6 Q2285.76 1524.47 2283.94 1520.93 Q2282.13 1517.37 2278.5 1517.37 M2278.5 1513.66 Q2284.31 1513.66 2287.36 1518.27 Q2290.44 1522.85 2290.44 1531.6 Q2290.44 1540.33 2287.36 1544.94 Q2284.31 1549.52 2278.5 1549.52 Q2272.69 1549.52 2269.61 1544.94 Q2266.55 1540.33 2266.55 1531.6 Q2266.55 1522.85 2269.61 1518.27 Q2272.69 1513.66 2278.5 1513.66 Z" fill="#000000" fill-rule="nonzero" fill-opacity="1" /><polyline clip-path="url(#clip960)" style="stroke:#000000; stroke-linecap:round; stroke-linejoin:round; stroke-width:4; stroke-opacity:1; fill:none" points="1363.17,1486.45 1363.17,47.2441 "/>
<polyline clip-path="url(#clip960)" style="stroke:#000000; stroke-linecap:round; stroke-linejoin:round; stroke-width:4; stroke-opacity:1; fill:none" points="1363.17,1284.62 1382.07,1284.62 "/>
<polyline clip-path="url(#clip960)" style="stroke:#000000; stroke-linecap:round; stroke-linejoin:round; stroke-width:4; stroke-opacity:1; fill:none" points="1363.17,1036.27 1382.07,1036.27 "/>
<polyline clip-path="url(#clip960)" style="stroke:#000000; stroke-linecap:round; stroke-linejoin:round; stroke-width:4; stroke-opacity:1; fill:none" points="1363.17,787.916 1382.07,787.916 "/>
<polyline clip-path="url(#clip960)" style="stroke:#000000; stroke-linecap:round; stroke-linejoin:round; stroke-width:4; stroke-opacity:1; fill:none" points="1363.17,539.564 1382.07,539.564 "/>
<polyline clip-path="url(#clip960)" style="stroke:#000000; stroke-linecap:round; stroke-linejoin:round; stroke-width:4; stroke-opacity:1; fill:none" points="1363.17,291.212 1382.07,291.212 "/>
<path clip-path="url(#clip960)" d="M1235.3 1285.07 L1264.97 1285.07 L1264.97 1289.01 L1235.3 1289.01 L1235.3 1285.07 Z" fill="#000000" fill-rule="nonzero" fill-opacity="1" /><path clip-path="url(#clip960)" d="M1279.09 1297.97 L1295.41 1297.97 L1295.41 1301.9 L1273.47 1301.9 L1273.47 1297.97 Q1276.13 1295.21 1280.71 1290.58 Q1285.32 1285.93 1286.5 1284.59 Q1288.75 1282.06 1289.63 1280.33 Q1290.53 1278.57 1290.53 1276.88 Q1290.53 1274.12 1288.58 1272.39 Q1286.66 1270.65 1283.56 1270.65 Q1281.36 1270.65 1278.91 1271.41 Q1276.48 1272.18 1273.7 1273.73 L1273.7 1269.01 Q1276.52 1267.87 1278.98 1267.29 Q1281.43 1266.72 1283.47 1266.72 Q1288.84 1266.72 1292.03 1269.4 Q1295.23 1272.09 1295.23 1276.58 Q1295.23 1278.71 1294.42 1280.63 Q1293.63 1282.53 1291.52 1285.12 Q1290.95 1285.79 1287.84 1289.01 Q1284.74 1292.2 1279.09 1297.97 Z" fill="#000000" fill-rule="nonzero" fill-opacity="1" /><path clip-path="url(#clip960)" d="M1315.23 1270.42 Q1311.62 1270.42 1309.79 1273.98 Q1307.98 1277.53 1307.98 1284.65 Q1307.98 1291.76 1309.79 1295.33 Q1311.62 1298.87 1315.23 1298.87 Q1318.86 1298.87 1320.67 1295.33 Q1322.5 1291.76 1322.5 1284.65 Q1322.5 1277.53 1320.67 1273.98 Q1318.86 1270.42 1315.23 1270.42 M1315.23 1266.72 Q1321.04 1266.72 1324.09 1271.32 Q1327.17 1275.9 1327.17 1284.65 Q1327.17 1293.38 1324.09 1297.99 Q1321.04 1302.57 1315.23 1302.57 Q1309.42 1302.57 1306.34 1297.99 Q1303.28 1293.38 1303.28 1284.65 Q1303.28 1275.9 1306.34 1271.32 Q1309.42 1266.72 1315.23 1266.72 Z" fill="#000000" fill-rule="nonzero" fill-opacity="1" /><path clip-path="url(#clip960)" d="M1315.23 1022.07 Q1311.62 1022.07 1309.79 1025.63 Q1307.98 1029.17 1307.98 1036.3 Q1307.98 1043.41 1309.79 1046.97 Q1311.62 1050.52 1315.23 1050.52 Q1318.86 1050.52 1320.67 1046.97 Q1322.5 1043.41 1322.5 1036.3 Q1322.5 1029.17 1320.67 1025.63 Q1318.86 1022.07 1315.23 1022.07 M1315.23 1018.36 Q1321.04 1018.36 1324.09 1022.97 Q1327.17 1027.55 1327.17 1036.3 Q1327.17 1045.03 1324.09 1049.64 Q1321.04 1054.22 1315.23 1054.22 Q1309.42 1054.22 1306.34 1049.64 Q1303.28 1045.03 1303.28 1036.3 Q1303.28 1027.55 1306.34 1022.97 Q1309.42 1018.36 1315.23 1018.36 Z" fill="#000000" fill-rule="nonzero" fill-opacity="1" /><path clip-path="url(#clip960)" d="M1279.09 801.261 L1295.41 801.261 L1295.41 805.196 L1273.47 805.196 L1273.47 801.261 Q1276.13 798.506 1280.71 793.877 Q1285.32 789.224 1286.5 787.881 Q1288.75 785.358 1289.63 783.622 Q1290.53 781.863 1290.53 780.173 Q1290.53 777.419 1288.58 775.682 Q1286.66 773.946 1283.56 773.946 Q1281.36 773.946 1278.91 774.71 Q1276.48 775.474 1273.7 777.025 L1273.7 772.303 Q1276.52 771.169 1278.98 770.59 Q1281.43 770.011 1283.47 770.011 Q1288.84 770.011 1292.03 772.696 Q1295.23 775.382 1295.23 779.872 Q1295.23 782.002 1294.42 783.923 Q1293.63 785.821 1291.52 788.414 Q1290.95 789.085 1287.84 792.303 Q1284.74 795.497 1279.09 801.261 Z" fill="#000000" fill-rule="nonzero" fill-opacity="1" /><path clip-path="url(#clip960)" d="M1315.23 773.715 Q1311.62 773.715 1309.79 777.28 Q1307.98 780.821 1307.98 787.951 Q1307.98 795.057 1309.79 798.622 Q1311.62 802.164 1315.23 802.164 Q1318.86 802.164 1320.67 798.622 Q1322.5 795.057 1322.5 787.951 Q1322.5 780.821 1320.67 777.28 Q1318.86 773.715 1315.23 773.715 M1315.23 770.011 Q1321.04 770.011 1324.09 774.618 Q1327.17 779.201 1327.17 787.951 Q1327.17 796.678 1324.09 801.284 Q1321.04 805.867 1315.23 805.867 Q1309.42 805.867 1306.34 801.284 Q1303.28 796.678 1303.28 787.951 Q1303.28 779.201 1306.34 774.618 Q1309.42 770.011 1315.23 770.011 Z" fill="#000000" fill-rule="nonzero" fill-opacity="1" /><path clip-path="url(#clip960)" d="M1287.91 526.358 L1276.11 544.807 L1287.91 544.807 L1287.91 526.358 M1286.69 522.284 L1292.57 522.284 L1292.57 544.807 L1297.5 544.807 L1297.5 548.696 L1292.57 548.696 L1292.57 556.844 L1287.91 556.844 L1287.91 548.696 L1272.31 548.696 L1272.31 544.182 L1286.69 522.284 Z" fill="#000000" fill-rule="nonzero" fill-opacity="1" /><path clip-path="url(#clip960)" d="M1315.23 525.363 Q1311.62 525.363 1309.79 528.928 Q1307.98 532.469 1307.98 539.599 Q1307.98 546.705 1309.79 550.27 Q1311.62 553.812 1315.23 553.812 Q1318.86 553.812 1320.67 550.27 Q1322.5 546.705 1322.5 539.599 Q1322.5 532.469 1320.67 528.928 Q1318.86 525.363 1315.23 525.363 M1315.23 521.659 Q1321.04 521.659 1324.09 526.266 Q1327.17 530.849 1327.17 539.599 Q1327.17 548.326 1324.09 552.932 Q1321.04 557.515 1315.23 557.515 Q1309.42 557.515 1306.34 552.932 Q1303.28 548.326 1303.28 539.599 Q1303.28 530.849 1306.34 526.266 Q1309.42 521.659 1315.23 521.659 Z" fill="#000000" fill-rule="nonzero" fill-opacity="1" /><path clip-path="url(#clip960)" d="M1285.64 289.349 Q1282.5 289.349 1280.64 291.501 Q1278.82 293.654 1278.82 297.404 Q1278.82 301.131 1280.64 303.307 Q1282.5 305.46 1285.64 305.46 Q1288.79 305.46 1290.62 303.307 Q1292.47 301.131 1292.47 297.404 Q1292.47 293.654 1290.62 291.501 Q1288.79 289.349 1285.64 289.349 M1294.93 274.696 L1294.93 278.955 Q1293.17 278.122 1291.36 277.682 Q1289.58 277.242 1287.82 277.242 Q1283.19 277.242 1280.74 280.367 Q1278.31 283.492 1277.96 289.812 Q1279.33 287.798 1281.39 286.733 Q1283.45 285.645 1285.92 285.645 Q1291.13 285.645 1294.14 288.816 Q1297.17 291.964 1297.17 297.404 Q1297.17 302.728 1294.02 305.946 Q1290.88 309.163 1285.64 309.163 Q1279.65 309.163 1276.48 304.58 Q1273.31 299.974 1273.31 291.247 Q1273.31 283.052 1277.2 278.191 Q1281.08 273.307 1287.64 273.307 Q1289.39 273.307 1291.18 273.654 Q1292.98 274.002 1294.93 274.696 Z" fill="#000000" fill-rule="nonzero" fill-opacity="1" /><path clip-path="url(#clip960)" d="M1315.23 277.011 Q1311.62 277.011 1309.79 280.576 Q1307.98 284.117 1307.98 291.247 Q1307.98 298.353 1309.79 301.918 Q1311.62 305.46 1315.23 305.46 Q1318.86 305.46 1320.67 301.918 Q1322.5 298.353 1322.5 291.247 Q1322.5 284.117 1320.67 280.576 Q1318.86 277.011 1315.23 277.011 M1315.23 273.307 Q1321.04 273.307 1324.09 277.914 Q1327.17 282.497 1327.17 291.247 Q1327.17 299.974 1324.09 304.58 Q1321.04 309.163 1315.23 309.163 Q1309.42 309.163 1306.34 304.58 Q1303.28 299.974 1303.28 291.247 Q1303.28 282.497 1306.34 277.914 Q1309.42 273.307 1315.23 273.307 Z" fill="#000000" fill-rule="nonzero" fill-opacity="1" /><polyline clip-path="url(#clip961)" style="stroke:#009af9; stroke-linecap:round; stroke-linejoin:round; stroke-width:4; stroke-opacity:1; fill:none" points="1391.18,87.9763 1391.85,201.744 1392.53,327.573 1393.2,454.139 1393.88,573.527 1394.55,681.466 1395.23,776.029 1395.9,856.716 1396.58,923.901 1397.25,978.493 1397.93,1021.73 1398.6,1055.05 1399.28,1079.97 1399.95,1098.03 1400.63,1110.68 1401.3,1119.3 1401.98,1125.08 1402.65,1129.05 1403.33,1132.06 1404,1134.73 1404.68,1137.54 1405.36,1140.79 1406.03,1144.63 1406.71,1149.13 1407.38,1154.24 1408.06,1159.89 1408.73,1165.95 1409.41,1172.27 1410.08,1178.73 1410.76,1185.19 1411.43,1191.54 1412.11,1197.69 1412.78,1203.59 1413.46,1209.18 1414.13,1214.43 1414.81,1219.35 1415.48,1223.92 1416.16,1228.16 1416.83,1232.1 1417.51,1235.75 1418.18,1239.14 1418.86,1242.3 1419.53,1245.25 1420.21,1248.02 1420.88,1250.64 1421.56,1253.12 1422.23,1255.49 1422.91,1257.75 1423.58,1259.92 1424.26,1262 1424.93,1264 1425.61,1265.92 1426.28,1267.76 1426.96,1269.53 1427.63,1271.22 1428.31,1272.84 1428.98,1274.38 1429.66,1275.85 1430.33,1277.26 1431.01,1278.59 1431.68,1279.86 1432.36,1281.07 1433.03,1282.21 1433.71,1283.31 1434.38,1284.35 1435.06,1285.34 1435.73,1286.28 1436.41,1287.19 1437.08,1288.05 1437.76,1288.88 1438.43,1289.68 1439.11,1290.44 1439.78,1291.17 1440.46,1291.88 1441.13,1292.55 1441.81,1293.2 1442.48,1293.83 1443.16,1294.44 1443.83,1295.02 1444.51,1295.58 1445.18,1296.12 1445.86,1296.64 1446.53,1297.14 1447.21,1297.62 1447.88,1298.09 1448.56,1298.54 1449.23,1298.98 1449.91,1299.41 1450.58,1299.82 1451.26,1300.23 1451.93,1300.62 1452.61,1301 1453.28,1301.38 1453.96,1301.75 1454.63,1302.12 1455.31,1302.48 1455.98,1302.83 1456.66,1303.19 1457.33,1303.54 1458.01,1303.89 1458.68,1304.24 1459.36,1304.59 1460.03,1304.95 1460.71,1305.3 1461.38,1305.66 1462.06,1306.02 1462.73,1306.39 1463.41,1306.76 1464.08,1307.14 1464.76,1307.52 1465.43,1307.91 1466.11,1308.31 1466.78,1308.72 1467.46,1309.14 1468.13,1309.57 1468.81,1310.02 1469.48,1310.47 1470.16,1310.94 1470.83,1311.42 1471.51,1311.92 1472.18,1312.43 1472.86,1312.97 1473.53,1313.51 1474.21,1314.08 1474.88,1314.67 1475.56,1315.27 1476.23,1315.9 1476.91,1316.54 1477.58,1317.21 1478.26,1317.9 1478.93,1318.61 1479.61,1319.33 1480.28,1320.08 1480.96,1320.85 1481.63,1321.63 1482.31,1322.43 1482.98,1323.25 1483.66,1324.07 1484.33,1324.91 1485.01,1325.76 1485.68,1326.62 1486.36,1327.48 1487.03,1328.34 1487.71,1329.2 1488.38,1330.06 1489.06,1330.91 1489.73,1331.76 1490.41,1332.59 1491.08,1333.4 1491.76,1334.21 1492.43,1334.99 1493.11,1335.75 1493.78,1336.49 1494.46,1337.21 1495.13,1337.9 1495.81,1338.57 1496.48,1339.21 1497.16,1339.83 1497.83,1340.42 1498.51,1340.99 1499.18,1341.52 1499.86,1342.04 1500.53,1342.53 1501.21,1343 1501.88,1343.44 1502.56,1343.86 1503.23,1344.27 1503.91,1344.65 1504.58,1345.01 1505.26,1345.36 1505.93,1345.69 1506.61,1346.01 1507.28,1346.31 1507.96,1346.6 1508.63,1346.87 1509.31,1347.14 1509.99,1347.39 1510.66,1347.64 1511.34,1347.87 1512.01,1348.1 1512.69,1348.32 1513.36,1348.53 1514.04,1348.73 1514.71,1348.93 1515.39,1349.12 1516.06,1349.3 1516.74,1349.48 1517.41,1349.66 1518.09,1349.82 1518.76,1349.99 1519.44,1350.15 1520.11,1350.31 1520.79,1350.46 1521.46,1350.61 1522.14,1350.75 1522.81,1350.89 1523.49,1351.03 1524.16,1351.17 1524.84,1351.3 1525.51,1351.43 1526.19,1351.56 1526.86,1351.69 1527.54,1351.81 1528.21,1351.93 1528.89,1352.05 1529.56,1352.17 1530.24,1352.29 1530.91,1352.41 1531.59,1352.52 1532.26,1352.63 1532.94,1352.75 1533.61,1352.86 1534.29,1352.97 1534.96,1353.08 1535.64,1353.19 1536.31,1353.3 1536.99,1353.41 1537.66,1353.52 1538.34,1353.63 1539.01,1353.74 1539.69,1353.85 1540.36,1353.96 1541.04,1354.07 1541.71,1354.18 1542.39,1354.29 1543.06,1354.41 1543.74,1354.52 1544.41,1354.64 1545.09,1354.75 1545.76,1354.87 1546.44,1355 1547.11,1355.12 1547.79,1355.25 1548.46,1355.38 1549.14,1355.51 1549.81,1355.65 1550.49,1355.79 1551.16,1355.94 1551.84,1356.09 1552.51,1356.25 1553.19,1356.41 1553.86,1356.58 1554.54,1356.76 1555.21,1356.95 1555.89,1357.14 1556.56,1357.34 1557.24,1357.56 1557.91,1357.78 1558.59,1358.02 1559.26,1358.26 1559.94,1358.52 1560.61,1358.8 1561.29,1359.09 1561.96,1359.4 1562.64,1359.72 1563.31,1360.06 1563.99,1360.41 1564.66,1360.78 1565.34,1361.17 1566.01,1361.58 1566.69,1362.01 1567.36,1362.45 1568.04,1362.9 1568.71,1363.37 1569.39,1363.85 1570.06,1364.35 1570.74,1364.85 1571.41,1365.36 1572.09,1365.88 1572.76,1366.4 1573.44,1366.92 1574.11,1367.43 1574.79,1367.95 1575.46,1368.46 1576.14,1368.97 1576.81,1369.47 1577.49,1369.96 1578.16,1370.44 1578.84,1370.91 1579.51,1371.37 1580.19,1371.81 1580.86,1372.25 1581.54,1372.67 1582.21,1373.08 1582.89,1373.48 1583.56,1373.87 1584.24,1374.25 1584.91,1374.61 1585.59,1374.96 1586.26,1375.3 1586.94,1375.63 1587.61,1375.95 1588.29,1376.26 1588.96,1376.56 1589.64,1376.85 1590.31,1377.13 1590.99,1377.4 1591.66,1377.66 1592.34,1377.92 1593.01,1378.16 1593.69,1378.4 1594.36,1378.63 1595.04,1378.86 1595.71,1379.08 1596.39,1379.29 1597.06,1379.5 1597.74,1379.71 1598.41,1379.91 1599.09,1380.1 1599.76,1380.29 1600.44,1380.48 1601.11,1380.67 1601.79,1380.86 1602.46,1381.04 1603.14,1381.22 1603.81,1381.39 1604.49,1381.57 1605.16,1381.74 1605.84,1381.92 1606.51,1382.09 1607.19,1382.26 1607.86,1382.43 1608.54,1382.59 1609.21,1382.76 1609.89,1382.93 1610.56,1383.09 1611.24,1383.26 1611.91,1383.42 1612.59,1383.59 1613.26,1383.75 1613.94,1383.91 1614.61,1384.08 1615.29,1384.24 1615.97,1384.4 1616.64,1384.56 1617.32,1384.73 1617.99,1384.89 1618.67,1385.05 1619.34,1385.21 1620.02,1385.37 1620.69,1385.53 1621.37,1385.7 1622.04,1385.86 1622.72,1386.02 1623.39,1386.18 1624.07,1386.34 1624.74,1386.5 1625.42,1386.67 1626.09,1386.83 1626.77,1386.99 1627.44,1387.15 1628.12,1387.31 1628.79,1387.48 1629.47,1387.64 1630.14,1387.8 1630.82,1387.96 1631.49,1388.12 1632.17,1388.28 1632.84,1388.44 1633.52,1388.6 1634.19,1388.76 1634.87,1388.92 1635.54,1389.08 1636.22,1389.24 1636.89,1389.4 1637.57,1389.56 1638.24,1389.72 1638.92,1389.87 1639.59,1390.03 1640.27,1390.18 1640.94,1390.34 1641.62,1390.49 1642.29,1390.64 1642.97,1390.8 1643.64,1390.95 1644.32,1391.1 1644.99,1391.24 1645.67,1391.39 1646.34,1391.54 1647.02,1391.68 1647.69,1391.83 1648.37,1391.97 1649.04,1392.11 1649.72,1392.25 1650.39,1392.39 1651.07,1392.53 1651.74,1392.66 1652.42,1392.8 1653.09,1392.93 1653.77,1393.06 1654.44,1393.19 1655.12,1393.32 1655.79,1393.45 1656.47,1393.57 1657.14,1393.7 1657.82,1393.82 1658.49,1393.94 1659.17,1394.06 1659.84,1394.18 1660.52,1394.3 1661.19,1394.41 1661.87,1394.53 1662.54,1394.64 1663.22,1394.75 1663.89,1394.86 1664.57,1394.97 1665.24,1395.08 1665.92,1395.19 1666.59,1395.29 1667.27,1395.39 1667.94,1395.5 1668.62,1395.6 1669.29,1395.7 1669.97,1395.79 1670.64,1395.89 1671.32,1395.99 1671.99,1396.08 1672.67,1396.17 1673.34,1396.27 1674.02,1396.36 1674.69,1396.44 1675.37,1396.53 1676.04,1396.62 1676.72,1396.71 1677.39,1396.79 1678.07,1396.87 1678.74,1396.96 1679.42,1397.04 1680.09,1397.12 1680.77,1397.19 1681.44,1397.27 1682.12,1397.35 1682.79,1397.42 1683.47,1397.5 1684.14,1397.57 1684.82,1397.64 1685.49,1397.71 1686.17,1397.78 1686.84,1397.85 1687.52,1397.92 1688.19,1397.99 1688.87,1398.05 1689.54,1398.12 1690.22,1398.18 1690.89,1398.25 1691.57,1398.31 1692.24,1398.37 1692.92,1398.43 1693.59,1398.49 1694.27,1398.55 1694.94,1398.61 1695.62,1398.66 1696.29,1398.72 1696.97,1398.77 1697.64,1398.83 1698.32,1398.88 1698.99,1398.93 1699.67,1398.98 1700.34,1399.03 1701.02,1399.08 1701.69,1399.13 1702.37,1399.18 1703.04,1399.23 1703.72,1399.28 1704.39,1399.32 1705.07,1399.37 1705.74,1399.42 1706.42,1399.46 1707.09,1399.5 1707.77,1399.55 1708.44,1399.59 1709.12,1399.63 1709.79,1399.67 1710.47,1399.71 1711.14,1399.76 1711.82,1399.79 1712.49,1399.83 1713.17,1399.87 1713.84,1399.91 1714.52,1399.95 1715.19,1399.99 1715.87,1400.02 1716.54,1400.06 1717.22,1400.1 1717.89,1400.13 1718.57,1400.17 1719.24,1400.2 1719.92,1400.24 1720.6,1400.27 1721.27,1400.31 1721.95,1400.34 1722.62,1400.37 1723.3,1400.41 1723.97,1400.44 1724.65,1400.47 1725.32,1400.5 1726,1400.54 1726.67,1400.57 1727.35,1400.6 1728.02,1400.63 1728.7,1400.66 1729.37,1400.69 1730.05,1400.72 1730.72,1400.75 1731.4,1400.78 1732.07,1400.81 1732.75,1400.84 1733.42,1400.87 1734.1,1400.9 1734.77,1400.93 1735.45,1400.96 1736.12,1400.99 1736.8,1401.01 1737.47,1401.04 1738.15,1401.07 1738.82,1401.1 1739.5,1401.13 1740.17,1401.15 1740.85,1401.18 1741.52,1401.21 1742.2,1401.24 1742.87,1401.27 1743.55,1401.29 1744.22,1401.32 1744.9,1401.35 1745.57,1401.37 1746.25,1401.4 1746.92,1401.43 1747.6,1401.46 1748.27,1401.48 1748.95,1401.51 1749.62,1401.54 1750.3,1401.56 1750.97,1401.59 1751.65,1401.62 1752.32,1401.65 1753,1401.67 1753.67,1401.7 1754.35,1401.73 1755.02,1401.75 1755.7,1401.78 1756.37,1401.81 1757.05,1401.83 1757.72,1401.86 1758.4,1401.89 1759.07,1401.92 1759.75,1401.94 1760.42,1401.97 1761.1,1402 1761.77,1402.03 1762.45,1402.05 1763.12,1402.08 1763.8,1402.11 1764.47,1402.14 1765.15,1402.17 1765.82,1402.2 1766.5,1402.22 1767.17,1402.25 1767.85,1402.28 1768.52,1402.31 1769.2,1402.34 1769.87,1402.37 1770.55,1402.4 1771.22,1402.43 1771.9,1402.46 1772.57,1402.49 1773.25,1402.52 1773.92,1402.55 1774.6,1402.58 1775.27,1402.61 1775.95,1402.64 1776.62,1402.67 1777.3,1402.71 1777.97,1402.74 1778.65,1402.77 1779.32,1402.8 1780,1402.84 1780.67,1402.87 1781.35,1402.9 1782.02,1402.94 1782.7,1402.97 1783.37,1403.01 1784.05,1403.04 1784.72,1403.08 1785.4,1403.12 1786.07,1403.15 1786.75,1403.19 1787.42,1403.23 1788.1,1403.27 1788.77,1403.31 1789.45,1403.35 1790.12,1403.39 1790.8,1403.43 1791.47,1403.47 1792.15,1403.51 1792.82,1403.56 1793.5,1403.6 1794.17,1403.65 1794.85,1403.69 1795.52,1403.74 1796.2,1403.79 1796.87,1403.84 1797.55,1403.89 1798.22,1403.94 1798.9,1403.99 1799.57,1404.04 1800.25,1404.1 1800.92,1404.15 1801.6,1404.21 1802.27,1404.27 1802.95,1404.33 1803.62,1404.39 1804.3,1404.45 1804.97,1404.52 1805.65,1404.58 1806.32,1404.65 1807,1404.72 1807.67,1404.79 1808.35,1404.87 1809.02,1404.94 1809.7,1405.02 1810.37,1405.1 1811.05,1405.19 1811.72,1405.27 1812.4,1405.36 1813.07,1405.46 1813.75,1405.55 1814.42,1405.65 1815.1,1405.75 1815.77,1405.86 1816.45,1405.97 1817.12,1406.09 1817.8,1406.2 1818.47,1406.33 1819.15,1406.46 1819.82,1406.59 1820.5,1406.73 1821.17,1406.87 1821.85,1407.02 1822.52,1407.18 1823.2,1407.34 1823.87,1407.51 1824.55,1407.69 1825.23,1407.87 1825.9,1408.06 1826.58,1408.26 1827.25,1408.47 1827.93,1408.69 1828.6,1408.92 1829.28,1409.16 1829.95,1409.41 1830.63,1409.67 1831.3,1409.95 1831.98,1410.23 1832.65,1410.53 1833.33,1410.84 1834,1411.17 1834.68,1411.5 1835.35,1411.86 1836.03,1412.23 1836.7,1412.61 1837.38,1413.01 1838.05,1413.42 1838.73,1413.85 1839.4,1414.29 1840.08,1414.75 1840.75,1415.23 1841.43,1415.72 1842.1,1416.22 1842.78,1416.74 1843.45,1417.27 1844.13,1417.82 1844.8,1418.37 1845.48,1418.94 1846.15,1419.51 1846.83,1420.09 1847.5,1420.68 1848.18,1421.27 1848.85,1421.87 1849.53,1422.47 1850.2,1423.07 1850.88,1423.67 1851.55,1424.27 1852.23,1424.87 1852.9,1425.46 1853.58,1426.05 1854.25,1426.63 1854.93,1427.2 1855.6,1427.77 1856.28,1428.32 1856.95,1428.87 1857.63,1429.4 1858.3,1429.93 1858.98,1430.44 1859.65,1430.95 1860.33,1431.44 1861,1431.91 1861.68,1432.38 1862.35,1432.83 1863.03,1433.27 1863.7,1433.7 1864.38,1434.11 1865.05,1434.51 1865.73,1434.89 1866.4,1435.27 1867.08,1435.63 1867.75,1435.97 1868.43,1436.31 1869.1,1436.63 1869.78,1436.93 1870.45,1437.23 1871.13,1437.51 1871.8,1437.78 1872.48,1438.04 1873.15,1438.29 1873.83,1438.52 1874.5,1438.75 1875.18,1438.97 1875.85,1439.17 1876.53,1439.37 1877.2,1439.56 1877.88,1439.73 1878.55,1439.9 1879.23,1440.07 1879.9,1440.22 1880.58,1440.37 1881.25,1440.51 1881.93,1440.65 1882.6,1440.78 1883.28,1440.91 1883.95,1441.03 1884.63,1441.15 1885.3,1441.26 1885.98,1441.37 1886.65,1441.47 1887.33,1441.57 1888,1441.67 1888.68,1441.77 1889.35,1441.86 1890.03,1441.95 1890.7,1442.04 1891.38,1442.12 1892.05,1442.21 1892.73,1442.29 1893.4,1442.36 1894.08,1442.44 1894.75,1442.52 1895.43,1442.59 1896.1,1442.66 1896.78,1442.73 1897.45,1442.8 1898.13,1442.86 1898.8,1442.93 1899.48,1442.99 1900.15,1443.05 1900.83,1443.12 1901.5,1443.17 1902.18,1443.23 1902.85,1443.29 1903.53,1443.35 1904.2,1443.4 1904.88,1443.45 1905.55,1443.51 1906.23,1443.56 1906.9,1443.61 1907.58,1443.66 1908.25,1443.7 1908.93,1443.75 1909.6,1443.8 1910.28,1443.84 1910.95,1443.88 1911.63,1443.93 1912.3,1443.97 1912.98,1444.01 1913.65,1444.05 1914.33,1444.09 1915,1444.13 1915.68,1444.16 1916.35,1444.2 1917.03,1444.24 1917.7,1444.27 1918.38,1444.3 1919.05,1444.34 1919.73,1444.37 1920.4,1444.4 1921.08,1444.43 1921.75,1444.46 1922.43,1444.49 1923.1,1444.52 1923.78,1444.55 1924.45,1444.57 1925.13,1444.6 1925.8,1444.63 1926.48,1444.65 1927.15,1444.68 1927.83,1444.7 1928.5,1444.72 1929.18,1444.75 1929.86,1444.77 1930.53,1444.79 1931.21,1444.81 1931.88,1444.83 1932.56,1444.85 1933.23,1444.87 1933.91,1444.89 1934.58,1444.91 1935.26,1444.92 1935.93,1444.94 1936.61,1444.96 1937.28,1444.97 1937.96,1444.99 1938.63,1445.01 1939.31,1445.02 1939.98,1445.04 1940.66,1445.05 1941.33,1445.06 1942.01,1445.08 1942.68,1445.09 1943.36,1445.1 1944.03,1445.12 1944.71,1445.13 1945.38,1445.14 1946.06,1445.15 1946.73,1445.16 1947.41,1445.17 1948.08,1445.18 1948.76,1445.2 1949.43,1445.21 1950.11,1445.22 1950.78,1445.23 1951.46,1445.23 1952.13,1445.24 1952.81,1445.25 1953.48,1445.26 1954.16,1445.27 1954.83,1445.28 1955.51,1445.29 1956.18,1445.29 1956.86,1445.3 1957.53,1445.31 1958.21,1445.32 1958.88,1445.33 1959.56,1445.33 1960.23,1445.34 1960.91,1445.35 1961.58,1445.35 1962.26,1445.36 1962.93,1445.37 1963.61,1445.37 1964.28,1445.38 1964.96,1445.38 1965.63,1445.39 1966.31,1445.4 1966.98,1445.4 1967.66,1445.41 1968.33,1445.41 1969.01,1445.42 1969.68,1445.42 1970.36,1445.43 1971.03,1445.43 1971.71,1445.44 1972.38,1445.44 1973.06,1445.45 1973.73,1445.45 1974.41,1445.46 1975.08,1445.46 1975.76,1445.46 1976.43,1445.47 1977.11,1445.47 1977.78,1445.48 1978.46,1445.48 1979.13,1445.48 1979.81,1445.49 1980.48,1445.49 1981.16,1445.5 1981.83,1445.5 1982.51,1445.5 1983.18,1445.51 1983.86,1445.51 1984.53,1445.51 1985.21,1445.52 1985.88,1445.52 1986.56,1445.52 1987.23,1445.53 1987.91,1445.53 1988.58,1445.53 1989.26,1445.54 1989.93,1445.54 1990.61,1445.54 1991.28,1445.54 1991.96,1445.55 1992.63,1445.55 1993.31,1445.55 1993.98,1445.56 1994.66,1445.56 1995.33,1445.56 1996.01,1445.56 1996.68,1445.57 1997.36,1445.57 1998.03,1445.57 1998.71,1445.57 1999.38,1445.57 2000.06,1445.58 2000.73,1445.58 2001.41,1445.58 2002.08,1445.58 2002.76,1445.59 2003.43,1445.59 2004.11,1445.59 2004.78,1445.59 2005.46,1445.59 2006.13,1445.6 2006.81,1445.6 2007.48,1445.6 2008.16,1445.6 2008.83,1445.6 2009.51,1445.6 2010.18,1445.61 2010.86,1445.61 2011.53,1445.61 2012.21,1445.61 2012.88,1445.61 2013.56,1445.61 2014.23,1445.62 2014.91,1445.62 2015.58,1445.62 2016.26,1445.62 2016.93,1445.62 2017.61,1445.62 2018.28,1445.63 2018.96,1445.63 2019.63,1445.63 2020.31,1445.63 2020.98,1445.63 2021.66,1445.63 2022.33,1445.63 2023.01,1445.63 2023.68,1445.64 2024.36,1445.64 2025.03,1445.64 2025.71,1445.64 2026.38,1445.64 2027.06,1445.64 2027.73,1445.64 2028.41,1445.64 2029.08,1445.65 2029.76,1445.65 2030.43,1445.65 2031.11,1445.65 2031.78,1445.65 2032.46,1445.65 2033.13,1445.65 2033.81,1445.65 2034.48,1445.65 2035.16,1445.65 2035.84,1445.66 2036.51,1445.66 2037.19,1445.66 2037.86,1445.66 2038.54,1445.66 2039.21,1445.66 2039.89,1445.66 2040.56,1445.66 2041.24,1445.66 2041.91,1445.66 2042.59,1445.66 2043.26,1445.67 2043.94,1445.67 2044.61,1445.67 2045.29,1445.67 2045.96,1445.67 2046.64,1445.67 2047.31,1445.67 2047.99,1445.67 2048.66,1445.67 2049.34,1445.67 2050.01,1445.67 2050.69,1445.67 2051.36,1445.67 2052.04,1445.67 2052.71,1445.68 2053.39,1445.68 2054.06,1445.68 2054.74,1445.68 2055.41,1445.68 2056.09,1445.68 2056.76,1445.68 2057.44,1445.68 2058.11,1445.68 2058.79,1445.68 2059.46,1445.68 2060.14,1445.68 2060.81,1445.68 2061.49,1445.68 2062.16,1445.68 2062.84,1445.68 2063.51,1445.68 2064.19,1445.68 2064.86,1445.69 2065.54,1445.69 2066.21,1445.69 2066.89,1445.69 2067.56,1445.69 2068.24,1445.69 2068.91,1445.69 2069.59,1445.69 2070.26,1445.69 2070.94,1445.69 2071.61,1445.69 2072.29,1445.69 2072.96,1445.69 2073.64,1445.69 2074.31,1445.69 2074.99,1445.69 2075.66,1445.69 2076.34,1445.69 2077.01,1445.69 2077.69,1445.69 2078.36,1445.69 2079.04,1445.69 2079.71,1445.69 2080.39,1445.69 2081.06,1445.69 2081.74,1445.69 2082.41,1445.7 2083.09,1445.7 2083.76,1445.7 2084.44,1445.7 2085.11,1445.7 2085.79,1445.7 2086.46,1445.7 2087.14,1445.7 2087.81,1445.7 2088.49,1445.7 2089.16,1445.7 2089.84,1445.7 2090.51,1445.7 2091.19,1445.7 2091.86,1445.7 2092.54,1445.7 2093.21,1445.7 2093.89,1445.7 2094.56,1445.7 2095.24,1445.7 2095.91,1445.7 2096.59,1445.7 2097.26,1445.7 2097.94,1445.7 2098.61,1445.7 2099.29,1445.7 2099.96,1445.7 2100.64,1445.7 2101.31,1445.7 2101.99,1445.7 2102.66,1445.7 2103.34,1445.7 2104.01,1445.7 2104.69,1445.7 2105.36,1445.7 2106.04,1445.7 2106.71,1445.7 2107.39,1445.7 2108.06,1445.7 2108.74,1445.7 2109.41,1445.7 2110.09,1445.7 2110.76,1445.71 2111.44,1445.71 2112.11,1445.71 2112.79,1445.71 2113.46,1445.71 2114.14,1445.71 2114.81,1445.71 2115.49,1445.71 2116.16,1445.71 2116.84,1445.71 2117.51,1445.71 2118.19,1445.71 2118.86,1445.71 2119.54,1445.71 2120.21,1445.71 2120.89,1445.71 2121.56,1445.71 2122.24,1445.71 2122.91,1445.71 2123.59,1445.71 2124.26,1445.71 2124.94,1445.71 2125.61,1445.71 2126.29,1445.71 2126.96,1445.71 2127.64,1445.71 2128.31,1445.71 2128.99,1445.71 2129.66,1445.71 2130.34,1445.71 2131.01,1445.71 2131.69,1445.71 2132.36,1445.71 2133.04,1445.71 2133.71,1445.71 2134.39,1445.71 2135.06,1445.71 2135.74,1445.71 2136.41,1445.71 2137.09,1445.71 2137.76,1445.71 2138.44,1445.71 2139.11,1445.71 2139.79,1445.71 2140.47,1445.71 2141.14,1445.71 2141.82,1445.71 2142.49,1445.71 2143.17,1445.71 2143.84,1445.71 2144.52,1445.71 2145.19,1445.71 2145.87,1445.71 2146.54,1445.71 2147.22,1445.71 2147.89,1445.71 2148.57,1445.71 2149.24,1445.71 2149.92,1445.71 2150.59,1445.71 2151.27,1445.71 2151.94,1445.71 2152.62,1445.71 2153.29,1445.71 2153.97,1445.71 2154.64,1445.71 2155.32,1445.71 2155.99,1445.71 2156.67,1445.71 2157.34,1445.71 2158.02,1445.71 2158.69,1445.71 2159.37,1445.71 2160.04,1445.71 2160.72,1445.71 2161.39,1445.71 2162.07,1445.71 2162.74,1445.71 2163.42,1445.71 2164.09,1445.71 2164.77,1445.71 2165.44,1445.71 2166.12,1445.71 2166.79,1445.71 2167.47,1445.71 2168.14,1445.71 2168.82,1445.71 2169.49,1445.71 2170.17,1445.71 2170.84,1445.71 2171.52,1445.71 2172.19,1445.71 2172.87,1445.71 2173.54,1445.71 2174.22,1445.71 2174.89,1445.71 2175.57,1445.71 2176.24,1445.71 2176.92,1445.71 2177.59,1445.71 2178.27,1445.71 2178.94,1445.71 2179.62,1445.71 2180.29,1445.71 2180.97,1445.71 2181.64,1445.71 2182.32,1445.71 2182.99,1445.71 2183.67,1445.71 2184.34,1445.71 2185.02,1445.71 2185.69,1445.71 2186.37,1445.71 2187.04,1445.71 2187.72,1445.71 2188.39,1445.71 2189.07,1445.71 2189.74,1445.71 2190.42,1445.71 2191.09,1445.71 2191.77,1445.71 2192.44,1445.71 2193.12,1445.71 2193.79,1445.71 2194.47,1445.71 2195.14,1445.71 2195.82,1445.71 2196.49,1445.71 2197.17,1445.71 2197.84,1445.71 2198.52,1445.71 2199.19,1445.71 2199.87,1445.71 2200.54,1445.71 2201.22,1445.71 2201.89,1445.71 2202.57,1445.71 2203.24,1445.71 2203.92,1445.71 2204.59,1445.71 2205.27,1445.71 2205.94,1445.71 2206.62,1445.71 2207.29,1445.71 2207.97,1445.71 2208.64,1445.71 2209.32,1445.71 2209.99,1445.71 2210.67,1445.71 2211.34,1445.71 2212.02,1445.71 2212.69,1445.71 2213.37,1445.71 2214.04,1445.71 2214.72,1445.71 2215.39,1445.71 2216.07,1445.71 2216.74,1445.71 2217.42,1445.71 2218.09,1445.71 2218.77,1445.71 2219.44,1445.71 2220.12,1445.71 2220.79,1445.71 2221.47,1445.71 2222.14,1445.71 2222.82,1445.71 2223.49,1445.71 2224.17,1445.71 2224.84,1445.71 2225.52,1445.71 2226.19,1445.72 2226.87,1445.72 2227.54,1445.72 2228.22,1445.72 2228.89,1445.72 2229.57,1445.72 2230.24,1445.72 2230.92,1445.72 2231.59,1445.72 2232.27,1445.72 2232.94,1445.72 2233.62,1445.72 2234.29,1445.72 2234.97,1445.72 2235.64,1445.72 2236.32,1445.72 2236.99,1445.72 2237.67,1445.72 2238.34,1445.72 2239.02,1445.72 2239.69,1445.72 2240.37,1445.72 2241.04,1445.72 2241.72,1445.72 2242.39,1445.72 2243.07,1445.72 2243.74,1445.72 2244.42,1445.72 2245.1,1445.72 2245.77,1445.72 2246.45,1445.72 2247.12,1445.72 2247.8,1445.72 2248.47,1445.72 2249.15,1445.72 2249.82,1445.72 2250.5,1445.72 2251.17,1445.72 2251.85,1445.72 2252.52,1445.72 2253.2,1445.72 2253.87,1445.72 2254.55,1445.72 2255.22,1445.72 2255.9,1445.72 2256.57,1445.72 2257.25,1445.72 2257.92,1445.72 2258.6,1445.72 2259.27,1445.72 2259.95,1445.72 2260.62,1445.72 2261.3,1445.72 2261.97,1445.72 2262.65,1445.72 2263.32,1445.72 2264,1445.72 2264.67,1445.72 2265.35,1445.72 2266.02,1445.72 2266.7,1445.72 2267.37,1445.72 2268.05,1445.72 2268.72,1445.72 2269.4,1445.72 2270.07,1445.72 2270.75,1445.72 2271.42,1445.72 2272.1,1445.72 2272.77,1445.72 2273.45,1445.72 2274.12,1445.72 2274.8,1445.72 2275.47,1445.72 2276.15,1445.72 2276.82,1445.72 2277.5,1445.72 2278.17,1445.72 2278.85,1445.72 2279.52,1445.72 2280.2,1445.72 2280.87,1445.72 2281.55,1445.72 2282.22,1445.72 2282.9,1445.72 2283.57,1445.72 2284.25,1445.72 2284.92,1445.72 2285.6,1445.72 2286.27,1445.72 2286.95,1445.72 2287.62,1445.72 2288.3,1445.72 2288.97,1445.72 2289.65,1445.72 2290.32,1445.72 2291,1445.72 2291.67,1445.72 2292.35,1445.72 2293.02,1445.72 2293.7,1445.72 2294.37,1445.72 2295.05,1445.72 2295.72,1445.72 2296.4,1445.72 2297.07,1445.72 2297.75,1445.72 2298.42,1445.72 2299.1,1445.72 2299.77,1445.72 2300.45,1445.72 2301.12,1445.72 2301.8,1445.72 2302.47,1445.72 2303.15,1445.72 2303.82,1445.72 2304.5,1445.72 2305.17,1445.72 2305.85,1445.72 2306.52,1445.72 2307.2,1445.72 2307.87,1445.72 2308.55,1445.72 2309.22,1445.72 2309.9,1445.72 2310.57,1445.72 2311.25,1445.72 2311.92,1445.72 2312.6,1445.72 2313.27,1445.72 2313.95,1445.72 2314.62,1445.72 2315.3,1445.72 2315.97,1445.72 2316.65,1445.72 2317.32,1445.72 2318,1445.72 2318.67,1445.72 2319.35,1445.72 2320.02,1445.72 2320.7,1445.72 2321.37,1445.72 2322.05,1445.72 2322.72,1445.72 2323.4,1445.72 2324.07,1445.72 2324.75,1445.72 "/>
<path clip-path="url(#clip960)" d="M2085.4 198.898 L2319.77 198.898 L2319.77 95.2176 L2085.4 95.2176  Z" fill="#ffffff" fill-rule="evenodd" fill-opacity="1"/>
<polyline clip-path="url(#clip960)" style="stroke:#000000; stroke-linecap:round; stroke-linejoin:round; stroke-width:4; stroke-opacity:1; fill:none" points="2085.4,198.898 2319.77,198.898 2319.77,95.2176 2085.4,95.2176 2085.4,198.898 "/>
<polyline clip-path="url(#clip960)" style="stroke:#009af9; stroke-linecap:round; stroke-linejoin:round; stroke-width:4; stroke-opacity:1; fill:none" points="2096.39,147.058 2162.36,147.058 "/>
<path clip-path="url(#clip960)" d="M2191.78 139.176 L2191.78 143.203 Q2189.98 142.277 2188.03 141.815 Q2186.09 141.352 2184.01 141.352 Q2180.84 141.352 2179.24 142.324 Q2177.66 143.296 2177.66 145.24 Q2177.66 146.722 2178.8 147.578 Q2179.93 148.412 2183.36 149.176 L2184.82 149.5 Q2189.35 150.472 2191.25 152.254 Q2193.17 154.014 2193.17 157.185 Q2193.17 160.796 2190.3 162.902 Q2187.46 165.009 2182.46 165.009 Q2180.37 165.009 2178.1 164.592 Q2175.86 164.199 2173.36 163.388 L2173.36 158.99 Q2175.72 160.217 2178.01 160.842 Q2180.3 161.444 2182.55 161.444 Q2185.56 161.444 2187.18 160.426 Q2188.8 159.384 2188.8 157.509 Q2188.8 155.773 2187.62 154.847 Q2186.46 153.921 2182.5 153.064 L2181.02 152.717 Q2177.06 151.884 2175.3 150.171 Q2173.54 148.435 2173.54 145.426 Q2173.54 141.768 2176.14 139.778 Q2178.73 137.787 2183.5 137.787 Q2185.86 137.787 2187.94 138.134 Q2190.03 138.481 2191.78 139.176 Z" fill="#000000" fill-rule="nonzero" fill-opacity="1" /><path clip-path="url(#clip960)" d="M2204.17 131.051 L2204.17 138.412 L2212.94 138.412 L2212.94 141.722 L2204.17 141.722 L2204.17 155.796 Q2204.17 158.967 2205.02 159.87 Q2205.9 160.773 2208.57 160.773 L2212.94 160.773 L2212.94 164.338 L2208.57 164.338 Q2203.64 164.338 2201.76 162.509 Q2199.89 160.657 2199.89 155.796 L2199.89 141.722 L2196.76 141.722 L2196.76 138.412 L2199.89 138.412 L2199.89 131.051 L2204.17 131.051 Z" fill="#000000" fill-rule="nonzero" fill-opacity="1" /><path clip-path="url(#clip960)" d="M2233.57 142.393 Q2232.85 141.977 2231.99 141.791 Q2231.16 141.583 2230.14 141.583 Q2226.53 141.583 2224.59 143.944 Q2222.66 146.282 2222.66 150.68 L2222.66 164.338 L2218.38 164.338 L2218.38 138.412 L2222.66 138.412 L2222.66 142.44 Q2224.01 140.078 2226.16 138.944 Q2228.31 137.787 2231.39 137.787 Q2231.83 137.787 2232.36 137.856 Q2232.9 137.903 2233.54 138.018 L2233.57 142.393 Z" fill="#000000" fill-rule="nonzero" fill-opacity="1" /><path clip-path="url(#clip960)" d="M2259.17 150.31 L2259.17 152.393 L2239.58 152.393 Q2239.86 156.791 2242.22 159.106 Q2244.61 161.398 2248.84 161.398 Q2251.3 161.398 2253.59 160.796 Q2255.9 160.194 2258.17 158.99 L2258.17 163.018 Q2255.88 163.99 2253.47 164.5 Q2251.07 165.009 2248.59 165.009 Q2242.39 165.009 2238.75 161.398 Q2235.14 157.787 2235.14 151.629 Q2235.14 145.264 2238.57 141.537 Q2242.02 137.787 2247.85 137.787 Q2253.08 137.787 2256.11 141.166 Q2259.17 144.523 2259.17 150.31 M2254.91 149.06 Q2254.86 145.565 2252.94 143.481 Q2251.04 141.398 2247.9 141.398 Q2244.33 141.398 2242.18 143.412 Q2240.05 145.426 2239.72 149.083 L2254.91 149.06 Z" fill="#000000" fill-rule="nonzero" fill-opacity="1" /><path clip-path="url(#clip960)" d="M2282.69 139.176 L2282.69 143.203 Q2280.88 142.277 2278.94 141.815 Q2276.99 141.352 2274.91 141.352 Q2271.74 141.352 2270.14 142.324 Q2268.57 143.296 2268.57 145.24 Q2268.57 146.722 2269.7 147.578 Q2270.83 148.412 2274.26 149.176 L2275.72 149.5 Q2280.26 150.472 2282.15 152.254 Q2284.08 154.014 2284.08 157.185 Q2284.08 160.796 2281.21 162.902 Q2278.36 165.009 2273.36 165.009 Q2271.27 165.009 2269.01 164.592 Q2266.76 164.199 2264.26 163.388 L2264.26 158.99 Q2266.62 160.217 2268.91 160.842 Q2271.21 161.444 2273.45 161.444 Q2276.46 161.444 2278.08 160.426 Q2279.7 159.384 2279.7 157.509 Q2279.7 155.773 2278.52 154.847 Q2277.36 153.921 2273.4 153.064 L2271.92 152.717 Q2267.96 151.884 2266.21 150.171 Q2264.45 148.435 2264.45 145.426 Q2264.45 141.768 2267.04 139.778 Q2269.63 137.787 2274.4 137.787 Q2276.76 137.787 2278.84 138.134 Q2280.93 138.481 2282.69 139.176 Z" fill="#000000" fill-rule="nonzero" fill-opacity="1" /><path clip-path="url(#clip960)" d="M2307.39 139.176 L2307.39 143.203 Q2305.58 142.277 2303.64 141.815 Q2301.69 141.352 2299.61 141.352 Q2296.44 141.352 2294.84 142.324 Q2293.27 143.296 2293.27 145.24 Q2293.27 146.722 2294.4 147.578 Q2295.53 148.412 2298.96 149.176 L2300.42 149.5 Q2304.95 150.472 2306.85 152.254 Q2308.77 154.014 2308.77 157.185 Q2308.77 160.796 2305.9 162.902 Q2303.06 165.009 2298.06 165.009 Q2295.97 165.009 2293.71 164.592 Q2291.46 164.199 2288.96 163.388 L2288.96 158.99 Q2291.32 160.217 2293.61 160.842 Q2295.9 161.444 2298.15 161.444 Q2301.16 161.444 2302.78 160.426 Q2304.4 159.384 2304.4 157.509 Q2304.4 155.773 2303.22 154.847 Q2302.06 153.921 2298.1 153.064 L2296.62 152.717 Q2292.66 151.884 2290.9 150.171 Q2289.14 148.435 2289.14 145.426 Q2289.14 141.768 2291.74 139.778 Q2294.33 137.787 2299.1 137.787 Q2301.46 137.787 2303.54 138.134 Q2305.63 138.481 2307.39 139.176 Z" fill="#000000" fill-rule="nonzero" fill-opacity="1" /></svg>
