<?xml version="1.0" encoding="utf-8"?>
<svg xmlns="http://www.w3.org/2000/svg" xmlns:xlink="http://www.w3.org/1999/xlink" width="600" height="400" viewBox="0 0 2400 1600">
<defs>
  <clipPath id="clip760">
    <rect x="0" y="0" width="2400" height="1600"/>
  </clipPath>
</defs>
<path clip-path="url(#clip760)" d="M0 1600 L2400 1600 L2400 0 L0 0  Z" fill="#ffffff" fill-rule="evenodd" fill-opacity="1"/>
<defs>
  <clipPath id="clip761">
    <rect x="1379" y="47" width="975" height="1440"/>
  </clipPath>
</defs>
<path clip-path="url(#clip760)" d="M149.191 1486.45 L1122.84 1486.45 L1122.84 47.2441 L149.191 47.2441  Z" fill="#ffffff" fill-rule="evenodd" fill-opacity="1"/>
<defs>
  <clipPath id="clip762">
    <rect x="149" y="47" width="975" height="1440"/>
  </clipPath>
</defs>
<polyline clip-path="url(#clip762)" style="stroke:#000000; stroke-linecap:round; stroke-linejoin:round; stroke-width:2; stroke-opacity:0.1; fill:none" points="293.165,1486.45 293.165,47.2441 "/>
<polyline clip-path="url(#clip762)" style="stroke:#000000; stroke-linecap:round; stroke-linejoin:round; stroke-width:2; stroke-opacity:0.1; fill:none" points="519.808,1486.45 519.808,47.2441 "/>
<polyline clip-path="url(#clip762)" style="stroke:#000000; stroke-linecap:round; stroke-linejoin:round; stroke-width:2; stroke-opacity:0.1; fill:none" points="746.45,1486.45 746.45,47.2441 "/>
<polyline clip-path="url(#clip762)" style="stroke:#000000; stroke-linecap:round; stroke-linejoin:round; stroke-width:2; stroke-opacity:0.1; fill:none" points="973.092,1486.45 973.092,47.2441 "/>
<polyline clip-path="url(#clip762)" style="stroke:#000000; stroke-linecap:round; stroke-linejoin:round; stroke-width:2; stroke-opacity:0.1; fill:none" points="149.191,1326.85 1122.84,1326.85 "/>
<polyline clip-path="url(#clip762)" style="stroke:#000000; stroke-linecap:round; stroke-linejoin:round; stroke-width:2; stroke-opacity:0.1; fill:none" points="149.191,1043.54 1122.84,1043.54 "/>
<polyline clip-path="url(#clip762)" style="stroke:#000000; stroke-linecap:round; stroke-linejoin:round; stroke-width:2; stroke-opacity:0.1; fill:none" points="149.191,760.242 1122.84,760.242 "/>
<polyline clip-path="url(#clip762)" style="stroke:#000000; stroke-linecap:round; stroke-linejoin:round; stroke-width:2; stroke-opacity:0.1; fill:none" points="149.191,476.939 1122.84,476.939 "/>
<polyline clip-path="url(#clip762)" style="stroke:#000000; stroke-linecap:round; stroke-linejoin:round; stroke-width:2; stroke-opacity:0.1; fill:none" points="149.191,193.636 1122.84,193.636 "/>
<polyline clip-path="url(#clip760)" style="stroke:#000000; stroke-linecap:round; stroke-linejoin:round; stroke-width:4; stroke-opacity:1; fill:none" points="149.191,1486.45 1122.84,1486.45 "/>
<polyline clip-path="url(#clip760)" style="stroke:#000000; stroke-linecap:round; stroke-linejoin:round; stroke-width:4; stroke-opacity:1; fill:none" points="293.165,1486.45 293.165,1467.55 "/>
<polyline clip-path="url(#clip760)" style="stroke:#000000; stroke-linecap:round; stroke-linejoin:round; stroke-width:4; stroke-opacity:1; fill:none" points="519.808,1486.45 519.808,1467.55 "/>
<polyline clip-path="url(#clip760)" style="stroke:#000000; stroke-linecap:round; stroke-linejoin:round; stroke-width:4; stroke-opacity:1; fill:none" points="746.45,1486.45 746.45,1467.55 "/>
<polyline clip-path="url(#clip760)" style="stroke:#000000; stroke-linecap:round; stroke-linejoin:round; stroke-width:4; stroke-opacity:1; fill:none" points="973.092,1486.45 973.092,1467.55 "/>
<path clip-path="url(#clip760)" d="M263.108 1532.02 L292.783 1532.02 L292.783 1535.95 L263.108 1535.95 L263.108 1532.02 Z" fill="#000000" fill-rule="nonzero" fill-opacity="1" /><path clip-path="url(#clip760)" d="M306.904 1544.91 L323.223 1544.91 L323.223 1548.85 L301.279 1548.85 L301.279 1544.91 Q303.941 1542.16 308.524 1537.53 Q313.13 1532.88 314.311 1531.53 Q316.556 1529.01 317.436 1527.27 Q318.339 1525.51 318.339 1523.82 Q318.339 1521.07 316.394 1519.33 Q314.473 1517.6 311.371 1517.6 Q309.172 1517.6 306.718 1518.36 Q304.288 1519.13 301.51 1520.68 L301.51 1515.95 Q304.334 1514.82 306.788 1514.24 Q309.242 1513.66 311.279 1513.66 Q316.649 1513.66 319.843 1516.35 Q323.038 1519.03 323.038 1523.52 Q323.038 1525.65 322.228 1527.57 Q321.441 1529.47 319.334 1532.07 Q318.755 1532.74 315.654 1535.95 Q312.552 1539.15 306.904 1544.91 Z" fill="#000000" fill-rule="nonzero" fill-opacity="1" /><path clip-path="url(#clip760)" d="M519.808 1517.37 Q516.196 1517.37 514.368 1520.93 Q512.562 1524.47 512.562 1531.6 Q512.562 1538.71 514.368 1542.27 Q516.196 1545.82 519.808 1545.82 Q523.442 1545.82 525.247 1542.27 Q527.076 1538.71 527.076 1531.6 Q527.076 1524.47 525.247 1520.93 Q523.442 1517.37 519.808 1517.37 M519.808 1513.66 Q525.618 1513.66 528.673 1518.27 Q531.752 1522.85 531.752 1531.6 Q531.752 1540.33 528.673 1544.94 Q525.618 1549.52 519.808 1549.52 Q513.997 1549.52 510.919 1544.94 Q507.863 1540.33 507.863 1531.6 Q507.863 1522.85 510.919 1518.27 Q513.997 1513.66 519.808 1513.66 Z" fill="#000000" fill-rule="nonzero" fill-opacity="1" /><path clip-path="url(#clip760)" d="M741.103 1544.91 L757.422 1544.91 L757.422 1548.85 L735.478 1548.85 L735.478 1544.91 Q738.14 1542.16 742.723 1537.53 Q747.329 1532.88 748.51 1531.53 Q750.755 1529.01 751.635 1527.27 Q752.538 1525.51 752.538 1523.82 Q752.538 1521.07 750.593 1519.33 Q748.672 1517.6 745.57 1517.6 Q743.371 1517.6 740.917 1518.36 Q738.487 1519.13 735.709 1520.68 L735.709 1515.95 Q738.533 1514.82 740.987 1514.24 Q743.44 1513.66 745.478 1513.66 Q750.848 1513.66 754.042 1516.35 Q757.237 1519.03 757.237 1523.52 Q757.237 1525.65 756.427 1527.57 Q755.639 1529.47 753.533 1532.07 Q752.954 1532.74 749.852 1535.95 Q746.751 1539.15 741.103 1544.91 Z" fill="#000000" fill-rule="nonzero" fill-opacity="1" /><path clip-path="url(#clip760)" d="M976.101 1518.36 L964.296 1536.81 L976.101 1536.81 L976.101 1518.36 M974.874 1514.29 L980.754 1514.29 L980.754 1536.81 L985.684 1536.81 L985.684 1540.7 L980.754 1540.7 L980.754 1548.85 L976.101 1548.85 L976.101 1540.7 L960.499 1540.7 L960.499 1536.19 L974.874 1514.29 Z" fill="#000000" fill-rule="nonzero" fill-opacity="1" /><polyline clip-path="url(#clip760)" style="stroke:#000000; stroke-linecap:round; stroke-linejoin:round; stroke-width:4; stroke-opacity:1; fill:none" points="149.191,1486.45 149.191,47.2441 "/>
<polyline clip-path="url(#clip760)" style="stroke:#000000; stroke-linecap:round; stroke-linejoin:round; stroke-width:4; stroke-opacity:1; fill:none" points="149.191,1326.85 168.089,1326.85 "/>
<polyline clip-path="url(#clip760)" style="stroke:#000000; stroke-linecap:round; stroke-linejoin:round; stroke-width:4; stroke-opacity:1; fill:none" points="149.191,1043.54 168.089,1043.54 "/>
<polyline clip-path="url(#clip760)" style="stroke:#000000; stroke-linecap:round; stroke-linejoin:round; stroke-width:4; stroke-opacity:1; fill:none" points="149.191,760.242 168.089,760.242 "/>
<polyline clip-path="url(#clip760)" style="stroke:#000000; stroke-linecap:round; stroke-linejoin:round; stroke-width:4; stroke-opacity:1; fill:none" points="149.191,476.939 168.089,476.939 "/>
<polyline clip-path="url(#clip760)" style="stroke:#000000; stroke-linecap:round; stroke-linejoin:round; stroke-width:4; stroke-opacity:1; fill:none" points="149.191,193.636 168.089,193.636 "/>
<path clip-path="url(#clip760)" d="M6.247 1327.3 L35.9228 1327.3 L35.9228 1331.23 L6.247 1331.23 L6.247 1327.3 Z" fill="#000000" fill-rule="nonzero" fill-opacity="1" /><path clip-path="url(#clip760)" d="M46.0616 1309.57 L64.418 1309.57 L64.418 1313.5 L50.344 1313.5 L50.344 1321.97 Q51.3625 1321.63 52.381 1321.47 Q53.3995 1321.28 54.418 1321.28 Q60.205 1321.28 63.5847 1324.45 Q66.9643 1327.62 66.9643 1333.04 Q66.9643 1338.62 63.4921 1341.72 Q60.0199 1344.8 53.7004 1344.8 Q51.5245 1344.8 49.256 1344.43 Q47.0107 1344.06 44.6033 1343.32 L44.6033 1338.62 Q46.6866 1339.75 48.9088 1340.31 Q51.131 1340.86 53.6079 1340.86 Q57.6125 1340.86 59.9504 1338.76 Q62.2884 1336.65 62.2884 1333.04 Q62.2884 1329.43 59.9504 1327.32 Q57.6125 1325.22 53.6079 1325.22 Q51.7329 1325.22 49.8579 1325.63 Q48.006 1326.05 46.0616 1326.93 L46.0616 1309.57 Z" fill="#000000" fill-rule="nonzero" fill-opacity="1" /><path clip-path="url(#clip760)" d="M76.1772 1338.25 L81.0614 1338.25 L81.0614 1344.13 L76.1772 1344.13 L76.1772 1338.25 Z" fill="#000000" fill-rule="nonzero" fill-opacity="1" /><path clip-path="url(#clip760)" d="M101.246 1312.65 Q97.6354 1312.65 95.8067 1316.21 Q94.0012 1319.75 94.0012 1326.88 Q94.0012 1333.99 95.8067 1337.55 Q97.6354 1341.09 101.246 1341.09 Q104.881 1341.09 106.686 1337.55 Q108.515 1333.99 108.515 1326.88 Q108.515 1319.75 106.686 1316.21 Q104.881 1312.65 101.246 1312.65 M101.246 1308.94 Q107.057 1308.94 110.112 1313.55 Q113.191 1318.13 113.191 1326.88 Q113.191 1335.61 110.112 1340.22 Q107.057 1344.8 101.246 1344.8 Q95.4363 1344.8 92.3576 1340.22 Q89.3021 1335.61 89.3021 1326.88 Q89.3021 1318.13 92.3576 1313.55 Q95.4363 1308.94 101.246 1308.94 Z" fill="#000000" fill-rule="nonzero" fill-opacity="1" /><path clip-path="url(#clip760)" d="M7.24236 1044 L36.9181 1044 L36.9181 1047.93 L7.24236 1047.93 L7.24236 1044 Z" fill="#000000" fill-rule="nonzero" fill-opacity="1" /><path clip-path="url(#clip760)" d="M51.0384 1056.89 L67.3578 1056.89 L67.3578 1060.82 L45.4135 1060.82 L45.4135 1056.89 Q48.0755 1054.13 52.6588 1049.5 Q57.2652 1044.85 58.4458 1043.51 Q60.6911 1040.99 61.5708 1039.25 Q62.4735 1037.49 62.4735 1035.8 Q62.4735 1033.05 60.5291 1031.31 Q58.6078 1029.57 55.506 1029.57 Q53.3069 1029.57 50.8532 1030.34 Q48.4227 1031.1 45.6449 1032.65 L45.6449 1027.93 Q48.469 1026.8 50.9227 1026.22 Q53.3764 1025.64 55.4134 1025.64 Q60.7837 1025.64 63.9782 1028.32 Q67.1726 1031.01 67.1726 1035.5 Q67.1726 1037.63 66.3624 1039.55 Q65.5754 1041.45 63.4689 1044.04 Q62.8902 1044.71 59.7884 1047.93 Q56.6865 1051.13 51.0384 1056.89 Z" fill="#000000" fill-rule="nonzero" fill-opacity="1" /><path clip-path="url(#clip760)" d="M77.1725 1054.94 L82.0568 1054.94 L82.0568 1060.82 L77.1725 1060.82 L77.1725 1054.94 Z" fill="#000000" fill-rule="nonzero" fill-opacity="1" /><path clip-path="url(#clip760)" d="M92.2882 1026.26 L110.645 1026.26 L110.645 1030.2 L96.5706 1030.2 L96.5706 1038.67 Q97.5891 1038.32 98.6076 1038.16 Q99.6261 1037.98 100.645 1037.98 Q106.432 1037.98 109.811 1041.15 Q113.191 1044.32 113.191 1049.74 Q113.191 1055.32 109.719 1058.42 Q106.246 1061.5 99.927 1061.5 Q97.7511 1061.5 95.4826 1061.13 Q93.2373 1060.75 90.8299 1060.01 L90.8299 1055.32 Q92.9132 1056.45 95.1354 1057 Q97.3576 1057.56 99.8345 1057.56 Q103.839 1057.56 106.177 1055.45 Q108.515 1053.35 108.515 1049.74 Q108.515 1046.13 106.177 1044.02 Q103.839 1041.91 99.8345 1041.91 Q97.9595 1041.91 96.0845 1042.33 Q94.2326 1042.75 92.2882 1043.63 L92.2882 1026.26 Z" fill="#000000" fill-rule="nonzero" fill-opacity="1" /><path clip-path="url(#clip760)" d="M56.0152 746.04 Q52.4042 746.04 50.5755 749.605 Q48.7699 753.147 48.7699 760.276 Q48.7699 767.383 50.5755 770.948 Q52.4042 774.489 56.0152 774.489 Q59.6495 774.489 61.455 770.948 Q63.2837 767.383 63.2837 760.276 Q63.2837 753.147 61.455 749.605 Q59.6495 746.04 56.0152 746.04 M56.0152 742.337 Q61.8254 742.337 64.8809 746.943 Q67.9596 751.526 67.9596 760.276 Q67.9596 769.003 64.8809 773.61 Q61.8254 778.193 56.0152 778.193 Q50.2051 778.193 47.1264 773.61 Q44.0709 769.003 44.0709 760.276 Q44.0709 751.526 47.1264 746.943 Q50.2051 742.337 56.0152 742.337 Z" fill="#000000" fill-rule="nonzero" fill-opacity="1" /><path clip-path="url(#clip760)" d="M76.1772 771.642 L81.0614 771.642 L81.0614 777.522 L76.1772 777.522 L76.1772 771.642 Z" fill="#000000" fill-rule="nonzero" fill-opacity="1" /><path clip-path="url(#clip760)" d="M101.246 746.04 Q97.6354 746.04 95.8067 749.605 Q94.0012 753.147 94.0012 760.276 Q94.0012 767.383 95.8067 770.948 Q97.6354 774.489 101.246 774.489 Q104.881 774.489 106.686 770.948 Q108.515 767.383 108.515 760.276 Q108.515 753.147 106.686 749.605 Q104.881 746.04 101.246 746.04 M101.246 742.337 Q107.057 742.337 110.112 746.943 Q113.191 751.526 113.191 760.276 Q113.191 769.003 110.112 773.61 Q107.057 778.193 101.246 778.193 Q95.4363 778.193 92.3576 773.61 Q89.3021 769.003 89.3021 760.276 Q89.3021 751.526 92.3576 746.943 Q95.4363 742.337 101.246 742.337 Z" fill="#000000" fill-rule="nonzero" fill-opacity="1" /><path clip-path="url(#clip760)" d="M51.0384 490.284 L67.3578 490.284 L67.3578 494.219 L45.4135 494.219 L45.4135 490.284 Q48.0755 487.529 52.6588 482.899 Q57.2652 478.247 58.4458 476.904 Q60.6911 474.381 61.5708 472.645 Q62.4735 470.886 62.4735 469.196 Q62.4735 466.441 60.5291 464.705 Q58.6078 462.969 55.506 462.969 Q53.3069 462.969 50.8532 463.733 Q48.4227 464.497 45.6449 466.048 L45.6449 461.326 Q48.469 460.191 50.9227 459.613 Q53.3764 459.034 55.4134 459.034 Q60.7837 459.034 63.9782 461.719 Q67.1726 464.404 67.1726 468.895 Q67.1726 471.025 66.3624 472.946 Q65.5754 474.844 63.4689 477.437 Q62.8902 478.108 59.7884 481.325 Q56.6865 484.52 51.0384 490.284 Z" fill="#000000" fill-rule="nonzero" fill-opacity="1" /><path clip-path="url(#clip760)" d="M77.1725 488.339 L82.0568 488.339 L82.0568 494.219 L77.1725 494.219 L77.1725 488.339 Z" fill="#000000" fill-rule="nonzero" fill-opacity="1" /><path clip-path="url(#clip760)" d="M92.2882 459.659 L110.645 459.659 L110.645 463.594 L96.5706 463.594 L96.5706 472.066 Q97.5891 471.719 98.6076 471.557 Q99.6261 471.372 100.645 471.372 Q106.432 471.372 109.811 474.543 Q113.191 477.714 113.191 483.131 Q113.191 488.71 109.719 491.811 Q106.246 494.89 99.927 494.89 Q97.7511 494.89 95.4826 494.52 Q93.2373 494.149 90.8299 493.409 L90.8299 488.71 Q92.9132 489.844 95.1354 490.399 Q97.3576 490.955 99.8345 490.955 Q103.839 490.955 106.177 488.849 Q108.515 486.742 108.515 483.131 Q108.515 479.52 106.177 477.413 Q103.839 475.307 99.8345 475.307 Q97.9595 475.307 96.0845 475.724 Q94.2326 476.14 92.2882 477.02 L92.2882 459.659 Z" fill="#000000" fill-rule="nonzero" fill-opacity="1" /><path clip-path="url(#clip760)" d="M46.0616 176.356 L64.418 176.356 L64.418 180.291 L50.344 180.291 L50.344 188.763 Q51.3625 188.416 52.381 188.254 Q53.3995 188.069 54.418 188.069 Q60.205 188.069 63.5847 191.24 Q66.9643 194.412 66.9643 199.828 Q66.9643 205.407 63.4921 208.509 Q60.0199 211.587 53.7004 211.587 Q51.5245 211.587 49.256 211.217 Q47.0107 210.847 44.6033 210.106 L44.6033 205.407 Q46.6866 206.541 48.9088 207.097 Q51.131 207.652 53.6079 207.652 Q57.6125 207.652 59.9504 205.546 Q62.2884 203.439 62.2884 199.828 Q62.2884 196.217 59.9504 194.111 Q57.6125 192.004 53.6079 192.004 Q51.7329 192.004 49.8579 192.421 Q48.006 192.837 46.0616 193.717 L46.0616 176.356 Z" fill="#000000" fill-rule="nonzero" fill-opacity="1" /><path clip-path="url(#clip760)" d="M76.1772 205.036 L81.0614 205.036 L81.0614 210.916 L76.1772 210.916 L76.1772 205.036 Z" fill="#000000" fill-rule="nonzero" fill-opacity="1" /><path clip-path="url(#clip760)" d="M101.246 179.435 Q97.6354 179.435 95.8067 183 Q94.0012 186.541 94.0012 193.671 Q94.0012 200.777 95.8067 204.342 Q97.6354 207.884 101.246 207.884 Q104.881 207.884 106.686 204.342 Q108.515 200.777 108.515 193.671 Q108.515 186.541 106.686 183 Q104.881 179.435 101.246 179.435 M101.246 175.731 Q107.057 175.731 110.112 180.338 Q113.191 184.921 113.191 193.671 Q113.191 202.398 110.112 207.004 Q107.057 211.587 101.246 211.587 Q95.4363 211.587 92.3576 207.004 Q89.3021 202.398 89.3021 193.671 Q89.3021 184.921 92.3576 180.338 Q95.4363 175.731 101.246 175.731 Z" fill="#000000" fill-rule="nonzero" fill-opacity="1" /><polyline clip-path="url(#clip762)" style="stroke:#000000; stroke-linecap:round; stroke-linejoin:round; stroke-width:4; stroke-opacity:1; fill:none" points="176.747,637.657 277.33,527.517 "/>
<polyline clip-path="url(#clip762)" style="stroke:#000000; stroke-linecap:round; stroke-linejoin:round; stroke-width:4; stroke-opacity:1; fill:none" points="176.747,637.657 315.237,791.372 "/>
<polyline clip-path="url(#clip762)" style="stroke:#000000; stroke-linecap:round; stroke-linejoin:round; stroke-width:4; stroke-opacity:1; fill:none" points="176.747,637.657 428.555,585.416 "/>
<polyline clip-path="url(#clip762)" style="stroke:#000000; stroke-linecap:round; stroke-linejoin:round; stroke-width:4; stroke-opacity:1; fill:none" points="277.33,527.517 315.237,791.372 "/>
<polyline clip-path="url(#clip762)" style="stroke:#000000; stroke-linecap:round; stroke-linejoin:round; stroke-width:4; stroke-opacity:1; fill:none" points="277.33,527.517 318.826,289.477 "/>
<polyline clip-path="url(#clip762)" style="stroke:#000000; stroke-linecap:round; stroke-linejoin:round; stroke-width:4; stroke-opacity:1; fill:none" points="277.33,527.517 565.179,567.727 "/>
<polyline clip-path="url(#clip762)" style="stroke:#000000; stroke-linecap:round; stroke-linejoin:round; stroke-width:4; stroke-opacity:1; fill:none" points="315.237,791.372 469.796,469.083 "/>
<polyline clip-path="url(#clip762)" style="stroke:#000000; stroke-linecap:round; stroke-linejoin:round; stroke-width:4; stroke-opacity:1; fill:none" points="315.237,791.372 261.609,1135.04 "/>
<polyline clip-path="url(#clip762)" style="stroke:#000000; stroke-linecap:round; stroke-linejoin:round; stroke-width:4; stroke-opacity:1; fill:none" points="315.237,791.372 529.954,1016.08 "/>
<polyline clip-path="url(#clip762)" style="stroke:#000000; stroke-linecap:round; stroke-linejoin:round; stroke-width:4; stroke-opacity:1; fill:none" points="318.826,289.477 469.796,469.083 "/>
<polyline clip-path="url(#clip762)" style="stroke:#000000; stroke-linecap:round; stroke-linejoin:round; stroke-width:4; stroke-opacity:1; fill:none" points="318.826,289.477 526.917,217.879 "/>
<polyline clip-path="url(#clip762)" style="stroke:#000000; stroke-linecap:round; stroke-linejoin:round; stroke-width:4; stroke-opacity:1; fill:none" points="469.796,469.083 526.917,217.879 "/>
<polyline clip-path="url(#clip762)" style="stroke:#000000; stroke-linecap:round; stroke-linejoin:round; stroke-width:4; stroke-opacity:1; fill:none" points="469.796,469.083 652.344,319.091 "/>
<polyline clip-path="url(#clip762)" style="stroke:#000000; stroke-linecap:round; stroke-linejoin:round; stroke-width:4; stroke-opacity:1; fill:none" points="469.796,469.083 671.107,743.162 "/>
<polyline clip-path="url(#clip762)" style="stroke:#000000; stroke-linecap:round; stroke-linejoin:round; stroke-width:4; stroke-opacity:1; fill:none" points="526.917,217.879 652.344,319.091 "/>
<polyline clip-path="url(#clip762)" style="stroke:#000000; stroke-linecap:round; stroke-linejoin:round; stroke-width:4; stroke-opacity:1; fill:none" points="526.917,217.879 783.783,260.921 "/>
<polyline clip-path="url(#clip762)" style="stroke:#000000; stroke-linecap:round; stroke-linejoin:round; stroke-width:4; stroke-opacity:1; fill:none" points="652.344,319.091 783.783,260.921 "/>
<polyline clip-path="url(#clip762)" style="stroke:#000000; stroke-linecap:round; stroke-linejoin:round; stroke-width:4; stroke-opacity:1; fill:none" points="652.344,319.091 905.761,314.089 "/>
<polyline clip-path="url(#clip762)" style="stroke:#000000; stroke-linecap:round; stroke-linejoin:round; stroke-width:4; stroke-opacity:1; fill:none" points="652.344,319.091 565.179,567.727 "/>
<polyline clip-path="url(#clip762)" style="stroke:#000000; stroke-linecap:round; stroke-linejoin:round; stroke-width:4; stroke-opacity:1; fill:none" points="783.783,260.921 905.761,314.089 "/>
<polyline clip-path="url(#clip762)" style="stroke:#000000; stroke-linecap:round; stroke-linejoin:round; stroke-width:4; stroke-opacity:1; fill:none" points="783.783,260.921 889.984,563.71 "/>
<polyline clip-path="url(#clip762)" style="stroke:#000000; stroke-linecap:round; stroke-linejoin:round; stroke-width:4; stroke-opacity:1; fill:none" points="905.761,314.089 767.61,534.055 "/>
<polyline clip-path="url(#clip762)" style="stroke:#000000; stroke-linecap:round; stroke-linejoin:round; stroke-width:4; stroke-opacity:1; fill:none" points="905.761,314.089 1095.28,419.684 "/>
<polyline clip-path="url(#clip762)" style="stroke:#000000; stroke-linecap:round; stroke-linejoin:round; stroke-width:4; stroke-opacity:1; fill:none" points="767.61,534.055 1035.87,593.275 "/>
<polyline clip-path="url(#clip762)" style="stroke:#000000; stroke-linecap:round; stroke-linejoin:round; stroke-width:4; stroke-opacity:1; fill:none" points="767.61,534.055 671.107,743.162 "/>
<polyline clip-path="url(#clip762)" style="stroke:#000000; stroke-linecap:round; stroke-linejoin:round; stroke-width:4; stroke-opacity:1; fill:none" points="767.61,534.055 428.555,585.416 "/>
<polyline clip-path="url(#clip762)" style="stroke:#000000; stroke-linecap:round; stroke-linejoin:round; stroke-width:4; stroke-opacity:1; fill:none" points="1095.28,419.684 1035.87,593.275 "/>
<polyline clip-path="url(#clip762)" style="stroke:#000000; stroke-linecap:round; stroke-linejoin:round; stroke-width:4; stroke-opacity:1; fill:none" points="1095.28,419.684 889.984,563.71 "/>
<polyline clip-path="url(#clip762)" style="stroke:#000000; stroke-linecap:round; stroke-linejoin:round; stroke-width:4; stroke-opacity:1; fill:none" points="1035.87,593.275 889.984,563.71 "/>
<polyline clip-path="url(#clip762)" style="stroke:#000000; stroke-linecap:round; stroke-linejoin:round; stroke-width:4; stroke-opacity:1; fill:none" points="1035.87,593.275 932.815,793.18 "/>
<polyline clip-path="url(#clip762)" style="stroke:#000000; stroke-linecap:round; stroke-linejoin:round; stroke-width:4; stroke-opacity:1; fill:none" points="889.984,563.71 671.107,743.162 "/>
<polyline clip-path="url(#clip762)" style="stroke:#000000; stroke-linecap:round; stroke-linejoin:round; stroke-width:4; stroke-opacity:1; fill:none" points="889.984,563.71 736.042,838.974 "/>
<polyline clip-path="url(#clip762)" style="stroke:#000000; stroke-linecap:round; stroke-linejoin:round; stroke-width:4; stroke-opacity:1; fill:none" points="932.815,793.18 671.107,743.162 "/>
<polyline clip-path="url(#clip762)" style="stroke:#000000; stroke-linecap:round; stroke-linejoin:round; stroke-width:4; stroke-opacity:1; fill:none" points="932.815,793.18 736.042,838.974 "/>
<polyline clip-path="url(#clip762)" style="stroke:#000000; stroke-linecap:round; stroke-linejoin:round; stroke-width:4; stroke-opacity:1; fill:none" points="671.107,743.162 428.54,1092.86 "/>
<polyline clip-path="url(#clip762)" style="stroke:#000000; stroke-linecap:round; stroke-linejoin:round; stroke-width:4; stroke-opacity:1; fill:none" points="671.107,743.162 736.042,838.974 "/>
<polyline clip-path="url(#clip762)" style="stroke:#000000; stroke-linecap:round; stroke-linejoin:round; stroke-width:4; stroke-opacity:1; fill:none" points="428.54,1092.86 212.648,1288.5 "/>
<polyline clip-path="url(#clip762)" style="stroke:#000000; stroke-linecap:round; stroke-linejoin:round; stroke-width:4; stroke-opacity:1; fill:none" points="428.54,1092.86 327.82,1315.81 "/>
<polyline clip-path="url(#clip762)" style="stroke:#000000; stroke-linecap:round; stroke-linejoin:round; stroke-width:4; stroke-opacity:1; fill:none" points="428.54,1092.86 529.954,1016.08 "/>
<polyline clip-path="url(#clip762)" style="stroke:#000000; stroke-linecap:round; stroke-linejoin:round; stroke-width:4; stroke-opacity:1; fill:none" points="212.648,1288.5 327.82,1315.81 "/>
<polyline clip-path="url(#clip762)" style="stroke:#000000; stroke-linecap:round; stroke-linejoin:round; stroke-width:4; stroke-opacity:1; fill:none" points="212.648,1288.5 261.609,1135.04 "/>
<polyline clip-path="url(#clip762)" style="stroke:#000000; stroke-linecap:round; stroke-linejoin:round; stroke-width:4; stroke-opacity:1; fill:none" points="327.82,1315.81 261.609,1135.04 "/>
<polyline clip-path="url(#clip762)" style="stroke:#000000; stroke-linecap:round; stroke-linejoin:round; stroke-width:4; stroke-opacity:1; fill:none" points="327.82,1315.81 475.319,1245.35 "/>
<polyline clip-path="url(#clip762)" style="stroke:#000000; stroke-linecap:round; stroke-linejoin:round; stroke-width:4; stroke-opacity:1; fill:none" points="261.609,1135.04 475.319,1245.35 "/>
<polyline clip-path="url(#clip762)" style="stroke:#000000; stroke-linecap:round; stroke-linejoin:round; stroke-width:4; stroke-opacity:1; fill:none" points="475.319,1245.35 675.614,1127.57 "/>
<polyline clip-path="url(#clip762)" style="stroke:#000000; stroke-linecap:round; stroke-linejoin:round; stroke-width:4; stroke-opacity:1; fill:none" points="475.319,1245.35 529.954,1016.08 "/>
<polyline clip-path="url(#clip762)" style="stroke:#000000; stroke-linecap:round; stroke-linejoin:round; stroke-width:4; stroke-opacity:1; fill:none" points="675.614,1127.57 529.954,1016.08 "/>
<polyline clip-path="url(#clip762)" style="stroke:#000000; stroke-linecap:round; stroke-linejoin:round; stroke-width:4; stroke-opacity:1; fill:none" points="675.614,1127.57 736.042,838.974 "/>
<polyline clip-path="url(#clip762)" style="stroke:#000000; stroke-linecap:round; stroke-linejoin:round; stroke-width:4; stroke-opacity:1; fill:none" points="529.954,1016.08 736.042,838.974 "/>
<polyline clip-path="url(#clip762)" style="stroke:#000000; stroke-linecap:round; stroke-linejoin:round; stroke-width:4; stroke-opacity:1; fill:none" points="736.042,838.974 565.179,567.727 "/>
<circle clip-path="url(#clip762)" cx="176.747" cy="637.657" r="18" fill="#0000ff" fill-rule="evenodd" fill-opacity="1" stroke="#000000" stroke-opacity="1" stroke-width="3.2"/>
<circle clip-path="url(#clip762)" cx="277.33" cy="527.517" r="18" fill="#0000ff" fill-rule="evenodd" fill-opacity="1" stroke="#000000" stroke-opacity="1" stroke-width="3.2"/>
<circle clip-path="url(#clip762)" cx="315.237" cy="791.372" r="18" fill="#0000ff" fill-rule="evenodd" fill-opacity="1" stroke="#000000" stroke-opacity="1" stroke-width="3.2"/>
<circle clip-path="url(#clip762)" cx="318.826" cy="289.477" r="18" fill="#0000ff" fill-rule="evenodd" fill-opacity="1" stroke="#000000" stroke-opacity="1" stroke-width="3.2"/>
<circle clip-path="url(#clip762)" cx="469.796" cy="469.083" r="18" fill="#0000ff" fill-rule="evenodd" fill-opacity="1" stroke="#000000" stroke-opacity="1" stroke-width="3.2"/>
<circle clip-path="url(#clip762)" cx="526.917" cy="217.879" r="18" fill="#0000ff" fill-rule="evenodd" fill-opacity="1" stroke="#000000" stroke-opacity="1" stroke-width="3.2"/>
<circle clip-path="url(#clip762)" cx="652.344" cy="319.091" r="18" fill="#0000ff" fill-rule="evenodd" fill-opacity="1" stroke="#000000" stroke-opacity="1" stroke-width="3.2"/>
<circle clip-path="url(#clip762)" cx="783.783" cy="260.921" r="18" fill="#0000ff" fill-rule="evenodd" fill-opacity="1" stroke="#000000" stroke-opacity="1" stroke-width="3.2"/>
<circle clip-path="url(#clip762)" cx="905.761" cy="314.089" r="18" fill="#0000ff" fill-rule="evenodd" fill-opacity="1" stroke="#000000" stroke-opacity="1" stroke-width="3.2"/>
<circle clip-path="url(#clip762)" cx="767.61" cy="534.055" r="18" fill="#0000ff" fill-rule="evenodd" fill-opacity="1" stroke="#000000" stroke-opacity="1" stroke-width="3.2"/>
<circle clip-path="url(#clip762)" cx="1095.28" cy="419.684" r="18" fill="#0000ff" fill-rule="evenodd" fill-opacity="1" stroke="#000000" stroke-opacity="1" stroke-width="3.2"/>
<circle clip-path="url(#clip762)" cx="1035.87" cy="593.275" r="18" fill="#0000ff" fill-rule="evenodd" fill-opacity="1" stroke="#000000" stroke-opacity="1" stroke-width="3.2"/>
<circle clip-path="url(#clip762)" cx="889.984" cy="563.71" r="18" fill="#0000ff" fill-rule="evenodd" fill-opacity="1" stroke="#000000" stroke-opacity="1" stroke-width="3.2"/>
<circle clip-path="url(#clip762)" cx="932.815" cy="793.18" r="18" fill="#0000ff" fill-rule="evenodd" fill-opacity="1" stroke="#000000" stroke-opacity="1" stroke-width="3.2"/>
<circle clip-path="url(#clip762)" cx="671.107" cy="743.162" r="18" fill="#0000ff" fill-rule="evenodd" fill-opacity="1" stroke="#000000" stroke-opacity="1" stroke-width="3.2"/>
<circle clip-path="url(#clip762)" cx="428.555" cy="585.416" r="18" fill="#0000ff" fill-rule="evenodd" fill-opacity="1" stroke="#000000" stroke-opacity="1" stroke-width="3.2"/>
<circle clip-path="url(#clip762)" cx="428.54" cy="1092.86" r="18" fill="#0000ff" fill-rule="evenodd" fill-opacity="1" stroke="#000000" stroke-opacity="1" stroke-width="3.2"/>
<circle clip-path="url(#clip762)" cx="212.648" cy="1288.5" r="18" fill="#0000ff" fill-rule="evenodd" fill-opacity="1" stroke="#000000" stroke-opacity="1" stroke-width="3.2"/>
<circle clip-path="url(#clip762)" cx="327.82" cy="1315.81" r="18" fill="#0000ff" fill-rule="evenodd" fill-opacity="1" stroke="#000000" stroke-opacity="1" stroke-width="3.2"/>
<circle clip-path="url(#clip762)" cx="261.609" cy="1135.04" r="18" fill="#0000ff" fill-rule="evenodd" fill-opacity="1" stroke="#000000" stroke-opacity="1" stroke-width="3.2"/>
<circle clip-path="url(#clip762)" cx="475.319" cy="1245.35" r="18" fill="#0000ff" fill-rule="evenodd" fill-opacity="1" stroke="#000000" stroke-opacity="1" stroke-width="3.2"/>
<circle clip-path="url(#clip762)" cx="675.614" cy="1127.57" r="18" fill="#0000ff" fill-rule="evenodd" fill-opacity="1" stroke="#000000" stroke-opacity="1" stroke-width="3.2"/>
<circle clip-path="url(#clip762)" cx="529.954" cy="1016.08" r="18" fill="#0000ff" fill-rule="evenodd" fill-opacity="1" stroke="#000000" stroke-opacity="1" stroke-width="3.2"/>
<circle clip-path="url(#clip762)" cx="736.042" cy="838.974" r="18" fill="#0000ff" fill-rule="evenodd" fill-opacity="1" stroke="#000000" stroke-opacity="1" stroke-width="3.2"/>
<circle clip-path="url(#clip762)" cx="565.179" cy="567.727" r="18" fill="#0000ff" fill-rule="evenodd" fill-opacity="1" stroke="#000000" stroke-opacity="1" stroke-width="3.2"/>
<path clip-path="url(#clip760)" d="M1379.11 1486.45 L2352.76 1486.45 L2352.76 47.2441 L1379.11 47.2441  Z" fill="#ffffff" fill-rule="evenodd" fill-opacity="1"/>
<polyline clip-path="url(#clip761)" style="stroke:#000000; stroke-linecap:round; stroke-linejoin:round; stroke-width:2; stroke-opacity:0.1; fill:none" points="1406.19,1486.45 1406.19,47.2441 "/>
<polyline clip-path="url(#clip761)" style="stroke:#000000; stroke-linecap:round; stroke-linejoin:round; stroke-width:2; stroke-opacity:0.1; fill:none" points="1643.29,1486.45 1643.29,47.2441 "/>
<polyline clip-path="url(#clip761)" style="stroke:#000000; stroke-linecap:round; stroke-linejoin:round; stroke-width:2; stroke-opacity:0.1; fill:none" points="1880.4,1486.45 1880.4,47.2441 "/>
<polyline clip-path="url(#clip761)" style="stroke:#000000; stroke-linecap:round; stroke-linejoin:round; stroke-width:2; stroke-opacity:0.1; fill:none" points="2117.5,1486.45 2117.5,47.2441 "/>
<polyline clip-path="url(#clip761)" style="stroke:#000000; stroke-linecap:round; stroke-linejoin:round; stroke-width:2; stroke-opacity:0.1; fill:none" points="1379.11,1353.03 2352.76,1353.03 "/>
<polyline clip-path="url(#clip761)" style="stroke:#000000; stroke-linecap:round; stroke-linejoin:round; stroke-width:2; stroke-opacity:0.1; fill:none" points="1379.11,1103.56 2352.76,1103.56 "/>
<polyline clip-path="url(#clip761)" style="stroke:#000000; stroke-linecap:round; stroke-linejoin:round; stroke-width:2; stroke-opacity:0.1; fill:none" points="1379.11,854.095 2352.76,854.095 "/>
<polyline clip-path="url(#clip761)" style="stroke:#000000; stroke-linecap:round; stroke-linejoin:round; stroke-width:2; stroke-opacity:0.1; fill:none" points="1379.11,604.628 2352.76,604.628 "/>
<polyline clip-path="url(#clip761)" style="stroke:#000000; stroke-linecap:round; stroke-linejoin:round; stroke-width:2; stroke-opacity:0.1; fill:none" points="1379.11,355.162 2352.76,355.162 "/>
<polyline clip-path="url(#clip761)" style="stroke:#000000; stroke-linecap:round; stroke-linejoin:round; stroke-width:2; stroke-opacity:0.1; fill:none" points="1379.11,105.695 2352.76,105.695 "/>
<polyline clip-path="url(#clip760)" style="stroke:#000000; stroke-linecap:round; stroke-linejoin:round; stroke-width:4; stroke-opacity:1; fill:none" points="1379.11,1486.45 2352.76,1486.45 "/>
<polyline clip-path="url(#clip760)" style="stroke:#000000; stroke-linecap:round; stroke-linejoin:round; stroke-width:4; stroke-opacity:1; fill:none" points="1406.19,1486.45 1406.19,1467.55 "/>
<polyline clip-path="url(#clip760)" style="stroke:#000000; stroke-linecap:round; stroke-linejoin:round; stroke-width:4; stroke-opacity:1; fill:none" points="1643.29,1486.45 1643.29,1467.55 "/>
<polyline clip-path="url(#clip760)" style="stroke:#000000; stroke-linecap:round; stroke-linejoin:round; stroke-width:4; stroke-opacity:1; fill:none" points="1880.4,1486.45 1880.4,1467.55 "/>
<polyline clip-path="url(#clip760)" style="stroke:#000000; stroke-linecap:round; stroke-linejoin:round; stroke-width:4; stroke-opacity:1; fill:none" points="2117.5,1486.45 2117.5,1467.55 "/>
<path clip-path="url(#clip760)" d="M1406.19 1517.37 Q1402.58 1517.37 1400.75 1520.93 Q1398.95 1524.47 1398.95 1531.6 Q1398.95 1538.71 1400.75 1542.27 Q1402.58 1545.82 1406.19 1545.82 Q1409.83 1545.82 1411.63 1542.27 Q1413.46 1538.71 1413.46 1531.6 Q1413.46 1524.47 1411.63 1520.93 Q1409.83 1517.37 1406.19 1517.37 M1406.19 1513.66 Q1412 1513.66 1415.06 1518.27 Q1418.14 1522.85 1418.14 1531.6 Q1418.14 1540.33 1415.06 1544.94 Q1412 1549.52 1406.19 1549.52 Q1400.38 1549.52 1397.3 1544.94 Q1394.25 1540.33 1394.25 1531.6 Q1394.25 1522.85 1397.3 1518.27 Q1400.38 1513.66 1406.19 1513.66 Z" fill="#000000" fill-rule="nonzero" fill-opacity="1" /><path clip-path="url(#clip760)" d="M1602.91 1514.29 L1621.27 1514.29 L1621.27 1518.22 L1607.19 1518.22 L1607.19 1526.7 Q1608.21 1526.35 1609.23 1526.19 Q1610.25 1526 1611.27 1526 Q1617.06 1526 1620.44 1529.17 Q1623.81 1532.34 1623.81 1537.76 Q1623.81 1543.34 1620.34 1546.44 Q1616.87 1549.52 1610.55 1549.52 Q1608.37 1549.52 1606.11 1549.15 Q1603.86 1548.78 1601.45 1548.04 L1601.45 1543.34 Q1603.54 1544.47 1605.76 1545.03 Q1607.98 1545.58 1610.46 1545.58 Q1614.46 1545.58 1616.8 1543.48 Q1619.14 1541.37 1619.14 1537.76 Q1619.14 1534.15 1616.8 1532.04 Q1614.46 1529.94 1610.46 1529.94 Q1608.58 1529.94 1606.71 1530.35 Q1604.86 1530.77 1602.91 1531.65 L1602.91 1514.29 Z" fill="#000000" fill-rule="nonzero" fill-opacity="1" /><path clip-path="url(#clip760)" d="M1643.03 1517.37 Q1639.42 1517.37 1637.59 1520.93 Q1635.78 1524.47 1635.78 1531.6 Q1635.78 1538.71 1637.59 1542.27 Q1639.42 1545.82 1643.03 1545.82 Q1646.66 1545.82 1648.47 1542.27 Q1650.3 1538.71 1650.3 1531.6 Q1650.3 1524.47 1648.47 1520.93 Q1646.66 1517.37 1643.03 1517.37 M1643.03 1513.66 Q1648.84 1513.66 1651.89 1518.27 Q1654.97 1522.85 1654.97 1531.6 Q1654.97 1540.33 1651.89 1544.94 Q1648.84 1549.52 1643.03 1549.52 Q1637.22 1549.52 1634.14 1544.94 Q1631.08 1540.33 1631.08 1531.6 Q1631.08 1522.85 1634.14 1518.27 Q1637.22 1513.66 1643.03 1513.66 Z" fill="#000000" fill-rule="nonzero" fill-opacity="1" /><path clip-path="url(#clip760)" d="M1673.19 1517.37 Q1669.58 1517.37 1667.75 1520.93 Q1665.94 1524.47 1665.94 1531.6 Q1665.94 1538.71 1667.75 1542.27 Q1669.58 1545.82 1673.19 1545.82 Q1676.82 1545.82 1678.63 1542.27 Q1680.46 1538.71 1680.46 1531.6 Q1680.46 1524.47 1678.63 1520.93 Q1676.82 1517.37 1673.19 1517.37 M1673.19 1513.66 Q1679 1513.66 1682.06 1518.27 Q1685.13 1522.85 1685.13 1531.6 Q1685.13 1540.33 1682.06 1544.94 Q1679 1549.52 1673.19 1549.52 Q1667.38 1549.52 1664.3 1544.94 Q1661.25 1540.33 1661.25 1531.6 Q1661.25 1522.85 1664.3 1518.27 Q1667.38 1513.66 1673.19 1513.66 Z" fill="#000000" fill-rule="nonzero" fill-opacity="1" /><path clip-path="url(#clip760)" d="M1824.92 1544.91 L1832.56 1544.91 L1832.56 1518.55 L1824.25 1520.21 L1824.25 1515.95 L1832.51 1514.29 L1837.19 1514.29 L1837.19 1544.91 L1844.83 1544.91 L1844.83 1548.85 L1824.92 1548.85 L1824.92 1544.91 Z" fill="#000000" fill-rule="nonzero" fill-opacity="1" /><path clip-path="url(#clip760)" d="M1864.27 1517.37 Q1860.66 1517.37 1858.83 1520.93 Q1857.03 1524.47 1857.03 1531.6 Q1857.03 1538.71 1858.83 1542.27 Q1860.66 1545.82 1864.27 1545.82 Q1867.91 1545.82 1869.71 1542.27 Q1871.54 1538.71 1871.54 1531.6 Q1871.54 1524.47 1869.71 1520.93 Q1867.91 1517.37 1864.27 1517.37 M1864.27 1513.66 Q1870.08 1513.66 1873.14 1518.27 Q1876.22 1522.85 1876.22 1531.6 Q1876.22 1540.33 1873.14 1544.94 Q1870.08 1549.52 1864.27 1549.52 Q1858.46 1549.52 1855.38 1544.94 Q1852.33 1540.33 1852.33 1531.6 Q1852.33 1522.85 1855.38 1518.27 Q1858.46 1513.66 1864.27 1513.66 Z" fill="#000000" fill-rule="nonzero" fill-opacity="1" /><path clip-path="url(#clip760)" d="M1894.44 1517.37 Q1890.82 1517.37 1889 1520.93 Q1887.19 1524.47 1887.19 1531.6 Q1887.19 1538.71 1889 1542.27 Q1890.82 1545.82 1894.44 1545.82 Q1898.07 1545.82 1899.88 1542.27 Q1901.7 1538.71 1901.7 1531.6 Q1901.7 1524.47 1899.88 1520.93 Q1898.07 1517.37 1894.44 1517.37 M1894.44 1513.66 Q1900.25 1513.66 1903.3 1518.27 Q1906.38 1522.85 1906.38 1531.6 Q1906.38 1540.33 1903.3 1544.94 Q1900.25 1549.52 1894.44 1549.52 Q1888.63 1549.52 1885.55 1544.94 Q1882.49 1540.33 1882.49 1531.6 Q1882.49 1522.85 1885.55 1518.27 Q1888.63 1513.66 1894.44 1513.66 Z" fill="#000000" fill-rule="nonzero" fill-opacity="1" /><path clip-path="url(#clip760)" d="M1924.6 1517.37 Q1920.99 1517.37 1919.16 1520.93 Q1917.35 1524.47 1917.35 1531.6 Q1917.35 1538.71 1919.16 1542.27 Q1920.99 1545.82 1924.6 1545.82 Q1928.23 1545.82 1930.04 1542.27 Q1931.87 1538.71 1931.87 1531.6 Q1931.87 1524.47 1930.04 1520.93 Q1928.23 1517.37 1924.6 1517.37 M1924.6 1513.66 Q1930.41 1513.66 1933.46 1518.27 Q1936.54 1522.85 1936.54 1531.6 Q1936.54 1540.33 1933.46 1544.94 Q1930.41 1549.52 1924.6 1549.52 Q1918.79 1549.52 1915.71 1544.94 Q1912.65 1540.33 1912.65 1531.6 Q1912.65 1522.85 1915.71 1518.27 Q1918.79 1513.66 1924.6 1513.66 Z" fill="#000000" fill-rule="nonzero" fill-opacity="1" /><path clip-path="url(#clip760)" d="M2062.02 1544.91 L2069.66 1544.91 L2069.66 1518.55 L2061.35 1520.21 L2061.35 1515.95 L2069.62 1514.29 L2074.29 1514.29 L2074.29 1544.91 L2081.93 1544.91 L2081.93 1548.85 L2062.02 1548.85 L2062.02 1544.91 Z" fill="#000000" fill-rule="nonzero" fill-opacity="1" /><path clip-path="url(#clip760)" d="M2091.42 1514.29 L2109.78 1514.29 L2109.78 1518.22 L2095.7 1518.22 L2095.7 1526.7 Q2096.72 1526.35 2097.74 1526.19 Q2098.76 1526 2099.78 1526 Q2105.57 1526 2108.95 1529.17 Q2112.32 1532.34 2112.32 1537.76 Q2112.32 1543.34 2108.85 1546.44 Q2105.38 1549.52 2099.06 1549.52 Q2096.88 1549.52 2094.62 1549.15 Q2092.37 1548.78 2089.96 1548.04 L2089.96 1543.34 Q2092.05 1544.47 2094.27 1545.03 Q2096.49 1545.58 2098.97 1545.58 Q2102.97 1545.58 2105.31 1543.48 Q2107.65 1541.37 2107.65 1537.76 Q2107.65 1534.15 2105.31 1532.04 Q2102.97 1529.94 2098.97 1529.94 Q2097.09 1529.94 2095.22 1530.35 Q2093.37 1530.77 2091.42 1531.65 L2091.42 1514.29 Z" fill="#000000" fill-rule="nonzero" fill-opacity="1" /><path clip-path="url(#clip760)" d="M2131.54 1517.37 Q2127.93 1517.37 2126.1 1520.93 Q2124.29 1524.47 2124.29 1531.6 Q2124.29 1538.71 2126.1 1542.27 Q2127.93 1545.82 2131.54 1545.82 Q2135.17 1545.82 2136.98 1542.27 Q2138.81 1538.71 2138.81 1531.6 Q2138.81 1524.47 2136.98 1520.93 Q2135.17 1517.37 2131.54 1517.37 M2131.54 1513.66 Q2137.35 1513.66 2140.4 1518.27 Q2143.48 1522.85 2143.48 1531.6 Q2143.48 1540.33 2140.4 1544.94 Q2137.35 1549.52 2131.54 1549.52 Q2125.73 1549.52 2122.65 1544.94 Q2119.59 1540.33 2119.59 1531.6 Q2119.59 1522.85 2122.65 1518.27 Q2125.73 1513.66 2131.54 1513.66 Z" fill="#000000" fill-rule="nonzero" fill-opacity="1" /><path clip-path="url(#clip760)" d="M2161.7 1517.37 Q2158.09 1517.37 2156.26 1520.93 Q2154.45 1524.47 2154.45 1531.6 Q2154.45 1538.71 2156.26 1542.27 Q2158.09 1545.82 2161.7 1545.82 Q2165.33 1545.82 2167.14 1542.27 Q2168.97 1538.71 2168.97 1531.6 Q2168.97 1524.47 2167.14 1520.93 Q2165.33 1517.37 2161.7 1517.37 M2161.7 1513.66 Q2167.51 1513.66 2170.57 1518.27 Q2173.64 1522.85 2173.64 1531.6 Q2173.64 1540.33 2170.57 1544.94 Q2167.51 1549.52 2161.7 1549.52 Q2155.89 1549.52 2152.81 1544.94 Q2149.76 1540.33 2149.76 1531.6 Q2149.76 1522.85 2152.81 1518.27 Q2155.89 1513.66 2161.7 1513.66 Z" fill="#000000" fill-rule="nonzero" fill-opacity="1" /><polyline clip-path="url(#clip760)" style="stroke:#000000; stroke-linecap:round; stroke-linejoin:round; stroke-width:4; stroke-opacity:1; fill:none" points="1379.11,1486.45 1379.11,47.2441 "/>
<polyline clip-path="url(#clip760)" style="stroke:#000000; stroke-linecap:round; stroke-linejoin:round; stroke-width:4; stroke-opacity:1; fill:none" points="1379.11,1353.03 1398.01,1353.03 "/>
<polyline clip-path="url(#clip760)" style="stroke:#000000; stroke-linecap:round; stroke-linejoin:round; stroke-width:4; stroke-opacity:1; fill:none" points="1379.11,1103.56 1398.01,1103.56 "/>
<polyline clip-path="url(#clip760)" style="stroke:#000000; stroke-linecap:round; stroke-linejoin:round; stroke-width:4; stroke-opacity:1; fill:none" points="1379.11,854.095 1398.01,854.095 "/>
<polyline clip-path="url(#clip760)" style="stroke:#000000; stroke-linecap:round; stroke-linejoin:round; stroke-width:4; stroke-opacity:1; fill:none" points="1379.11,604.628 1398.01,604.628 "/>
<polyline clip-path="url(#clip760)" style="stroke:#000000; stroke-linecap:round; stroke-linejoin:round; stroke-width:4; stroke-opacity:1; fill:none" points="1379.11,355.162 1398.01,355.162 "/>
<polyline clip-path="url(#clip760)" style="stroke:#000000; stroke-linecap:round; stroke-linejoin:round; stroke-width:4; stroke-opacity:1; fill:none" points="1379.11,105.695 1398.01,105.695 "/>
<path clip-path="url(#clip760)" d="M1221.07 1353.48 L1250.75 1353.48 L1250.75 1357.42 L1221.07 1357.42 L1221.07 1353.48 Z" fill="#000000" fill-rule="nonzero" fill-opacity="1" /><path clip-path="url(#clip760)" d="M1275.01 1351.67 Q1278.36 1352.39 1280.24 1354.66 Q1282.14 1356.93 1282.14 1360.26 Q1282.14 1365.38 1278.62 1368.18 Q1275.1 1370.98 1268.62 1370.98 Q1266.44 1370.98 1264.13 1370.54 Q1261.84 1370.12 1259.38 1369.27 L1259.38 1364.75 Q1261.33 1365.89 1263.64 1366.47 Q1265.96 1367.04 1268.48 1367.04 Q1272.88 1367.04 1275.17 1365.31 Q1277.49 1363.57 1277.49 1360.26 Q1277.49 1357.21 1275.33 1355.49 Q1273.2 1353.76 1269.38 1353.76 L1265.36 1353.76 L1265.36 1349.92 L1269.57 1349.92 Q1273.02 1349.92 1274.85 1348.55 Q1276.67 1347.16 1276.67 1344.57 Q1276.67 1341.91 1274.78 1340.49 Q1272.9 1339.06 1269.38 1339.06 Q1267.46 1339.06 1265.26 1339.48 Q1263.06 1339.89 1260.42 1340.77 L1260.42 1336.61 Q1263.09 1335.86 1265.4 1335.49 Q1267.74 1335.12 1269.8 1335.12 Q1275.12 1335.12 1278.23 1337.55 Q1281.33 1339.96 1281.33 1344.08 Q1281.33 1346.95 1279.68 1348.94 Q1278.04 1350.91 1275.01 1351.67 Z" fill="#000000" fill-rule="nonzero" fill-opacity="1" /><path clip-path="url(#clip760)" d="M1301 1338.83 Q1297.39 1338.83 1295.56 1342.39 Q1293.76 1345.93 1293.76 1353.06 Q1293.76 1360.17 1295.56 1363.73 Q1297.39 1367.28 1301 1367.28 Q1304.64 1367.28 1306.44 1363.73 Q1308.27 1360.17 1308.27 1353.06 Q1308.27 1345.93 1306.44 1342.39 Q1304.64 1338.83 1301 1338.83 M1301 1335.12 Q1306.81 1335.12 1309.87 1339.73 Q1312.95 1344.31 1312.95 1353.06 Q1312.95 1361.79 1309.87 1366.4 Q1306.81 1370.98 1301 1370.98 Q1295.19 1370.98 1292.11 1366.4 Q1289.06 1361.79 1289.06 1353.06 Q1289.06 1344.31 1292.11 1339.73 Q1295.19 1335.12 1301 1335.12 Z" fill="#000000" fill-rule="nonzero" fill-opacity="1" /><path clip-path="url(#clip760)" d="M1331.17 1338.83 Q1327.55 1338.83 1325.73 1342.39 Q1323.92 1345.93 1323.92 1353.06 Q1323.92 1360.17 1325.73 1363.73 Q1327.55 1367.28 1331.17 1367.28 Q1334.8 1367.28 1336.61 1363.73 Q1338.43 1360.17 1338.43 1353.06 Q1338.43 1345.93 1336.61 1342.39 Q1334.8 1338.83 1331.17 1338.83 M1331.17 1335.12 Q1336.98 1335.12 1340.03 1339.73 Q1343.11 1344.31 1343.11 1353.06 Q1343.11 1361.79 1340.03 1366.4 Q1336.98 1370.98 1331.17 1370.98 Q1325.36 1370.98 1322.28 1366.4 Q1319.22 1361.79 1319.22 1353.06 Q1319.22 1344.31 1322.28 1339.73 Q1325.36 1335.12 1331.17 1335.12 Z" fill="#000000" fill-rule="nonzero" fill-opacity="1" /><path clip-path="url(#clip760)" d="M1221.07 1104.01 L1250.75 1104.01 L1250.75 1107.95 L1221.07 1107.95 L1221.07 1104.01 Z" fill="#000000" fill-rule="nonzero" fill-opacity="1" /><path clip-path="url(#clip760)" d="M1264.87 1116.91 L1281.19 1116.91 L1281.19 1120.84 L1259.24 1120.84 L1259.24 1116.91 Q1261.91 1114.15 1266.49 1109.52 Q1271.1 1104.87 1272.28 1103.53 Q1274.52 1101 1275.4 1099.27 Q1276.3 1097.51 1276.3 1095.82 Q1276.3 1093.06 1274.36 1091.33 Q1272.44 1089.59 1269.34 1089.59 Q1267.14 1089.59 1264.68 1090.36 Q1262.25 1091.12 1259.48 1092.67 L1259.48 1087.95 Q1262.3 1086.81 1264.75 1086.24 Q1267.21 1085.66 1269.24 1085.66 Q1274.61 1085.66 1277.81 1088.34 Q1281 1091.03 1281 1095.52 Q1281 1097.65 1280.19 1099.57 Q1279.41 1101.47 1277.3 1104.06 Q1276.72 1104.73 1273.62 1107.95 Q1270.52 1111.14 1264.87 1116.91 Z" fill="#000000" fill-rule="nonzero" fill-opacity="1" /><path clip-path="url(#clip760)" d="M1301 1089.36 Q1297.39 1089.36 1295.56 1092.93 Q1293.76 1096.47 1293.76 1103.6 Q1293.76 1110.7 1295.56 1114.27 Q1297.39 1117.81 1301 1117.81 Q1304.64 1117.81 1306.44 1114.27 Q1308.27 1110.7 1308.27 1103.6 Q1308.27 1096.47 1306.44 1092.93 Q1304.64 1089.36 1301 1089.36 M1301 1085.66 Q1306.81 1085.66 1309.87 1090.26 Q1312.95 1094.85 1312.95 1103.6 Q1312.95 1112.32 1309.87 1116.93 Q1306.81 1121.51 1301 1121.51 Q1295.19 1121.51 1292.11 1116.93 Q1289.06 1112.32 1289.06 1103.6 Q1289.06 1094.85 1292.11 1090.26 Q1295.19 1085.66 1301 1085.66 Z" fill="#000000" fill-rule="nonzero" fill-opacity="1" /><path clip-path="url(#clip760)" d="M1331.17 1089.36 Q1327.55 1089.36 1325.73 1092.93 Q1323.92 1096.47 1323.92 1103.6 Q1323.92 1110.7 1325.73 1114.27 Q1327.55 1117.81 1331.17 1117.81 Q1334.8 1117.81 1336.61 1114.27 Q1338.43 1110.7 1338.43 1103.6 Q1338.43 1096.47 1336.61 1092.93 Q1334.8 1089.36 1331.17 1089.36 M1331.17 1085.66 Q1336.98 1085.66 1340.03 1090.26 Q1343.11 1094.85 1343.11 1103.6 Q1343.11 1112.32 1340.03 1116.93 Q1336.98 1121.51 1331.17 1121.51 Q1325.36 1121.51 1322.28 1116.93 Q1319.22 1112.32 1319.22 1103.6 Q1319.22 1094.85 1322.28 1090.26 Q1325.36 1085.66 1331.17 1085.66 Z" fill="#000000" fill-rule="nonzero" fill-opacity="1" /><path clip-path="url(#clip760)" d="M1221.07 854.547 L1250.75 854.547 L1250.75 858.482 L1221.07 858.482 L1221.07 854.547 Z" fill="#000000" fill-rule="nonzero" fill-opacity="1" /><path clip-path="url(#clip760)" d="M1261.65 867.44 L1269.29 867.44 L1269.29 841.074 L1260.98 842.741 L1260.98 838.482 L1269.24 836.815 L1273.92 836.815 L1273.92 867.44 L1281.56 867.44 L1281.56 871.375 L1261.65 871.375 L1261.65 867.44 Z" fill="#000000" fill-rule="nonzero" fill-opacity="1" /><path clip-path="url(#clip760)" d="M1301 839.894 Q1297.39 839.894 1295.56 843.459 Q1293.76 847 1293.76 854.13 Q1293.76 861.236 1295.56 864.801 Q1297.39 868.343 1301 868.343 Q1304.64 868.343 1306.44 864.801 Q1308.27 861.236 1308.27 854.13 Q1308.27 847 1306.44 843.459 Q1304.64 839.894 1301 839.894 M1301 836.19 Q1306.81 836.19 1309.87 840.797 Q1312.95 845.38 1312.95 854.13 Q1312.95 862.857 1309.87 867.463 Q1306.81 872.046 1301 872.046 Q1295.19 872.046 1292.11 867.463 Q1289.06 862.857 1289.06 854.13 Q1289.06 845.38 1292.11 840.797 Q1295.19 836.19 1301 836.19 Z" fill="#000000" fill-rule="nonzero" fill-opacity="1" /><path clip-path="url(#clip760)" d="M1331.17 839.894 Q1327.55 839.894 1325.73 843.459 Q1323.92 847 1323.92 854.13 Q1323.92 861.236 1325.73 864.801 Q1327.55 868.343 1331.17 868.343 Q1334.8 868.343 1336.61 864.801 Q1338.43 861.236 1338.43 854.13 Q1338.43 847 1336.61 843.459 Q1334.8 839.894 1331.17 839.894 M1331.17 836.19 Q1336.98 836.19 1340.03 840.797 Q1343.11 845.38 1343.11 854.13 Q1343.11 862.857 1340.03 867.463 Q1336.98 872.046 1331.17 872.046 Q1325.36 872.046 1322.28 867.463 Q1319.22 862.857 1319.22 854.13 Q1319.22 845.38 1322.28 840.797 Q1325.36 836.19 1331.17 836.19 Z" fill="#000000" fill-rule="nonzero" fill-opacity="1" /><path clip-path="url(#clip760)" d="M1331.17 590.427 Q1327.55 590.427 1325.73 593.992 Q1323.92 597.534 1323.92 604.663 Q1323.92 611.77 1325.73 615.334 Q1327.55 618.876 1331.17 618.876 Q1334.8 618.876 1336.61 615.334 Q1338.43 611.77 1338.43 604.663 Q1338.43 597.534 1336.61 593.992 Q1334.8 590.427 1331.17 590.427 M1331.17 586.723 Q1336.98 586.723 1340.03 591.33 Q1343.11 595.913 1343.11 604.663 Q1343.11 613.39 1340.03 617.996 Q1336.98 622.58 1331.17 622.58 Q1325.36 622.58 1322.28 617.996 Q1319.22 613.39 1319.22 604.663 Q1319.22 595.913 1322.28 591.33 Q1325.36 586.723 1331.17 586.723 Z" fill="#000000" fill-rule="nonzero" fill-opacity="1" /><path clip-path="url(#clip760)" d="M1261.65 368.506 L1269.29 368.506 L1269.29 342.141 L1260.98 343.808 L1260.98 339.548 L1269.24 337.882 L1273.92 337.882 L1273.92 368.506 L1281.56 368.506 L1281.56 372.442 L1261.65 372.442 L1261.65 368.506 Z" fill="#000000" fill-rule="nonzero" fill-opacity="1" /><path clip-path="url(#clip760)" d="M1301 340.96 Q1297.39 340.96 1295.56 344.525 Q1293.76 348.067 1293.76 355.196 Q1293.76 362.303 1295.56 365.868 Q1297.39 369.409 1301 369.409 Q1304.64 369.409 1306.44 365.868 Q1308.27 362.303 1308.27 355.196 Q1308.27 348.067 1306.44 344.525 Q1304.64 340.96 1301 340.96 M1301 337.257 Q1306.81 337.257 1309.87 341.863 Q1312.95 346.446 1312.95 355.196 Q1312.95 363.923 1309.87 368.53 Q1306.81 373.113 1301 373.113 Q1295.19 373.113 1292.11 368.53 Q1289.06 363.923 1289.06 355.196 Q1289.06 346.446 1292.11 341.863 Q1295.19 337.257 1301 337.257 Z" fill="#000000" fill-rule="nonzero" fill-opacity="1" /><path clip-path="url(#clip760)" d="M1331.17 340.96 Q1327.55 340.96 1325.73 344.525 Q1323.92 348.067 1323.92 355.196 Q1323.92 362.303 1325.73 365.868 Q1327.55 369.409 1331.17 369.409 Q1334.8 369.409 1336.61 365.868 Q1338.43 362.303 1338.43 355.196 Q1338.43 348.067 1336.61 344.525 Q1334.8 340.96 1331.17 340.96 M1331.17 337.257 Q1336.98 337.257 1340.03 341.863 Q1343.11 346.446 1343.11 355.196 Q1343.11 363.923 1340.03 368.53 Q1336.98 373.113 1331.17 373.113 Q1325.36 373.113 1322.28 368.53 Q1319.22 363.923 1319.22 355.196 Q1319.22 346.446 1322.28 341.863 Q1325.36 337.257 1331.17 337.257 Z" fill="#000000" fill-rule="nonzero" fill-opacity="1" /><path clip-path="url(#clip760)" d="M1264.87 119.04 L1281.19 119.04 L1281.19 122.975 L1259.24 122.975 L1259.24 119.04 Q1261.91 116.285 1266.49 111.655 Q1271.1 107.003 1272.28 105.66 Q1274.52 103.137 1275.4 101.401 Q1276.3 99.6416 1276.3 97.9518 Q1276.3 95.1972 1274.36 93.4611 Q1272.44 91.725 1269.34 91.725 Q1267.14 91.725 1264.68 92.4889 Q1262.25 93.2528 1259.48 94.8037 L1259.48 90.0815 Q1262.3 88.9472 1264.75 88.3685 Q1267.21 87.7898 1269.24 87.7898 Q1274.61 87.7898 1277.81 90.475 Q1281 93.1602 1281 97.6509 Q1281 99.7805 1280.19 101.702 Q1279.41 103.6 1277.3 106.193 Q1276.72 106.864 1273.62 110.081 Q1270.52 113.276 1264.87 119.04 Z" fill="#000000" fill-rule="nonzero" fill-opacity="1" /><path clip-path="url(#clip760)" d="M1301 91.4935 Q1297.39 91.4935 1295.56 95.0583 Q1293.76 98.6 1293.76 105.73 Q1293.76 112.836 1295.56 116.401 Q1297.39 119.942 1301 119.942 Q1304.64 119.942 1306.44 116.401 Q1308.27 112.836 1308.27 105.73 Q1308.27 98.6 1306.44 95.0583 Q1304.64 91.4935 1301 91.4935 M1301 87.7898 Q1306.81 87.7898 1309.87 92.3963 Q1312.95 96.9796 1312.95 105.73 Q1312.95 114.456 1309.87 119.063 Q1306.81 123.646 1301 123.646 Q1295.19 123.646 1292.11 119.063 Q1289.06 114.456 1289.06 105.73 Q1289.06 96.9796 1292.11 92.3963 Q1295.19 87.7898 1301 87.7898 Z" fill="#000000" fill-rule="nonzero" fill-opacity="1" /><path clip-path="url(#clip760)" d="M1331.17 91.4935 Q1327.55 91.4935 1325.73 95.0583 Q1323.92 98.6 1323.92 105.73 Q1323.92 112.836 1325.73 116.401 Q1327.55 119.942 1331.17 119.942 Q1334.8 119.942 1336.61 116.401 Q1338.43 112.836 1338.43 105.73 Q1338.43 98.6 1336.61 95.0583 Q1334.8 91.4935 1331.17 91.4935 M1331.17 87.7898 Q1336.98 87.7898 1340.03 92.3963 Q1343.11 96.9796 1343.11 105.73 Q1343.11 114.456 1340.03 119.063 Q1336.98 123.646 1331.17 123.646 Q1325.36 123.646 1322.28 119.063 Q1319.22 114.456 1319.22 105.73 Q1319.22 96.9796 1322.28 92.3963 Q1325.36 87.7898 1331.17 87.7898 Z" fill="#000000" fill-rule="nonzero" fill-opacity="1" /><polyline clip-path="url(#clip761)" style="stroke:#009af9; stroke-linecap:round; stroke-linejoin:round; stroke-width:4; stroke-opacity:1; fill:none" points="1406.67,87.9763 1407.14,184.973 1407.61,281.733 1408.09,374.001 1408.56,457.2 1409.04,529.091 1409.51,588.972 1409.99,637.096 1410.46,674.314 1410.93,701.858 1411.41,721.182 1411.88,733.845 1412.36,741.404 1412.83,745.332 1413.3,746.945 1413.78,747.352 1414.25,747.428 1414.73,747.809 1415.2,748.904 1415.68,750.929 1416.15,753.939 1416.62,757.877 1417.1,762.612 1417.57,767.971 1418.05,773.754 1418.52,779.75 1419,785.752 1419.47,791.591 1419.94,797.173 1420.42,802.522 1420.89,807.78 1421.37,813.082 1421.84,818.418 1422.31,823.737 1422.79,829.053 1423.26,834.373 1423.74,839.626 1424.21,844.733 1424.69,849.709 1425.16,854.718 1425.63,859.919 1426.11,865.241 1426.58,870.506 1427.06,875.604 1427.53,880.497 1428,885.176 1428.48,889.644 1428.95,893.909 1429.43,897.983 1429.9,901.882 1430.38,905.629 1430.85,909.266 1431.32,912.859 1431.8,916.501 1432.27,920.264 1432.75,924.147 1433.22,928.091 1433.7,932.029 1434.17,935.916 1434.64,939.724 1435.12,943.447 1435.59,947.112 1436.07,950.808 1436.54,954.69 1437.01,958.886 1437.49,963.377 1437.96,968.063 1438.44,972.868 1438.91,977.755 1439.39,982.699 1439.86,987.683 1440.33,992.688 1440.81,997.696 1441.28,1002.69 1441.76,1007.65 1442.23,1012.57 1442.71,1017.43 1443.18,1022.22 1443.65,1026.94 1444.13,1031.58 1444.6,1036.14 1445.08,1040.61 1445.55,1045 1446.02,1049.31 1446.5,1053.54 1446.97,1057.71 1447.45,1061.82 1447.92,1065.86 1448.4,1069.81 1448.87,1073.66 1449.34,1077.38 1449.82,1080.97 1450.29,1084.4 1450.77,1087.67 1451.24,1090.77 1451.72,1093.72 1452.19,1096.54 1452.66,1099.31 1453.14,1102.11 1453.61,1104.97 1454.09,1107.86 1454.56,1110.74 1455.03,1113.57 1455.51,1116.34 1455.98,1119.05 1456.46,1121.71 1456.93,1124.34 1457.41,1126.93 1457.88,1129.49 1458.35,1132.04 1458.83,1134.57 1459.3,1137.09 1459.78,1139.59 1460.25,1142.09 1460.73,1144.59 1461.2,1147.09 1461.67,1149.6 1462.15,1152.12 1462.62,1154.67 1463.1,1157.24 1463.57,1159.84 1464.04,1162.48 1464.52,1165.16 1464.99,1167.88 1465.47,1170.64 1465.94,1173.44 1466.42,1176.27 1466.89,1179.13 1467.36,1182.02 1467.84,1184.91 1468.31,1187.81 1468.79,1190.71 1469.26,1193.6 1469.73,1196.47 1470.21,1199.32 1470.68,1202.13 1471.16,1204.92 1471.63,1207.66 1472.11,1210.36 1472.58,1213.01 1473.05,1215.6 1473.53,1218.15 1474,1220.64 1474.48,1223.07 1474.95,1225.44 1475.43,1227.75 1475.9,1230.01 1476.37,1232.21 1476.85,1234.35 1477.32,1236.44 1477.8,1238.48 1478.27,1240.46 1478.74,1242.4 1479.22,1244.29 1479.69,1246.14 1480.17,1247.96 1480.64,1249.74 1481.12,1251.49 1481.59,1253.21 1482.06,1254.91 1482.54,1256.59 1483.01,1258.24 1483.49,1259.88 1483.96,1261.5 1484.44,1263.1 1484.91,1264.68 1485.38,1266.25 1485.86,1267.81 1486.33,1269.36 1486.81,1270.9 1487.28,1272.43 1487.75,1273.96 1488.23,1275.48 1488.7,1277 1489.18,1278.53 1489.65,1280.05 1490.13,1281.58 1490.6,1283.11 1491.07,1284.65 1491.55,1286.19 1492.02,1287.74 1492.5,1289.3 1492.97,1290.87 1493.45,1292.44 1493.92,1294.04 1494.39,1295.65 1494.87,1297.28 1495.34,1298.93 1495.82,1300.62 1496.29,1302.35 1496.76,1304.12 1497.24,1305.93 1497.71,1307.78 1498.19,1309.68 1498.66,1311.61 1499.14,1313.58 1499.61,1315.56 1500.08,1317.56 1500.56,1319.57 1501.03,1321.58 1501.51,1323.58 1501.98,1325.56 1502.46,1327.53 1502.93,1329.48 1503.4,1331.41 1503.88,1333.3 1504.35,1335.16 1504.83,1336.99 1505.3,1338.78 1505.77,1340.53 1506.25,1342.24 1506.72,1343.9 1507.2,1345.53 1507.67,1347.11 1508.15,1348.65 1508.62,1350.14 1509.09,1351.6 1509.57,1353.01 1510.04,1354.38 1510.52,1355.71 1510.99,1357 1511.46,1358.26 1511.94,1359.48 1512.41,1360.68 1512.89,1361.84 1513.36,1362.98 1513.84,1364.08 1514.31,1365.17 1514.78,1366.23 1515.26,1367.26 1515.73,1368.28 1516.21,1369.27 1516.68,1370.25 1517.16,1371.21 1517.63,1372.15 1518.1,1373.07 1518.58,1373.98 1519.05,1374.87 1519.53,1375.75 1520,1376.61 1520.47,1377.46 1520.95,1378.29 1521.42,1379.11 1521.9,1379.92 1522.37,1380.71 1522.85,1381.49 1523.32,1382.26 1523.79,1383.01 1524.27,1383.75 1524.74,1384.48 1525.22,1385.2 1525.69,1385.91 1526.17,1386.6 1526.64,1387.29 1527.11,1387.96 1527.59,1388.62 1528.06,1389.28 1528.54,1389.92 1529.01,1390.55 1529.48,1391.18 1529.96,1391.79 1530.43,1392.4 1530.91,1393 1531.38,1393.59 1531.86,1394.17 1532.33,1394.75 1532.8,1395.31 1533.28,1395.87 1533.75,1396.43 1534.23,1396.97 1534.7,1397.51 1535.18,1398.05 1535.65,1398.57 1536.12,1399.09 1536.6,1399.61 1537.07,1400.12 1537.55,1400.62 1538.02,1401.12 1538.49,1401.61 1538.97,1402.09 1539.44,1402.57 1539.92,1403.05 1540.39,1403.52 1540.87,1403.99 1541.34,1404.45 1541.81,1404.9 1542.29,1405.35 1542.76,1405.8 1543.24,1406.24 1543.71,1406.68 1544.19,1407.11 1544.66,1407.54 1545.13,1407.97 1545.61,1408.39 1546.08,1408.8 1546.56,1409.21 1547.03,1409.62 1547.5,1410.03 1547.98,1410.43 1548.45,1410.82 1548.93,1411.21 1549.4,1411.6 1549.88,1411.99 1550.35,1412.37 1550.82,1412.75 1551.3,1413.12 1551.77,1413.5 1552.25,1413.86 1552.72,1414.23 1553.19,1414.59 1553.67,1414.95 1554.14,1415.31 1554.62,1415.66 1555.09,1416.01 1555.57,1416.36 1556.04,1416.7 1556.51,1417.04 1556.99,1417.38 1557.46,1417.71 1557.94,1418.05 1558.41,1418.38 1558.89,1418.7 1559.36,1419.02 1559.83,1419.34 1560.31,1419.66 1560.78,1419.97 1561.26,1420.28 1561.73,1420.59 1562.2,1420.89 1562.68,1421.19 1563.15,1421.49 1563.63,1421.78 1564.1,1422.07 1564.58,1422.35 1565.05,1422.64 1565.52,1422.91 1566,1423.19 1566.47,1423.46 1566.95,1423.73 1567.42,1423.99 1567.9,1424.25 1568.37,1424.5 1568.84,1424.76 1569.32,1425 1569.79,1425.25 1570.27,1425.49 1570.74,1425.72 1571.21,1425.96 1571.69,1426.18 1572.16,1426.41 1572.64,1426.63 1573.11,1426.85 1573.59,1427.06 1574.06,1427.27 1574.53,1427.48 1575.01,1427.68 1575.48,1427.88 1575.96,1428.07 1576.43,1428.26 1576.91,1428.45 1577.38,1428.64 1577.85,1428.82 1578.33,1429 1578.8,1429.17 1579.28,1429.34 1579.75,1429.51 1580.22,1429.68 1580.7,1429.84 1581.17,1430 1581.65,1430.16 1582.12,1430.31 1582.6,1430.46 1583.07,1430.61 1583.54,1430.75 1584.02,1430.9 1584.49,1431.04 1584.97,1431.17 1585.44,1431.31 1585.92,1431.44 1586.39,1431.57 1586.86,1431.7 1587.34,1431.82 1587.81,1431.94 1588.29,1432.06 1588.76,1432.18 1589.23,1432.3 1589.71,1432.41 1590.18,1432.52 1590.66,1432.63 1591.13,1432.74 1591.61,1432.84 1592.08,1432.95 1592.55,1433.05 1593.03,1433.15 1593.5,1433.25 1593.98,1433.34 1594.45,1433.44 1594.92,1433.53 1595.4,1433.62 1595.87,1433.71 1596.35,1433.79 1596.82,1433.88 1597.3,1433.96 1597.77,1434.05 1598.24,1434.13 1598.72,1434.21 1599.19,1434.29 1599.67,1434.36 1600.14,1434.44 1600.62,1434.51 1601.09,1434.58 1601.56,1434.66 1602.04,1434.73 1602.51,1434.8 1602.99,1434.86 1603.46,1434.93 1603.93,1435 1604.41,1435.06 1604.88,1435.12 1605.36,1435.19 1605.83,1435.25 1606.31,1435.31 1606.78,1435.37 1607.25,1435.42 1607.73,1435.48 1608.2,1435.54 1608.68,1435.59 1609.15,1435.65 1609.63,1435.7 1610.1,1435.75 1610.57,1435.8 1611.05,1435.85 1611.52,1435.9 1612,1435.95 1612.47,1436 1612.94,1436.05 1613.42,1436.1 1613.89,1436.14 1614.37,1436.19 1614.84,1436.23 1615.32,1436.28 1615.79,1436.32 1616.26,1436.36 1616.74,1436.4 1617.21,1436.44 1617.69,1436.49 1618.16,1436.53 1618.64,1436.56 1619.11,1436.6 1619.58,1436.64 1620.06,1436.68 1620.53,1436.72 1621.01,1436.75 1621.48,1436.79 1621.95,1436.82 1622.43,1436.86 1622.9,1436.89 1623.38,1436.93 1623.85,1436.96 1624.33,1436.99 1624.8,1437.03 1625.27,1437.06 1625.75,1437.09 1626.22,1437.12 1626.7,1437.15 1627.17,1437.18 1627.65,1437.21 1628.12,1437.24 1628.59,1437.27 1629.07,1437.3 1629.54,1437.33 1630.02,1437.36 1630.49,1437.39 1630.96,1437.41 1631.44,1437.44 1631.91,1437.47 1632.39,1437.49 1632.86,1437.52 1633.34,1437.54 1633.81,1437.57 1634.28,1437.6 1634.76,1437.62 1635.23,1437.64 1635.71,1437.67 1636.18,1437.69 1636.65,1437.72 1637.13,1437.74 1637.6,1437.76 1638.08,1437.79 1638.55,1437.81 1639.03,1437.83 1639.5,1437.85 1639.97,1437.88 1640.45,1437.9 1640.92,1437.92 1641.4,1437.94 1641.87,1437.96 1642.35,1437.98 1642.82,1438 1643.29,1438.03 1643.77,1438.05 1644.24,1438.07 1644.72,1438.09 1645.19,1438.11 1645.66,1438.13 1646.14,1438.15 1646.61,1438.16 1647.09,1438.18 1647.56,1438.2 1648.04,1438.22 1648.51,1438.24 1648.98,1438.26 1649.46,1438.28 1649.93,1438.3 1650.41,1438.32 1650.88,1438.33 1651.36,1438.35 1651.83,1438.37 1652.3,1438.39 1652.78,1438.41 1653.25,1438.42 1653.73,1438.44 1654.2,1438.46 1654.67,1438.48 1655.15,1438.49 1655.62,1438.51 1656.1,1438.53 1656.57,1438.54 1657.05,1438.56 1657.52,1438.58 1657.99,1438.59 1658.47,1438.61 1658.94,1438.63 1659.42,1438.64 1659.89,1438.66 1660.37,1438.68 1660.84,1438.69 1661.31,1438.71 1661.79,1438.73 1662.26,1438.74 1662.74,1438.76 1663.21,1438.77 1663.68,1438.79 1664.16,1438.81 1664.63,1438.82 1665.11,1438.84 1665.58,1438.85 1666.06,1438.87 1666.53,1438.89 1667,1438.9 1667.48,1438.92 1667.95,1438.93 1668.43,1438.95 1668.9,1438.96 1669.38,1438.98 1669.85,1438.99 1670.32,1439.01 1670.8,1439.02 1671.27,1439.04 1671.75,1439.06 1672.22,1439.07 1672.69,1439.09 1673.17,1439.1 1673.64,1439.12 1674.12,1439.13 1674.59,1439.15 1675.07,1439.16 1675.54,1439.18 1676.01,1439.19 1676.49,1439.21 1676.96,1439.22 1677.44,1439.24 1677.91,1439.25 1678.38,1439.27 1678.86,1439.28 1679.33,1439.3 1679.81,1439.31 1680.28,1439.33 1680.76,1439.34 1681.23,1439.36 1681.7,1439.37 1682.18,1439.39 1682.65,1439.4 1683.13,1439.42 1683.6,1439.43 1684.08,1439.45 1684.55,1439.46 1685.02,1439.48 1685.5,1439.49 1685.97,1439.51 1686.45,1439.52 1686.92,1439.54 1687.39,1439.55 1687.87,1439.57 1688.34,1439.58 1688.82,1439.6 1689.29,1439.61 1689.77,1439.63 1690.24,1439.64 1690.71,1439.66 1691.19,1439.67 1691.66,1439.69 1692.14,1439.7 1692.61,1439.72 1693.09,1439.73 1693.56,1439.75 1694.03,1439.76 1694.51,1439.78 1694.98,1439.79 1695.46,1439.81 1695.93,1439.82 1696.4,1439.84 1696.88,1439.85 1697.35,1439.87 1697.83,1439.88 1698.3,1439.9 1698.78,1439.91 1699.25,1439.93 1699.72,1439.94 1700.2,1439.96 1700.67,1439.97 1701.15,1439.99 1701.62,1440 1702.1,1440.02 1702.57,1440.04 1703.04,1440.05 1703.52,1440.07 1703.99,1440.08 1704.47,1440.1 1704.94,1440.11 1705.41,1440.13 1705.89,1440.14 1706.36,1440.16 1706.84,1440.18 1707.31,1440.19 1707.79,1440.21 1708.26,1440.22 1708.73,1440.24 1709.21,1440.25 1709.68,1440.27 1710.16,1440.29 1710.63,1440.3 1711.11,1440.32 1711.58,1440.33 1712.05,1440.35 1712.53,1440.37 1713,1440.38 1713.48,1440.4 1713.95,1440.42 1714.42,1440.43 1714.9,1440.45 1715.37,1440.46 1715.85,1440.48 1716.32,1440.5 1716.8,1440.51 1717.27,1440.53 1717.74,1440.55 1718.22,1440.56 1718.69,1440.58 1719.17,1440.6 1719.64,1440.61 1720.11,1440.63 1720.59,1440.65 1721.06,1440.66 1721.54,1440.68 1722.01,1440.7 1722.49,1440.72 1722.96,1440.73 1723.43,1440.75 1723.91,1440.77 1724.38,1440.79 1724.86,1440.8 1725.33,1440.82 1725.81,1440.84 1726.28,1440.86 1726.75,1440.87 1727.23,1440.89 1727.7,1440.91 1728.18,1440.93 1728.65,1440.94 1729.12,1440.96 1729.6,1440.98 1730.07,1441 1730.55,1441.02 1731.02,1441.03 1731.5,1441.05 1731.97,1441.07 1732.44,1441.09 1732.92,1441.11 1733.39,1441.13 1733.87,1441.14 1734.34,1441.16 1734.82,1441.18 1735.29,1441.2 1735.76,1441.22 1736.24,1441.24 1736.71,1441.26 1737.19,1441.27 1737.66,1441.29 1738.13,1441.31 1738.61,1441.33 1739.08,1441.35 1739.56,1441.37 1740.03,1441.39 1740.51,1441.4 1740.98,1441.42 1741.45,1441.44 1741.93,1441.46 1742.4,1441.48 1742.88,1441.5 1743.35,1441.52 1743.83,1441.54 1744.3,1441.56 1744.77,1441.57 1745.25,1441.59 1745.72,1441.61 1746.2,1441.63 1746.67,1441.65 1747.14,1441.67 1747.62,1441.69 1748.09,1441.7 1748.57,1441.72 1749.04,1441.74 1749.52,1441.76 1749.99,1441.78 1750.46,1441.8 1750.94,1441.81 1751.41,1441.83 1751.89,1441.85 1752.36,1441.87 1752.84,1441.89 1753.31,1441.9 1753.78,1441.92 1754.26,1441.94 1754.73,1441.96 1755.21,1441.97 1755.68,1441.99 1756.15,1442.01 1756.63,1442.03 1757.1,1442.04 1757.58,1442.06 1758.05,1442.08 1758.53,1442.09 1759,1442.11 1759.47,1442.13 1759.95,1442.14 1760.42,1442.16 1760.9,1442.18 1761.37,1442.19 1761.84,1442.21 1762.32,1442.22 1762.79,1442.24 1763.27,1442.26 1763.74,1442.27 1764.22,1442.29 1764.69,1442.3 1765.16,1442.32 1765.64,1442.33 1766.11,1442.35 1766.59,1442.36 1767.06,1442.37 1767.54,1442.39 1768.01,1442.4 1768.48,1442.42 1768.96,1442.43 1769.43,1442.45 1769.91,1442.46 1770.38,1442.47 1770.85,1442.49 1771.33,1442.5 1771.8,1442.51 1772.28,1442.53 1772.75,1442.54 1773.23,1442.55 1773.7,1442.56 1774.17,1442.58 1774.65,1442.59 1775.12,1442.6 1775.6,1442.61 1776.07,1442.62 1776.55,1442.64 1777.02,1442.65 1777.49,1442.66 1777.97,1442.67 1778.44,1442.68 1778.92,1442.69 1779.39,1442.7 1779.86,1442.72 1780.34,1442.73 1780.81,1442.74 1781.29,1442.75 1781.76,1442.76 1782.24,1442.77 1782.71,1442.78 1783.18,1442.79 1783.66,1442.8 1784.13,1442.81 1784.61,1442.82 1785.08,1442.83 1785.56,1442.84 1786.03,1442.85 1786.5,1442.86 1786.98,1442.87 1787.45,1442.88 1787.93,1442.88 1788.4,1442.89 1788.87,1442.9 1789.35,1442.91 1789.82,1442.92 1790.3,1442.93 1790.77,1442.94 1791.25,1442.95 1791.72,1442.95 1792.19,1442.96 1792.67,1442.97 1793.14,1442.98 1793.62,1442.99 1794.09,1443 1794.57,1443 1795.04,1443.01 1795.51,1443.02 1795.99,1443.03 1796.46,1443.03 1796.94,1443.04 1797.41,1443.05 1797.88,1443.06 1798.36,1443.06 1798.83,1443.07 1799.31,1443.08 1799.78,1443.09 1800.26,1443.09 1800.73,1443.1 1801.2,1443.11 1801.68,1443.11 1802.15,1443.12 1802.63,1443.13 1803.1,1443.13 1803.57,1443.14 1804.05,1443.15 1804.52,1443.15 1805,1443.16 1805.47,1443.17 1805.95,1443.17 1806.42,1443.18 1806.89,1443.19 1807.37,1443.19 1807.84,1443.2 1808.32,1443.2 1808.79,1443.21 1809.27,1443.22 1809.74,1443.22 1810.21,1443.23 1810.69,1443.23 1811.16,1443.24 1811.64,1443.24 1812.11,1443.25 1812.58,1443.26 1813.06,1443.26 1813.53,1443.27 1814.01,1443.27 1814.48,1443.28 1814.96,1443.28 1815.43,1443.29 1815.9,1443.29 1816.38,1443.3 1816.85,1443.31 1817.33,1443.31 1817.8,1443.32 1818.28,1443.32 1818.75,1443.33 1819.22,1443.33 1819.7,1443.34 1820.17,1443.34 1820.65,1443.35 1821.12,1443.35 1821.59,1443.36 1822.07,1443.36 1822.54,1443.37 1823.02,1443.37 1823.49,1443.37 1823.97,1443.38 1824.44,1443.38 1824.91,1443.39 1825.39,1443.39 1825.86,1443.4 1826.34,1443.4 1826.81,1443.41 1827.29,1443.41 1827.76,1443.42 1828.23,1443.42 1828.71,1443.43 1829.18,1443.43 1829.66,1443.43 1830.13,1443.44 1830.6,1443.44 1831.08,1443.45 1831.55,1443.45 1832.03,1443.46 1832.5,1443.46 1832.98,1443.46 1833.45,1443.47 1833.92,1443.47 1834.4,1443.48 1834.87,1443.48 1835.35,1443.48 1835.82,1443.49 1836.3,1443.49 1836.77,1443.5 1837.24,1443.5 1837.72,1443.5 1838.19,1443.51 1838.67,1443.51 1839.14,1443.51 1839.61,1443.52 1840.09,1443.52 1840.56,1443.53 1841.04,1443.53 1841.51,1443.53 1841.99,1443.54 1842.46,1443.54 1842.93,1443.54 1843.41,1443.55 1843.88,1443.55 1844.36,1443.55 1844.83,1443.56 1845.3,1443.56 1845.78,1443.56 1846.25,1443.57 1846.73,1443.57 1847.2,1443.58 1847.68,1443.58 1848.15,1443.58 1848.62,1443.59 1849.1,1443.59 1849.57,1443.59 1850.05,1443.59 1850.52,1443.6 1851,1443.6 1851.47,1443.6 1851.94,1443.61 1852.42,1443.61 1852.89,1443.61 1853.37,1443.62 1853.84,1443.62 1854.31,1443.62 1854.79,1443.63 1855.26,1443.63 1855.74,1443.63 1856.21,1443.64 1856.69,1443.64 1857.16,1443.64 1857.63,1443.64 1858.11,1443.65 1858.58,1443.65 1859.06,1443.65 1859.53,1443.66 1860.01,1443.66 1860.48,1443.66 1860.95,1443.66 1861.43,1443.67 1861.9,1443.67 1862.38,1443.67 1862.85,1443.67 1863.32,1443.68 1863.8,1443.68 1864.27,1443.68 1864.75,1443.69 1865.22,1443.69 1865.7,1443.69 1866.17,1443.69 1866.64,1443.7 1867.12,1443.7 1867.59,1443.7 1868.07,1443.7 1868.54,1443.71 1869.02,1443.71 1869.49,1443.71 1869.96,1443.71 1870.44,1443.72 1870.91,1443.72 1871.39,1443.72 1871.86,1443.72 1872.33,1443.73 1872.81,1443.73 1873.28,1443.73 1873.76,1443.73 1874.23,1443.73 1874.71,1443.74 1875.18,1443.74 1875.65,1443.74 1876.13,1443.74 1876.6,1443.75 1877.08,1443.75 1877.55,1443.75 1878.03,1443.75 1878.5,1443.75 1878.97,1443.76 1879.45,1443.76 1879.92,1443.76 1880.4,1443.76 1880.87,1443.76 1881.34,1443.77 1881.82,1443.77 1882.29,1443.77 1882.77,1443.77 1883.24,1443.77 1883.72,1443.78 1884.19,1443.78 1884.66,1443.78 1885.14,1443.78 1885.61,1443.78 1886.09,1443.79 1886.56,1443.79 1887.03,1443.79 1887.51,1443.79 1887.98,1443.79 1888.46,1443.8 1888.93,1443.8 1889.41,1443.8 1889.88,1443.8 1890.35,1443.8 1890.83,1443.8 1891.3,1443.81 1891.78,1443.81 1892.25,1443.81 1892.73,1443.81 1893.2,1443.81 1893.67,1443.82 1894.15,1443.82 1894.62,1443.82 1895.1,1443.82 1895.57,1443.82 1896.04,1443.82 1896.52,1443.83 1896.99,1443.83 1897.47,1443.83 1897.94,1443.83 1898.42,1443.83 1898.89,1443.83 1899.36,1443.83 1899.84,1443.84 1900.31,1443.84 1900.79,1443.84 1901.26,1443.84 1901.74,1443.84 1902.21,1443.84 1902.68,1443.85 1903.16,1443.85 1903.63,1443.85 1904.11,1443.85 1904.58,1443.85 1905.05,1443.85 1905.53,1443.85 1906,1443.86 1906.48,1443.86 1906.95,1443.86 1907.43,1443.86 1907.9,1443.86 1908.37,1443.86 1908.85,1443.86 1909.32,1443.87 1909.8,1443.87 1910.27,1443.87 1910.75,1443.87 1911.22,1443.87 1911.69,1443.87 1912.17,1443.87 1912.64,1443.87 1913.12,1443.88 1913.59,1443.88 1914.06,1443.88 1914.54,1443.88 1915.01,1443.88 1915.49,1443.88 1915.96,1443.88 1916.44,1443.88 1916.91,1443.89 1917.38,1443.89 1917.86,1443.89 1918.33,1443.89 1918.81,1443.89 1919.28,1443.89 1919.76,1443.89 1920.23,1443.89 1920.7,1443.9 1921.18,1443.9 1921.65,1443.9 1922.13,1443.9 1922.6,1443.9 1923.07,1443.9 1923.55,1443.9 1924.02,1443.9 1924.5,1443.9 1924.97,1443.91 1925.45,1443.91 1925.92,1443.91 1926.39,1443.91 1926.87,1443.91 1927.34,1443.91 1927.82,1443.91 1928.29,1443.91 1928.76,1443.91 1929.24,1443.92 1929.71,1443.92 1930.19,1443.92 1930.66,1443.92 1931.14,1443.92 1931.61,1443.92 1932.08,1443.92 1932.56,1443.92 1933.03,1443.92 1933.51,1443.92 1933.98,1443.93 1934.46,1443.93 1934.93,1443.93 1935.4,1443.93 1935.88,1443.93 1936.35,1443.93 1936.83,1443.93 1937.3,1443.93 1937.77,1443.93 1938.25,1443.93 1938.72,1443.94 1939.2,1443.94 1939.67,1443.94 1940.15,1443.94 1940.62,1443.94 1941.09,1443.94 1941.57,1443.94 1942.04,1443.94 1942.52,1443.94 1942.99,1443.94 1943.47,1443.95 1943.94,1443.95 1944.41,1443.95 1944.89,1443.95 1945.36,1443.95 1945.84,1443.95 1946.31,1443.95 1946.78,1443.95 1947.26,1443.95 1947.73,1443.96 1948.21,1443.96 1948.68,1443.96 1949.16,1443.96 1949.63,1443.96 1950.1,1443.96 1950.58,1443.96 1951.05,1443.96 1951.53,1443.96 1952,1443.96 1952.48,1443.97 1952.95,1443.97 1953.42,1443.97 1953.9,1443.97 1954.37,1443.97 1954.85,1443.97 1955.32,1443.97 1955.79,1443.97 1956.27,1443.97 1956.74,1443.97 1957.22,1443.98 1957.69,1443.98 1958.17,1443.98 1958.64,1443.98 1959.11,1443.98 1959.59,1443.98 1960.06,1443.98 1960.54,1443.98 1961.01,1443.98 1961.49,1443.99 1961.96,1443.99 1962.43,1443.99 1962.91,1443.99 1963.38,1443.99 1963.86,1443.99 1964.33,1443.99 1964.8,1443.99 1965.28,1443.99 1965.75,1444 1966.23,1444 1966.7,1444 1967.18,1444 1967.65,1444 1968.12,1444 1968.6,1444 1969.07,1444 1969.55,1444.01 1970.02,1444.01 1970.49,1444.01 1970.97,1444.01 1971.44,1444.01 1971.92,1444.01 1972.39,1444.01 1972.87,1444.01 1973.34,1444.02 1973.81,1444.02 1974.29,1444.02 1974.76,1444.02 1975.24,1444.02 1975.71,1444.02 1976.19,1444.02 1976.66,1444.03 1977.13,1444.03 1977.61,1444.03 1978.08,1444.03 1978.56,1444.03 1979.03,1444.03 1979.5,1444.04 1979.98,1444.04 1980.45,1444.04 1980.93,1444.04 1981.4,1444.04 1981.88,1444.04 1982.35,1444.05 1982.82,1444.05 1983.3,1444.05 1983.77,1444.05 1984.25,1444.05 1984.72,1444.05 1985.2,1444.06 1985.67,1444.06 1986.14,1444.06 1986.62,1444.06 1987.09,1444.06 1987.57,1444.07 1988.04,1444.07 1988.51,1444.07 1988.99,1444.07 1989.46,1444.07 1989.94,1444.08 1990.41,1444.08 1990.89,1444.08 1991.36,1444.08 1991.83,1444.09 1992.31,1444.09 1992.78,1444.09 1993.26,1444.09 1993.73,1444.1 1994.21,1444.1 1994.68,1444.1 1995.15,1444.1 1995.63,1444.11 1996.1,1444.11 1996.58,1444.11 1997.05,1444.12 1997.52,1444.12 1998,1444.12 1998.47,1444.13 1998.95,1444.13 1999.42,1444.13 1999.9,1444.14 2000.37,1444.14 2000.84,1444.14 2001.32,1444.15 2001.79,1444.15 2002.27,1444.15 2002.74,1444.16 2003.22,1444.16 2003.69,1444.17 2004.16,1444.17 2004.64,1444.17 2005.11,1444.18 2005.59,1444.18 2006.06,1444.19 2006.53,1444.19 2007.01,1444.2 2007.48,1444.2 2007.96,1444.21 2008.43,1444.21 2008.91,1444.22 2009.38,1444.22 2009.85,1444.23 2010.33,1444.23 2010.8,1444.24 2011.28,1444.25 2011.75,1444.25 2012.22,1444.26 2012.7,1444.27 2013.17,1444.27 2013.65,1444.28 2014.12,1444.29 2014.6,1444.29 2015.07,1444.3 2015.54,1444.31 2016.02,1444.31 2016.49,1444.32 2016.97,1444.33 2017.44,1444.34 2017.92,1444.35 2018.39,1444.35 2018.86,1444.36 2019.34,1444.37 2019.81,1444.38 2020.29,1444.39 2020.76,1444.4 2021.23,1444.41 2021.71,1444.42 2022.18,1444.43 2022.66,1444.44 2023.13,1444.45 2023.61,1444.46 2024.08,1444.47 2024.55,1444.48 2025.03,1444.49 2025.5,1444.51 2025.98,1444.52 2026.45,1444.53 2026.93,1444.54 2027.4,1444.55 2027.87,1444.57 2028.35,1444.58 2028.82,1444.59 2029.3,1444.61 2029.77,1444.62 2030.24,1444.64 2030.72,1444.65 2031.19,1444.66 2031.67,1444.68 2032.14,1444.69 2032.62,1444.71 2033.09,1444.72 2033.56,1444.74 2034.04,1444.75 2034.51,1444.77 2034.99,1444.79 2035.46,1444.8 2035.94,1444.82 2036.41,1444.83 2036.88,1444.85 2037.36,1444.87 2037.83,1444.88 2038.31,1444.9 2038.78,1444.92 2039.25,1444.93 2039.73,1444.95 2040.2,1444.97 2040.68,1444.98 2041.15,1445 2041.63,1445.02 2042.1,1445.04 2042.57,1445.05 2043.05,1445.07 2043.52,1445.09 2044,1445.1 2044.47,1445.12 2044.95,1445.13 2045.42,1445.15 2045.89,1445.17 2046.37,1445.18 2046.84,1445.2 2047.32,1445.21 2047.79,1445.23 2048.26,1445.24 2048.74,1445.26 2049.21,1445.27 2049.69,1445.29 2050.16,1445.3 2050.64,1445.32 2051.11,1445.33 2051.58,1445.34 2052.06,1445.36 2052.53,1445.37 2053.01,1445.38 2053.48,1445.39 2053.95,1445.4 2054.43,1445.42 2054.9,1445.43 2055.38,1445.44 2055.85,1445.45 2056.33,1445.46 2056.8,1445.47 2057.27,1445.48 2057.75,1445.49 2058.22,1445.49 2058.7,1445.5 2059.17,1445.51 2059.65,1445.52 2060.12,1445.53 2060.59,1445.53 2061.07,1445.54 2061.54,1445.55 2062.02,1445.55 2062.49,1445.56 2062.96,1445.57 2063.44,1445.57 2063.91,1445.58 2064.39,1445.58 2064.86,1445.59 2065.34,1445.59 2065.81,1445.6 2066.28,1445.6 2066.76,1445.6 2067.23,1445.61 2067.71,1445.61 2068.18,1445.62 2068.66,1445.62 2069.13,1445.62 2069.6,1445.63 2070.08,1445.63 2070.55,1445.63 2071.03,1445.63 2071.5,1445.64 2071.97,1445.64 2072.45,1445.64 2072.92,1445.64 2073.4,1445.65 2073.87,1445.65 2074.35,1445.65 2074.82,1445.65 2075.29,1445.65 2075.77,1445.66 2076.24,1445.66 2076.72,1445.66 2077.19,1445.66 2077.67,1445.66 2078.14,1445.66 2078.61,1445.66 2079.09,1445.67 2079.56,1445.67 2080.04,1445.67 2080.51,1445.67 2080.98,1445.67 2081.46,1445.67 2081.93,1445.67 2082.41,1445.67 2082.88,1445.68 2083.36,1445.68 2083.83,1445.68 2084.3,1445.68 2084.78,1445.68 2085.25,1445.68 2085.73,1445.68 2086.2,1445.68 2086.68,1445.68 2087.15,1445.68 2087.62,1445.68 2088.1,1445.68 2088.57,1445.68 2089.05,1445.69 2089.52,1445.69 2089.99,1445.69 2090.47,1445.69 2090.94,1445.69 2091.42,1445.69 2091.89,1445.69 2092.37,1445.69 2092.84,1445.69 2093.31,1445.69 2093.79,1445.69 2094.26,1445.69 2094.74,1445.69 2095.21,1445.69 2095.68,1445.69 2096.16,1445.69 2096.63,1445.69 2097.11,1445.69 2097.58,1445.69 2098.06,1445.7 2098.53,1445.7 2099,1445.7 2099.48,1445.7 2099.95,1445.7 2100.43,1445.7 2100.9,1445.7 2101.38,1445.7 2101.85,1445.7 2102.32,1445.7 2102.8,1445.7 2103.27,1445.7 2103.75,1445.7 2104.22,1445.7 2104.69,1445.7 2105.17,1445.7 2105.64,1445.7 2106.12,1445.7 2106.59,1445.7 2107.07,1445.7 2107.54,1445.7 2108.01,1445.7 2108.49,1445.7 2108.96,1445.7 2109.44,1445.7 2109.91,1445.7 2110.39,1445.7 2110.86,1445.7 2111.33,1445.7 2111.81,1445.7 2112.28,1445.7 2112.76,1445.7 2113.23,1445.7 2113.7,1445.7 2114.18,1445.7 2114.65,1445.71 2115.13,1445.71 2115.6,1445.71 2116.08,1445.71 2116.55,1445.71 2117.02,1445.71 2117.5,1445.71 2117.97,1445.71 2118.45,1445.71 2118.92,1445.71 2119.4,1445.71 2119.87,1445.71 2120.34,1445.71 2120.82,1445.71 2121.29,1445.71 2121.77,1445.71 2122.24,1445.71 2122.71,1445.71 2123.19,1445.71 2123.66,1445.71 2124.14,1445.71 2124.61,1445.71 2125.09,1445.71 2125.56,1445.71 2126.03,1445.71 2126.51,1445.71 2126.98,1445.71 2127.46,1445.71 2127.93,1445.71 2128.41,1445.71 2128.88,1445.71 2129.35,1445.71 2129.83,1445.71 2130.3,1445.71 2130.78,1445.71 2131.25,1445.71 2131.72,1445.71 2132.2,1445.71 2132.67,1445.71 2133.15,1445.71 2133.62,1445.71 2134.1,1445.71 2134.57,1445.71 2135.04,1445.71 2135.52,1445.71 2135.99,1445.71 2136.47,1445.71 2136.94,1445.71 2137.41,1445.71 2137.89,1445.71 2138.36,1445.71 2138.84,1445.71 2139.31,1445.71 2139.79,1445.71 2140.26,1445.71 2140.73,1445.71 2141.21,1445.71 2141.68,1445.71 2142.16,1445.71 2142.63,1445.71 2143.11,1445.71 2143.58,1445.71 2144.05,1445.71 2144.53,1445.71 2145,1445.71 2145.48,1445.71 2145.95,1445.71 2146.42,1445.71 2146.9,1445.71 2147.37,1445.71 2147.85,1445.71 2148.32,1445.71 2148.8,1445.71 2149.27,1445.71 2149.74,1445.71 2150.22,1445.71 2150.69,1445.71 2151.17,1445.71 2151.64,1445.71 2152.12,1445.71 2152.59,1445.71 2153.06,1445.71 2153.54,1445.71 2154.01,1445.71 2154.49,1445.71 2154.96,1445.71 2155.43,1445.71 2155.91,1445.71 2156.38,1445.71 2156.86,1445.71 2157.33,1445.71 2157.81,1445.71 2158.28,1445.71 2158.75,1445.71 2159.23,1445.71 2159.7,1445.71 2160.18,1445.71 2160.65,1445.71 2161.13,1445.71 2161.6,1445.71 2162.07,1445.71 2162.55,1445.71 2163.02,1445.71 2163.5,1445.71 2163.97,1445.71 2164.44,1445.71 2164.92,1445.71 2165.39,1445.71 2165.87,1445.71 2166.34,1445.71 2166.82,1445.71 2167.29,1445.71 2167.76,1445.71 2168.24,1445.71 2168.71,1445.71 2169.19,1445.71 2169.66,1445.71 2170.14,1445.71 2170.61,1445.71 2171.08,1445.71 2171.56,1445.71 2172.03,1445.71 2172.51,1445.71 2172.98,1445.71 2173.45,1445.71 2173.93,1445.71 2174.4,1445.71 2174.88,1445.71 2175.35,1445.71 2175.83,1445.71 2176.3,1445.71 2176.77,1445.71 2177.25,1445.71 2177.72,1445.71 2178.2,1445.71 2178.67,1445.71 2179.14,1445.71 2179.62,1445.71 2180.09,1445.71 2180.57,1445.71 2181.04,1445.71 2181.52,1445.71 2181.99,1445.71 2182.46,1445.71 2182.94,1445.71 2183.41,1445.71 2183.89,1445.71 2184.36,1445.71 2184.84,1445.71 2185.31,1445.71 2185.78,1445.71 2186.26,1445.71 2186.73,1445.71 2187.21,1445.71 2187.68,1445.71 2188.15,1445.71 2188.63,1445.71 2189.1,1445.71 2189.58,1445.71 2190.05,1445.71 2190.53,1445.71 2191,1445.71 2191.47,1445.71 2191.95,1445.71 2192.42,1445.71 2192.9,1445.71 2193.37,1445.71 2193.85,1445.71 2194.32,1445.71 2194.79,1445.71 2195.27,1445.71 2195.74,1445.71 2196.22,1445.71 2196.69,1445.71 2197.16,1445.72 2197.64,1445.72 2198.11,1445.72 2198.59,1445.72 2199.06,1445.72 2199.54,1445.72 2200.01,1445.72 2200.48,1445.72 2200.96,1445.72 2201.43,1445.72 2201.91,1445.72 2202.38,1445.72 2202.86,1445.72 2203.33,1445.72 2203.8,1445.72 2204.28,1445.72 2204.75,1445.72 2205.23,1445.72 2205.7,1445.72 2206.17,1445.72 2206.65,1445.72 2207.12,1445.72 2207.6,1445.72 2208.07,1445.72 2208.55,1445.72 2209.02,1445.72 2209.49,1445.72 2209.97,1445.72 2210.44,1445.72 2210.92,1445.72 2211.39,1445.72 2211.86,1445.72 2212.34,1445.72 2212.81,1445.72 2213.29,1445.72 2213.76,1445.72 2214.24,1445.72 2214.71,1445.72 2215.18,1445.72 2215.66,1445.72 2216.13,1445.72 2216.61,1445.72 2217.08,1445.72 2217.56,1445.72 2218.03,1445.72 2218.5,1445.72 2218.98,1445.72 2219.45,1445.72 2219.93,1445.72 2220.4,1445.72 2220.87,1445.72 2221.35,1445.72 2221.82,1445.72 2222.3,1445.72 2222.77,1445.72 2223.25,1445.72 2223.72,1445.72 2224.19,1445.72 2224.67,1445.72 2225.14,1445.72 2225.62,1445.72 2226.09,1445.72 2226.57,1445.72 2227.04,1445.72 2227.51,1445.72 2227.99,1445.72 2228.46,1445.72 2228.94,1445.72 2229.41,1445.72 2229.88,1445.72 2230.36,1445.72 2230.83,1445.72 2231.31,1445.72 2231.78,1445.72 2232.26,1445.72 2232.73,1445.72 2233.2,1445.72 2233.68,1445.72 2234.15,1445.72 2234.63,1445.72 2235.1,1445.72 2235.58,1445.72 2236.05,1445.72 2236.52,1445.72 2237,1445.72 2237.47,1445.72 2237.95,1445.72 2238.42,1445.72 2238.89,1445.72 2239.37,1445.72 2239.84,1445.72 2240.32,1445.72 2240.79,1445.72 2241.27,1445.72 2241.74,1445.72 2242.21,1445.72 2242.69,1445.72 2243.16,1445.72 2243.64,1445.72 2244.11,1445.72 2244.59,1445.72 2245.06,1445.72 2245.53,1445.72 2246.01,1445.72 2246.48,1445.72 2246.96,1445.72 2247.43,1445.72 2247.9,1445.72 2248.38,1445.72 2248.85,1445.72 2249.33,1445.72 2249.8,1445.72 2250.28,1445.72 2250.75,1445.72 2251.22,1445.72 2251.7,1445.72 2252.17,1445.72 2252.65,1445.72 2253.12,1445.72 2253.59,1445.72 2254.07,1445.72 2254.54,1445.72 2255.02,1445.72 2255.49,1445.72 2255.97,1445.72 2256.44,1445.72 2256.91,1445.72 2257.39,1445.72 2257.86,1445.72 2258.34,1445.72 2258.81,1445.72 2259.29,1445.72 2259.76,1445.72 2260.23,1445.72 2260.71,1445.72 2261.18,1445.72 2261.66,1445.72 2262.13,1445.72 2262.6,1445.72 2263.08,1445.72 2263.55,1445.72 2264.03,1445.72 2264.5,1445.72 2264.98,1445.72 2265.45,1445.72 2265.92,1445.72 2266.4,1445.72 2266.87,1445.72 2267.35,1445.72 2267.82,1445.72 2268.3,1445.72 2268.77,1445.72 2269.24,1445.72 2269.72,1445.72 2270.19,1445.72 2270.67,1445.72 2271.14,1445.72 2271.61,1445.72 2272.09,1445.72 2272.56,1445.72 2273.04,1445.72 2273.51,1445.72 2273.99,1445.72 2274.46,1445.72 2274.93,1445.72 2275.41,1445.72 2275.88,1445.72 2276.36,1445.72 2276.83,1445.72 2277.31,1445.72 2277.78,1445.72 2278.25,1445.72 2278.73,1445.72 2279.2,1445.72 2279.68,1445.72 2280.15,1445.72 2280.62,1445.72 2281.1,1445.72 2281.57,1445.72 2282.05,1445.72 2282.52,1445.72 2283,1445.72 2283.47,1445.72 2283.94,1445.72 2284.42,1445.72 2284.89,1445.72 2285.37,1445.72 2285.84,1445.72 2286.32,1445.72 2286.79,1445.72 2287.26,1445.72 2287.74,1445.72 2288.21,1445.72 2288.69,1445.72 2289.16,1445.72 2289.63,1445.72 2290.11,1445.72 2290.58,1445.72 2291.06,1445.72 2291.53,1445.72 2292.01,1445.72 2292.48,1445.72 2292.95,1445.72 2293.43,1445.72 2293.9,1445.72 2294.38,1445.72 2294.85,1445.72 2295.32,1445.72 2295.8,1445.72 2296.27,1445.72 2296.75,1445.72 2297.22,1445.72 2297.7,1445.72 2298.17,1445.72 2298.64,1445.72 2299.12,1445.72 2299.59,1445.72 2300.07,1445.72 2300.54,1445.72 2301.02,1445.72 2301.49,1445.72 2301.96,1445.72 2302.44,1445.72 2302.91,1445.72 2303.39,1445.72 2303.86,1445.72 2304.33,1445.72 2304.81,1445.72 2305.28,1445.72 2305.76,1445.72 2306.23,1445.72 2306.71,1445.72 2307.18,1445.72 2307.65,1445.72 2308.13,1445.72 2308.6,1445.72 2309.08,1445.72 2309.55,1445.72 2310.03,1445.72 2310.5,1445.72 2310.97,1445.72 2311.45,1445.72 2311.92,1445.72 2312.4,1445.72 2312.87,1445.72 2313.34,1445.72 2313.82,1445.72 2314.29,1445.72 2314.77,1445.72 2315.24,1445.72 2315.72,1445.72 2316.19,1445.72 2316.66,1445.72 2317.14,1445.72 2317.61,1445.72 2318.09,1445.72 2318.56,1445.72 2319.04,1445.72 2319.51,1445.72 2319.98,1445.72 2320.46,1445.72 2320.93,1445.72 2321.41,1445.72 2321.88,1445.72 2322.35,1445.72 2322.83,1445.72 2323.3,1445.72 2323.78,1445.72 2324.25,1445.72 2324.73,1445.72 2325.2,1445.72 "/>
<path clip-path="url(#clip760)" d="M2087.52 198.898 L2320.3 198.898 L2320.3 95.2176 L2087.52 95.2176  Z" fill="#ffffff" fill-rule="evenodd" fill-opacity="1"/>
<polyline clip-path="url(#clip760)" style="stroke:#000000; stroke-linecap:round; stroke-linejoin:round; stroke-width:4; stroke-opacity:1; fill:none" points="2087.52,198.898 2320.3,198.898 2320.3,95.2176 2087.52,95.2176 2087.52,198.898 "/>
<polyline clip-path="url(#clip760)" style="stroke:#009af9; stroke-linecap:round; stroke-linejoin:round; stroke-width:4; stroke-opacity:1; fill:none" points="2098.34,147.058 2163.25,147.058 "/>
<path clip-path="url(#clip760)" d="M2192.49 139.176 L2192.49 143.203 Q2190.69 142.277 2188.74 141.815 Q2186.8 141.352 2184.71 141.352 Q2181.54 141.352 2179.95 142.324 Q2178.37 143.296 2178.37 145.24 Q2178.37 146.722 2179.51 147.578 Q2180.64 148.412 2184.07 149.176 L2185.53 149.5 Q2190.06 150.472 2191.96 152.254 Q2193.88 154.014 2193.88 157.185 Q2193.88 160.796 2191.01 162.902 Q2188.16 165.009 2183.16 165.009 Q2181.08 165.009 2178.81 164.592 Q2176.57 164.199 2174.07 163.388 L2174.07 158.99 Q2176.43 160.217 2178.72 160.842 Q2181.01 161.444 2183.26 161.444 Q2186.27 161.444 2187.89 160.426 Q2189.51 159.384 2189.51 157.509 Q2189.51 155.773 2188.33 154.847 Q2187.17 153.921 2183.21 153.064 L2181.73 152.717 Q2177.77 151.884 2176.01 150.171 Q2174.25 148.435 2174.25 145.426 Q2174.25 141.768 2176.84 139.778 Q2179.44 137.787 2184.21 137.787 Q2186.57 137.787 2188.65 138.134 Q2190.73 138.481 2192.49 139.176 Z" fill="#000000" fill-rule="nonzero" fill-opacity="1" /><path clip-path="url(#clip760)" d="M2204.88 131.051 L2204.88 138.412 L2213.65 138.412 L2213.65 141.722 L2204.88 141.722 L2204.88 155.796 Q2204.88 158.967 2205.73 159.87 Q2206.61 160.773 2209.27 160.773 L2213.65 160.773 L2213.65 164.338 L2209.27 164.338 Q2204.34 164.338 2202.47 162.509 Q2200.59 160.657 2200.59 155.796 L2200.59 141.722 L2197.47 141.722 L2197.47 138.412 L2200.59 138.412 L2200.59 131.051 L2204.88 131.051 Z" fill="#000000" fill-rule="nonzero" fill-opacity="1" /><path clip-path="url(#clip760)" d="M2234.27 142.393 Q2233.56 141.977 2232.7 141.791 Q2231.87 141.583 2230.85 141.583 Q2227.24 141.583 2225.29 143.944 Q2223.37 146.282 2223.37 150.68 L2223.37 164.338 L2219.09 164.338 L2219.09 138.412 L2223.37 138.412 L2223.37 142.44 Q2224.71 140.078 2226.87 138.944 Q2229.02 137.787 2232.1 137.787 Q2232.54 137.787 2233.07 137.856 Q2233.6 137.903 2234.25 138.018 L2234.27 142.393 Z" fill="#000000" fill-rule="nonzero" fill-opacity="1" /><path clip-path="url(#clip760)" d="M2259.88 150.31 L2259.88 152.393 L2240.29 152.393 Q2240.57 156.791 2242.93 159.106 Q2245.32 161.398 2249.55 161.398 Q2252.01 161.398 2254.3 160.796 Q2256.61 160.194 2258.88 158.99 L2258.88 163.018 Q2256.59 163.99 2254.18 164.5 Q2251.77 165.009 2249.3 165.009 Q2243.09 165.009 2239.46 161.398 Q2235.85 157.787 2235.85 151.629 Q2235.85 145.264 2239.27 141.537 Q2242.72 137.787 2248.56 137.787 Q2253.79 137.787 2256.82 141.166 Q2259.88 144.523 2259.88 150.31 M2255.62 149.06 Q2255.57 145.565 2253.65 143.481 Q2251.75 141.398 2248.6 141.398 Q2245.04 141.398 2242.89 143.412 Q2240.76 145.426 2240.43 149.083 L2255.62 149.06 Z" fill="#000000" fill-rule="nonzero" fill-opacity="1" /><path clip-path="url(#clip760)" d="M2283.39 139.176 L2283.39 143.203 Q2281.59 142.277 2279.64 141.815 Q2277.7 141.352 2275.62 141.352 Q2272.45 141.352 2270.85 142.324 Q2269.27 143.296 2269.27 145.24 Q2269.27 146.722 2270.41 147.578 Q2271.54 148.412 2274.97 149.176 L2276.43 149.5 Q2280.96 150.472 2282.86 152.254 Q2284.78 154.014 2284.78 157.185 Q2284.78 160.796 2281.91 162.902 Q2279.07 165.009 2274.07 165.009 Q2271.98 165.009 2269.71 164.592 Q2267.47 164.199 2264.97 163.388 L2264.97 158.99 Q2267.33 160.217 2269.62 160.842 Q2271.91 161.444 2274.16 161.444 Q2277.17 161.444 2278.79 160.426 Q2280.41 159.384 2280.41 157.509 Q2280.41 155.773 2279.23 154.847 Q2278.07 153.921 2274.11 153.064 L2272.63 152.717 Q2268.67 151.884 2266.91 150.171 Q2265.15 148.435 2265.15 145.426 Q2265.15 141.768 2267.75 139.778 Q2270.34 137.787 2275.11 137.787 Q2277.47 137.787 2279.55 138.134 Q2281.64 138.481 2283.39 139.176 Z" fill="#000000" fill-rule="nonzero" fill-opacity="1" /><path clip-path="url(#clip760)" d="M2308.09 139.176 L2308.09 143.203 Q2306.29 142.277 2304.34 141.815 Q2302.4 141.352 2300.32 141.352 Q2297.14 141.352 2295.55 142.324 Q2293.97 143.296 2293.97 145.24 Q2293.97 146.722 2295.11 147.578 Q2296.24 148.412 2299.67 149.176 L2301.13 149.5 Q2305.66 150.472 2307.56 152.254 Q2309.48 154.014 2309.48 157.185 Q2309.48 160.796 2306.61 162.902 Q2303.77 165.009 2298.77 165.009 Q2296.68 165.009 2294.41 164.592 Q2292.17 164.199 2289.67 163.388 L2289.67 158.99 Q2292.03 160.217 2294.32 160.842 Q2296.61 161.444 2298.86 161.444 Q2301.87 161.444 2303.49 160.426 Q2305.11 159.384 2305.11 157.509 Q2305.11 155.773 2303.93 154.847 Q2302.77 153.921 2298.81 153.064 L2297.33 152.717 Q2293.37 151.884 2291.61 150.171 Q2289.85 148.435 2289.85 145.426 Q2289.85 141.768 2292.45 139.778 Q2295.04 137.787 2299.81 137.787 Q2302.17 137.787 2304.25 138.134 Q2306.33 138.481 2308.09 139.176 Z" fill="#000000" fill-rule="nonzero" fill-opacity="1" /></svg>
