<?xml version="1.0" encoding="utf-8"?>
<svg xmlns="http://www.w3.org/2000/svg" xmlns:xlink="http://www.w3.org/1999/xlink" width="600" height="400" viewBox="0 0 2400 1600">
<defs>
  <clipPath id="clip470">
    <rect x="0" y="0" width="2400" height="1600"/>
  </clipPath>
</defs>
<path clip-path="url(#clip470)" d="M0 1600 L2400 1600 L2400 0 L0 0  Z" fill="#ffffff" fill-rule="evenodd" fill-opacity="1"/>
<defs>
  <clipPath id="clip471">
    <rect x="1401" y="47" width="952" height="1440"/>
  </clipPath>
</defs>
<path clip-path="url(#clip470)" d="M193.936 1486.45 L1145.21 1486.45 L1145.21 47.2441 L193.936 47.2441  Z" fill="#ffffff" fill-rule="evenodd" fill-opacity="1"/>
<defs>
  <clipPath id="clip472">
    <rect x="193" y="47" width="952" height="1440"/>
  </clipPath>
</defs>
<polyline clip-path="url(#clip472)" style="stroke:#000000; stroke-linecap:round; stroke-linejoin:round; stroke-width:2; stroke-opacity:0.1; fill:none" points="239.687,1486.45 239.687,47.2441 "/>
<polyline clip-path="url(#clip472)" style="stroke:#000000; stroke-linecap:round; stroke-linejoin:round; stroke-width:2; stroke-opacity:0.1; fill:none" points="453.426,1486.45 453.426,47.2441 "/>
<polyline clip-path="url(#clip472)" style="stroke:#000000; stroke-linecap:round; stroke-linejoin:round; stroke-width:2; stroke-opacity:0.1; fill:none" points="667.165,1486.45 667.165,47.2441 "/>
<polyline clip-path="url(#clip472)" style="stroke:#000000; stroke-linecap:round; stroke-linejoin:round; stroke-width:2; stroke-opacity:0.1; fill:none" points="880.904,1486.45 880.904,47.2441 "/>
<polyline clip-path="url(#clip472)" style="stroke:#000000; stroke-linecap:round; stroke-linejoin:round; stroke-width:2; stroke-opacity:0.1; fill:none" points="1094.64,1486.45 1094.64,47.2441 "/>
<polyline clip-path="url(#clip472)" style="stroke:#000000; stroke-linecap:round; stroke-linejoin:round; stroke-width:2; stroke-opacity:0.1; fill:none" points="193.936,1351.17 1145.21,1351.17 "/>
<polyline clip-path="url(#clip472)" style="stroke:#000000; stroke-linecap:round; stroke-linejoin:round; stroke-width:2; stroke-opacity:0.1; fill:none" points="193.936,1084 1145.21,1084 "/>
<polyline clip-path="url(#clip472)" style="stroke:#000000; stroke-linecap:round; stroke-linejoin:round; stroke-width:2; stroke-opacity:0.1; fill:none" points="193.936,816.823 1145.21,816.823 "/>
<polyline clip-path="url(#clip472)" style="stroke:#000000; stroke-linecap:round; stroke-linejoin:round; stroke-width:2; stroke-opacity:0.1; fill:none" points="193.936,549.65 1145.21,549.65 "/>
<polyline clip-path="url(#clip472)" style="stroke:#000000; stroke-linecap:round; stroke-linejoin:round; stroke-width:2; stroke-opacity:0.1; fill:none" points="193.936,282.476 1145.21,282.476 "/>
<polyline clip-path="url(#clip470)" style="stroke:#000000; stroke-linecap:round; stroke-linejoin:round; stroke-width:4; stroke-opacity:1; fill:none" points="193.936,1486.45 1145.21,1486.45 "/>
<polyline clip-path="url(#clip470)" style="stroke:#000000; stroke-linecap:round; stroke-linejoin:round; stroke-width:4; stroke-opacity:1; fill:none" points="239.687,1486.45 239.687,1467.55 "/>
<polyline clip-path="url(#clip470)" style="stroke:#000000; stroke-linecap:round; stroke-linejoin:round; stroke-width:4; stroke-opacity:1; fill:none" points="453.426,1486.45 453.426,1467.55 "/>
<polyline clip-path="url(#clip470)" style="stroke:#000000; stroke-linecap:round; stroke-linejoin:round; stroke-width:4; stroke-opacity:1; fill:none" points="667.165,1486.45 667.165,1467.55 "/>
<polyline clip-path="url(#clip470)" style="stroke:#000000; stroke-linecap:round; stroke-linejoin:round; stroke-width:4; stroke-opacity:1; fill:none" points="880.904,1486.45 880.904,1467.55 "/>
<polyline clip-path="url(#clip470)" style="stroke:#000000; stroke-linecap:round; stroke-linejoin:round; stroke-width:4; stroke-opacity:1; fill:none" points="1094.64,1486.45 1094.64,1467.55 "/>
<path clip-path="url(#clip470)" d="M208.588 1532.02 L238.264 1532.02 L238.264 1535.95 L208.588 1535.95 L208.588 1532.02 Z" fill="#000000" fill-rule="nonzero" fill-opacity="1" /><path clip-path="url(#clip470)" d="M261.204 1518.36 L249.398 1536.81 L261.204 1536.81 L261.204 1518.36 M259.977 1514.29 L265.856 1514.29 L265.856 1536.81 L270.787 1536.81 L270.787 1540.7 L265.856 1540.7 L265.856 1548.85 L261.204 1548.85 L261.204 1540.7 L245.602 1540.7 L245.602 1536.19 L259.977 1514.29 Z" fill="#000000" fill-rule="nonzero" fill-opacity="1" /><path clip-path="url(#clip470)" d="M423.369 1532.02 L453.044 1532.02 L453.044 1535.95 L423.369 1535.95 L423.369 1532.02 Z" fill="#000000" fill-rule="nonzero" fill-opacity="1" /><path clip-path="url(#clip470)" d="M467.165 1544.91 L483.484 1544.91 L483.484 1548.85 L461.54 1548.85 L461.54 1544.91 Q464.202 1542.16 468.785 1537.53 Q473.392 1532.88 474.572 1531.53 Q476.817 1529.01 477.697 1527.27 Q478.6 1525.51 478.6 1523.82 Q478.6 1521.07 476.655 1519.33 Q474.734 1517.6 471.632 1517.6 Q469.433 1517.6 466.98 1518.36 Q464.549 1519.13 461.771 1520.68 L461.771 1515.95 Q464.595 1514.82 467.049 1514.24 Q469.503 1513.66 471.54 1513.66 Q476.91 1513.66 480.104 1516.35 Q483.299 1519.03 483.299 1523.52 Q483.299 1525.65 482.489 1527.57 Q481.702 1529.47 479.595 1532.07 Q479.017 1532.74 475.915 1535.95 Q472.813 1539.15 467.165 1544.91 Z" fill="#000000" fill-rule="nonzero" fill-opacity="1" /><path clip-path="url(#clip470)" d="M667.165 1517.37 Q663.554 1517.37 661.726 1520.93 Q659.92 1524.47 659.92 1531.6 Q659.92 1538.71 661.726 1542.27 Q663.554 1545.82 667.165 1545.82 Q670.8 1545.82 672.605 1542.27 Q674.434 1538.71 674.434 1531.6 Q674.434 1524.47 672.605 1520.93 Q670.8 1517.37 667.165 1517.37 M667.165 1513.66 Q672.975 1513.66 676.031 1518.27 Q679.11 1522.85 679.11 1531.6 Q679.11 1540.33 676.031 1544.94 Q672.975 1549.52 667.165 1549.52 Q661.355 1549.52 658.277 1544.94 Q655.221 1540.33 655.221 1531.6 Q655.221 1522.85 658.277 1518.27 Q661.355 1513.66 667.165 1513.66 Z" fill="#000000" fill-rule="nonzero" fill-opacity="1" /><path clip-path="url(#clip470)" d="M875.557 1544.91 L891.876 1544.91 L891.876 1548.85 L869.932 1548.85 L869.932 1544.91 Q872.594 1542.16 877.177 1537.53 Q881.784 1532.88 882.964 1531.53 Q885.21 1529.01 886.089 1527.27 Q886.992 1525.51 886.992 1523.82 Q886.992 1521.07 885.048 1519.33 Q883.127 1517.6 880.025 1517.6 Q877.826 1517.6 875.372 1518.36 Q872.941 1519.13 870.164 1520.68 L870.164 1515.95 Q872.988 1514.82 875.441 1514.24 Q877.895 1513.66 879.932 1513.66 Q885.302 1513.66 888.497 1516.35 Q891.691 1519.03 891.691 1523.52 Q891.691 1525.65 890.881 1527.57 Q890.094 1529.47 887.988 1532.07 Q887.409 1532.74 884.307 1535.95 Q881.205 1539.15 875.557 1544.91 Z" fill="#000000" fill-rule="nonzero" fill-opacity="1" /><path clip-path="url(#clip470)" d="M1097.65 1518.36 L1085.85 1536.81 L1097.65 1536.81 L1097.65 1518.36 M1096.43 1514.29 L1102.31 1514.29 L1102.31 1536.81 L1107.24 1536.81 L1107.24 1540.7 L1102.31 1540.7 L1102.31 1548.85 L1097.65 1548.85 L1097.65 1540.7 L1082.05 1540.7 L1082.05 1536.19 L1096.43 1514.29 Z" fill="#000000" fill-rule="nonzero" fill-opacity="1" /><polyline clip-path="url(#clip470)" style="stroke:#000000; stroke-linecap:round; stroke-linejoin:round; stroke-width:4; stroke-opacity:1; fill:none" points="193.936,1486.45 193.936,47.2441 "/>
<polyline clip-path="url(#clip470)" style="stroke:#000000; stroke-linecap:round; stroke-linejoin:round; stroke-width:4; stroke-opacity:1; fill:none" points="193.936,1351.17 212.834,1351.17 "/>
<polyline clip-path="url(#clip470)" style="stroke:#000000; stroke-linecap:round; stroke-linejoin:round; stroke-width:4; stroke-opacity:1; fill:none" points="193.936,1084 212.834,1084 "/>
<polyline clip-path="url(#clip470)" style="stroke:#000000; stroke-linecap:round; stroke-linejoin:round; stroke-width:4; stroke-opacity:1; fill:none" points="193.936,816.823 212.834,816.823 "/>
<polyline clip-path="url(#clip470)" style="stroke:#000000; stroke-linecap:round; stroke-linejoin:round; stroke-width:4; stroke-opacity:1; fill:none" points="193.936,549.65 212.834,549.65 "/>
<polyline clip-path="url(#clip470)" style="stroke:#000000; stroke-linecap:round; stroke-linejoin:round; stroke-width:4; stroke-opacity:1; fill:none" points="193.936,282.476 212.834,282.476 "/>
<path clip-path="url(#clip470)" d="M50.9921 1351.62 L80.6679 1351.62 L80.6679 1355.56 L50.9921 1355.56 L50.9921 1351.62 Z" fill="#000000" fill-rule="nonzero" fill-opacity="1" /><path clip-path="url(#clip470)" d="M90.8067 1333.89 L109.163 1333.89 L109.163 1337.83 L95.0891 1337.83 L95.0891 1346.3 Q96.1076 1345.95 97.1261 1345.79 Q98.1447 1345.6 99.1632 1345.6 Q104.95 1345.6 108.33 1348.78 Q111.709 1351.95 111.709 1357.36 Q111.709 1362.94 108.237 1366.04 Q104.765 1369.12 98.4456 1369.12 Q96.2697 1369.12 94.0012 1368.75 Q91.7558 1368.38 89.3484 1367.64 L89.3484 1362.94 Q91.4317 1364.08 93.6539 1364.63 Q95.8761 1365.19 98.353 1365.19 Q102.358 1365.19 104.696 1363.08 Q107.033 1360.97 107.033 1357.36 Q107.033 1353.75 104.696 1351.65 Q102.358 1349.54 98.353 1349.54 Q96.478 1349.54 94.603 1349.96 Q92.7512 1350.37 90.8067 1351.25 L90.8067 1333.89 Z" fill="#000000" fill-rule="nonzero" fill-opacity="1" /><path clip-path="url(#clip470)" d="M120.922 1362.57 L125.807 1362.57 L125.807 1368.45 L120.922 1368.45 L120.922 1362.57 Z" fill="#000000" fill-rule="nonzero" fill-opacity="1" /><path clip-path="url(#clip470)" d="M145.992 1336.97 Q142.381 1336.97 140.552 1340.53 Q138.746 1344.08 138.746 1351.21 Q138.746 1358.31 140.552 1361.88 Q142.381 1365.42 145.992 1365.42 Q149.626 1365.42 151.431 1361.88 Q153.26 1358.31 153.26 1351.21 Q153.26 1344.08 151.431 1340.53 Q149.626 1336.97 145.992 1336.97 M145.992 1333.27 Q151.802 1333.27 154.857 1337.87 Q157.936 1342.46 157.936 1351.21 Q157.936 1359.93 154.857 1364.54 Q151.802 1369.12 145.992 1369.12 Q140.181 1369.12 137.103 1364.54 Q134.047 1359.93 134.047 1351.21 Q134.047 1342.46 137.103 1337.87 Q140.181 1333.27 145.992 1333.27 Z" fill="#000000" fill-rule="nonzero" fill-opacity="1" /><path clip-path="url(#clip470)" d="M51.9875 1084.45 L81.6633 1084.45 L81.6633 1088.38 L51.9875 1088.38 L51.9875 1084.45 Z" fill="#000000" fill-rule="nonzero" fill-opacity="1" /><path clip-path="url(#clip470)" d="M95.7836 1097.34 L112.103 1097.34 L112.103 1101.28 L90.1586 1101.28 L90.1586 1097.34 Q92.8206 1094.59 97.4039 1089.96 Q102.01 1085.31 103.191 1083.96 Q105.436 1081.44 106.316 1079.7 Q107.219 1077.94 107.219 1076.25 Q107.219 1073.5 105.274 1071.76 Q103.353 1070.03 100.251 1070.03 Q98.0521 1070.03 95.5984 1070.79 Q93.1678 1071.56 90.3901 1073.11 L90.3901 1068.38 Q93.2141 1067.25 95.6678 1066.67 Q98.1215 1066.09 100.159 1066.09 Q105.529 1066.09 108.723 1068.78 Q111.918 1071.46 111.918 1075.95 Q111.918 1078.08 111.108 1080 Q110.321 1081.9 108.214 1084.49 Q107.635 1085.17 104.534 1088.38 Q101.432 1091.58 95.7836 1097.34 Z" fill="#000000" fill-rule="nonzero" fill-opacity="1" /><path clip-path="url(#clip470)" d="M121.918 1095.4 L126.802 1095.4 L126.802 1101.28 L121.918 1101.28 L121.918 1095.4 Z" fill="#000000" fill-rule="nonzero" fill-opacity="1" /><path clip-path="url(#clip470)" d="M137.033 1066.72 L155.39 1066.72 L155.39 1070.65 L141.316 1070.65 L141.316 1079.12 Q142.334 1078.78 143.353 1078.62 Q144.371 1078.43 145.39 1078.43 Q151.177 1078.43 154.556 1081.6 Q157.936 1084.77 157.936 1090.19 Q157.936 1095.77 154.464 1098.87 Q150.992 1101.95 144.672 1101.95 Q142.496 1101.95 140.228 1101.58 Q137.982 1101.21 135.575 1100.47 L135.575 1095.77 Q137.658 1096.9 139.881 1097.46 Q142.103 1098.01 144.58 1098.01 Q148.584 1098.01 150.922 1095.91 Q153.26 1093.8 153.26 1090.19 Q153.26 1086.58 150.922 1084.47 Q148.584 1082.37 144.58 1082.37 Q142.705 1082.37 140.83 1082.78 Q138.978 1083.2 137.033 1084.08 L137.033 1066.72 Z" fill="#000000" fill-rule="nonzero" fill-opacity="1" /><path clip-path="url(#clip470)" d="M100.76 802.622 Q97.1493 802.622 95.3206 806.187 Q93.515 809.729 93.515 816.858 Q93.515 823.965 95.3206 827.529 Q97.1493 831.071 100.76 831.071 Q104.395 831.071 106.2 827.529 Q108.029 823.965 108.029 816.858 Q108.029 809.729 106.2 806.187 Q104.395 802.622 100.76 802.622 M100.76 798.919 Q106.571 798.919 109.626 803.525 Q112.705 808.108 112.705 816.858 Q112.705 825.585 109.626 830.191 Q106.571 834.775 100.76 834.775 Q94.9502 834.775 91.8715 830.191 Q88.816 825.585 88.816 816.858 Q88.816 808.108 91.8715 803.525 Q94.9502 798.919 100.76 798.919 Z" fill="#000000" fill-rule="nonzero" fill-opacity="1" /><path clip-path="url(#clip470)" d="M120.922 828.224 L125.807 828.224 L125.807 834.103 L120.922 834.103 L120.922 828.224 Z" fill="#000000" fill-rule="nonzero" fill-opacity="1" /><path clip-path="url(#clip470)" d="M145.992 802.622 Q142.381 802.622 140.552 806.187 Q138.746 809.729 138.746 816.858 Q138.746 823.965 140.552 827.529 Q142.381 831.071 145.992 831.071 Q149.626 831.071 151.431 827.529 Q153.26 823.965 153.26 816.858 Q153.26 809.729 151.431 806.187 Q149.626 802.622 145.992 802.622 M145.992 798.919 Q151.802 798.919 154.857 803.525 Q157.936 808.108 157.936 816.858 Q157.936 825.585 154.857 830.191 Q151.802 834.775 145.992 834.775 Q140.181 834.775 137.103 830.191 Q134.047 825.585 134.047 816.858 Q134.047 808.108 137.103 803.525 Q140.181 798.919 145.992 798.919 Z" fill="#000000" fill-rule="nonzero" fill-opacity="1" /><path clip-path="url(#clip470)" d="M95.7836 562.995 L112.103 562.995 L112.103 566.93 L90.1586 566.93 L90.1586 562.995 Q92.8206 560.24 97.4039 555.61 Q102.01 550.958 103.191 549.615 Q105.436 547.092 106.316 545.356 Q107.219 543.597 107.219 541.907 Q107.219 539.152 105.274 537.416 Q103.353 535.68 100.251 535.68 Q98.0521 535.68 95.5984 536.444 Q93.1678 537.208 90.3901 538.759 L90.3901 534.036 Q93.2141 532.902 95.6678 532.324 Q98.1215 531.745 100.159 531.745 Q105.529 531.745 108.723 534.43 Q111.918 537.115 111.918 541.606 Q111.918 543.735 111.108 545.657 Q110.321 547.555 108.214 550.147 Q107.635 550.819 104.534 554.036 Q101.432 557.231 95.7836 562.995 Z" fill="#000000" fill-rule="nonzero" fill-opacity="1" /><path clip-path="url(#clip470)" d="M121.918 561.05 L126.802 561.05 L126.802 566.93 L121.918 566.93 L121.918 561.05 Z" fill="#000000" fill-rule="nonzero" fill-opacity="1" /><path clip-path="url(#clip470)" d="M137.033 532.37 L155.39 532.37 L155.39 536.305 L141.316 536.305 L141.316 544.777 Q142.334 544.43 143.353 544.268 Q144.371 544.083 145.39 544.083 Q151.177 544.083 154.556 547.254 Q157.936 550.425 157.936 555.842 Q157.936 561.421 154.464 564.522 Q150.992 567.601 144.672 567.601 Q142.496 567.601 140.228 567.231 Q137.982 566.86 135.575 566.12 L135.575 561.421 Q137.658 562.555 139.881 563.11 Q142.103 563.666 144.58 563.666 Q148.584 563.666 150.922 561.559 Q153.26 559.453 153.26 555.842 Q153.26 552.231 150.922 550.124 Q148.584 548.018 144.58 548.018 Q142.705 548.018 140.83 548.435 Q138.978 548.851 137.033 549.731 L137.033 532.37 Z" fill="#000000" fill-rule="nonzero" fill-opacity="1" /><path clip-path="url(#clip470)" d="M90.8067 265.196 L109.163 265.196 L109.163 269.131 L95.0891 269.131 L95.0891 277.603 Q96.1076 277.256 97.1261 277.094 Q98.1447 276.909 99.1632 276.909 Q104.95 276.909 108.33 280.08 Q111.709 283.252 111.709 288.668 Q111.709 294.247 108.237 297.349 Q104.765 300.427 98.4456 300.427 Q96.2697 300.427 94.0012 300.057 Q91.7558 299.687 89.3484 298.946 L89.3484 294.247 Q91.4317 295.381 93.6539 295.937 Q95.8761 296.492 98.353 296.492 Q102.358 296.492 104.696 294.386 Q107.033 292.279 107.033 288.668 Q107.033 285.057 104.696 282.951 Q102.358 280.844 98.353 280.844 Q96.478 280.844 94.603 281.261 Q92.7512 281.677 90.8067 282.557 L90.8067 265.196 Z" fill="#000000" fill-rule="nonzero" fill-opacity="1" /><path clip-path="url(#clip470)" d="M120.922 293.877 L125.807 293.877 L125.807 299.756 L120.922 299.756 L120.922 293.877 Z" fill="#000000" fill-rule="nonzero" fill-opacity="1" /><path clip-path="url(#clip470)" d="M145.992 268.275 Q142.381 268.275 140.552 271.84 Q138.746 275.381 138.746 282.511 Q138.746 289.617 140.552 293.182 Q142.381 296.724 145.992 296.724 Q149.626 296.724 151.431 293.182 Q153.26 289.617 153.26 282.511 Q153.26 275.381 151.431 271.84 Q149.626 268.275 145.992 268.275 M145.992 264.571 Q151.802 264.571 154.857 269.178 Q157.936 273.761 157.936 282.511 Q157.936 291.238 154.857 295.844 Q151.802 300.427 145.992 300.427 Q140.181 300.427 137.103 295.844 Q134.047 291.238 134.047 282.511 Q134.047 273.761 137.103 269.178 Q140.181 264.571 145.992 264.571 Z" fill="#000000" fill-rule="nonzero" fill-opacity="1" /><polyline clip-path="url(#clip472)" style="stroke:#000000; stroke-linecap:round; stroke-linejoin:round; stroke-width:4; stroke-opacity:1; fill:none" points="284.972,1050.92 394.038,1051.48 "/>
<polyline clip-path="url(#clip472)" style="stroke:#000000; stroke-linecap:round; stroke-linejoin:round; stroke-width:4; stroke-opacity:1; fill:none" points="284.972,1050.92 506.321,1180.7 "/>
<polyline clip-path="url(#clip472)" style="stroke:#000000; stroke-linecap:round; stroke-linejoin:round; stroke-width:4; stroke-opacity:1; fill:none" points="284.972,1050.92 263.648,868.029 "/>
<polyline clip-path="url(#clip472)" style="stroke:#000000; stroke-linecap:round; stroke-linejoin:round; stroke-width:4; stroke-opacity:1; fill:none" points="284.972,1050.92 376.21,829.477 "/>
<polyline clip-path="url(#clip472)" style="stroke:#000000; stroke-linecap:round; stroke-linejoin:round; stroke-width:4; stroke-opacity:1; fill:none" points="394.038,1051.48 506.321,1180.7 "/>
<polyline clip-path="url(#clip472)" style="stroke:#000000; stroke-linecap:round; stroke-linejoin:round; stroke-width:4; stroke-opacity:1; fill:none" points="394.038,1051.48 553.77,924.498 "/>
<polyline clip-path="url(#clip472)" style="stroke:#000000; stroke-linecap:round; stroke-linejoin:round; stroke-width:4; stroke-opacity:1; fill:none" points="394.038,1051.48 376.21,829.477 "/>
<polyline clip-path="url(#clip472)" style="stroke:#000000; stroke-linecap:round; stroke-linejoin:round; stroke-width:4; stroke-opacity:1; fill:none" points="506.321,1180.7 553.77,924.498 "/>
<polyline clip-path="url(#clip472)" style="stroke:#000000; stroke-linecap:round; stroke-linejoin:round; stroke-width:4; stroke-opacity:1; fill:none" points="506.321,1180.7 778.561,1328.46 "/>
<polyline clip-path="url(#clip472)" style="stroke:#000000; stroke-linecap:round; stroke-linejoin:round; stroke-width:4; stroke-opacity:1; fill:none" points="553.77,924.498 892.952,668.65 "/>
<polyline clip-path="url(#clip472)" style="stroke:#000000; stroke-linecap:round; stroke-linejoin:round; stroke-width:4; stroke-opacity:1; fill:none" points="553.77,924.498 263.648,868.029 "/>
<polyline clip-path="url(#clip472)" style="stroke:#000000; stroke-linecap:round; stroke-linejoin:round; stroke-width:4; stroke-opacity:1; fill:none" points="778.561,1328.46 993.273,1321.41 "/>
<polyline clip-path="url(#clip472)" style="stroke:#000000; stroke-linecap:round; stroke-linejoin:round; stroke-width:4; stroke-opacity:1; fill:none" points="778.561,1328.46 967.534,1199.74 "/>
<polyline clip-path="url(#clip472)" style="stroke:#000000; stroke-linecap:round; stroke-linejoin:round; stroke-width:4; stroke-opacity:1; fill:none" points="993.273,1321.41 967.534,1199.74 "/>
<polyline clip-path="url(#clip472)" style="stroke:#000000; stroke-linecap:round; stroke-linejoin:round; stroke-width:4; stroke-opacity:1; fill:none" points="993.273,1321.41 1012.97,1056.11 "/>
<polyline clip-path="url(#clip472)" style="stroke:#000000; stroke-linecap:round; stroke-linejoin:round; stroke-width:4; stroke-opacity:1; fill:none" points="967.534,1199.74 1012.97,1056.11 "/>
<polyline clip-path="url(#clip472)" style="stroke:#000000; stroke-linecap:round; stroke-linejoin:round; stroke-width:4; stroke-opacity:1; fill:none" points="967.534,1199.74 964.723,922.564 "/>
<polyline clip-path="url(#clip472)" style="stroke:#000000; stroke-linecap:round; stroke-linejoin:round; stroke-width:4; stroke-opacity:1; fill:none" points="1012.97,1056.11 964.723,922.564 "/>
<polyline clip-path="url(#clip472)" style="stroke:#000000; stroke-linecap:round; stroke-linejoin:round; stroke-width:4; stroke-opacity:1; fill:none" points="1012.97,1056.11 1090.61,820.67 "/>
<polyline clip-path="url(#clip472)" style="stroke:#000000; stroke-linecap:round; stroke-linejoin:round; stroke-width:4; stroke-opacity:1; fill:none" points="1012.97,1056.11 808.561,852.057 "/>
<polyline clip-path="url(#clip472)" style="stroke:#000000; stroke-linecap:round; stroke-linejoin:round; stroke-width:4; stroke-opacity:1; fill:none" points="964.723,922.564 1090.61,820.67 "/>
<polyline clip-path="url(#clip472)" style="stroke:#000000; stroke-linecap:round; stroke-linejoin:round; stroke-width:4; stroke-opacity:1; fill:none" points="964.723,922.564 766.555,626.552 "/>
<polyline clip-path="url(#clip472)" style="stroke:#000000; stroke-linecap:round; stroke-linejoin:round; stroke-width:4; stroke-opacity:1; fill:none" points="1090.61,820.67 1118.29,610.198 "/>
<polyline clip-path="url(#clip472)" style="stroke:#000000; stroke-linecap:round; stroke-linejoin:round; stroke-width:4; stroke-opacity:1; fill:none" points="1090.61,820.67 892.952,668.65 "/>
<polyline clip-path="url(#clip472)" style="stroke:#000000; stroke-linecap:round; stroke-linejoin:round; stroke-width:4; stroke-opacity:1; fill:none" points="1118.29,610.198 892.952,668.65 "/>
<polyline clip-path="url(#clip472)" style="stroke:#000000; stroke-linecap:round; stroke-linejoin:round; stroke-width:4; stroke-opacity:1; fill:none" points="1118.29,610.198 997.034,439.3 "/>
<polyline clip-path="url(#clip472)" style="stroke:#000000; stroke-linecap:round; stroke-linejoin:round; stroke-width:4; stroke-opacity:1; fill:none" points="892.952,668.65 997.034,439.3 "/>
<polyline clip-path="url(#clip472)" style="stroke:#000000; stroke-linecap:round; stroke-linejoin:round; stroke-width:4; stroke-opacity:1; fill:none" points="892.952,668.65 786.348,422.577 "/>
<polyline clip-path="url(#clip472)" style="stroke:#000000; stroke-linecap:round; stroke-linejoin:round; stroke-width:4; stroke-opacity:1; fill:none" points="997.034,439.3 786.348,422.577 "/>
<polyline clip-path="url(#clip472)" style="stroke:#000000; stroke-linecap:round; stroke-linejoin:round; stroke-width:4; stroke-opacity:1; fill:none" points="997.034,439.3 899.964,244.515 "/>
<polyline clip-path="url(#clip472)" style="stroke:#000000; stroke-linecap:round; stroke-linejoin:round; stroke-width:4; stroke-opacity:1; fill:none" points="786.348,422.577 899.964,244.515 "/>
<polyline clip-path="url(#clip472)" style="stroke:#000000; stroke-linecap:round; stroke-linejoin:round; stroke-width:4; stroke-opacity:1; fill:none" points="786.348,422.577 739.804,205.229 "/>
<polyline clip-path="url(#clip472)" style="stroke:#000000; stroke-linecap:round; stroke-linejoin:round; stroke-width:4; stroke-opacity:1; fill:none" points="786.348,422.577 480.537,561.525 "/>
<polyline clip-path="url(#clip472)" style="stroke:#000000; stroke-linecap:round; stroke-linejoin:round; stroke-width:4; stroke-opacity:1; fill:none" points="899.964,244.515 739.804,205.229 "/>
<polyline clip-path="url(#clip472)" style="stroke:#000000; stroke-linecap:round; stroke-linejoin:round; stroke-width:4; stroke-opacity:1; fill:none" points="899.964,244.515 760.435,323.617 "/>
<polyline clip-path="url(#clip472)" style="stroke:#000000; stroke-linecap:round; stroke-linejoin:round; stroke-width:4; stroke-opacity:1; fill:none" points="739.804,205.229 760.435,323.617 "/>
<polyline clip-path="url(#clip472)" style="stroke:#000000; stroke-linecap:round; stroke-linejoin:round; stroke-width:4; stroke-opacity:1; fill:none" points="739.804,205.229 625.072,386.957 "/>
<polyline clip-path="url(#clip472)" style="stroke:#000000; stroke-linecap:round; stroke-linejoin:round; stroke-width:4; stroke-opacity:1; fill:none" points="760.435,323.617 625.072,386.957 "/>
<polyline clip-path="url(#clip472)" style="stroke:#000000; stroke-linecap:round; stroke-linejoin:round; stroke-width:4; stroke-opacity:1; fill:none" points="760.435,323.617 766.555,626.552 "/>
<polyline clip-path="url(#clip472)" style="stroke:#000000; stroke-linecap:round; stroke-linejoin:round; stroke-width:4; stroke-opacity:1; fill:none" points="625.072,386.957 766.555,626.552 "/>
<polyline clip-path="url(#clip472)" style="stroke:#000000; stroke-linecap:round; stroke-linejoin:round; stroke-width:4; stroke-opacity:1; fill:none" points="625.072,386.957 480.537,561.525 "/>
<polyline clip-path="url(#clip472)" style="stroke:#000000; stroke-linecap:round; stroke-linejoin:round; stroke-width:4; stroke-opacity:1; fill:none" points="766.555,626.552 808.561,852.057 "/>
<polyline clip-path="url(#clip472)" style="stroke:#000000; stroke-linecap:round; stroke-linejoin:round; stroke-width:4; stroke-opacity:1; fill:none" points="766.555,626.552 585.296,723.963 "/>
<polyline clip-path="url(#clip472)" style="stroke:#000000; stroke-linecap:round; stroke-linejoin:round; stroke-width:4; stroke-opacity:1; fill:none" points="808.561,852.057 585.296,723.963 "/>
<polyline clip-path="url(#clip472)" style="stroke:#000000; stroke-linecap:round; stroke-linejoin:round; stroke-width:4; stroke-opacity:1; fill:none" points="585.296,723.963 480.537,561.525 "/>
<polyline clip-path="url(#clip472)" style="stroke:#000000; stroke-linecap:round; stroke-linejoin:round; stroke-width:4; stroke-opacity:1; fill:none" points="585.296,723.963 376.21,829.477 "/>
<polyline clip-path="url(#clip472)" style="stroke:#000000; stroke-linecap:round; stroke-linejoin:round; stroke-width:4; stroke-opacity:1; fill:none" points="220.859,637.396 480.537,561.525 "/>
<polyline clip-path="url(#clip472)" style="stroke:#000000; stroke-linecap:round; stroke-linejoin:round; stroke-width:4; stroke-opacity:1; fill:none" points="220.859,637.396 263.648,868.029 "/>
<polyline clip-path="url(#clip472)" style="stroke:#000000; stroke-linecap:round; stroke-linejoin:round; stroke-width:4; stroke-opacity:1; fill:none" points="480.537,561.525 376.21,829.477 "/>
<polyline clip-path="url(#clip472)" style="stroke:#000000; stroke-linecap:round; stroke-linejoin:round; stroke-width:4; stroke-opacity:1; fill:none" points="263.648,868.029 376.21,829.477 "/>
<circle clip-path="url(#clip472)" cx="284.972" cy="1050.92" r="18" fill="#0000ff" fill-rule="evenodd" fill-opacity="1" stroke="#000000" stroke-opacity="1" stroke-width="3.2"/>
<circle clip-path="url(#clip472)" cx="394.038" cy="1051.48" r="18" fill="#0000ff" fill-rule="evenodd" fill-opacity="1" stroke="#000000" stroke-opacity="1" stroke-width="3.2"/>
<circle clip-path="url(#clip472)" cx="506.321" cy="1180.7" r="18" fill="#0000ff" fill-rule="evenodd" fill-opacity="1" stroke="#000000" stroke-opacity="1" stroke-width="3.2"/>
<circle clip-path="url(#clip472)" cx="553.77" cy="924.498" r="18" fill="#0000ff" fill-rule="evenodd" fill-opacity="1" stroke="#000000" stroke-opacity="1" stroke-width="3.2"/>
<circle clip-path="url(#clip472)" cx="778.561" cy="1328.46" r="18" fill="#0000ff" fill-rule="evenodd" fill-opacity="1" stroke="#000000" stroke-opacity="1" stroke-width="3.2"/>
<circle clip-path="url(#clip472)" cx="993.273" cy="1321.41" r="18" fill="#0000ff" fill-rule="evenodd" fill-opacity="1" stroke="#000000" stroke-opacity="1" stroke-width="3.2"/>
<circle clip-path="url(#clip472)" cx="967.534" cy="1199.74" r="18" fill="#0000ff" fill-rule="evenodd" fill-opacity="1" stroke="#000000" stroke-opacity="1" stroke-width="3.2"/>
<circle clip-path="url(#clip472)" cx="1012.97" cy="1056.11" r="18" fill="#0000ff" fill-rule="evenodd" fill-opacity="1" stroke="#000000" stroke-opacity="1" stroke-width="3.2"/>
<circle clip-path="url(#clip472)" cx="964.723" cy="922.564" r="18" fill="#0000ff" fill-rule="evenodd" fill-opacity="1" stroke="#000000" stroke-opacity="1" stroke-width="3.2"/>
<circle clip-path="url(#clip472)" cx="1090.61" cy="820.67" r="18" fill="#0000ff" fill-rule="evenodd" fill-opacity="1" stroke="#000000" stroke-opacity="1" stroke-width="3.2"/>
<circle clip-path="url(#clip472)" cx="1118.29" cy="610.198" r="18" fill="#0000ff" fill-rule="evenodd" fill-opacity="1" stroke="#000000" stroke-opacity="1" stroke-width="3.2"/>
<circle clip-path="url(#clip472)" cx="892.952" cy="668.65" r="18" fill="#0000ff" fill-rule="evenodd" fill-opacity="1" stroke="#000000" stroke-opacity="1" stroke-width="3.2"/>
<circle clip-path="url(#clip472)" cx="997.034" cy="439.3" r="18" fill="#0000ff" fill-rule="evenodd" fill-opacity="1" stroke="#000000" stroke-opacity="1" stroke-width="3.2"/>
<circle clip-path="url(#clip472)" cx="786.348" cy="422.577" r="18" fill="#0000ff" fill-rule="evenodd" fill-opacity="1" stroke="#000000" stroke-opacity="1" stroke-width="3.2"/>
<circle clip-path="url(#clip472)" cx="899.964" cy="244.515" r="18" fill="#0000ff" fill-rule="evenodd" fill-opacity="1" stroke="#000000" stroke-opacity="1" stroke-width="3.2"/>
<circle clip-path="url(#clip472)" cx="739.804" cy="205.229" r="18" fill="#0000ff" fill-rule="evenodd" fill-opacity="1" stroke="#000000" stroke-opacity="1" stroke-width="3.2"/>
<circle clip-path="url(#clip472)" cx="760.435" cy="323.617" r="18" fill="#0000ff" fill-rule="evenodd" fill-opacity="1" stroke="#000000" stroke-opacity="1" stroke-width="3.2"/>
<circle clip-path="url(#clip472)" cx="625.072" cy="386.957" r="18" fill="#0000ff" fill-rule="evenodd" fill-opacity="1" stroke="#000000" stroke-opacity="1" stroke-width="3.2"/>
<circle clip-path="url(#clip472)" cx="766.555" cy="626.552" r="18" fill="#0000ff" fill-rule="evenodd" fill-opacity="1" stroke="#000000" stroke-opacity="1" stroke-width="3.2"/>
<circle clip-path="url(#clip472)" cx="808.561" cy="852.057" r="18" fill="#0000ff" fill-rule="evenodd" fill-opacity="1" stroke="#000000" stroke-opacity="1" stroke-width="3.2"/>
<circle clip-path="url(#clip472)" cx="585.296" cy="723.963" r="18" fill="#0000ff" fill-rule="evenodd" fill-opacity="1" stroke="#000000" stroke-opacity="1" stroke-width="3.2"/>
<circle clip-path="url(#clip472)" cx="220.859" cy="637.396" r="18" fill="#0000ff" fill-rule="evenodd" fill-opacity="1" stroke="#000000" stroke-opacity="1" stroke-width="3.2"/>
<circle clip-path="url(#clip472)" cx="480.537" cy="561.525" r="18" fill="#0000ff" fill-rule="evenodd" fill-opacity="1" stroke="#000000" stroke-opacity="1" stroke-width="3.2"/>
<circle clip-path="url(#clip472)" cx="263.648" cy="868.029" r="18" fill="#0000ff" fill-rule="evenodd" fill-opacity="1" stroke="#000000" stroke-opacity="1" stroke-width="3.2"/>
<circle clip-path="url(#clip472)" cx="376.21" cy="829.477" r="18" fill="#0000ff" fill-rule="evenodd" fill-opacity="1" stroke="#000000" stroke-opacity="1" stroke-width="3.2"/>
<path clip-path="url(#clip470)" d="M1401.48 1486.45 L2352.76 1486.45 L2352.76 47.2441 L1401.48 47.2441  Z" fill="#ffffff" fill-rule="evenodd" fill-opacity="1"/>
<polyline clip-path="url(#clip471)" style="stroke:#000000; stroke-linecap:round; stroke-linejoin:round; stroke-width:2; stroke-opacity:0.1; fill:none" points="1427.27,1486.45 1427.27,47.2441 "/>
<polyline clip-path="url(#clip471)" style="stroke:#000000; stroke-linecap:round; stroke-linejoin:round; stroke-width:2; stroke-opacity:0.1; fill:none" points="1654.18,1486.45 1654.18,47.2441 "/>
<polyline clip-path="url(#clip471)" style="stroke:#000000; stroke-linecap:round; stroke-linejoin:round; stroke-width:2; stroke-opacity:0.1; fill:none" points="1881.09,1486.45 1881.09,47.2441 "/>
<polyline clip-path="url(#clip471)" style="stroke:#000000; stroke-linecap:round; stroke-linejoin:round; stroke-width:2; stroke-opacity:0.1; fill:none" points="2108,1486.45 2108,47.2441 "/>
<polyline clip-path="url(#clip471)" style="stroke:#000000; stroke-linecap:round; stroke-linejoin:round; stroke-width:2; stroke-opacity:0.1; fill:none" points="2334.91,1486.45 2334.91,47.2441 "/>
<polyline clip-path="url(#clip471)" style="stroke:#000000; stroke-linecap:round; stroke-linejoin:round; stroke-width:2; stroke-opacity:0.1; fill:none" points="1401.48,1316.12 2352.76,1316.12 "/>
<polyline clip-path="url(#clip471)" style="stroke:#000000; stroke-linecap:round; stroke-linejoin:round; stroke-width:2; stroke-opacity:0.1; fill:none" points="1401.48,1080.58 2352.76,1080.58 "/>
<polyline clip-path="url(#clip471)" style="stroke:#000000; stroke-linecap:round; stroke-linejoin:round; stroke-width:2; stroke-opacity:0.1; fill:none" points="1401.48,845.028 2352.76,845.028 "/>
<polyline clip-path="url(#clip471)" style="stroke:#000000; stroke-linecap:round; stroke-linejoin:round; stroke-width:2; stroke-opacity:0.1; fill:none" points="1401.48,609.48 2352.76,609.48 "/>
<polyline clip-path="url(#clip471)" style="stroke:#000000; stroke-linecap:round; stroke-linejoin:round; stroke-width:2; stroke-opacity:0.1; fill:none" points="1401.48,373.932 2352.76,373.932 "/>
<polyline clip-path="url(#clip471)" style="stroke:#000000; stroke-linecap:round; stroke-linejoin:round; stroke-width:2; stroke-opacity:0.1; fill:none" points="1401.48,138.384 2352.76,138.384 "/>
<polyline clip-path="url(#clip470)" style="stroke:#000000; stroke-linecap:round; stroke-linejoin:round; stroke-width:4; stroke-opacity:1; fill:none" points="1401.48,1486.45 2352.76,1486.45 "/>
<polyline clip-path="url(#clip470)" style="stroke:#000000; stroke-linecap:round; stroke-linejoin:round; stroke-width:4; stroke-opacity:1; fill:none" points="1427.27,1486.45 1427.27,1467.55 "/>
<polyline clip-path="url(#clip470)" style="stroke:#000000; stroke-linecap:round; stroke-linejoin:round; stroke-width:4; stroke-opacity:1; fill:none" points="1654.18,1486.45 1654.18,1467.55 "/>
<polyline clip-path="url(#clip470)" style="stroke:#000000; stroke-linecap:round; stroke-linejoin:round; stroke-width:4; stroke-opacity:1; fill:none" points="1881.09,1486.45 1881.09,1467.55 "/>
<polyline clip-path="url(#clip470)" style="stroke:#000000; stroke-linecap:round; stroke-linejoin:round; stroke-width:4; stroke-opacity:1; fill:none" points="2108,1486.45 2108,1467.55 "/>
<polyline clip-path="url(#clip470)" style="stroke:#000000; stroke-linecap:round; stroke-linejoin:round; stroke-width:4; stroke-opacity:1; fill:none" points="2334.91,1486.45 2334.91,1467.55 "/>
<path clip-path="url(#clip470)" d="M1427.27 1517.37 Q1423.66 1517.37 1421.83 1520.93 Q1420.03 1524.47 1420.03 1531.6 Q1420.03 1538.71 1421.83 1542.27 Q1423.66 1545.82 1427.27 1545.82 Q1430.9 1545.82 1432.71 1542.27 Q1434.54 1538.71 1434.54 1531.6 Q1434.54 1524.47 1432.71 1520.93 Q1430.9 1517.37 1427.27 1517.37 M1427.27 1513.66 Q1433.08 1513.66 1436.14 1518.27 Q1439.21 1522.85 1439.21 1531.6 Q1439.21 1540.33 1436.14 1544.94 Q1433.08 1549.52 1427.27 1549.52 Q1421.46 1549.52 1418.38 1544.94 Q1415.33 1540.33 1415.33 1531.6 Q1415.33 1522.85 1418.38 1518.27 Q1421.46 1513.66 1427.27 1513.66 Z" fill="#000000" fill-rule="nonzero" fill-opacity="1" /><path clip-path="url(#clip470)" d="M1617.87 1544.91 L1634.19 1544.91 L1634.19 1548.85 L1612.25 1548.85 L1612.25 1544.91 Q1614.91 1542.16 1619.49 1537.53 Q1624.1 1532.88 1625.28 1531.53 Q1627.53 1529.01 1628.4 1527.27 Q1629.31 1525.51 1629.31 1523.82 Q1629.31 1521.07 1627.36 1519.33 Q1625.44 1517.6 1622.34 1517.6 Q1620.14 1517.6 1617.69 1518.36 Q1615.26 1519.13 1612.48 1520.68 L1612.48 1515.95 Q1615.3 1514.82 1617.76 1514.24 Q1620.21 1513.66 1622.25 1513.66 Q1627.62 1513.66 1630.81 1516.35 Q1634.01 1519.03 1634.01 1523.52 Q1634.01 1525.65 1633.2 1527.57 Q1632.41 1529.47 1630.3 1532.07 Q1629.72 1532.74 1626.62 1535.95 Q1623.52 1539.15 1617.87 1544.91 Z" fill="#000000" fill-rule="nonzero" fill-opacity="1" /><path clip-path="url(#clip470)" d="M1654.01 1517.37 Q1650.4 1517.37 1648.57 1520.93 Q1646.76 1524.47 1646.76 1531.6 Q1646.76 1538.71 1648.57 1542.27 Q1650.4 1545.82 1654.01 1545.82 Q1657.64 1545.82 1659.45 1542.27 Q1661.28 1538.71 1661.28 1531.6 Q1661.28 1524.47 1659.45 1520.93 Q1657.64 1517.37 1654.01 1517.37 M1654.01 1513.66 Q1659.82 1513.66 1662.87 1518.27 Q1665.95 1522.85 1665.95 1531.6 Q1665.95 1540.33 1662.87 1544.94 Q1659.82 1549.52 1654.01 1549.52 Q1648.2 1549.52 1645.12 1544.94 Q1642.06 1540.33 1642.06 1531.6 Q1642.06 1522.85 1645.12 1518.27 Q1648.2 1513.66 1654.01 1513.66 Z" fill="#000000" fill-rule="nonzero" fill-opacity="1" /><path clip-path="url(#clip470)" d="M1684.17 1517.37 Q1680.56 1517.37 1678.73 1520.93 Q1676.92 1524.47 1676.92 1531.6 Q1676.92 1538.71 1678.73 1542.27 Q1680.56 1545.82 1684.17 1545.82 Q1687.8 1545.82 1689.61 1542.27 Q1691.44 1538.71 1691.44 1531.6 Q1691.44 1524.47 1689.61 1520.93 Q1687.8 1517.37 1684.17 1517.37 M1684.17 1513.66 Q1689.98 1513.66 1693.03 1518.27 Q1696.11 1522.85 1696.11 1531.6 Q1696.11 1540.33 1693.03 1544.94 Q1689.98 1549.52 1684.17 1549.52 Q1678.36 1549.52 1675.28 1544.94 Q1672.22 1540.33 1672.22 1531.6 Q1672.22 1522.85 1675.28 1518.27 Q1678.36 1513.66 1684.17 1513.66 Z" fill="#000000" fill-rule="nonzero" fill-opacity="1" /><path clip-path="url(#clip470)" d="M1854.18 1518.36 L1842.37 1536.81 L1854.18 1536.81 L1854.18 1518.36 M1852.95 1514.29 L1858.83 1514.29 L1858.83 1536.81 L1863.76 1536.81 L1863.76 1540.7 L1858.83 1540.7 L1858.83 1548.85 L1854.18 1548.85 L1854.18 1540.7 L1838.58 1540.7 L1838.58 1536.19 L1852.95 1514.29 Z" fill="#000000" fill-rule="nonzero" fill-opacity="1" /><path clip-path="url(#clip470)" d="M1881.5 1517.37 Q1877.88 1517.37 1876.06 1520.93 Q1874.25 1524.47 1874.25 1531.6 Q1874.25 1538.71 1876.06 1542.27 Q1877.88 1545.82 1881.5 1545.82 Q1885.13 1545.82 1886.93 1542.27 Q1888.76 1538.71 1888.76 1531.6 Q1888.76 1524.47 1886.93 1520.93 Q1885.13 1517.37 1881.5 1517.37 M1881.5 1513.66 Q1887.31 1513.66 1890.36 1518.27 Q1893.44 1522.85 1893.44 1531.6 Q1893.44 1540.33 1890.36 1544.94 Q1887.31 1549.52 1881.5 1549.52 Q1875.68 1549.52 1872.61 1544.94 Q1869.55 1540.33 1869.55 1531.6 Q1869.55 1522.85 1872.61 1518.27 Q1875.68 1513.66 1881.5 1513.66 Z" fill="#000000" fill-rule="nonzero" fill-opacity="1" /><path clip-path="url(#clip470)" d="M1911.66 1517.37 Q1908.05 1517.37 1906.22 1520.93 Q1904.41 1524.47 1904.41 1531.6 Q1904.41 1538.71 1906.22 1542.27 Q1908.05 1545.82 1911.66 1545.82 Q1915.29 1545.82 1917.1 1542.27 Q1918.93 1538.71 1918.93 1531.6 Q1918.93 1524.47 1917.1 1520.93 Q1915.29 1517.37 1911.66 1517.37 M1911.66 1513.66 Q1917.47 1513.66 1920.52 1518.27 Q1923.6 1522.85 1923.6 1531.6 Q1923.6 1540.33 1920.52 1544.94 Q1917.47 1549.52 1911.66 1549.52 Q1905.85 1549.52 1902.77 1544.94 Q1899.71 1540.33 1899.71 1531.6 Q1899.71 1522.85 1902.77 1518.27 Q1905.85 1513.66 1911.66 1513.66 Z" fill="#000000" fill-rule="nonzero" fill-opacity="1" /><path clip-path="url(#clip470)" d="M2078.32 1529.7 Q2075.18 1529.7 2073.32 1531.86 Q2071.5 1534.01 2071.5 1537.76 Q2071.5 1541.49 2073.32 1543.66 Q2075.18 1545.82 2078.32 1545.82 Q2081.47 1545.82 2083.3 1543.66 Q2085.15 1541.49 2085.15 1537.76 Q2085.15 1534.01 2083.3 1531.86 Q2081.47 1529.7 2078.32 1529.7 M2087.61 1515.05 L2087.61 1519.31 Q2085.85 1518.48 2084.04 1518.04 Q2082.26 1517.6 2080.5 1517.6 Q2075.87 1517.6 2073.42 1520.72 Q2070.99 1523.85 2070.64 1530.17 Q2072 1528.15 2074.06 1527.09 Q2076.12 1526 2078.6 1526 Q2083.81 1526 2086.82 1529.17 Q2089.85 1532.32 2089.85 1537.76 Q2089.85 1543.08 2086.7 1546.3 Q2083.56 1549.52 2078.32 1549.52 Q2072.33 1549.52 2069.16 1544.94 Q2065.99 1540.33 2065.99 1531.6 Q2065.99 1523.41 2069.87 1518.55 Q2073.76 1513.66 2080.31 1513.66 Q2082.07 1513.66 2083.86 1514.01 Q2085.66 1514.36 2087.61 1515.05 Z" fill="#000000" fill-rule="nonzero" fill-opacity="1" /><path clip-path="url(#clip470)" d="M2107.91 1517.37 Q2104.3 1517.37 2102.47 1520.93 Q2100.66 1524.47 2100.66 1531.6 Q2100.66 1538.71 2102.47 1542.27 Q2104.3 1545.82 2107.91 1545.82 Q2111.54 1545.82 2113.35 1542.27 Q2115.18 1538.71 2115.18 1531.6 Q2115.18 1524.47 2113.35 1520.93 Q2111.54 1517.37 2107.91 1517.37 M2107.91 1513.66 Q2113.72 1513.66 2116.77 1518.27 Q2119.85 1522.85 2119.85 1531.6 Q2119.85 1540.33 2116.77 1544.94 Q2113.72 1549.52 2107.91 1549.52 Q2102.1 1549.52 2099.02 1544.94 Q2095.96 1540.33 2095.96 1531.6 Q2095.96 1522.85 2099.02 1518.27 Q2102.1 1513.66 2107.91 1513.66 Z" fill="#000000" fill-rule="nonzero" fill-opacity="1" /><path clip-path="url(#clip470)" d="M2138.07 1517.37 Q2134.46 1517.37 2132.63 1520.93 Q2130.82 1524.47 2130.82 1531.6 Q2130.82 1538.71 2132.63 1542.27 Q2134.46 1545.82 2138.07 1545.82 Q2141.7 1545.82 2143.51 1542.27 Q2145.34 1538.71 2145.34 1531.6 Q2145.34 1524.47 2143.51 1520.93 Q2141.7 1517.37 2138.07 1517.37 M2138.07 1513.66 Q2143.88 1513.66 2146.93 1518.27 Q2150.01 1522.85 2150.01 1531.6 Q2150.01 1540.33 2146.93 1544.94 Q2143.88 1549.52 2138.07 1549.52 Q2132.26 1549.52 2129.18 1544.94 Q2126.12 1540.33 2126.12 1531.6 Q2126.12 1522.85 2129.18 1518.27 Q2132.26 1513.66 2138.07 1513.66 Z" fill="#000000" fill-rule="nonzero" fill-opacity="1" /><path clip-path="url(#clip470)" d="M2304.7 1532.44 Q2301.37 1532.44 2299.45 1534.22 Q2297.55 1536 2297.55 1539.13 Q2297.55 1542.25 2299.45 1544.03 Q2301.37 1545.82 2304.7 1545.82 Q2308.03 1545.82 2309.96 1544.03 Q2311.88 1542.23 2311.88 1539.13 Q2311.88 1536 2309.96 1534.22 Q2308.06 1532.44 2304.7 1532.44 M2300.03 1530.45 Q2297.02 1529.7 2295.33 1527.64 Q2293.66 1525.58 2293.66 1522.62 Q2293.66 1518.48 2296.6 1516.07 Q2299.56 1513.66 2304.7 1513.66 Q2309.86 1513.66 2312.8 1516.07 Q2315.74 1518.48 2315.74 1522.62 Q2315.74 1525.58 2314.05 1527.64 Q2312.39 1529.7 2309.4 1530.45 Q2312.78 1531.23 2314.65 1533.52 Q2316.55 1535.82 2316.55 1539.13 Q2316.55 1544.15 2313.47 1546.83 Q2310.42 1549.52 2304.7 1549.52 Q2298.98 1549.52 2295.91 1546.83 Q2292.85 1544.15 2292.85 1539.13 Q2292.85 1535.82 2294.75 1533.52 Q2296.65 1531.23 2300.03 1530.45 M2298.31 1523.06 Q2298.31 1525.75 2299.98 1527.25 Q2301.67 1528.76 2304.7 1528.76 Q2307.71 1528.76 2309.4 1527.25 Q2311.11 1525.75 2311.11 1523.06 Q2311.11 1520.38 2309.4 1518.87 Q2307.71 1517.37 2304.7 1517.37 Q2301.67 1517.37 2299.98 1518.87 Q2298.31 1520.38 2298.31 1523.06 Z" fill="#000000" fill-rule="nonzero" fill-opacity="1" /><path clip-path="url(#clip470)" d="M2334.86 1517.37 Q2331.25 1517.37 2329.42 1520.93 Q2327.62 1524.47 2327.62 1531.6 Q2327.62 1538.71 2329.42 1542.27 Q2331.25 1545.82 2334.86 1545.82 Q2338.5 1545.82 2340.3 1542.27 Q2342.13 1538.71 2342.13 1531.6 Q2342.13 1524.47 2340.3 1520.93 Q2338.5 1517.37 2334.86 1517.37 M2334.86 1513.66 Q2340.67 1513.66 2343.73 1518.27 Q2346.81 1522.85 2346.81 1531.6 Q2346.81 1540.33 2343.73 1544.94 Q2340.67 1549.52 2334.86 1549.52 Q2329.05 1549.52 2325.97 1544.94 Q2322.92 1540.33 2322.92 1531.6 Q2322.92 1522.85 2325.97 1518.27 Q2329.05 1513.66 2334.86 1513.66 Z" fill="#000000" fill-rule="nonzero" fill-opacity="1" /><path clip-path="url(#clip470)" d="M2365.03 1517.37 Q2361.41 1517.37 2359.59 1520.93 Q2357.78 1524.47 2357.78 1531.6 Q2357.78 1538.71 2359.59 1542.27 Q2361.41 1545.82 2365.03 1545.82 Q2368.66 1545.82 2370.46 1542.27 Q2372.29 1538.71 2372.29 1531.6 Q2372.29 1524.47 2370.46 1520.93 Q2368.66 1517.37 2365.03 1517.37 M2365.03 1513.66 Q2370.84 1513.66 2373.89 1518.27 Q2376.97 1522.85 2376.97 1531.6 Q2376.97 1540.33 2373.89 1544.94 Q2370.84 1549.52 2365.03 1549.52 Q2359.21 1549.52 2356.14 1544.94 Q2353.08 1540.33 2353.08 1531.6 Q2353.08 1522.85 2356.14 1518.27 Q2359.21 1513.66 2365.03 1513.66 Z" fill="#000000" fill-rule="nonzero" fill-opacity="1" /><polyline clip-path="url(#clip470)" style="stroke:#000000; stroke-linecap:round; stroke-linejoin:round; stroke-width:4; stroke-opacity:1; fill:none" points="1401.48,1486.45 1401.48,47.2441 "/>
<polyline clip-path="url(#clip470)" style="stroke:#000000; stroke-linecap:round; stroke-linejoin:round; stroke-width:4; stroke-opacity:1; fill:none" points="1401.48,1316.12 1420.38,1316.12 "/>
<polyline clip-path="url(#clip470)" style="stroke:#000000; stroke-linecap:round; stroke-linejoin:round; stroke-width:4; stroke-opacity:1; fill:none" points="1401.48,1080.58 1420.38,1080.58 "/>
<polyline clip-path="url(#clip470)" style="stroke:#000000; stroke-linecap:round; stroke-linejoin:round; stroke-width:4; stroke-opacity:1; fill:none" points="1401.48,845.028 1420.38,845.028 "/>
<polyline clip-path="url(#clip470)" style="stroke:#000000; stroke-linecap:round; stroke-linejoin:round; stroke-width:4; stroke-opacity:1; fill:none" points="1401.48,609.48 1420.38,609.48 "/>
<polyline clip-path="url(#clip470)" style="stroke:#000000; stroke-linecap:round; stroke-linejoin:round; stroke-width:4; stroke-opacity:1; fill:none" points="1401.48,373.932 1420.38,373.932 "/>
<polyline clip-path="url(#clip470)" style="stroke:#000000; stroke-linecap:round; stroke-linejoin:round; stroke-width:4; stroke-opacity:1; fill:none" points="1401.48,138.384 1420.38,138.384 "/>
<path clip-path="url(#clip470)" d="M1243.45 1316.58 L1273.12 1316.58 L1273.12 1320.51 L1243.45 1320.51 L1243.45 1316.58 Z" fill="#000000" fill-rule="nonzero" fill-opacity="1" /><path clip-path="url(#clip470)" d="M1297.38 1314.77 Q1300.74 1315.49 1302.61 1317.76 Q1304.51 1320.03 1304.51 1323.36 Q1304.51 1328.47 1300.99 1331.28 Q1297.47 1334.08 1290.99 1334.08 Q1288.82 1334.08 1286.5 1333.64 Q1284.21 1333.22 1281.76 1332.36 L1281.76 1327.85 Q1283.7 1328.98 1286.02 1329.56 Q1288.33 1330.14 1290.85 1330.14 Q1295.25 1330.14 1297.54 1328.41 Q1299.86 1326.67 1299.86 1323.36 Q1299.86 1320.3 1297.7 1318.59 Q1295.58 1316.85 1291.76 1316.85 L1287.73 1316.85 L1287.73 1313.01 L1291.94 1313.01 Q1295.39 1313.01 1297.22 1311.65 Q1299.05 1310.26 1299.05 1307.66 Q1299.05 1305 1297.15 1303.59 Q1295.27 1302.16 1291.76 1302.16 Q1289.83 1302.16 1287.64 1302.57 Q1285.44 1302.99 1282.8 1303.87 L1282.8 1299.7 Q1285.46 1298.96 1287.77 1298.59 Q1290.11 1298.22 1292.17 1298.22 Q1297.5 1298.22 1300.6 1300.65 Q1303.7 1303.06 1303.7 1307.18 Q1303.7 1310.05 1302.06 1312.04 Q1300.41 1314.01 1297.38 1314.77 Z" fill="#000000" fill-rule="nonzero" fill-opacity="1" /><path clip-path="url(#clip470)" d="M1323.38 1301.92 Q1319.76 1301.92 1317.94 1305.49 Q1316.13 1309.03 1316.13 1316.16 Q1316.13 1323.27 1317.94 1326.83 Q1319.76 1330.37 1323.38 1330.37 Q1327.01 1330.37 1328.82 1326.83 Q1330.64 1323.27 1330.64 1316.16 Q1330.64 1309.03 1328.82 1305.49 Q1327.01 1301.92 1323.38 1301.92 M1323.38 1298.22 Q1329.19 1298.22 1332.24 1302.83 Q1335.32 1307.41 1335.32 1316.16 Q1335.32 1324.89 1332.24 1329.49 Q1329.19 1334.08 1323.38 1334.08 Q1317.57 1334.08 1314.49 1329.49 Q1311.43 1324.89 1311.43 1316.16 Q1311.43 1307.41 1314.49 1302.83 Q1317.57 1298.22 1323.38 1298.22 Z" fill="#000000" fill-rule="nonzero" fill-opacity="1" /><path clip-path="url(#clip470)" d="M1353.54 1301.92 Q1349.93 1301.92 1348.1 1305.49 Q1346.29 1309.03 1346.29 1316.16 Q1346.29 1323.27 1348.1 1326.83 Q1349.93 1330.37 1353.54 1330.37 Q1357.17 1330.37 1358.98 1326.83 Q1360.81 1323.27 1360.81 1316.16 Q1360.81 1309.03 1358.98 1305.49 Q1357.17 1301.92 1353.54 1301.92 M1353.54 1298.22 Q1359.35 1298.22 1362.4 1302.83 Q1365.48 1307.41 1365.48 1316.16 Q1365.48 1324.89 1362.4 1329.49 Q1359.35 1334.08 1353.54 1334.08 Q1347.73 1334.08 1344.65 1329.49 Q1341.59 1324.89 1341.59 1316.16 Q1341.59 1307.41 1344.65 1302.83 Q1347.73 1298.22 1353.54 1298.22 Z" fill="#000000" fill-rule="nonzero" fill-opacity="1" /><path clip-path="url(#clip470)" d="M1243.45 1081.03 L1273.12 1081.03 L1273.12 1084.96 L1243.45 1084.96 L1243.45 1081.03 Z" fill="#000000" fill-rule="nonzero" fill-opacity="1" /><path clip-path="url(#clip470)" d="M1287.24 1093.92 L1303.56 1093.92 L1303.56 1097.86 L1281.62 1097.86 L1281.62 1093.92 Q1284.28 1091.17 1288.86 1086.54 Q1293.47 1081.88 1294.65 1080.54 Q1296.89 1078.02 1297.77 1076.28 Q1298.68 1074.52 1298.68 1072.83 Q1298.68 1070.08 1296.73 1068.34 Q1294.81 1066.61 1291.71 1066.61 Q1289.51 1066.61 1287.06 1067.37 Q1284.63 1068.13 1281.85 1069.69 L1281.85 1064.96 Q1284.67 1063.83 1287.13 1063.25 Q1289.58 1062.67 1291.62 1062.67 Q1296.99 1062.67 1300.18 1065.36 Q1303.38 1068.04 1303.38 1072.53 Q1303.38 1074.66 1302.57 1076.58 Q1301.78 1078.48 1299.67 1081.07 Q1299.09 1081.75 1295.99 1084.96 Q1292.89 1088.16 1287.24 1093.92 Z" fill="#000000" fill-rule="nonzero" fill-opacity="1" /><path clip-path="url(#clip470)" d="M1323.38 1066.38 Q1319.76 1066.38 1317.94 1069.94 Q1316.13 1073.48 1316.13 1080.61 Q1316.13 1087.72 1317.94 1091.28 Q1319.76 1094.82 1323.38 1094.82 Q1327.01 1094.82 1328.82 1091.28 Q1330.64 1087.72 1330.64 1080.61 Q1330.64 1073.48 1328.82 1069.94 Q1327.01 1066.38 1323.38 1066.38 M1323.38 1062.67 Q1329.19 1062.67 1332.24 1067.28 Q1335.32 1071.86 1335.32 1080.61 Q1335.32 1089.34 1332.24 1093.94 Q1329.19 1098.53 1323.38 1098.53 Q1317.57 1098.53 1314.49 1093.94 Q1311.43 1089.34 1311.43 1080.61 Q1311.43 1071.86 1314.49 1067.28 Q1317.57 1062.67 1323.38 1062.67 Z" fill="#000000" fill-rule="nonzero" fill-opacity="1" /><path clip-path="url(#clip470)" d="M1353.54 1066.38 Q1349.93 1066.38 1348.1 1069.94 Q1346.29 1073.48 1346.29 1080.61 Q1346.29 1087.72 1348.1 1091.28 Q1349.93 1094.82 1353.54 1094.82 Q1357.17 1094.82 1358.98 1091.28 Q1360.81 1087.72 1360.81 1080.61 Q1360.81 1073.48 1358.98 1069.94 Q1357.17 1066.38 1353.54 1066.38 M1353.54 1062.67 Q1359.35 1062.67 1362.4 1067.28 Q1365.48 1071.86 1365.48 1080.61 Q1365.48 1089.34 1362.4 1093.94 Q1359.35 1098.53 1353.54 1098.53 Q1347.73 1098.53 1344.65 1093.94 Q1341.59 1089.34 1341.59 1080.61 Q1341.59 1071.86 1344.65 1067.28 Q1347.73 1062.67 1353.54 1062.67 Z" fill="#000000" fill-rule="nonzero" fill-opacity="1" /><path clip-path="url(#clip470)" d="M1243.45 845.48 L1273.12 845.48 L1273.12 849.415 L1243.45 849.415 L1243.45 845.48 Z" fill="#000000" fill-rule="nonzero" fill-opacity="1" /><path clip-path="url(#clip470)" d="M1284.02 858.373 L1291.66 858.373 L1291.66 832.008 L1283.35 833.674 L1283.35 829.415 L1291.62 827.748 L1296.29 827.748 L1296.29 858.373 L1303.93 858.373 L1303.93 862.308 L1284.02 862.308 L1284.02 858.373 Z" fill="#000000" fill-rule="nonzero" fill-opacity="1" /><path clip-path="url(#clip470)" d="M1323.38 830.827 Q1319.76 830.827 1317.94 834.392 Q1316.13 837.934 1316.13 845.063 Q1316.13 852.17 1317.94 855.734 Q1319.76 859.276 1323.38 859.276 Q1327.01 859.276 1328.82 855.734 Q1330.64 852.17 1330.64 845.063 Q1330.64 837.934 1328.82 834.392 Q1327.01 830.827 1323.38 830.827 M1323.38 827.123 Q1329.19 827.123 1332.24 831.73 Q1335.32 836.313 1335.32 845.063 Q1335.32 853.79 1332.24 858.396 Q1329.19 862.98 1323.38 862.98 Q1317.57 862.98 1314.49 858.396 Q1311.43 853.79 1311.43 845.063 Q1311.43 836.313 1314.49 831.73 Q1317.57 827.123 1323.38 827.123 Z" fill="#000000" fill-rule="nonzero" fill-opacity="1" /><path clip-path="url(#clip470)" d="M1353.54 830.827 Q1349.93 830.827 1348.1 834.392 Q1346.29 837.934 1346.29 845.063 Q1346.29 852.17 1348.1 855.734 Q1349.93 859.276 1353.54 859.276 Q1357.17 859.276 1358.98 855.734 Q1360.81 852.17 1360.81 845.063 Q1360.81 837.934 1358.98 834.392 Q1357.17 830.827 1353.54 830.827 M1353.54 827.123 Q1359.35 827.123 1362.4 831.73 Q1365.48 836.313 1365.48 845.063 Q1365.48 853.79 1362.4 858.396 Q1359.35 862.98 1353.54 862.98 Q1347.73 862.98 1344.65 858.396 Q1341.59 853.79 1341.59 845.063 Q1341.59 836.313 1344.65 831.73 Q1347.73 827.123 1353.54 827.123 Z" fill="#000000" fill-rule="nonzero" fill-opacity="1" /><path clip-path="url(#clip470)" d="M1353.54 595.279 Q1349.93 595.279 1348.1 598.844 Q1346.29 602.385 1346.29 609.515 Q1346.29 616.621 1348.1 620.186 Q1349.93 623.728 1353.54 623.728 Q1357.17 623.728 1358.98 620.186 Q1360.81 616.621 1360.81 609.515 Q1360.81 602.385 1358.98 598.844 Q1357.17 595.279 1353.54 595.279 M1353.54 591.575 Q1359.35 591.575 1362.4 596.182 Q1365.48 600.765 1365.48 609.515 Q1365.48 618.242 1362.4 622.848 Q1359.35 627.431 1353.54 627.431 Q1347.73 627.431 1344.65 622.848 Q1341.59 618.242 1341.59 609.515 Q1341.59 600.765 1344.65 596.182 Q1347.73 591.575 1353.54 591.575 Z" fill="#000000" fill-rule="nonzero" fill-opacity="1" /><path clip-path="url(#clip470)" d="M1284.02 387.277 L1291.66 387.277 L1291.66 360.911 L1283.35 362.578 L1283.35 358.318 L1291.62 356.652 L1296.29 356.652 L1296.29 387.277 L1303.93 387.277 L1303.93 391.212 L1284.02 391.212 L1284.02 387.277 Z" fill="#000000" fill-rule="nonzero" fill-opacity="1" /><path clip-path="url(#clip470)" d="M1323.38 359.731 Q1319.76 359.731 1317.94 363.295 Q1316.13 366.837 1316.13 373.967 Q1316.13 381.073 1317.94 384.638 Q1319.76 388.179 1323.38 388.179 Q1327.01 388.179 1328.82 384.638 Q1330.64 381.073 1330.64 373.967 Q1330.64 366.837 1328.82 363.295 Q1327.01 359.731 1323.38 359.731 M1323.38 356.027 Q1329.19 356.027 1332.24 360.633 Q1335.32 365.217 1335.32 373.967 Q1335.32 382.693 1332.24 387.3 Q1329.19 391.883 1323.38 391.883 Q1317.57 391.883 1314.49 387.3 Q1311.43 382.693 1311.43 373.967 Q1311.43 365.217 1314.49 360.633 Q1317.57 356.027 1323.38 356.027 Z" fill="#000000" fill-rule="nonzero" fill-opacity="1" /><path clip-path="url(#clip470)" d="M1353.54 359.731 Q1349.93 359.731 1348.1 363.295 Q1346.29 366.837 1346.29 373.967 Q1346.29 381.073 1348.1 384.638 Q1349.93 388.179 1353.54 388.179 Q1357.17 388.179 1358.98 384.638 Q1360.81 381.073 1360.81 373.967 Q1360.81 366.837 1358.98 363.295 Q1357.17 359.731 1353.54 359.731 M1353.54 356.027 Q1359.35 356.027 1362.4 360.633 Q1365.48 365.217 1365.48 373.967 Q1365.48 382.693 1362.4 387.3 Q1359.35 391.883 1353.54 391.883 Q1347.73 391.883 1344.65 387.3 Q1341.59 382.693 1341.59 373.967 Q1341.59 365.217 1344.65 360.633 Q1347.73 356.027 1353.54 356.027 Z" fill="#000000" fill-rule="nonzero" fill-opacity="1" /><path clip-path="url(#clip470)" d="M1287.24 151.728 L1303.56 151.728 L1303.56 155.664 L1281.62 155.664 L1281.62 151.728 Q1284.28 148.974 1288.86 144.344 Q1293.47 139.691 1294.65 138.349 Q1296.89 135.826 1297.77 134.09 Q1298.68 132.33 1298.68 130.641 Q1298.68 127.886 1296.73 126.15 Q1294.81 124.414 1291.71 124.414 Q1289.51 124.414 1287.06 125.178 Q1284.63 125.941 1281.85 127.492 L1281.85 122.77 Q1284.67 121.636 1287.13 121.057 Q1289.58 120.479 1291.62 120.479 Q1296.99 120.479 1300.18 123.164 Q1303.38 125.849 1303.38 130.34 Q1303.38 132.469 1302.57 134.391 Q1301.78 136.289 1299.67 138.881 Q1299.09 139.553 1295.99 142.77 Q1292.89 145.965 1287.24 151.728 Z" fill="#000000" fill-rule="nonzero" fill-opacity="1" /><path clip-path="url(#clip470)" d="M1323.38 124.182 Q1319.76 124.182 1317.94 127.747 Q1316.13 131.289 1316.13 138.418 Q1316.13 145.525 1317.94 149.09 Q1319.76 152.631 1323.38 152.631 Q1327.01 152.631 1328.82 149.09 Q1330.64 145.525 1330.64 138.418 Q1330.64 131.289 1328.82 127.747 Q1327.01 124.182 1323.38 124.182 M1323.38 120.479 Q1329.19 120.479 1332.24 125.085 Q1335.32 129.668 1335.32 138.418 Q1335.32 147.145 1332.24 151.752 Q1329.19 156.335 1323.38 156.335 Q1317.57 156.335 1314.49 151.752 Q1311.43 147.145 1311.43 138.418 Q1311.43 129.668 1314.49 125.085 Q1317.57 120.479 1323.38 120.479 Z" fill="#000000" fill-rule="nonzero" fill-opacity="1" /><path clip-path="url(#clip470)" d="M1353.54 124.182 Q1349.93 124.182 1348.1 127.747 Q1346.29 131.289 1346.29 138.418 Q1346.29 145.525 1348.1 149.09 Q1349.93 152.631 1353.54 152.631 Q1357.17 152.631 1358.98 149.09 Q1360.81 145.525 1360.81 138.418 Q1360.81 131.289 1358.98 127.747 Q1357.17 124.182 1353.54 124.182 M1353.54 120.479 Q1359.35 120.479 1362.4 125.085 Q1365.48 129.668 1365.48 138.418 Q1365.48 147.145 1362.4 151.752 Q1359.35 156.335 1353.54 156.335 Q1347.73 156.335 1344.65 151.752 Q1341.59 147.145 1341.59 138.418 Q1341.59 129.668 1344.65 125.085 Q1347.73 120.479 1353.54 120.479 Z" fill="#000000" fill-rule="nonzero" fill-opacity="1" /><polyline clip-path="url(#clip471)" style="stroke:#009af9; stroke-linecap:round; stroke-linejoin:round; stroke-width:4; stroke-opacity:1; fill:none" points="1428.41,87.9763 1429.54,188.789 1430.67,288.329 1431.81,384.111 1432.94,471.075 1434.08,547.016 1435.21,611.352 1436.35,664.388 1437.48,706.927 1438.62,740.055 1439.75,765.018 1440.89,783.137 1442.02,795.742 1443.15,804.108 1444.29,809.414 1445.42,812.7 1446.56,814.845 1447.69,816.557 1448.83,818.379 1449.96,820.707 1451.1,823.828 1452.23,827.957 1453.37,833.264 1454.5,839.819 1455.63,847.458 1456.77,855.805 1457.9,864.469 1459.04,873.144 1460.17,881.615 1461.31,889.741 1462.44,897.441 1463.58,904.691 1464.71,911.519 1465.85,917.996 1466.98,924.224 1468.11,930.301 1469.25,936.299 1470.38,942.257 1471.52,948.183 1472.65,954.071 1473.79,959.905 1474.92,965.666 1476.06,971.343 1477.19,976.951 1478.33,982.547 1479.46,988.233 1480.59,994.09 1481.73,1000.12 1482.86,1006.25 1484,1012.43 1485.13,1018.62 1486.27,1024.8 1487.4,1030.97 1488.54,1037.1 1489.67,1043.18 1490.81,1049.21 1491.94,1055.17 1493.07,1061.05 1494.21,1066.84 1495.34,1072.53 1496.48,1078.13 1497.61,1083.63 1498.75,1089.01 1499.88,1094.28 1501.02,1099.43 1502.15,1104.46 1503.29,1109.36 1504.42,1114.15 1505.55,1118.81 1506.69,1123.36 1507.82,1127.8 1508.96,1132.14 1510.09,1136.38 1511.23,1140.53 1512.36,1144.58 1513.5,1148.55 1514.63,1152.42 1515.77,1156.2 1516.9,1159.9 1518.03,1163.5 1519.17,1167.02 1520.3,1170.45 1521.44,1173.8 1522.57,1177.06 1523.71,1180.25 1524.84,1183.35 1525.98,1186.38 1527.11,1189.33 1528.25,1192.2 1529.38,1194.99 1530.51,1197.7 1531.65,1200.32 1532.78,1202.87 1533.92,1205.34 1535.05,1207.73 1536.19,1210.04 1537.32,1212.27 1538.46,1214.43 1539.59,1216.52 1540.73,1218.54 1541.86,1220.48 1542.99,1222.37 1544.13,1224.19 1545.26,1225.95 1546.4,1227.66 1547.53,1229.32 1548.67,1230.92 1549.8,1232.49 1550.94,1234.03 1552.07,1235.53 1553.21,1237.01 1554.34,1238.47 1555.47,1239.92 1556.61,1241.35 1557.74,1242.79 1558.88,1244.22 1560.01,1245.65 1561.15,1247.07 1562.28,1248.49 1563.42,1249.9 1564.55,1251.3 1565.69,1252.69 1566.82,1254.07 1567.95,1255.43 1569.09,1256.77 1570.22,1258.08 1571.36,1259.38 1572.49,1260.65 1573.63,1261.89 1574.76,1263.11 1575.9,1264.31 1577.03,1265.47 1578.17,1266.62 1579.3,1267.73 1580.43,1268.83 1581.57,1269.89 1582.7,1270.94 1583.84,1271.96 1584.97,1272.95 1586.11,1273.92 1587.24,1274.88 1588.38,1275.8 1589.51,1276.71 1590.65,1277.6 1591.78,1278.46 1592.91,1279.3 1594.05,1280.13 1595.18,1280.93 1596.32,1281.72 1597.45,1282.49 1598.59,1283.26 1599.72,1284.01 1600.86,1284.77 1601.99,1285.53 1603.13,1286.31 1604.26,1287.1 1605.39,1287.93 1606.53,1288.78 1607.66,1289.67 1608.8,1290.6 1609.93,1291.56 1611.07,1292.55 1612.2,1293.56 1613.34,1294.58 1614.47,1295.6 1615.61,1296.62 1616.74,1297.61 1617.87,1298.59 1619.01,1299.53 1620.14,1300.44 1621.28,1301.31 1622.41,1302.15 1623.55,1302.95 1624.68,1303.71 1625.82,1304.43 1626.95,1305.12 1628.09,1305.77 1629.22,1306.4 1630.35,1307 1631.49,1307.58 1632.62,1308.14 1633.76,1308.68 1634.89,1309.21 1636.03,1309.73 1637.16,1310.24 1638.3,1310.75 1639.43,1311.25 1640.57,1311.75 1641.7,1312.26 1642.83,1312.76 1643.97,1313.27 1645.1,1313.79 1646.24,1314.32 1647.37,1314.85 1648.51,1315.4 1649.64,1315.96 1650.78,1316.53 1651.91,1317.12 1653.05,1317.72 1654.18,1318.33 1655.31,1318.95 1656.45,1319.59 1657.58,1320.24 1658.72,1320.91 1659.85,1321.58 1660.99,1322.26 1662.12,1322.95 1663.26,1323.64 1664.39,1324.34 1665.53,1325.05 1666.66,1325.75 1667.79,1326.46 1668.93,1327.17 1670.06,1327.87 1671.2,1328.58 1672.33,1329.28 1673.47,1329.97 1674.6,1330.67 1675.74,1331.35 1676.87,1332.03 1678.01,1332.71 1679.14,1333.38 1680.27,1334.04 1681.41,1334.69 1682.54,1335.34 1683.68,1335.98 1684.81,1336.62 1685.95,1337.25 1687.08,1337.88 1688.22,1338.5 1689.35,1339.13 1690.49,1339.75 1691.62,1340.38 1692.75,1341.01 1693.89,1341.64 1695.02,1342.28 1696.16,1342.93 1697.29,1343.59 1698.43,1344.25 1699.56,1344.94 1700.7,1345.63 1701.83,1346.34 1702.97,1347.06 1704.1,1347.8 1705.23,1348.55 1706.37,1349.31 1707.5,1350.09 1708.64,1350.88 1709.77,1351.69 1710.91,1352.51 1712.04,1353.33 1713.18,1354.17 1714.31,1355.02 1715.45,1355.87 1716.58,1356.73 1717.71,1357.59 1718.85,1358.46 1719.98,1359.33 1721.12,1360.21 1722.25,1361.09 1723.39,1361.97 1724.52,1362.85 1725.66,1363.73 1726.79,1364.6 1727.93,1365.48 1729.06,1366.35 1730.2,1367.22 1731.33,1368.09 1732.46,1368.95 1733.6,1369.81 1734.73,1370.66 1735.87,1371.51 1737,1372.35 1738.14,1373.18 1739.27,1374 1740.41,1374.82 1741.54,1375.62 1742.68,1376.42 1743.81,1377.21 1744.94,1377.99 1746.08,1378.76 1747.21,1379.52 1748.35,1380.27 1749.48,1381.01 1750.62,1381.75 1751.75,1382.47 1752.89,1383.18 1754.02,1383.89 1755.16,1384.58 1756.29,1385.26 1757.42,1385.94 1758.56,1386.6 1759.69,1387.26 1760.83,1387.91 1761.96,1388.55 1763.1,1389.18 1764.23,1389.8 1765.37,1390.41 1766.5,1391.01 1767.64,1391.6 1768.77,1392.19 1769.9,1392.77 1771.04,1393.34 1772.17,1393.9 1773.31,1394.45 1774.44,1395 1775.58,1395.53 1776.71,1396.06 1777.85,1396.58 1778.98,1397.09 1780.12,1397.6 1781.25,1398.1 1782.38,1398.59 1783.52,1399.07 1784.65,1399.54 1785.79,1400.01 1786.92,1400.47 1788.06,1400.93 1789.19,1401.37 1790.33,1401.81 1791.46,1402.24 1792.6,1402.67 1793.73,1403.09 1794.86,1403.5 1796,1403.9 1797.13,1404.3 1798.27,1404.69 1799.4,1405.08 1800.54,1405.46 1801.67,1405.83 1802.81,1406.19 1803.94,1406.55 1805.08,1406.91 1806.21,1407.26 1807.34,1407.6 1808.48,1407.93 1809.61,1408.27 1810.75,1408.59 1811.88,1408.91 1813.02,1409.22 1814.15,1409.53 1815.29,1409.83 1816.42,1410.13 1817.56,1410.43 1818.69,1410.71 1819.82,1411 1820.96,1411.27 1822.09,1411.55 1823.23,1411.81 1824.36,1412.08 1825.5,1412.34 1826.63,1412.59 1827.77,1412.84 1828.9,1413.09 1830.04,1413.33 1831.17,1413.56 1832.3,1413.8 1833.44,1414.03 1834.57,1414.25 1835.71,1414.47 1836.84,1414.69 1837.98,1414.9 1839.11,1415.11 1840.25,1415.31 1841.38,1415.52 1842.52,1415.72 1843.65,1415.91 1844.78,1416.1 1845.92,1416.29 1847.05,1416.48 1848.19,1416.66 1849.32,1416.84 1850.46,1417.02 1851.59,1417.19 1852.73,1417.36 1853.86,1417.53 1855,1417.7 1856.13,1417.86 1857.26,1418.02 1858.4,1418.18 1859.53,1418.34 1860.67,1418.49 1861.8,1418.65 1862.94,1418.8 1864.07,1418.95 1865.21,1419.1 1866.34,1419.24 1867.48,1419.39 1868.61,1419.53 1869.74,1419.68 1870.88,1419.82 1872.01,1419.96 1873.15,1420.11 1874.28,1420.25 1875.42,1420.39 1876.55,1420.53 1877.69,1420.67 1878.82,1420.82 1879.96,1420.96 1881.09,1421.1 1882.22,1421.24 1883.36,1421.39 1884.49,1421.53 1885.63,1421.68 1886.76,1421.82 1887.9,1421.97 1889.03,1422.12 1890.17,1422.27 1891.3,1422.42 1892.44,1422.57 1893.57,1422.72 1894.7,1422.87 1895.84,1423.02 1896.97,1423.17 1898.11,1423.33 1899.24,1423.48 1900.38,1423.63 1901.51,1423.79 1902.65,1423.94 1903.78,1424.09 1904.92,1424.25 1906.05,1424.4 1907.18,1424.55 1908.32,1424.7 1909.45,1424.85 1910.59,1425 1911.72,1425.14 1912.86,1425.29 1913.99,1425.43 1915.13,1425.58 1916.26,1425.72 1917.4,1425.86 1918.53,1426 1919.66,1426.13 1920.8,1426.27 1921.93,1426.41 1923.07,1426.54 1924.2,1426.67 1925.34,1426.81 1926.47,1426.94 1927.61,1427.07 1928.74,1427.2 1929.88,1427.33 1931.01,1427.47 1932.14,1427.6 1933.28,1427.73 1934.41,1427.86 1935.55,1428 1936.68,1428.13 1937.82,1428.27 1938.95,1428.41 1940.09,1428.55 1941.22,1428.69 1942.36,1428.84 1943.49,1428.99 1944.62,1429.14 1945.76,1429.29 1946.89,1429.45 1948.03,1429.62 1949.16,1429.79 1950.3,1429.96 1951.43,1430.14 1952.57,1430.33 1953.7,1430.52 1954.84,1430.71 1955.97,1430.92 1957.1,1431.13 1958.24,1431.34 1959.37,1431.56 1960.51,1431.79 1961.64,1432.03 1962.78,1432.26 1963.91,1432.51 1965.05,1432.76 1966.18,1433.01 1967.32,1433.26 1968.45,1433.52 1969.58,1433.78 1970.72,1434.04 1971.85,1434.31 1972.99,1434.57 1974.12,1434.83 1975.26,1435.09 1976.39,1435.35 1977.53,1435.6 1978.66,1435.86 1979.8,1436.11 1980.93,1436.35 1982.06,1436.6 1983.2,1436.83 1984.33,1437.07 1985.47,1437.3 1986.6,1437.52 1987.74,1437.74 1988.87,1437.96 1990.01,1438.17 1991.14,1438.37 1992.28,1438.57 1993.41,1438.77 1994.54,1438.96 1995.68,1439.14 1996.81,1439.32 1997.95,1439.5 1999.08,1439.68 2000.22,1439.84 2001.35,1440.01 2002.49,1440.17 2003.62,1440.33 2004.76,1440.48 2005.89,1440.63 2007.02,1440.77 2008.16,1440.91 2009.29,1441.05 2010.43,1441.18 2011.56,1441.32 2012.7,1441.44 2013.83,1441.57 2014.97,1441.69 2016.1,1441.8 2017.24,1441.92 2018.37,1442.03 2019.5,1442.14 2020.64,1442.24 2021.77,1442.34 2022.91,1442.44 2024.04,1442.54 2025.18,1442.63 2026.31,1442.72 2027.45,1442.81 2028.58,1442.89 2029.72,1442.98 2030.85,1443.06 2031.98,1443.13 2033.12,1443.21 2034.25,1443.28 2035.39,1443.35 2036.52,1443.42 2037.66,1443.49 2038.79,1443.55 2039.93,1443.62 2041.06,1443.68 2042.2,1443.74 2043.33,1443.79 2044.47,1443.85 2045.6,1443.9 2046.73,1443.95 2047.87,1444 2049,1444.05 2050.14,1444.1 2051.27,1444.15 2052.41,1444.19 2053.54,1444.24 2054.68,1444.28 2055.81,1444.32 2056.95,1444.36 2058.08,1444.4 2059.21,1444.44 2060.35,1444.47 2061.48,1444.51 2062.62,1444.54 2063.75,1444.57 2064.89,1444.61 2066.02,1444.64 2067.16,1444.67 2068.29,1444.7 2069.43,1444.73 2070.56,1444.75 2071.69,1444.78 2072.83,1444.81 2073.96,1444.83 2075.1,1444.86 2076.23,1444.88 2077.37,1444.91 2078.5,1444.93 2079.64,1444.95 2080.77,1444.97 2081.91,1444.99 2083.04,1445.01 2084.17,1445.03 2085.31,1445.05 2086.44,1445.07 2087.58,1445.09 2088.71,1445.1 2089.85,1445.12 2090.98,1445.14 2092.12,1445.15 2093.25,1445.17 2094.39,1445.18 2095.52,1445.2 2096.65,1445.21 2097.79,1445.23 2098.92,1445.24 2100.06,1445.25 2101.19,1445.27 2102.33,1445.28 2103.46,1445.29 2104.6,1445.3 2105.73,1445.31 2106.87,1445.32 2108,1445.33 2109.13,1445.34 2110.27,1445.35 2111.4,1445.36 2112.54,1445.37 2113.67,1445.38 2114.81,1445.39 2115.94,1445.4 2117.08,1445.41 2118.21,1445.42 2119.35,1445.42 2120.48,1445.43 2121.61,1445.44 2122.75,1445.45 2123.88,1445.45 2125.02,1445.46 2126.15,1445.47 2127.29,1445.47 2128.42,1445.48 2129.56,1445.49 2130.69,1445.49 2131.83,1445.5 2132.96,1445.5 2134.09,1445.51 2135.23,1445.52 2136.36,1445.52 2137.5,1445.53 2138.63,1445.53 2139.77,1445.54 2140.9,1445.54 2142.04,1445.55 2143.17,1445.55 2144.31,1445.55 2145.44,1445.56 2146.57,1445.56 2147.71,1445.57 2148.84,1445.57 2149.98,1445.57 2151.11,1445.58 2152.25,1445.58 2153.38,1445.58 2154.52,1445.59 2155.65,1445.59 2156.79,1445.59 2157.92,1445.6 2159.05,1445.6 2160.19,1445.6 2161.32,1445.61 2162.46,1445.61 2163.59,1445.61 2164.73,1445.61 2165.86,1445.62 2167,1445.62 2168.13,1445.62 2169.27,1445.62 2170.4,1445.63 2171.53,1445.63 2172.67,1445.63 2173.8,1445.63 2174.94,1445.64 2176.07,1445.64 2177.21,1445.64 2178.34,1445.64 2179.48,1445.64 2180.61,1445.65 2181.75,1445.65 2182.88,1445.65 2184.01,1445.65 2185.15,1445.65 2186.28,1445.65 2187.42,1445.66 2188.55,1445.66 2189.69,1445.66 2190.82,1445.66 2191.96,1445.66 2193.09,1445.66 2194.23,1445.66 2195.36,1445.67 2196.49,1445.67 2197.63,1445.67 2198.76,1445.67 2199.9,1445.67 2201.03,1445.67 2202.17,1445.67 2203.3,1445.67 2204.44,1445.68 2205.57,1445.68 2206.71,1445.68 2207.84,1445.68 2208.97,1445.68 2210.11,1445.68 2211.24,1445.68 2212.38,1445.68 2213.51,1445.68 2214.65,1445.68 2215.78,1445.68 2216.92,1445.69 2218.05,1445.69 2219.19,1445.69 2220.32,1445.69 2221.45,1445.69 2222.59,1445.69 2223.72,1445.69 2224.86,1445.69 2225.99,1445.69 2227.13,1445.69 2228.26,1445.69 2229.4,1445.69 2230.53,1445.69 2231.67,1445.69 2232.8,1445.7 2233.93,1445.7 2235.07,1445.7 2236.2,1445.7 2237.34,1445.7 2238.47,1445.7 2239.61,1445.7 2240.74,1445.7 2241.88,1445.7 2243.01,1445.7 2244.15,1445.7 2245.28,1445.7 2246.41,1445.7 2247.55,1445.7 2248.68,1445.7 2249.82,1445.7 2250.95,1445.7 2252.09,1445.7 2253.22,1445.7 2254.36,1445.7 2255.49,1445.7 2256.63,1445.7 2257.76,1445.7 2258.89,1445.71 2260.03,1445.71 2261.16,1445.71 2262.3,1445.71 2263.43,1445.71 2264.57,1445.71 2265.7,1445.71 2266.84,1445.71 2267.97,1445.71 2269.11,1445.71 2270.24,1445.71 2271.37,1445.71 2272.51,1445.71 2273.64,1445.71 2274.78,1445.71 2275.91,1445.71 2277.05,1445.71 2278.18,1445.71 2279.32,1445.71 2280.45,1445.71 2281.59,1445.71 2282.72,1445.71 2283.85,1445.71 2284.99,1445.71 2286.12,1445.71 2287.26,1445.71 2288.39,1445.71 2289.53,1445.71 2290.66,1445.71 2291.8,1445.71 2292.93,1445.71 2294.07,1445.71 2295.2,1445.71 2296.33,1445.71 2297.47,1445.71 2298.6,1445.71 2299.74,1445.71 2300.87,1445.71 2302.01,1445.71 2303.14,1445.71 2304.28,1445.71 2305.41,1445.71 2306.55,1445.71 2307.68,1445.71 2308.81,1445.71 2309.95,1445.71 2311.08,1445.71 2312.22,1445.71 2313.35,1445.71 2314.49,1445.71 2315.62,1445.71 2316.76,1445.71 2317.89,1445.72 2319.03,1445.72 2320.16,1445.72 2321.29,1445.72 2322.43,1445.72 2323.56,1445.72 2324.7,1445.72 2325.83,1445.72 "/>
<path clip-path="url(#clip470)" d="M2090.5 198.898 L2321.05 198.898 L2321.05 95.2176 L2090.5 95.2176  Z" fill="#ffffff" fill-rule="evenodd" fill-opacity="1"/>
<polyline clip-path="url(#clip470)" style="stroke:#000000; stroke-linecap:round; stroke-linejoin:round; stroke-width:4; stroke-opacity:1; fill:none" points="2090.5,198.898 2321.05,198.898 2321.05,95.2176 2090.5,95.2176 2090.5,198.898 "/>
<polyline clip-path="url(#clip470)" style="stroke:#009af9; stroke-linecap:round; stroke-linejoin:round; stroke-width:4; stroke-opacity:1; fill:none" points="2101.07,147.058 2164.49,147.058 "/>
<path clip-path="url(#clip470)" d="M2193.49 139.176 L2193.49 143.203 Q2191.68 142.277 2189.74 141.815 Q2187.79 141.352 2185.71 141.352 Q2182.54 141.352 2180.94 142.324 Q2179.37 143.296 2179.37 145.24 Q2179.37 146.722 2180.5 147.578 Q2181.64 148.412 2185.06 149.176 L2186.52 149.5 Q2191.06 150.472 2192.95 152.254 Q2194.88 154.014 2194.88 157.185 Q2194.88 160.796 2192.01 162.902 Q2189.16 165.009 2184.16 165.009 Q2182.07 165.009 2179.81 164.592 Q2177.56 164.199 2175.06 163.388 L2175.06 158.99 Q2177.42 160.217 2179.71 160.842 Q2182.01 161.444 2184.25 161.444 Q2187.26 161.444 2188.88 160.426 Q2190.5 159.384 2190.5 157.509 Q2190.5 155.773 2189.32 154.847 Q2188.16 153.921 2184.2 153.064 L2182.72 152.717 Q2178.76 151.884 2177.01 150.171 Q2175.25 148.435 2175.25 145.426 Q2175.25 141.768 2177.84 139.778 Q2180.43 137.787 2185.2 137.787 Q2187.56 137.787 2189.64 138.134 Q2191.73 138.481 2193.49 139.176 Z" fill="#000000" fill-rule="nonzero" fill-opacity="1" /><path clip-path="url(#clip470)" d="M2205.87 131.051 L2205.87 138.412 L2214.64 138.412 L2214.64 141.722 L2205.87 141.722 L2205.87 155.796 Q2205.87 158.967 2206.73 159.87 Q2207.61 160.773 2210.27 160.773 L2214.64 160.773 L2214.64 164.338 L2210.27 164.338 Q2205.34 164.338 2203.46 162.509 Q2201.59 160.657 2201.59 155.796 L2201.59 141.722 L2198.46 141.722 L2198.46 138.412 L2201.59 138.412 L2201.59 131.051 L2205.87 131.051 Z" fill="#000000" fill-rule="nonzero" fill-opacity="1" /><path clip-path="url(#clip470)" d="M2235.27 142.393 Q2234.55 141.977 2233.7 141.791 Q2232.86 141.583 2231.84 141.583 Q2228.23 141.583 2226.29 143.944 Q2224.37 146.282 2224.37 150.68 L2224.37 164.338 L2220.08 164.338 L2220.08 138.412 L2224.37 138.412 L2224.37 142.44 Q2225.71 140.078 2227.86 138.944 Q2230.01 137.787 2233.09 137.787 Q2233.53 137.787 2234.07 137.856 Q2234.6 137.903 2235.25 138.018 L2235.27 142.393 Z" fill="#000000" fill-rule="nonzero" fill-opacity="1" /><path clip-path="url(#clip470)" d="M2260.87 150.31 L2260.87 152.393 L2241.29 152.393 Q2241.57 156.791 2243.93 159.106 Q2246.31 161.398 2250.55 161.398 Q2253 161.398 2255.29 160.796 Q2257.61 160.194 2259.88 158.99 L2259.88 163.018 Q2257.58 163.99 2255.18 164.5 Q2252.77 165.009 2250.29 165.009 Q2244.09 165.009 2240.45 161.398 Q2236.84 157.787 2236.84 151.629 Q2236.84 145.264 2240.27 141.537 Q2243.72 137.787 2249.55 137.787 Q2254.78 137.787 2257.82 141.166 Q2260.87 144.523 2260.87 150.31 M2256.61 149.06 Q2256.57 145.565 2254.64 143.481 Q2252.75 141.398 2249.6 141.398 Q2246.03 141.398 2243.88 143.412 Q2241.75 145.426 2241.43 149.083 L2256.61 149.06 Z" fill="#000000" fill-rule="nonzero" fill-opacity="1" /><path clip-path="url(#clip470)" d="M2284.39 139.176 L2284.39 143.203 Q2282.58 142.277 2280.64 141.815 Q2278.69 141.352 2276.61 141.352 Q2273.44 141.352 2271.84 142.324 Q2270.27 143.296 2270.27 145.24 Q2270.27 146.722 2271.4 147.578 Q2272.54 148.412 2275.96 149.176 L2277.42 149.5 Q2281.96 150.472 2283.86 152.254 Q2285.78 154.014 2285.78 157.185 Q2285.78 160.796 2282.91 162.902 Q2280.06 165.009 2275.06 165.009 Q2272.98 165.009 2270.71 164.592 Q2268.46 164.199 2265.96 163.388 L2265.96 158.99 Q2268.32 160.217 2270.62 160.842 Q2272.91 161.444 2275.15 161.444 Q2278.16 161.444 2279.78 160.426 Q2281.4 159.384 2281.4 157.509 Q2281.4 155.773 2280.22 154.847 Q2279.07 153.921 2275.11 153.064 L2273.63 152.717 Q2269.67 151.884 2267.91 150.171 Q2266.15 148.435 2266.15 145.426 Q2266.15 141.768 2268.74 139.778 Q2271.33 137.787 2276.1 137.787 Q2278.46 137.787 2280.55 138.134 Q2282.63 138.481 2284.39 139.176 Z" fill="#000000" fill-rule="nonzero" fill-opacity="1" /><path clip-path="url(#clip470)" d="M2309.09 139.176 L2309.09 143.203 Q2307.28 142.277 2305.34 141.815 Q2303.39 141.352 2301.31 141.352 Q2298.14 141.352 2296.54 142.324 Q2294.97 143.296 2294.97 145.24 Q2294.97 146.722 2296.1 147.578 Q2297.24 148.412 2300.66 149.176 L2302.12 149.5 Q2306.66 150.472 2308.56 152.254 Q2310.48 154.014 2310.48 157.185 Q2310.48 160.796 2307.61 162.902 Q2304.76 165.009 2299.76 165.009 Q2297.68 165.009 2295.41 164.592 Q2293.16 164.199 2290.66 163.388 L2290.66 158.99 Q2293.02 160.217 2295.32 160.842 Q2297.61 161.444 2299.85 161.444 Q2302.86 161.444 2304.48 160.426 Q2306.1 159.384 2306.1 157.509 Q2306.1 155.773 2304.92 154.847 Q2303.76 153.921 2299.81 153.064 L2298.32 152.717 Q2294.37 151.884 2292.61 150.171 Q2290.85 148.435 2290.85 145.426 Q2290.85 141.768 2293.44 139.778 Q2296.03 137.787 2300.8 137.787 Q2303.16 137.787 2305.25 138.134 Q2307.33 138.481 2309.09 139.176 Z" fill="#000000" fill-rule="nonzero" fill-opacity="1" /></svg>
