<?xml version="1.0" encoding="utf-8"?>
<svg xmlns="http://www.w3.org/2000/svg" xmlns:xlink="http://www.w3.org/1999/xlink" width="600" height="400" viewBox="0 0 2400 1600">
<defs>
  <clipPath id="clip800">
    <rect x="0" y="0" width="2400" height="1600"/>
  </clipPath>
</defs>
<path clip-path="url(#clip800)" d="M0 1600 L2400 1600 L2400 0 L0 0  Z" fill="#ffffff" fill-rule="evenodd" fill-opacity="1"/>
<defs>
  <clipPath id="clip801">
    <rect x="1362" y="47" width="991" height="1440"/>
  </clipPath>
</defs>
<path clip-path="url(#clip800)" d="M147.478 1486.45 L1137.06 1486.45 L1137.06 47.2441 L147.478 47.2441  Z" fill="#ffffff" fill-rule="evenodd" fill-opacity="1"/>
<defs>
  <clipPath id="clip802">
    <rect x="147" y="47" width="991" height="1440"/>
  </clipPath>
</defs>
<polyline clip-path="url(#clip802)" style="stroke:#000000; stroke-linecap:round; stroke-linejoin:round; stroke-width:2; stroke-opacity:0.1; fill:none" points="242.883,1486.45 242.883,47.2441 "/>
<polyline clip-path="url(#clip802)" style="stroke:#000000; stroke-linecap:round; stroke-linejoin:round; stroke-width:2; stroke-opacity:0.1; fill:none" points="476.725,1486.45 476.725,47.2441 "/>
<polyline clip-path="url(#clip802)" style="stroke:#000000; stroke-linecap:round; stroke-linejoin:round; stroke-width:2; stroke-opacity:0.1; fill:none" points="710.567,1486.45 710.567,47.2441 "/>
<polyline clip-path="url(#clip802)" style="stroke:#000000; stroke-linecap:round; stroke-linejoin:round; stroke-width:2; stroke-opacity:0.1; fill:none" points="944.408,1486.45 944.408,47.2441 "/>
<polyline clip-path="url(#clip802)" style="stroke:#000000; stroke-linecap:round; stroke-linejoin:round; stroke-width:2; stroke-opacity:0.1; fill:none" points="147.478,1331.9 1137.06,1331.9 "/>
<polyline clip-path="url(#clip802)" style="stroke:#000000; stroke-linecap:round; stroke-linejoin:round; stroke-width:2; stroke-opacity:0.1; fill:none" points="147.478,1098.06 1137.06,1098.06 "/>
<polyline clip-path="url(#clip802)" style="stroke:#000000; stroke-linecap:round; stroke-linejoin:round; stroke-width:2; stroke-opacity:0.1; fill:none" points="147.478,864.214 1137.06,864.214 "/>
<polyline clip-path="url(#clip802)" style="stroke:#000000; stroke-linecap:round; stroke-linejoin:round; stroke-width:2; stroke-opacity:0.1; fill:none" points="147.478,630.372 1137.06,630.372 "/>
<polyline clip-path="url(#clip802)" style="stroke:#000000; stroke-linecap:round; stroke-linejoin:round; stroke-width:2; stroke-opacity:0.1; fill:none" points="147.478,396.53 1137.06,396.53 "/>
<polyline clip-path="url(#clip802)" style="stroke:#000000; stroke-linecap:round; stroke-linejoin:round; stroke-width:2; stroke-opacity:0.1; fill:none" points="147.478,162.688 1137.06,162.688 "/>
<polyline clip-path="url(#clip800)" style="stroke:#000000; stroke-linecap:round; stroke-linejoin:round; stroke-width:4; stroke-opacity:1; fill:none" points="147.478,1486.45 1137.06,1486.45 "/>
<polyline clip-path="url(#clip800)" style="stroke:#000000; stroke-linecap:round; stroke-linejoin:round; stroke-width:4; stroke-opacity:1; fill:none" points="242.883,1486.45 242.883,1467.55 "/>
<polyline clip-path="url(#clip800)" style="stroke:#000000; stroke-linecap:round; stroke-linejoin:round; stroke-width:4; stroke-opacity:1; fill:none" points="476.725,1486.45 476.725,1467.55 "/>
<polyline clip-path="url(#clip800)" style="stroke:#000000; stroke-linecap:round; stroke-linejoin:round; stroke-width:4; stroke-opacity:1; fill:none" points="710.567,1486.45 710.567,1467.55 "/>
<polyline clip-path="url(#clip800)" style="stroke:#000000; stroke-linecap:round; stroke-linejoin:round; stroke-width:4; stroke-opacity:1; fill:none" points="944.408,1486.45 944.408,1467.55 "/>
<path clip-path="url(#clip800)" d="M212.64 1532.02 L242.316 1532.02 L242.316 1535.95 L212.64 1535.95 L212.64 1532.02 Z" fill="#000000" fill-rule="nonzero" fill-opacity="1" /><path clip-path="url(#clip800)" d="M253.219 1544.91 L260.858 1544.91 L260.858 1518.55 L252.547 1520.21 L252.547 1515.95 L260.811 1514.29 L265.487 1514.29 L265.487 1544.91 L273.126 1544.91 L273.126 1548.85 L253.219 1548.85 L253.219 1544.91 Z" fill="#000000" fill-rule="nonzero" fill-opacity="1" /><path clip-path="url(#clip800)" d="M476.725 1517.37 Q473.114 1517.37 471.285 1520.93 Q469.48 1524.47 469.48 1531.6 Q469.48 1538.71 471.285 1542.27 Q473.114 1545.82 476.725 1545.82 Q480.359 1545.82 482.165 1542.27 Q483.993 1538.71 483.993 1531.6 Q483.993 1524.47 482.165 1520.93 Q480.359 1517.37 476.725 1517.37 M476.725 1513.66 Q482.535 1513.66 485.591 1518.27 Q488.669 1522.85 488.669 1531.6 Q488.669 1540.33 485.591 1544.94 Q482.535 1549.52 476.725 1549.52 Q470.915 1549.52 467.836 1544.94 Q464.781 1540.33 464.781 1531.6 Q464.781 1522.85 467.836 1518.27 Q470.915 1513.66 476.725 1513.66 Z" fill="#000000" fill-rule="nonzero" fill-opacity="1" /><path clip-path="url(#clip800)" d="M700.949 1544.91 L708.588 1544.91 L708.588 1518.55 L700.277 1520.21 L700.277 1515.95 L708.541 1514.29 L713.217 1514.29 L713.217 1544.91 L720.856 1544.91 L720.856 1548.85 L700.949 1548.85 L700.949 1544.91 Z" fill="#000000" fill-rule="nonzero" fill-opacity="1" /><path clip-path="url(#clip800)" d="M939.061 1544.91 L955.381 1544.91 L955.381 1548.85 L933.436 1548.85 L933.436 1544.91 Q936.098 1542.16 940.682 1537.53 Q945.288 1532.88 946.469 1531.53 Q948.714 1529.01 949.594 1527.27 Q950.496 1525.51 950.496 1523.82 Q950.496 1521.07 948.552 1519.33 Q946.631 1517.6 943.529 1517.6 Q941.33 1517.6 938.876 1518.36 Q936.446 1519.13 933.668 1520.68 L933.668 1515.95 Q936.492 1514.82 938.946 1514.24 Q941.399 1513.66 943.436 1513.66 Q948.807 1513.66 952.001 1516.35 Q955.195 1519.03 955.195 1523.52 Q955.195 1525.65 954.385 1527.57 Q953.598 1529.47 951.492 1532.07 Q950.913 1532.74 947.811 1535.95 Q944.709 1539.15 939.061 1544.91 Z" fill="#000000" fill-rule="nonzero" fill-opacity="1" /><polyline clip-path="url(#clip800)" style="stroke:#000000; stroke-linecap:round; stroke-linejoin:round; stroke-width:4; stroke-opacity:1; fill:none" points="147.478,1486.45 147.478,47.2441 "/>
<polyline clip-path="url(#clip800)" style="stroke:#000000; stroke-linecap:round; stroke-linejoin:round; stroke-width:4; stroke-opacity:1; fill:none" points="147.478,1331.9 166.376,1331.9 "/>
<polyline clip-path="url(#clip800)" style="stroke:#000000; stroke-linecap:round; stroke-linejoin:round; stroke-width:4; stroke-opacity:1; fill:none" points="147.478,1098.06 166.376,1098.06 "/>
<polyline clip-path="url(#clip800)" style="stroke:#000000; stroke-linecap:round; stroke-linejoin:round; stroke-width:4; stroke-opacity:1; fill:none" points="147.478,864.214 166.376,864.214 "/>
<polyline clip-path="url(#clip800)" style="stroke:#000000; stroke-linecap:round; stroke-linejoin:round; stroke-width:4; stroke-opacity:1; fill:none" points="147.478,630.372 166.376,630.372 "/>
<polyline clip-path="url(#clip800)" style="stroke:#000000; stroke-linecap:round; stroke-linejoin:round; stroke-width:4; stroke-opacity:1; fill:none" points="147.478,396.53 166.376,396.53 "/>
<polyline clip-path="url(#clip800)" style="stroke:#000000; stroke-linecap:round; stroke-linejoin:round; stroke-width:4; stroke-opacity:1; fill:none" points="147.478,162.688 166.376,162.688 "/>
<path clip-path="url(#clip800)" d="M51.3625 1332.35 L81.0383 1332.35 L81.0383 1336.28 L51.3625 1336.28 L51.3625 1332.35 Z" fill="#000000" fill-rule="nonzero" fill-opacity="1" /><path clip-path="url(#clip800)" d="M95.1586 1345.24 L111.478 1345.24 L111.478 1349.18 L89.5336 1349.18 L89.5336 1345.24 Q92.1956 1342.49 96.7789 1337.86 Q101.385 1333.2 102.566 1331.86 Q104.811 1329.34 105.691 1327.6 Q106.594 1325.84 106.594 1324.15 Q106.594 1321.4 104.649 1319.66 Q102.728 1317.93 99.6261 1317.93 Q97.4271 1317.93 94.9734 1318.69 Q92.5428 1319.46 89.7651 1321.01 L89.7651 1316.28 Q92.5891 1315.15 95.0428 1314.57 Q97.4965 1313.99 99.5335 1313.99 Q104.904 1313.99 108.098 1316.68 Q111.293 1319.36 111.293 1323.85 Q111.293 1325.98 110.483 1327.9 Q109.696 1329.8 107.589 1332.39 Q107.01 1333.07 103.909 1336.28 Q100.807 1339.48 95.1586 1345.24 Z" fill="#000000" fill-rule="nonzero" fill-opacity="1" /><path clip-path="url(#clip800)" d="M50.9921 1098.51 L80.6679 1098.51 L80.6679 1102.44 L50.9921 1102.44 L50.9921 1098.51 Z" fill="#000000" fill-rule="nonzero" fill-opacity="1" /><path clip-path="url(#clip800)" d="M91.5706 1111.4 L99.2095 1111.4 L99.2095 1085.03 L90.8993 1086.7 L90.8993 1082.44 L99.1632 1080.78 L103.839 1080.78 L103.839 1111.4 L111.478 1111.4 L111.478 1115.34 L91.5706 1115.34 L91.5706 1111.4 Z" fill="#000000" fill-rule="nonzero" fill-opacity="1" /><path clip-path="url(#clip800)" d="M99.5335 850.012 Q95.9224 850.012 94.0937 853.577 Q92.2882 857.119 92.2882 864.248 Q92.2882 871.355 94.0937 874.92 Q95.9224 878.461 99.5335 878.461 Q103.168 878.461 104.973 874.92 Q106.802 871.355 106.802 864.248 Q106.802 857.119 104.973 853.577 Q103.168 850.012 99.5335 850.012 M99.5335 846.309 Q105.344 846.309 108.399 850.915 Q111.478 855.498 111.478 864.248 Q111.478 872.975 108.399 877.582 Q105.344 882.165 99.5335 882.165 Q93.7234 882.165 90.6447 877.582 Q87.5892 872.975 87.5892 864.248 Q87.5892 855.498 90.6447 850.915 Q93.7234 846.309 99.5335 846.309 Z" fill="#000000" fill-rule="nonzero" fill-opacity="1" /><path clip-path="url(#clip800)" d="M91.5706 643.717 L99.2095 643.717 L99.2095 617.351 L90.8993 619.018 L90.8993 614.758 L99.1632 613.092 L103.839 613.092 L103.839 643.717 L111.478 643.717 L111.478 647.652 L91.5706 647.652 L91.5706 643.717 Z" fill="#000000" fill-rule="nonzero" fill-opacity="1" /><path clip-path="url(#clip800)" d="M95.1586 409.875 L111.478 409.875 L111.478 413.81 L89.5336 413.81 L89.5336 409.875 Q92.1956 407.12 96.7789 402.491 Q101.385 397.838 102.566 396.495 Q104.811 393.972 105.691 392.236 Q106.594 390.477 106.594 388.787 Q106.594 386.032 104.649 384.296 Q102.728 382.56 99.6261 382.56 Q97.4271 382.56 94.9734 383.324 Q92.5428 384.088 89.7651 385.639 L89.7651 380.917 Q92.5891 379.782 95.0428 379.204 Q97.4965 378.625 99.5335 378.625 Q104.904 378.625 108.098 381.31 Q111.293 383.995 111.293 388.486 Q111.293 390.616 110.483 392.537 Q109.696 394.435 107.589 397.028 Q107.01 397.699 103.909 400.917 Q100.807 404.111 95.1586 409.875 Z" fill="#000000" fill-rule="nonzero" fill-opacity="1" /><path clip-path="url(#clip800)" d="M104.348 161.334 Q107.705 162.052 109.58 164.32 Q111.478 166.589 111.478 169.922 Q111.478 175.038 107.959 177.839 Q104.441 180.639 97.9595 180.639 Q95.7836 180.639 93.4688 180.2 Q91.1771 179.783 88.7234 178.927 L88.7234 174.413 Q90.6678 175.547 92.9826 176.126 Q95.2974 176.704 97.8206 176.704 Q102.219 176.704 104.51 174.968 Q106.825 173.232 106.825 169.922 Q106.825 166.866 104.672 165.153 Q102.543 163.417 98.7234 163.417 L94.6956 163.417 L94.6956 159.575 L98.9085 159.575 Q102.358 159.575 104.186 158.209 Q106.015 156.82 106.015 154.228 Q106.015 151.566 104.117 150.154 Q102.242 148.718 98.7234 148.718 Q96.8021 148.718 94.603 149.135 Q92.4039 149.552 89.7651 150.431 L89.7651 146.265 Q92.4271 145.524 94.7419 145.154 Q97.0798 144.783 99.14 144.783 Q104.464 144.783 107.566 147.214 Q110.668 149.621 110.668 153.741 Q110.668 156.612 109.024 158.603 Q107.381 160.57 104.348 161.334 Z" fill="#000000" fill-rule="nonzero" fill-opacity="1" /><polyline clip-path="url(#clip802)" style="stroke:#000000; stroke-linecap:round; stroke-linejoin:round; stroke-width:4; stroke-opacity:1; fill:none" points="642.308,766.804 1109.05,896.673 "/>
<polyline clip-path="url(#clip802)" style="stroke:#000000; stroke-linecap:round; stroke-linejoin:round; stroke-width:4; stroke-opacity:1; fill:none" points="642.308,766.804 1096.27,597.414 "/>
<polyline clip-path="url(#clip802)" style="stroke:#000000; stroke-linecap:round; stroke-linejoin:round; stroke-width:4; stroke-opacity:1; fill:none" points="642.308,766.804 910.034,362.838 "/>
<polyline clip-path="url(#clip802)" style="stroke:#000000; stroke-linecap:round; stroke-linejoin:round; stroke-width:4; stroke-opacity:1; fill:none" points="642.308,766.804 621.494,282.587 "/>
<polyline clip-path="url(#clip802)" style="stroke:#000000; stroke-linecap:round; stroke-linejoin:round; stroke-width:4; stroke-opacity:1; fill:none" points="642.308,766.804 340.91,387.294 "/>
<polyline clip-path="url(#clip802)" style="stroke:#000000; stroke-linecap:round; stroke-linejoin:round; stroke-width:4; stroke-opacity:1; fill:none" points="642.308,766.804 175.485,636.958 "/>
<polyline clip-path="url(#clip802)" style="stroke:#000000; stroke-linecap:round; stroke-linejoin:round; stroke-width:4; stroke-opacity:1; fill:none" points="642.308,766.804 188.411,936.187 "/>
<polyline clip-path="url(#clip802)" style="stroke:#000000; stroke-linecap:round; stroke-linejoin:round; stroke-width:4; stroke-opacity:1; fill:none" points="642.308,766.804 374.646,1170.73 "/>
<polyline clip-path="url(#clip802)" style="stroke:#000000; stroke-linecap:round; stroke-linejoin:round; stroke-width:4; stroke-opacity:1; fill:none" points="642.308,766.804 663.104,1251.1 "/>
<polyline clip-path="url(#clip802)" style="stroke:#000000; stroke-linecap:round; stroke-linejoin:round; stroke-width:4; stroke-opacity:1; fill:none" points="642.308,766.804 943.626,1146.34 "/>
<polyline clip-path="url(#clip802)" style="stroke:#000000; stroke-linecap:round; stroke-linejoin:round; stroke-width:4; stroke-opacity:1; fill:none" points="1109.05,896.673 1096.27,597.414 "/>
<polyline clip-path="url(#clip802)" style="stroke:#000000; stroke-linecap:round; stroke-linejoin:round; stroke-width:4; stroke-opacity:1; fill:none" points="1109.05,896.673 943.626,1146.34 "/>
<polyline clip-path="url(#clip802)" style="stroke:#000000; stroke-linecap:round; stroke-linejoin:round; stroke-width:4; stroke-opacity:1; fill:none" points="1096.27,597.414 910.034,362.838 "/>
<polyline clip-path="url(#clip802)" style="stroke:#000000; stroke-linecap:round; stroke-linejoin:round; stroke-width:4; stroke-opacity:1; fill:none" points="910.034,362.838 621.494,282.587 "/>
<polyline clip-path="url(#clip802)" style="stroke:#000000; stroke-linecap:round; stroke-linejoin:round; stroke-width:4; stroke-opacity:1; fill:none" points="621.494,282.587 340.91,387.294 "/>
<polyline clip-path="url(#clip802)" style="stroke:#000000; stroke-linecap:round; stroke-linejoin:round; stroke-width:4; stroke-opacity:1; fill:none" points="340.91,387.294 175.485,636.958 "/>
<polyline clip-path="url(#clip802)" style="stroke:#000000; stroke-linecap:round; stroke-linejoin:round; stroke-width:4; stroke-opacity:1; fill:none" points="175.485,636.958 188.411,936.187 "/>
<polyline clip-path="url(#clip802)" style="stroke:#000000; stroke-linecap:round; stroke-linejoin:round; stroke-width:4; stroke-opacity:1; fill:none" points="188.411,936.187 374.646,1170.73 "/>
<polyline clip-path="url(#clip802)" style="stroke:#000000; stroke-linecap:round; stroke-linejoin:round; stroke-width:4; stroke-opacity:1; fill:none" points="374.646,1170.73 663.104,1251.1 "/>
<polyline clip-path="url(#clip802)" style="stroke:#000000; stroke-linecap:round; stroke-linejoin:round; stroke-width:4; stroke-opacity:1; fill:none" points="663.104,1251.1 943.626,1146.34 "/>
<circle clip-path="url(#clip802)" cx="642.308" cy="766.804" r="18" fill="#0000ff" fill-rule="evenodd" fill-opacity="1" stroke="#000000" stroke-opacity="1" stroke-width="3.2"/>
<circle clip-path="url(#clip802)" cx="1109.05" cy="896.673" r="18" fill="#0000ff" fill-rule="evenodd" fill-opacity="1" stroke="#000000" stroke-opacity="1" stroke-width="3.2"/>
<circle clip-path="url(#clip802)" cx="1096.27" cy="597.414" r="18" fill="#0000ff" fill-rule="evenodd" fill-opacity="1" stroke="#000000" stroke-opacity="1" stroke-width="3.2"/>
<circle clip-path="url(#clip802)" cx="910.034" cy="362.838" r="18" fill="#0000ff" fill-rule="evenodd" fill-opacity="1" stroke="#000000" stroke-opacity="1" stroke-width="3.2"/>
<circle clip-path="url(#clip802)" cx="621.494" cy="282.587" r="18" fill="#0000ff" fill-rule="evenodd" fill-opacity="1" stroke="#000000" stroke-opacity="1" stroke-width="3.2"/>
<circle clip-path="url(#clip802)" cx="340.91" cy="387.294" r="18" fill="#0000ff" fill-rule="evenodd" fill-opacity="1" stroke="#000000" stroke-opacity="1" stroke-width="3.2"/>
<circle clip-path="url(#clip802)" cx="175.485" cy="636.958" r="18" fill="#0000ff" fill-rule="evenodd" fill-opacity="1" stroke="#000000" stroke-opacity="1" stroke-width="3.2"/>
<circle clip-path="url(#clip802)" cx="188.411" cy="936.187" r="18" fill="#0000ff" fill-rule="evenodd" fill-opacity="1" stroke="#000000" stroke-opacity="1" stroke-width="3.2"/>
<circle clip-path="url(#clip802)" cx="374.646" cy="1170.73" r="18" fill="#0000ff" fill-rule="evenodd" fill-opacity="1" stroke="#000000" stroke-opacity="1" stroke-width="3.2"/>
<circle clip-path="url(#clip802)" cx="663.104" cy="1251.1" r="18" fill="#0000ff" fill-rule="evenodd" fill-opacity="1" stroke="#000000" stroke-opacity="1" stroke-width="3.2"/>
<circle clip-path="url(#clip802)" cx="943.626" cy="1146.34" r="18" fill="#0000ff" fill-rule="evenodd" fill-opacity="1" stroke="#000000" stroke-opacity="1" stroke-width="3.2"/>
<path clip-path="url(#clip800)" d="M1363.17 1486.45 L2352.76 1486.45 L2352.76 47.2441 L1363.17 47.2441  Z" fill="#ffffff" fill-rule="evenodd" fill-opacity="1"/>
<defs>
  <clipPath id="clip803">
    <rect x="1363" y="47" width="991" height="1440"/>
  </clipPath>
</defs>
<polyline clip-path="url(#clip803)" style="stroke:#000000; stroke-linecap:round; stroke-linejoin:round; stroke-width:2; stroke-opacity:0.1; fill:none" points="1374.51,1486.45 1374.51,47.2441 "/>
<polyline clip-path="url(#clip803)" style="stroke:#000000; stroke-linecap:round; stroke-linejoin:round; stroke-width:2; stroke-opacity:0.1; fill:none" points="1541.22,1486.45 1541.22,47.2441 "/>
<polyline clip-path="url(#clip803)" style="stroke:#000000; stroke-linecap:round; stroke-linejoin:round; stroke-width:2; stroke-opacity:0.1; fill:none" points="1707.93,1486.45 1707.93,47.2441 "/>
<polyline clip-path="url(#clip803)" style="stroke:#000000; stroke-linecap:round; stroke-linejoin:round; stroke-width:2; stroke-opacity:0.1; fill:none" points="1874.63,1486.45 1874.63,47.2441 "/>
<polyline clip-path="url(#clip803)" style="stroke:#000000; stroke-linecap:round; stroke-linejoin:round; stroke-width:2; stroke-opacity:0.1; fill:none" points="2041.34,1486.45 2041.34,47.2441 "/>
<polyline clip-path="url(#clip803)" style="stroke:#000000; stroke-linecap:round; stroke-linejoin:round; stroke-width:2; stroke-opacity:0.1; fill:none" points="2208.05,1486.45 2208.05,47.2441 "/>
<polyline clip-path="url(#clip803)" style="stroke:#000000; stroke-linecap:round; stroke-linejoin:round; stroke-width:2; stroke-opacity:0.1; fill:none" points="1363.17,1306.6 2352.76,1306.6 "/>
<polyline clip-path="url(#clip803)" style="stroke:#000000; stroke-linecap:round; stroke-linejoin:round; stroke-width:2; stroke-opacity:0.1; fill:none" points="1363.17,1096.71 2352.76,1096.71 "/>
<polyline clip-path="url(#clip803)" style="stroke:#000000; stroke-linecap:round; stroke-linejoin:round; stroke-width:2; stroke-opacity:0.1; fill:none" points="1363.17,886.82 2352.76,886.82 "/>
<polyline clip-path="url(#clip803)" style="stroke:#000000; stroke-linecap:round; stroke-linejoin:round; stroke-width:2; stroke-opacity:0.1; fill:none" points="1363.17,676.928 2352.76,676.928 "/>
<polyline clip-path="url(#clip803)" style="stroke:#000000; stroke-linecap:round; stroke-linejoin:round; stroke-width:2; stroke-opacity:0.1; fill:none" points="1363.17,467.036 2352.76,467.036 "/>
<polyline clip-path="url(#clip803)" style="stroke:#000000; stroke-linecap:round; stroke-linejoin:round; stroke-width:2; stroke-opacity:0.1; fill:none" points="1363.17,257.144 2352.76,257.144 "/>
<polyline clip-path="url(#clip803)" style="stroke:#000000; stroke-linecap:round; stroke-linejoin:round; stroke-width:2; stroke-opacity:0.1; fill:none" points="1363.17,47.2517 2352.76,47.2517 "/>
<polyline clip-path="url(#clip800)" style="stroke:#000000; stroke-linecap:round; stroke-linejoin:round; stroke-width:4; stroke-opacity:1; fill:none" points="1363.17,1486.45 2352.76,1486.45 "/>
<polyline clip-path="url(#clip800)" style="stroke:#000000; stroke-linecap:round; stroke-linejoin:round; stroke-width:4; stroke-opacity:1; fill:none" points="1374.51,1486.45 1374.51,1467.55 "/>
<polyline clip-path="url(#clip800)" style="stroke:#000000; stroke-linecap:round; stroke-linejoin:round; stroke-width:4; stroke-opacity:1; fill:none" points="1541.22,1486.45 1541.22,1467.55 "/>
<polyline clip-path="url(#clip800)" style="stroke:#000000; stroke-linecap:round; stroke-linejoin:round; stroke-width:4; stroke-opacity:1; fill:none" points="1707.93,1486.45 1707.93,1467.55 "/>
<polyline clip-path="url(#clip800)" style="stroke:#000000; stroke-linecap:round; stroke-linejoin:round; stroke-width:4; stroke-opacity:1; fill:none" points="1874.63,1486.45 1874.63,1467.55 "/>
<polyline clip-path="url(#clip800)" style="stroke:#000000; stroke-linecap:round; stroke-linejoin:round; stroke-width:4; stroke-opacity:1; fill:none" points="2041.34,1486.45 2041.34,1467.55 "/>
<polyline clip-path="url(#clip800)" style="stroke:#000000; stroke-linecap:round; stroke-linejoin:round; stroke-width:4; stroke-opacity:1; fill:none" points="2208.05,1486.45 2208.05,1467.55 "/>
<path clip-path="url(#clip800)" d="M1374.51 1517.37 Q1370.9 1517.37 1369.07 1520.93 Q1367.26 1524.47 1367.26 1531.6 Q1367.26 1538.71 1369.07 1542.27 Q1370.9 1545.82 1374.51 1545.82 Q1378.14 1545.82 1379.95 1542.27 Q1381.78 1538.71 1381.78 1531.6 Q1381.78 1524.47 1379.95 1520.93 Q1378.14 1517.37 1374.51 1517.37 M1374.51 1513.66 Q1380.32 1513.66 1383.37 1518.27 Q1386.45 1522.85 1386.45 1531.6 Q1386.45 1540.33 1383.37 1544.94 Q1380.32 1549.52 1374.51 1549.52 Q1368.7 1549.52 1365.62 1544.94 Q1362.56 1540.33 1362.56 1531.6 Q1362.56 1522.85 1365.62 1518.27 Q1368.7 1513.66 1374.51 1513.66 Z" fill="#000000" fill-rule="nonzero" fill-opacity="1" /><path clip-path="url(#clip800)" d="M1515.9 1544.91 L1523.54 1544.91 L1523.54 1518.55 L1515.23 1520.21 L1515.23 1515.95 L1523.5 1514.29 L1528.17 1514.29 L1528.17 1544.91 L1535.81 1544.91 L1535.81 1548.85 L1515.9 1548.85 L1515.9 1544.91 Z" fill="#000000" fill-rule="nonzero" fill-opacity="1" /><path clip-path="url(#clip800)" d="M1555.26 1517.37 Q1551.65 1517.37 1549.82 1520.93 Q1548.01 1524.47 1548.01 1531.6 Q1548.01 1538.71 1549.82 1542.27 Q1551.65 1545.82 1555.26 1545.82 Q1558.89 1545.82 1560.7 1542.27 Q1562.53 1538.71 1562.53 1531.6 Q1562.53 1524.47 1560.7 1520.93 Q1558.89 1517.37 1555.26 1517.37 M1555.26 1513.66 Q1561.07 1513.66 1564.12 1518.27 Q1567.2 1522.85 1567.2 1531.6 Q1567.2 1540.33 1564.12 1544.94 Q1561.07 1549.52 1555.26 1549.52 Q1549.45 1549.52 1546.37 1544.94 Q1543.31 1540.33 1543.31 1531.6 Q1543.31 1522.85 1546.37 1518.27 Q1549.45 1513.66 1555.26 1513.66 Z" fill="#000000" fill-rule="nonzero" fill-opacity="1" /><path clip-path="url(#clip800)" d="M1686.7 1544.91 L1703.02 1544.91 L1703.02 1548.85 L1681.07 1548.85 L1681.07 1544.91 Q1683.74 1542.16 1688.32 1537.53 Q1692.93 1532.88 1694.11 1531.53 Q1696.35 1529.01 1697.23 1527.27 Q1698.13 1525.51 1698.13 1523.82 Q1698.13 1521.07 1696.19 1519.33 Q1694.27 1517.6 1691.17 1517.6 Q1688.97 1517.6 1686.51 1518.36 Q1684.08 1519.13 1681.31 1520.68 L1681.31 1515.95 Q1684.13 1514.82 1686.58 1514.24 Q1689.04 1513.66 1691.07 1513.66 Q1696.44 1513.66 1699.64 1516.35 Q1702.83 1519.03 1702.83 1523.52 Q1702.83 1525.65 1702.02 1527.57 Q1701.24 1529.47 1699.13 1532.07 Q1698.55 1532.74 1695.45 1535.95 Q1692.35 1539.15 1686.7 1544.91 Z" fill="#000000" fill-rule="nonzero" fill-opacity="1" /><path clip-path="url(#clip800)" d="M1722.83 1517.37 Q1719.22 1517.37 1717.39 1520.93 Q1715.59 1524.47 1715.59 1531.6 Q1715.59 1538.71 1717.39 1542.27 Q1719.22 1545.82 1722.83 1545.82 Q1726.47 1545.82 1728.27 1542.27 Q1730.1 1538.71 1730.1 1531.6 Q1730.1 1524.47 1728.27 1520.93 Q1726.47 1517.37 1722.83 1517.37 M1722.83 1513.66 Q1728.64 1513.66 1731.7 1518.27 Q1734.78 1522.85 1734.78 1531.6 Q1734.78 1540.33 1731.7 1544.94 Q1728.64 1549.52 1722.83 1549.52 Q1717.02 1549.52 1713.94 1544.94 Q1710.89 1540.33 1710.89 1531.6 Q1710.89 1522.85 1713.94 1518.27 Q1717.02 1513.66 1722.83 1513.66 Z" fill="#000000" fill-rule="nonzero" fill-opacity="1" /><path clip-path="url(#clip800)" d="M1863.48 1530.21 Q1866.83 1530.93 1868.71 1533.2 Q1870.61 1535.47 1870.61 1538.8 Q1870.61 1543.92 1867.09 1546.72 Q1863.57 1549.52 1857.09 1549.52 Q1854.91 1549.52 1852.6 1549.08 Q1850.31 1548.66 1847.85 1547.81 L1847.85 1543.29 Q1849.8 1544.43 1852.11 1545.01 Q1854.43 1545.58 1856.95 1545.58 Q1861.35 1545.58 1863.64 1543.85 Q1865.95 1542.11 1865.95 1538.8 Q1865.95 1535.75 1863.8 1534.03 Q1861.67 1532.3 1857.85 1532.3 L1853.82 1532.3 L1853.82 1528.45 L1858.04 1528.45 Q1861.49 1528.45 1863.32 1527.09 Q1865.14 1525.7 1865.14 1523.11 Q1865.14 1520.45 1863.25 1519.03 Q1861.37 1517.6 1857.85 1517.6 Q1855.93 1517.6 1853.73 1518.01 Q1851.53 1518.43 1848.89 1519.31 L1848.89 1515.14 Q1851.56 1514.4 1853.87 1514.03 Q1856.21 1513.66 1858.27 1513.66 Q1863.59 1513.66 1866.7 1516.09 Q1869.8 1518.5 1869.8 1522.62 Q1869.8 1525.49 1868.15 1527.48 Q1866.51 1529.45 1863.48 1530.21 Z" fill="#000000" fill-rule="nonzero" fill-opacity="1" /><path clip-path="url(#clip800)" d="M1889.47 1517.37 Q1885.86 1517.37 1884.03 1520.93 Q1882.23 1524.47 1882.23 1531.6 Q1882.23 1538.71 1884.03 1542.27 Q1885.86 1545.82 1889.47 1545.82 Q1893.11 1545.82 1894.91 1542.27 Q1896.74 1538.71 1896.74 1531.6 Q1896.74 1524.47 1894.91 1520.93 Q1893.11 1517.37 1889.47 1517.37 M1889.47 1513.66 Q1895.28 1513.66 1898.34 1518.27 Q1901.42 1522.85 1901.42 1531.6 Q1901.42 1540.33 1898.34 1544.94 Q1895.28 1549.52 1889.47 1549.52 Q1883.66 1549.52 1880.58 1544.94 Q1877.53 1540.33 1877.53 1531.6 Q1877.53 1522.85 1880.58 1518.27 Q1883.66 1513.66 1889.47 1513.66 Z" fill="#000000" fill-rule="nonzero" fill-opacity="1" /><path clip-path="url(#clip800)" d="M2029.52 1518.36 L2017.71 1536.81 L2029.52 1536.81 L2029.52 1518.36 M2028.29 1514.29 L2034.17 1514.29 L2034.17 1536.81 L2039.1 1536.81 L2039.1 1540.7 L2034.17 1540.7 L2034.17 1548.85 L2029.52 1548.85 L2029.52 1540.7 L2013.91 1540.7 L2013.91 1536.19 L2028.29 1514.29 Z" fill="#000000" fill-rule="nonzero" fill-opacity="1" /><path clip-path="url(#clip800)" d="M2056.83 1517.37 Q2053.22 1517.37 2051.39 1520.93 Q2049.58 1524.47 2049.58 1531.6 Q2049.58 1538.71 2051.39 1542.27 Q2053.22 1545.82 2056.83 1545.82 Q2060.46 1545.82 2062.27 1542.27 Q2064.1 1538.71 2064.1 1531.6 Q2064.1 1524.47 2062.27 1520.93 Q2060.46 1517.37 2056.83 1517.37 M2056.83 1513.66 Q2062.64 1513.66 2065.7 1518.27 Q2068.77 1522.85 2068.77 1531.6 Q2068.77 1540.33 2065.7 1544.94 Q2062.64 1549.52 2056.83 1549.52 Q2051.02 1549.52 2047.94 1544.94 Q2044.89 1540.33 2044.89 1531.6 Q2044.89 1522.85 2047.94 1518.27 Q2051.02 1513.66 2056.83 1513.66 Z" fill="#000000" fill-rule="nonzero" fill-opacity="1" /><path clip-path="url(#clip800)" d="M2182.75 1514.29 L2201.11 1514.29 L2201.11 1518.22 L2187.03 1518.22 L2187.03 1526.7 Q2188.05 1526.35 2189.07 1526.19 Q2190.09 1526 2191.11 1526 Q2196.9 1526 2200.27 1529.17 Q2203.65 1532.34 2203.65 1537.76 Q2203.65 1543.34 2200.18 1546.44 Q2196.71 1549.52 2190.39 1549.52 Q2188.21 1549.52 2185.95 1549.15 Q2183.7 1548.78 2181.29 1548.04 L2181.29 1543.34 Q2183.38 1544.47 2185.6 1545.03 Q2187.82 1545.58 2190.3 1545.58 Q2194.3 1545.58 2196.64 1543.48 Q2198.98 1541.37 2198.98 1537.76 Q2198.98 1534.15 2196.64 1532.04 Q2194.3 1529.94 2190.3 1529.94 Q2188.42 1529.94 2186.55 1530.35 Q2184.7 1530.77 2182.75 1531.65 L2182.75 1514.29 Z" fill="#000000" fill-rule="nonzero" fill-opacity="1" /><path clip-path="url(#clip800)" d="M2222.87 1517.37 Q2219.26 1517.37 2217.43 1520.93 Q2215.62 1524.47 2215.62 1531.6 Q2215.62 1538.71 2217.43 1542.27 Q2219.26 1545.82 2222.87 1545.82 Q2226.5 1545.82 2228.31 1542.27 Q2230.14 1538.71 2230.14 1531.6 Q2230.14 1524.47 2228.31 1520.93 Q2226.5 1517.37 2222.87 1517.37 M2222.87 1513.66 Q2228.68 1513.66 2231.73 1518.27 Q2234.81 1522.85 2234.81 1531.6 Q2234.81 1540.33 2231.73 1544.94 Q2228.68 1549.52 2222.87 1549.52 Q2217.06 1549.52 2213.98 1544.94 Q2210.92 1540.33 2210.92 1531.6 Q2210.92 1522.85 2213.98 1518.27 Q2217.06 1513.66 2222.87 1513.66 Z" fill="#000000" fill-rule="nonzero" fill-opacity="1" /><polyline clip-path="url(#clip800)" style="stroke:#000000; stroke-linecap:round; stroke-linejoin:round; stroke-width:4; stroke-opacity:1; fill:none" points="1363.17,1486.45 1363.17,47.2441 "/>
<polyline clip-path="url(#clip800)" style="stroke:#000000; stroke-linecap:round; stroke-linejoin:round; stroke-width:4; stroke-opacity:1; fill:none" points="1363.17,1306.6 1382.07,1306.6 "/>
<polyline clip-path="url(#clip800)" style="stroke:#000000; stroke-linecap:round; stroke-linejoin:round; stroke-width:4; stroke-opacity:1; fill:none" points="1363.17,1096.71 1382.07,1096.71 "/>
<polyline clip-path="url(#clip800)" style="stroke:#000000; stroke-linecap:round; stroke-linejoin:round; stroke-width:4; stroke-opacity:1; fill:none" points="1363.17,886.82 1382.07,886.82 "/>
<polyline clip-path="url(#clip800)" style="stroke:#000000; stroke-linecap:round; stroke-linejoin:round; stroke-width:4; stroke-opacity:1; fill:none" points="1363.17,676.928 1382.07,676.928 "/>
<polyline clip-path="url(#clip800)" style="stroke:#000000; stroke-linecap:round; stroke-linejoin:round; stroke-width:4; stroke-opacity:1; fill:none" points="1363.17,467.036 1382.07,467.036 "/>
<polyline clip-path="url(#clip800)" style="stroke:#000000; stroke-linecap:round; stroke-linejoin:round; stroke-width:4; stroke-opacity:1; fill:none" points="1363.17,257.144 1382.07,257.144 "/>
<polyline clip-path="url(#clip800)" style="stroke:#000000; stroke-linecap:round; stroke-linejoin:round; stroke-width:4; stroke-opacity:1; fill:none" points="1363.17,47.2517 1382.07,47.2517 "/>
<path clip-path="url(#clip800)" d="M1235.3 1307.06 L1264.97 1307.06 L1264.97 1310.99 L1235.3 1310.99 L1235.3 1307.06 Z" fill="#000000" fill-rule="nonzero" fill-opacity="1" /><path clip-path="url(#clip800)" d="M1279.09 1319.95 L1295.41 1319.95 L1295.41 1323.88 L1273.47 1323.88 L1273.47 1319.95 Q1276.13 1317.19 1280.71 1312.56 Q1285.32 1307.91 1286.5 1306.57 Q1288.75 1304.05 1289.63 1302.31 Q1290.53 1300.55 1290.53 1298.86 Q1290.53 1296.11 1288.58 1294.37 Q1286.66 1292.63 1283.56 1292.63 Q1281.36 1292.63 1278.91 1293.4 Q1276.48 1294.16 1273.7 1295.71 L1273.7 1290.99 Q1276.52 1289.86 1278.98 1289.28 Q1281.43 1288.7 1283.47 1288.7 Q1288.84 1288.7 1292.03 1291.38 Q1295.23 1294.07 1295.23 1298.56 Q1295.23 1300.69 1294.42 1302.61 Q1293.63 1304.51 1291.52 1307.1 Q1290.95 1307.77 1287.84 1310.99 Q1284.74 1314.18 1279.09 1319.95 Z" fill="#000000" fill-rule="nonzero" fill-opacity="1" /><path clip-path="url(#clip800)" d="M1315.23 1292.4 Q1311.62 1292.4 1309.79 1295.97 Q1307.98 1299.51 1307.98 1306.64 Q1307.98 1313.75 1309.79 1317.31 Q1311.62 1320.85 1315.23 1320.85 Q1318.86 1320.85 1320.67 1317.31 Q1322.5 1313.75 1322.5 1306.64 Q1322.5 1299.51 1320.67 1295.97 Q1318.86 1292.4 1315.23 1292.4 M1315.23 1288.7 Q1321.04 1288.7 1324.09 1293.31 Q1327.17 1297.89 1327.17 1306.64 Q1327.17 1315.37 1324.09 1319.97 Q1321.04 1324.56 1315.23 1324.56 Q1309.42 1324.56 1306.34 1319.97 Q1303.28 1315.37 1303.28 1306.64 Q1303.28 1297.89 1306.34 1293.31 Q1309.42 1288.7 1315.23 1288.7 Z" fill="#000000" fill-rule="nonzero" fill-opacity="1" /><path clip-path="url(#clip800)" d="M1315.23 1082.51 Q1311.62 1082.51 1309.79 1086.08 Q1307.98 1089.62 1307.98 1096.75 Q1307.98 1103.85 1309.79 1107.42 Q1311.62 1110.96 1315.23 1110.96 Q1318.86 1110.96 1320.67 1107.42 Q1322.5 1103.85 1322.5 1096.75 Q1322.5 1089.62 1320.67 1086.08 Q1318.86 1082.51 1315.23 1082.51 M1315.23 1078.81 Q1321.04 1078.81 1324.09 1083.41 Q1327.17 1088 1327.17 1096.75 Q1327.17 1105.47 1324.09 1110.08 Q1321.04 1114.66 1315.23 1114.66 Q1309.42 1114.66 1306.34 1110.08 Q1303.28 1105.47 1303.28 1096.75 Q1303.28 1088 1306.34 1083.41 Q1309.42 1078.81 1315.23 1078.81 Z" fill="#000000" fill-rule="nonzero" fill-opacity="1" /><path clip-path="url(#clip800)" d="M1279.09 900.165 L1295.41 900.165 L1295.41 904.1 L1273.47 904.1 L1273.47 900.165 Q1276.13 897.41 1280.71 892.781 Q1285.32 888.128 1286.5 886.785 Q1288.75 884.262 1289.63 882.526 Q1290.53 880.767 1290.53 879.077 Q1290.53 876.322 1288.58 874.586 Q1286.66 872.85 1283.56 872.85 Q1281.36 872.85 1278.91 873.614 Q1276.48 874.378 1273.7 875.929 L1273.7 871.207 Q1276.52 870.072 1278.98 869.494 Q1281.43 868.915 1283.47 868.915 Q1288.84 868.915 1292.03 871.6 Q1295.23 874.285 1295.23 878.776 Q1295.23 880.906 1294.42 882.827 Q1293.63 884.725 1291.52 887.318 Q1290.95 887.989 1287.84 891.206 Q1284.74 894.401 1279.09 900.165 Z" fill="#000000" fill-rule="nonzero" fill-opacity="1" /><path clip-path="url(#clip800)" d="M1315.23 872.619 Q1311.62 872.619 1309.79 876.183 Q1307.98 879.725 1307.98 886.855 Q1307.98 893.961 1309.79 897.526 Q1311.62 901.068 1315.23 901.068 Q1318.86 901.068 1320.67 897.526 Q1322.5 893.961 1322.5 886.855 Q1322.5 879.725 1320.67 876.183 Q1318.86 872.619 1315.23 872.619 M1315.23 868.915 Q1321.04 868.915 1324.09 873.521 Q1327.17 878.105 1327.17 886.855 Q1327.17 895.581 1324.09 900.188 Q1321.04 904.771 1315.23 904.771 Q1309.42 904.771 1306.34 900.188 Q1303.28 895.581 1303.28 886.855 Q1303.28 878.105 1306.34 873.521 Q1309.42 868.915 1315.23 868.915 Z" fill="#000000" fill-rule="nonzero" fill-opacity="1" /><path clip-path="url(#clip800)" d="M1287.91 663.722 L1276.11 682.171 L1287.91 682.171 L1287.91 663.722 M1286.69 659.648 L1292.57 659.648 L1292.57 682.171 L1297.5 682.171 L1297.5 686.06 L1292.57 686.06 L1292.57 694.208 L1287.91 694.208 L1287.91 686.06 L1272.31 686.06 L1272.31 681.546 L1286.69 659.648 Z" fill="#000000" fill-rule="nonzero" fill-opacity="1" /><path clip-path="url(#clip800)" d="M1315.23 662.727 Q1311.62 662.727 1309.79 666.291 Q1307.98 669.833 1307.98 676.963 Q1307.98 684.069 1309.79 687.634 Q1311.62 691.175 1315.23 691.175 Q1318.86 691.175 1320.67 687.634 Q1322.5 684.069 1322.5 676.963 Q1322.5 669.833 1320.67 666.291 Q1318.86 662.727 1315.23 662.727 M1315.23 659.023 Q1321.04 659.023 1324.09 663.629 Q1327.17 668.213 1327.17 676.963 Q1327.17 685.689 1324.09 690.296 Q1321.04 694.879 1315.23 694.879 Q1309.42 694.879 1306.34 690.296 Q1303.28 685.689 1303.28 676.963 Q1303.28 668.213 1306.34 663.629 Q1309.42 659.023 1315.23 659.023 Z" fill="#000000" fill-rule="nonzero" fill-opacity="1" /><path clip-path="url(#clip800)" d="M1285.64 465.172 Q1282.5 465.172 1280.64 467.325 Q1278.82 469.478 1278.82 473.228 Q1278.82 476.955 1280.64 479.131 Q1282.5 481.283 1285.64 481.283 Q1288.79 481.283 1290.62 479.131 Q1292.47 476.955 1292.47 473.228 Q1292.47 469.478 1290.62 467.325 Q1288.79 465.172 1285.64 465.172 M1294.93 450.52 L1294.93 454.779 Q1293.17 453.946 1291.36 453.506 Q1289.58 453.066 1287.82 453.066 Q1283.19 453.066 1280.74 456.191 Q1278.31 459.316 1277.96 465.635 Q1279.33 463.621 1281.39 462.557 Q1283.45 461.469 1285.92 461.469 Q1291.13 461.469 1294.14 464.64 Q1297.17 467.788 1297.17 473.228 Q1297.17 478.552 1294.02 481.77 Q1290.88 484.987 1285.64 484.987 Q1279.65 484.987 1276.48 480.404 Q1273.31 475.797 1273.31 467.071 Q1273.31 458.876 1277.2 454.015 Q1281.08 449.131 1287.64 449.131 Q1289.39 449.131 1291.18 449.478 Q1292.98 449.825 1294.93 450.52 Z" fill="#000000" fill-rule="nonzero" fill-opacity="1" /><path clip-path="url(#clip800)" d="M1315.23 452.835 Q1311.62 452.835 1309.79 456.399 Q1307.98 459.941 1307.98 467.071 Q1307.98 474.177 1309.79 477.742 Q1311.62 481.283 1315.23 481.283 Q1318.86 481.283 1320.67 477.742 Q1322.5 474.177 1322.5 467.071 Q1322.5 459.941 1320.67 456.399 Q1318.86 452.835 1315.23 452.835 M1315.23 449.131 Q1321.04 449.131 1324.09 453.737 Q1327.17 458.321 1327.17 467.071 Q1327.17 475.797 1324.09 480.404 Q1321.04 484.987 1315.23 484.987 Q1309.42 484.987 1306.34 480.404 Q1303.28 475.797 1303.28 467.071 Q1303.28 458.321 1306.34 453.737 Q1309.42 449.131 1315.23 449.131 Z" fill="#000000" fill-rule="nonzero" fill-opacity="1" /><path clip-path="url(#clip800)" d="M1285.07 258.012 Q1281.73 258.012 1279.81 259.794 Q1277.91 261.577 1277.91 264.702 Q1277.91 267.827 1279.81 269.609 Q1281.73 271.391 1285.07 271.391 Q1288.4 271.391 1290.32 269.609 Q1292.24 267.803 1292.24 264.702 Q1292.24 261.577 1290.32 259.794 Q1288.42 258.012 1285.07 258.012 M1280.39 256.021 Q1277.38 255.28 1275.69 253.22 Q1274.02 251.16 1274.02 248.197 Q1274.02 244.054 1276.96 241.646 Q1279.93 239.239 1285.07 239.239 Q1290.23 239.239 1293.17 241.646 Q1296.11 244.054 1296.11 248.197 Q1296.11 251.16 1294.42 253.22 Q1292.75 255.28 1289.77 256.021 Q1293.14 256.808 1295.02 259.1 Q1296.92 261.391 1296.92 264.702 Q1296.92 269.725 1293.84 272.41 Q1290.78 275.095 1285.07 275.095 Q1279.35 275.095 1276.27 272.41 Q1273.21 269.725 1273.21 264.702 Q1273.21 261.391 1275.11 259.1 Q1277.01 256.808 1280.39 256.021 M1278.68 248.637 Q1278.68 251.322 1280.34 252.827 Q1282.03 254.331 1285.07 254.331 Q1288.08 254.331 1289.77 252.827 Q1291.48 251.322 1291.48 248.637 Q1291.48 245.952 1289.77 244.447 Q1288.08 242.942 1285.07 242.942 Q1282.03 242.942 1280.34 244.447 Q1278.68 245.952 1278.68 248.637 Z" fill="#000000" fill-rule="nonzero" fill-opacity="1" /><path clip-path="url(#clip800)" d="M1315.23 242.942 Q1311.62 242.942 1309.79 246.507 Q1307.98 250.049 1307.98 257.179 Q1307.98 264.285 1309.79 267.85 Q1311.62 271.391 1315.23 271.391 Q1318.86 271.391 1320.67 267.85 Q1322.5 264.285 1322.5 257.179 Q1322.5 250.049 1320.67 246.507 Q1318.86 242.942 1315.23 242.942 M1315.23 239.239 Q1321.04 239.239 1324.09 243.845 Q1327.17 248.429 1327.17 257.179 Q1327.17 265.905 1324.09 270.512 Q1321.04 275.095 1315.23 275.095 Q1309.42 275.095 1306.34 270.512 Q1303.28 265.905 1303.28 257.179 Q1303.28 248.429 1306.34 243.845 Q1309.42 239.239 1315.23 239.239 Z" fill="#000000" fill-rule="nonzero" fill-opacity="1" /><path clip-path="url(#clip800)" d="M1245.71 60.5966 L1253.35 60.5966 L1253.35 34.231 L1245.04 35.8976 L1245.04 31.6384 L1253.31 29.9717 L1257.98 29.9717 L1257.98 60.5966 L1265.62 60.5966 L1265.62 64.5317 L1245.71 64.5317 L1245.71 60.5966 Z" fill="#000000" fill-rule="nonzero" fill-opacity="1" /><path clip-path="url(#clip800)" d="M1285.07 33.0504 Q1281.45 33.0504 1279.63 36.6152 Q1277.82 40.1569 1277.82 47.2865 Q1277.82 54.3929 1279.63 57.9577 Q1281.45 61.4993 1285.07 61.4993 Q1288.7 61.4993 1290.51 57.9577 Q1292.33 54.3929 1292.33 47.2865 Q1292.33 40.1569 1290.51 36.6152 Q1288.7 33.0504 1285.07 33.0504 M1285.07 29.3467 Q1290.88 29.3467 1293.93 33.9532 Q1297.01 38.5365 1297.01 47.2865 Q1297.01 56.0133 1293.93 60.6197 Q1290.88 65.203 1285.07 65.203 Q1279.26 65.203 1276.18 60.6197 Q1273.12 56.0133 1273.12 47.2865 Q1273.12 38.5365 1276.18 33.9532 Q1279.26 29.3467 1285.07 29.3467 Z" fill="#000000" fill-rule="nonzero" fill-opacity="1" /><path clip-path="url(#clip800)" d="M1315.23 33.0504 Q1311.62 33.0504 1309.79 36.6152 Q1307.98 40.1569 1307.98 47.2865 Q1307.98 54.3929 1309.79 57.9577 Q1311.62 61.4993 1315.23 61.4993 Q1318.86 61.4993 1320.67 57.9577 Q1322.5 54.3929 1322.5 47.2865 Q1322.5 40.1569 1320.67 36.6152 Q1318.86 33.0504 1315.23 33.0504 M1315.23 29.3467 Q1321.04 29.3467 1324.09 33.9532 Q1327.17 38.5365 1327.17 47.2865 Q1327.17 56.0133 1324.09 60.6197 Q1321.04 65.203 1315.23 65.203 Q1309.42 65.203 1306.34 60.6197 Q1303.28 56.0133 1303.28 47.2865 Q1303.28 38.5365 1306.34 33.9532 Q1309.42 29.3467 1315.23 29.3467 Z" fill="#000000" fill-rule="nonzero" fill-opacity="1" /><polyline clip-path="url(#clip803)" style="stroke:#009af9; stroke-linecap:round; stroke-linejoin:round; stroke-width:4; stroke-opacity:1; fill:none" points="1391.18,538.374 1407.85,87.9763 1424.52,966.518 1441.19,806.378 1457.86,1163.93 1474.53,1251.19 1491.2,1297.76 1507.88,1329.65 1524.55,1348.3 1541.22,1361.23 1557.89,1370.54 1574.56,1377.24 1591.23,1382.25 1607.9,1386.33 1624.57,1390.06 1641.24,1393.59 1657.91,1396.92 1674.58,1399.96 1691.26,1402.72 1707.93,1405.32 1724.6,1407.97 1741.27,1410.84 1757.94,1414.03 1774.61,1417.53 1791.28,1421.33 1807.95,1425.45 1824.62,1429.78 1841.29,1433.9 1857.96,1437.38 1874.63,1440.05 1891.31,1441.97 1907.98,1443.31 1924.65,1444.2 1941.32,1444.78 1957.99,1445.14 1974.66,1445.37 1991.33,1445.5 2008,1445.59 2024.67,1445.64 2041.34,1445.67 2058.01,1445.69 2074.69,1445.7 2091.36,1445.71 2108.03,1445.71 2124.7,1445.71 2141.37,1445.71 2158.04,1445.71 2174.71,1445.71 2191.38,1445.72 2208.05,1445.72 2224.72,1445.72 2241.39,1445.72 2258.07,1445.72 2274.74,1445.72 2291.41,1445.72 2308.08,1445.72 2324.75,1445.72 "/>
<path clip-path="url(#clip800)" d="M2085.4 198.898 L2319.77 198.898 L2319.77 95.2176 L2085.4 95.2176  Z" fill="#ffffff" fill-rule="evenodd" fill-opacity="1"/>
<polyline clip-path="url(#clip800)" style="stroke:#000000; stroke-linecap:round; stroke-linejoin:round; stroke-width:4; stroke-opacity:1; fill:none" points="2085.4,198.898 2319.77,198.898 2319.77,95.2176 2085.4,95.2176 2085.4,198.898 "/>
<polyline clip-path="url(#clip800)" style="stroke:#009af9; stroke-linecap:round; stroke-linejoin:round; stroke-width:4; stroke-opacity:1; fill:none" points="2096.39,147.058 2162.36,147.058 "/>
<path clip-path="url(#clip800)" d="M2191.78 139.176 L2191.78 143.203 Q2189.98 142.277 2188.03 141.815 Q2186.09 141.352 2184.01 141.352 Q2180.84 141.352 2179.24 142.324 Q2177.66 143.296 2177.66 145.24 Q2177.66 146.722 2178.8 147.578 Q2179.93 148.412 2183.36 149.176 L2184.82 149.5 Q2189.35 150.472 2191.25 152.254 Q2193.17 154.014 2193.17 157.185 Q2193.17 160.796 2190.3 162.902 Q2187.46 165.009 2182.46 165.009 Q2180.37 165.009 2178.1 164.592 Q2175.86 164.199 2173.36 163.388 L2173.36 158.99 Q2175.72 160.217 2178.01 160.842 Q2180.3 161.444 2182.55 161.444 Q2185.56 161.444 2187.18 160.426 Q2188.8 159.384 2188.8 157.509 Q2188.8 155.773 2187.62 154.847 Q2186.46 153.921 2182.5 153.064 L2181.02 152.717 Q2177.06 151.884 2175.3 150.171 Q2173.54 148.435 2173.54 145.426 Q2173.54 141.768 2176.14 139.778 Q2178.73 137.787 2183.5 137.787 Q2185.86 137.787 2187.94 138.134 Q2190.03 138.481 2191.78 139.176 Z" fill="#000000" fill-rule="nonzero" fill-opacity="1" /><path clip-path="url(#clip800)" d="M2204.17 131.051 L2204.17 138.412 L2212.94 138.412 L2212.94 141.722 L2204.17 141.722 L2204.17 155.796 Q2204.17 158.967 2205.02 159.87 Q2205.9 160.773 2208.57 160.773 L2212.94 160.773 L2212.94 164.338 L2208.57 164.338 Q2203.64 164.338 2201.76 162.509 Q2199.89 160.657 2199.89 155.796 L2199.89 141.722 L2196.76 141.722 L2196.76 138.412 L2199.89 138.412 L2199.89 131.051 L2204.17 131.051 Z" fill="#000000" fill-rule="nonzero" fill-opacity="1" /><path clip-path="url(#clip800)" d="M2233.57 142.393 Q2232.85 141.977 2231.99 141.791 Q2231.16 141.583 2230.14 141.583 Q2226.53 141.583 2224.59 143.944 Q2222.66 146.282 2222.66 150.68 L2222.66 164.338 L2218.38 164.338 L2218.38 138.412 L2222.66 138.412 L2222.66 142.44 Q2224.01 140.078 2226.16 138.944 Q2228.31 137.787 2231.39 137.787 Q2231.83 137.787 2232.36 137.856 Q2232.9 137.903 2233.54 138.018 L2233.57 142.393 Z" fill="#000000" fill-rule="nonzero" fill-opacity="1" /><path clip-path="url(#clip800)" d="M2259.17 150.31 L2259.17 152.393 L2239.58 152.393 Q2239.86 156.791 2242.22 159.106 Q2244.61 161.398 2248.84 161.398 Q2251.3 161.398 2253.59 160.796 Q2255.9 160.194 2258.17 158.99 L2258.17 163.018 Q2255.88 163.99 2253.47 164.5 Q2251.07 165.009 2248.59 165.009 Q2242.39 165.009 2238.75 161.398 Q2235.14 157.787 2235.14 151.629 Q2235.14 145.264 2238.57 141.537 Q2242.02 137.787 2247.85 137.787 Q2253.08 137.787 2256.11 141.166 Q2259.17 144.523 2259.17 150.31 M2254.91 149.06 Q2254.86 145.565 2252.94 143.481 Q2251.04 141.398 2247.9 141.398 Q2244.33 141.398 2242.18 143.412 Q2240.05 145.426 2239.72 149.083 L2254.91 149.06 Z" fill="#000000" fill-rule="nonzero" fill-opacity="1" /><path clip-path="url(#clip800)" d="M2282.69 139.176 L2282.69 143.203 Q2280.88 142.277 2278.94 141.815 Q2276.99 141.352 2274.91 141.352 Q2271.74 141.352 2270.14 142.324 Q2268.57 143.296 2268.57 145.24 Q2268.57 146.722 2269.7 147.578 Q2270.83 148.412 2274.26 149.176 L2275.72 149.5 Q2280.26 150.472 2282.15 152.254 Q2284.08 154.014 2284.08 157.185 Q2284.08 160.796 2281.21 162.902 Q2278.36 165.009 2273.36 165.009 Q2271.27 165.009 2269.01 164.592 Q2266.76 164.199 2264.26 163.388 L2264.26 158.99 Q2266.62 160.217 2268.91 160.842 Q2271.21 161.444 2273.45 161.444 Q2276.46 161.444 2278.08 160.426 Q2279.7 159.384 2279.7 157.509 Q2279.7 155.773 2278.52 154.847 Q2277.36 153.921 2273.4 153.064 L2271.92 152.717 Q2267.96 151.884 2266.21 150.171 Q2264.45 148.435 2264.45 145.426 Q2264.45 141.768 2267.04 139.778 Q2269.63 137.787 2274.4 137.787 Q2276.76 137.787 2278.84 138.134 Q2280.93 138.481 2282.69 139.176 Z" fill="#000000" fill-rule="nonzero" fill-opacity="1" /><path clip-path="url(#clip800)" d="M2307.39 139.176 L2307.39 143.203 Q2305.58 142.277 2303.64 141.815 Q2301.69 141.352 2299.61 141.352 Q2296.44 141.352 2294.84 142.324 Q2293.27 143.296 2293.27 145.24 Q2293.27 146.722 2294.4 147.578 Q2295.53 148.412 2298.96 149.176 L2300.42 149.5 Q2304.95 150.472 2306.85 152.254 Q2308.77 154.014 2308.77 157.185 Q2308.77 160.796 2305.9 162.902 Q2303.06 165.009 2298.06 165.009 Q2295.97 165.009 2293.71 164.592 Q2291.46 164.199 2288.96 163.388 L2288.96 158.99 Q2291.32 160.217 2293.61 160.842 Q2295.9 161.444 2298.15 161.444 Q2301.16 161.444 2302.78 160.426 Q2304.4 159.384 2304.4 157.509 Q2304.4 155.773 2303.22 154.847 Q2302.06 153.921 2298.1 153.064 L2296.62 152.717 Q2292.66 151.884 2290.9 150.171 Q2289.14 148.435 2289.14 145.426 Q2289.14 141.768 2291.74 139.778 Q2294.33 137.787 2299.1 137.787 Q2301.46 137.787 2303.54 138.134 Q2305.63 138.481 2307.39 139.176 Z" fill="#000000" fill-rule="nonzero" fill-opacity="1" /></svg>
