<?xml version="1.0" encoding="utf-8"?>
<svg xmlns="http://www.w3.org/2000/svg" xmlns:xlink="http://www.w3.org/1999/xlink" width="600" height="400" viewBox="0 0 2400 1600">
<defs>
  <clipPath id="clip770">
    <rect x="0" y="0" width="2400" height="1600"/>
  </clipPath>
</defs>
<path clip-path="url(#clip770)" d="M0 1600 L2400 1600 L2400 0 L0 0  Z" fill="#ffffff" fill-rule="evenodd" fill-opacity="1"/>
<defs>
  <clipPath id="clip771">
    <rect x="1363" y="47" width="991" height="1440"/>
  </clipPath>
</defs>
<path clip-path="url(#clip770)" d="M186.274 1486.45 L1069.62 1486.45 L1069.62 47.2441 L186.274 47.2441  Z" fill="#ffffff" fill-rule="evenodd" fill-opacity="1"/>
<defs>
  <clipPath id="clip772">
    <rect x="186" y="47" width="884" height="1440"/>
  </clipPath>
</defs>
<polyline clip-path="url(#clip772)" style="stroke:#000000; stroke-linecap:round; stroke-linejoin:round; stroke-width:2; stroke-opacity:0.1; fill:none" points="211.274,1486.45 211.274,47.2441 "/>
<polyline clip-path="url(#clip772)" style="stroke:#000000; stroke-linecap:round; stroke-linejoin:round; stroke-width:2; stroke-opacity:0.1; fill:none" points="419.61,1486.45 419.61,47.2441 "/>
<polyline clip-path="url(#clip772)" style="stroke:#000000; stroke-linecap:round; stroke-linejoin:round; stroke-width:2; stroke-opacity:0.1; fill:none" points="627.945,1486.45 627.945,47.2441 "/>
<polyline clip-path="url(#clip772)" style="stroke:#000000; stroke-linecap:round; stroke-linejoin:round; stroke-width:2; stroke-opacity:0.1; fill:none" points="836.281,1486.45 836.281,47.2441 "/>
<polyline clip-path="url(#clip772)" style="stroke:#000000; stroke-linecap:round; stroke-linejoin:round; stroke-width:2; stroke-opacity:0.1; fill:none" points="1044.62,1486.45 1044.62,47.2441 "/>
<polyline clip-path="url(#clip772)" style="stroke:#000000; stroke-linecap:round; stroke-linejoin:round; stroke-width:2; stroke-opacity:0.1; fill:none" points="186.274,1350.19 1069.62,1350.19 "/>
<polyline clip-path="url(#clip772)" style="stroke:#000000; stroke-linecap:round; stroke-linejoin:round; stroke-width:2; stroke-opacity:0.1; fill:none" points="186.274,1183.52 1069.62,1183.52 "/>
<polyline clip-path="url(#clip772)" style="stroke:#000000; stroke-linecap:round; stroke-linejoin:round; stroke-width:2; stroke-opacity:0.1; fill:none" points="186.274,1016.85 1069.62,1016.85 "/>
<polyline clip-path="url(#clip772)" style="stroke:#000000; stroke-linecap:round; stroke-linejoin:round; stroke-width:2; stroke-opacity:0.1; fill:none" points="186.274,850.18 1069.62,850.18 "/>
<polyline clip-path="url(#clip772)" style="stroke:#000000; stroke-linecap:round; stroke-linejoin:round; stroke-width:2; stroke-opacity:0.1; fill:none" points="186.274,683.512 1069.62,683.512 "/>
<polyline clip-path="url(#clip772)" style="stroke:#000000; stroke-linecap:round; stroke-linejoin:round; stroke-width:2; stroke-opacity:0.1; fill:none" points="186.274,516.843 1069.62,516.843 "/>
<polyline clip-path="url(#clip772)" style="stroke:#000000; stroke-linecap:round; stroke-linejoin:round; stroke-width:2; stroke-opacity:0.1; fill:none" points="186.274,350.175 1069.62,350.175 "/>
<polyline clip-path="url(#clip772)" style="stroke:#000000; stroke-linecap:round; stroke-linejoin:round; stroke-width:2; stroke-opacity:0.1; fill:none" points="186.274,183.506 1069.62,183.506 "/>
<polyline clip-path="url(#clip770)" style="stroke:#000000; stroke-linecap:round; stroke-linejoin:round; stroke-width:4; stroke-opacity:1; fill:none" points="186.274,1486.45 1069.62,1486.45 "/>
<polyline clip-path="url(#clip770)" style="stroke:#000000; stroke-linecap:round; stroke-linejoin:round; stroke-width:4; stroke-opacity:1; fill:none" points="211.274,1486.45 211.274,1467.55 "/>
<polyline clip-path="url(#clip770)" style="stroke:#000000; stroke-linecap:round; stroke-linejoin:round; stroke-width:4; stroke-opacity:1; fill:none" points="419.61,1486.45 419.61,1467.55 "/>
<polyline clip-path="url(#clip770)" style="stroke:#000000; stroke-linecap:round; stroke-linejoin:round; stroke-width:4; stroke-opacity:1; fill:none" points="627.945,1486.45 627.945,1467.55 "/>
<polyline clip-path="url(#clip770)" style="stroke:#000000; stroke-linecap:round; stroke-linejoin:round; stroke-width:4; stroke-opacity:1; fill:none" points="836.281,1486.45 836.281,1467.55 "/>
<polyline clip-path="url(#clip770)" style="stroke:#000000; stroke-linecap:round; stroke-linejoin:round; stroke-width:4; stroke-opacity:1; fill:none" points="1044.62,1486.45 1044.62,1467.55 "/>
<path clip-path="url(#clip770)" d="M173.578 1517.37 Q169.967 1517.37 168.138 1520.93 Q166.332 1524.47 166.332 1531.6 Q166.332 1538.71 168.138 1542.27 Q169.967 1545.82 173.578 1545.82 Q177.212 1545.82 179.018 1542.27 Q180.846 1538.71 180.846 1531.6 Q180.846 1524.47 179.018 1520.93 Q177.212 1517.37 173.578 1517.37 M173.578 1513.66 Q179.388 1513.66 182.443 1518.27 Q185.522 1522.85 185.522 1531.6 Q185.522 1540.33 182.443 1544.94 Q179.388 1549.52 173.578 1549.52 Q167.768 1549.52 164.689 1544.94 Q161.633 1540.33 161.633 1531.6 Q161.633 1522.85 164.689 1518.27 Q167.768 1513.66 173.578 1513.66 Z" fill="#000000" fill-rule="nonzero" fill-opacity="1" /><path clip-path="url(#clip770)" d="M193.74 1542.97 L198.624 1542.97 L198.624 1548.85 L193.74 1548.85 L193.74 1542.97 Z" fill="#000000" fill-rule="nonzero" fill-opacity="1" /><path clip-path="url(#clip770)" d="M218.809 1517.37 Q215.198 1517.37 213.369 1520.93 Q211.564 1524.47 211.564 1531.6 Q211.564 1538.71 213.369 1542.27 Q215.198 1545.82 218.809 1545.82 Q222.443 1545.82 224.249 1542.27 Q226.077 1538.71 226.077 1531.6 Q226.077 1524.47 224.249 1520.93 Q222.443 1517.37 218.809 1517.37 M218.809 1513.66 Q224.619 1513.66 227.675 1518.27 Q230.753 1522.85 230.753 1531.6 Q230.753 1540.33 227.675 1544.94 Q224.619 1549.52 218.809 1549.52 Q212.999 1549.52 209.92 1544.94 Q206.865 1540.33 206.865 1531.6 Q206.865 1522.85 209.92 1518.27 Q212.999 1513.66 218.809 1513.66 Z" fill="#000000" fill-rule="nonzero" fill-opacity="1" /><path clip-path="url(#clip770)" d="M248.971 1517.37 Q245.36 1517.37 243.531 1520.93 Q241.725 1524.47 241.725 1531.6 Q241.725 1538.71 243.531 1542.27 Q245.36 1545.82 248.971 1545.82 Q252.605 1545.82 254.411 1542.27 Q256.239 1538.71 256.239 1531.6 Q256.239 1524.47 254.411 1520.93 Q252.605 1517.37 248.971 1517.37 M248.971 1513.66 Q254.781 1513.66 257.837 1518.27 Q260.915 1522.85 260.915 1531.6 Q260.915 1540.33 257.837 1544.94 Q254.781 1549.52 248.971 1549.52 Q243.161 1549.52 240.082 1544.94 Q237.026 1540.33 237.026 1531.6 Q237.026 1522.85 240.082 1518.27 Q243.161 1513.66 248.971 1513.66 Z" fill="#000000" fill-rule="nonzero" fill-opacity="1" /><path clip-path="url(#clip770)" d="M382.411 1517.37 Q378.8 1517.37 376.971 1520.93 Q375.166 1524.47 375.166 1531.6 Q375.166 1538.71 376.971 1542.27 Q378.8 1545.82 382.411 1545.82 Q386.045 1545.82 387.851 1542.27 Q389.679 1538.71 389.679 1531.6 Q389.679 1524.47 387.851 1520.93 Q386.045 1517.37 382.411 1517.37 M382.411 1513.66 Q388.221 1513.66 391.277 1518.27 Q394.355 1522.85 394.355 1531.6 Q394.355 1540.33 391.277 1544.94 Q388.221 1549.52 382.411 1549.52 Q376.601 1549.52 373.522 1544.94 Q370.467 1540.33 370.467 1531.6 Q370.467 1522.85 373.522 1518.27 Q376.601 1513.66 382.411 1513.66 Z" fill="#000000" fill-rule="nonzero" fill-opacity="1" /><path clip-path="url(#clip770)" d="M402.573 1542.97 L407.457 1542.97 L407.457 1548.85 L402.573 1548.85 L402.573 1542.97 Z" fill="#000000" fill-rule="nonzero" fill-opacity="1" /><path clip-path="url(#clip770)" d="M421.67 1544.91 L437.989 1544.91 L437.989 1548.85 L416.045 1548.85 L416.045 1544.91 Q418.707 1542.16 423.29 1537.53 Q427.897 1532.88 429.077 1531.53 Q431.323 1529.01 432.202 1527.27 Q433.105 1525.51 433.105 1523.82 Q433.105 1521.07 431.161 1519.33 Q429.239 1517.6 426.138 1517.6 Q423.939 1517.6 421.485 1518.36 Q419.054 1519.13 416.277 1520.68 L416.277 1515.95 Q419.101 1514.82 421.554 1514.24 Q424.008 1513.66 426.045 1513.66 Q431.415 1513.66 434.61 1516.35 Q437.804 1519.03 437.804 1523.52 Q437.804 1525.65 436.994 1527.57 Q436.207 1529.47 434.101 1532.07 Q433.522 1532.74 430.42 1535.95 Q427.318 1539.15 421.67 1544.91 Z" fill="#000000" fill-rule="nonzero" fill-opacity="1" /><path clip-path="url(#clip770)" d="M447.85 1514.29 L466.207 1514.29 L466.207 1518.22 L452.133 1518.22 L452.133 1526.7 Q453.151 1526.35 454.17 1526.19 Q455.188 1526 456.207 1526 Q461.994 1526 465.374 1529.17 Q468.753 1532.34 468.753 1537.76 Q468.753 1543.34 465.281 1546.44 Q461.809 1549.52 455.489 1549.52 Q453.313 1549.52 451.045 1549.15 Q448.8 1548.78 446.392 1548.04 L446.392 1543.34 Q448.475 1544.47 450.698 1545.03 Q452.92 1545.58 455.397 1545.58 Q459.401 1545.58 461.739 1543.48 Q464.077 1541.37 464.077 1537.76 Q464.077 1534.15 461.739 1532.04 Q459.401 1529.94 455.397 1529.94 Q453.522 1529.94 451.647 1530.35 Q449.795 1530.77 447.85 1531.65 L447.85 1514.29 Z" fill="#000000" fill-rule="nonzero" fill-opacity="1" /><path clip-path="url(#clip770)" d="M590.249 1517.37 Q586.638 1517.37 584.809 1520.93 Q583.004 1524.47 583.004 1531.6 Q583.004 1538.71 584.809 1542.27 Q586.638 1545.82 590.249 1545.82 Q593.883 1545.82 595.689 1542.27 Q597.517 1538.71 597.517 1531.6 Q597.517 1524.47 595.689 1520.93 Q593.883 1517.37 590.249 1517.37 M590.249 1513.66 Q596.059 1513.66 599.115 1518.27 Q602.193 1522.85 602.193 1531.6 Q602.193 1540.33 599.115 1544.94 Q596.059 1549.52 590.249 1549.52 Q584.439 1549.52 581.36 1544.94 Q578.305 1540.33 578.305 1531.6 Q578.305 1522.85 581.36 1518.27 Q584.439 1513.66 590.249 1513.66 Z" fill="#000000" fill-rule="nonzero" fill-opacity="1" /><path clip-path="url(#clip770)" d="M610.411 1542.97 L615.295 1542.97 L615.295 1548.85 L610.411 1548.85 L610.411 1542.97 Z" fill="#000000" fill-rule="nonzero" fill-opacity="1" /><path clip-path="url(#clip770)" d="M625.526 1514.29 L643.883 1514.29 L643.883 1518.22 L629.809 1518.22 L629.809 1526.7 Q630.827 1526.35 631.846 1526.19 Q632.864 1526 633.883 1526 Q639.67 1526 643.05 1529.17 Q646.429 1532.34 646.429 1537.76 Q646.429 1543.34 642.957 1546.44 Q639.485 1549.52 633.165 1549.52 Q630.989 1549.52 628.721 1549.15 Q626.476 1548.78 624.068 1548.04 L624.068 1543.34 Q626.151 1544.47 628.374 1545.03 Q630.596 1545.58 633.073 1545.58 Q637.077 1545.58 639.415 1543.48 Q641.753 1541.37 641.753 1537.76 Q641.753 1534.15 639.415 1532.04 Q637.077 1529.94 633.073 1529.94 Q631.198 1529.94 629.323 1530.35 Q627.471 1530.77 625.526 1531.65 L625.526 1514.29 Z" fill="#000000" fill-rule="nonzero" fill-opacity="1" /><path clip-path="url(#clip770)" d="M665.642 1517.37 Q662.031 1517.37 660.202 1520.93 Q658.397 1524.47 658.397 1531.6 Q658.397 1538.71 660.202 1542.27 Q662.031 1545.82 665.642 1545.82 Q669.276 1545.82 671.082 1542.27 Q672.91 1538.71 672.91 1531.6 Q672.91 1524.47 671.082 1520.93 Q669.276 1517.37 665.642 1517.37 M665.642 1513.66 Q671.452 1513.66 674.508 1518.27 Q677.586 1522.85 677.586 1531.6 Q677.586 1540.33 674.508 1544.94 Q671.452 1549.52 665.642 1549.52 Q659.832 1549.52 656.753 1544.94 Q653.698 1540.33 653.698 1531.6 Q653.698 1522.85 656.753 1518.27 Q659.832 1513.66 665.642 1513.66 Z" fill="#000000" fill-rule="nonzero" fill-opacity="1" /><path clip-path="url(#clip770)" d="M799.082 1517.37 Q795.471 1517.37 793.642 1520.93 Q791.837 1524.47 791.837 1531.6 Q791.837 1538.71 793.642 1542.27 Q795.471 1545.82 799.082 1545.82 Q802.716 1545.82 804.522 1542.27 Q806.351 1538.71 806.351 1531.6 Q806.351 1524.47 804.522 1520.93 Q802.716 1517.37 799.082 1517.37 M799.082 1513.66 Q804.892 1513.66 807.948 1518.27 Q811.027 1522.85 811.027 1531.6 Q811.027 1540.33 807.948 1544.94 Q804.892 1549.52 799.082 1549.52 Q793.272 1549.52 790.193 1544.94 Q787.138 1540.33 787.138 1531.6 Q787.138 1522.85 790.193 1518.27 Q793.272 1513.66 799.082 1513.66 Z" fill="#000000" fill-rule="nonzero" fill-opacity="1" /><path clip-path="url(#clip770)" d="M819.244 1542.97 L824.128 1542.97 L824.128 1548.85 L819.244 1548.85 L819.244 1542.97 Z" fill="#000000" fill-rule="nonzero" fill-opacity="1" /><path clip-path="url(#clip770)" d="M833.133 1514.29 L855.355 1514.29 L855.355 1516.28 L842.809 1548.85 L837.925 1548.85 L849.73 1518.22 L833.133 1518.22 L833.133 1514.29 Z" fill="#000000" fill-rule="nonzero" fill-opacity="1" /><path clip-path="url(#clip770)" d="M864.522 1514.29 L882.878 1514.29 L882.878 1518.22 L868.804 1518.22 L868.804 1526.7 Q869.823 1526.35 870.841 1526.19 Q871.86 1526 872.878 1526 Q878.665 1526 882.045 1529.17 Q885.424 1532.34 885.424 1537.76 Q885.424 1543.34 881.952 1546.44 Q878.48 1549.52 872.16 1549.52 Q869.985 1549.52 867.716 1549.15 Q865.471 1548.78 863.063 1548.04 L863.063 1543.34 Q865.147 1544.47 867.369 1545.03 Q869.591 1545.58 872.068 1545.58 Q876.072 1545.58 878.41 1543.48 Q880.748 1541.37 880.748 1537.76 Q880.748 1534.15 878.41 1532.04 Q876.072 1529.94 872.068 1529.94 Q870.193 1529.94 868.318 1530.35 Q866.466 1530.77 864.522 1531.65 L864.522 1514.29 Z" fill="#000000" fill-rule="nonzero" fill-opacity="1" /><path clip-path="url(#clip770)" d="M996.689 1544.91 L1004.33 1544.91 L1004.33 1518.55 L996.017 1520.21 L996.017 1515.95 L1004.28 1514.29 L1008.96 1514.29 L1008.96 1544.91 L1016.6 1544.91 L1016.6 1548.85 L996.689 1548.85 L996.689 1544.91 Z" fill="#000000" fill-rule="nonzero" fill-opacity="1" /><path clip-path="url(#clip770)" d="M1026.04 1542.97 L1030.92 1542.97 L1030.92 1548.85 L1026.04 1548.85 L1026.04 1542.97 Z" fill="#000000" fill-rule="nonzero" fill-opacity="1" /><path clip-path="url(#clip770)" d="M1051.11 1517.37 Q1047.5 1517.37 1045.67 1520.93 Q1043.86 1524.47 1043.86 1531.6 Q1043.86 1538.71 1045.67 1542.27 Q1047.5 1545.82 1051.11 1545.82 Q1054.74 1545.82 1056.55 1542.27 Q1058.38 1538.71 1058.38 1531.6 Q1058.38 1524.47 1056.55 1520.93 Q1054.74 1517.37 1051.11 1517.37 M1051.11 1513.66 Q1056.92 1513.66 1059.98 1518.27 Q1063.05 1522.85 1063.05 1531.6 Q1063.05 1540.33 1059.98 1544.94 Q1056.92 1549.52 1051.11 1549.52 Q1045.3 1549.52 1042.22 1544.94 Q1039.17 1540.33 1039.17 1531.6 Q1039.17 1522.85 1042.22 1518.27 Q1045.3 1513.66 1051.11 1513.66 Z" fill="#000000" fill-rule="nonzero" fill-opacity="1" /><path clip-path="url(#clip770)" d="M1081.27 1517.37 Q1077.66 1517.37 1075.83 1520.93 Q1074.03 1524.47 1074.03 1531.6 Q1074.03 1538.71 1075.83 1542.27 Q1077.66 1545.82 1081.27 1545.82 Q1084.91 1545.82 1086.71 1542.27 Q1088.54 1538.71 1088.54 1531.6 Q1088.54 1524.47 1086.71 1520.93 Q1084.91 1517.37 1081.27 1517.37 M1081.27 1513.66 Q1087.08 1513.66 1090.14 1518.27 Q1093.22 1522.85 1093.22 1531.6 Q1093.22 1540.33 1090.14 1544.94 Q1087.08 1549.52 1081.27 1549.52 Q1075.46 1549.52 1072.38 1544.94 Q1069.33 1540.33 1069.33 1531.6 Q1069.33 1522.85 1072.38 1518.27 Q1075.46 1513.66 1081.27 1513.66 Z" fill="#000000" fill-rule="nonzero" fill-opacity="1" /><polyline clip-path="url(#clip770)" style="stroke:#000000; stroke-linecap:round; stroke-linejoin:round; stroke-width:4; stroke-opacity:1; fill:none" points="186.274,1486.45 186.274,47.2441 "/>
<polyline clip-path="url(#clip770)" style="stroke:#000000; stroke-linecap:round; stroke-linejoin:round; stroke-width:4; stroke-opacity:1; fill:none" points="186.274,1350.19 205.172,1350.19 "/>
<polyline clip-path="url(#clip770)" style="stroke:#000000; stroke-linecap:round; stroke-linejoin:round; stroke-width:4; stroke-opacity:1; fill:none" points="186.274,1183.52 205.172,1183.52 "/>
<polyline clip-path="url(#clip770)" style="stroke:#000000; stroke-linecap:round; stroke-linejoin:round; stroke-width:4; stroke-opacity:1; fill:none" points="186.274,1016.85 205.172,1016.85 "/>
<polyline clip-path="url(#clip770)" style="stroke:#000000; stroke-linecap:round; stroke-linejoin:round; stroke-width:4; stroke-opacity:1; fill:none" points="186.274,850.18 205.172,850.18 "/>
<polyline clip-path="url(#clip770)" style="stroke:#000000; stroke-linecap:round; stroke-linejoin:round; stroke-width:4; stroke-opacity:1; fill:none" points="186.274,683.512 205.172,683.512 "/>
<polyline clip-path="url(#clip770)" style="stroke:#000000; stroke-linecap:round; stroke-linejoin:round; stroke-width:4; stroke-opacity:1; fill:none" points="186.274,516.843 205.172,516.843 "/>
<polyline clip-path="url(#clip770)" style="stroke:#000000; stroke-linecap:round; stroke-linejoin:round; stroke-width:4; stroke-opacity:1; fill:none" points="186.274,350.175 205.172,350.175 "/>
<polyline clip-path="url(#clip770)" style="stroke:#000000; stroke-linecap:round; stroke-linejoin:round; stroke-width:4; stroke-opacity:1; fill:none" points="186.274,183.506 205.172,183.506 "/>
<path clip-path="url(#clip770)" d="M44.9273 1350.64 L74.6031 1350.64 L74.6031 1354.57 L44.9273 1354.57 L44.9273 1350.64 Z" fill="#000000" fill-rule="nonzero" fill-opacity="1" /><path clip-path="url(#clip770)" d="M94.6956 1335.98 Q91.0845 1335.98 89.2558 1339.55 Q87.4503 1343.09 87.4503 1350.22 Q87.4503 1357.33 89.2558 1360.89 Q91.0845 1364.43 94.6956 1364.43 Q98.3298 1364.43 100.135 1360.89 Q101.964 1357.33 101.964 1350.22 Q101.964 1343.09 100.135 1339.55 Q98.3298 1335.98 94.6956 1335.98 M94.6956 1332.28 Q100.506 1332.28 103.561 1336.89 Q106.64 1341.47 106.64 1350.22 Q106.64 1358.95 103.561 1363.55 Q100.506 1368.14 94.6956 1368.14 Q88.8854 1368.14 85.8068 1363.55 Q82.7512 1358.95 82.7512 1350.22 Q82.7512 1341.47 85.8068 1336.89 Q88.8854 1332.28 94.6956 1332.28 Z" fill="#000000" fill-rule="nonzero" fill-opacity="1" /><path clip-path="url(#clip770)" d="M114.858 1361.59 L119.742 1361.59 L119.742 1367.47 L114.858 1367.47 L114.858 1361.59 Z" fill="#000000" fill-rule="nonzero" fill-opacity="1" /><path clip-path="url(#clip770)" d="M133.955 1363.53 L150.274 1363.53 L150.274 1367.47 L128.33 1367.47 L128.33 1363.53 Q130.992 1360.78 135.575 1356.15 Q140.181 1351.49 141.362 1350.15 Q143.607 1347.63 144.487 1345.89 Q145.39 1344.13 145.39 1342.44 Q145.39 1339.69 143.445 1337.95 Q141.524 1336.22 138.422 1336.22 Q136.223 1336.22 133.769 1336.98 Q131.339 1337.74 128.561 1339.29 L128.561 1334.57 Q131.385 1333.44 133.839 1332.86 Q136.293 1332.28 138.33 1332.28 Q143.7 1332.28 146.894 1334.97 Q150.089 1337.65 150.089 1342.14 Q150.089 1344.27 149.279 1346.19 Q148.492 1348.09 146.385 1350.68 Q145.806 1351.35 142.705 1354.57 Q139.603 1357.77 133.955 1363.53 Z" fill="#000000" fill-rule="nonzero" fill-opacity="1" /><path clip-path="url(#clip770)" d="M93.0984 1169.32 Q89.4873 1169.32 87.6586 1172.88 Q85.8531 1176.42 85.8531 1183.55 Q85.8531 1190.66 87.6586 1194.22 Q89.4873 1197.76 93.0984 1197.76 Q96.7326 1197.76 98.5382 1194.22 Q100.367 1190.66 100.367 1183.55 Q100.367 1176.42 98.5382 1172.88 Q96.7326 1169.32 93.0984 1169.32 M93.0984 1165.61 Q98.9085 1165.61 101.964 1170.22 Q105.043 1174.8 105.043 1183.55 Q105.043 1192.28 101.964 1196.89 Q98.9085 1201.47 93.0984 1201.47 Q87.2882 1201.47 84.2095 1196.89 Q81.154 1192.28 81.154 1183.55 Q81.154 1174.8 84.2095 1170.22 Q87.2882 1165.61 93.0984 1165.61 Z" fill="#000000" fill-rule="nonzero" fill-opacity="1" /><path clip-path="url(#clip770)" d="M113.26 1194.92 L118.145 1194.92 L118.145 1200.8 L113.26 1200.8 L113.26 1194.92 Z" fill="#000000" fill-rule="nonzero" fill-opacity="1" /><path clip-path="url(#clip770)" d="M138.33 1169.32 Q134.719 1169.32 132.89 1172.88 Q131.084 1176.42 131.084 1183.55 Q131.084 1190.66 132.89 1194.22 Q134.719 1197.76 138.33 1197.76 Q141.964 1197.76 143.769 1194.22 Q145.598 1190.66 145.598 1183.55 Q145.598 1176.42 143.769 1172.88 Q141.964 1169.32 138.33 1169.32 M138.33 1165.61 Q144.14 1165.61 147.195 1170.22 Q150.274 1174.8 150.274 1183.55 Q150.274 1192.28 147.195 1196.89 Q144.14 1201.47 138.33 1201.47 Q132.519 1201.47 129.441 1196.89 Q126.385 1192.28 126.385 1183.55 Q126.385 1174.8 129.441 1170.22 Q132.519 1165.61 138.33 1165.61 Z" fill="#000000" fill-rule="nonzero" fill-opacity="1" /><path clip-path="url(#clip770)" d="M94.6956 1002.65 Q91.0845 1002.65 89.2558 1006.21 Q87.4503 1009.75 87.4503 1016.88 Q87.4503 1023.99 89.2558 1027.55 Q91.0845 1031.1 94.6956 1031.1 Q98.3298 1031.1 100.135 1027.55 Q101.964 1023.99 101.964 1016.88 Q101.964 1009.75 100.135 1006.21 Q98.3298 1002.65 94.6956 1002.65 M94.6956 998.944 Q100.506 998.944 103.561 1003.55 Q106.64 1008.13 106.64 1016.88 Q106.64 1025.61 103.561 1030.22 Q100.506 1034.8 94.6956 1034.8 Q88.8854 1034.8 85.8068 1030.22 Q82.7512 1025.61 82.7512 1016.88 Q82.7512 1008.13 85.8068 1003.55 Q88.8854 998.944 94.6956 998.944 Z" fill="#000000" fill-rule="nonzero" fill-opacity="1" /><path clip-path="url(#clip770)" d="M114.858 1028.25 L119.742 1028.25 L119.742 1034.13 L114.858 1034.13 L114.858 1028.25 Z" fill="#000000" fill-rule="nonzero" fill-opacity="1" /><path clip-path="url(#clip770)" d="M133.955 1030.19 L150.274 1030.19 L150.274 1034.13 L128.33 1034.13 L128.33 1030.19 Q130.992 1027.44 135.575 1022.81 Q140.181 1018.16 141.362 1016.81 Q143.607 1014.29 144.487 1012.55 Q145.39 1010.8 145.39 1009.11 Q145.39 1006.35 143.445 1004.61 Q141.524 1002.88 138.422 1002.88 Q136.223 1002.88 133.769 1003.64 Q131.339 1004.41 128.561 1005.96 L128.561 1001.24 Q131.385 1000.1 133.839 999.522 Q136.293 998.944 138.33 998.944 Q143.7 998.944 146.894 1001.63 Q150.089 1004.31 150.089 1008.8 Q150.089 1010.93 149.279 1012.86 Q148.492 1014.75 146.385 1017.35 Q145.806 1018.02 142.705 1021.24 Q139.603 1024.43 133.955 1030.19 Z" fill="#000000" fill-rule="nonzero" fill-opacity="1" /><path clip-path="url(#clip770)" d="M92.6123 835.979 Q89.0012 835.979 87.1725 839.544 Q85.3669 843.085 85.3669 850.215 Q85.3669 857.321 87.1725 860.886 Q89.0012 864.428 92.6123 864.428 Q96.2465 864.428 98.0521 860.886 Q99.8808 857.321 99.8808 850.215 Q99.8808 843.085 98.0521 839.544 Q96.2465 835.979 92.6123 835.979 M92.6123 832.275 Q98.4224 832.275 101.478 836.882 Q104.557 841.465 104.557 850.215 Q104.557 858.942 101.478 863.548 Q98.4224 868.132 92.6123 868.132 Q86.8021 868.132 83.7234 863.548 Q80.6679 858.942 80.6679 850.215 Q80.6679 841.465 83.7234 836.882 Q86.8021 832.275 92.6123 832.275 Z" fill="#000000" fill-rule="nonzero" fill-opacity="1" /><path clip-path="url(#clip770)" d="M112.774 861.581 L117.658 861.581 L117.658 867.46 L112.774 867.46 L112.774 861.581 Z" fill="#000000" fill-rule="nonzero" fill-opacity="1" /><path clip-path="url(#clip770)" d="M140.691 836.974 L128.885 855.423 L140.691 855.423 L140.691 836.974 M139.464 832.9 L145.343 832.9 L145.343 855.423 L150.274 855.423 L150.274 859.312 L145.343 859.312 L145.343 867.46 L140.691 867.46 L140.691 859.312 L125.089 859.312 L125.089 854.798 L139.464 832.9 Z" fill="#000000" fill-rule="nonzero" fill-opacity="1" /><path clip-path="url(#clip770)" d="M92.9363 669.31 Q89.3253 669.31 87.4966 672.875 Q85.691 676.417 85.691 683.546 Q85.691 690.653 87.4966 694.218 Q89.3253 697.759 92.9363 697.759 Q96.5706 697.759 98.3761 694.218 Q100.205 690.653 100.205 683.546 Q100.205 676.417 98.3761 672.875 Q96.5706 669.31 92.9363 669.31 M92.9363 665.607 Q98.7465 665.607 101.802 670.213 Q104.881 674.797 104.881 683.546 Q104.881 692.273 101.802 696.88 Q98.7465 701.463 92.9363 701.463 Q87.1262 701.463 84.0475 696.88 Q80.992 692.273 80.992 683.546 Q80.992 674.797 84.0475 670.213 Q87.1262 665.607 92.9363 665.607 Z" fill="#000000" fill-rule="nonzero" fill-opacity="1" /><path clip-path="url(#clip770)" d="M113.098 694.912 L117.983 694.912 L117.983 700.792 L113.098 700.792 L113.098 694.912 Z" fill="#000000" fill-rule="nonzero" fill-opacity="1" /><path clip-path="url(#clip770)" d="M138.746 681.648 Q135.598 681.648 133.746 683.801 Q131.918 685.954 131.918 689.704 Q131.918 693.431 133.746 695.607 Q135.598 697.759 138.746 697.759 Q141.894 697.759 143.723 695.607 Q145.575 693.431 145.575 689.704 Q145.575 685.954 143.723 683.801 Q141.894 681.648 138.746 681.648 M148.029 666.996 L148.029 671.255 Q146.269 670.422 144.464 669.982 Q142.681 669.542 140.922 669.542 Q136.293 669.542 133.839 672.667 Q131.408 675.792 131.061 682.111 Q132.427 680.097 134.487 679.033 Q136.547 677.945 139.024 677.945 Q144.232 677.945 147.242 681.116 Q150.274 684.264 150.274 689.704 Q150.274 695.028 147.126 698.245 Q143.978 701.463 138.746 701.463 Q132.751 701.463 129.58 696.88 Q126.408 692.273 126.408 683.546 Q126.408 675.352 130.297 670.491 Q134.186 665.607 140.737 665.607 Q142.496 665.607 144.279 665.954 Q146.084 666.301 148.029 666.996 Z" fill="#000000" fill-rule="nonzero" fill-opacity="1" /><path clip-path="url(#clip770)" d="M93.191 502.642 Q89.5799 502.642 87.7512 506.207 Q85.9456 509.748 85.9456 516.878 Q85.9456 523.984 87.7512 527.549 Q89.5799 531.091 93.191 531.091 Q96.8252 531.091 98.6308 527.549 Q100.459 523.984 100.459 516.878 Q100.459 509.748 98.6308 506.207 Q96.8252 502.642 93.191 502.642 M93.191 498.938 Q99.0011 498.938 102.057 503.545 Q105.135 508.128 105.135 516.878 Q105.135 525.605 102.057 530.211 Q99.0011 534.795 93.191 534.795 Q87.3808 534.795 84.3021 530.211 Q81.2466 525.605 81.2466 516.878 Q81.2466 508.128 84.3021 503.545 Q87.3808 498.938 93.191 498.938 Z" fill="#000000" fill-rule="nonzero" fill-opacity="1" /><path clip-path="url(#clip770)" d="M113.353 528.244 L118.237 528.244 L118.237 534.123 L113.353 534.123 L113.353 528.244 Z" fill="#000000" fill-rule="nonzero" fill-opacity="1" /><path clip-path="url(#clip770)" d="M138.422 517.711 Q135.089 517.711 133.168 519.494 Q131.269 521.276 131.269 524.401 Q131.269 527.526 133.168 529.308 Q135.089 531.091 138.422 531.091 Q141.756 531.091 143.677 529.308 Q145.598 527.503 145.598 524.401 Q145.598 521.276 143.677 519.494 Q141.779 517.711 138.422 517.711 M133.746 515.721 Q130.737 514.98 129.047 512.92 Q127.381 510.86 127.381 507.897 Q127.381 503.753 130.32 501.346 Q133.283 498.938 138.422 498.938 Q143.584 498.938 146.524 501.346 Q149.464 503.753 149.464 507.897 Q149.464 510.86 147.774 512.92 Q146.107 514.98 143.121 515.721 Q146.501 516.508 148.376 518.799 Q150.274 521.091 150.274 524.401 Q150.274 529.424 147.195 532.109 Q144.14 534.795 138.422 534.795 Q132.705 534.795 129.626 532.109 Q126.57 529.424 126.57 524.401 Q126.57 521.091 128.469 518.799 Q130.367 516.508 133.746 515.721 M132.033 508.336 Q132.033 511.022 133.7 512.526 Q135.39 514.031 138.422 514.031 Q141.431 514.031 143.121 512.526 Q144.834 511.022 144.834 508.336 Q144.834 505.651 143.121 504.147 Q141.431 502.642 138.422 502.642 Q135.39 502.642 133.7 504.147 Q132.033 505.651 132.033 508.336 Z" fill="#000000" fill-rule="nonzero" fill-opacity="1" /><path clip-path="url(#clip770)" d="M83.9086 363.52 L91.5475 363.52 L91.5475 337.154 L83.2373 338.821 L83.2373 334.561 L91.5012 332.895 L96.1771 332.895 L96.1771 363.52 L103.816 363.52 L103.816 367.455 L83.9086 367.455 L83.9086 363.52 Z" fill="#000000" fill-rule="nonzero" fill-opacity="1" /><path clip-path="url(#clip770)" d="M113.26 361.575 L118.145 361.575 L118.145 367.455 L113.26 367.455 L113.26 361.575 Z" fill="#000000" fill-rule="nonzero" fill-opacity="1" /><path clip-path="url(#clip770)" d="M138.33 335.974 Q134.719 335.974 132.89 339.538 Q131.084 343.08 131.084 350.21 Q131.084 357.316 132.89 360.881 Q134.719 364.422 138.33 364.422 Q141.964 364.422 143.769 360.881 Q145.598 357.316 145.598 350.21 Q145.598 343.08 143.769 339.538 Q141.964 335.974 138.33 335.974 M138.33 332.27 Q144.14 332.27 147.195 336.876 Q150.274 341.46 150.274 350.21 Q150.274 358.936 147.195 363.543 Q144.14 368.126 138.33 368.126 Q132.519 368.126 129.441 363.543 Q126.385 358.936 126.385 350.21 Q126.385 341.46 129.441 336.876 Q132.519 332.27 138.33 332.27 Z" fill="#000000" fill-rule="nonzero" fill-opacity="1" /><path clip-path="url(#clip770)" d="M85.5058 196.851 L93.1447 196.851 L93.1447 170.486 L84.8345 172.152 L84.8345 167.893 L93.0984 166.226 L97.7743 166.226 L97.7743 196.851 L105.413 196.851 L105.413 200.786 L85.5058 200.786 L85.5058 196.851 Z" fill="#000000" fill-rule="nonzero" fill-opacity="1" /><path clip-path="url(#clip770)" d="M114.858 194.907 L119.742 194.907 L119.742 200.786 L114.858 200.786 L114.858 194.907 Z" fill="#000000" fill-rule="nonzero" fill-opacity="1" /><path clip-path="url(#clip770)" d="M133.955 196.851 L150.274 196.851 L150.274 200.786 L128.33 200.786 L128.33 196.851 Q130.992 194.097 135.575 189.467 Q140.181 184.814 141.362 183.472 Q143.607 180.948 144.487 179.212 Q145.39 177.453 145.39 175.763 Q145.39 173.009 143.445 171.273 Q141.524 169.537 138.422 169.537 Q136.223 169.537 133.769 170.3 Q131.339 171.064 128.561 172.615 L128.561 167.893 Q131.385 166.759 133.839 166.18 Q136.293 165.601 138.33 165.601 Q143.7 165.601 146.894 168.287 Q150.089 170.972 150.089 175.462 Q150.089 177.592 149.279 179.513 Q148.492 181.411 146.385 184.004 Q145.806 184.675 142.705 187.893 Q139.603 191.087 133.955 196.851 Z" fill="#000000" fill-rule="nonzero" fill-opacity="1" /><path clip-path="url(#clip770)" d="M1469.41 1486.45 L2352.76 1486.45 L2352.76 47.2441 L1469.41 47.2441  Z" fill="#ffffff" fill-rule="evenodd" fill-opacity="1"/>
<defs>
  <clipPath id="clip773">
    <rect x="1469" y="47" width="884" height="1440"/>
  </clipPath>
</defs>
<polyline clip-path="url(#clip773)" style="stroke:#000000; stroke-linecap:round; stroke-linejoin:round; stroke-width:2; stroke-opacity:0.1; fill:none" points="1577.75,1486.45 1577.75,47.2441 "/>
<polyline clip-path="url(#clip773)" style="stroke:#000000; stroke-linecap:round; stroke-linejoin:round; stroke-width:2; stroke-opacity:0.1; fill:none" points="1744.42,1486.45 1744.42,47.2441 "/>
<polyline clip-path="url(#clip773)" style="stroke:#000000; stroke-linecap:round; stroke-linejoin:round; stroke-width:2; stroke-opacity:0.1; fill:none" points="1911.08,1486.45 1911.08,47.2441 "/>
<polyline clip-path="url(#clip773)" style="stroke:#000000; stroke-linecap:round; stroke-linejoin:round; stroke-width:2; stroke-opacity:0.1; fill:none" points="2077.75,1486.45 2077.75,47.2441 "/>
<polyline clip-path="url(#clip773)" style="stroke:#000000; stroke-linecap:round; stroke-linejoin:round; stroke-width:2; stroke-opacity:0.1; fill:none" points="2244.42,1486.45 2244.42,47.2441 "/>
<polyline clip-path="url(#clip773)" style="stroke:#000000; stroke-linecap:round; stroke-linejoin:round; stroke-width:2; stroke-opacity:0.1; fill:none" points="1469.41,1445.72 2352.76,1445.72 "/>
<polyline clip-path="url(#clip773)" style="stroke:#000000; stroke-linecap:round; stroke-linejoin:round; stroke-width:2; stroke-opacity:0.1; fill:none" points="1469.41,1182.85 2352.76,1182.85 "/>
<polyline clip-path="url(#clip773)" style="stroke:#000000; stroke-linecap:round; stroke-linejoin:round; stroke-width:2; stroke-opacity:0.1; fill:none" points="1469.41,919.982 2352.76,919.982 "/>
<polyline clip-path="url(#clip773)" style="stroke:#000000; stroke-linecap:round; stroke-linejoin:round; stroke-width:2; stroke-opacity:0.1; fill:none" points="1469.41,657.115 2352.76,657.115 "/>
<polyline clip-path="url(#clip773)" style="stroke:#000000; stroke-linecap:round; stroke-linejoin:round; stroke-width:2; stroke-opacity:0.1; fill:none" points="1469.41,394.249 2352.76,394.249 "/>
<polyline clip-path="url(#clip773)" style="stroke:#000000; stroke-linecap:round; stroke-linejoin:round; stroke-width:2; stroke-opacity:0.1; fill:none" points="1469.41,131.382 2352.76,131.382 "/>
<polyline clip-path="url(#clip770)" style="stroke:#000000; stroke-linecap:round; stroke-linejoin:round; stroke-width:4; stroke-opacity:1; fill:none" points="1469.41,1486.45 2352.76,1486.45 "/>
<polyline clip-path="url(#clip770)" style="stroke:#000000; stroke-linecap:round; stroke-linejoin:round; stroke-width:4; stroke-opacity:1; fill:none" points="1577.75,1486.45 1577.75,1467.55 "/>
<polyline clip-path="url(#clip770)" style="stroke:#000000; stroke-linecap:round; stroke-linejoin:round; stroke-width:4; stroke-opacity:1; fill:none" points="1744.42,1486.45 1744.42,1467.55 "/>
<polyline clip-path="url(#clip770)" style="stroke:#000000; stroke-linecap:round; stroke-linejoin:round; stroke-width:4; stroke-opacity:1; fill:none" points="1911.08,1486.45 1911.08,1467.55 "/>
<polyline clip-path="url(#clip770)" style="stroke:#000000; stroke-linecap:round; stroke-linejoin:round; stroke-width:4; stroke-opacity:1; fill:none" points="2077.75,1486.45 2077.75,1467.55 "/>
<polyline clip-path="url(#clip770)" style="stroke:#000000; stroke-linecap:round; stroke-linejoin:round; stroke-width:4; stroke-opacity:1; fill:none" points="2244.42,1486.45 2244.42,1467.55 "/>
<path clip-path="url(#clip770)" d="M1572.4 1544.91 L1588.72 1544.91 L1588.72 1548.85 L1566.78 1548.85 L1566.78 1544.91 Q1569.44 1542.16 1574.02 1537.53 Q1578.63 1532.88 1579.81 1531.53 Q1582.05 1529.01 1582.93 1527.27 Q1583.84 1525.51 1583.84 1523.82 Q1583.84 1521.07 1581.89 1519.33 Q1579.97 1517.6 1576.87 1517.6 Q1574.67 1517.6 1572.22 1518.36 Q1569.78 1519.13 1567.01 1520.68 L1567.01 1515.95 Q1569.83 1514.82 1572.28 1514.24 Q1574.74 1513.66 1576.78 1513.66 Q1582.15 1513.66 1585.34 1516.35 Q1588.53 1519.03 1588.53 1523.52 Q1588.53 1525.65 1587.72 1527.57 Q1586.94 1529.47 1584.83 1532.07 Q1584.25 1532.74 1581.15 1535.95 Q1578.05 1539.15 1572.4 1544.91 Z" fill="#000000" fill-rule="nonzero" fill-opacity="1" /><path clip-path="url(#clip770)" d="M1747.43 1518.36 L1735.62 1536.81 L1747.43 1536.81 L1747.43 1518.36 M1746.2 1514.29 L1752.08 1514.29 L1752.08 1536.81 L1757.01 1536.81 L1757.01 1540.7 L1752.08 1540.7 L1752.08 1548.85 L1747.43 1548.85 L1747.43 1540.7 L1731.82 1540.7 L1731.82 1536.19 L1746.2 1514.29 Z" fill="#000000" fill-rule="nonzero" fill-opacity="1" /><path clip-path="url(#clip770)" d="M1911.49 1529.7 Q1908.34 1529.7 1906.49 1531.86 Q1904.66 1534.01 1904.66 1537.76 Q1904.66 1541.49 1906.49 1543.66 Q1908.34 1545.82 1911.49 1545.82 Q1914.64 1545.82 1916.47 1543.66 Q1918.32 1541.49 1918.32 1537.76 Q1918.32 1534.01 1916.47 1531.86 Q1914.64 1529.7 1911.49 1529.7 M1920.77 1515.05 L1920.77 1519.31 Q1919.01 1518.48 1917.21 1518.04 Q1915.42 1517.6 1913.67 1517.6 Q1909.04 1517.6 1906.58 1520.72 Q1904.15 1523.85 1903.8 1530.17 Q1905.17 1528.15 1907.23 1527.09 Q1909.29 1526 1911.77 1526 Q1916.98 1526 1919.98 1529.17 Q1923.02 1532.32 1923.02 1537.76 Q1923.02 1543.08 1919.87 1546.3 Q1916.72 1549.52 1911.49 1549.52 Q1905.49 1549.52 1902.32 1544.94 Q1899.15 1540.33 1899.15 1531.6 Q1899.15 1523.41 1903.04 1518.55 Q1906.93 1513.66 1913.48 1513.66 Q1915.24 1513.66 1917.02 1514.01 Q1918.83 1514.36 1920.77 1515.05 Z" fill="#000000" fill-rule="nonzero" fill-opacity="1" /><path clip-path="url(#clip770)" d="M2077.75 1532.44 Q2074.42 1532.44 2072.5 1534.22 Q2070.6 1536 2070.6 1539.13 Q2070.6 1542.25 2072.5 1544.03 Q2074.42 1545.82 2077.75 1545.82 Q2081.09 1545.82 2083.01 1544.03 Q2084.93 1542.23 2084.93 1539.13 Q2084.93 1536 2083.01 1534.22 Q2081.11 1532.44 2077.75 1532.44 M2073.08 1530.45 Q2070.07 1529.7 2068.38 1527.64 Q2066.71 1525.58 2066.71 1522.62 Q2066.71 1518.48 2069.65 1516.07 Q2072.61 1513.66 2077.75 1513.66 Q2082.91 1513.66 2085.85 1516.07 Q2088.79 1518.48 2088.79 1522.62 Q2088.79 1525.58 2087.1 1527.64 Q2085.44 1529.7 2082.45 1530.45 Q2085.83 1531.23 2087.71 1533.52 Q2089.6 1535.82 2089.6 1539.13 Q2089.6 1544.15 2086.53 1546.83 Q2083.47 1549.52 2077.75 1549.52 Q2072.04 1549.52 2068.96 1546.83 Q2065.9 1544.15 2065.9 1539.13 Q2065.9 1535.82 2067.8 1533.52 Q2069.7 1531.23 2073.08 1530.45 M2071.36 1523.06 Q2071.36 1525.75 2073.03 1527.25 Q2074.72 1528.76 2077.75 1528.76 Q2080.76 1528.76 2082.45 1527.25 Q2084.16 1525.75 2084.16 1523.06 Q2084.16 1520.38 2082.45 1518.87 Q2080.76 1517.37 2077.75 1517.37 Q2074.72 1517.37 2073.03 1518.87 Q2071.36 1520.38 2071.36 1523.06 Z" fill="#000000" fill-rule="nonzero" fill-opacity="1" /><path clip-path="url(#clip770)" d="M2219.11 1544.91 L2226.75 1544.91 L2226.75 1518.55 L2218.44 1520.21 L2218.44 1515.95 L2226.7 1514.29 L2231.38 1514.29 L2231.38 1544.91 L2239.02 1544.91 L2239.02 1548.85 L2219.11 1548.85 L2219.11 1544.91 Z" fill="#000000" fill-rule="nonzero" fill-opacity="1" /><path clip-path="url(#clip770)" d="M2258.46 1517.37 Q2254.85 1517.37 2253.02 1520.93 Q2251.22 1524.47 2251.22 1531.6 Q2251.22 1538.71 2253.02 1542.27 Q2254.85 1545.82 2258.46 1545.82 Q2262.09 1545.82 2263.9 1542.27 Q2265.73 1538.71 2265.73 1531.6 Q2265.73 1524.47 2263.9 1520.93 Q2262.09 1517.37 2258.46 1517.37 M2258.46 1513.66 Q2264.27 1513.66 2267.33 1518.27 Q2270.41 1522.85 2270.41 1531.6 Q2270.41 1540.33 2267.33 1544.94 Q2264.27 1549.52 2258.46 1549.52 Q2252.65 1549.52 2249.57 1544.94 Q2246.52 1540.33 2246.52 1531.6 Q2246.52 1522.85 2249.57 1518.27 Q2252.65 1513.66 2258.46 1513.66 Z" fill="#000000" fill-rule="nonzero" fill-opacity="1" /><polyline clip-path="url(#clip770)" style="stroke:#000000; stroke-linecap:round; stroke-linejoin:round; stroke-width:4; stroke-opacity:1; fill:none" points="1469.41,1486.45 1469.41,47.2441 "/>
<polyline clip-path="url(#clip770)" style="stroke:#000000; stroke-linecap:round; stroke-linejoin:round; stroke-width:4; stroke-opacity:1; fill:none" points="1469.41,1445.72 1488.31,1445.72 "/>
<polyline clip-path="url(#clip770)" style="stroke:#000000; stroke-linecap:round; stroke-linejoin:round; stroke-width:4; stroke-opacity:1; fill:none" points="1469.41,1182.85 1488.31,1182.85 "/>
<polyline clip-path="url(#clip770)" style="stroke:#000000; stroke-linecap:round; stroke-linejoin:round; stroke-width:4; stroke-opacity:1; fill:none" points="1469.41,919.982 1488.31,919.982 "/>
<polyline clip-path="url(#clip770)" style="stroke:#000000; stroke-linecap:round; stroke-linejoin:round; stroke-width:4; stroke-opacity:1; fill:none" points="1469.41,657.115 1488.31,657.115 "/>
<polyline clip-path="url(#clip770)" style="stroke:#000000; stroke-linecap:round; stroke-linejoin:round; stroke-width:4; stroke-opacity:1; fill:none" points="1469.41,394.249 1488.31,394.249 "/>
<polyline clip-path="url(#clip770)" style="stroke:#000000; stroke-linecap:round; stroke-linejoin:round; stroke-width:4; stroke-opacity:1; fill:none" points="1469.41,131.382 1488.31,131.382 "/>
<path clip-path="url(#clip770)" d="M1421.47 1431.51 Q1417.86 1431.51 1416.03 1435.08 Q1414.22 1438.62 1414.22 1445.75 Q1414.22 1452.86 1416.03 1456.42 Q1417.86 1459.96 1421.47 1459.96 Q1425.1 1459.96 1426.91 1456.42 Q1428.74 1452.86 1428.74 1445.75 Q1428.74 1438.62 1426.91 1435.08 Q1425.1 1431.51 1421.47 1431.51 M1421.47 1427.81 Q1427.28 1427.81 1430.33 1432.42 Q1433.41 1437 1433.41 1445.75 Q1433.41 1454.48 1430.33 1459.08 Q1427.28 1463.67 1421.47 1463.67 Q1415.66 1463.67 1412.58 1459.08 Q1409.52 1454.48 1409.52 1445.75 Q1409.52 1437 1412.58 1432.42 Q1415.66 1427.81 1421.47 1427.81 Z" fill="#000000" fill-rule="nonzero" fill-opacity="1" /><path clip-path="url(#clip770)" d="M1169.42 1172.02 L1187.78 1172.02 L1187.78 1175.95 L1173.7 1175.95 L1173.7 1184.42 Q1174.72 1184.08 1175.74 1183.91 Q1176.76 1183.73 1177.78 1183.73 Q1183.56 1183.73 1186.94 1186.9 Q1190.32 1190.07 1190.32 1195.49 Q1190.32 1201.07 1186.85 1204.17 Q1183.38 1207.25 1177.06 1207.25 Q1174.88 1207.25 1172.62 1206.88 Q1170.37 1206.51 1167.96 1205.77 L1167.96 1201.07 Q1170.05 1202.2 1172.27 1202.76 Q1174.49 1203.31 1176.97 1203.31 Q1180.97 1203.31 1183.31 1201.21 Q1185.65 1199.1 1185.65 1195.49 Q1185.65 1191.88 1183.31 1189.77 Q1180.97 1187.66 1176.97 1187.66 Q1175.09 1187.66 1173.22 1188.08 Q1171.37 1188.5 1169.42 1189.38 L1169.42 1172.02 Z" fill="#000000" fill-rule="nonzero" fill-opacity="1" /><path clip-path="url(#clip770)" d="M1199.54 1200.7 L1204.42 1200.7 L1204.42 1206.58 L1199.54 1206.58 L1199.54 1200.7 Z" fill="#000000" fill-rule="nonzero" fill-opacity="1" /><path clip-path="url(#clip770)" d="M1224.61 1175.1 Q1221 1175.1 1219.17 1178.66 Q1217.36 1182.2 1217.36 1189.33 Q1217.36 1196.44 1219.17 1200 Q1221 1203.54 1224.61 1203.54 Q1228.24 1203.54 1230.05 1200 Q1231.87 1196.44 1231.87 1189.33 Q1231.87 1182.2 1230.05 1178.66 Q1228.24 1175.1 1224.61 1175.1 M1224.61 1171.39 Q1230.42 1171.39 1233.47 1176 Q1236.55 1180.58 1236.55 1189.33 Q1236.55 1198.06 1233.47 1202.66 Q1230.42 1207.25 1224.61 1207.25 Q1218.8 1207.25 1215.72 1202.66 Q1212.66 1198.06 1212.66 1189.33 Q1212.66 1180.58 1215.72 1176 Q1218.8 1171.39 1224.61 1171.39 Z" fill="#000000" fill-rule="nonzero" fill-opacity="1" /><path clip-path="url(#clip770)" d="M1254.77 1175.1 Q1251.16 1175.1 1249.33 1178.66 Q1247.52 1182.2 1247.52 1189.33 Q1247.52 1196.44 1249.33 1200 Q1251.16 1203.54 1254.77 1203.54 Q1258.4 1203.54 1260.21 1200 Q1262.04 1196.44 1262.04 1189.33 Q1262.04 1182.2 1260.21 1178.66 Q1258.4 1175.1 1254.77 1175.1 M1254.77 1171.39 Q1260.58 1171.39 1263.63 1176 Q1266.71 1180.58 1266.71 1189.33 Q1266.71 1198.06 1263.63 1202.66 Q1260.58 1207.25 1254.77 1207.25 Q1248.96 1207.25 1245.88 1202.66 Q1242.82 1198.06 1242.82 1189.33 Q1242.82 1180.58 1245.88 1176 Q1248.96 1171.39 1254.77 1171.39 Z" fill="#000000" fill-rule="nonzero" fill-opacity="1" /><path clip-path="url(#clip770)" d="M1303.1 1181.11 L1292.52 1191.74 L1303.1 1202.32 L1300.35 1205.12 L1289.72 1194.49 L1279.1 1205.12 L1276.37 1202.32 L1286.92 1191.74 L1276.37 1181.11 L1279.1 1178.31 L1289.72 1188.94 L1300.35 1178.31 L1303.1 1181.11 Z" fill="#000000" fill-rule="nonzero" fill-opacity="1" /><path clip-path="url(#clip770)" d="M1315.46 1202.64 L1323.1 1202.64 L1323.1 1176.28 L1314.79 1177.94 L1314.79 1173.68 L1323.05 1172.02 L1327.73 1172.02 L1327.73 1202.64 L1335.37 1202.64 L1335.37 1206.58 L1315.46 1206.58 L1315.46 1202.64 Z" fill="#000000" fill-rule="nonzero" fill-opacity="1" /><path clip-path="url(#clip770)" d="M1354.81 1175.1 Q1351.2 1175.1 1349.37 1178.66 Q1347.57 1182.2 1347.57 1189.33 Q1347.57 1196.44 1349.37 1200 Q1351.2 1203.54 1354.81 1203.54 Q1358.45 1203.54 1360.25 1200 Q1362.08 1196.44 1362.08 1189.33 Q1362.08 1182.2 1360.25 1178.66 Q1358.45 1175.1 1354.81 1175.1 M1354.81 1171.39 Q1360.62 1171.39 1363.68 1176 Q1366.76 1180.58 1366.76 1189.33 Q1366.76 1198.06 1363.68 1202.66 Q1360.62 1207.25 1354.81 1207.25 Q1349 1207.25 1345.93 1202.66 Q1342.87 1198.06 1342.87 1189.33 Q1342.87 1180.58 1345.93 1176 Q1349 1171.39 1354.81 1171.39 Z" fill="#000000" fill-rule="nonzero" fill-opacity="1" /><path clip-path="url(#clip770)" d="M1367.3 1175.97 L1373.51 1175.97 L1373.51 1154.55 L1366.76 1155.9 L1366.76 1152.44 L1373.47 1151.09 L1377.27 1151.09 L1377.27 1175.97 L1383.48 1175.97 L1383.48 1179.17 L1367.3 1179.17 L1367.3 1175.97 Z" fill="#000000" fill-rule="nonzero" fill-opacity="1" /><path clip-path="url(#clip770)" d="M1399.28 1165.83 Q1396.57 1165.83 1395.01 1167.28 Q1393.47 1168.73 1393.47 1171.27 Q1393.47 1173.81 1395.01 1175.25 Q1396.57 1176.7 1399.28 1176.7 Q1401.99 1176.7 1403.55 1175.25 Q1405.11 1173.79 1405.11 1171.27 Q1405.11 1168.73 1403.55 1167.28 Q1402 1165.83 1399.28 1165.83 M1395.48 1164.21 Q1393.03 1163.61 1391.66 1161.94 Q1390.31 1160.26 1390.31 1157.86 Q1390.31 1154.49 1392.69 1152.53 Q1395.1 1150.58 1399.28 1150.58 Q1403.47 1150.58 1405.86 1152.53 Q1408.25 1154.49 1408.25 1157.86 Q1408.25 1160.26 1406.88 1161.94 Q1405.52 1163.61 1403.09 1164.21 Q1405.84 1164.85 1407.36 1166.72 Q1408.91 1168.58 1408.91 1171.27 Q1408.91 1175.35 1406.41 1177.53 Q1403.92 1179.71 1399.28 1179.71 Q1394.63 1179.71 1392.13 1177.53 Q1389.65 1175.35 1389.65 1171.27 Q1389.65 1168.58 1391.19 1166.72 Q1392.73 1164.85 1395.48 1164.21 M1394.09 1158.21 Q1394.09 1160.4 1395.44 1161.62 Q1396.81 1162.84 1399.28 1162.84 Q1401.72 1162.84 1403.09 1161.62 Q1404.49 1160.4 1404.49 1158.21 Q1404.49 1156.03 1403.09 1154.81 Q1401.72 1153.59 1399.28 1153.59 Q1396.81 1153.59 1395.44 1154.81 Q1394.09 1156.03 1394.09 1158.21 Z" fill="#000000" fill-rule="nonzero" fill-opacity="1" /><path clip-path="url(#clip770)" d="M1423.78 1165.83 Q1421.08 1165.83 1419.51 1167.28 Q1417.97 1168.73 1417.97 1171.27 Q1417.97 1173.81 1419.51 1175.25 Q1421.08 1176.7 1423.78 1176.7 Q1426.49 1176.7 1428.05 1175.25 Q1429.61 1173.79 1429.61 1171.27 Q1429.61 1168.73 1428.05 1167.28 Q1426.51 1165.83 1423.78 1165.83 M1419.98 1164.21 Q1417.54 1163.61 1416.17 1161.94 Q1414.81 1160.26 1414.81 1157.86 Q1414.81 1154.49 1417.2 1152.53 Q1419.61 1150.58 1423.78 1150.58 Q1427.98 1150.58 1430.37 1152.53 Q1432.75 1154.49 1432.75 1157.86 Q1432.75 1160.26 1431.38 1161.94 Q1430.03 1163.61 1427.6 1164.21 Q1430.35 1164.85 1431.87 1166.72 Q1433.41 1168.58 1433.41 1171.27 Q1433.41 1175.35 1430.91 1177.53 Q1428.43 1179.71 1423.78 1179.71 Q1419.14 1179.71 1416.64 1177.53 Q1414.15 1175.35 1414.15 1171.27 Q1414.15 1168.58 1415.7 1166.72 Q1417.24 1164.85 1419.98 1164.21 M1418.59 1158.21 Q1418.59 1160.4 1419.95 1161.62 Q1421.32 1162.84 1423.78 1162.84 Q1426.23 1162.84 1427.6 1161.62 Q1428.99 1160.4 1428.99 1158.21 Q1428.99 1156.03 1427.6 1154.81 Q1426.23 1153.59 1423.78 1153.59 Q1421.32 1153.59 1419.95 1154.81 Q1418.59 1156.03 1418.59 1158.21 Z" fill="#000000" fill-rule="nonzero" fill-opacity="1" /><path clip-path="url(#clip770)" d="M1170.26 939.775 L1177.9 939.775 L1177.9 913.409 L1169.59 915.076 L1169.59 910.816 L1177.85 909.15 L1182.53 909.15 L1182.53 939.775 L1190.17 939.775 L1190.17 943.71 L1170.26 943.71 L1170.26 939.775 Z" fill="#000000" fill-rule="nonzero" fill-opacity="1" /><path clip-path="url(#clip770)" d="M1199.61 937.83 L1204.5 937.83 L1204.5 943.71 L1199.61 943.71 L1199.61 937.83 Z" fill="#000000" fill-rule="nonzero" fill-opacity="1" /><path clip-path="url(#clip770)" d="M1224.68 912.229 Q1221.07 912.229 1219.24 915.793 Q1217.44 919.335 1217.44 926.465 Q1217.44 933.571 1219.24 937.136 Q1221.07 940.677 1224.68 940.677 Q1228.32 940.677 1230.12 937.136 Q1231.95 933.571 1231.95 926.465 Q1231.95 919.335 1230.12 915.793 Q1228.32 912.229 1224.68 912.229 M1224.68 908.525 Q1230.49 908.525 1233.55 913.131 Q1236.63 917.715 1236.63 926.465 Q1236.63 935.191 1233.55 939.798 Q1230.49 944.381 1224.68 944.381 Q1218.87 944.381 1215.79 939.798 Q1212.74 935.191 1212.74 926.465 Q1212.74 917.715 1215.79 913.131 Q1218.87 908.525 1224.68 908.525 Z" fill="#000000" fill-rule="nonzero" fill-opacity="1" /><path clip-path="url(#clip770)" d="M1254.84 912.229 Q1251.23 912.229 1249.4 915.793 Q1247.6 919.335 1247.6 926.465 Q1247.6 933.571 1249.4 937.136 Q1251.23 940.677 1254.84 940.677 Q1258.48 940.677 1260.28 937.136 Q1262.11 933.571 1262.11 926.465 Q1262.11 919.335 1260.28 915.793 Q1258.48 912.229 1254.84 912.229 M1254.84 908.525 Q1260.65 908.525 1263.71 913.131 Q1266.79 917.715 1266.79 926.465 Q1266.79 935.191 1263.71 939.798 Q1260.65 944.381 1254.84 944.381 Q1249.03 944.381 1245.95 939.798 Q1242.9 935.191 1242.9 926.465 Q1242.9 917.715 1245.95 913.131 Q1249.03 908.525 1254.84 908.525 Z" fill="#000000" fill-rule="nonzero" fill-opacity="1" /><path clip-path="url(#clip770)" d="M1303.18 918.247 L1292.6 928.872 L1303.18 939.451 L1300.42 942.251 L1289.8 931.627 L1279.17 942.251 L1276.44 939.451 L1287 928.872 L1276.44 918.247 L1279.17 915.446 L1289.8 926.071 L1300.42 915.446 L1303.18 918.247 Z" fill="#000000" fill-rule="nonzero" fill-opacity="1" /><path clip-path="url(#clip770)" d="M1315.54 939.775 L1323.18 939.775 L1323.18 913.409 L1314.87 915.076 L1314.87 910.816 L1323.13 909.15 L1327.81 909.15 L1327.81 939.775 L1335.44 939.775 L1335.44 943.71 L1315.54 943.71 L1315.54 939.775 Z" fill="#000000" fill-rule="nonzero" fill-opacity="1" /><path clip-path="url(#clip770)" d="M1354.89 912.229 Q1351.28 912.229 1349.45 915.793 Q1347.64 919.335 1347.64 926.465 Q1347.64 933.571 1349.45 937.136 Q1351.28 940.677 1354.89 940.677 Q1358.52 940.677 1360.33 937.136 Q1362.16 933.571 1362.16 926.465 Q1362.16 919.335 1360.33 915.793 Q1358.52 912.229 1354.89 912.229 M1354.89 908.525 Q1360.7 908.525 1363.75 913.131 Q1366.83 917.715 1366.83 926.465 Q1366.83 935.191 1363.75 939.798 Q1360.7 944.381 1354.89 944.381 Q1349.08 944.381 1346 939.798 Q1342.94 935.191 1342.94 926.465 Q1342.94 917.715 1346 913.131 Q1349.08 908.525 1354.89 908.525 Z" fill="#000000" fill-rule="nonzero" fill-opacity="1" /><path clip-path="url(#clip770)" d="M1367.38 913.102 L1373.59 913.102 L1373.59 891.68 L1366.83 893.034 L1366.83 889.574 L1373.55 888.219 L1377.35 888.219 L1377.35 913.102 L1383.55 913.102 L1383.55 916.299 L1367.38 916.299 L1367.38 913.102 Z" fill="#000000" fill-rule="nonzero" fill-opacity="1" /><path clip-path="url(#clip770)" d="M1399.35 902.965 Q1396.64 902.965 1395.08 904.413 Q1393.54 905.861 1393.54 908.4 Q1393.54 910.939 1395.08 912.387 Q1396.64 913.836 1399.35 913.836 Q1402.06 913.836 1403.62 912.387 Q1405.18 910.92 1405.18 908.4 Q1405.18 905.861 1403.62 904.413 Q1402.08 902.965 1399.35 902.965 M1395.55 901.347 Q1393.11 900.745 1391.74 899.072 Q1390.38 897.398 1390.38 894.99 Q1390.38 891.624 1392.77 889.668 Q1395.18 887.712 1399.35 887.712 Q1403.55 887.712 1405.93 889.668 Q1408.32 891.624 1408.32 894.99 Q1408.32 897.398 1406.95 899.072 Q1405.6 900.745 1403.17 901.347 Q1405.92 901.987 1407.44 903.849 Q1408.98 905.711 1408.98 908.4 Q1408.98 912.481 1406.48 914.663 Q1404 916.845 1399.35 916.845 Q1394.71 916.845 1392.21 914.663 Q1389.72 912.481 1389.72 908.4 Q1389.72 905.711 1391.26 903.849 Q1392.81 901.987 1395.55 901.347 M1394.16 895.348 Q1394.16 897.529 1395.52 898.752 Q1396.89 899.974 1399.35 899.974 Q1401.8 899.974 1403.17 898.752 Q1404.56 897.529 1404.56 895.348 Q1404.56 893.166 1403.17 891.943 Q1401.8 890.721 1399.35 890.721 Q1396.89 890.721 1395.52 891.943 Q1394.16 893.166 1394.16 895.348 Z" fill="#000000" fill-rule="nonzero" fill-opacity="1" /><path clip-path="url(#clip770)" d="M1415.85 915.716 L1415.85 912.256 Q1417.28 912.933 1418.74 913.29 Q1420.21 913.648 1421.62 913.648 Q1425.38 913.648 1427.36 911.127 Q1429.35 908.588 1429.63 903.435 Q1428.54 905.052 1426.87 905.918 Q1425.19 906.783 1423.16 906.783 Q1418.95 906.783 1416.49 904.244 Q1414.04 901.686 1414.04 897.266 Q1414.04 892.94 1416.6 890.326 Q1419.16 887.712 1423.41 887.712 Q1428.28 887.712 1430.84 891.454 Q1433.41 895.178 1433.41 902.288 Q1433.41 908.927 1430.25 912.895 Q1427.11 916.845 1421.79 916.845 Q1420.36 916.845 1418.89 916.563 Q1417.43 916.281 1415.85 915.716 M1423.41 903.811 Q1425.97 903.811 1427.45 902.062 Q1428.96 900.313 1428.96 897.266 Q1428.96 894.238 1427.45 892.489 Q1425.97 890.721 1423.41 890.721 Q1420.85 890.721 1419.34 892.489 Q1417.86 894.238 1417.86 897.266 Q1417.86 900.313 1419.34 902.062 Q1420.85 903.811 1423.41 903.811 Z" fill="#000000" fill-rule="nonzero" fill-opacity="1" /><path clip-path="url(#clip770)" d="M1170.26 676.908 L1177.9 676.908 L1177.9 650.542 L1169.59 652.209 L1169.59 647.95 L1177.85 646.283 L1182.53 646.283 L1182.53 676.908 L1190.17 676.908 L1190.17 680.843 L1170.26 680.843 L1170.26 676.908 Z" fill="#000000" fill-rule="nonzero" fill-opacity="1" /><path clip-path="url(#clip770)" d="M1199.61 674.963 L1204.5 674.963 L1204.5 680.843 L1199.61 680.843 L1199.61 674.963 Z" fill="#000000" fill-rule="nonzero" fill-opacity="1" /><path clip-path="url(#clip770)" d="M1214.73 646.283 L1233.08 646.283 L1233.08 650.218 L1219.01 650.218 L1219.01 658.69 Q1220.03 658.343 1221.05 658.181 Q1222.07 657.996 1223.08 657.996 Q1228.87 657.996 1232.25 661.167 Q1235.63 664.339 1235.63 669.755 Q1235.63 675.334 1232.16 678.436 Q1228.69 681.514 1222.37 681.514 Q1220.19 681.514 1217.92 681.144 Q1215.68 680.774 1213.27 680.033 L1213.27 675.334 Q1215.35 676.468 1217.58 677.024 Q1219.8 677.579 1222.27 677.579 Q1226.28 677.579 1228.62 675.473 Q1230.95 673.366 1230.95 669.755 Q1230.95 666.144 1228.62 664.038 Q1226.28 661.931 1222.27 661.931 Q1220.4 661.931 1218.52 662.348 Q1216.67 662.764 1214.73 663.644 L1214.73 646.283 Z" fill="#000000" fill-rule="nonzero" fill-opacity="1" /><path clip-path="url(#clip770)" d="M1254.84 649.362 Q1251.23 649.362 1249.4 652.927 Q1247.6 656.468 1247.6 663.598 Q1247.6 670.704 1249.4 674.269 Q1251.23 677.811 1254.84 677.811 Q1258.48 677.811 1260.28 674.269 Q1262.11 670.704 1262.11 663.598 Q1262.11 656.468 1260.28 652.927 Q1258.48 649.362 1254.84 649.362 M1254.84 645.658 Q1260.65 645.658 1263.71 650.265 Q1266.79 654.848 1266.79 663.598 Q1266.79 672.325 1263.71 676.931 Q1260.65 681.514 1254.84 681.514 Q1249.03 681.514 1245.95 676.931 Q1242.9 672.325 1242.9 663.598 Q1242.9 654.848 1245.95 650.265 Q1249.03 645.658 1254.84 645.658 Z" fill="#000000" fill-rule="nonzero" fill-opacity="1" /><path clip-path="url(#clip770)" d="M1303.18 655.38 L1292.6 666.005 L1303.18 676.584 L1300.42 679.385 L1289.8 668.76 L1279.17 679.385 L1276.44 676.584 L1287 666.005 L1276.44 655.38 L1279.17 652.579 L1289.8 663.204 L1300.42 652.579 L1303.18 655.38 Z" fill="#000000" fill-rule="nonzero" fill-opacity="1" /><path clip-path="url(#clip770)" d="M1315.54 676.908 L1323.18 676.908 L1323.18 650.542 L1314.87 652.209 L1314.87 647.95 L1323.13 646.283 L1327.81 646.283 L1327.81 676.908 L1335.44 676.908 L1335.44 680.843 L1315.54 680.843 L1315.54 676.908 Z" fill="#000000" fill-rule="nonzero" fill-opacity="1" /><path clip-path="url(#clip770)" d="M1354.89 649.362 Q1351.28 649.362 1349.45 652.927 Q1347.64 656.468 1347.64 663.598 Q1347.64 670.704 1349.45 674.269 Q1351.28 677.811 1354.89 677.811 Q1358.52 677.811 1360.33 674.269 Q1362.16 670.704 1362.16 663.598 Q1362.16 656.468 1360.33 652.927 Q1358.52 649.362 1354.89 649.362 M1354.89 645.658 Q1360.7 645.658 1363.75 650.265 Q1366.83 654.848 1366.83 663.598 Q1366.83 672.325 1363.75 676.931 Q1360.7 681.514 1354.89 681.514 Q1349.08 681.514 1346 676.931 Q1342.94 672.325 1342.94 663.598 Q1342.94 654.848 1346 650.265 Q1349.08 645.658 1354.89 645.658 Z" fill="#000000" fill-rule="nonzero" fill-opacity="1" /><path clip-path="url(#clip770)" d="M1367.38 650.235 L1373.59 650.235 L1373.59 628.813 L1366.83 630.167 L1366.83 626.707 L1373.55 625.353 L1377.35 625.353 L1377.35 650.235 L1383.55 650.235 L1383.55 653.433 L1367.38 653.433 L1367.38 650.235 Z" fill="#000000" fill-rule="nonzero" fill-opacity="1" /><path clip-path="url(#clip770)" d="M1399.35 640.098 Q1396.64 640.098 1395.08 641.546 Q1393.54 642.994 1393.54 645.533 Q1393.54 648.072 1395.08 649.521 Q1396.64 650.969 1399.35 650.969 Q1402.06 650.969 1403.62 649.521 Q1405.18 648.054 1405.18 645.533 Q1405.18 642.994 1403.62 641.546 Q1402.08 640.098 1399.35 640.098 M1395.55 638.481 Q1393.11 637.879 1391.74 636.205 Q1390.38 634.531 1390.38 632.123 Q1390.38 628.757 1392.77 626.801 Q1395.18 624.845 1399.35 624.845 Q1403.55 624.845 1405.93 626.801 Q1408.32 628.757 1408.32 632.123 Q1408.32 634.531 1406.95 636.205 Q1405.6 637.879 1403.17 638.481 Q1405.92 639.12 1407.44 640.982 Q1408.98 642.844 1408.98 645.533 Q1408.98 649.615 1406.48 651.796 Q1404 653.978 1399.35 653.978 Q1394.71 653.978 1392.21 651.796 Q1389.72 649.615 1389.72 645.533 Q1389.72 642.844 1391.26 640.982 Q1392.81 639.12 1395.55 638.481 M1394.16 632.481 Q1394.16 634.663 1395.52 635.885 Q1396.89 637.108 1399.35 637.108 Q1401.8 637.108 1403.17 635.885 Q1404.56 634.663 1404.56 632.481 Q1404.56 630.299 1403.17 629.077 Q1401.8 627.854 1399.35 627.854 Q1396.89 627.854 1395.52 629.077 Q1394.16 630.299 1394.16 632.481 Z" fill="#000000" fill-rule="nonzero" fill-opacity="1" /><path clip-path="url(#clip770)" d="M1415.85 652.85 L1415.85 649.389 Q1417.28 650.066 1418.74 650.423 Q1420.21 650.781 1421.62 650.781 Q1425.38 650.781 1427.36 648.261 Q1429.35 645.722 1429.63 640.568 Q1428.54 642.186 1426.87 643.051 Q1425.19 643.916 1423.16 643.916 Q1418.95 643.916 1416.49 641.377 Q1414.04 638.819 1414.04 634.399 Q1414.04 630.073 1416.6 627.459 Q1419.16 624.845 1423.41 624.845 Q1428.28 624.845 1430.84 628.588 Q1433.41 632.312 1433.41 639.421 Q1433.41 646.06 1430.25 650.028 Q1427.11 653.978 1421.79 653.978 Q1420.36 653.978 1418.89 653.696 Q1417.43 653.414 1415.85 652.85 M1423.41 640.944 Q1425.97 640.944 1427.45 639.195 Q1428.96 637.446 1428.96 634.399 Q1428.96 631.371 1427.45 629.622 Q1425.97 627.854 1423.41 627.854 Q1420.85 627.854 1419.34 629.622 Q1417.86 631.371 1417.86 634.399 Q1417.86 637.446 1419.34 639.195 Q1420.85 640.944 1423.41 640.944 Z" fill="#000000" fill-rule="nonzero" fill-opacity="1" /><path clip-path="url(#clip770)" d="M1173.48 414.041 L1189.8 414.041 L1189.8 417.976 L1167.85 417.976 L1167.85 414.041 Q1170.52 411.287 1175.1 406.657 Q1179.7 402.004 1180.89 400.662 Q1183.13 398.138 1184.01 396.402 Q1184.91 394.643 1184.91 392.953 Q1184.91 390.199 1182.97 388.463 Q1181.05 386.727 1177.95 386.727 Q1175.75 386.727 1173.29 387.49 Q1170.86 388.254 1168.08 389.805 L1168.08 385.083 Q1170.91 383.949 1173.36 383.37 Q1175.82 382.791 1177.85 382.791 Q1183.22 382.791 1186.42 385.477 Q1189.61 388.162 1189.61 392.652 Q1189.61 394.782 1188.8 396.703 Q1188.02 398.601 1185.91 401.194 Q1185.33 401.865 1182.23 405.083 Q1179.13 408.277 1173.48 414.041 Z" fill="#000000" fill-rule="nonzero" fill-opacity="1" /><path clip-path="url(#clip770)" d="M1199.61 412.097 L1204.5 412.097 L1204.5 417.976 L1199.61 417.976 L1199.61 412.097 Z" fill="#000000" fill-rule="nonzero" fill-opacity="1" /><path clip-path="url(#clip770)" d="M1224.68 386.495 Q1221.07 386.495 1219.24 390.06 Q1217.44 393.601 1217.44 400.731 Q1217.44 407.838 1219.24 411.402 Q1221.07 414.944 1224.68 414.944 Q1228.32 414.944 1230.12 411.402 Q1231.95 407.838 1231.95 400.731 Q1231.95 393.601 1230.12 390.06 Q1228.32 386.495 1224.68 386.495 M1224.68 382.791 Q1230.49 382.791 1233.55 387.398 Q1236.63 391.981 1236.63 400.731 Q1236.63 409.458 1233.55 414.064 Q1230.49 418.648 1224.68 418.648 Q1218.87 418.648 1215.79 414.064 Q1212.74 409.458 1212.74 400.731 Q1212.74 391.981 1215.79 387.398 Q1218.87 382.791 1224.68 382.791 Z" fill="#000000" fill-rule="nonzero" fill-opacity="1" /><path clip-path="url(#clip770)" d="M1254.84 386.495 Q1251.23 386.495 1249.4 390.06 Q1247.6 393.601 1247.6 400.731 Q1247.6 407.838 1249.4 411.402 Q1251.23 414.944 1254.84 414.944 Q1258.48 414.944 1260.28 411.402 Q1262.11 407.838 1262.11 400.731 Q1262.11 393.601 1260.28 390.06 Q1258.48 386.495 1254.84 386.495 M1254.84 382.791 Q1260.65 382.791 1263.71 387.398 Q1266.79 391.981 1266.79 400.731 Q1266.79 409.458 1263.71 414.064 Q1260.65 418.648 1254.84 418.648 Q1249.03 418.648 1245.95 414.064 Q1242.9 409.458 1242.9 400.731 Q1242.9 391.981 1245.95 387.398 Q1249.03 382.791 1254.84 382.791 Z" fill="#000000" fill-rule="nonzero" fill-opacity="1" /><path clip-path="url(#clip770)" d="M1303.18 392.514 L1292.6 403.138 L1303.18 413.717 L1300.42 416.518 L1289.8 405.893 L1279.17 416.518 L1276.44 413.717 L1287 403.138 L1276.44 392.514 L1279.17 389.713 L1289.8 400.338 L1300.42 389.713 L1303.18 392.514 Z" fill="#000000" fill-rule="nonzero" fill-opacity="1" /><path clip-path="url(#clip770)" d="M1315.54 414.041 L1323.18 414.041 L1323.18 387.676 L1314.87 389.342 L1314.87 385.083 L1323.13 383.416 L1327.81 383.416 L1327.81 414.041 L1335.44 414.041 L1335.44 417.976 L1315.54 417.976 L1315.54 414.041 Z" fill="#000000" fill-rule="nonzero" fill-opacity="1" /><path clip-path="url(#clip770)" d="M1354.89 386.495 Q1351.28 386.495 1349.45 390.06 Q1347.64 393.601 1347.64 400.731 Q1347.64 407.838 1349.45 411.402 Q1351.28 414.944 1354.89 414.944 Q1358.52 414.944 1360.33 411.402 Q1362.16 407.838 1362.16 400.731 Q1362.16 393.601 1360.33 390.06 Q1358.52 386.495 1354.89 386.495 M1354.89 382.791 Q1360.7 382.791 1363.75 387.398 Q1366.83 391.981 1366.83 400.731 Q1366.83 409.458 1363.75 414.064 Q1360.7 418.648 1354.89 418.648 Q1349.08 418.648 1346 414.064 Q1342.94 409.458 1342.94 400.731 Q1342.94 391.981 1346 387.398 Q1349.08 382.791 1354.89 382.791 Z" fill="#000000" fill-rule="nonzero" fill-opacity="1" /><path clip-path="url(#clip770)" d="M1367.38 387.369 L1373.59 387.369 L1373.59 365.947 L1366.83 367.301 L1366.83 363.84 L1373.55 362.486 L1377.35 362.486 L1377.35 387.369 L1383.55 387.369 L1383.55 390.566 L1367.38 390.566 L1367.38 387.369 Z" fill="#000000" fill-rule="nonzero" fill-opacity="1" /><path clip-path="url(#clip770)" d="M1399.35 377.231 Q1396.64 377.231 1395.08 378.679 Q1393.54 380.128 1393.54 382.667 Q1393.54 385.206 1395.08 386.654 Q1396.64 388.102 1399.35 388.102 Q1402.06 388.102 1403.62 386.654 Q1405.18 385.187 1405.18 382.667 Q1405.18 380.128 1403.62 378.679 Q1402.08 377.231 1399.35 377.231 M1395.55 375.614 Q1393.11 375.012 1391.74 373.338 Q1390.38 371.664 1390.38 369.257 Q1390.38 365.89 1392.77 363.934 Q1395.18 361.978 1399.35 361.978 Q1403.55 361.978 1405.93 363.934 Q1408.32 365.89 1408.32 369.257 Q1408.32 371.664 1406.95 373.338 Q1405.6 375.012 1403.17 375.614 Q1405.92 376.253 1407.44 378.115 Q1408.98 379.977 1408.98 382.667 Q1408.98 386.748 1406.48 388.93 Q1404 391.111 1399.35 391.111 Q1394.71 391.111 1392.21 388.93 Q1389.72 386.748 1389.72 382.667 Q1389.72 379.977 1391.26 378.115 Q1392.81 376.253 1395.55 375.614 M1394.16 369.614 Q1394.16 371.796 1395.52 373.018 Q1396.89 374.241 1399.35 374.241 Q1401.8 374.241 1403.17 373.018 Q1404.56 371.796 1404.56 369.614 Q1404.56 367.432 1403.17 366.21 Q1401.8 364.987 1399.35 364.987 Q1396.89 364.987 1395.52 366.21 Q1394.16 367.432 1394.16 369.614 Z" fill="#000000" fill-rule="nonzero" fill-opacity="1" /><path clip-path="url(#clip770)" d="M1415.85 389.983 L1415.85 386.522 Q1417.28 387.199 1418.74 387.557 Q1420.21 387.914 1421.62 387.914 Q1425.38 387.914 1427.36 385.394 Q1429.35 382.855 1429.63 377.701 Q1428.54 379.319 1426.87 380.184 Q1425.19 381.049 1423.16 381.049 Q1418.95 381.049 1416.49 378.51 Q1414.04 375.952 1414.04 371.532 Q1414.04 367.207 1416.6 364.592 Q1419.16 361.978 1423.41 361.978 Q1428.28 361.978 1430.84 365.721 Q1433.41 369.445 1433.41 376.554 Q1433.41 383.193 1430.25 387.162 Q1427.11 391.111 1421.79 391.111 Q1420.36 391.111 1418.89 390.829 Q1417.43 390.547 1415.85 389.983 M1423.41 378.078 Q1425.97 378.078 1427.45 376.328 Q1428.96 374.579 1428.96 371.532 Q1428.96 368.504 1427.45 366.755 Q1425.97 364.987 1423.41 364.987 Q1420.85 364.987 1419.34 366.755 Q1417.86 368.504 1417.86 371.532 Q1417.86 374.579 1419.34 376.328 Q1420.85 378.078 1423.41 378.078 Z" fill="#000000" fill-rule="nonzero" fill-opacity="1" /><path clip-path="url(#clip770)" d="M1173.48 151.174 L1189.8 151.174 L1189.8 155.11 L1167.85 155.11 L1167.85 151.174 Q1170.52 148.42 1175.1 143.79 Q1179.7 139.137 1180.89 137.795 Q1183.13 135.272 1184.01 133.536 Q1184.91 131.776 1184.91 130.087 Q1184.91 127.332 1182.97 125.596 Q1181.05 123.86 1177.95 123.86 Q1175.75 123.86 1173.29 124.624 Q1170.86 125.388 1168.08 126.938 L1168.08 122.216 Q1170.91 121.082 1173.36 120.503 Q1175.82 119.925 1177.85 119.925 Q1183.22 119.925 1186.42 122.61 Q1189.61 125.295 1189.61 129.786 Q1189.61 131.915 1188.8 133.837 Q1188.02 135.735 1185.91 138.327 Q1185.33 138.999 1182.23 142.216 Q1179.13 145.411 1173.48 151.174 Z" fill="#000000" fill-rule="nonzero" fill-opacity="1" /><path clip-path="url(#clip770)" d="M1199.61 149.23 L1204.5 149.23 L1204.5 155.11 L1199.61 155.11 L1199.61 149.23 Z" fill="#000000" fill-rule="nonzero" fill-opacity="1" /><path clip-path="url(#clip770)" d="M1214.73 120.55 L1233.08 120.55 L1233.08 124.485 L1219.01 124.485 L1219.01 132.957 Q1220.03 132.61 1221.05 132.448 Q1222.07 132.263 1223.08 132.263 Q1228.87 132.263 1232.25 135.434 Q1235.63 138.605 1235.63 144.022 Q1235.63 149.6 1232.16 152.702 Q1228.69 155.781 1222.37 155.781 Q1220.19 155.781 1217.92 155.411 Q1215.68 155.04 1213.27 154.299 L1213.27 149.6 Q1215.35 150.735 1217.58 151.29 Q1219.8 151.846 1222.27 151.846 Q1226.28 151.846 1228.62 149.739 Q1230.95 147.633 1230.95 144.022 Q1230.95 140.411 1228.62 138.304 Q1226.28 136.198 1222.27 136.198 Q1220.4 136.198 1218.52 136.614 Q1216.67 137.031 1214.73 137.911 L1214.73 120.55 Z" fill="#000000" fill-rule="nonzero" fill-opacity="1" /><path clip-path="url(#clip770)" d="M1254.84 123.628 Q1251.23 123.628 1249.4 127.193 Q1247.6 130.735 1247.6 137.864 Q1247.6 144.971 1249.4 148.536 Q1251.23 152.077 1254.84 152.077 Q1258.48 152.077 1260.28 148.536 Q1262.11 144.971 1262.11 137.864 Q1262.11 130.735 1260.28 127.193 Q1258.48 123.628 1254.84 123.628 M1254.84 119.925 Q1260.65 119.925 1263.71 124.531 Q1266.79 129.114 1266.79 137.864 Q1266.79 146.591 1263.71 151.198 Q1260.65 155.781 1254.84 155.781 Q1249.03 155.781 1245.95 151.198 Q1242.9 146.591 1242.9 137.864 Q1242.9 129.114 1245.95 124.531 Q1249.03 119.925 1254.84 119.925 Z" fill="#000000" fill-rule="nonzero" fill-opacity="1" /><path clip-path="url(#clip770)" d="M1303.18 129.647 L1292.6 140.272 L1303.18 150.85 L1300.42 153.651 L1289.8 143.026 L1279.17 153.651 L1276.44 150.85 L1287 140.272 L1276.44 129.647 L1279.17 126.846 L1289.8 137.471 L1300.42 126.846 L1303.18 129.647 Z" fill="#000000" fill-rule="nonzero" fill-opacity="1" /><path clip-path="url(#clip770)" d="M1315.54 151.174 L1323.18 151.174 L1323.18 124.809 L1314.87 126.476 L1314.87 122.216 L1323.13 120.55 L1327.81 120.55 L1327.81 151.174 L1335.44 151.174 L1335.44 155.11 L1315.54 155.11 L1315.54 151.174 Z" fill="#000000" fill-rule="nonzero" fill-opacity="1" /><path clip-path="url(#clip770)" d="M1354.89 123.628 Q1351.28 123.628 1349.45 127.193 Q1347.64 130.735 1347.64 137.864 Q1347.64 144.971 1349.45 148.536 Q1351.28 152.077 1354.89 152.077 Q1358.52 152.077 1360.33 148.536 Q1362.16 144.971 1362.16 137.864 Q1362.16 130.735 1360.33 127.193 Q1358.52 123.628 1354.89 123.628 M1354.89 119.925 Q1360.7 119.925 1363.75 124.531 Q1366.83 129.114 1366.83 137.864 Q1366.83 146.591 1363.75 151.198 Q1360.7 155.781 1354.89 155.781 Q1349.08 155.781 1346 151.198 Q1342.94 146.591 1342.94 137.864 Q1342.94 129.114 1346 124.531 Q1349.08 119.925 1354.89 119.925 Z" fill="#000000" fill-rule="nonzero" fill-opacity="1" /><path clip-path="url(#clip770)" d="M1367.38 124.502 L1373.59 124.502 L1373.59 103.08 L1366.83 104.434 L1366.83 100.973 L1373.55 99.6192 L1377.35 99.6192 L1377.35 124.502 L1383.55 124.502 L1383.55 127.699 L1367.38 127.699 L1367.38 124.502 Z" fill="#000000" fill-rule="nonzero" fill-opacity="1" /><path clip-path="url(#clip770)" d="M1399.35 114.365 Q1396.64 114.365 1395.08 115.813 Q1393.54 117.261 1393.54 119.8 Q1393.54 122.339 1395.08 123.787 Q1396.64 125.235 1399.35 125.235 Q1402.06 125.235 1403.62 123.787 Q1405.18 122.32 1405.18 119.8 Q1405.18 117.261 1403.62 115.813 Q1402.08 114.365 1399.35 114.365 M1395.55 112.747 Q1393.11 112.145 1391.74 110.471 Q1390.38 108.797 1390.38 106.39 Q1390.38 103.023 1392.77 101.067 Q1395.18 99.1114 1399.35 99.1114 Q1403.55 99.1114 1405.93 101.067 Q1408.32 103.023 1408.32 106.39 Q1408.32 108.797 1406.95 110.471 Q1405.6 112.145 1403.17 112.747 Q1405.92 113.387 1407.44 115.248 Q1408.98 117.11 1408.98 119.8 Q1408.98 123.881 1406.48 126.063 Q1404 128.245 1399.35 128.245 Q1394.71 128.245 1392.21 126.063 Q1389.72 123.881 1389.72 119.8 Q1389.72 117.11 1391.26 115.248 Q1392.81 113.387 1395.55 112.747 M1394.16 106.747 Q1394.16 108.929 1395.52 110.152 Q1396.89 111.374 1399.35 111.374 Q1401.8 111.374 1403.17 110.152 Q1404.56 108.929 1404.56 106.747 Q1404.56 104.566 1403.17 103.343 Q1401.8 102.121 1399.35 102.121 Q1396.89 102.121 1395.52 103.343 Q1394.16 104.566 1394.16 106.747 Z" fill="#000000" fill-rule="nonzero" fill-opacity="1" /><path clip-path="url(#clip770)" d="M1415.85 127.116 L1415.85 123.656 Q1417.28 124.333 1418.74 124.69 Q1420.21 125.047 1421.62 125.047 Q1425.38 125.047 1427.36 122.527 Q1429.35 119.988 1429.63 114.835 Q1428.54 116.452 1426.87 117.317 Q1425.19 118.182 1423.16 118.182 Q1418.95 118.182 1416.49 115.643 Q1414.04 113.086 1414.04 108.666 Q1414.04 104.34 1416.6 101.726 Q1419.16 99.1114 1423.41 99.1114 Q1428.28 99.1114 1430.84 102.854 Q1433.41 106.578 1433.41 113.687 Q1433.41 120.327 1430.25 124.295 Q1427.11 128.245 1421.79 128.245 Q1420.36 128.245 1418.89 127.963 Q1417.43 127.68 1415.85 127.116 M1423.41 115.211 Q1425.97 115.211 1427.45 113.462 Q1428.96 111.713 1428.96 108.666 Q1428.96 105.638 1427.45 103.889 Q1425.97 102.121 1423.41 102.121 Q1420.85 102.121 1419.34 103.889 Q1417.86 105.638 1417.86 108.666 Q1417.86 111.713 1419.34 113.462 Q1420.85 115.211 1423.41 115.211 Z" fill="#000000" fill-rule="nonzero" fill-opacity="1" /><polyline clip-path="url(#clip773)" style="stroke:#009af9; stroke-linecap:round; stroke-linejoin:round; stroke-width:4; stroke-opacity:1; fill:none" points="1494.41,1445.72 1577.75,1445.72 1661.08,1445.72 1744.42,1445.72 1827.75,1445.72 1911.08,1445.72 1994.42,87.9763 "/>
<polyline clip-path="url(#clip773)" style="stroke:#009af9; stroke-linecap:round; stroke-linejoin:round; stroke-width:4; stroke-opacity:1; fill:none" points="2244.42,1445.72 2327.76,1445.72 "/>
<path clip-path="url(#clip770)" d="M1498.86 198.898 L1722.61 198.898 L1722.61 95.2176 L1498.86 95.2176  Z" fill="#ffffff" fill-rule="evenodd" fill-opacity="1"/>
<polyline clip-path="url(#clip770)" style="stroke:#000000; stroke-linecap:round; stroke-linejoin:round; stroke-width:4; stroke-opacity:1; fill:none" points="1498.86,198.898 1722.61,198.898 1722.61,95.2176 1498.86,95.2176 1498.86,198.898 "/>
<polyline clip-path="url(#clip770)" style="stroke:#009af9; stroke-linecap:round; stroke-linejoin:round; stroke-width:4; stroke-opacity:1; fill:none" points="1508.67,147.058 1567.56,147.058 "/>
<path clip-path="url(#clip770)" d="M1595.8 139.176 L1595.8 143.203 Q1594 142.277 1592.05 141.815 Q1590.11 141.352 1588.03 141.352 Q1584.85 141.352 1583.26 142.324 Q1581.68 143.296 1581.68 145.24 Q1581.68 146.722 1582.82 147.578 Q1583.95 148.412 1587.38 149.176 L1588.84 149.5 Q1593.37 150.472 1595.27 152.254 Q1597.19 154.014 1597.19 157.185 Q1597.19 160.796 1594.32 162.902 Q1591.47 165.009 1586.47 165.009 Q1584.39 165.009 1582.12 164.592 Q1579.88 164.199 1577.38 163.388 L1577.38 158.99 Q1579.74 160.217 1582.03 160.842 Q1584.32 161.444 1586.57 161.444 Q1589.58 161.444 1591.2 160.426 Q1592.82 159.384 1592.82 157.509 Q1592.82 155.773 1591.64 154.847 Q1590.48 153.921 1586.52 153.064 L1585.04 152.717 Q1581.08 151.884 1579.32 150.171 Q1577.56 148.435 1577.56 145.426 Q1577.56 141.768 1580.15 139.778 Q1582.75 137.787 1587.52 137.787 Q1589.88 137.787 1591.96 138.134 Q1594.04 138.481 1595.8 139.176 Z" fill="#000000" fill-rule="nonzero" fill-opacity="1" /><path clip-path="url(#clip770)" d="M1608.19 131.051 L1608.19 138.412 L1616.96 138.412 L1616.96 141.722 L1608.19 141.722 L1608.19 155.796 Q1608.19 158.967 1609.04 159.87 Q1609.92 160.773 1612.59 160.773 L1616.96 160.773 L1616.96 164.338 L1612.59 164.338 Q1607.65 164.338 1605.78 162.509 Q1603.9 160.657 1603.9 155.796 L1603.9 141.722 L1600.78 141.722 L1600.78 138.412 L1603.9 138.412 L1603.9 131.051 L1608.19 131.051 Z" fill="#000000" fill-rule="nonzero" fill-opacity="1" /><path clip-path="url(#clip770)" d="M1637.59 142.393 Q1636.87 141.977 1636.01 141.791 Q1635.18 141.583 1634.16 141.583 Q1630.55 141.583 1628.6 143.944 Q1626.68 146.282 1626.68 150.68 L1626.68 164.338 L1622.4 164.338 L1622.4 138.412 L1626.68 138.412 L1626.68 142.44 Q1628.03 140.078 1630.18 138.944 Q1632.33 137.787 1635.41 137.787 Q1635.85 137.787 1636.38 137.856 Q1636.91 137.903 1637.56 138.018 L1637.59 142.393 Z" fill="#000000" fill-rule="nonzero" fill-opacity="1" /><path clip-path="url(#clip770)" d="M1663.19 150.31 L1663.19 152.393 L1643.6 152.393 Q1643.88 156.791 1646.24 159.106 Q1648.63 161.398 1652.86 161.398 Q1655.32 161.398 1657.61 160.796 Q1659.92 160.194 1662.19 158.99 L1662.19 163.018 Q1659.9 163.99 1657.49 164.5 Q1655.09 165.009 1652.61 165.009 Q1646.4 165.009 1642.77 161.398 Q1639.16 157.787 1639.16 151.629 Q1639.16 145.264 1642.59 141.537 Q1646.03 137.787 1651.87 137.787 Q1657.1 137.787 1660.13 141.166 Q1663.19 144.523 1663.19 150.31 M1658.93 149.06 Q1658.88 145.565 1656.96 143.481 Q1655.06 141.398 1651.91 141.398 Q1648.35 141.398 1646.2 143.412 Q1644.07 145.426 1643.74 149.083 L1658.93 149.06 Z" fill="#000000" fill-rule="nonzero" fill-opacity="1" /><path clip-path="url(#clip770)" d="M1686.71 139.176 L1686.71 143.203 Q1684.9 142.277 1682.96 141.815 Q1681.01 141.352 1678.93 141.352 Q1675.76 141.352 1674.16 142.324 Q1672.58 143.296 1672.58 145.24 Q1672.58 146.722 1673.72 147.578 Q1674.85 148.412 1678.28 149.176 L1679.74 149.5 Q1684.27 150.472 1686.17 152.254 Q1688.09 154.014 1688.09 157.185 Q1688.09 160.796 1685.22 162.902 Q1682.38 165.009 1677.38 165.009 Q1675.29 165.009 1673.02 164.592 Q1670.78 164.199 1668.28 163.388 L1668.28 158.99 Q1670.64 160.217 1672.93 160.842 Q1675.22 161.444 1677.47 161.444 Q1680.48 161.444 1682.1 160.426 Q1683.72 159.384 1683.72 157.509 Q1683.72 155.773 1682.54 154.847 Q1681.38 153.921 1677.42 153.064 L1675.94 152.717 Q1671.98 151.884 1670.22 150.171 Q1668.46 148.435 1668.46 145.426 Q1668.46 141.768 1671.06 139.778 Q1673.65 137.787 1678.42 137.787 Q1680.78 137.787 1682.86 138.134 Q1684.95 138.481 1686.71 139.176 Z" fill="#000000" fill-rule="nonzero" fill-opacity="1" /><path clip-path="url(#clip770)" d="M1711.4 139.176 L1711.4 143.203 Q1709.6 142.277 1707.65 141.815 Q1705.71 141.352 1703.63 141.352 Q1700.46 141.352 1698.86 142.324 Q1697.28 143.296 1697.28 145.24 Q1697.28 146.722 1698.42 147.578 Q1699.55 148.412 1702.98 149.176 L1704.44 149.5 Q1708.97 150.472 1710.87 152.254 Q1712.79 154.014 1712.79 157.185 Q1712.79 160.796 1709.92 162.902 Q1707.08 165.009 1702.08 165.009 Q1699.99 165.009 1697.72 164.592 Q1695.48 164.199 1692.98 163.388 L1692.98 158.99 Q1695.34 160.217 1697.63 160.842 Q1699.92 161.444 1702.17 161.444 Q1705.18 161.444 1706.8 160.426 Q1708.42 159.384 1708.42 157.509 Q1708.42 155.773 1707.24 154.847 Q1706.08 153.921 1702.12 153.064 L1700.64 152.717 Q1696.68 151.884 1694.92 150.171 Q1693.16 148.435 1693.16 145.426 Q1693.16 141.768 1695.76 139.778 Q1698.35 137.787 1703.12 137.787 Q1705.48 137.787 1707.56 138.134 Q1709.64 138.481 1711.4 139.176 Z" fill="#000000" fill-rule="nonzero" fill-opacity="1" /></svg>
