<?xml version="1.0" encoding="utf-8"?>
<svg xmlns="http://www.w3.org/2000/svg" xmlns:xlink="http://www.w3.org/1999/xlink" width="600" height="400" viewBox="0 0 2400 1600">
<defs>
  <clipPath id="clip620">
    <rect x="0" y="0" width="2400" height="1600"/>
  </clipPath>
</defs>
<path clip-path="url(#clip620)" d="M0 1600 L2400 1600 L2400 0 L0 0  Z" fill="#ffffff" fill-rule="evenodd" fill-opacity="1"/>
<defs>
  <clipPath id="clip621">
    <rect x="1363" y="47" width="991" height="1440"/>
  </clipPath>
</defs>
<path clip-path="url(#clip620)" d="M147.478 1486.45 L1137.06 1486.45 L1137.06 47.2441 L147.478 47.2441  Z" fill="#ffffff" fill-rule="evenodd" fill-opacity="1"/>
<defs>
  <clipPath id="clip622">
    <rect x="147" y="47" width="991" height="1440"/>
  </clipPath>
</defs>
<polyline clip-path="url(#clip622)" style="stroke:#000000; stroke-linecap:round; stroke-linejoin:round; stroke-width:2; stroke-opacity:0.1; fill:none" points="310.045,1486.45 310.045,47.2441 "/>
<polyline clip-path="url(#clip622)" style="stroke:#000000; stroke-linecap:round; stroke-linejoin:round; stroke-width:2; stroke-opacity:0.1; fill:none" points="541.837,1486.45 541.837,47.2441 "/>
<polyline clip-path="url(#clip622)" style="stroke:#000000; stroke-linecap:round; stroke-linejoin:round; stroke-width:2; stroke-opacity:0.1; fill:none" points="773.63,1486.45 773.63,47.2441 "/>
<polyline clip-path="url(#clip622)" style="stroke:#000000; stroke-linecap:round; stroke-linejoin:round; stroke-width:2; stroke-opacity:0.1; fill:none" points="1005.42,1486.45 1005.42,47.2441 "/>
<polyline clip-path="url(#clip622)" style="stroke:#000000; stroke-linecap:round; stroke-linejoin:round; stroke-width:2; stroke-opacity:0.1; fill:none" points="147.478,1337.46 1137.06,1337.46 "/>
<polyline clip-path="url(#clip622)" style="stroke:#000000; stroke-linecap:round; stroke-linejoin:round; stroke-width:2; stroke-opacity:0.1; fill:none" points="147.478,1105.67 1137.06,1105.67 "/>
<polyline clip-path="url(#clip622)" style="stroke:#000000; stroke-linecap:round; stroke-linejoin:round; stroke-width:2; stroke-opacity:0.1; fill:none" points="147.478,873.878 1137.06,873.878 "/>
<polyline clip-path="url(#clip622)" style="stroke:#000000; stroke-linecap:round; stroke-linejoin:round; stroke-width:2; stroke-opacity:0.1; fill:none" points="147.478,642.085 1137.06,642.085 "/>
<polyline clip-path="url(#clip622)" style="stroke:#000000; stroke-linecap:round; stroke-linejoin:round; stroke-width:2; stroke-opacity:0.1; fill:none" points="147.478,410.292 1137.06,410.292 "/>
<polyline clip-path="url(#clip622)" style="stroke:#000000; stroke-linecap:round; stroke-linejoin:round; stroke-width:2; stroke-opacity:0.1; fill:none" points="147.478,178.499 1137.06,178.499 "/>
<polyline clip-path="url(#clip620)" style="stroke:#000000; stroke-linecap:round; stroke-linejoin:round; stroke-width:4; stroke-opacity:1; fill:none" points="147.478,1486.45 1137.06,1486.45 "/>
<polyline clip-path="url(#clip620)" style="stroke:#000000; stroke-linecap:round; stroke-linejoin:round; stroke-width:4; stroke-opacity:1; fill:none" points="310.045,1486.45 310.045,1467.55 "/>
<polyline clip-path="url(#clip620)" style="stroke:#000000; stroke-linecap:round; stroke-linejoin:round; stroke-width:4; stroke-opacity:1; fill:none" points="541.837,1486.45 541.837,1467.55 "/>
<polyline clip-path="url(#clip620)" style="stroke:#000000; stroke-linecap:round; stroke-linejoin:round; stroke-width:4; stroke-opacity:1; fill:none" points="773.63,1486.45 773.63,1467.55 "/>
<polyline clip-path="url(#clip620)" style="stroke:#000000; stroke-linecap:round; stroke-linejoin:round; stroke-width:4; stroke-opacity:1; fill:none" points="1005.42,1486.45 1005.42,1467.55 "/>
<path clip-path="url(#clip620)" d="M279.802 1532.02 L309.478 1532.02 L309.478 1535.95 L279.802 1535.95 L279.802 1532.02 Z" fill="#000000" fill-rule="nonzero" fill-opacity="1" /><path clip-path="url(#clip620)" d="M320.38 1544.91 L328.019 1544.91 L328.019 1518.55 L319.709 1520.21 L319.709 1515.95 L327.973 1514.29 L332.649 1514.29 L332.649 1544.91 L340.288 1544.91 L340.288 1548.85 L320.38 1548.85 L320.38 1544.91 Z" fill="#000000" fill-rule="nonzero" fill-opacity="1" /><path clip-path="url(#clip620)" d="M541.837 1517.37 Q538.226 1517.37 536.398 1520.93 Q534.592 1524.47 534.592 1531.6 Q534.592 1538.71 536.398 1542.27 Q538.226 1545.82 541.837 1545.82 Q545.472 1545.82 547.277 1542.27 Q549.106 1538.71 549.106 1531.6 Q549.106 1524.47 547.277 1520.93 Q545.472 1517.37 541.837 1517.37 M541.837 1513.66 Q547.648 1513.66 550.703 1518.27 Q553.782 1522.85 553.782 1531.6 Q553.782 1540.33 550.703 1544.94 Q547.648 1549.52 541.837 1549.52 Q536.027 1549.52 532.949 1544.94 Q529.893 1540.33 529.893 1531.6 Q529.893 1522.85 532.949 1518.27 Q536.027 1513.66 541.837 1513.66 Z" fill="#000000" fill-rule="nonzero" fill-opacity="1" /><path clip-path="url(#clip620)" d="M764.012 1544.91 L771.651 1544.91 L771.651 1518.55 L763.341 1520.21 L763.341 1515.95 L771.605 1514.29 L776.281 1514.29 L776.281 1544.91 L783.92 1544.91 L783.92 1548.85 L764.012 1548.85 L764.012 1544.91 Z" fill="#000000" fill-rule="nonzero" fill-opacity="1" /><path clip-path="url(#clip620)" d="M1000.08 1544.91 L1016.4 1544.91 L1016.4 1548.85 L994.451 1548.85 L994.451 1544.91 Q997.113 1542.16 1001.7 1537.53 Q1006.3 1532.88 1007.48 1531.53 Q1009.73 1529.01 1010.61 1527.27 Q1011.51 1525.51 1011.51 1523.82 Q1011.51 1521.07 1009.57 1519.33 Q1007.65 1517.6 1004.54 1517.6 Q1002.34 1517.6 999.891 1518.36 Q997.46 1519.13 994.682 1520.68 L994.682 1515.95 Q997.506 1514.82 999.96 1514.24 Q1002.41 1513.66 1004.45 1513.66 Q1009.82 1513.66 1013.02 1516.35 Q1016.21 1519.03 1016.21 1523.52 Q1016.21 1525.65 1015.4 1527.57 Q1014.61 1529.47 1012.51 1532.07 Q1011.93 1532.74 1008.83 1535.95 Q1005.72 1539.15 1000.08 1544.91 Z" fill="#000000" fill-rule="nonzero" fill-opacity="1" /><polyline clip-path="url(#clip620)" style="stroke:#000000; stroke-linecap:round; stroke-linejoin:round; stroke-width:4; stroke-opacity:1; fill:none" points="147.478,1486.45 147.478,47.2441 "/>
<polyline clip-path="url(#clip620)" style="stroke:#000000; stroke-linecap:round; stroke-linejoin:round; stroke-width:4; stroke-opacity:1; fill:none" points="147.478,1337.46 166.376,1337.46 "/>
<polyline clip-path="url(#clip620)" style="stroke:#000000; stroke-linecap:round; stroke-linejoin:round; stroke-width:4; stroke-opacity:1; fill:none" points="147.478,1105.67 166.376,1105.67 "/>
<polyline clip-path="url(#clip620)" style="stroke:#000000; stroke-linecap:round; stroke-linejoin:round; stroke-width:4; stroke-opacity:1; fill:none" points="147.478,873.878 166.376,873.878 "/>
<polyline clip-path="url(#clip620)" style="stroke:#000000; stroke-linecap:round; stroke-linejoin:round; stroke-width:4; stroke-opacity:1; fill:none" points="147.478,642.085 166.376,642.085 "/>
<polyline clip-path="url(#clip620)" style="stroke:#000000; stroke-linecap:round; stroke-linejoin:round; stroke-width:4; stroke-opacity:1; fill:none" points="147.478,410.292 166.376,410.292 "/>
<polyline clip-path="url(#clip620)" style="stroke:#000000; stroke-linecap:round; stroke-linejoin:round; stroke-width:4; stroke-opacity:1; fill:none" points="147.478,178.499 166.376,178.499 "/>
<path clip-path="url(#clip620)" d="M51.3625 1337.91 L81.0383 1337.91 L81.0383 1341.85 L51.3625 1341.85 L51.3625 1337.91 Z" fill="#000000" fill-rule="nonzero" fill-opacity="1" /><path clip-path="url(#clip620)" d="M95.1586 1350.81 L111.478 1350.81 L111.478 1354.74 L89.5336 1354.74 L89.5336 1350.81 Q92.1956 1348.05 96.7789 1343.42 Q101.385 1338.77 102.566 1337.43 Q104.811 1334.91 105.691 1333.17 Q106.594 1331.41 106.594 1329.72 Q106.594 1326.97 104.649 1325.23 Q102.728 1323.49 99.6261 1323.49 Q97.4271 1323.49 94.9734 1324.26 Q92.5428 1325.02 89.7651 1326.57 L89.7651 1321.85 Q92.5891 1320.72 95.0428 1320.14 Q97.4965 1319.56 99.5335 1319.56 Q104.904 1319.56 108.098 1322.24 Q111.293 1324.93 111.293 1329.42 Q111.293 1331.55 110.483 1333.47 Q109.696 1335.37 107.589 1337.96 Q107.01 1338.63 103.909 1341.85 Q100.807 1345.04 95.1586 1350.81 Z" fill="#000000" fill-rule="nonzero" fill-opacity="1" /><path clip-path="url(#clip620)" d="M50.9921 1106.12 L80.6679 1106.12 L80.6679 1110.06 L50.9921 1110.06 L50.9921 1106.12 Z" fill="#000000" fill-rule="nonzero" fill-opacity="1" /><path clip-path="url(#clip620)" d="M91.5706 1119.02 L99.2095 1119.02 L99.2095 1092.65 L90.8993 1094.32 L90.8993 1090.06 L99.1632 1088.39 L103.839 1088.39 L103.839 1119.02 L111.478 1119.02 L111.478 1122.95 L91.5706 1122.95 L91.5706 1119.02 Z" fill="#000000" fill-rule="nonzero" fill-opacity="1" /><path clip-path="url(#clip620)" d="M99.5335 859.676 Q95.9224 859.676 94.0937 863.241 Q92.2882 866.783 92.2882 873.912 Q92.2882 881.019 94.0937 884.584 Q95.9224 888.125 99.5335 888.125 Q103.168 888.125 104.973 884.584 Q106.802 881.019 106.802 873.912 Q106.802 866.783 104.973 863.241 Q103.168 859.676 99.5335 859.676 M99.5335 855.973 Q105.344 855.973 108.399 860.579 Q111.478 865.162 111.478 873.912 Q111.478 882.639 108.399 887.246 Q105.344 891.829 99.5335 891.829 Q93.7234 891.829 90.6447 887.246 Q87.5892 882.639 87.5892 873.912 Q87.5892 865.162 90.6447 860.579 Q93.7234 855.973 99.5335 855.973 Z" fill="#000000" fill-rule="nonzero" fill-opacity="1" /><path clip-path="url(#clip620)" d="M91.5706 655.43 L99.2095 655.43 L99.2095 629.064 L90.8993 630.731 L90.8993 626.471 L99.1632 624.805 L103.839 624.805 L103.839 655.43 L111.478 655.43 L111.478 659.365 L91.5706 659.365 L91.5706 655.43 Z" fill="#000000" fill-rule="nonzero" fill-opacity="1" /><path clip-path="url(#clip620)" d="M95.1586 423.637 L111.478 423.637 L111.478 427.572 L89.5336 427.572 L89.5336 423.637 Q92.1956 420.882 96.7789 416.253 Q101.385 411.6 102.566 410.257 Q104.811 407.734 105.691 405.998 Q106.594 404.239 106.594 402.549 Q106.594 399.794 104.649 398.058 Q102.728 396.322 99.6261 396.322 Q97.4271 396.322 94.9734 397.086 Q92.5428 397.85 89.7651 399.401 L89.7651 394.679 Q92.5891 393.544 95.0428 392.966 Q97.4965 392.387 99.5335 392.387 Q104.904 392.387 108.098 395.072 Q111.293 397.757 111.293 402.248 Q111.293 404.378 110.483 406.299 Q109.696 408.197 107.589 410.79 Q107.01 411.461 103.909 414.679 Q100.807 417.873 95.1586 423.637 Z" fill="#000000" fill-rule="nonzero" fill-opacity="1" /><path clip-path="url(#clip620)" d="M104.348 177.145 Q107.705 177.863 109.58 180.131 Q111.478 182.4 111.478 185.733 Q111.478 190.849 107.959 193.65 Q104.441 196.451 97.9595 196.451 Q95.7836 196.451 93.4688 196.011 Q91.1771 195.594 88.7234 194.738 L88.7234 190.224 Q90.6678 191.358 92.9826 191.937 Q95.2974 192.515 97.8206 192.515 Q102.219 192.515 104.51 190.779 Q106.825 189.043 106.825 185.733 Q106.825 182.677 104.672 180.964 Q102.543 179.228 98.7234 179.228 L94.6956 179.228 L94.6956 175.386 L98.9085 175.386 Q102.358 175.386 104.186 174.02 Q106.015 172.631 106.015 170.039 Q106.015 167.377 104.117 165.965 Q102.242 164.529 98.7234 164.529 Q96.8021 164.529 94.603 164.946 Q92.4039 165.363 89.7651 166.242 L89.7651 162.076 Q92.4271 161.335 94.7419 160.965 Q97.0798 160.594 99.14 160.594 Q104.464 160.594 107.566 163.025 Q110.668 165.432 110.668 169.553 Q110.668 172.423 109.024 174.414 Q107.381 176.381 104.348 177.145 Z" fill="#000000" fill-rule="nonzero" fill-opacity="1" /><polyline clip-path="url(#clip622)" style="stroke:#000000; stroke-linecap:round; stroke-linejoin:round; stroke-width:4; stroke-opacity:1; fill:none" points="642.51,767.087 391.607,357.532 "/>
<polyline clip-path="url(#clip622)" style="stroke:#000000; stroke-linecap:round; stroke-linejoin:round; stroke-width:4; stroke-opacity:1; fill:none" points="642.51,767.087 199.058,583.552 "/>
<polyline clip-path="url(#clip622)" style="stroke:#000000; stroke-linecap:round; stroke-linejoin:round; stroke-width:4; stroke-opacity:1; fill:none" points="642.51,767.087 175.485,879.609 "/>
<polyline clip-path="url(#clip622)" style="stroke:#000000; stroke-linecap:round; stroke-linejoin:round; stroke-width:4; stroke-opacity:1; fill:none" points="642.51,767.087 330.845,1132.7 "/>
<polyline clip-path="url(#clip622)" style="stroke:#000000; stroke-linecap:round; stroke-linejoin:round; stroke-width:4; stroke-opacity:1; fill:none" points="642.51,767.087 605.3,1246.09 "/>
<polyline clip-path="url(#clip622)" style="stroke:#000000; stroke-linecap:round; stroke-linejoin:round; stroke-width:4; stroke-opacity:1; fill:none" points="642.51,767.087 893.959,1176.67 "/>
<polyline clip-path="url(#clip622)" style="stroke:#000000; stroke-linecap:round; stroke-linejoin:round; stroke-width:4; stroke-opacity:1; fill:none" points="642.51,767.087 1086.32,950.568 "/>
<polyline clip-path="url(#clip622)" style="stroke:#000000; stroke-linecap:round; stroke-linejoin:round; stroke-width:4; stroke-opacity:1; fill:none" points="642.51,767.087 1109.05,654.55 "/>
<polyline clip-path="url(#clip622)" style="stroke:#000000; stroke-linecap:round; stroke-linejoin:round; stroke-width:4; stroke-opacity:1; fill:none" points="642.51,767.087 953.847,401.525 "/>
<polyline clip-path="url(#clip622)" style="stroke:#000000; stroke-linecap:round; stroke-linejoin:round; stroke-width:4; stroke-opacity:1; fill:none" points="642.51,767.087 679.931,287.607 "/>
<polyline clip-path="url(#clip622)" style="stroke:#000000; stroke-linecap:round; stroke-linejoin:round; stroke-width:4; stroke-opacity:1; fill:none" points="391.607,357.532 199.058,583.552 "/>
<polyline clip-path="url(#clip622)" style="stroke:#000000; stroke-linecap:round; stroke-linejoin:round; stroke-width:4; stroke-opacity:1; fill:none" points="391.607,357.532 679.931,287.607 "/>
<polyline clip-path="url(#clip622)" style="stroke:#000000; stroke-linecap:round; stroke-linejoin:round; stroke-width:4; stroke-opacity:1; fill:none" points="199.058,583.552 175.485,879.609 "/>
<polyline clip-path="url(#clip622)" style="stroke:#000000; stroke-linecap:round; stroke-linejoin:round; stroke-width:4; stroke-opacity:1; fill:none" points="175.485,879.609 330.845,1132.7 "/>
<polyline clip-path="url(#clip622)" style="stroke:#000000; stroke-linecap:round; stroke-linejoin:round; stroke-width:4; stroke-opacity:1; fill:none" points="330.845,1132.7 605.3,1246.09 "/>
<polyline clip-path="url(#clip622)" style="stroke:#000000; stroke-linecap:round; stroke-linejoin:round; stroke-width:4; stroke-opacity:1; fill:none" points="605.3,1246.09 893.959,1176.67 "/>
<polyline clip-path="url(#clip622)" style="stroke:#000000; stroke-linecap:round; stroke-linejoin:round; stroke-width:4; stroke-opacity:1; fill:none" points="893.959,1176.67 1086.32,950.568 "/>
<polyline clip-path="url(#clip622)" style="stroke:#000000; stroke-linecap:round; stroke-linejoin:round; stroke-width:4; stroke-opacity:1; fill:none" points="1086.32,950.568 1109.05,654.55 "/>
<polyline clip-path="url(#clip622)" style="stroke:#000000; stroke-linecap:round; stroke-linejoin:round; stroke-width:4; stroke-opacity:1; fill:none" points="1109.05,654.55 953.847,401.525 "/>
<polyline clip-path="url(#clip622)" style="stroke:#000000; stroke-linecap:round; stroke-linejoin:round; stroke-width:4; stroke-opacity:1; fill:none" points="953.847,401.525 679.931,287.607 "/>
<circle clip-path="url(#clip622)" cx="642.51" cy="767.087" r="18" fill="#0000ff" fill-rule="evenodd" fill-opacity="1" stroke="#000000" stroke-opacity="1" stroke-width="3.2"/>
<circle clip-path="url(#clip622)" cx="391.607" cy="357.532" r="18" fill="#0000ff" fill-rule="evenodd" fill-opacity="1" stroke="#000000" stroke-opacity="1" stroke-width="3.2"/>
<circle clip-path="url(#clip622)" cx="199.058" cy="583.552" r="18" fill="#0000ff" fill-rule="evenodd" fill-opacity="1" stroke="#000000" stroke-opacity="1" stroke-width="3.2"/>
<circle clip-path="url(#clip622)" cx="175.485" cy="879.609" r="18" fill="#0000ff" fill-rule="evenodd" fill-opacity="1" stroke="#000000" stroke-opacity="1" stroke-width="3.2"/>
<circle clip-path="url(#clip622)" cx="330.845" cy="1132.7" r="18" fill="#0000ff" fill-rule="evenodd" fill-opacity="1" stroke="#000000" stroke-opacity="1" stroke-width="3.2"/>
<circle clip-path="url(#clip622)" cx="605.3" cy="1246.09" r="18" fill="#0000ff" fill-rule="evenodd" fill-opacity="1" stroke="#000000" stroke-opacity="1" stroke-width="3.2"/>
<circle clip-path="url(#clip622)" cx="893.959" cy="1176.67" r="18" fill="#0000ff" fill-rule="evenodd" fill-opacity="1" stroke="#000000" stroke-opacity="1" stroke-width="3.2"/>
<circle clip-path="url(#clip622)" cx="1086.32" cy="950.568" r="18" fill="#0000ff" fill-rule="evenodd" fill-opacity="1" stroke="#000000" stroke-opacity="1" stroke-width="3.2"/>
<circle clip-path="url(#clip622)" cx="1109.05" cy="654.55" r="18" fill="#0000ff" fill-rule="evenodd" fill-opacity="1" stroke="#000000" stroke-opacity="1" stroke-width="3.2"/>
<circle clip-path="url(#clip622)" cx="953.847" cy="401.525" r="18" fill="#0000ff" fill-rule="evenodd" fill-opacity="1" stroke="#000000" stroke-opacity="1" stroke-width="3.2"/>
<circle clip-path="url(#clip622)" cx="679.931" cy="287.607" r="18" fill="#0000ff" fill-rule="evenodd" fill-opacity="1" stroke="#000000" stroke-opacity="1" stroke-width="3.2"/>
<path clip-path="url(#clip620)" d="M1363.17 1486.45 L2352.76 1486.45 L2352.76 47.2441 L1363.17 47.2441  Z" fill="#ffffff" fill-rule="evenodd" fill-opacity="1"/>
<polyline clip-path="url(#clip621)" style="stroke:#000000; stroke-linecap:round; stroke-linejoin:round; stroke-width:2; stroke-opacity:0.1; fill:none" points="1388.99,1486.45 1388.99,47.2441 "/>
<polyline clip-path="url(#clip621)" style="stroke:#000000; stroke-linecap:round; stroke-linejoin:round; stroke-width:2; stroke-opacity:0.1; fill:none" points="1607.63,1486.45 1607.63,47.2441 "/>
<polyline clip-path="url(#clip621)" style="stroke:#000000; stroke-linecap:round; stroke-linejoin:round; stroke-width:2; stroke-opacity:0.1; fill:none" points="1826.26,1486.45 1826.26,47.2441 "/>
<polyline clip-path="url(#clip621)" style="stroke:#000000; stroke-linecap:round; stroke-linejoin:round; stroke-width:2; stroke-opacity:0.1; fill:none" points="2044.9,1486.45 2044.9,47.2441 "/>
<polyline clip-path="url(#clip621)" style="stroke:#000000; stroke-linecap:round; stroke-linejoin:round; stroke-width:2; stroke-opacity:0.1; fill:none" points="2263.53,1486.45 2263.53,47.2441 "/>
<polyline clip-path="url(#clip621)" style="stroke:#000000; stroke-linecap:round; stroke-linejoin:round; stroke-width:2; stroke-opacity:0.1; fill:none" points="1363.17,1231.29 2352.76,1231.29 "/>
<polyline clip-path="url(#clip621)" style="stroke:#000000; stroke-linecap:round; stroke-linejoin:round; stroke-width:2; stroke-opacity:0.1; fill:none" points="1363.17,907.752 2352.76,907.752 "/>
<polyline clip-path="url(#clip621)" style="stroke:#000000; stroke-linecap:round; stroke-linejoin:round; stroke-width:2; stroke-opacity:0.1; fill:none" points="1363.17,584.218 2352.76,584.218 "/>
<polyline clip-path="url(#clip621)" style="stroke:#000000; stroke-linecap:round; stroke-linejoin:round; stroke-width:2; stroke-opacity:0.1; fill:none" points="1363.17,260.685 2352.76,260.685 "/>
<polyline clip-path="url(#clip620)" style="stroke:#000000; stroke-linecap:round; stroke-linejoin:round; stroke-width:4; stroke-opacity:1; fill:none" points="1363.17,1486.45 2352.76,1486.45 "/>
<polyline clip-path="url(#clip620)" style="stroke:#000000; stroke-linecap:round; stroke-linejoin:round; stroke-width:4; stroke-opacity:1; fill:none" points="1388.99,1486.45 1388.99,1467.55 "/>
<polyline clip-path="url(#clip620)" style="stroke:#000000; stroke-linecap:round; stroke-linejoin:round; stroke-width:4; stroke-opacity:1; fill:none" points="1607.63,1486.45 1607.63,1467.55 "/>
<polyline clip-path="url(#clip620)" style="stroke:#000000; stroke-linecap:round; stroke-linejoin:round; stroke-width:4; stroke-opacity:1; fill:none" points="1826.26,1486.45 1826.26,1467.55 "/>
<polyline clip-path="url(#clip620)" style="stroke:#000000; stroke-linecap:round; stroke-linejoin:round; stroke-width:4; stroke-opacity:1; fill:none" points="2044.9,1486.45 2044.9,1467.55 "/>
<polyline clip-path="url(#clip620)" style="stroke:#000000; stroke-linecap:round; stroke-linejoin:round; stroke-width:4; stroke-opacity:1; fill:none" points="2263.53,1486.45 2263.53,1467.55 "/>
<path clip-path="url(#clip620)" d="M1388.99 1517.37 Q1385.38 1517.37 1383.55 1520.93 Q1381.75 1524.47 1381.75 1531.6 Q1381.75 1538.71 1383.55 1542.27 Q1385.38 1545.82 1388.99 1545.82 Q1392.63 1545.82 1394.43 1542.27 Q1396.26 1538.71 1396.26 1531.6 Q1396.26 1524.47 1394.43 1520.93 Q1392.63 1517.37 1388.99 1517.37 M1388.99 1513.66 Q1394.8 1513.66 1397.86 1518.27 Q1400.94 1522.85 1400.94 1531.6 Q1400.94 1540.33 1397.86 1544.94 Q1394.8 1549.52 1388.99 1549.52 Q1383.18 1549.52 1380.1 1544.94 Q1377.05 1540.33 1377.05 1531.6 Q1377.05 1522.85 1380.1 1518.27 Q1383.18 1513.66 1388.99 1513.66 Z" fill="#000000" fill-rule="nonzero" fill-opacity="1" /><path clip-path="url(#clip620)" d="M1567.23 1544.91 L1574.87 1544.91 L1574.87 1518.55 L1566.56 1520.21 L1566.56 1515.95 L1574.83 1514.29 L1579.5 1514.29 L1579.5 1544.91 L1587.14 1544.91 L1587.14 1548.85 L1567.23 1548.85 L1567.23 1544.91 Z" fill="#000000" fill-rule="nonzero" fill-opacity="1" /><path clip-path="url(#clip620)" d="M1606.59 1517.37 Q1602.97 1517.37 1601.15 1520.93 Q1599.34 1524.47 1599.34 1531.6 Q1599.34 1538.71 1601.15 1542.27 Q1602.97 1545.82 1606.59 1545.82 Q1610.22 1545.82 1612.03 1542.27 Q1613.85 1538.71 1613.85 1531.6 Q1613.85 1524.47 1612.03 1520.93 Q1610.22 1517.37 1606.59 1517.37 M1606.59 1513.66 Q1612.4 1513.66 1615.45 1518.27 Q1618.53 1522.85 1618.53 1531.6 Q1618.53 1540.33 1615.45 1544.94 Q1612.4 1549.52 1606.59 1549.52 Q1600.78 1549.52 1597.7 1544.94 Q1594.64 1540.33 1594.64 1531.6 Q1594.64 1522.85 1597.7 1518.27 Q1600.78 1513.66 1606.59 1513.66 Z" fill="#000000" fill-rule="nonzero" fill-opacity="1" /><path clip-path="url(#clip620)" d="M1636.75 1517.37 Q1633.14 1517.37 1631.31 1520.93 Q1629.5 1524.47 1629.5 1531.6 Q1629.5 1538.71 1631.31 1542.27 Q1633.14 1545.82 1636.75 1545.82 Q1640.38 1545.82 1642.19 1542.27 Q1644.02 1538.71 1644.02 1531.6 Q1644.02 1524.47 1642.19 1520.93 Q1640.38 1517.37 1636.75 1517.37 M1636.75 1513.66 Q1642.56 1513.66 1645.61 1518.27 Q1648.69 1522.85 1648.69 1531.6 Q1648.69 1540.33 1645.61 1544.94 Q1642.56 1549.52 1636.75 1549.52 Q1630.94 1549.52 1627.86 1544.94 Q1624.8 1540.33 1624.8 1531.6 Q1624.8 1522.85 1627.86 1518.27 Q1630.94 1513.66 1636.75 1513.66 Z" fill="#000000" fill-rule="nonzero" fill-opacity="1" /><path clip-path="url(#clip620)" d="M1789.95 1544.91 L1806.27 1544.91 L1806.27 1548.85 L1784.33 1548.85 L1784.33 1544.91 Q1786.99 1542.16 1791.57 1537.53 Q1796.18 1532.88 1797.36 1531.53 Q1799.61 1529.01 1800.49 1527.27 Q1801.39 1525.51 1801.39 1523.82 Q1801.39 1521.07 1799.45 1519.33 Q1797.52 1517.6 1794.42 1517.6 Q1792.22 1517.6 1789.77 1518.36 Q1787.34 1519.13 1784.56 1520.68 L1784.56 1515.95 Q1787.38 1514.82 1789.84 1514.24 Q1792.29 1513.66 1794.33 1513.66 Q1799.7 1513.66 1802.89 1516.35 Q1806.09 1519.03 1806.09 1523.52 Q1806.09 1525.65 1805.28 1527.57 Q1804.49 1529.47 1802.38 1532.07 Q1801.81 1532.74 1798.7 1535.95 Q1795.6 1539.15 1789.95 1544.91 Z" fill="#000000" fill-rule="nonzero" fill-opacity="1" /><path clip-path="url(#clip620)" d="M1826.09 1517.37 Q1822.48 1517.37 1820.65 1520.93 Q1818.84 1524.47 1818.84 1531.6 Q1818.84 1538.71 1820.65 1542.27 Q1822.48 1545.82 1826.09 1545.82 Q1829.72 1545.82 1831.53 1542.27 Q1833.36 1538.71 1833.36 1531.6 Q1833.36 1524.47 1831.53 1520.93 Q1829.72 1517.37 1826.09 1517.37 M1826.09 1513.66 Q1831.9 1513.66 1834.95 1518.27 Q1838.03 1522.85 1838.03 1531.6 Q1838.03 1540.33 1834.95 1544.94 Q1831.9 1549.52 1826.09 1549.52 Q1820.28 1549.52 1817.2 1544.94 Q1814.14 1540.33 1814.14 1531.6 Q1814.14 1522.85 1817.2 1518.27 Q1820.28 1513.66 1826.09 1513.66 Z" fill="#000000" fill-rule="nonzero" fill-opacity="1" /><path clip-path="url(#clip620)" d="M1856.25 1517.37 Q1852.64 1517.37 1850.81 1520.93 Q1849.01 1524.47 1849.01 1531.6 Q1849.01 1538.71 1850.81 1542.27 Q1852.64 1545.82 1856.25 1545.82 Q1859.88 1545.82 1861.69 1542.27 Q1863.52 1538.71 1863.52 1531.6 Q1863.52 1524.47 1861.69 1520.93 Q1859.88 1517.37 1856.25 1517.37 M1856.25 1513.66 Q1862.06 1513.66 1865.12 1518.27 Q1868.19 1522.85 1868.19 1531.6 Q1868.19 1540.33 1865.12 1544.94 Q1862.06 1549.52 1856.25 1549.52 Q1850.44 1549.52 1847.36 1544.94 Q1844.31 1540.33 1844.31 1531.6 Q1844.31 1522.85 1847.36 1518.27 Q1850.44 1513.66 1856.25 1513.66 Z" fill="#000000" fill-rule="nonzero" fill-opacity="1" /><path clip-path="url(#clip620)" d="M2018.66 1530.21 Q2022.01 1530.93 2023.89 1533.2 Q2025.79 1535.47 2025.79 1538.8 Q2025.79 1543.92 2022.27 1546.72 Q2018.75 1549.52 2012.27 1549.52 Q2010.09 1549.52 2007.78 1549.08 Q2005.49 1548.66 2003.03 1547.81 L2003.03 1543.29 Q2004.98 1544.43 2007.29 1545.01 Q2009.61 1545.58 2012.13 1545.58 Q2016.53 1545.58 2018.82 1543.85 Q2021.14 1542.11 2021.14 1538.8 Q2021.14 1535.75 2018.98 1534.03 Q2016.85 1532.3 2013.03 1532.3 L2009.01 1532.3 L2009.01 1528.45 L2013.22 1528.45 Q2016.67 1528.45 2018.5 1527.09 Q2020.32 1525.7 2020.32 1523.11 Q2020.32 1520.45 2018.43 1519.03 Q2016.55 1517.6 2013.03 1517.6 Q2011.11 1517.6 2008.91 1518.01 Q2006.71 1518.43 2004.08 1519.31 L2004.08 1515.14 Q2006.74 1514.4 2009.05 1514.03 Q2011.39 1513.66 2013.45 1513.66 Q2018.77 1513.66 2021.88 1516.09 Q2024.98 1518.5 2024.98 1522.62 Q2024.98 1525.49 2023.33 1527.48 Q2021.69 1529.45 2018.66 1530.21 Z" fill="#000000" fill-rule="nonzero" fill-opacity="1" /><path clip-path="url(#clip620)" d="M2044.65 1517.37 Q2041.04 1517.37 2039.21 1520.93 Q2037.41 1524.47 2037.41 1531.6 Q2037.41 1538.71 2039.21 1542.27 Q2041.04 1545.82 2044.65 1545.82 Q2048.29 1545.82 2050.09 1542.27 Q2051.92 1538.71 2051.92 1531.6 Q2051.92 1524.47 2050.09 1520.93 Q2048.29 1517.37 2044.65 1517.37 M2044.65 1513.66 Q2050.46 1513.66 2053.52 1518.27 Q2056.6 1522.85 2056.6 1531.6 Q2056.6 1540.33 2053.52 1544.94 Q2050.46 1549.52 2044.65 1549.52 Q2038.84 1549.52 2035.76 1544.94 Q2032.71 1540.33 2032.71 1531.6 Q2032.71 1522.85 2035.76 1518.27 Q2038.84 1513.66 2044.65 1513.66 Z" fill="#000000" fill-rule="nonzero" fill-opacity="1" /><path clip-path="url(#clip620)" d="M2074.82 1517.37 Q2071.2 1517.37 2069.38 1520.93 Q2067.57 1524.47 2067.57 1531.6 Q2067.57 1538.71 2069.38 1542.27 Q2071.2 1545.82 2074.82 1545.82 Q2078.45 1545.82 2080.26 1542.27 Q2082.08 1538.71 2082.08 1531.6 Q2082.08 1524.47 2080.26 1520.93 Q2078.45 1517.37 2074.82 1517.37 M2074.82 1513.66 Q2080.63 1513.66 2083.68 1518.27 Q2086.76 1522.85 2086.76 1531.6 Q2086.76 1540.33 2083.68 1544.94 Q2080.63 1549.52 2074.82 1549.52 Q2069.01 1549.52 2065.93 1544.94 Q2062.87 1540.33 2062.87 1531.6 Q2062.87 1522.85 2065.93 1518.27 Q2069.01 1513.66 2074.82 1513.66 Z" fill="#000000" fill-rule="nonzero" fill-opacity="1" /><path clip-path="url(#clip620)" d="M2236.62 1518.36 L2224.82 1536.81 L2236.62 1536.81 L2236.62 1518.36 M2235.39 1514.29 L2241.27 1514.29 L2241.27 1536.81 L2246.2 1536.81 L2246.2 1540.7 L2241.27 1540.7 L2241.27 1548.85 L2236.62 1548.85 L2236.62 1540.7 L2221.02 1540.7 L2221.02 1536.19 L2235.39 1514.29 Z" fill="#000000" fill-rule="nonzero" fill-opacity="1" /><path clip-path="url(#clip620)" d="M2263.94 1517.37 Q2260.33 1517.37 2258.5 1520.93 Q2256.69 1524.47 2256.69 1531.6 Q2256.69 1538.71 2258.5 1542.27 Q2260.33 1545.82 2263.94 1545.82 Q2267.57 1545.82 2269.38 1542.27 Q2271.2 1538.71 2271.2 1531.6 Q2271.2 1524.47 2269.38 1520.93 Q2267.57 1517.37 2263.94 1517.37 M2263.94 1513.66 Q2269.75 1513.66 2272.8 1518.27 Q2275.88 1522.85 2275.88 1531.6 Q2275.88 1540.33 2272.8 1544.94 Q2269.75 1549.52 2263.94 1549.52 Q2258.13 1549.52 2255.05 1544.94 Q2251.99 1540.33 2251.99 1531.6 Q2251.99 1522.85 2255.05 1518.27 Q2258.13 1513.66 2263.94 1513.66 Z" fill="#000000" fill-rule="nonzero" fill-opacity="1" /><path clip-path="url(#clip620)" d="M2294.1 1517.37 Q2290.49 1517.37 2288.66 1520.93 Q2286.85 1524.47 2286.85 1531.6 Q2286.85 1538.71 2288.66 1542.27 Q2290.49 1545.82 2294.1 1545.82 Q2297.73 1545.82 2299.54 1542.27 Q2301.37 1538.71 2301.37 1531.6 Q2301.37 1524.47 2299.54 1520.93 Q2297.73 1517.37 2294.1 1517.37 M2294.1 1513.66 Q2299.91 1513.66 2302.96 1518.27 Q2306.04 1522.85 2306.04 1531.6 Q2306.04 1540.33 2302.96 1544.94 Q2299.91 1549.52 2294.1 1549.52 Q2288.29 1549.52 2285.21 1544.94 Q2282.15 1540.33 2282.15 1531.6 Q2282.15 1522.85 2285.21 1518.27 Q2288.29 1513.66 2294.1 1513.66 Z" fill="#000000" fill-rule="nonzero" fill-opacity="1" /><polyline clip-path="url(#clip620)" style="stroke:#000000; stroke-linecap:round; stroke-linejoin:round; stroke-width:4; stroke-opacity:1; fill:none" points="1363.17,1486.45 1363.17,47.2441 "/>
<polyline clip-path="url(#clip620)" style="stroke:#000000; stroke-linecap:round; stroke-linejoin:round; stroke-width:4; stroke-opacity:1; fill:none" points="1363.17,1231.29 1382.07,1231.29 "/>
<polyline clip-path="url(#clip620)" style="stroke:#000000; stroke-linecap:round; stroke-linejoin:round; stroke-width:4; stroke-opacity:1; fill:none" points="1363.17,907.752 1382.07,907.752 "/>
<polyline clip-path="url(#clip620)" style="stroke:#000000; stroke-linecap:round; stroke-linejoin:round; stroke-width:4; stroke-opacity:1; fill:none" points="1363.17,584.218 1382.07,584.218 "/>
<polyline clip-path="url(#clip620)" style="stroke:#000000; stroke-linecap:round; stroke-linejoin:round; stroke-width:4; stroke-opacity:1; fill:none" points="1363.17,260.685 1382.07,260.685 "/>
<path clip-path="url(#clip620)" d="M1235.3 1231.74 L1264.97 1231.74 L1264.97 1235.67 L1235.3 1235.67 L1235.3 1231.74 Z" fill="#000000" fill-rule="nonzero" fill-opacity="1" /><path clip-path="url(#clip620)" d="M1279.09 1244.63 L1295.41 1244.63 L1295.41 1248.57 L1273.47 1248.57 L1273.47 1244.63 Q1276.13 1241.88 1280.71 1237.25 Q1285.32 1232.59 1286.5 1231.25 Q1288.75 1228.73 1289.63 1226.99 Q1290.53 1225.23 1290.53 1223.54 Q1290.53 1220.79 1288.58 1219.05 Q1286.66 1217.32 1283.56 1217.32 Q1281.36 1217.32 1278.91 1218.08 Q1276.48 1218.84 1273.7 1220.39 L1273.7 1215.67 Q1276.52 1214.54 1278.98 1213.96 Q1281.43 1213.38 1283.47 1213.38 Q1288.84 1213.38 1292.03 1216.07 Q1295.23 1218.75 1295.23 1223.24 Q1295.23 1225.37 1294.42 1227.29 Q1293.63 1229.19 1291.52 1231.78 Q1290.95 1232.45 1287.84 1235.67 Q1284.74 1238.87 1279.09 1244.63 Z" fill="#000000" fill-rule="nonzero" fill-opacity="1" /><path clip-path="url(#clip620)" d="M1315.23 1217.08 Q1311.62 1217.08 1309.79 1220.65 Q1307.98 1224.19 1307.98 1231.32 Q1307.98 1238.43 1309.79 1241.99 Q1311.62 1245.53 1315.23 1245.53 Q1318.86 1245.53 1320.67 1241.99 Q1322.5 1238.43 1322.5 1231.32 Q1322.5 1224.19 1320.67 1220.65 Q1318.86 1217.08 1315.23 1217.08 M1315.23 1213.38 Q1321.04 1213.38 1324.09 1217.99 Q1327.17 1222.57 1327.17 1231.32 Q1327.17 1240.05 1324.09 1244.65 Q1321.04 1249.24 1315.23 1249.24 Q1309.42 1249.24 1306.34 1244.65 Q1303.28 1240.05 1303.28 1231.32 Q1303.28 1222.57 1306.34 1217.99 Q1309.42 1213.38 1315.23 1213.38 Z" fill="#000000" fill-rule="nonzero" fill-opacity="1" /><path clip-path="url(#clip620)" d="M1315.23 893.551 Q1311.62 893.551 1309.79 897.115 Q1307.98 900.657 1307.98 907.787 Q1307.98 914.893 1309.79 918.458 Q1311.62 922 1315.23 922 Q1318.86 922 1320.67 918.458 Q1322.5 914.893 1322.5 907.787 Q1322.5 900.657 1320.67 897.115 Q1318.86 893.551 1315.23 893.551 M1315.23 889.847 Q1321.04 889.847 1324.09 894.453 Q1327.17 899.037 1327.17 907.787 Q1327.17 916.513 1324.09 921.12 Q1321.04 925.703 1315.23 925.703 Q1309.42 925.703 1306.34 921.12 Q1303.28 916.513 1303.28 907.787 Q1303.28 899.037 1306.34 894.453 Q1309.42 889.847 1315.23 889.847 Z" fill="#000000" fill-rule="nonzero" fill-opacity="1" /><path clip-path="url(#clip620)" d="M1279.09 597.563 L1295.41 597.563 L1295.41 601.498 L1273.47 601.498 L1273.47 597.563 Q1276.13 594.809 1280.71 590.179 Q1285.32 585.526 1286.5 584.184 Q1288.75 581.661 1289.63 579.924 Q1290.53 578.165 1290.53 576.475 Q1290.53 573.721 1288.58 571.985 Q1286.66 570.249 1283.56 570.249 Q1281.36 570.249 1278.91 571.012 Q1276.48 571.776 1273.7 573.327 L1273.7 568.605 Q1276.52 567.471 1278.98 566.892 Q1281.43 566.313 1283.47 566.313 Q1288.84 566.313 1292.03 568.999 Q1295.23 571.684 1295.23 576.175 Q1295.23 578.304 1294.42 580.225 Q1293.63 582.124 1291.52 584.716 Q1290.95 585.387 1287.84 588.605 Q1284.74 591.799 1279.09 597.563 Z" fill="#000000" fill-rule="nonzero" fill-opacity="1" /><path clip-path="url(#clip620)" d="M1315.23 570.017 Q1311.62 570.017 1309.79 573.582 Q1307.98 577.124 1307.98 584.253 Q1307.98 591.36 1309.79 594.924 Q1311.62 598.466 1315.23 598.466 Q1318.86 598.466 1320.67 594.924 Q1322.5 591.36 1322.5 584.253 Q1322.5 577.124 1320.67 573.582 Q1318.86 570.017 1315.23 570.017 M1315.23 566.313 Q1321.04 566.313 1324.09 570.92 Q1327.17 575.503 1327.17 584.253 Q1327.17 592.98 1324.09 597.586 Q1321.04 602.17 1315.23 602.17 Q1309.42 602.17 1306.34 597.586 Q1303.28 592.98 1303.28 584.253 Q1303.28 575.503 1306.34 570.92 Q1309.42 566.313 1315.23 566.313 Z" fill="#000000" fill-rule="nonzero" fill-opacity="1" /><path clip-path="url(#clip620)" d="M1287.91 247.479 L1276.11 265.928 L1287.91 265.928 L1287.91 247.479 M1286.69 243.405 L1292.57 243.405 L1292.57 265.928 L1297.5 265.928 L1297.5 269.817 L1292.57 269.817 L1292.57 277.965 L1287.91 277.965 L1287.91 269.817 L1272.31 269.817 L1272.31 265.303 L1286.69 243.405 Z" fill="#000000" fill-rule="nonzero" fill-opacity="1" /><path clip-path="url(#clip620)" d="M1315.23 246.484 Q1311.62 246.484 1309.79 250.048 Q1307.98 253.59 1307.98 260.72 Q1307.98 267.826 1309.79 271.391 Q1311.62 274.933 1315.23 274.933 Q1318.86 274.933 1320.67 271.391 Q1322.5 267.826 1322.5 260.72 Q1322.5 253.59 1320.67 250.048 Q1318.86 246.484 1315.23 246.484 M1315.23 242.78 Q1321.04 242.78 1324.09 247.386 Q1327.17 251.97 1327.17 260.72 Q1327.17 269.447 1324.09 274.053 Q1321.04 278.636 1315.23 278.636 Q1309.42 278.636 1306.34 274.053 Q1303.28 269.447 1303.28 260.72 Q1303.28 251.97 1306.34 247.386 Q1309.42 242.78 1315.23 242.78 Z" fill="#000000" fill-rule="nonzero" fill-opacity="1" /><polyline clip-path="url(#clip621)" style="stroke:#009af9; stroke-linecap:round; stroke-linejoin:round; stroke-width:4; stroke-opacity:1; fill:none" points="1391.18,87.9763 1393.37,497.921 1395.55,649.679 1397.74,737.429 1399.92,800.455 1402.11,848.605 1404.3,886.891 1406.48,918.261 1408.67,944.592 1410.86,967.142 1413.04,986.784 1415.23,1004.14 1417.42,1019.68 1419.6,1033.73 1421.79,1046.57 1423.97,1058.4 1426.16,1069.37 1428.35,1079.62 1430.53,1089.26 1432.72,1098.36 1434.91,1107.01 1437.09,1115.26 1439.28,1123.16 1441.47,1130.75 1443.65,1138.07 1445.84,1145.15 1448.02,1152 1450.21,1158.66 1452.4,1165.12 1454.58,1171.39 1456.77,1177.47 1458.96,1183.37 1461.14,1189.09 1463.33,1194.61 1465.52,1199.93 1467.7,1205.06 1469.89,1210 1472.07,1214.73 1474.26,1219.28 1476.45,1223.64 1478.63,1227.83 1480.82,1231.84 1483.01,1235.68 1485.19,1239.37 1487.38,1242.91 1489.56,1246.3 1491.75,1249.57 1493.94,1252.7 1496.12,1255.71 1498.31,1258.61 1500.5,1261.39 1502.68,1264.07 1504.87,1266.65 1507.06,1269.13 1509.24,1271.52 1511.43,1273.82 1513.61,1276.04 1515.8,1278.17 1517.99,1280.23 1520.17,1282.22 1522.36,1284.13 1524.55,1285.98 1526.73,1287.76 1528.92,1289.48 1531.11,1291.15 1533.29,1292.76 1535.48,1294.31 1537.66,1295.82 1539.85,1297.29 1542.04,1298.71 1544.22,1300.09 1546.41,1301.43 1548.6,1302.74 1550.78,1304.02 1552.97,1305.26 1555.16,1306.48 1557.34,1307.67 1559.53,1308.83 1561.71,1309.97 1563.9,1311.09 1566.09,1312.2 1568.27,1313.28 1570.46,1314.35 1572.65,1315.4 1574.83,1316.43 1577.02,1317.46 1579.21,1318.47 1581.39,1319.47 1583.58,1320.46 1585.76,1321.45 1587.95,1322.42 1590.14,1323.38 1592.32,1324.34 1594.51,1325.29 1596.7,1326.23 1598.88,1327.17 1601.07,1328.11 1603.25,1329.04 1605.44,1329.96 1607.63,1330.88 1609.81,1331.8 1612,1332.72 1614.19,1333.64 1616.37,1334.55 1618.56,1335.47 1620.75,1336.38 1622.93,1337.3 1625.12,1338.22 1627.3,1339.14 1629.49,1340.06 1631.68,1340.99 1633.86,1341.92 1636.05,1342.86 1638.24,1343.81 1640.42,1344.77 1642.61,1345.73 1644.8,1346.7 1646.98,1347.69 1649.17,1348.68 1651.35,1349.69 1653.54,1350.71 1655.73,1351.74 1657.91,1352.79 1660.1,1353.85 1662.29,1354.93 1664.47,1356.03 1666.66,1357.14 1668.85,1358.27 1671.03,1359.42 1673.22,1360.58 1675.4,1361.76 1677.59,1362.96 1679.78,1364.17 1681.96,1365.4 1684.15,1366.65 1686.34,1367.91 1688.52,1369.19 1690.71,1370.48 1692.9,1371.79 1695.08,1373.11 1697.27,1374.44 1699.45,1375.78 1701.64,1377.13 1703.83,1378.49 1706.01,1379.86 1708.2,1381.23 1710.39,1382.61 1712.57,1383.99 1714.76,1385.38 1716.94,1386.77 1719.13,1388.16 1721.32,1389.54 1723.5,1390.93 1725.69,1392.31 1727.88,1393.69 1730.06,1395.06 1732.25,1396.42 1734.44,1397.77 1736.62,1399.12 1738.81,1400.45 1740.99,1401.77 1743.18,1403.08 1745.37,1404.37 1747.55,1405.64 1749.74,1406.9 1751.93,1408.14 1754.11,1409.35 1756.3,1410.55 1758.49,1411.73 1760.67,1412.88 1762.86,1414.01 1765.04,1415.12 1767.23,1416.2 1769.42,1417.26 1771.6,1418.3 1773.79,1419.3 1775.98,1420.28 1778.16,1421.24 1780.35,1422.16 1782.54,1423.07 1784.72,1423.94 1786.91,1424.79 1789.09,1425.61 1791.28,1426.41 1793.47,1427.18 1795.65,1427.92 1797.84,1428.64 1800.03,1429.33 1802.21,1430 1804.4,1430.65 1806.58,1431.27 1808.77,1431.87 1810.96,1432.45 1813.14,1433.01 1815.33,1433.54 1817.52,1434.06 1819.7,1434.55 1821.89,1435.03 1824.08,1435.49 1826.26,1435.93 1828.45,1436.35 1830.63,1436.75 1832.82,1437.14 1835.01,1437.51 1837.19,1437.87 1839.38,1438.21 1841.57,1438.54 1843.75,1438.85 1845.94,1439.15 1848.13,1439.44 1850.31,1439.71 1852.5,1439.98 1854.68,1440.23 1856.87,1440.47 1859.06,1440.71 1861.24,1440.93 1863.43,1441.14 1865.62,1441.34 1867.8,1441.54 1869.99,1441.72 1872.18,1441.9 1874.36,1442.07 1876.55,1442.23 1878.73,1442.39 1880.92,1442.54 1883.11,1442.68 1885.29,1442.82 1887.48,1442.95 1889.67,1443.07 1891.85,1443.19 1894.04,1443.3 1896.23,1443.41 1898.41,1443.51 1900.6,1443.61 1902.78,1443.71 1904.97,1443.8 1907.16,1443.88 1909.34,1443.97 1911.53,1444.05 1913.72,1444.12 1915.9,1444.19 1918.09,1444.26 1920.27,1444.33 1922.46,1444.39 1924.65,1444.45 1926.83,1444.51 1929.02,1444.56 1931.21,1444.61 1933.39,1444.66 1935.58,1444.71 1937.77,1444.76 1939.95,1444.8 1942.14,1444.84 1944.32,1444.88 1946.51,1444.92 1948.7,1444.95 1950.88,1444.99 1953.07,1445.02 1955.26,1445.05 1957.44,1445.08 1959.63,1445.11 1961.82,1445.14 1964,1445.16 1966.19,1445.19 1968.37,1445.21 1970.56,1445.24 1972.75,1445.26 1974.93,1445.28 1977.12,1445.3 1979.31,1445.32 1981.49,1445.33 1983.68,1445.35 1985.87,1445.37 1988.05,1445.38 1990.24,1445.4 1992.42,1445.41 1994.61,1445.43 1996.8,1445.44 1998.98,1445.45 2001.17,1445.46 2003.36,1445.48 2005.54,1445.49 2007.73,1445.5 2009.92,1445.51 2012.1,1445.52 2014.29,1445.52 2016.47,1445.53 2018.66,1445.54 2020.85,1445.55 2023.03,1445.56 2025.22,1445.56 2027.41,1445.57 2029.59,1445.58 2031.78,1445.58 2033.96,1445.59 2036.15,1445.6 2038.34,1445.6 2040.52,1445.61 2042.71,1445.61 2044.9,1445.62 2047.08,1445.62 2049.27,1445.62 2051.46,1445.63 2053.64,1445.63 2055.83,1445.64 2058.01,1445.64 2060.2,1445.64 2062.39,1445.65 2064.57,1445.65 2066.76,1445.65 2068.95,1445.65 2071.13,1445.66 2073.32,1445.66 2075.51,1445.66 2077.69,1445.67 2079.88,1445.67 2082.06,1445.67 2084.25,1445.67 2086.44,1445.67 2088.62,1445.68 2090.81,1445.68 2093,1445.68 2095.18,1445.68 2097.37,1445.68 2099.56,1445.68 2101.74,1445.69 2103.93,1445.69 2106.11,1445.69 2108.3,1445.69 2110.49,1445.69 2112.67,1445.69 2114.86,1445.69 2117.05,1445.69 2119.23,1445.69 2121.42,1445.7 2123.61,1445.7 2125.79,1445.7 2127.98,1445.7 2130.16,1445.7 2132.35,1445.7 2134.54,1445.7 2136.72,1445.7 2138.91,1445.7 2141.1,1445.7 2143.28,1445.7 2145.47,1445.7 2147.65,1445.7 2149.84,1445.7 2152.03,1445.7 2154.21,1445.71 2156.4,1445.71 2158.59,1445.71 2160.77,1445.71 2162.96,1445.71 2165.15,1445.71 2167.33,1445.71 2169.52,1445.71 2171.7,1445.71 2173.89,1445.71 2176.08,1445.71 2178.26,1445.71 2180.45,1445.71 2182.64,1445.71 2184.82,1445.71 2187.01,1445.71 2189.2,1445.71 2191.38,1445.71 2193.57,1445.71 2195.75,1445.71 2197.94,1445.71 2200.13,1445.71 2202.31,1445.71 2204.5,1445.71 2206.69,1445.71 2208.87,1445.71 2211.06,1445.71 2213.25,1445.71 2215.43,1445.71 2217.62,1445.71 2219.8,1445.71 2221.99,1445.71 2224.18,1445.71 2226.36,1445.71 2228.55,1445.71 2230.74,1445.71 2232.92,1445.71 2235.11,1445.71 2237.3,1445.71 2239.48,1445.71 2241.67,1445.71 2243.85,1445.71 2246.04,1445.71 2248.23,1445.71 2250.41,1445.71 2252.6,1445.71 2254.79,1445.71 2256.97,1445.71 2259.16,1445.71 2261.34,1445.71 2263.53,1445.71 2265.72,1445.71 2267.9,1445.71 2270.09,1445.72 2272.28,1445.72 2274.46,1445.72 2276.65,1445.72 2278.84,1445.72 2281.02,1445.72 2283.21,1445.72 2285.39,1445.72 2287.58,1445.72 2289.77,1445.72 2291.95,1445.72 2294.14,1445.72 2296.33,1445.72 2298.51,1445.72 2300.7,1445.72 2302.89,1445.72 2305.07,1445.72 2307.26,1445.72 2309.44,1445.72 2311.63,1445.72 2313.82,1445.72 2316,1445.72 2318.19,1445.72 2320.38,1445.72 2322.56,1445.72 2324.75,1445.72 "/>
<path clip-path="url(#clip620)" d="M2085.4 198.898 L2319.77 198.898 L2319.77 95.2176 L2085.4 95.2176  Z" fill="#ffffff" fill-rule="evenodd" fill-opacity="1"/>
<polyline clip-path="url(#clip620)" style="stroke:#000000; stroke-linecap:round; stroke-linejoin:round; stroke-width:4; stroke-opacity:1; fill:none" points="2085.4,198.898 2319.77,198.898 2319.77,95.2176 2085.4,95.2176 2085.4,198.898 "/>
<polyline clip-path="url(#clip620)" style="stroke:#009af9; stroke-linecap:round; stroke-linejoin:round; stroke-width:4; stroke-opacity:1; fill:none" points="2096.39,147.058 2162.36,147.058 "/>
<path clip-path="url(#clip620)" d="M2191.78 139.176 L2191.78 143.203 Q2189.98 142.277 2188.03 141.815 Q2186.09 141.352 2184.01 141.352 Q2180.84 141.352 2179.24 142.324 Q2177.66 143.296 2177.66 145.24 Q2177.66 146.722 2178.8 147.578 Q2179.93 148.412 2183.36 149.176 L2184.82 149.5 Q2189.35 150.472 2191.25 152.254 Q2193.17 154.014 2193.17 157.185 Q2193.17 160.796 2190.3 162.902 Q2187.46 165.009 2182.46 165.009 Q2180.37 165.009 2178.1 164.592 Q2175.86 164.199 2173.36 163.388 L2173.36 158.99 Q2175.72 160.217 2178.01 160.842 Q2180.3 161.444 2182.55 161.444 Q2185.56 161.444 2187.18 160.426 Q2188.8 159.384 2188.8 157.509 Q2188.8 155.773 2187.62 154.847 Q2186.46 153.921 2182.5 153.064 L2181.02 152.717 Q2177.06 151.884 2175.3 150.171 Q2173.54 148.435 2173.54 145.426 Q2173.54 141.768 2176.14 139.778 Q2178.73 137.787 2183.5 137.787 Q2185.86 137.787 2187.94 138.134 Q2190.03 138.481 2191.78 139.176 Z" fill="#000000" fill-rule="nonzero" fill-opacity="1" /><path clip-path="url(#clip620)" d="M2204.17 131.051 L2204.17 138.412 L2212.94 138.412 L2212.94 141.722 L2204.17 141.722 L2204.17 155.796 Q2204.17 158.967 2205.02 159.87 Q2205.9 160.773 2208.57 160.773 L2212.94 160.773 L2212.94 164.338 L2208.57 164.338 Q2203.64 164.338 2201.76 162.509 Q2199.89 160.657 2199.89 155.796 L2199.89 141.722 L2196.76 141.722 L2196.76 138.412 L2199.89 138.412 L2199.89 131.051 L2204.17 131.051 Z" fill="#000000" fill-rule="nonzero" fill-opacity="1" /><path clip-path="url(#clip620)" d="M2233.57 142.393 Q2232.85 141.977 2231.99 141.791 Q2231.16 141.583 2230.14 141.583 Q2226.53 141.583 2224.59 143.944 Q2222.66 146.282 2222.66 150.68 L2222.66 164.338 L2218.38 164.338 L2218.38 138.412 L2222.66 138.412 L2222.66 142.44 Q2224.01 140.078 2226.16 138.944 Q2228.31 137.787 2231.39 137.787 Q2231.83 137.787 2232.36 137.856 Q2232.9 137.903 2233.54 138.018 L2233.57 142.393 Z" fill="#000000" fill-rule="nonzero" fill-opacity="1" /><path clip-path="url(#clip620)" d="M2259.17 150.31 L2259.17 152.393 L2239.58 152.393 Q2239.86 156.791 2242.22 159.106 Q2244.61 161.398 2248.84 161.398 Q2251.3 161.398 2253.59 160.796 Q2255.9 160.194 2258.17 158.99 L2258.17 163.018 Q2255.88 163.99 2253.47 164.5 Q2251.07 165.009 2248.59 165.009 Q2242.39 165.009 2238.75 161.398 Q2235.14 157.787 2235.14 151.629 Q2235.14 145.264 2238.57 141.537 Q2242.02 137.787 2247.85 137.787 Q2253.08 137.787 2256.11 141.166 Q2259.17 144.523 2259.17 150.31 M2254.91 149.06 Q2254.86 145.565 2252.94 143.481 Q2251.04 141.398 2247.9 141.398 Q2244.33 141.398 2242.18 143.412 Q2240.05 145.426 2239.72 149.083 L2254.91 149.06 Z" fill="#000000" fill-rule="nonzero" fill-opacity="1" /><path clip-path="url(#clip620)" d="M2282.69 139.176 L2282.69 143.203 Q2280.88 142.277 2278.94 141.815 Q2276.99 141.352 2274.91 141.352 Q2271.74 141.352 2270.14 142.324 Q2268.57 143.296 2268.57 145.24 Q2268.57 146.722 2269.7 147.578 Q2270.83 148.412 2274.26 149.176 L2275.72 149.5 Q2280.26 150.472 2282.15 152.254 Q2284.08 154.014 2284.08 157.185 Q2284.08 160.796 2281.21 162.902 Q2278.36 165.009 2273.36 165.009 Q2271.27 165.009 2269.01 164.592 Q2266.76 164.199 2264.26 163.388 L2264.26 158.99 Q2266.62 160.217 2268.91 160.842 Q2271.21 161.444 2273.45 161.444 Q2276.46 161.444 2278.08 160.426 Q2279.7 159.384 2279.7 157.509 Q2279.7 155.773 2278.52 154.847 Q2277.36 153.921 2273.4 153.064 L2271.92 152.717 Q2267.96 151.884 2266.21 150.171 Q2264.45 148.435 2264.45 145.426 Q2264.45 141.768 2267.04 139.778 Q2269.63 137.787 2274.4 137.787 Q2276.76 137.787 2278.84 138.134 Q2280.93 138.481 2282.69 139.176 Z" fill="#000000" fill-rule="nonzero" fill-opacity="1" /><path clip-path="url(#clip620)" d="M2307.39 139.176 L2307.39 143.203 Q2305.58 142.277 2303.64 141.815 Q2301.69 141.352 2299.61 141.352 Q2296.44 141.352 2294.84 142.324 Q2293.27 143.296 2293.27 145.24 Q2293.27 146.722 2294.4 147.578 Q2295.53 148.412 2298.96 149.176 L2300.42 149.5 Q2304.95 150.472 2306.85 152.254 Q2308.77 154.014 2308.77 157.185 Q2308.77 160.796 2305.9 162.902 Q2303.06 165.009 2298.06 165.009 Q2295.97 165.009 2293.71 164.592 Q2291.46 164.199 2288.96 163.388 L2288.96 158.99 Q2291.32 160.217 2293.61 160.842 Q2295.9 161.444 2298.15 161.444 Q2301.16 161.444 2302.78 160.426 Q2304.4 159.384 2304.4 157.509 Q2304.4 155.773 2303.22 154.847 Q2302.06 153.921 2298.1 153.064 L2296.62 152.717 Q2292.66 151.884 2290.9 150.171 Q2289.14 148.435 2289.14 145.426 Q2289.14 141.768 2291.74 139.778 Q2294.33 137.787 2299.1 137.787 Q2301.46 137.787 2303.54 138.134 Q2305.63 138.481 2307.39 139.176 Z" fill="#000000" fill-rule="nonzero" fill-opacity="1" /></svg>
