<?xml version="1.0" encoding="utf-8"?>
<svg xmlns="http://www.w3.org/2000/svg" xmlns:xlink="http://www.w3.org/1999/xlink" width="600" height="400" viewBox="0 0 2400 1600">
<defs>
  <clipPath id="clip650">
    <rect x="0" y="0" width="2400" height="1600"/>
  </clipPath>
</defs>
<path clip-path="url(#clip650)" d="M0 1600 L2400 1600 L2400 0 L0 0  Z" fill="#ffffff" fill-rule="evenodd" fill-opacity="1"/>
<defs>
  <clipPath id="clip651">
    <rect x="1363" y="47" width="991" height="1440"/>
  </clipPath>
</defs>
<path clip-path="url(#clip650)" d="M147.478 1486.45 L1137.06 1486.45 L1137.06 47.2441 L147.478 47.2441  Z" fill="#ffffff" fill-rule="evenodd" fill-opacity="1"/>
<defs>
  <clipPath id="clip652">
    <rect x="147" y="47" width="991" height="1440"/>
  </clipPath>
</defs>
<polyline clip-path="url(#clip652)" style="stroke:#000000; stroke-linecap:round; stroke-linejoin:round; stroke-width:2; stroke-opacity:0.1; fill:none" points="282.361,1486.45 282.361,47.2441 "/>
<polyline clip-path="url(#clip652)" style="stroke:#000000; stroke-linecap:round; stroke-linejoin:round; stroke-width:2; stroke-opacity:0.1; fill:none" points="509.087,1486.45 509.087,47.2441 "/>
<polyline clip-path="url(#clip652)" style="stroke:#000000; stroke-linecap:round; stroke-linejoin:round; stroke-width:2; stroke-opacity:0.1; fill:none" points="735.813,1486.45 735.813,47.2441 "/>
<polyline clip-path="url(#clip652)" style="stroke:#000000; stroke-linecap:round; stroke-linejoin:round; stroke-width:2; stroke-opacity:0.1; fill:none" points="962.54,1486.45 962.54,47.2441 "/>
<polyline clip-path="url(#clip652)" style="stroke:#000000; stroke-linecap:round; stroke-linejoin:round; stroke-width:2; stroke-opacity:0.1; fill:none" points="147.478,1346.43 1137.06,1346.43 "/>
<polyline clip-path="url(#clip652)" style="stroke:#000000; stroke-linecap:round; stroke-linejoin:round; stroke-width:2; stroke-opacity:0.1; fill:none" points="147.478,1119.7 1137.06,1119.7 "/>
<polyline clip-path="url(#clip652)" style="stroke:#000000; stroke-linecap:round; stroke-linejoin:round; stroke-width:2; stroke-opacity:0.1; fill:none" points="147.478,892.973 1137.06,892.973 "/>
<polyline clip-path="url(#clip652)" style="stroke:#000000; stroke-linecap:round; stroke-linejoin:round; stroke-width:2; stroke-opacity:0.1; fill:none" points="147.478,666.247 1137.06,666.247 "/>
<polyline clip-path="url(#clip652)" style="stroke:#000000; stroke-linecap:round; stroke-linejoin:round; stroke-width:2; stroke-opacity:0.1; fill:none" points="147.478,439.52 1137.06,439.52 "/>
<polyline clip-path="url(#clip652)" style="stroke:#000000; stroke-linecap:round; stroke-linejoin:round; stroke-width:2; stroke-opacity:0.1; fill:none" points="147.478,212.794 1137.06,212.794 "/>
<polyline clip-path="url(#clip650)" style="stroke:#000000; stroke-linecap:round; stroke-linejoin:round; stroke-width:4; stroke-opacity:1; fill:none" points="147.478,1486.45 1137.06,1486.45 "/>
<polyline clip-path="url(#clip650)" style="stroke:#000000; stroke-linecap:round; stroke-linejoin:round; stroke-width:4; stroke-opacity:1; fill:none" points="282.361,1486.45 282.361,1467.55 "/>
<polyline clip-path="url(#clip650)" style="stroke:#000000; stroke-linecap:round; stroke-linejoin:round; stroke-width:4; stroke-opacity:1; fill:none" points="509.087,1486.45 509.087,1467.55 "/>
<polyline clip-path="url(#clip650)" style="stroke:#000000; stroke-linecap:round; stroke-linejoin:round; stroke-width:4; stroke-opacity:1; fill:none" points="735.813,1486.45 735.813,1467.55 "/>
<polyline clip-path="url(#clip650)" style="stroke:#000000; stroke-linecap:round; stroke-linejoin:round; stroke-width:4; stroke-opacity:1; fill:none" points="962.54,1486.45 962.54,1467.55 "/>
<path clip-path="url(#clip650)" d="M252.118 1532.02 L281.793 1532.02 L281.793 1535.95 L252.118 1535.95 L252.118 1532.02 Z" fill="#000000" fill-rule="nonzero" fill-opacity="1" /><path clip-path="url(#clip650)" d="M292.696 1544.91 L300.335 1544.91 L300.335 1518.55 L292.025 1520.21 L292.025 1515.95 L300.289 1514.29 L304.965 1514.29 L304.965 1544.91 L312.603 1544.91 L312.603 1548.85 L292.696 1548.85 L292.696 1544.91 Z" fill="#000000" fill-rule="nonzero" fill-opacity="1" /><path clip-path="url(#clip650)" d="M509.087 1517.37 Q505.476 1517.37 503.647 1520.93 Q501.842 1524.47 501.842 1531.6 Q501.842 1538.71 503.647 1542.27 Q505.476 1545.82 509.087 1545.82 Q512.721 1545.82 514.527 1542.27 Q516.355 1538.71 516.355 1531.6 Q516.355 1524.47 514.527 1520.93 Q512.721 1517.37 509.087 1517.37 M509.087 1513.66 Q514.897 1513.66 517.953 1518.27 Q521.031 1522.85 521.031 1531.6 Q521.031 1540.33 517.953 1544.94 Q514.897 1549.52 509.087 1549.52 Q503.277 1549.52 500.198 1544.94 Q497.142 1540.33 497.142 1531.6 Q497.142 1522.85 500.198 1518.27 Q503.277 1513.66 509.087 1513.66 Z" fill="#000000" fill-rule="nonzero" fill-opacity="1" /><path clip-path="url(#clip650)" d="M726.195 1544.91 L733.834 1544.91 L733.834 1518.55 L725.524 1520.21 L725.524 1515.95 L733.788 1514.29 L738.464 1514.29 L738.464 1544.91 L746.102 1544.91 L746.102 1548.85 L726.195 1548.85 L726.195 1544.91 Z" fill="#000000" fill-rule="nonzero" fill-opacity="1" /><path clip-path="url(#clip650)" d="M957.192 1544.91 L973.512 1544.91 L973.512 1548.85 L951.567 1548.85 L951.567 1544.91 Q954.229 1542.16 958.813 1537.53 Q963.419 1532.88 964.6 1531.53 Q966.845 1529.01 967.725 1527.27 Q968.627 1525.51 968.627 1523.82 Q968.627 1521.07 966.683 1519.33 Q964.762 1517.6 961.66 1517.6 Q959.461 1517.6 957.007 1518.36 Q954.577 1519.13 951.799 1520.68 L951.799 1515.95 Q954.623 1514.82 957.077 1514.24 Q959.53 1513.66 961.567 1513.66 Q966.938 1513.66 970.132 1516.35 Q973.327 1519.03 973.327 1523.52 Q973.327 1525.65 972.516 1527.57 Q971.729 1529.47 969.623 1532.07 Q969.044 1532.74 965.942 1535.95 Q962.84 1539.15 957.192 1544.91 Z" fill="#000000" fill-rule="nonzero" fill-opacity="1" /><polyline clip-path="url(#clip650)" style="stroke:#000000; stroke-linecap:round; stroke-linejoin:round; stroke-width:4; stroke-opacity:1; fill:none" points="147.478,1486.45 147.478,47.2441 "/>
<polyline clip-path="url(#clip650)" style="stroke:#000000; stroke-linecap:round; stroke-linejoin:round; stroke-width:4; stroke-opacity:1; fill:none" points="147.478,1346.43 166.376,1346.43 "/>
<polyline clip-path="url(#clip650)" style="stroke:#000000; stroke-linecap:round; stroke-linejoin:round; stroke-width:4; stroke-opacity:1; fill:none" points="147.478,1119.7 166.376,1119.7 "/>
<polyline clip-path="url(#clip650)" style="stroke:#000000; stroke-linecap:round; stroke-linejoin:round; stroke-width:4; stroke-opacity:1; fill:none" points="147.478,892.973 166.376,892.973 "/>
<polyline clip-path="url(#clip650)" style="stroke:#000000; stroke-linecap:round; stroke-linejoin:round; stroke-width:4; stroke-opacity:1; fill:none" points="147.478,666.247 166.376,666.247 "/>
<polyline clip-path="url(#clip650)" style="stroke:#000000; stroke-linecap:round; stroke-linejoin:round; stroke-width:4; stroke-opacity:1; fill:none" points="147.478,439.52 166.376,439.52 "/>
<polyline clip-path="url(#clip650)" style="stroke:#000000; stroke-linecap:round; stroke-linejoin:round; stroke-width:4; stroke-opacity:1; fill:none" points="147.478,212.794 166.376,212.794 "/>
<path clip-path="url(#clip650)" d="M51.3625 1346.88 L81.0383 1346.88 L81.0383 1350.81 L51.3625 1350.81 L51.3625 1346.88 Z" fill="#000000" fill-rule="nonzero" fill-opacity="1" /><path clip-path="url(#clip650)" d="M95.1586 1359.77 L111.478 1359.77 L111.478 1363.71 L89.5336 1363.71 L89.5336 1359.77 Q92.1956 1357.02 96.7789 1352.39 Q101.385 1347.73 102.566 1346.39 Q104.811 1343.87 105.691 1342.13 Q106.594 1340.37 106.594 1338.68 Q106.594 1335.93 104.649 1334.19 Q102.728 1332.46 99.6261 1332.46 Q97.4271 1332.46 94.9734 1333.22 Q92.5428 1333.98 89.7651 1335.53 L89.7651 1330.81 Q92.5891 1329.68 95.0428 1329.1 Q97.4965 1328.52 99.5335 1328.52 Q104.904 1328.52 108.098 1331.21 Q111.293 1333.89 111.293 1338.38 Q111.293 1340.51 110.483 1342.43 Q109.696 1344.33 107.589 1346.92 Q107.01 1347.59 103.909 1350.81 Q100.807 1354.01 95.1586 1359.77 Z" fill="#000000" fill-rule="nonzero" fill-opacity="1" /><path clip-path="url(#clip650)" d="M50.9921 1120.15 L80.6679 1120.15 L80.6679 1124.09 L50.9921 1124.09 L50.9921 1120.15 Z" fill="#000000" fill-rule="nonzero" fill-opacity="1" /><path clip-path="url(#clip650)" d="M91.5706 1133.04 L99.2095 1133.04 L99.2095 1106.68 L90.8993 1108.35 L90.8993 1104.09 L99.1632 1102.42 L103.839 1102.42 L103.839 1133.04 L111.478 1133.04 L111.478 1136.98 L91.5706 1136.98 L91.5706 1133.04 Z" fill="#000000" fill-rule="nonzero" fill-opacity="1" /><path clip-path="url(#clip650)" d="M99.5335 878.772 Q95.9224 878.772 94.0937 882.336 Q92.2882 885.878 92.2882 893.008 Q92.2882 900.114 94.0937 903.679 Q95.9224 907.221 99.5335 907.221 Q103.168 907.221 104.973 903.679 Q106.802 900.114 106.802 893.008 Q106.802 885.878 104.973 882.336 Q103.168 878.772 99.5335 878.772 M99.5335 875.068 Q105.344 875.068 108.399 879.674 Q111.478 884.258 111.478 893.008 Q111.478 901.734 108.399 906.341 Q105.344 910.924 99.5335 910.924 Q93.7234 910.924 90.6447 906.341 Q87.5892 901.734 87.5892 893.008 Q87.5892 884.258 90.6447 879.674 Q93.7234 875.068 99.5335 875.068 Z" fill="#000000" fill-rule="nonzero" fill-opacity="1" /><path clip-path="url(#clip650)" d="M91.5706 679.591 L99.2095 679.591 L99.2095 653.226 L90.8993 654.892 L90.8993 650.633 L99.1632 648.967 L103.839 648.967 L103.839 679.591 L111.478 679.591 L111.478 683.527 L91.5706 683.527 L91.5706 679.591 Z" fill="#000000" fill-rule="nonzero" fill-opacity="1" /><path clip-path="url(#clip650)" d="M95.1586 452.865 L111.478 452.865 L111.478 456.8 L89.5336 456.8 L89.5336 452.865 Q92.1956 450.11 96.7789 445.481 Q101.385 440.828 102.566 439.485 Q104.811 436.962 105.691 435.226 Q106.594 433.467 106.594 431.777 Q106.594 429.023 104.649 427.286 Q102.728 425.55 99.6261 425.55 Q97.4271 425.55 94.9734 426.314 Q92.5428 427.078 89.7651 428.629 L89.7651 423.907 Q92.5891 422.773 95.0428 422.194 Q97.4965 421.615 99.5335 421.615 Q104.904 421.615 108.098 424.3 Q111.293 426.986 111.293 431.476 Q111.293 433.606 110.483 435.527 Q109.696 437.425 107.589 440.018 Q107.01 440.689 103.909 443.907 Q100.807 447.101 95.1586 452.865 Z" fill="#000000" fill-rule="nonzero" fill-opacity="1" /><path clip-path="url(#clip650)" d="M104.348 211.44 Q107.705 212.157 109.58 214.426 Q111.478 216.694 111.478 220.028 Q111.478 225.143 107.959 227.944 Q104.441 230.745 97.9595 230.745 Q95.7836 230.745 93.4688 230.305 Q91.1771 229.889 88.7234 229.032 L88.7234 224.518 Q90.6678 225.653 92.9826 226.231 Q95.2974 226.81 97.8206 226.81 Q102.219 226.81 104.51 225.074 Q106.825 223.338 106.825 220.028 Q106.825 216.972 104.672 215.259 Q102.543 213.523 98.7234 213.523 L94.6956 213.523 L94.6956 209.68 L98.9085 209.68 Q102.358 209.68 104.186 208.315 Q106.015 206.926 106.015 204.333 Q106.015 201.671 104.117 200.259 Q102.242 198.824 98.7234 198.824 Q96.8021 198.824 94.603 199.241 Q92.4039 199.657 89.7651 200.537 L89.7651 196.37 Q92.4271 195.63 94.7419 195.259 Q97.0798 194.889 99.14 194.889 Q104.464 194.889 107.566 197.319 Q110.668 199.727 110.668 203.847 Q110.668 206.718 109.024 208.708 Q107.381 210.676 104.348 211.44 Z" fill="#000000" fill-rule="nonzero" fill-opacity="1" /><polyline clip-path="url(#clip652)" style="stroke:#000000; stroke-linecap:round; stroke-linejoin:round; stroke-width:4; stroke-opacity:1; fill:none" points="642.075,767.249 988.223,1083.98 "/>
<polyline clip-path="url(#clip652)" style="stroke:#000000; stroke-linecap:round; stroke-linejoin:round; stroke-width:4; stroke-opacity:1; fill:none" points="642.075,767.249 1109.05,820.068 "/>
<polyline clip-path="url(#clip652)" style="stroke:#000000; stroke-linecap:round; stroke-linejoin:round; stroke-width:4; stroke-opacity:1; fill:none" points="642.075,767.249 1051.29,535.623 "/>
<polyline clip-path="url(#clip652)" style="stroke:#000000; stroke-linecap:round; stroke-linejoin:round; stroke-width:4; stroke-opacity:1; fill:none" points="642.075,767.249 837.153,339.494 "/>
<polyline clip-path="url(#clip652)" style="stroke:#000000; stroke-linecap:round; stroke-linejoin:round; stroke-width:4; stroke-opacity:1; fill:none" points="642.075,767.249 548.423,306.808 "/>
<polyline clip-path="url(#clip652)" style="stroke:#000000; stroke-linecap:round; stroke-linejoin:round; stroke-width:4; stroke-opacity:1; fill:none" points="642.075,767.249 295.615,450.375 "/>
<polyline clip-path="url(#clip652)" style="stroke:#000000; stroke-linecap:round; stroke-linejoin:round; stroke-width:4; stroke-opacity:1; fill:none" points="642.075,767.249 175.485,715.106 "/>
<polyline clip-path="url(#clip652)" style="stroke:#000000; stroke-linecap:round; stroke-linejoin:round; stroke-width:4; stroke-opacity:1; fill:none" points="642.075,767.249 233.313,999.712 "/>
<polyline clip-path="url(#clip652)" style="stroke:#000000; stroke-linecap:round; stroke-linejoin:round; stroke-width:4; stroke-opacity:1; fill:none" points="642.075,767.249 447.141,1195.67 "/>
<polyline clip-path="url(#clip652)" style="stroke:#000000; stroke-linecap:round; stroke-linejoin:round; stroke-width:4; stroke-opacity:1; fill:none" points="642.075,767.249 735.533,1226.88 "/>
<polyline clip-path="url(#clip652)" style="stroke:#000000; stroke-linecap:round; stroke-linejoin:round; stroke-width:4; stroke-opacity:1; fill:none" points="988.223,1083.98 1109.05,820.068 "/>
<polyline clip-path="url(#clip652)" style="stroke:#000000; stroke-linecap:round; stroke-linejoin:round; stroke-width:4; stroke-opacity:1; fill:none" points="988.223,1083.98 735.533,1226.88 "/>
<polyline clip-path="url(#clip652)" style="stroke:#000000; stroke-linecap:round; stroke-linejoin:round; stroke-width:4; stroke-opacity:1; fill:none" points="1109.05,820.068 1051.29,535.623 "/>
<polyline clip-path="url(#clip652)" style="stroke:#000000; stroke-linecap:round; stroke-linejoin:round; stroke-width:4; stroke-opacity:1; fill:none" points="1051.29,535.623 837.153,339.494 "/>
<polyline clip-path="url(#clip652)" style="stroke:#000000; stroke-linecap:round; stroke-linejoin:round; stroke-width:4; stroke-opacity:1; fill:none" points="837.153,339.494 548.423,306.808 "/>
<polyline clip-path="url(#clip652)" style="stroke:#000000; stroke-linecap:round; stroke-linejoin:round; stroke-width:4; stroke-opacity:1; fill:none" points="548.423,306.808 295.615,450.375 "/>
<polyline clip-path="url(#clip652)" style="stroke:#000000; stroke-linecap:round; stroke-linejoin:round; stroke-width:4; stroke-opacity:1; fill:none" points="295.615,450.375 175.485,715.106 "/>
<polyline clip-path="url(#clip652)" style="stroke:#000000; stroke-linecap:round; stroke-linejoin:round; stroke-width:4; stroke-opacity:1; fill:none" points="175.485,715.106 233.313,999.712 "/>
<polyline clip-path="url(#clip652)" style="stroke:#000000; stroke-linecap:round; stroke-linejoin:round; stroke-width:4; stroke-opacity:1; fill:none" points="233.313,999.712 447.141,1195.67 "/>
<polyline clip-path="url(#clip652)" style="stroke:#000000; stroke-linecap:round; stroke-linejoin:round; stroke-width:4; stroke-opacity:1; fill:none" points="447.141,1195.67 735.533,1226.88 "/>
<circle clip-path="url(#clip652)" cx="642.075" cy="767.249" r="18" fill="#0000ff" fill-rule="evenodd" fill-opacity="1" stroke="#000000" stroke-opacity="1" stroke-width="3.2"/>
<circle clip-path="url(#clip652)" cx="988.223" cy="1083.98" r="18" fill="#0000ff" fill-rule="evenodd" fill-opacity="1" stroke="#000000" stroke-opacity="1" stroke-width="3.2"/>
<circle clip-path="url(#clip652)" cx="1109.05" cy="820.068" r="18" fill="#0000ff" fill-rule="evenodd" fill-opacity="1" stroke="#000000" stroke-opacity="1" stroke-width="3.2"/>
<circle clip-path="url(#clip652)" cx="1051.29" cy="535.623" r="18" fill="#0000ff" fill-rule="evenodd" fill-opacity="1" stroke="#000000" stroke-opacity="1" stroke-width="3.2"/>
<circle clip-path="url(#clip652)" cx="837.153" cy="339.494" r="18" fill="#0000ff" fill-rule="evenodd" fill-opacity="1" stroke="#000000" stroke-opacity="1" stroke-width="3.2"/>
<circle clip-path="url(#clip652)" cx="548.423" cy="306.808" r="18" fill="#0000ff" fill-rule="evenodd" fill-opacity="1" stroke="#000000" stroke-opacity="1" stroke-width="3.2"/>
<circle clip-path="url(#clip652)" cx="295.615" cy="450.375" r="18" fill="#0000ff" fill-rule="evenodd" fill-opacity="1" stroke="#000000" stroke-opacity="1" stroke-width="3.2"/>
<circle clip-path="url(#clip652)" cx="175.485" cy="715.106" r="18" fill="#0000ff" fill-rule="evenodd" fill-opacity="1" stroke="#000000" stroke-opacity="1" stroke-width="3.2"/>
<circle clip-path="url(#clip652)" cx="233.313" cy="999.712" r="18" fill="#0000ff" fill-rule="evenodd" fill-opacity="1" stroke="#000000" stroke-opacity="1" stroke-width="3.2"/>
<circle clip-path="url(#clip652)" cx="447.141" cy="1195.67" r="18" fill="#0000ff" fill-rule="evenodd" fill-opacity="1" stroke="#000000" stroke-opacity="1" stroke-width="3.2"/>
<circle clip-path="url(#clip652)" cx="735.533" cy="1226.88" r="18" fill="#0000ff" fill-rule="evenodd" fill-opacity="1" stroke="#000000" stroke-opacity="1" stroke-width="3.2"/>
<path clip-path="url(#clip650)" d="M1363.17 1486.45 L2352.76 1486.45 L2352.76 47.2441 L1363.17 47.2441  Z" fill="#ffffff" fill-rule="evenodd" fill-opacity="1"/>
<polyline clip-path="url(#clip651)" style="stroke:#000000; stroke-linecap:round; stroke-linejoin:round; stroke-width:2; stroke-opacity:0.1; fill:none" points="1389.71,1486.45 1389.71,47.2441 "/>
<polyline clip-path="url(#clip651)" style="stroke:#000000; stroke-linecap:round; stroke-linejoin:round; stroke-width:2; stroke-opacity:0.1; fill:none" points="1536.5,1486.45 1536.5,47.2441 "/>
<polyline clip-path="url(#clip651)" style="stroke:#000000; stroke-linecap:round; stroke-linejoin:round; stroke-width:2; stroke-opacity:0.1; fill:none" points="1683.29,1486.45 1683.29,47.2441 "/>
<polyline clip-path="url(#clip651)" style="stroke:#000000; stroke-linecap:round; stroke-linejoin:round; stroke-width:2; stroke-opacity:0.1; fill:none" points="1830.07,1486.45 1830.07,47.2441 "/>
<polyline clip-path="url(#clip651)" style="stroke:#000000; stroke-linecap:round; stroke-linejoin:round; stroke-width:2; stroke-opacity:0.1; fill:none" points="1976.86,1486.45 1976.86,47.2441 "/>
<polyline clip-path="url(#clip651)" style="stroke:#000000; stroke-linecap:round; stroke-linejoin:round; stroke-width:2; stroke-opacity:0.1; fill:none" points="2123.65,1486.45 2123.65,47.2441 "/>
<polyline clip-path="url(#clip651)" style="stroke:#000000; stroke-linecap:round; stroke-linejoin:round; stroke-width:2; stroke-opacity:0.1; fill:none" points="2270.44,1486.45 2270.44,47.2441 "/>
<polyline clip-path="url(#clip651)" style="stroke:#000000; stroke-linecap:round; stroke-linejoin:round; stroke-width:2; stroke-opacity:0.1; fill:none" points="1363.17,1377 2352.76,1377 "/>
<polyline clip-path="url(#clip651)" style="stroke:#000000; stroke-linecap:round; stroke-linejoin:round; stroke-width:2; stroke-opacity:0.1; fill:none" points="1363.17,1165.94 2352.76,1165.94 "/>
<polyline clip-path="url(#clip651)" style="stroke:#000000; stroke-linecap:round; stroke-linejoin:round; stroke-width:2; stroke-opacity:0.1; fill:none" points="1363.17,954.875 2352.76,954.875 "/>
<polyline clip-path="url(#clip651)" style="stroke:#000000; stroke-linecap:round; stroke-linejoin:round; stroke-width:2; stroke-opacity:0.1; fill:none" points="1363.17,743.811 2352.76,743.811 "/>
<polyline clip-path="url(#clip651)" style="stroke:#000000; stroke-linecap:round; stroke-linejoin:round; stroke-width:2; stroke-opacity:0.1; fill:none" points="1363.17,532.746 2352.76,532.746 "/>
<polyline clip-path="url(#clip651)" style="stroke:#000000; stroke-linecap:round; stroke-linejoin:round; stroke-width:2; stroke-opacity:0.1; fill:none" points="1363.17,321.682 2352.76,321.682 "/>
<polyline clip-path="url(#clip651)" style="stroke:#000000; stroke-linecap:round; stroke-linejoin:round; stroke-width:2; stroke-opacity:0.1; fill:none" points="1363.17,110.617 2352.76,110.617 "/>
<polyline clip-path="url(#clip650)" style="stroke:#000000; stroke-linecap:round; stroke-linejoin:round; stroke-width:4; stroke-opacity:1; fill:none" points="1363.17,1486.45 2352.76,1486.45 "/>
<polyline clip-path="url(#clip650)" style="stroke:#000000; stroke-linecap:round; stroke-linejoin:round; stroke-width:4; stroke-opacity:1; fill:none" points="1389.71,1486.45 1389.71,1467.55 "/>
<polyline clip-path="url(#clip650)" style="stroke:#000000; stroke-linecap:round; stroke-linejoin:round; stroke-width:4; stroke-opacity:1; fill:none" points="1536.5,1486.45 1536.5,1467.55 "/>
<polyline clip-path="url(#clip650)" style="stroke:#000000; stroke-linecap:round; stroke-linejoin:round; stroke-width:4; stroke-opacity:1; fill:none" points="1683.29,1486.45 1683.29,1467.55 "/>
<polyline clip-path="url(#clip650)" style="stroke:#000000; stroke-linecap:round; stroke-linejoin:round; stroke-width:4; stroke-opacity:1; fill:none" points="1830.07,1486.45 1830.07,1467.55 "/>
<polyline clip-path="url(#clip650)" style="stroke:#000000; stroke-linecap:round; stroke-linejoin:round; stroke-width:4; stroke-opacity:1; fill:none" points="1976.86,1486.45 1976.86,1467.55 "/>
<polyline clip-path="url(#clip650)" style="stroke:#000000; stroke-linecap:round; stroke-linejoin:round; stroke-width:4; stroke-opacity:1; fill:none" points="2123.65,1486.45 2123.65,1467.55 "/>
<polyline clip-path="url(#clip650)" style="stroke:#000000; stroke-linecap:round; stroke-linejoin:round; stroke-width:4; stroke-opacity:1; fill:none" points="2270.44,1486.45 2270.44,1467.55 "/>
<path clip-path="url(#clip650)" d="M1389.71 1517.37 Q1386.1 1517.37 1384.27 1520.93 Q1382.47 1524.47 1382.47 1531.6 Q1382.47 1538.71 1384.27 1542.27 Q1386.1 1545.82 1389.71 1545.82 Q1393.35 1545.82 1395.15 1542.27 Q1396.98 1538.71 1396.98 1531.6 Q1396.98 1524.47 1395.15 1520.93 Q1393.35 1517.37 1389.71 1517.37 M1389.71 1513.66 Q1395.52 1513.66 1398.58 1518.27 Q1401.66 1522.85 1401.66 1531.6 Q1401.66 1540.33 1398.58 1544.94 Q1395.52 1549.52 1389.71 1549.52 Q1383.9 1549.52 1380.82 1544.94 Q1377.77 1540.33 1377.77 1531.6 Q1377.77 1522.85 1380.82 1518.27 Q1383.9 1513.66 1389.71 1513.66 Z" fill="#000000" fill-rule="nonzero" fill-opacity="1" /><path clip-path="url(#clip650)" d="M1496.11 1544.91 L1503.74 1544.91 L1503.74 1518.55 L1495.43 1520.21 L1495.43 1515.95 L1503.7 1514.29 L1508.37 1514.29 L1508.37 1544.91 L1516.01 1544.91 L1516.01 1548.85 L1496.11 1548.85 L1496.11 1544.91 Z" fill="#000000" fill-rule="nonzero" fill-opacity="1" /><path clip-path="url(#clip650)" d="M1535.46 1517.37 Q1531.85 1517.37 1530.02 1520.93 Q1528.21 1524.47 1528.21 1531.6 Q1528.21 1538.71 1530.02 1542.27 Q1531.85 1545.82 1535.46 1545.82 Q1539.09 1545.82 1540.9 1542.27 Q1542.73 1538.71 1542.73 1531.6 Q1542.73 1524.47 1540.9 1520.93 Q1539.09 1517.37 1535.46 1517.37 M1535.46 1513.66 Q1541.27 1513.66 1544.32 1518.27 Q1547.4 1522.85 1547.4 1531.6 Q1547.4 1540.33 1544.32 1544.94 Q1541.27 1549.52 1535.46 1549.52 Q1529.65 1549.52 1526.57 1544.94 Q1523.51 1540.33 1523.51 1531.6 Q1523.51 1522.85 1526.57 1518.27 Q1529.65 1513.66 1535.46 1513.66 Z" fill="#000000" fill-rule="nonzero" fill-opacity="1" /><path clip-path="url(#clip650)" d="M1565.62 1517.37 Q1562.01 1517.37 1560.18 1520.93 Q1558.37 1524.47 1558.37 1531.6 Q1558.37 1538.71 1560.18 1542.27 Q1562.01 1545.82 1565.62 1545.82 Q1569.25 1545.82 1571.06 1542.27 Q1572.89 1538.71 1572.89 1531.6 Q1572.89 1524.47 1571.06 1520.93 Q1569.25 1517.37 1565.62 1517.37 M1565.62 1513.66 Q1571.43 1513.66 1574.49 1518.27 Q1577.56 1522.85 1577.56 1531.6 Q1577.56 1540.33 1574.49 1544.94 Q1571.43 1549.52 1565.62 1549.52 Q1559.81 1549.52 1556.73 1544.94 Q1553.67 1540.33 1553.67 1531.6 Q1553.67 1522.85 1556.73 1518.27 Q1559.81 1513.66 1565.62 1513.66 Z" fill="#000000" fill-rule="nonzero" fill-opacity="1" /><path clip-path="url(#clip650)" d="M1646.98 1544.91 L1663.3 1544.91 L1663.3 1548.85 L1641.35 1548.85 L1641.35 1544.91 Q1644.02 1542.16 1648.6 1537.53 Q1653.21 1532.88 1654.39 1531.53 Q1656.63 1529.01 1657.51 1527.27 Q1658.41 1525.51 1658.41 1523.82 Q1658.41 1521.07 1656.47 1519.33 Q1654.55 1517.6 1651.45 1517.6 Q1649.25 1517.6 1646.79 1518.36 Q1644.36 1519.13 1641.59 1520.68 L1641.59 1515.95 Q1644.41 1514.82 1646.86 1514.24 Q1649.32 1513.66 1651.35 1513.66 Q1656.72 1513.66 1659.92 1516.35 Q1663.11 1519.03 1663.11 1523.52 Q1663.11 1525.65 1662.3 1527.57 Q1661.52 1529.47 1659.41 1532.07 Q1658.83 1532.74 1655.73 1535.95 Q1652.63 1539.15 1646.98 1544.91 Z" fill="#000000" fill-rule="nonzero" fill-opacity="1" /><path clip-path="url(#clip650)" d="M1683.11 1517.37 Q1679.5 1517.37 1677.67 1520.93 Q1675.87 1524.47 1675.87 1531.6 Q1675.87 1538.71 1677.67 1542.27 Q1679.5 1545.82 1683.11 1545.82 Q1686.75 1545.82 1688.55 1542.27 Q1690.38 1538.71 1690.38 1531.6 Q1690.38 1524.47 1688.55 1520.93 Q1686.75 1517.37 1683.11 1517.37 M1683.11 1513.66 Q1688.92 1513.66 1691.98 1518.27 Q1695.06 1522.85 1695.06 1531.6 Q1695.06 1540.33 1691.98 1544.94 Q1688.92 1549.52 1683.11 1549.52 Q1677.3 1549.52 1674.22 1544.94 Q1671.17 1540.33 1671.17 1531.6 Q1671.17 1522.85 1674.22 1518.27 Q1677.3 1513.66 1683.11 1513.66 Z" fill="#000000" fill-rule="nonzero" fill-opacity="1" /><path clip-path="url(#clip650)" d="M1713.28 1517.37 Q1709.66 1517.37 1707.84 1520.93 Q1706.03 1524.47 1706.03 1531.6 Q1706.03 1538.71 1707.84 1542.27 Q1709.66 1545.82 1713.28 1545.82 Q1716.91 1545.82 1718.71 1542.27 Q1720.54 1538.71 1720.54 1531.6 Q1720.54 1524.47 1718.71 1520.93 Q1716.91 1517.37 1713.28 1517.37 M1713.28 1513.66 Q1719.09 1513.66 1722.14 1518.27 Q1725.22 1522.85 1725.22 1531.6 Q1725.22 1540.33 1722.14 1544.94 Q1719.09 1549.52 1713.28 1549.52 Q1707.46 1549.52 1704.39 1544.94 Q1701.33 1540.33 1701.33 1531.6 Q1701.33 1522.85 1704.39 1518.27 Q1707.46 1513.66 1713.28 1513.66 Z" fill="#000000" fill-rule="nonzero" fill-opacity="1" /><path clip-path="url(#clip650)" d="M1803.84 1530.21 Q1807.19 1530.93 1809.07 1533.2 Q1810.97 1535.47 1810.97 1538.8 Q1810.97 1543.92 1807.45 1546.72 Q1803.93 1549.52 1797.45 1549.52 Q1795.27 1549.52 1792.96 1549.08 Q1790.66 1548.66 1788.21 1547.81 L1788.21 1543.29 Q1790.16 1544.43 1792.47 1545.01 Q1794.79 1545.58 1797.31 1545.58 Q1801.71 1545.58 1804 1543.85 Q1806.31 1542.11 1806.31 1538.8 Q1806.31 1535.75 1804.16 1534.03 Q1802.03 1532.3 1798.21 1532.3 L1794.18 1532.3 L1794.18 1528.45 L1798.4 1528.45 Q1801.85 1528.45 1803.67 1527.09 Q1805.5 1525.7 1805.5 1523.11 Q1805.5 1520.45 1803.6 1519.03 Q1801.73 1517.6 1798.21 1517.6 Q1796.29 1517.6 1794.09 1518.01 Q1791.89 1518.43 1789.25 1519.31 L1789.25 1515.14 Q1791.91 1514.4 1794.23 1514.03 Q1796.57 1513.66 1798.63 1513.66 Q1803.95 1513.66 1807.05 1516.09 Q1810.16 1518.5 1810.16 1522.62 Q1810.16 1525.49 1808.51 1527.48 Q1806.87 1529.45 1803.84 1530.21 Z" fill="#000000" fill-rule="nonzero" fill-opacity="1" /><path clip-path="url(#clip650)" d="M1829.83 1517.37 Q1826.22 1517.37 1824.39 1520.93 Q1822.59 1524.47 1822.59 1531.6 Q1822.59 1538.71 1824.39 1542.27 Q1826.22 1545.82 1829.83 1545.82 Q1833.47 1545.82 1835.27 1542.27 Q1837.1 1538.71 1837.1 1531.6 Q1837.1 1524.47 1835.27 1520.93 Q1833.47 1517.37 1829.83 1517.37 M1829.83 1513.66 Q1835.64 1513.66 1838.7 1518.27 Q1841.78 1522.85 1841.78 1531.6 Q1841.78 1540.33 1838.7 1544.94 Q1835.64 1549.52 1829.83 1549.52 Q1824.02 1549.52 1820.94 1544.94 Q1817.89 1540.33 1817.89 1531.6 Q1817.89 1522.85 1820.94 1518.27 Q1824.02 1513.66 1829.83 1513.66 Z" fill="#000000" fill-rule="nonzero" fill-opacity="1" /><path clip-path="url(#clip650)" d="M1859.99 1517.37 Q1856.38 1517.37 1854.55 1520.93 Q1852.75 1524.47 1852.75 1531.6 Q1852.75 1538.71 1854.55 1542.27 Q1856.38 1545.82 1859.99 1545.82 Q1863.63 1545.82 1865.43 1542.27 Q1867.26 1538.71 1867.26 1531.6 Q1867.26 1524.47 1865.43 1520.93 Q1863.63 1517.37 1859.99 1517.37 M1859.99 1513.66 Q1865.8 1513.66 1868.86 1518.27 Q1871.94 1522.85 1871.94 1531.6 Q1871.94 1540.33 1868.86 1544.94 Q1865.8 1549.52 1859.99 1549.52 Q1854.18 1549.52 1851.1 1544.94 Q1848.05 1540.33 1848.05 1531.6 Q1848.05 1522.85 1851.1 1518.27 Q1854.18 1513.66 1859.99 1513.66 Z" fill="#000000" fill-rule="nonzero" fill-opacity="1" /><path clip-path="url(#clip650)" d="M1949.95 1518.36 L1938.15 1536.81 L1949.95 1536.81 L1949.95 1518.36 M1948.73 1514.29 L1954.61 1514.29 L1954.61 1536.81 L1959.54 1536.81 L1959.54 1540.7 L1954.61 1540.7 L1954.61 1548.85 L1949.95 1548.85 L1949.95 1540.7 L1934.35 1540.7 L1934.35 1536.19 L1948.73 1514.29 Z" fill="#000000" fill-rule="nonzero" fill-opacity="1" /><path clip-path="url(#clip650)" d="M1977.27 1517.37 Q1973.66 1517.37 1971.83 1520.93 Q1970.02 1524.47 1970.02 1531.6 Q1970.02 1538.71 1971.83 1542.27 Q1973.66 1545.82 1977.27 1545.82 Q1980.9 1545.82 1982.71 1542.27 Q1984.54 1538.71 1984.54 1531.6 Q1984.54 1524.47 1982.71 1520.93 Q1980.9 1517.37 1977.27 1517.37 M1977.27 1513.66 Q1983.08 1513.66 1986.13 1518.27 Q1989.21 1522.85 1989.21 1531.6 Q1989.21 1540.33 1986.13 1544.94 Q1983.08 1549.52 1977.27 1549.52 Q1971.46 1549.52 1968.38 1544.94 Q1965.32 1540.33 1965.32 1531.6 Q1965.32 1522.85 1968.38 1518.27 Q1971.46 1513.66 1977.27 1513.66 Z" fill="#000000" fill-rule="nonzero" fill-opacity="1" /><path clip-path="url(#clip650)" d="M2007.43 1517.37 Q2003.82 1517.37 2001.99 1520.93 Q2000.18 1524.47 2000.18 1531.6 Q2000.18 1538.71 2001.99 1542.27 Q2003.82 1545.82 2007.43 1545.82 Q2011.06 1545.82 2012.87 1542.27 Q2014.7 1538.71 2014.7 1531.6 Q2014.7 1524.47 2012.87 1520.93 Q2011.06 1517.37 2007.43 1517.37 M2007.43 1513.66 Q2013.24 1513.66 2016.29 1518.27 Q2019.37 1522.85 2019.37 1531.6 Q2019.37 1540.33 2016.29 1544.94 Q2013.24 1549.52 2007.43 1549.52 Q2001.62 1549.52 1998.54 1544.94 Q1995.48 1540.33 1995.48 1531.6 Q1995.48 1522.85 1998.54 1518.27 Q2001.62 1513.66 2007.43 1513.66 Z" fill="#000000" fill-rule="nonzero" fill-opacity="1" /><path clip-path="url(#clip650)" d="M2083.27 1514.29 L2101.62 1514.29 L2101.62 1518.22 L2087.55 1518.22 L2087.55 1526.7 Q2088.57 1526.35 2089.59 1526.19 Q2090.61 1526 2091.62 1526 Q2097.41 1526 2100.79 1529.17 Q2104.17 1532.34 2104.17 1537.76 Q2104.17 1543.34 2100.7 1546.44 Q2097.23 1549.52 2090.91 1549.52 Q2088.73 1549.52 2086.46 1549.15 Q2084.22 1548.78 2081.81 1548.04 L2081.81 1543.34 Q2083.89 1544.47 2086.12 1545.03 Q2088.34 1545.58 2090.81 1545.58 Q2094.82 1545.58 2097.16 1543.48 Q2099.49 1541.37 2099.49 1537.76 Q2099.49 1534.15 2097.16 1532.04 Q2094.82 1529.94 2090.81 1529.94 Q2088.94 1529.94 2087.06 1530.35 Q2085.21 1530.77 2083.27 1531.65 L2083.27 1514.29 Z" fill="#000000" fill-rule="nonzero" fill-opacity="1" /><path clip-path="url(#clip650)" d="M2123.38 1517.37 Q2119.77 1517.37 2117.94 1520.93 Q2116.14 1524.47 2116.14 1531.6 Q2116.14 1538.71 2117.94 1542.27 Q2119.77 1545.82 2123.38 1545.82 Q2127.02 1545.82 2128.82 1542.27 Q2130.65 1538.71 2130.65 1531.6 Q2130.65 1524.47 2128.82 1520.93 Q2127.02 1517.37 2123.38 1517.37 M2123.38 1513.66 Q2129.19 1513.66 2132.25 1518.27 Q2135.33 1522.85 2135.33 1531.6 Q2135.33 1540.33 2132.25 1544.94 Q2129.19 1549.52 2123.38 1549.52 Q2117.57 1549.52 2114.49 1544.94 Q2111.44 1540.33 2111.44 1531.6 Q2111.44 1522.85 2114.49 1518.27 Q2117.57 1513.66 2123.38 1513.66 Z" fill="#000000" fill-rule="nonzero" fill-opacity="1" /><path clip-path="url(#clip650)" d="M2153.55 1517.37 Q2149.93 1517.37 2148.11 1520.93 Q2146.3 1524.47 2146.3 1531.6 Q2146.3 1538.71 2148.11 1542.27 Q2149.93 1545.82 2153.55 1545.82 Q2157.18 1545.82 2158.99 1542.27 Q2160.81 1538.71 2160.81 1531.6 Q2160.81 1524.47 2158.99 1520.93 Q2157.18 1517.37 2153.55 1517.37 M2153.55 1513.66 Q2159.36 1513.66 2162.41 1518.27 Q2165.49 1522.85 2165.49 1531.6 Q2165.49 1540.33 2162.41 1544.94 Q2159.36 1549.52 2153.55 1549.52 Q2147.74 1549.52 2144.66 1544.94 Q2141.6 1540.33 2141.6 1531.6 Q2141.6 1522.85 2144.66 1518.27 Q2147.74 1513.66 2153.55 1513.66 Z" fill="#000000" fill-rule="nonzero" fill-opacity="1" /><path clip-path="url(#clip650)" d="M2240.76 1529.7 Q2237.61 1529.7 2235.76 1531.86 Q2233.93 1534.01 2233.93 1537.76 Q2233.93 1541.49 2235.76 1543.66 Q2237.61 1545.82 2240.76 1545.82 Q2243.91 1545.82 2245.74 1543.66 Q2247.59 1541.49 2247.59 1537.76 Q2247.59 1534.01 2245.74 1531.86 Q2243.91 1529.7 2240.76 1529.7 M2250.04 1515.05 L2250.04 1519.31 Q2248.28 1518.48 2246.48 1518.04 Q2244.7 1517.6 2242.94 1517.6 Q2238.31 1517.6 2235.85 1520.72 Q2233.42 1523.85 2233.08 1530.17 Q2234.44 1528.15 2236.5 1527.09 Q2238.56 1526 2241.04 1526 Q2246.25 1526 2249.26 1529.17 Q2252.29 1532.32 2252.29 1537.76 Q2252.29 1543.08 2249.14 1546.3 Q2245.99 1549.52 2240.76 1549.52 Q2234.77 1549.52 2231.6 1544.94 Q2228.42 1540.33 2228.42 1531.6 Q2228.42 1523.41 2232.31 1518.55 Q2236.2 1513.66 2242.75 1513.66 Q2244.51 1513.66 2246.29 1514.01 Q2248.1 1514.36 2250.04 1515.05 Z" fill="#000000" fill-rule="nonzero" fill-opacity="1" /><path clip-path="url(#clip650)" d="M2270.34 1517.37 Q2266.73 1517.37 2264.91 1520.93 Q2263.1 1524.47 2263.1 1531.6 Q2263.1 1538.71 2264.91 1542.27 Q2266.73 1545.82 2270.34 1545.82 Q2273.98 1545.82 2275.78 1542.27 Q2277.61 1538.71 2277.61 1531.6 Q2277.61 1524.47 2275.78 1520.93 Q2273.98 1517.37 2270.34 1517.37 M2270.34 1513.66 Q2276.15 1513.66 2279.21 1518.27 Q2282.29 1522.85 2282.29 1531.6 Q2282.29 1540.33 2279.21 1544.94 Q2276.15 1549.52 2270.34 1549.52 Q2264.53 1549.52 2261.46 1544.94 Q2258.4 1540.33 2258.4 1531.6 Q2258.4 1522.85 2261.46 1518.27 Q2264.53 1513.66 2270.34 1513.66 Z" fill="#000000" fill-rule="nonzero" fill-opacity="1" /><path clip-path="url(#clip650)" d="M2300.51 1517.37 Q2296.9 1517.37 2295.07 1520.93 Q2293.26 1524.47 2293.26 1531.6 Q2293.26 1538.71 2295.07 1542.27 Q2296.9 1545.82 2300.51 1545.82 Q2304.14 1545.82 2305.95 1542.27 Q2307.78 1538.71 2307.78 1531.6 Q2307.78 1524.47 2305.95 1520.93 Q2304.14 1517.37 2300.51 1517.37 M2300.51 1513.66 Q2306.32 1513.66 2309.37 1518.27 Q2312.45 1522.85 2312.45 1531.6 Q2312.45 1540.33 2309.37 1544.94 Q2306.32 1549.52 2300.51 1549.52 Q2294.7 1549.52 2291.62 1544.94 Q2288.56 1540.33 2288.56 1531.6 Q2288.56 1522.85 2291.62 1518.27 Q2294.7 1513.66 2300.51 1513.66 Z" fill="#000000" fill-rule="nonzero" fill-opacity="1" /><polyline clip-path="url(#clip650)" style="stroke:#000000; stroke-linecap:round; stroke-linejoin:round; stroke-width:4; stroke-opacity:1; fill:none" points="1363.17,1486.45 1363.17,47.2441 "/>
<polyline clip-path="url(#clip650)" style="stroke:#000000; stroke-linecap:round; stroke-linejoin:round; stroke-width:4; stroke-opacity:1; fill:none" points="1363.17,1377 1382.07,1377 "/>
<polyline clip-path="url(#clip650)" style="stroke:#000000; stroke-linecap:round; stroke-linejoin:round; stroke-width:4; stroke-opacity:1; fill:none" points="1363.17,1165.94 1382.07,1165.94 "/>
<polyline clip-path="url(#clip650)" style="stroke:#000000; stroke-linecap:round; stroke-linejoin:round; stroke-width:4; stroke-opacity:1; fill:none" points="1363.17,954.875 1382.07,954.875 "/>
<polyline clip-path="url(#clip650)" style="stroke:#000000; stroke-linecap:round; stroke-linejoin:round; stroke-width:4; stroke-opacity:1; fill:none" points="1363.17,743.811 1382.07,743.811 "/>
<polyline clip-path="url(#clip650)" style="stroke:#000000; stroke-linecap:round; stroke-linejoin:round; stroke-width:4; stroke-opacity:1; fill:none" points="1363.17,532.746 1382.07,532.746 "/>
<polyline clip-path="url(#clip650)" style="stroke:#000000; stroke-linecap:round; stroke-linejoin:round; stroke-width:4; stroke-opacity:1; fill:none" points="1363.17,321.682 1382.07,321.682 "/>
<polyline clip-path="url(#clip650)" style="stroke:#000000; stroke-linecap:round; stroke-linejoin:round; stroke-width:4; stroke-opacity:1; fill:none" points="1363.17,110.617 1382.07,110.617 "/>
<path clip-path="url(#clip650)" d="M1235.3 1377.46 L1264.97 1377.46 L1264.97 1381.39 L1235.3 1381.39 L1235.3 1377.46 Z" fill="#000000" fill-rule="nonzero" fill-opacity="1" /><path clip-path="url(#clip650)" d="M1289.23 1375.65 Q1292.59 1376.37 1294.46 1378.64 Q1296.36 1380.9 1296.36 1384.24 Q1296.36 1389.35 1292.84 1392.15 Q1289.33 1394.96 1282.84 1394.96 Q1280.67 1394.96 1278.35 1394.52 Q1276.06 1394.1 1273.61 1393.24 L1273.61 1388.73 Q1275.55 1389.86 1277.87 1390.44 Q1280.18 1391.02 1282.7 1391.02 Q1287.1 1391.02 1289.39 1389.28 Q1291.71 1387.55 1291.71 1384.24 Q1291.71 1381.18 1289.56 1379.47 Q1287.43 1377.73 1283.61 1377.73 L1279.58 1377.73 L1279.58 1373.89 L1283.79 1373.89 Q1287.24 1373.89 1289.07 1372.53 Q1290.9 1371.14 1290.9 1368.54 Q1290.9 1365.88 1289 1364.47 Q1287.13 1363.03 1283.61 1363.03 Q1281.69 1363.03 1279.49 1363.45 Q1277.29 1363.87 1274.65 1364.75 L1274.65 1360.58 Q1277.31 1359.84 1279.63 1359.47 Q1281.96 1359.1 1284.02 1359.1 Q1289.35 1359.1 1292.45 1361.53 Q1295.55 1363.94 1295.55 1368.06 Q1295.55 1370.93 1293.91 1372.92 Q1292.27 1374.89 1289.23 1375.65 Z" fill="#000000" fill-rule="nonzero" fill-opacity="1" /><path clip-path="url(#clip650)" d="M1315.23 1362.8 Q1311.62 1362.8 1309.79 1366.37 Q1307.98 1369.91 1307.98 1377.04 Q1307.98 1384.15 1309.79 1387.71 Q1311.62 1391.25 1315.23 1391.25 Q1318.86 1391.25 1320.67 1387.71 Q1322.5 1384.15 1322.5 1377.04 Q1322.5 1369.91 1320.67 1366.37 Q1318.86 1362.8 1315.23 1362.8 M1315.23 1359.1 Q1321.04 1359.1 1324.09 1363.71 Q1327.17 1368.29 1327.17 1377.04 Q1327.17 1385.77 1324.09 1390.37 Q1321.04 1394.96 1315.23 1394.96 Q1309.42 1394.96 1306.34 1390.37 Q1303.28 1385.77 1303.28 1377.04 Q1303.28 1368.29 1306.34 1363.71 Q1309.42 1359.1 1315.23 1359.1 Z" fill="#000000" fill-rule="nonzero" fill-opacity="1" /><path clip-path="url(#clip650)" d="M1235.3 1166.39 L1264.97 1166.39 L1264.97 1170.33 L1235.3 1170.33 L1235.3 1166.39 Z" fill="#000000" fill-rule="nonzero" fill-opacity="1" /><path clip-path="url(#clip650)" d="M1279.09 1179.28 L1295.41 1179.28 L1295.41 1183.22 L1273.47 1183.22 L1273.47 1179.28 Q1276.13 1176.53 1280.71 1171.9 Q1285.32 1167.25 1286.5 1165.91 Q1288.75 1163.38 1289.63 1161.65 Q1290.53 1159.89 1290.53 1158.2 Q1290.53 1155.44 1288.58 1153.71 Q1286.66 1151.97 1283.56 1151.97 Q1281.36 1151.97 1278.91 1152.73 Q1276.48 1153.5 1273.7 1155.05 L1273.7 1150.33 Q1276.52 1149.19 1278.98 1148.61 Q1281.43 1148.03 1283.47 1148.03 Q1288.84 1148.03 1292.03 1150.72 Q1295.23 1153.41 1295.23 1157.9 Q1295.23 1160.03 1294.42 1161.95 Q1293.63 1163.84 1291.52 1166.44 Q1290.95 1167.11 1287.84 1170.33 Q1284.74 1173.52 1279.09 1179.28 Z" fill="#000000" fill-rule="nonzero" fill-opacity="1" /><path clip-path="url(#clip650)" d="M1315.23 1151.74 Q1311.62 1151.74 1309.79 1155.3 Q1307.98 1158.84 1307.98 1165.97 Q1307.98 1173.08 1309.79 1176.65 Q1311.62 1180.19 1315.23 1180.19 Q1318.86 1180.19 1320.67 1176.65 Q1322.5 1173.08 1322.5 1165.97 Q1322.5 1158.84 1320.67 1155.3 Q1318.86 1151.74 1315.23 1151.74 M1315.23 1148.03 Q1321.04 1148.03 1324.09 1152.64 Q1327.17 1157.22 1327.17 1165.97 Q1327.17 1174.7 1324.09 1179.31 Q1321.04 1183.89 1315.23 1183.89 Q1309.42 1183.89 1306.34 1179.31 Q1303.28 1174.7 1303.28 1165.97 Q1303.28 1157.22 1306.34 1152.64 Q1309.42 1148.03 1315.23 1148.03 Z" fill="#000000" fill-rule="nonzero" fill-opacity="1" /><path clip-path="url(#clip650)" d="M1235.3 955.327 L1264.97 955.327 L1264.97 959.262 L1235.3 959.262 L1235.3 955.327 Z" fill="#000000" fill-rule="nonzero" fill-opacity="1" /><path clip-path="url(#clip650)" d="M1275.88 968.22 L1283.52 968.22 L1283.52 941.855 L1275.2 943.521 L1275.2 939.262 L1283.47 937.595 L1288.14 937.595 L1288.14 968.22 L1295.78 968.22 L1295.78 972.155 L1275.88 972.155 L1275.88 968.22 Z" fill="#000000" fill-rule="nonzero" fill-opacity="1" /><path clip-path="url(#clip650)" d="M1315.23 940.674 Q1311.62 940.674 1309.79 944.239 Q1307.98 947.78 1307.98 954.91 Q1307.98 962.016 1309.79 965.581 Q1311.62 969.123 1315.23 969.123 Q1318.86 969.123 1320.67 965.581 Q1322.5 962.016 1322.5 954.91 Q1322.5 947.78 1320.67 944.239 Q1318.86 940.674 1315.23 940.674 M1315.23 936.97 Q1321.04 936.97 1324.09 941.577 Q1327.17 946.16 1327.17 954.91 Q1327.17 963.637 1324.09 968.243 Q1321.04 972.827 1315.23 972.827 Q1309.42 972.827 1306.34 968.243 Q1303.28 963.637 1303.28 954.91 Q1303.28 946.16 1306.34 941.577 Q1309.42 936.97 1315.23 936.97 Z" fill="#000000" fill-rule="nonzero" fill-opacity="1" /><path clip-path="url(#clip650)" d="M1315.23 729.61 Q1311.62 729.61 1309.79 733.174 Q1307.98 736.716 1307.98 743.846 Q1307.98 750.952 1309.79 754.517 Q1311.62 758.058 1315.23 758.058 Q1318.86 758.058 1320.67 754.517 Q1322.5 750.952 1322.5 743.846 Q1322.5 736.716 1320.67 733.174 Q1318.86 729.61 1315.23 729.61 M1315.23 725.906 Q1321.04 725.906 1324.09 730.512 Q1327.17 735.096 1327.17 743.846 Q1327.17 752.572 1324.09 757.179 Q1321.04 761.762 1315.23 761.762 Q1309.42 761.762 1306.34 757.179 Q1303.28 752.572 1303.28 743.846 Q1303.28 735.096 1306.34 730.512 Q1309.42 725.906 1315.23 725.906 Z" fill="#000000" fill-rule="nonzero" fill-opacity="1" /><path clip-path="url(#clip650)" d="M1275.88 546.091 L1283.52 546.091 L1283.52 519.726 L1275.2 521.392 L1275.2 517.133 L1283.47 515.466 L1288.14 515.466 L1288.14 546.091 L1295.78 546.091 L1295.78 550.026 L1275.88 550.026 L1275.88 546.091 Z" fill="#000000" fill-rule="nonzero" fill-opacity="1" /><path clip-path="url(#clip650)" d="M1315.23 518.545 Q1311.62 518.545 1309.79 522.11 Q1307.98 525.652 1307.98 532.781 Q1307.98 539.888 1309.79 543.452 Q1311.62 546.994 1315.23 546.994 Q1318.86 546.994 1320.67 543.452 Q1322.5 539.888 1322.5 532.781 Q1322.5 525.652 1320.67 522.11 Q1318.86 518.545 1315.23 518.545 M1315.23 514.841 Q1321.04 514.841 1324.09 519.448 Q1327.17 524.031 1327.17 532.781 Q1327.17 541.508 1324.09 546.114 Q1321.04 550.698 1315.23 550.698 Q1309.42 550.698 1306.34 546.114 Q1303.28 541.508 1303.28 532.781 Q1303.28 524.031 1306.34 519.448 Q1309.42 514.841 1315.23 514.841 Z" fill="#000000" fill-rule="nonzero" fill-opacity="1" /><path clip-path="url(#clip650)" d="M1279.09 335.027 L1295.41 335.027 L1295.41 338.962 L1273.47 338.962 L1273.47 335.027 Q1276.13 332.272 1280.71 327.643 Q1285.32 322.99 1286.5 321.647 Q1288.75 319.124 1289.63 317.388 Q1290.53 315.629 1290.53 313.939 Q1290.53 311.184 1288.58 309.448 Q1286.66 307.712 1283.56 307.712 Q1281.36 307.712 1278.91 308.476 Q1276.48 309.24 1273.7 310.791 L1273.7 306.069 Q1276.52 304.934 1278.98 304.356 Q1281.43 303.777 1283.47 303.777 Q1288.84 303.777 1292.03 306.462 Q1295.23 309.147 1295.23 313.638 Q1295.23 315.768 1294.42 317.689 Q1293.63 319.587 1291.52 322.18 Q1290.95 322.851 1287.84 326.069 Q1284.74 329.263 1279.09 335.027 Z" fill="#000000" fill-rule="nonzero" fill-opacity="1" /><path clip-path="url(#clip650)" d="M1315.23 307.481 Q1311.62 307.481 1309.79 311.045 Q1307.98 314.587 1307.98 321.717 Q1307.98 328.823 1309.79 332.388 Q1311.62 335.93 1315.23 335.93 Q1318.86 335.93 1320.67 332.388 Q1322.5 328.823 1322.5 321.717 Q1322.5 314.587 1320.67 311.045 Q1318.86 307.481 1315.23 307.481 M1315.23 303.777 Q1321.04 303.777 1324.09 308.383 Q1327.17 312.967 1327.17 321.717 Q1327.17 330.443 1324.09 335.05 Q1321.04 339.633 1315.23 339.633 Q1309.42 339.633 1306.34 335.05 Q1303.28 330.443 1303.28 321.717 Q1303.28 312.967 1306.34 308.383 Q1309.42 303.777 1315.23 303.777 Z" fill="#000000" fill-rule="nonzero" fill-opacity="1" /><path clip-path="url(#clip650)" d="M1289.23 109.263 Q1292.59 109.981 1294.46 112.249 Q1296.36 114.518 1296.36 117.851 Q1296.36 122.967 1292.84 125.768 Q1289.33 128.569 1282.84 128.569 Q1280.67 128.569 1278.35 128.129 Q1276.06 127.712 1273.61 126.856 L1273.61 122.342 Q1275.55 123.476 1277.87 124.055 Q1280.18 124.634 1282.7 124.634 Q1287.1 124.634 1289.39 122.898 Q1291.71 121.161 1291.71 117.851 Q1291.71 114.796 1289.56 113.083 Q1287.43 111.347 1283.61 111.347 L1279.58 111.347 L1279.58 107.504 L1283.79 107.504 Q1287.24 107.504 1289.07 106.138 Q1290.9 104.749 1290.9 102.157 Q1290.9 99.4949 1289 98.0828 Q1287.13 96.6477 1283.61 96.6477 Q1281.69 96.6477 1279.49 97.0643 Q1277.29 97.481 1274.65 98.3606 L1274.65 94.194 Q1277.31 93.4532 1279.63 93.0829 Q1281.96 92.7125 1284.02 92.7125 Q1289.35 92.7125 1292.45 95.143 Q1295.55 97.5504 1295.55 101.671 Q1295.55 104.541 1293.91 106.532 Q1292.27 108.499 1289.23 109.263 Z" fill="#000000" fill-rule="nonzero" fill-opacity="1" /><path clip-path="url(#clip650)" d="M1315.23 96.4162 Q1311.62 96.4162 1309.79 99.981 Q1307.98 103.523 1307.98 110.652 Q1307.98 117.759 1309.79 121.323 Q1311.62 124.865 1315.23 124.865 Q1318.86 124.865 1320.67 121.323 Q1322.5 117.759 1322.5 110.652 Q1322.5 103.523 1320.67 99.981 Q1318.86 96.4162 1315.23 96.4162 M1315.23 92.7125 Q1321.04 92.7125 1324.09 97.319 Q1327.17 101.902 1327.17 110.652 Q1327.17 119.379 1324.09 123.985 Q1321.04 128.569 1315.23 128.569 Q1309.42 128.569 1306.34 123.985 Q1303.28 119.379 1303.28 110.652 Q1303.28 101.902 1306.34 97.319 Q1309.42 92.7125 1315.23 92.7125 Z" fill="#000000" fill-rule="nonzero" fill-opacity="1" /><polyline clip-path="url(#clip651)" style="stroke:#009af9; stroke-linecap:round; stroke-linejoin:round; stroke-width:4; stroke-opacity:1; fill:none" points="1391.18,87.9763 1392.65,332.041 1394.12,451.056 1395.58,531.15 1397.05,588.799 1398.52,632.016 1399.99,665.397 1401.45,691.819 1402.92,713.193 1404.39,730.839 1405.86,745.705 1407.33,758.493 1408.79,769.734 1410.26,779.846 1411.73,789.156 1413.2,797.918 1414.67,806.322 1416.13,814.493 1417.6,822.499 1419.07,830.352 1420.54,838.025 1422,845.465 1423.47,852.615 1424.94,859.422 1426.41,865.849 1427.88,871.874 1429.34,877.49 1430.81,882.704 1432.28,887.532 1433.75,891.996 1435.22,896.119 1436.68,899.929 1438.15,903.452 1439.62,906.714 1441.09,909.739 1442.56,912.55 1444.02,915.167 1445.49,917.611 1446.96,919.899 1448.43,922.046 1449.89,924.067 1451.36,925.974 1452.83,927.778 1454.3,929.49 1455.77,931.118 1457.23,932.671 1458.7,934.156 1460.17,935.579 1461.64,936.946 1463.11,938.263 1464.57,939.534 1466.04,940.764 1467.51,941.957 1468.98,943.116 1470.44,944.245 1471.91,945.348 1473.38,946.426 1474.85,947.484 1476.32,948.523 1477.78,949.546 1479.25,950.556 1480.72,951.555 1482.19,952.545 1483.66,953.529 1485.12,954.507 1486.59,955.482 1488.06,956.456 1489.53,957.431 1490.99,958.407 1492.46,959.387 1493.93,960.371 1495.4,961.362 1496.87,962.36 1498.33,963.366 1499.8,964.381 1501.27,965.405 1502.74,966.44 1504.21,967.486 1505.67,968.543 1507.14,969.611 1508.61,970.691 1510.08,971.782 1511.55,972.885 1513.01,973.999 1514.48,975.125 1515.95,976.261 1517.42,977.408 1518.88,978.565 1520.35,979.733 1521.82,980.912 1523.29,982.101 1524.76,983.3 1526.22,984.511 1527.69,985.734 1529.16,986.969 1530.63,988.217 1532.1,989.48 1533.56,990.758 1535.03,992.055 1536.5,993.372 1537.97,994.711 1539.43,996.074 1540.9,997.466 1542.37,998.888 1543.84,1000.35 1545.31,1001.84 1546.77,1003.38 1548.24,1004.96 1549.71,1006.6 1551.18,1008.29 1552.65,1010.04 1554.11,1011.85 1555.58,1013.73 1557.05,1015.68 1558.52,1017.7 1559.99,1019.8 1561.45,1021.97 1562.92,1024.23 1564.39,1026.56 1565.86,1028.96 1567.32,1031.44 1568.79,1034 1570.26,1036.62 1571.73,1039.31 1573.2,1042.07 1574.66,1044.89 1576.13,1047.76 1577.6,1050.69 1579.07,1053.67 1580.54,1056.69 1582,1059.76 1583.47,1062.88 1584.94,1066.03 1586.41,1069.23 1587.87,1072.46 1589.34,1075.72 1590.81,1079.02 1592.28,1082.36 1593.75,1085.73 1595.21,1089.14 1596.68,1092.59 1598.15,1096.08 1599.62,1099.6 1601.09,1103.16 1602.55,1106.77 1604.02,1110.42 1605.49,1114.1 1606.96,1117.83 1608.43,1121.58 1609.89,1125.37 1611.36,1129.19 1612.83,1133.02 1614.3,1136.87 1615.76,1140.71 1617.23,1144.55 1618.7,1148.38 1620.17,1152.18 1621.64,1155.95 1623.1,1159.68 1624.57,1163.37 1626.04,1167 1627.51,1170.58 1628.98,1174.1 1630.44,1177.56 1631.91,1180.95 1633.38,1184.29 1634.85,1187.57 1636.31,1190.78 1637.78,1193.94 1639.25,1197.03 1640.72,1200.08 1642.19,1203.07 1643.65,1206 1645.12,1208.89 1646.59,1211.72 1648.06,1214.51 1649.53,1217.24 1650.99,1219.93 1652.46,1222.57 1653.93,1225.16 1655.4,1227.7 1656.87,1230.19 1658.33,1232.63 1659.8,1235.02 1661.27,1237.36 1662.74,1239.64 1664.2,1241.88 1665.67,1244.07 1667.14,1246.21 1668.61,1248.29 1670.08,1250.33 1671.54,1252.32 1673.01,1254.26 1674.48,1256.15 1675.95,1257.99 1677.42,1259.79 1678.88,1261.54 1680.35,1263.25 1681.82,1264.91 1683.29,1266.54 1684.75,1268.12 1686.22,1269.66 1687.69,1271.15 1689.16,1272.62 1690.63,1274.04 1692.09,1275.42 1693.56,1276.77 1695.03,1278.09 1696.5,1279.37 1697.97,1280.61 1699.43,1281.83 1700.9,1283.01 1702.37,1284.16 1703.84,1285.28 1705.3,1286.38 1706.77,1287.44 1708.24,1288.48 1709.71,1289.49 1711.18,1290.48 1712.64,1291.44 1714.11,1292.38 1715.58,1293.29 1717.05,1294.19 1718.52,1295.06 1719.98,1295.91 1721.45,1296.74 1722.92,1297.56 1724.39,1298.35 1725.86,1299.13 1727.32,1299.89 1728.79,1300.64 1730.26,1301.38 1731.73,1302.1 1733.19,1302.8 1734.66,1303.5 1736.13,1304.18 1737.6,1304.86 1739.07,1305.53 1740.53,1306.18 1742,1306.83 1743.47,1307.48 1744.94,1308.12 1746.41,1308.75 1747.87,1309.38 1749.34,1310 1750.81,1310.62 1752.28,1311.25 1753.74,1311.87 1755.21,1312.49 1756.68,1313.11 1758.15,1313.73 1759.62,1314.36 1761.08,1314.98 1762.55,1315.62 1764.02,1316.25 1765.49,1316.9 1766.96,1317.54 1768.42,1318.2 1769.89,1318.86 1771.36,1319.53 1772.83,1320.21 1774.3,1320.89 1775.76,1321.59 1777.23,1322.3 1778.7,1323.01 1780.17,1323.74 1781.63,1324.47 1783.1,1325.22 1784.57,1325.98 1786.04,1326.75 1787.51,1327.53 1788.97,1328.32 1790.44,1329.12 1791.91,1329.93 1793.38,1330.76 1794.85,1331.59 1796.31,1332.43 1797.78,1333.28 1799.25,1334.15 1800.72,1335.02 1802.18,1335.89 1803.65,1336.78 1805.12,1337.67 1806.59,1338.58 1808.06,1339.48 1809.52,1340.4 1810.99,1341.32 1812.46,1342.24 1813.93,1343.18 1815.4,1344.11 1816.86,1345.05 1818.33,1346 1819.8,1346.95 1821.27,1347.9 1822.74,1348.86 1824.2,1349.82 1825.67,1350.78 1827.14,1351.75 1828.61,1352.72 1830.07,1353.69 1831.54,1354.66 1833.01,1355.63 1834.48,1356.6 1835.95,1357.58 1837.41,1358.55 1838.88,1359.53 1840.35,1360.5 1841.82,1361.48 1843.29,1362.45 1844.75,1363.42 1846.22,1364.39 1847.69,1365.35 1849.16,1366.32 1850.62,1367.28 1852.09,1368.23 1853.56,1369.19 1855.03,1370.13 1856.5,1371.08 1857.96,1372.01 1859.43,1372.94 1860.9,1373.87 1862.37,1374.79 1863.84,1375.7 1865.3,1376.6 1866.77,1377.49 1868.24,1378.38 1869.71,1379.26 1871.17,1380.13 1872.64,1380.99 1874.11,1381.84 1875.58,1382.68 1877.05,1383.51 1878.51,1384.33 1879.98,1385.14 1881.45,1385.94 1882.92,1386.73 1884.39,1387.51 1885.85,1388.28 1887.32,1389.04 1888.79,1389.78 1890.26,1390.52 1891.73,1391.24 1893.19,1391.96 1894.66,1392.67 1896.13,1393.36 1897.6,1394.04 1899.06,1394.72 1900.53,1395.38 1902,1396.04 1903.47,1396.68 1904.94,1397.32 1906.4,1397.95 1907.87,1398.57 1909.34,1399.18 1910.81,1399.78 1912.28,1400.37 1913.74,1400.96 1915.21,1401.54 1916.68,1402.11 1918.15,1402.68 1919.61,1403.24 1921.08,1403.79 1922.55,1404.34 1924.02,1404.88 1925.49,1405.42 1926.95,1405.95 1928.42,1406.48 1929.89,1407 1931.36,1407.52 1932.83,1408.04 1934.29,1408.55 1935.76,1409.06 1937.23,1409.57 1938.7,1410.07 1940.17,1410.58 1941.63,1411.08 1943.1,1411.58 1944.57,1412.07 1946.04,1412.57 1947.5,1413.06 1948.97,1413.56 1950.44,1414.05 1951.91,1414.54 1953.38,1415.03 1954.84,1415.52 1956.31,1416.01 1957.78,1416.5 1959.25,1416.98 1960.72,1417.47 1962.18,1417.96 1963.65,1418.44 1965.12,1418.93 1966.59,1419.41 1968.05,1419.9 1969.52,1420.38 1970.99,1420.86 1972.46,1421.34 1973.93,1421.82 1975.39,1422.3 1976.86,1422.78 1978.33,1423.25 1979.8,1423.72 1981.27,1424.19 1982.73,1424.66 1984.2,1425.13 1985.67,1425.59 1987.14,1426.05 1988.61,1426.51 1990.07,1426.96 1991.54,1427.41 1993.01,1427.85 1994.48,1428.29 1995.94,1428.73 1997.41,1429.16 1998.88,1429.59 2000.35,1430.01 2001.82,1430.43 2003.28,1430.84 2004.75,1431.25 2006.22,1431.65 2007.69,1432.04 2009.16,1432.43 2010.62,1432.81 2012.09,1433.19 2013.56,1433.55 2015.03,1433.92 2016.49,1434.27 2017.96,1434.62 2019.43,1434.96 2020.9,1435.3 2022.37,1435.63 2023.83,1435.95 2025.3,1436.26 2026.77,1436.57 2028.24,1436.87 2029.71,1437.16 2031.17,1437.45 2032.64,1437.72 2034.11,1438 2035.58,1438.26 2037.05,1438.52 2038.51,1438.77 2039.98,1439.01 2041.45,1439.25 2042.92,1439.48 2044.38,1439.71 2045.85,1439.92 2047.32,1440.14 2048.79,1440.34 2050.26,1440.54 2051.72,1440.73 2053.19,1440.92 2054.66,1441.1 2056.13,1441.27 2057.6,1441.44 2059.06,1441.61 2060.53,1441.77 2062,1441.92 2063.47,1442.07 2064.93,1442.21 2066.4,1442.35 2067.87,1442.48 2069.34,1442.61 2070.81,1442.73 2072.27,1442.85 2073.74,1442.97 2075.21,1443.08 2076.68,1443.19 2078.15,1443.29 2079.61,1443.39 2081.08,1443.48 2082.55,1443.58 2084.02,1443.67 2085.48,1443.75 2086.95,1443.83 2088.42,1443.91 2089.89,1443.99 2091.36,1444.06 2092.82,1444.13 2094.29,1444.19 2095.76,1444.26 2097.23,1444.32 2098.7,1444.38 2100.16,1444.44 2101.63,1444.49 2103.1,1444.54 2104.57,1444.59 2106.04,1444.64 2107.5,1444.69 2108.97,1444.73 2110.44,1444.77 2111.91,1444.82 2113.37,1444.85 2114.84,1444.89 2116.31,1444.93 2117.78,1444.96 2119.25,1444.99 2120.71,1445.03 2122.18,1445.06 2123.65,1445.08 2125.12,1445.11 2126.59,1445.14 2128.05,1445.16 2129.52,1445.19 2130.99,1445.21 2132.46,1445.23 2133.92,1445.25 2135.39,1445.27 2136.86,1445.29 2138.33,1445.31 2139.8,1445.33 2141.26,1445.35 2142.73,1445.36 2144.2,1445.38 2145.67,1445.39 2147.14,1445.41 2148.6,1445.42 2150.07,1445.43 2151.54,1445.45 2153.01,1445.46 2154.48,1445.47 2155.94,1445.48 2157.41,1445.49 2158.88,1445.5 2160.35,1445.51 2161.81,1445.52 2163.28,1445.53 2164.75,1445.54 2166.22,1445.54 2167.69,1445.55 2169.15,1445.56 2170.62,1445.57 2172.09,1445.57 2173.56,1445.58 2175.03,1445.59 2176.49,1445.59 2177.96,1445.6 2179.43,1445.6 2180.9,1445.61 2182.36,1445.61 2183.83,1445.62 2185.3,1445.62 2186.77,1445.62 2188.24,1445.63 2189.7,1445.63 2191.17,1445.64 2192.64,1445.64 2194.11,1445.64 2195.58,1445.65 2197.04,1445.65 2198.51,1445.65 2199.98,1445.66 2201.45,1445.66 2202.92,1445.66 2204.38,1445.66 2205.85,1445.67 2207.32,1445.67 2208.79,1445.67 2210.25,1445.67 2211.72,1445.67 2213.19,1445.68 2214.66,1445.68 2216.13,1445.68 2217.59,1445.68 2219.06,1445.68 2220.53,1445.68 2222,1445.69 2223.47,1445.69 2224.93,1445.69 2226.4,1445.69 2227.87,1445.69 2229.34,1445.69 2230.8,1445.69 2232.27,1445.69 2233.74,1445.69 2235.21,1445.7 2236.68,1445.7 2238.14,1445.7 2239.61,1445.7 2241.08,1445.7 2242.55,1445.7 2244.02,1445.7 2245.48,1445.7 2246.95,1445.7 2248.42,1445.7 2249.89,1445.7 2251.35,1445.7 2252.82,1445.7 2254.29,1445.71 2255.76,1445.71 2257.23,1445.71 2258.69,1445.71 2260.16,1445.71 2261.63,1445.71 2263.1,1445.71 2264.57,1445.71 2266.03,1445.71 2267.5,1445.71 2268.97,1445.71 2270.44,1445.71 2271.91,1445.71 2273.37,1445.71 2274.84,1445.71 2276.31,1445.71 2277.78,1445.71 2279.24,1445.71 2280.71,1445.71 2282.18,1445.71 2283.65,1445.71 2285.12,1445.71 2286.58,1445.71 2288.05,1445.71 2289.52,1445.71 2290.99,1445.71 2292.46,1445.71 2293.92,1445.71 2295.39,1445.71 2296.86,1445.71 2298.33,1445.71 2299.79,1445.71 2301.26,1445.71 2302.73,1445.71 2304.2,1445.71 2305.67,1445.71 2307.13,1445.71 2308.6,1445.71 2310.07,1445.71 2311.54,1445.71 2313.01,1445.72 2314.47,1445.72 2315.94,1445.72 2317.41,1445.72 2318.88,1445.72 2320.35,1445.72 2321.81,1445.72 2323.28,1445.72 2324.75,1445.72 "/>
<path clip-path="url(#clip650)" d="M2085.4 198.898 L2319.77 198.898 L2319.77 95.2176 L2085.4 95.2176  Z" fill="#ffffff" fill-rule="evenodd" fill-opacity="1"/>
<polyline clip-path="url(#clip650)" style="stroke:#000000; stroke-linecap:round; stroke-linejoin:round; stroke-width:4; stroke-opacity:1; fill:none" points="2085.4,198.898 2319.77,198.898 2319.77,95.2176 2085.4,95.2176 2085.4,198.898 "/>
<polyline clip-path="url(#clip650)" style="stroke:#009af9; stroke-linecap:round; stroke-linejoin:round; stroke-width:4; stroke-opacity:1; fill:none" points="2096.39,147.058 2162.36,147.058 "/>
<path clip-path="url(#clip650)" d="M2191.78 139.176 L2191.78 143.203 Q2189.98 142.277 2188.03 141.815 Q2186.09 141.352 2184.01 141.352 Q2180.84 141.352 2179.24 142.324 Q2177.66 143.296 2177.66 145.24 Q2177.66 146.722 2178.8 147.578 Q2179.93 148.412 2183.36 149.176 L2184.82 149.5 Q2189.35 150.472 2191.25 152.254 Q2193.17 154.014 2193.17 157.185 Q2193.17 160.796 2190.3 162.902 Q2187.46 165.009 2182.46 165.009 Q2180.37 165.009 2178.1 164.592 Q2175.86 164.199 2173.36 163.388 L2173.36 158.99 Q2175.72 160.217 2178.01 160.842 Q2180.3 161.444 2182.55 161.444 Q2185.56 161.444 2187.18 160.426 Q2188.8 159.384 2188.8 157.509 Q2188.8 155.773 2187.62 154.847 Q2186.46 153.921 2182.5 153.064 L2181.02 152.717 Q2177.06 151.884 2175.3 150.171 Q2173.54 148.435 2173.54 145.426 Q2173.54 141.768 2176.14 139.778 Q2178.73 137.787 2183.5 137.787 Q2185.86 137.787 2187.94 138.134 Q2190.03 138.481 2191.78 139.176 Z" fill="#000000" fill-rule="nonzero" fill-opacity="1" /><path clip-path="url(#clip650)" d="M2204.17 131.051 L2204.17 138.412 L2212.94 138.412 L2212.94 141.722 L2204.17 141.722 L2204.17 155.796 Q2204.17 158.967 2205.02 159.87 Q2205.9 160.773 2208.57 160.773 L2212.94 160.773 L2212.94 164.338 L2208.57 164.338 Q2203.64 164.338 2201.76 162.509 Q2199.89 160.657 2199.89 155.796 L2199.89 141.722 L2196.76 141.722 L2196.76 138.412 L2199.89 138.412 L2199.89 131.051 L2204.17 131.051 Z" fill="#000000" fill-rule="nonzero" fill-opacity="1" /><path clip-path="url(#clip650)" d="M2233.57 142.393 Q2232.85 141.977 2231.99 141.791 Q2231.16 141.583 2230.14 141.583 Q2226.53 141.583 2224.59 143.944 Q2222.66 146.282 2222.66 150.68 L2222.66 164.338 L2218.38 164.338 L2218.38 138.412 L2222.66 138.412 L2222.66 142.44 Q2224.01 140.078 2226.16 138.944 Q2228.31 137.787 2231.39 137.787 Q2231.83 137.787 2232.36 137.856 Q2232.9 137.903 2233.54 138.018 L2233.57 142.393 Z" fill="#000000" fill-rule="nonzero" fill-opacity="1" /><path clip-path="url(#clip650)" d="M2259.17 150.31 L2259.17 152.393 L2239.58 152.393 Q2239.86 156.791 2242.22 159.106 Q2244.61 161.398 2248.84 161.398 Q2251.3 161.398 2253.59 160.796 Q2255.9 160.194 2258.17 158.99 L2258.17 163.018 Q2255.88 163.99 2253.47 164.5 Q2251.07 165.009 2248.59 165.009 Q2242.39 165.009 2238.75 161.398 Q2235.14 157.787 2235.14 151.629 Q2235.14 145.264 2238.57 141.537 Q2242.02 137.787 2247.85 137.787 Q2253.08 137.787 2256.11 141.166 Q2259.17 144.523 2259.17 150.31 M2254.91 149.06 Q2254.86 145.565 2252.94 143.481 Q2251.04 141.398 2247.9 141.398 Q2244.33 141.398 2242.18 143.412 Q2240.05 145.426 2239.72 149.083 L2254.91 149.06 Z" fill="#000000" fill-rule="nonzero" fill-opacity="1" /><path clip-path="url(#clip650)" d="M2282.69 139.176 L2282.69 143.203 Q2280.88 142.277 2278.94 141.815 Q2276.99 141.352 2274.91 141.352 Q2271.74 141.352 2270.14 142.324 Q2268.57 143.296 2268.57 145.24 Q2268.57 146.722 2269.7 147.578 Q2270.83 148.412 2274.26 149.176 L2275.72 149.5 Q2280.26 150.472 2282.15 152.254 Q2284.08 154.014 2284.08 157.185 Q2284.08 160.796 2281.21 162.902 Q2278.36 165.009 2273.36 165.009 Q2271.27 165.009 2269.01 164.592 Q2266.76 164.199 2264.26 163.388 L2264.26 158.99 Q2266.62 160.217 2268.91 160.842 Q2271.21 161.444 2273.45 161.444 Q2276.46 161.444 2278.08 160.426 Q2279.7 159.384 2279.7 157.509 Q2279.7 155.773 2278.52 154.847 Q2277.36 153.921 2273.4 153.064 L2271.92 152.717 Q2267.96 151.884 2266.21 150.171 Q2264.45 148.435 2264.45 145.426 Q2264.45 141.768 2267.04 139.778 Q2269.63 137.787 2274.4 137.787 Q2276.76 137.787 2278.84 138.134 Q2280.93 138.481 2282.69 139.176 Z" fill="#000000" fill-rule="nonzero" fill-opacity="1" /><path clip-path="url(#clip650)" d="M2307.39 139.176 L2307.39 143.203 Q2305.58 142.277 2303.64 141.815 Q2301.69 141.352 2299.61 141.352 Q2296.44 141.352 2294.84 142.324 Q2293.27 143.296 2293.27 145.24 Q2293.27 146.722 2294.4 147.578 Q2295.53 148.412 2298.96 149.176 L2300.42 149.5 Q2304.95 150.472 2306.85 152.254 Q2308.77 154.014 2308.77 157.185 Q2308.77 160.796 2305.9 162.902 Q2303.06 165.009 2298.06 165.009 Q2295.97 165.009 2293.71 164.592 Q2291.46 164.199 2288.96 163.388 L2288.96 158.99 Q2291.32 160.217 2293.61 160.842 Q2295.9 161.444 2298.15 161.444 Q2301.16 161.444 2302.78 160.426 Q2304.4 159.384 2304.4 157.509 Q2304.4 155.773 2303.22 154.847 Q2302.06 153.921 2298.1 153.064 L2296.62 152.717 Q2292.66 151.884 2290.9 150.171 Q2289.14 148.435 2289.14 145.426 Q2289.14 141.768 2291.74 139.778 Q2294.33 137.787 2299.1 137.787 Q2301.46 137.787 2303.54 138.134 Q2305.63 138.481 2307.39 139.176 Z" fill="#000000" fill-rule="nonzero" fill-opacity="1" /></svg>
