<?xml version="1.0" encoding="utf-8"?>
<svg xmlns="http://www.w3.org/2000/svg" xmlns:xlink="http://www.w3.org/1999/xlink" width="600" height="400" viewBox="0 0 2400 1600">
<defs>
  <clipPath id="clip400">
    <rect x="0" y="0" width="2400" height="1600"/>
  </clipPath>
</defs>
<path clip-path="url(#clip400)" d="M0 1600 L2400 1600 L2400 0 L0 0  Z" fill="#ffffff" fill-rule="evenodd" fill-opacity="1"/>
<defs>
  <clipPath id="clip401">
    <rect x="1454" y="47" width="899" height="1440"/>
  </clipPath>
</defs>
<path clip-path="url(#clip400)" d="M186.274 1486.45 L1084.12 1486.45 L1084.12 47.2441 L186.274 47.2441  Z" fill="#ffffff" fill-rule="evenodd" fill-opacity="1"/>
<defs>
  <clipPath id="clip402">
    <rect x="186" y="47" width="899" height="1440"/>
  </clipPath>
</defs>
<polyline clip-path="url(#clip402)" style="stroke:#000000; stroke-linecap:round; stroke-linejoin:round; stroke-width:2; stroke-opacity:0.1; fill:none" points="211.685,1486.45 211.685,47.2441 "/>
<polyline clip-path="url(#clip402)" style="stroke:#000000; stroke-linecap:round; stroke-linejoin:round; stroke-width:2; stroke-opacity:0.1; fill:none" points="423.441,1486.45 423.441,47.2441 "/>
<polyline clip-path="url(#clip402)" style="stroke:#000000; stroke-linecap:round; stroke-linejoin:round; stroke-width:2; stroke-opacity:0.1; fill:none" points="635.197,1486.45 635.197,47.2441 "/>
<polyline clip-path="url(#clip402)" style="stroke:#000000; stroke-linecap:round; stroke-linejoin:round; stroke-width:2; stroke-opacity:0.1; fill:none" points="846.952,1486.45 846.952,47.2441 "/>
<polyline clip-path="url(#clip402)" style="stroke:#000000; stroke-linecap:round; stroke-linejoin:round; stroke-width:2; stroke-opacity:0.1; fill:none" points="1058.71,1486.45 1058.71,47.2441 "/>
<polyline clip-path="url(#clip402)" style="stroke:#000000; stroke-linecap:round; stroke-linejoin:round; stroke-width:2; stroke-opacity:0.1; fill:none" points="186.274,1359.76 1084.12,1359.76 "/>
<polyline clip-path="url(#clip402)" style="stroke:#000000; stroke-linecap:round; stroke-linejoin:round; stroke-width:2; stroke-opacity:0.1; fill:none" points="186.274,1190.36 1084.12,1190.36 "/>
<polyline clip-path="url(#clip402)" style="stroke:#000000; stroke-linecap:round; stroke-linejoin:round; stroke-width:2; stroke-opacity:0.1; fill:none" points="186.274,1020.95 1084.12,1020.95 "/>
<polyline clip-path="url(#clip402)" style="stroke:#000000; stroke-linecap:round; stroke-linejoin:round; stroke-width:2; stroke-opacity:0.1; fill:none" points="186.274,851.548 1084.12,851.548 "/>
<polyline clip-path="url(#clip402)" style="stroke:#000000; stroke-linecap:round; stroke-linejoin:round; stroke-width:2; stroke-opacity:0.1; fill:none" points="186.274,682.144 1084.12,682.144 "/>
<polyline clip-path="url(#clip402)" style="stroke:#000000; stroke-linecap:round; stroke-linejoin:round; stroke-width:2; stroke-opacity:0.1; fill:none" points="186.274,512.739 1084.12,512.739 "/>
<polyline clip-path="url(#clip402)" style="stroke:#000000; stroke-linecap:round; stroke-linejoin:round; stroke-width:2; stroke-opacity:0.1; fill:none" points="186.274,343.334 1084.12,343.334 "/>
<polyline clip-path="url(#clip402)" style="stroke:#000000; stroke-linecap:round; stroke-linejoin:round; stroke-width:2; stroke-opacity:0.1; fill:none" points="186.274,173.929 1084.12,173.929 "/>
<polyline clip-path="url(#clip400)" style="stroke:#000000; stroke-linecap:round; stroke-linejoin:round; stroke-width:4; stroke-opacity:1; fill:none" points="186.274,1486.45 1084.12,1486.45 "/>
<polyline clip-path="url(#clip400)" style="stroke:#000000; stroke-linecap:round; stroke-linejoin:round; stroke-width:4; stroke-opacity:1; fill:none" points="211.685,1486.45 211.685,1467.55 "/>
<polyline clip-path="url(#clip400)" style="stroke:#000000; stroke-linecap:round; stroke-linejoin:round; stroke-width:4; stroke-opacity:1; fill:none" points="423.441,1486.45 423.441,1467.55 "/>
<polyline clip-path="url(#clip400)" style="stroke:#000000; stroke-linecap:round; stroke-linejoin:round; stroke-width:4; stroke-opacity:1; fill:none" points="635.197,1486.45 635.197,1467.55 "/>
<polyline clip-path="url(#clip400)" style="stroke:#000000; stroke-linecap:round; stroke-linejoin:round; stroke-width:4; stroke-opacity:1; fill:none" points="846.952,1486.45 846.952,1467.55 "/>
<polyline clip-path="url(#clip400)" style="stroke:#000000; stroke-linecap:round; stroke-linejoin:round; stroke-width:4; stroke-opacity:1; fill:none" points="1058.71,1486.45 1058.71,1467.55 "/>
<path clip-path="url(#clip400)" d="M173.988 1517.37 Q170.377 1517.37 168.548 1520.93 Q166.743 1524.47 166.743 1531.6 Q166.743 1538.71 168.548 1542.27 Q170.377 1545.82 173.988 1545.82 Q177.622 1545.82 179.428 1542.27 Q181.257 1538.71 181.257 1531.6 Q181.257 1524.47 179.428 1520.93 Q177.622 1517.37 173.988 1517.37 M173.988 1513.66 Q179.798 1513.66 182.854 1518.27 Q185.933 1522.85 185.933 1531.6 Q185.933 1540.33 182.854 1544.94 Q179.798 1549.52 173.988 1549.52 Q168.178 1549.52 165.099 1544.94 Q162.044 1540.33 162.044 1531.6 Q162.044 1522.85 165.099 1518.27 Q168.178 1513.66 173.988 1513.66 Z" fill="#000000" fill-rule="nonzero" fill-opacity="1" /><path clip-path="url(#clip400)" d="M194.15 1542.97 L199.034 1542.97 L199.034 1548.85 L194.15 1548.85 L194.15 1542.97 Z" fill="#000000" fill-rule="nonzero" fill-opacity="1" /><path clip-path="url(#clip400)" d="M219.219 1517.37 Q215.608 1517.37 213.78 1520.93 Q211.974 1524.47 211.974 1531.6 Q211.974 1538.71 213.78 1542.27 Q215.608 1545.82 219.219 1545.82 Q222.854 1545.82 224.659 1542.27 Q226.488 1538.71 226.488 1531.6 Q226.488 1524.47 224.659 1520.93 Q222.854 1517.37 219.219 1517.37 M219.219 1513.66 Q225.03 1513.66 228.085 1518.27 Q231.164 1522.85 231.164 1531.6 Q231.164 1540.33 228.085 1544.94 Q225.03 1549.52 219.219 1549.52 Q213.409 1549.52 210.331 1544.94 Q207.275 1540.33 207.275 1531.6 Q207.275 1522.85 210.331 1518.27 Q213.409 1513.66 219.219 1513.66 Z" fill="#000000" fill-rule="nonzero" fill-opacity="1" /><path clip-path="url(#clip400)" d="M249.381 1517.37 Q245.77 1517.37 243.941 1520.93 Q242.136 1524.47 242.136 1531.6 Q242.136 1538.71 243.941 1542.27 Q245.77 1545.82 249.381 1545.82 Q253.016 1545.82 254.821 1542.27 Q256.65 1538.71 256.65 1531.6 Q256.65 1524.47 254.821 1520.93 Q253.016 1517.37 249.381 1517.37 M249.381 1513.66 Q255.191 1513.66 258.247 1518.27 Q261.326 1522.85 261.326 1531.6 Q261.326 1540.33 258.247 1544.94 Q255.191 1549.52 249.381 1549.52 Q243.571 1549.52 240.492 1544.94 Q237.437 1540.33 237.437 1531.6 Q237.437 1522.85 240.492 1518.27 Q243.571 1513.66 249.381 1513.66 Z" fill="#000000" fill-rule="nonzero" fill-opacity="1" /><path clip-path="url(#clip400)" d="M386.242 1517.37 Q382.631 1517.37 380.802 1520.93 Q378.996 1524.47 378.996 1531.6 Q378.996 1538.71 380.802 1542.27 Q382.631 1545.82 386.242 1545.82 Q389.876 1545.82 391.682 1542.27 Q393.51 1538.71 393.51 1531.6 Q393.51 1524.47 391.682 1520.93 Q389.876 1517.37 386.242 1517.37 M386.242 1513.66 Q392.052 1513.66 395.107 1518.27 Q398.186 1522.85 398.186 1531.6 Q398.186 1540.33 395.107 1544.94 Q392.052 1549.52 386.242 1549.52 Q380.432 1549.52 377.353 1544.94 Q374.297 1540.33 374.297 1531.6 Q374.297 1522.85 377.353 1518.27 Q380.432 1513.66 386.242 1513.66 Z" fill="#000000" fill-rule="nonzero" fill-opacity="1" /><path clip-path="url(#clip400)" d="M406.404 1542.97 L411.288 1542.97 L411.288 1548.85 L406.404 1548.85 L406.404 1542.97 Z" fill="#000000" fill-rule="nonzero" fill-opacity="1" /><path clip-path="url(#clip400)" d="M425.501 1544.91 L441.82 1544.91 L441.82 1548.85 L419.876 1548.85 L419.876 1544.91 Q422.538 1542.16 427.121 1537.53 Q431.728 1532.88 432.908 1531.53 Q435.154 1529.01 436.033 1527.27 Q436.936 1525.51 436.936 1523.82 Q436.936 1521.07 434.992 1519.33 Q433.07 1517.6 429.968 1517.6 Q427.769 1517.6 425.316 1518.36 Q422.885 1519.13 420.107 1520.68 L420.107 1515.95 Q422.931 1514.82 425.385 1514.24 Q427.839 1513.66 429.876 1513.66 Q435.246 1513.66 438.441 1516.35 Q441.635 1519.03 441.635 1523.52 Q441.635 1525.65 440.825 1527.57 Q440.038 1529.47 437.931 1532.07 Q437.353 1532.74 434.251 1535.95 Q431.149 1539.15 425.501 1544.91 Z" fill="#000000" fill-rule="nonzero" fill-opacity="1" /><path clip-path="url(#clip400)" d="M451.681 1514.29 L470.038 1514.29 L470.038 1518.22 L455.964 1518.22 L455.964 1526.7 Q456.982 1526.35 458.001 1526.19 Q459.019 1526 460.038 1526 Q465.825 1526 469.204 1529.17 Q472.584 1532.34 472.584 1537.76 Q472.584 1543.34 469.112 1546.44 Q465.639 1549.52 459.32 1549.52 Q457.144 1549.52 454.876 1549.15 Q452.63 1548.78 450.223 1548.04 L450.223 1543.34 Q452.306 1544.47 454.528 1545.03 Q456.751 1545.58 459.227 1545.58 Q463.232 1545.58 465.57 1543.48 Q467.908 1541.37 467.908 1537.76 Q467.908 1534.15 465.57 1532.04 Q463.232 1529.94 459.227 1529.94 Q457.352 1529.94 455.478 1530.35 Q453.626 1530.77 451.681 1531.65 L451.681 1514.29 Z" fill="#000000" fill-rule="nonzero" fill-opacity="1" /><path clip-path="url(#clip400)" d="M597.5 1517.37 Q593.889 1517.37 592.06 1520.93 Q590.255 1524.47 590.255 1531.6 Q590.255 1538.71 592.06 1542.27 Q593.889 1545.82 597.5 1545.82 Q601.134 1545.82 602.94 1542.27 Q604.768 1538.71 604.768 1531.6 Q604.768 1524.47 602.94 1520.93 Q601.134 1517.37 597.5 1517.37 M597.5 1513.66 Q603.31 1513.66 606.366 1518.27 Q609.444 1522.85 609.444 1531.6 Q609.444 1540.33 606.366 1544.94 Q603.31 1549.52 597.5 1549.52 Q591.69 1549.52 588.611 1544.94 Q585.556 1540.33 585.556 1531.6 Q585.556 1522.85 588.611 1518.27 Q591.69 1513.66 597.5 1513.66 Z" fill="#000000" fill-rule="nonzero" fill-opacity="1" /><path clip-path="url(#clip400)" d="M617.662 1542.97 L622.546 1542.97 L622.546 1548.85 L617.662 1548.85 L617.662 1542.97 Z" fill="#000000" fill-rule="nonzero" fill-opacity="1" /><path clip-path="url(#clip400)" d="M632.778 1514.29 L651.134 1514.29 L651.134 1518.22 L637.06 1518.22 L637.06 1526.7 Q638.078 1526.35 639.097 1526.19 Q640.116 1526 641.134 1526 Q646.921 1526 650.301 1529.17 Q653.68 1532.34 653.68 1537.76 Q653.68 1543.34 650.208 1546.44 Q646.736 1549.52 640.416 1549.52 Q638.241 1549.52 635.972 1549.15 Q633.727 1548.78 631.319 1548.04 L631.319 1543.34 Q633.403 1544.47 635.625 1545.03 Q637.847 1545.58 640.324 1545.58 Q644.328 1545.58 646.666 1543.48 Q649.004 1541.37 649.004 1537.76 Q649.004 1534.15 646.666 1532.04 Q644.328 1529.94 640.324 1529.94 Q638.449 1529.94 636.574 1530.35 Q634.722 1530.77 632.778 1531.65 L632.778 1514.29 Z" fill="#000000" fill-rule="nonzero" fill-opacity="1" /><path clip-path="url(#clip400)" d="M672.893 1517.37 Q669.282 1517.37 667.453 1520.93 Q665.648 1524.47 665.648 1531.6 Q665.648 1538.71 667.453 1542.27 Q669.282 1545.82 672.893 1545.82 Q676.527 1545.82 678.333 1542.27 Q680.162 1538.71 680.162 1531.6 Q680.162 1524.47 678.333 1520.93 Q676.527 1517.37 672.893 1517.37 M672.893 1513.66 Q678.703 1513.66 681.759 1518.27 Q684.837 1522.85 684.837 1531.6 Q684.837 1540.33 681.759 1544.94 Q678.703 1549.52 672.893 1549.52 Q667.083 1549.52 664.004 1544.94 Q660.949 1540.33 660.949 1531.6 Q660.949 1522.85 664.004 1518.27 Q667.083 1513.66 672.893 1513.66 Z" fill="#000000" fill-rule="nonzero" fill-opacity="1" /><path clip-path="url(#clip400)" d="M809.754 1517.37 Q806.143 1517.37 804.314 1520.93 Q802.508 1524.47 802.508 1531.6 Q802.508 1538.71 804.314 1542.27 Q806.143 1545.82 809.754 1545.82 Q813.388 1545.82 815.193 1542.27 Q817.022 1538.71 817.022 1531.6 Q817.022 1524.47 815.193 1520.93 Q813.388 1517.37 809.754 1517.37 M809.754 1513.66 Q815.564 1513.66 818.619 1518.27 Q821.698 1522.85 821.698 1531.6 Q821.698 1540.33 818.619 1544.94 Q815.564 1549.52 809.754 1549.52 Q803.943 1549.52 800.865 1544.94 Q797.809 1540.33 797.809 1531.6 Q797.809 1522.85 800.865 1518.27 Q803.943 1513.66 809.754 1513.66 Z" fill="#000000" fill-rule="nonzero" fill-opacity="1" /><path clip-path="url(#clip400)" d="M829.916 1542.97 L834.8 1542.97 L834.8 1548.85 L829.916 1548.85 L829.916 1542.97 Z" fill="#000000" fill-rule="nonzero" fill-opacity="1" /><path clip-path="url(#clip400)" d="M843.804 1514.29 L866.026 1514.29 L866.026 1516.28 L853.48 1548.85 L848.596 1548.85 L860.401 1518.22 L843.804 1518.22 L843.804 1514.29 Z" fill="#000000" fill-rule="nonzero" fill-opacity="1" /><path clip-path="url(#clip400)" d="M875.193 1514.29 L893.549 1514.29 L893.549 1518.22 L879.475 1518.22 L879.475 1526.7 Q880.494 1526.35 881.512 1526.19 Q882.531 1526 883.55 1526 Q889.337 1526 892.716 1529.17 Q896.096 1532.34 896.096 1537.76 Q896.096 1543.34 892.624 1546.44 Q889.151 1549.52 882.832 1549.52 Q880.656 1549.52 878.388 1549.15 Q876.142 1548.78 873.735 1548.04 L873.735 1543.34 Q875.818 1544.47 878.04 1545.03 Q880.262 1545.58 882.739 1545.58 Q886.744 1545.58 889.082 1543.48 Q891.42 1541.37 891.42 1537.76 Q891.42 1534.15 889.082 1532.04 Q886.744 1529.94 882.739 1529.94 Q880.864 1529.94 878.989 1530.35 Q877.138 1530.77 875.193 1531.65 L875.193 1514.29 Z" fill="#000000" fill-rule="nonzero" fill-opacity="1" /><path clip-path="url(#clip400)" d="M1010.78 1544.91 L1018.42 1544.91 L1018.42 1518.55 L1010.11 1520.21 L1010.11 1515.95 L1018.37 1514.29 L1023.05 1514.29 L1023.05 1544.91 L1030.69 1544.91 L1030.69 1548.85 L1010.78 1548.85 L1010.78 1544.91 Z" fill="#000000" fill-rule="nonzero" fill-opacity="1" /><path clip-path="url(#clip400)" d="M1040.13 1542.97 L1045.02 1542.97 L1045.02 1548.85 L1040.13 1548.85 L1040.13 1542.97 Z" fill="#000000" fill-rule="nonzero" fill-opacity="1" /><path clip-path="url(#clip400)" d="M1065.2 1517.37 Q1061.59 1517.37 1059.76 1520.93 Q1057.96 1524.47 1057.96 1531.6 Q1057.96 1538.71 1059.76 1542.27 Q1061.59 1545.82 1065.2 1545.82 Q1068.84 1545.82 1070.64 1542.27 Q1072.47 1538.71 1072.47 1531.6 Q1072.47 1524.47 1070.64 1520.93 Q1068.84 1517.37 1065.2 1517.37 M1065.2 1513.66 Q1071.01 1513.66 1074.07 1518.27 Q1077.15 1522.85 1077.15 1531.6 Q1077.15 1540.33 1074.07 1544.94 Q1071.01 1549.52 1065.2 1549.52 Q1059.39 1549.52 1056.31 1544.94 Q1053.26 1540.33 1053.26 1531.6 Q1053.26 1522.85 1056.31 1518.27 Q1059.39 1513.66 1065.2 1513.66 Z" fill="#000000" fill-rule="nonzero" fill-opacity="1" /><path clip-path="url(#clip400)" d="M1095.36 1517.37 Q1091.75 1517.37 1089.92 1520.93 Q1088.12 1524.47 1088.12 1531.6 Q1088.12 1538.71 1089.92 1542.27 Q1091.75 1545.82 1095.36 1545.82 Q1099 1545.82 1100.8 1542.27 Q1102.63 1538.71 1102.63 1531.6 Q1102.63 1524.47 1100.8 1520.93 Q1099 1517.37 1095.36 1517.37 M1095.36 1513.66 Q1101.17 1513.66 1104.23 1518.27 Q1107.31 1522.85 1107.31 1531.6 Q1107.31 1540.33 1104.23 1544.94 Q1101.17 1549.52 1095.36 1549.52 Q1089.55 1549.52 1086.47 1544.94 Q1083.42 1540.33 1083.42 1531.6 Q1083.42 1522.85 1086.47 1518.27 Q1089.55 1513.66 1095.36 1513.66 Z" fill="#000000" fill-rule="nonzero" fill-opacity="1" /><polyline clip-path="url(#clip400)" style="stroke:#000000; stroke-linecap:round; stroke-linejoin:round; stroke-width:4; stroke-opacity:1; fill:none" points="186.274,1486.45 186.274,47.2441 "/>
<polyline clip-path="url(#clip400)" style="stroke:#000000; stroke-linecap:round; stroke-linejoin:round; stroke-width:4; stroke-opacity:1; fill:none" points="186.274,1359.76 205.172,1359.76 "/>
<polyline clip-path="url(#clip400)" style="stroke:#000000; stroke-linecap:round; stroke-linejoin:round; stroke-width:4; stroke-opacity:1; fill:none" points="186.274,1190.36 205.172,1190.36 "/>
<polyline clip-path="url(#clip400)" style="stroke:#000000; stroke-linecap:round; stroke-linejoin:round; stroke-width:4; stroke-opacity:1; fill:none" points="186.274,1020.95 205.172,1020.95 "/>
<polyline clip-path="url(#clip400)" style="stroke:#000000; stroke-linecap:round; stroke-linejoin:round; stroke-width:4; stroke-opacity:1; fill:none" points="186.274,851.548 205.172,851.548 "/>
<polyline clip-path="url(#clip400)" style="stroke:#000000; stroke-linecap:round; stroke-linejoin:round; stroke-width:4; stroke-opacity:1; fill:none" points="186.274,682.144 205.172,682.144 "/>
<polyline clip-path="url(#clip400)" style="stroke:#000000; stroke-linecap:round; stroke-linejoin:round; stroke-width:4; stroke-opacity:1; fill:none" points="186.274,512.739 205.172,512.739 "/>
<polyline clip-path="url(#clip400)" style="stroke:#000000; stroke-linecap:round; stroke-linejoin:round; stroke-width:4; stroke-opacity:1; fill:none" points="186.274,343.334 205.172,343.334 "/>
<polyline clip-path="url(#clip400)" style="stroke:#000000; stroke-linecap:round; stroke-linejoin:round; stroke-width:4; stroke-opacity:1; fill:none" points="186.274,173.929 205.172,173.929 "/>
<path clip-path="url(#clip400)" d="M44.9273 1360.21 L74.6031 1360.21 L74.6031 1364.15 L44.9273 1364.15 L44.9273 1360.21 Z" fill="#000000" fill-rule="nonzero" fill-opacity="1" /><path clip-path="url(#clip400)" d="M94.6956 1345.56 Q91.0845 1345.56 89.2558 1349.13 Q87.4503 1352.67 87.4503 1359.8 Q87.4503 1366.9 89.2558 1370.47 Q91.0845 1374.01 94.6956 1374.01 Q98.3298 1374.01 100.135 1370.47 Q101.964 1366.9 101.964 1359.8 Q101.964 1352.67 100.135 1349.13 Q98.3298 1345.56 94.6956 1345.56 M94.6956 1341.86 Q100.506 1341.86 103.561 1346.46 Q106.64 1351.05 106.64 1359.8 Q106.64 1368.52 103.561 1373.13 Q100.506 1377.71 94.6956 1377.71 Q88.8854 1377.71 85.8068 1373.13 Q82.7512 1368.52 82.7512 1359.8 Q82.7512 1351.05 85.8068 1346.46 Q88.8854 1341.86 94.6956 1341.86 Z" fill="#000000" fill-rule="nonzero" fill-opacity="1" /><path clip-path="url(#clip400)" d="M114.858 1371.16 L119.742 1371.16 L119.742 1377.04 L114.858 1377.04 L114.858 1371.16 Z" fill="#000000" fill-rule="nonzero" fill-opacity="1" /><path clip-path="url(#clip400)" d="M133.955 1373.11 L150.274 1373.11 L150.274 1377.04 L128.33 1377.04 L128.33 1373.11 Q130.992 1370.35 135.575 1365.72 Q140.181 1361.07 141.362 1359.73 Q143.607 1357.2 144.487 1355.47 Q145.39 1353.71 145.39 1352.02 Q145.39 1349.26 143.445 1347.53 Q141.524 1345.79 138.422 1345.79 Q136.223 1345.79 133.769 1346.56 Q131.339 1347.32 128.561 1348.87 L128.561 1344.15 Q131.385 1343.01 133.839 1342.44 Q136.293 1341.86 138.33 1341.86 Q143.7 1341.86 146.894 1344.54 Q150.089 1347.23 150.089 1351.72 Q150.089 1353.85 149.279 1355.77 Q148.492 1357.67 146.385 1360.26 Q145.806 1360.93 142.705 1364.15 Q139.603 1367.34 133.955 1373.11 Z" fill="#000000" fill-rule="nonzero" fill-opacity="1" /><path clip-path="url(#clip400)" d="M93.0984 1176.16 Q89.4873 1176.16 87.6586 1179.72 Q85.8531 1183.26 85.8531 1190.39 Q85.8531 1197.5 87.6586 1201.06 Q89.4873 1204.61 93.0984 1204.61 Q96.7326 1204.61 98.5382 1201.06 Q100.367 1197.5 100.367 1190.39 Q100.367 1183.26 98.5382 1179.72 Q96.7326 1176.16 93.0984 1176.16 M93.0984 1172.45 Q98.9085 1172.45 101.964 1177.06 Q105.043 1181.64 105.043 1190.39 Q105.043 1199.12 101.964 1203.73 Q98.9085 1208.31 93.0984 1208.31 Q87.2882 1208.31 84.2095 1203.73 Q81.154 1199.12 81.154 1190.39 Q81.154 1181.64 84.2095 1177.06 Q87.2882 1172.45 93.0984 1172.45 Z" fill="#000000" fill-rule="nonzero" fill-opacity="1" /><path clip-path="url(#clip400)" d="M113.26 1201.76 L118.145 1201.76 L118.145 1207.64 L113.26 1207.64 L113.26 1201.76 Z" fill="#000000" fill-rule="nonzero" fill-opacity="1" /><path clip-path="url(#clip400)" d="M138.33 1176.16 Q134.719 1176.16 132.89 1179.72 Q131.084 1183.26 131.084 1190.39 Q131.084 1197.5 132.89 1201.06 Q134.719 1204.61 138.33 1204.61 Q141.964 1204.61 143.769 1201.06 Q145.598 1197.5 145.598 1190.39 Q145.598 1183.26 143.769 1179.72 Q141.964 1176.16 138.33 1176.16 M138.33 1172.45 Q144.14 1172.45 147.195 1177.06 Q150.274 1181.64 150.274 1190.39 Q150.274 1199.12 147.195 1203.73 Q144.14 1208.31 138.33 1208.31 Q132.519 1208.31 129.441 1203.73 Q126.385 1199.12 126.385 1190.39 Q126.385 1181.64 129.441 1177.06 Q132.519 1172.45 138.33 1172.45 Z" fill="#000000" fill-rule="nonzero" fill-opacity="1" /><path clip-path="url(#clip400)" d="M94.6956 1006.75 Q91.0845 1006.75 89.2558 1010.32 Q87.4503 1013.86 87.4503 1020.99 Q87.4503 1028.09 89.2558 1031.66 Q91.0845 1035.2 94.6956 1035.2 Q98.3298 1035.2 100.135 1031.66 Q101.964 1028.09 101.964 1020.99 Q101.964 1013.86 100.135 1010.32 Q98.3298 1006.75 94.6956 1006.75 M94.6956 1003.05 Q100.506 1003.05 103.561 1007.65 Q106.64 1012.24 106.64 1020.99 Q106.64 1029.71 103.561 1034.32 Q100.506 1038.9 94.6956 1038.9 Q88.8854 1038.9 85.8068 1034.32 Q82.7512 1029.71 82.7512 1020.99 Q82.7512 1012.24 85.8068 1007.65 Q88.8854 1003.05 94.6956 1003.05 Z" fill="#000000" fill-rule="nonzero" fill-opacity="1" /><path clip-path="url(#clip400)" d="M114.858 1032.35 L119.742 1032.35 L119.742 1038.23 L114.858 1038.23 L114.858 1032.35 Z" fill="#000000" fill-rule="nonzero" fill-opacity="1" /><path clip-path="url(#clip400)" d="M133.955 1034.3 L150.274 1034.3 L150.274 1038.23 L128.33 1038.23 L128.33 1034.3 Q130.992 1031.54 135.575 1026.91 Q140.181 1022.26 141.362 1020.92 Q143.607 1018.4 144.487 1016.66 Q145.39 1014.9 145.39 1013.21 Q145.39 1010.46 143.445 1008.72 Q141.524 1006.98 138.422 1006.98 Q136.223 1006.98 133.769 1007.75 Q131.339 1008.51 128.561 1010.06 L128.561 1005.34 Q131.385 1004.21 133.839 1003.63 Q136.293 1003.05 138.33 1003.05 Q143.7 1003.05 146.894 1005.73 Q150.089 1008.42 150.089 1012.91 Q150.089 1015.04 149.279 1016.96 Q148.492 1018.86 146.385 1021.45 Q145.806 1022.12 142.705 1025.34 Q139.603 1028.53 133.955 1034.3 Z" fill="#000000" fill-rule="nonzero" fill-opacity="1" /><path clip-path="url(#clip400)" d="M92.6123 837.347 Q89.0012 837.347 87.1725 840.912 Q85.3669 844.453 85.3669 851.583 Q85.3669 858.69 87.1725 862.254 Q89.0012 865.796 92.6123 865.796 Q96.2465 865.796 98.0521 862.254 Q99.8808 858.69 99.8808 851.583 Q99.8808 844.453 98.0521 840.912 Q96.2465 837.347 92.6123 837.347 M92.6123 833.643 Q98.4224 833.643 101.478 838.25 Q104.557 842.833 104.557 851.583 Q104.557 860.31 101.478 864.916 Q98.4224 869.5 92.6123 869.5 Q86.8021 869.5 83.7234 864.916 Q80.6679 860.31 80.6679 851.583 Q80.6679 842.833 83.7234 838.25 Q86.8021 833.643 92.6123 833.643 Z" fill="#000000" fill-rule="nonzero" fill-opacity="1" /><path clip-path="url(#clip400)" d="M112.774 862.949 L117.658 862.949 L117.658 868.828 L112.774 868.828 L112.774 862.949 Z" fill="#000000" fill-rule="nonzero" fill-opacity="1" /><path clip-path="url(#clip400)" d="M140.691 838.342 L128.885 856.791 L140.691 856.791 L140.691 838.342 M139.464 834.268 L145.343 834.268 L145.343 856.791 L150.274 856.791 L150.274 860.68 L145.343 860.68 L145.343 868.828 L140.691 868.828 L140.691 860.68 L125.089 860.68 L125.089 856.166 L139.464 834.268 Z" fill="#000000" fill-rule="nonzero" fill-opacity="1" /><path clip-path="url(#clip400)" d="M92.9363 667.942 Q89.3253 667.942 87.4966 671.507 Q85.691 675.049 85.691 682.178 Q85.691 689.285 87.4966 692.85 Q89.3253 696.391 92.9363 696.391 Q96.5706 696.391 98.3761 692.85 Q100.205 689.285 100.205 682.178 Q100.205 675.049 98.3761 671.507 Q96.5706 667.942 92.9363 667.942 M92.9363 664.239 Q98.7465 664.239 101.802 668.845 Q104.881 673.428 104.881 682.178 Q104.881 690.905 101.802 695.512 Q98.7465 700.095 92.9363 700.095 Q87.1262 700.095 84.0475 695.512 Q80.992 690.905 80.992 682.178 Q80.992 673.428 84.0475 668.845 Q87.1262 664.239 92.9363 664.239 Z" fill="#000000" fill-rule="nonzero" fill-opacity="1" /><path clip-path="url(#clip400)" d="M113.098 693.544 L117.983 693.544 L117.983 699.424 L113.098 699.424 L113.098 693.544 Z" fill="#000000" fill-rule="nonzero" fill-opacity="1" /><path clip-path="url(#clip400)" d="M138.746 680.28 Q135.598 680.28 133.746 682.433 Q131.918 684.586 131.918 688.336 Q131.918 692.063 133.746 694.238 Q135.598 696.391 138.746 696.391 Q141.894 696.391 143.723 694.238 Q145.575 692.063 145.575 688.336 Q145.575 684.586 143.723 682.433 Q141.894 680.28 138.746 680.28 M148.029 665.627 L148.029 669.887 Q146.269 669.053 144.464 668.614 Q142.681 668.174 140.922 668.174 Q136.293 668.174 133.839 671.299 Q131.408 674.424 131.061 680.743 Q132.427 678.729 134.487 677.664 Q136.547 676.577 139.024 676.577 Q144.232 676.577 147.242 679.748 Q150.274 682.896 150.274 688.336 Q150.274 693.66 147.126 696.877 Q143.978 700.095 138.746 700.095 Q132.751 700.095 129.58 695.512 Q126.408 690.905 126.408 682.178 Q126.408 673.984 130.297 669.123 Q134.186 664.239 140.737 664.239 Q142.496 664.239 144.279 664.586 Q146.084 664.933 148.029 665.627 Z" fill="#000000" fill-rule="nonzero" fill-opacity="1" /><path clip-path="url(#clip400)" d="M93.191 498.538 Q89.5799 498.538 87.7512 502.102 Q85.9456 505.644 85.9456 512.774 Q85.9456 519.88 87.7512 523.445 Q89.5799 526.986 93.191 526.986 Q96.8252 526.986 98.6308 523.445 Q100.459 519.88 100.459 512.774 Q100.459 505.644 98.6308 502.102 Q96.8252 498.538 93.191 498.538 M93.191 494.834 Q99.0011 494.834 102.057 499.44 Q105.135 504.024 105.135 512.774 Q105.135 521.5 102.057 526.107 Q99.0011 530.69 93.191 530.69 Q87.3808 530.69 84.3021 526.107 Q81.2466 521.5 81.2466 512.774 Q81.2466 504.024 84.3021 499.44 Q87.3808 494.834 93.191 494.834 Z" fill="#000000" fill-rule="nonzero" fill-opacity="1" /><path clip-path="url(#clip400)" d="M113.353 524.139 L118.237 524.139 L118.237 530.019 L113.353 530.019 L113.353 524.139 Z" fill="#000000" fill-rule="nonzero" fill-opacity="1" /><path clip-path="url(#clip400)" d="M138.422 513.607 Q135.089 513.607 133.168 515.389 Q131.269 517.172 131.269 520.297 Q131.269 523.422 133.168 525.204 Q135.089 526.986 138.422 526.986 Q141.756 526.986 143.677 525.204 Q145.598 523.399 145.598 520.297 Q145.598 517.172 143.677 515.389 Q141.779 513.607 138.422 513.607 M133.746 511.616 Q130.737 510.875 129.047 508.815 Q127.381 506.755 127.381 503.792 Q127.381 499.649 130.32 497.241 Q133.283 494.834 138.422 494.834 Q143.584 494.834 146.524 497.241 Q149.464 499.649 149.464 503.792 Q149.464 506.755 147.774 508.815 Q146.107 510.875 143.121 511.616 Q146.501 512.403 148.376 514.695 Q150.274 516.987 150.274 520.297 Q150.274 525.32 147.195 528.005 Q144.14 530.69 138.422 530.69 Q132.705 530.69 129.626 528.005 Q126.57 525.32 126.57 520.297 Q126.57 516.987 128.469 514.695 Q130.367 512.403 133.746 511.616 M132.033 504.232 Q132.033 506.917 133.7 508.422 Q135.39 509.926 138.422 509.926 Q141.431 509.926 143.121 508.422 Q144.834 506.917 144.834 504.232 Q144.834 501.547 143.121 500.042 Q141.431 498.538 138.422 498.538 Q135.39 498.538 133.7 500.042 Q132.033 501.547 132.033 504.232 Z" fill="#000000" fill-rule="nonzero" fill-opacity="1" /><path clip-path="url(#clip400)" d="M83.9086 356.679 L91.5475 356.679 L91.5475 330.313 L83.2373 331.98 L83.2373 327.721 L91.5012 326.054 L96.1771 326.054 L96.1771 356.679 L103.816 356.679 L103.816 360.614 L83.9086 360.614 L83.9086 356.679 Z" fill="#000000" fill-rule="nonzero" fill-opacity="1" /><path clip-path="url(#clip400)" d="M113.26 354.735 L118.145 354.735 L118.145 360.614 L113.26 360.614 L113.26 354.735 Z" fill="#000000" fill-rule="nonzero" fill-opacity="1" /><path clip-path="url(#clip400)" d="M138.33 329.133 Q134.719 329.133 132.89 332.698 Q131.084 336.239 131.084 343.369 Q131.084 350.475 132.89 354.04 Q134.719 357.582 138.33 357.582 Q141.964 357.582 143.769 354.04 Q145.598 350.475 145.598 343.369 Q145.598 336.239 143.769 332.698 Q141.964 329.133 138.33 329.133 M138.33 325.429 Q144.14 325.429 147.195 330.036 Q150.274 334.619 150.274 343.369 Q150.274 352.096 147.195 356.702 Q144.14 361.285 138.33 361.285 Q132.519 361.285 129.441 356.702 Q126.385 352.096 126.385 343.369 Q126.385 334.619 129.441 330.036 Q132.519 325.429 138.33 325.429 Z" fill="#000000" fill-rule="nonzero" fill-opacity="1" /><path clip-path="url(#clip400)" d="M85.5058 187.274 L93.1447 187.274 L93.1447 160.909 L84.8345 162.575 L84.8345 158.316 L93.0984 156.649 L97.7743 156.649 L97.7743 187.274 L105.413 187.274 L105.413 191.209 L85.5058 191.209 L85.5058 187.274 Z" fill="#000000" fill-rule="nonzero" fill-opacity="1" /><path clip-path="url(#clip400)" d="M114.858 185.33 L119.742 185.33 L119.742 191.209 L114.858 191.209 L114.858 185.33 Z" fill="#000000" fill-rule="nonzero" fill-opacity="1" /><path clip-path="url(#clip400)" d="M133.955 187.274 L150.274 187.274 L150.274 191.209 L128.33 191.209 L128.33 187.274 Q130.992 184.52 135.575 179.89 Q140.181 175.237 141.362 173.895 Q143.607 171.372 144.487 169.635 Q145.39 167.876 145.39 166.186 Q145.39 163.432 143.445 161.696 Q141.524 159.96 138.422 159.96 Q136.223 159.96 133.769 160.723 Q131.339 161.487 128.561 163.038 L128.561 158.316 Q131.385 157.182 133.839 156.603 Q136.293 156.024 138.33 156.024 Q143.7 156.024 146.894 158.71 Q150.089 161.395 150.089 165.885 Q150.089 168.015 149.279 169.936 Q148.492 171.834 146.385 174.427 Q145.806 175.098 142.705 178.316 Q139.603 181.51 133.955 187.274 Z" fill="#000000" fill-rule="nonzero" fill-opacity="1" /><path clip-path="url(#clip400)" d="M1454.91 1486.45 L2352.76 1486.45 L2352.76 47.2441 L1454.91 47.2441  Z" fill="#ffffff" fill-rule="evenodd" fill-opacity="1"/>
<polyline clip-path="url(#clip401)" style="stroke:#000000; stroke-linecap:round; stroke-linejoin:round; stroke-width:2; stroke-opacity:0.1; fill:none" points="1565.02,1486.45 1565.02,47.2441 "/>
<polyline clip-path="url(#clip401)" style="stroke:#000000; stroke-linecap:round; stroke-linejoin:round; stroke-width:2; stroke-opacity:0.1; fill:none" points="1734.43,1486.45 1734.43,47.2441 "/>
<polyline clip-path="url(#clip401)" style="stroke:#000000; stroke-linecap:round; stroke-linejoin:round; stroke-width:2; stroke-opacity:0.1; fill:none" points="1903.83,1486.45 1903.83,47.2441 "/>
<polyline clip-path="url(#clip401)" style="stroke:#000000; stroke-linecap:round; stroke-linejoin:round; stroke-width:2; stroke-opacity:0.1; fill:none" points="2073.24,1486.45 2073.24,47.2441 "/>
<polyline clip-path="url(#clip401)" style="stroke:#000000; stroke-linecap:round; stroke-linejoin:round; stroke-width:2; stroke-opacity:0.1; fill:none" points="2242.64,1486.45 2242.64,47.2441 "/>
<polyline clip-path="url(#clip401)" style="stroke:#000000; stroke-linecap:round; stroke-linejoin:round; stroke-width:2; stroke-opacity:0.1; fill:none" points="1454.91,1445.72 2352.76,1445.72 "/>
<polyline clip-path="url(#clip401)" style="stroke:#000000; stroke-linecap:round; stroke-linejoin:round; stroke-width:2; stroke-opacity:0.1; fill:none" points="1454.91,1091.01 2352.76,1091.01 "/>
<polyline clip-path="url(#clip401)" style="stroke:#000000; stroke-linecap:round; stroke-linejoin:round; stroke-width:2; stroke-opacity:0.1; fill:none" points="1454.91,736.295 2352.76,736.295 "/>
<polyline clip-path="url(#clip401)" style="stroke:#000000; stroke-linecap:round; stroke-linejoin:round; stroke-width:2; stroke-opacity:0.1; fill:none" points="1454.91,381.584 2352.76,381.584 "/>
<polyline clip-path="url(#clip400)" style="stroke:#000000; stroke-linecap:round; stroke-linejoin:round; stroke-width:4; stroke-opacity:1; fill:none" points="1454.91,1486.45 2352.76,1486.45 "/>
<polyline clip-path="url(#clip400)" style="stroke:#000000; stroke-linecap:round; stroke-linejoin:round; stroke-width:4; stroke-opacity:1; fill:none" points="1565.02,1486.45 1565.02,1467.55 "/>
<polyline clip-path="url(#clip400)" style="stroke:#000000; stroke-linecap:round; stroke-linejoin:round; stroke-width:4; stroke-opacity:1; fill:none" points="1734.43,1486.45 1734.43,1467.55 "/>
<polyline clip-path="url(#clip400)" style="stroke:#000000; stroke-linecap:round; stroke-linejoin:round; stroke-width:4; stroke-opacity:1; fill:none" points="1903.83,1486.45 1903.83,1467.55 "/>
<polyline clip-path="url(#clip400)" style="stroke:#000000; stroke-linecap:round; stroke-linejoin:round; stroke-width:4; stroke-opacity:1; fill:none" points="2073.24,1486.45 2073.24,1467.55 "/>
<polyline clip-path="url(#clip400)" style="stroke:#000000; stroke-linecap:round; stroke-linejoin:round; stroke-width:4; stroke-opacity:1; fill:none" points="2242.64,1486.45 2242.64,1467.55 "/>
<path clip-path="url(#clip400)" d="M1559.68 1544.91 L1576 1544.91 L1576 1548.85 L1554.05 1548.85 L1554.05 1544.91 Q1556.71 1542.16 1561.3 1537.53 Q1565.9 1532.88 1567.08 1531.53 Q1569.33 1529.01 1570.21 1527.27 Q1571.11 1525.51 1571.11 1523.82 Q1571.11 1521.07 1569.17 1519.33 Q1567.25 1517.6 1564.14 1517.6 Q1561.95 1517.6 1559.49 1518.36 Q1557.06 1519.13 1554.28 1520.68 L1554.28 1515.95 Q1557.11 1514.82 1559.56 1514.24 Q1562.01 1513.66 1564.05 1513.66 Q1569.42 1513.66 1572.62 1516.35 Q1575.81 1519.03 1575.81 1523.52 Q1575.81 1525.65 1575 1527.57 Q1574.21 1529.47 1572.11 1532.07 Q1571.53 1532.74 1568.43 1535.95 Q1565.32 1539.15 1559.68 1544.91 Z" fill="#000000" fill-rule="nonzero" fill-opacity="1" /><path clip-path="url(#clip400)" d="M1737.44 1518.36 L1725.63 1536.81 L1737.44 1536.81 L1737.44 1518.36 M1736.21 1514.29 L1742.09 1514.29 L1742.09 1536.81 L1747.02 1536.81 L1747.02 1540.7 L1742.09 1540.7 L1742.09 1548.85 L1737.44 1548.85 L1737.44 1540.7 L1721.84 1540.7 L1721.84 1536.19 L1736.21 1514.29 Z" fill="#000000" fill-rule="nonzero" fill-opacity="1" /><path clip-path="url(#clip400)" d="M1904.24 1529.7 Q1901.09 1529.7 1899.24 1531.86 Q1897.41 1534.01 1897.41 1537.76 Q1897.41 1541.49 1899.24 1543.66 Q1901.09 1545.82 1904.24 1545.82 Q1907.39 1545.82 1909.22 1543.66 Q1911.07 1541.49 1911.07 1537.76 Q1911.07 1534.01 1909.22 1531.86 Q1907.39 1529.7 1904.24 1529.7 M1913.52 1515.05 L1913.52 1519.31 Q1911.76 1518.48 1909.96 1518.04 Q1908.17 1517.6 1906.41 1517.6 Q1901.78 1517.6 1899.33 1520.72 Q1896.9 1523.85 1896.55 1530.17 Q1897.92 1528.15 1899.98 1527.09 Q1902.04 1526 1904.52 1526 Q1909.72 1526 1912.73 1529.17 Q1915.77 1532.32 1915.77 1537.76 Q1915.77 1543.08 1912.62 1546.3 Q1909.47 1549.52 1904.24 1549.52 Q1898.24 1549.52 1895.07 1544.94 Q1891.9 1540.33 1891.9 1531.6 Q1891.9 1523.41 1895.79 1518.55 Q1899.68 1513.66 1906.23 1513.66 Q1907.99 1513.66 1909.77 1514.01 Q1911.58 1514.36 1913.52 1515.05 Z" fill="#000000" fill-rule="nonzero" fill-opacity="1" /><path clip-path="url(#clip400)" d="M2073.24 1532.44 Q2069.9 1532.44 2067.98 1534.22 Q2066.09 1536 2066.09 1539.13 Q2066.09 1542.25 2067.98 1544.03 Q2069.9 1545.82 2073.24 1545.82 Q2076.57 1545.82 2078.49 1544.03 Q2080.41 1542.23 2080.41 1539.13 Q2080.41 1536 2078.49 1534.22 Q2076.59 1532.44 2073.24 1532.44 M2068.56 1530.45 Q2065.55 1529.7 2063.86 1527.64 Q2062.2 1525.58 2062.2 1522.62 Q2062.2 1518.48 2065.14 1516.07 Q2068.1 1513.66 2073.24 1513.66 Q2078.4 1513.66 2081.34 1516.07 Q2084.28 1518.48 2084.28 1522.62 Q2084.28 1525.58 2082.59 1527.64 Q2080.92 1529.7 2077.94 1530.45 Q2081.32 1531.23 2083.19 1533.52 Q2085.09 1535.82 2085.09 1539.13 Q2085.09 1544.15 2082.01 1546.83 Q2078.96 1549.52 2073.24 1549.52 Q2067.52 1549.52 2064.44 1546.83 Q2061.39 1544.15 2061.39 1539.13 Q2061.39 1535.82 2063.28 1533.52 Q2065.18 1531.23 2068.56 1530.45 M2066.85 1523.06 Q2066.85 1525.75 2068.52 1527.25 Q2070.21 1528.76 2073.24 1528.76 Q2076.25 1528.76 2077.94 1527.25 Q2079.65 1525.75 2079.65 1523.06 Q2079.65 1520.38 2077.94 1518.87 Q2076.25 1517.37 2073.24 1517.37 Q2070.21 1517.37 2068.52 1518.87 Q2066.85 1520.38 2066.85 1523.06 Z" fill="#000000" fill-rule="nonzero" fill-opacity="1" /><path clip-path="url(#clip400)" d="M2217.33 1544.91 L2224.97 1544.91 L2224.97 1518.55 L2216.66 1520.21 L2216.66 1515.95 L2224.92 1514.29 L2229.6 1514.29 L2229.6 1544.91 L2237.24 1544.91 L2237.24 1548.85 L2217.33 1548.85 L2217.33 1544.91 Z" fill="#000000" fill-rule="nonzero" fill-opacity="1" /><path clip-path="url(#clip400)" d="M2256.68 1517.37 Q2253.07 1517.37 2251.24 1520.93 Q2249.44 1524.47 2249.44 1531.6 Q2249.44 1538.71 2251.24 1542.27 Q2253.07 1545.82 2256.68 1545.82 Q2260.32 1545.82 2262.12 1542.27 Q2263.95 1538.71 2263.95 1531.6 Q2263.95 1524.47 2262.12 1520.93 Q2260.32 1517.37 2256.68 1517.37 M2256.68 1513.66 Q2262.49 1513.66 2265.55 1518.27 Q2268.63 1522.85 2268.63 1531.6 Q2268.63 1540.33 2265.55 1544.94 Q2262.49 1549.52 2256.68 1549.52 Q2250.87 1549.52 2247.79 1544.94 Q2244.74 1540.33 2244.74 1531.6 Q2244.74 1522.85 2247.79 1518.27 Q2250.87 1513.66 2256.68 1513.66 Z" fill="#000000" fill-rule="nonzero" fill-opacity="1" /><polyline clip-path="url(#clip400)" style="stroke:#000000; stroke-linecap:round; stroke-linejoin:round; stroke-width:4; stroke-opacity:1; fill:none" points="1454.91,1486.45 1454.91,47.2441 "/>
<polyline clip-path="url(#clip400)" style="stroke:#000000; stroke-linecap:round; stroke-linejoin:round; stroke-width:4; stroke-opacity:1; fill:none" points="1454.91,1445.72 1473.81,1445.72 "/>
<polyline clip-path="url(#clip400)" style="stroke:#000000; stroke-linecap:round; stroke-linejoin:round; stroke-width:4; stroke-opacity:1; fill:none" points="1454.91,1091.01 1473.81,1091.01 "/>
<polyline clip-path="url(#clip400)" style="stroke:#000000; stroke-linecap:round; stroke-linejoin:round; stroke-width:4; stroke-opacity:1; fill:none" points="1454.91,736.295 1473.81,736.295 "/>
<polyline clip-path="url(#clip400)" style="stroke:#000000; stroke-linecap:round; stroke-linejoin:round; stroke-width:4; stroke-opacity:1; fill:none" points="1454.91,381.584 1473.81,381.584 "/>
<path clip-path="url(#clip400)" d="M1406.97 1431.51 Q1403.36 1431.51 1401.53 1435.08 Q1399.72 1438.62 1399.72 1445.75 Q1399.72 1452.86 1401.53 1456.42 Q1403.36 1459.96 1406.97 1459.96 Q1410.6 1459.96 1412.41 1456.42 Q1414.23 1452.86 1414.23 1445.75 Q1414.23 1438.62 1412.41 1435.08 Q1410.6 1431.51 1406.97 1431.51 M1406.97 1427.81 Q1412.78 1427.81 1415.83 1432.42 Q1418.91 1437 1418.91 1445.75 Q1418.91 1454.48 1415.83 1459.08 Q1412.78 1463.67 1406.97 1463.67 Q1401.16 1463.67 1398.08 1459.08 Q1395.02 1454.48 1395.02 1445.75 Q1395.02 1437 1398.08 1432.42 Q1401.16 1427.81 1406.97 1427.81 Z" fill="#000000" fill-rule="nonzero" fill-opacity="1" /><path clip-path="url(#clip400)" d="M1189.14 1110.8 L1205.46 1110.8 L1205.46 1114.73 L1183.51 1114.73 L1183.51 1110.8 Q1186.17 1108.04 1190.76 1103.41 Q1195.36 1098.76 1196.55 1097.42 Q1198.79 1094.9 1199.67 1093.16 Q1200.57 1091.4 1200.57 1089.71 Q1200.57 1086.96 1198.63 1085.22 Q1196.71 1083.48 1193.61 1083.48 Q1191.41 1083.48 1188.95 1084.25 Q1186.52 1085.01 1183.74 1086.56 L1183.74 1081.84 Q1186.57 1080.71 1189.02 1080.13 Q1191.48 1079.55 1193.51 1079.55 Q1198.88 1079.55 1202.08 1082.23 Q1205.27 1084.92 1205.27 1089.41 Q1205.27 1091.54 1204.46 1093.46 Q1203.67 1095.36 1201.57 1097.95 Q1200.99 1098.62 1197.89 1101.84 Q1194.79 1105.03 1189.14 1110.8 Z" fill="#000000" fill-rule="nonzero" fill-opacity="1" /><path clip-path="url(#clip400)" d="M1215.27 1108.85 L1220.16 1108.85 L1220.16 1114.73 L1215.27 1114.73 L1215.27 1108.85 Z" fill="#000000" fill-rule="nonzero" fill-opacity="1" /><path clip-path="url(#clip400)" d="M1240.34 1083.25 Q1236.73 1083.25 1234.9 1086.82 Q1233.1 1090.36 1233.1 1097.49 Q1233.1 1104.59 1234.9 1108.16 Q1236.73 1111.7 1240.34 1111.7 Q1243.98 1111.7 1245.78 1108.16 Q1247.61 1104.59 1247.61 1097.49 Q1247.61 1090.36 1245.78 1086.82 Q1243.98 1083.25 1240.34 1083.25 M1240.34 1079.55 Q1246.15 1079.55 1249.21 1084.15 Q1252.29 1088.74 1252.29 1097.49 Q1252.29 1106.21 1249.21 1110.82 Q1246.15 1115.4 1240.34 1115.4 Q1234.53 1115.4 1231.45 1110.82 Q1228.4 1106.21 1228.4 1097.49 Q1228.4 1088.74 1231.45 1084.15 Q1234.53 1079.55 1240.34 1079.55 Z" fill="#000000" fill-rule="nonzero" fill-opacity="1" /><path clip-path="url(#clip400)" d="M1288.67 1089.27 L1278.1 1099.89 L1288.67 1110.47 L1285.92 1113.27 L1275.29 1102.65 L1264.67 1113.27 L1261.94 1110.47 L1272.49 1099.89 L1261.94 1089.27 L1264.67 1086.47 L1275.29 1097.09 L1285.92 1086.47 L1288.67 1089.27 Z" fill="#000000" fill-rule="nonzero" fill-opacity="1" /><path clip-path="url(#clip400)" d="M1301.04 1110.8 L1308.67 1110.8 L1308.67 1084.43 L1300.36 1086.1 L1300.36 1081.84 L1308.63 1080.17 L1313.3 1080.17 L1313.3 1110.8 L1320.94 1110.8 L1320.94 1114.73 L1301.04 1114.73 L1301.04 1110.8 Z" fill="#000000" fill-rule="nonzero" fill-opacity="1" /><path clip-path="url(#clip400)" d="M1340.39 1083.25 Q1336.78 1083.25 1334.95 1086.82 Q1333.14 1090.36 1333.14 1097.49 Q1333.14 1104.59 1334.95 1108.16 Q1336.78 1111.7 1340.39 1111.7 Q1344.02 1111.7 1345.83 1108.16 Q1347.66 1104.59 1347.66 1097.49 Q1347.66 1090.36 1345.83 1086.82 Q1344.02 1083.25 1340.39 1083.25 M1340.39 1079.55 Q1346.2 1079.55 1349.25 1084.15 Q1352.33 1088.74 1352.33 1097.49 Q1352.33 1106.21 1349.25 1110.82 Q1346.2 1115.4 1340.39 1115.4 Q1334.58 1115.4 1331.5 1110.82 Q1328.44 1106.21 1328.44 1097.49 Q1328.44 1088.74 1331.5 1084.15 Q1334.58 1079.55 1340.39 1079.55 Z" fill="#000000" fill-rule="nonzero" fill-opacity="1" /><path clip-path="url(#clip400)" d="M1352.88 1084.13 L1359.08 1084.13 L1359.08 1062.7 L1352.33 1064.06 L1352.33 1060.6 L1359.05 1059.24 L1362.84 1059.24 L1362.84 1084.13 L1369.05 1084.13 L1369.05 1087.32 L1352.88 1087.32 L1352.88 1084.13 Z" fill="#000000" fill-rule="nonzero" fill-opacity="1" /><path clip-path="url(#clip400)" d="M1376.84 1086.74 L1376.84 1083.28 Q1378.27 1083.96 1379.73 1084.31 Q1381.2 1084.67 1382.61 1084.67 Q1386.37 1084.67 1388.35 1082.15 Q1390.34 1079.61 1390.62 1074.46 Q1389.53 1076.08 1387.86 1076.94 Q1386.19 1077.81 1384.15 1077.81 Q1379.94 1077.81 1377.48 1075.27 Q1375.03 1072.71 1375.03 1068.29 Q1375.03 1063.96 1377.59 1061.35 Q1380.15 1058.73 1384.4 1058.73 Q1389.27 1058.73 1391.83 1062.48 Q1394.4 1066.2 1394.4 1073.31 Q1394.4 1079.95 1391.24 1083.92 Q1388.1 1087.87 1382.78 1087.87 Q1381.35 1087.87 1379.88 1087.59 Q1378.42 1087.3 1376.84 1086.74 M1384.4 1074.83 Q1386.96 1074.83 1388.44 1073.08 Q1389.95 1071.34 1389.95 1068.29 Q1389.95 1065.26 1388.44 1063.51 Q1386.96 1061.74 1384.4 1061.74 Q1381.84 1061.74 1380.34 1063.51 Q1378.85 1065.26 1378.85 1068.29 Q1378.85 1071.34 1380.34 1073.08 Q1381.84 1074.83 1384.4 1074.83 Z" fill="#000000" fill-rule="nonzero" fill-opacity="1" /><path clip-path="url(#clip400)" d="M1401.34 1086.74 L1401.34 1083.28 Q1402.77 1083.96 1404.24 1084.31 Q1405.71 1084.67 1407.12 1084.67 Q1410.88 1084.67 1412.85 1082.15 Q1414.85 1079.61 1415.13 1074.46 Q1414.04 1076.08 1412.37 1076.94 Q1410.69 1077.81 1408.66 1077.81 Q1404.45 1077.81 1401.98 1075.27 Q1399.54 1072.71 1399.54 1068.29 Q1399.54 1063.96 1402.1 1061.35 Q1404.65 1058.73 1408.91 1058.73 Q1413.78 1058.73 1416.33 1062.48 Q1418.91 1066.2 1418.91 1073.31 Q1418.91 1079.95 1415.75 1083.92 Q1412.61 1087.87 1407.29 1087.87 Q1405.86 1087.87 1404.39 1087.59 Q1402.92 1087.3 1401.34 1086.74 M1408.91 1074.83 Q1411.46 1074.83 1412.95 1073.08 Q1414.45 1071.34 1414.45 1068.29 Q1414.45 1065.26 1412.95 1063.51 Q1411.46 1061.74 1408.91 1061.74 Q1406.35 1061.74 1404.84 1063.51 Q1403.36 1065.26 1403.36 1068.29 Q1403.36 1071.34 1404.84 1073.08 Q1406.35 1074.83 1408.91 1074.83 Z" fill="#000000" fill-rule="nonzero" fill-opacity="1" /><path clip-path="url(#clip400)" d="M1197.96 729.536 L1186.15 747.985 L1197.96 747.985 L1197.96 729.536 M1196.73 725.462 L1202.61 725.462 L1202.61 747.985 L1207.54 747.985 L1207.54 751.874 L1202.61 751.874 L1202.61 760.022 L1197.96 760.022 L1197.96 751.874 L1182.36 751.874 L1182.36 747.36 L1196.73 725.462 Z" fill="#000000" fill-rule="nonzero" fill-opacity="1" /><path clip-path="url(#clip400)" d="M1215.27 754.143 L1220.16 754.143 L1220.16 760.022 L1215.27 760.022 L1215.27 754.143 Z" fill="#000000" fill-rule="nonzero" fill-opacity="1" /><path clip-path="url(#clip400)" d="M1240.34 728.541 Q1236.73 728.541 1234.9 732.106 Q1233.1 735.648 1233.1 742.777 Q1233.1 749.884 1234.9 753.448 Q1236.73 756.99 1240.34 756.99 Q1243.98 756.99 1245.78 753.448 Q1247.61 749.884 1247.61 742.777 Q1247.61 735.648 1245.78 732.106 Q1243.98 728.541 1240.34 728.541 M1240.34 724.837 Q1246.15 724.837 1249.21 729.444 Q1252.29 734.027 1252.29 742.777 Q1252.29 751.504 1249.21 756.11 Q1246.15 760.694 1240.34 760.694 Q1234.53 760.694 1231.45 756.11 Q1228.4 751.504 1228.4 742.777 Q1228.4 734.027 1231.45 729.444 Q1234.53 724.837 1240.34 724.837 Z" fill="#000000" fill-rule="nonzero" fill-opacity="1" /><path clip-path="url(#clip400)" d="M1288.67 734.56 L1278.1 745.185 L1288.67 755.763 L1285.92 758.564 L1275.29 747.939 L1264.67 758.564 L1261.94 755.763 L1272.49 745.185 L1261.94 734.56 L1264.67 731.759 L1275.29 742.384 L1285.92 731.759 L1288.67 734.56 Z" fill="#000000" fill-rule="nonzero" fill-opacity="1" /><path clip-path="url(#clip400)" d="M1301.04 756.087 L1308.67 756.087 L1308.67 729.722 L1300.36 731.388 L1300.36 727.129 L1308.63 725.462 L1313.3 725.462 L1313.3 756.087 L1320.94 756.087 L1320.94 760.022 L1301.04 760.022 L1301.04 756.087 Z" fill="#000000" fill-rule="nonzero" fill-opacity="1" /><path clip-path="url(#clip400)" d="M1340.39 728.541 Q1336.78 728.541 1334.95 732.106 Q1333.14 735.648 1333.14 742.777 Q1333.14 749.884 1334.95 753.448 Q1336.78 756.99 1340.39 756.99 Q1344.02 756.99 1345.83 753.448 Q1347.66 749.884 1347.66 742.777 Q1347.66 735.648 1345.83 732.106 Q1344.02 728.541 1340.39 728.541 M1340.39 724.837 Q1346.2 724.837 1349.25 729.444 Q1352.33 734.027 1352.33 742.777 Q1352.33 751.504 1349.25 756.11 Q1346.2 760.694 1340.39 760.694 Q1334.58 760.694 1331.5 756.11 Q1328.44 751.504 1328.44 742.777 Q1328.44 734.027 1331.5 729.444 Q1334.58 724.837 1340.39 724.837 Z" fill="#000000" fill-rule="nonzero" fill-opacity="1" /><path clip-path="url(#clip400)" d="M1352.88 729.415 L1359.08 729.415 L1359.08 707.993 L1352.33 709.347 L1352.33 705.886 L1359.05 704.532 L1362.84 704.532 L1362.84 729.415 L1369.05 729.415 L1369.05 732.612 L1352.88 732.612 L1352.88 729.415 Z" fill="#000000" fill-rule="nonzero" fill-opacity="1" /><path clip-path="url(#clip400)" d="M1376.84 732.029 L1376.84 728.568 Q1378.27 729.245 1379.73 729.603 Q1381.2 729.96 1382.61 729.96 Q1386.37 729.96 1388.35 727.44 Q1390.34 724.901 1390.62 719.748 Q1389.53 721.365 1387.86 722.23 Q1386.19 723.095 1384.15 723.095 Q1379.94 723.095 1377.48 720.556 Q1375.03 717.998 1375.03 713.579 Q1375.03 709.253 1377.59 706.638 Q1380.15 704.024 1384.4 704.024 Q1389.27 704.024 1391.83 707.767 Q1394.4 711.491 1394.4 718.6 Q1394.4 725.239 1391.24 729.208 Q1388.1 733.157 1382.78 733.157 Q1381.35 733.157 1379.88 732.875 Q1378.42 732.593 1376.84 732.029 M1384.4 720.124 Q1386.96 720.124 1388.44 718.375 Q1389.95 716.625 1389.95 713.579 Q1389.95 710.551 1388.44 708.801 Q1386.96 707.033 1384.4 707.033 Q1381.84 707.033 1380.34 708.801 Q1378.85 710.551 1378.85 713.579 Q1378.85 716.625 1380.34 718.375 Q1381.84 720.124 1384.4 720.124 Z" fill="#000000" fill-rule="nonzero" fill-opacity="1" /><path clip-path="url(#clip400)" d="M1401.34 732.029 L1401.34 728.568 Q1402.77 729.245 1404.24 729.603 Q1405.71 729.96 1407.12 729.96 Q1410.88 729.96 1412.85 727.44 Q1414.85 724.901 1415.13 719.748 Q1414.04 721.365 1412.37 722.23 Q1410.69 723.095 1408.66 723.095 Q1404.45 723.095 1401.98 720.556 Q1399.54 717.998 1399.54 713.579 Q1399.54 709.253 1402.1 706.638 Q1404.65 704.024 1408.91 704.024 Q1413.78 704.024 1416.33 707.767 Q1418.91 711.491 1418.91 718.6 Q1418.91 725.239 1415.75 729.208 Q1412.61 733.157 1407.29 733.157 Q1405.86 733.157 1404.39 732.875 Q1402.92 732.593 1401.34 732.029 M1408.91 720.124 Q1411.46 720.124 1412.95 718.375 Q1414.45 716.625 1414.45 713.579 Q1414.45 710.551 1412.95 708.801 Q1411.46 707.033 1408.91 707.033 Q1406.35 707.033 1404.84 708.801 Q1403.36 710.551 1403.36 713.579 Q1403.36 716.625 1404.84 718.375 Q1406.35 720.124 1408.91 720.124 Z" fill="#000000" fill-rule="nonzero" fill-opacity="1" /><path clip-path="url(#clip400)" d="M1195.69 386.169 Q1192.54 386.169 1190.69 388.321 Q1188.86 390.474 1188.86 394.224 Q1188.86 397.951 1190.69 400.127 Q1192.54 402.28 1195.69 402.28 Q1198.84 402.28 1200.67 400.127 Q1202.52 397.951 1202.52 394.224 Q1202.52 390.474 1200.67 388.321 Q1198.84 386.169 1195.69 386.169 M1204.97 371.516 L1204.97 375.775 Q1203.21 374.942 1201.41 374.502 Q1199.62 374.062 1197.86 374.062 Q1193.23 374.062 1190.78 377.187 Q1188.35 380.312 1188 386.632 Q1189.37 384.618 1191.43 383.553 Q1193.49 382.465 1195.97 382.465 Q1201.17 382.465 1204.18 385.636 Q1207.22 388.784 1207.22 394.224 Q1207.22 399.548 1204.07 402.766 Q1200.92 405.983 1195.69 405.983 Q1189.69 405.983 1186.52 401.4 Q1183.35 396.794 1183.35 388.067 Q1183.35 379.872 1187.24 375.011 Q1191.13 370.127 1197.68 370.127 Q1199.44 370.127 1201.22 370.474 Q1203.03 370.821 1204.97 371.516 Z" fill="#000000" fill-rule="nonzero" fill-opacity="1" /><path clip-path="url(#clip400)" d="M1215.27 399.432 L1220.16 399.432 L1220.16 405.312 L1215.27 405.312 L1215.27 399.432 Z" fill="#000000" fill-rule="nonzero" fill-opacity="1" /><path clip-path="url(#clip400)" d="M1240.34 373.831 Q1236.73 373.831 1234.9 377.395 Q1233.1 380.937 1233.1 388.067 Q1233.1 395.173 1234.9 398.738 Q1236.73 402.28 1240.34 402.28 Q1243.98 402.28 1245.78 398.738 Q1247.61 395.173 1247.61 388.067 Q1247.61 380.937 1245.78 377.395 Q1243.98 373.831 1240.34 373.831 M1240.34 370.127 Q1246.15 370.127 1249.21 374.733 Q1252.29 379.317 1252.29 388.067 Q1252.29 396.794 1249.21 401.4 Q1246.15 405.983 1240.34 405.983 Q1234.53 405.983 1231.45 401.4 Q1228.4 396.794 1228.4 388.067 Q1228.4 379.317 1231.45 374.733 Q1234.53 370.127 1240.34 370.127 Z" fill="#000000" fill-rule="nonzero" fill-opacity="1" /><path clip-path="url(#clip400)" d="M1288.67 379.849 L1278.1 390.474 L1288.67 401.053 L1285.92 403.854 L1275.29 393.229 L1264.67 403.854 L1261.94 401.053 L1272.49 390.474 L1261.94 379.849 L1264.67 377.048 L1275.29 387.673 L1285.92 377.048 L1288.67 379.849 Z" fill="#000000" fill-rule="nonzero" fill-opacity="1" /><path clip-path="url(#clip400)" d="M1301.04 401.377 L1308.67 401.377 L1308.67 375.011 L1300.36 376.678 L1300.36 372.419 L1308.63 370.752 L1313.3 370.752 L1313.3 401.377 L1320.94 401.377 L1320.94 405.312 L1301.04 405.312 L1301.04 401.377 Z" fill="#000000" fill-rule="nonzero" fill-opacity="1" /><path clip-path="url(#clip400)" d="M1340.39 373.831 Q1336.78 373.831 1334.95 377.395 Q1333.14 380.937 1333.14 388.067 Q1333.14 395.173 1334.95 398.738 Q1336.78 402.28 1340.39 402.28 Q1344.02 402.28 1345.83 398.738 Q1347.66 395.173 1347.66 388.067 Q1347.66 380.937 1345.83 377.395 Q1344.02 373.831 1340.39 373.831 M1340.39 370.127 Q1346.2 370.127 1349.25 374.733 Q1352.33 379.317 1352.33 388.067 Q1352.33 396.794 1349.25 401.4 Q1346.2 405.983 1340.39 405.983 Q1334.58 405.983 1331.5 401.4 Q1328.44 396.794 1328.44 388.067 Q1328.44 379.317 1331.5 374.733 Q1334.58 370.127 1340.39 370.127 Z" fill="#000000" fill-rule="nonzero" fill-opacity="1" /><path clip-path="url(#clip400)" d="M1352.88 374.704 L1359.08 374.704 L1359.08 353.282 L1352.33 354.636 L1352.33 351.176 L1359.05 349.822 L1362.84 349.822 L1362.84 374.704 L1369.05 374.704 L1369.05 377.902 L1352.88 377.902 L1352.88 374.704 Z" fill="#000000" fill-rule="nonzero" fill-opacity="1" /><path clip-path="url(#clip400)" d="M1376.84 377.319 L1376.84 373.858 Q1378.27 374.535 1379.73 374.892 Q1381.2 375.25 1382.61 375.25 Q1386.37 375.25 1388.35 372.729 Q1390.34 370.19 1390.62 365.037 Q1389.53 366.655 1387.86 367.52 Q1386.19 368.385 1384.15 368.385 Q1379.94 368.385 1377.48 365.846 Q1375.03 363.288 1375.03 358.868 Q1375.03 354.542 1377.59 351.928 Q1380.15 349.314 1384.4 349.314 Q1389.27 349.314 1391.83 353.057 Q1394.4 356.78 1394.4 363.89 Q1394.4 370.529 1391.24 374.497 Q1388.1 378.447 1382.78 378.447 Q1381.35 378.447 1379.88 378.165 Q1378.42 377.883 1376.84 377.319 M1384.4 365.413 Q1386.96 365.413 1388.44 363.664 Q1389.95 361.915 1389.95 358.868 Q1389.95 355.84 1388.44 354.091 Q1386.96 352.323 1384.4 352.323 Q1381.84 352.323 1380.34 354.091 Q1378.85 355.84 1378.85 358.868 Q1378.85 361.915 1380.34 363.664 Q1381.84 365.413 1384.4 365.413 Z" fill="#000000" fill-rule="nonzero" fill-opacity="1" /><path clip-path="url(#clip400)" d="M1401.34 377.319 L1401.34 373.858 Q1402.77 374.535 1404.24 374.892 Q1405.71 375.25 1407.12 375.25 Q1410.88 375.25 1412.85 372.729 Q1414.85 370.19 1415.13 365.037 Q1414.04 366.655 1412.37 367.52 Q1410.69 368.385 1408.66 368.385 Q1404.45 368.385 1401.98 365.846 Q1399.54 363.288 1399.54 358.868 Q1399.54 354.542 1402.1 351.928 Q1404.65 349.314 1408.91 349.314 Q1413.78 349.314 1416.33 353.057 Q1418.91 356.78 1418.91 363.89 Q1418.91 370.529 1415.75 374.497 Q1412.61 378.447 1407.29 378.447 Q1405.86 378.447 1404.39 378.165 Q1402.92 377.883 1401.34 377.319 M1408.91 365.413 Q1411.46 365.413 1412.95 363.664 Q1414.45 361.915 1414.45 358.868 Q1414.45 355.84 1412.95 354.091 Q1411.46 352.323 1408.91 352.323 Q1406.35 352.323 1404.84 354.091 Q1403.36 355.84 1403.36 358.868 Q1403.36 361.915 1404.84 363.664 Q1406.35 365.413 1408.91 365.413 Z" fill="#000000" fill-rule="nonzero" fill-opacity="1" /><polyline clip-path="url(#clip401)" style="stroke:#009af9; stroke-linecap:round; stroke-linejoin:round; stroke-width:4; stroke-opacity:1; fill:none" points="1480.32,1445.72 1565.02,1445.72 1649.73,1445.72 1734.43,1445.72 1819.13,1445.72 1903.83,1445.72 1988.54,87.9763 "/>
<polyline clip-path="url(#clip401)" style="stroke:#009af9; stroke-linecap:round; stroke-linejoin:round; stroke-width:4; stroke-opacity:1; fill:none" points="2242.64,1445.72 2327.35,1445.72 "/>
<path clip-path="url(#clip400)" d="M1484.84 198.898 L1710.04 198.898 L1710.04 95.2176 L1484.84 95.2176  Z" fill="#ffffff" fill-rule="evenodd" fill-opacity="1"/>
<polyline clip-path="url(#clip400)" style="stroke:#000000; stroke-linecap:round; stroke-linejoin:round; stroke-width:4; stroke-opacity:1; fill:none" points="1484.84,198.898 1710.04,198.898 1710.04,95.2176 1484.84,95.2176 1484.84,198.898 "/>
<polyline clip-path="url(#clip400)" style="stroke:#009af9; stroke-linecap:round; stroke-linejoin:round; stroke-width:4; stroke-opacity:1; fill:none" points="1494.82,147.058 1554.67,147.058 "/>
<path clip-path="url(#clip400)" d="M1583.07 139.176 L1583.07 143.203 Q1581.27 142.277 1579.32 141.815 Q1577.38 141.352 1575.3 141.352 Q1572.12 141.352 1570.53 142.324 Q1568.95 143.296 1568.95 145.24 Q1568.95 146.722 1570.09 147.578 Q1571.22 148.412 1574.65 149.176 L1576.11 149.5 Q1580.64 150.472 1582.54 152.254 Q1584.46 154.014 1584.46 157.185 Q1584.46 160.796 1581.59 162.902 Q1578.74 165.009 1573.74 165.009 Q1571.66 165.009 1569.39 164.592 Q1567.15 164.199 1564.65 163.388 L1564.65 158.99 Q1567.01 160.217 1569.3 160.842 Q1571.59 161.444 1573.84 161.444 Q1576.85 161.444 1578.47 160.426 Q1580.09 159.384 1580.09 157.509 Q1580.09 155.773 1578.91 154.847 Q1577.75 153.921 1573.79 153.064 L1572.31 152.717 Q1568.35 151.884 1566.59 150.171 Q1564.83 148.435 1564.83 145.426 Q1564.83 141.768 1567.43 139.778 Q1570.02 137.787 1574.79 137.787 Q1577.15 137.787 1579.23 138.134 Q1581.31 138.481 1583.07 139.176 Z" fill="#000000" fill-rule="nonzero" fill-opacity="1" /><path clip-path="url(#clip400)" d="M1595.46 131.051 L1595.46 138.412 L1604.23 138.412 L1604.23 141.722 L1595.46 141.722 L1595.46 155.796 Q1595.46 158.967 1596.31 159.87 Q1597.19 160.773 1599.86 160.773 L1604.23 160.773 L1604.23 164.338 L1599.86 164.338 Q1594.93 164.338 1593.05 162.509 Q1591.18 160.657 1591.18 155.796 L1591.18 141.722 L1588.05 141.722 L1588.05 138.412 L1591.18 138.412 L1591.18 131.051 L1595.46 131.051 Z" fill="#000000" fill-rule="nonzero" fill-opacity="1" /><path clip-path="url(#clip400)" d="M1624.86 142.393 Q1624.14 141.977 1623.28 141.791 Q1622.45 141.583 1621.43 141.583 Q1617.82 141.583 1615.87 143.944 Q1613.95 146.282 1613.95 150.68 L1613.95 164.338 L1609.67 164.338 L1609.67 138.412 L1613.95 138.412 L1613.95 142.44 Q1615.3 140.078 1617.45 138.944 Q1619.6 137.787 1622.68 137.787 Q1623.12 137.787 1623.65 137.856 Q1624.18 137.903 1624.83 138.018 L1624.86 142.393 Z" fill="#000000" fill-rule="nonzero" fill-opacity="1" /><path clip-path="url(#clip400)" d="M1650.46 150.31 L1650.46 152.393 L1630.87 152.393 Q1631.15 156.791 1633.51 159.106 Q1635.9 161.398 1640.13 161.398 Q1642.59 161.398 1644.88 160.796 Q1647.19 160.194 1649.46 158.99 L1649.46 163.018 Q1647.17 163.99 1644.76 164.5 Q1642.36 165.009 1639.88 165.009 Q1633.67 165.009 1630.04 161.398 Q1626.43 157.787 1626.43 151.629 Q1626.43 145.264 1629.86 141.537 Q1633.3 137.787 1639.14 137.787 Q1644.37 137.787 1647.4 141.166 Q1650.46 144.523 1650.46 150.31 M1646.2 149.06 Q1646.15 145.565 1644.23 143.481 Q1642.33 141.398 1639.18 141.398 Q1635.62 141.398 1633.47 143.412 Q1631.34 145.426 1631.01 149.083 L1646.2 149.06 Z" fill="#000000" fill-rule="nonzero" fill-opacity="1" /><path clip-path="url(#clip400)" d="M1673.98 139.176 L1673.98 143.203 Q1672.17 142.277 1670.23 141.815 Q1668.28 141.352 1666.2 141.352 Q1663.03 141.352 1661.43 142.324 Q1659.86 143.296 1659.86 145.24 Q1659.86 146.722 1660.99 147.578 Q1662.12 148.412 1665.55 149.176 L1667.01 149.5 Q1671.54 150.472 1673.44 152.254 Q1675.36 154.014 1675.36 157.185 Q1675.36 160.796 1672.49 162.902 Q1669.65 165.009 1664.65 165.009 Q1662.56 165.009 1660.3 164.592 Q1658.05 164.199 1655.55 163.388 L1655.55 158.99 Q1657.91 160.217 1660.2 160.842 Q1662.49 161.444 1664.74 161.444 Q1667.75 161.444 1669.37 160.426 Q1670.99 159.384 1670.99 157.509 Q1670.99 155.773 1669.81 154.847 Q1668.65 153.921 1664.69 153.064 L1663.21 152.717 Q1659.25 151.884 1657.49 150.171 Q1655.73 148.435 1655.73 145.426 Q1655.73 141.768 1658.33 139.778 Q1660.92 137.787 1665.69 137.787 Q1668.05 137.787 1670.13 138.134 Q1672.22 138.481 1673.98 139.176 Z" fill="#000000" fill-rule="nonzero" fill-opacity="1" /><path clip-path="url(#clip400)" d="M1698.67 139.176 L1698.67 143.203 Q1696.87 142.277 1694.92 141.815 Q1692.98 141.352 1690.9 141.352 Q1687.73 141.352 1686.13 142.324 Q1684.55 143.296 1684.55 145.24 Q1684.55 146.722 1685.69 147.578 Q1686.82 148.412 1690.25 149.176 L1691.71 149.5 Q1696.24 150.472 1698.14 152.254 Q1700.06 154.014 1700.06 157.185 Q1700.06 160.796 1697.19 162.902 Q1694.35 165.009 1689.35 165.009 Q1687.26 165.009 1684.99 164.592 Q1682.75 164.199 1680.25 163.388 L1680.25 158.99 Q1682.61 160.217 1684.9 160.842 Q1687.19 161.444 1689.44 161.444 Q1692.45 161.444 1694.07 160.426 Q1695.69 159.384 1695.69 157.509 Q1695.69 155.773 1694.51 154.847 Q1693.35 153.921 1689.39 153.064 L1687.91 152.717 Q1683.95 151.884 1682.19 150.171 Q1680.43 148.435 1680.43 145.426 Q1680.43 141.768 1683.03 139.778 Q1685.62 137.787 1690.39 137.787 Q1692.75 137.787 1694.83 138.134 Q1696.92 138.481 1698.67 139.176 Z" fill="#000000" fill-rule="nonzero" fill-opacity="1" /></svg>
