<?xml version="1.0" encoding="utf-8"?>
<svg xmlns="http://www.w3.org/2000/svg" xmlns:xlink="http://www.w3.org/1999/xlink" width="600" height="400" viewBox="0 0 2400 1600">
<defs>
  <clipPath id="clip720">
    <rect x="0" y="0" width="2400" height="1600"/>
  </clipPath>
</defs>
<path clip-path="url(#clip720)" d="M0 1600 L2400 1600 L2400 0 L0 0  Z" fill="#ffffff" fill-rule="evenodd" fill-opacity="1"/>
<defs>
  <clipPath id="clip721">
    <rect x="1363" y="47" width="991" height="1440"/>
  </clipPath>
</defs>
<path clip-path="url(#clip720)" d="M147.478 1486.45 L1137.06 1486.45 L1137.06 47.2441 L147.478 47.2441  Z" fill="#ffffff" fill-rule="evenodd" fill-opacity="1"/>
<defs>
  <clipPath id="clip722">
    <rect x="147" y="47" width="991" height="1440"/>
  </clipPath>
</defs>
<polyline clip-path="url(#clip722)" style="stroke:#000000; stroke-linecap:round; stroke-linejoin:round; stroke-width:2; stroke-opacity:0.1; fill:none" points="297.746,1486.45 297.746,47.2441 "/>
<polyline clip-path="url(#clip722)" style="stroke:#000000; stroke-linecap:round; stroke-linejoin:round; stroke-width:2; stroke-opacity:0.1; fill:none" points="525.86,1486.45 525.86,47.2441 "/>
<polyline clip-path="url(#clip722)" style="stroke:#000000; stroke-linecap:round; stroke-linejoin:round; stroke-width:2; stroke-opacity:0.1; fill:none" points="753.974,1486.45 753.974,47.2441 "/>
<polyline clip-path="url(#clip722)" style="stroke:#000000; stroke-linecap:round; stroke-linejoin:round; stroke-width:2; stroke-opacity:0.1; fill:none" points="982.087,1486.45 982.087,47.2441 "/>
<polyline clip-path="url(#clip722)" style="stroke:#000000; stroke-linecap:round; stroke-linejoin:round; stroke-width:2; stroke-opacity:0.1; fill:none" points="147.478,1343.96 1137.06,1343.96 "/>
<polyline clip-path="url(#clip722)" style="stroke:#000000; stroke-linecap:round; stroke-linejoin:round; stroke-width:2; stroke-opacity:0.1; fill:none" points="147.478,1115.85 1137.06,1115.85 "/>
<polyline clip-path="url(#clip722)" style="stroke:#000000; stroke-linecap:round; stroke-linejoin:round; stroke-width:2; stroke-opacity:0.1; fill:none" points="147.478,887.734 1137.06,887.734 "/>
<polyline clip-path="url(#clip722)" style="stroke:#000000; stroke-linecap:round; stroke-linejoin:round; stroke-width:2; stroke-opacity:0.1; fill:none" points="147.478,659.621 1137.06,659.621 "/>
<polyline clip-path="url(#clip722)" style="stroke:#000000; stroke-linecap:round; stroke-linejoin:round; stroke-width:2; stroke-opacity:0.1; fill:none" points="147.478,431.507 1137.06,431.507 "/>
<polyline clip-path="url(#clip722)" style="stroke:#000000; stroke-linecap:round; stroke-linejoin:round; stroke-width:2; stroke-opacity:0.1; fill:none" points="147.478,203.393 1137.06,203.393 "/>
<polyline clip-path="url(#clip720)" style="stroke:#000000; stroke-linecap:round; stroke-linejoin:round; stroke-width:4; stroke-opacity:1; fill:none" points="147.478,1486.45 1137.06,1486.45 "/>
<polyline clip-path="url(#clip720)" style="stroke:#000000; stroke-linecap:round; stroke-linejoin:round; stroke-width:4; stroke-opacity:1; fill:none" points="297.746,1486.45 297.746,1467.55 "/>
<polyline clip-path="url(#clip720)" style="stroke:#000000; stroke-linecap:round; stroke-linejoin:round; stroke-width:4; stroke-opacity:1; fill:none" points="525.86,1486.45 525.86,1467.55 "/>
<polyline clip-path="url(#clip720)" style="stroke:#000000; stroke-linecap:round; stroke-linejoin:round; stroke-width:4; stroke-opacity:1; fill:none" points="753.974,1486.45 753.974,1467.55 "/>
<polyline clip-path="url(#clip720)" style="stroke:#000000; stroke-linecap:round; stroke-linejoin:round; stroke-width:4; stroke-opacity:1; fill:none" points="982.087,1486.45 982.087,1467.55 "/>
<path clip-path="url(#clip720)" d="M267.503 1532.02 L297.179 1532.02 L297.179 1535.95 L267.503 1535.95 L267.503 1532.02 Z" fill="#000000" fill-rule="nonzero" fill-opacity="1" /><path clip-path="url(#clip720)" d="M308.082 1544.91 L315.721 1544.91 L315.721 1518.55 L307.411 1520.21 L307.411 1515.95 L315.674 1514.29 L320.35 1514.29 L320.35 1544.91 L327.989 1544.91 L327.989 1548.85 L308.082 1548.85 L308.082 1544.91 Z" fill="#000000" fill-rule="nonzero" fill-opacity="1" /><path clip-path="url(#clip720)" d="M525.86 1517.37 Q522.249 1517.37 520.42 1520.93 Q518.615 1524.47 518.615 1531.6 Q518.615 1538.71 520.42 1542.27 Q522.249 1545.82 525.86 1545.82 Q529.494 1545.82 531.3 1542.27 Q533.128 1538.71 533.128 1531.6 Q533.128 1524.47 531.3 1520.93 Q529.494 1517.37 525.86 1517.37 M525.86 1513.66 Q531.67 1513.66 534.726 1518.27 Q537.804 1522.85 537.804 1531.6 Q537.804 1540.33 534.726 1544.94 Q531.67 1549.52 525.86 1549.52 Q520.05 1549.52 516.971 1544.94 Q513.916 1540.33 513.916 1531.6 Q513.916 1522.85 516.971 1518.27 Q520.05 1513.66 525.86 1513.66 Z" fill="#000000" fill-rule="nonzero" fill-opacity="1" /><path clip-path="url(#clip720)" d="M744.356 1544.91 L751.994 1544.91 L751.994 1518.55 L743.684 1520.21 L743.684 1515.95 L751.948 1514.29 L756.624 1514.29 L756.624 1544.91 L764.263 1544.91 L764.263 1548.85 L744.356 1548.85 L744.356 1544.91 Z" fill="#000000" fill-rule="nonzero" fill-opacity="1" /><path clip-path="url(#clip720)" d="M976.74 1544.91 L993.059 1544.91 L993.059 1548.85 L971.115 1548.85 L971.115 1544.91 Q973.777 1542.16 978.36 1537.53 Q982.967 1532.88 984.147 1531.53 Q986.393 1529.01 987.272 1527.27 Q988.175 1525.51 988.175 1523.82 Q988.175 1521.07 986.231 1519.33 Q984.31 1517.6 981.208 1517.6 Q979.009 1517.6 976.555 1518.36 Q974.124 1519.13 971.347 1520.68 L971.347 1515.95 Q974.171 1514.82 976.624 1514.24 Q979.078 1513.66 981.115 1513.66 Q986.485 1513.66 989.68 1516.35 Q992.874 1519.03 992.874 1523.52 Q992.874 1525.65 992.064 1527.57 Q991.277 1529.47 989.171 1532.07 Q988.592 1532.74 985.49 1535.95 Q982.388 1539.15 976.74 1544.91 Z" fill="#000000" fill-rule="nonzero" fill-opacity="1" /><polyline clip-path="url(#clip720)" style="stroke:#000000; stroke-linecap:round; stroke-linejoin:round; stroke-width:4; stroke-opacity:1; fill:none" points="147.478,1486.45 147.478,47.2441 "/>
<polyline clip-path="url(#clip720)" style="stroke:#000000; stroke-linecap:round; stroke-linejoin:round; stroke-width:4; stroke-opacity:1; fill:none" points="147.478,1343.96 166.376,1343.96 "/>
<polyline clip-path="url(#clip720)" style="stroke:#000000; stroke-linecap:round; stroke-linejoin:round; stroke-width:4; stroke-opacity:1; fill:none" points="147.478,1115.85 166.376,1115.85 "/>
<polyline clip-path="url(#clip720)" style="stroke:#000000; stroke-linecap:round; stroke-linejoin:round; stroke-width:4; stroke-opacity:1; fill:none" points="147.478,887.734 166.376,887.734 "/>
<polyline clip-path="url(#clip720)" style="stroke:#000000; stroke-linecap:round; stroke-linejoin:round; stroke-width:4; stroke-opacity:1; fill:none" points="147.478,659.621 166.376,659.621 "/>
<polyline clip-path="url(#clip720)" style="stroke:#000000; stroke-linecap:round; stroke-linejoin:round; stroke-width:4; stroke-opacity:1; fill:none" points="147.478,431.507 166.376,431.507 "/>
<polyline clip-path="url(#clip720)" style="stroke:#000000; stroke-linecap:round; stroke-linejoin:round; stroke-width:4; stroke-opacity:1; fill:none" points="147.478,203.393 166.376,203.393 "/>
<path clip-path="url(#clip720)" d="M51.3625 1344.41 L81.0383 1344.41 L81.0383 1348.35 L51.3625 1348.35 L51.3625 1344.41 Z" fill="#000000" fill-rule="nonzero" fill-opacity="1" /><path clip-path="url(#clip720)" d="M95.1586 1357.31 L111.478 1357.31 L111.478 1361.24 L89.5336 1361.24 L89.5336 1357.31 Q92.1956 1354.55 96.7789 1349.92 Q101.385 1345.27 102.566 1343.93 Q104.811 1341.4 105.691 1339.67 Q106.594 1337.91 106.594 1336.22 Q106.594 1333.46 104.649 1331.73 Q102.728 1329.99 99.6261 1329.99 Q97.4271 1329.99 94.9734 1330.76 Q92.5428 1331.52 89.7651 1333.07 L89.7651 1328.35 Q92.5891 1327.21 95.0428 1326.64 Q97.4965 1326.06 99.5335 1326.06 Q104.904 1326.06 108.098 1328.74 Q111.293 1331.43 111.293 1335.92 Q111.293 1338.05 110.483 1339.97 Q109.696 1341.87 107.589 1344.46 Q107.01 1345.13 103.909 1348.35 Q100.807 1351.54 95.1586 1357.31 Z" fill="#000000" fill-rule="nonzero" fill-opacity="1" /><path clip-path="url(#clip720)" d="M50.9921 1116.3 L80.6679 1116.3 L80.6679 1120.23 L50.9921 1120.23 L50.9921 1116.3 Z" fill="#000000" fill-rule="nonzero" fill-opacity="1" /><path clip-path="url(#clip720)" d="M91.5706 1129.19 L99.2095 1129.19 L99.2095 1102.83 L90.8993 1104.49 L90.8993 1100.23 L99.1632 1098.57 L103.839 1098.57 L103.839 1129.19 L111.478 1129.19 L111.478 1133.13 L91.5706 1133.13 L91.5706 1129.19 Z" fill="#000000" fill-rule="nonzero" fill-opacity="1" /><path clip-path="url(#clip720)" d="M99.5335 873.533 Q95.9224 873.533 94.0937 877.098 Q92.2882 880.639 92.2882 887.769 Q92.2882 894.875 94.0937 898.44 Q95.9224 901.982 99.5335 901.982 Q103.168 901.982 104.973 898.44 Q106.802 894.875 106.802 887.769 Q106.802 880.639 104.973 877.098 Q103.168 873.533 99.5335 873.533 M99.5335 869.829 Q105.344 869.829 108.399 874.436 Q111.478 879.019 111.478 887.769 Q111.478 896.496 108.399 901.102 Q105.344 905.686 99.5335 905.686 Q93.7234 905.686 90.6447 901.102 Q87.5892 896.496 87.5892 887.769 Q87.5892 879.019 90.6447 874.436 Q93.7234 869.829 99.5335 869.829 Z" fill="#000000" fill-rule="nonzero" fill-opacity="1" /><path clip-path="url(#clip720)" d="M91.5706 672.965 L99.2095 672.965 L99.2095 646.6 L90.8993 648.266 L90.8993 644.007 L99.1632 642.341 L103.839 642.341 L103.839 672.965 L111.478 672.965 L111.478 676.901 L91.5706 676.901 L91.5706 672.965 Z" fill="#000000" fill-rule="nonzero" fill-opacity="1" /><path clip-path="url(#clip720)" d="M95.1586 444.852 L111.478 444.852 L111.478 448.787 L89.5336 448.787 L89.5336 444.852 Q92.1956 442.097 96.7789 437.468 Q101.385 432.815 102.566 431.472 Q104.811 428.949 105.691 427.213 Q106.594 425.454 106.594 423.764 Q106.594 421.009 104.649 419.273 Q102.728 417.537 99.6261 417.537 Q97.4271 417.537 94.9734 418.301 Q92.5428 419.065 89.7651 420.616 L89.7651 415.894 Q92.5891 414.759 95.0428 414.181 Q97.4965 413.602 99.5335 413.602 Q104.904 413.602 108.098 416.287 Q111.293 418.972 111.293 423.463 Q111.293 425.593 110.483 427.514 Q109.696 429.412 107.589 432.005 Q107.01 432.676 103.909 435.893 Q100.807 439.088 95.1586 444.852 Z" fill="#000000" fill-rule="nonzero" fill-opacity="1" /><path clip-path="url(#clip720)" d="M104.348 202.039 Q107.705 202.757 109.58 205.025 Q111.478 207.294 111.478 210.627 Q111.478 215.743 107.959 218.544 Q104.441 221.345 97.9595 221.345 Q95.7836 221.345 93.4688 220.905 Q91.1771 220.488 88.7234 219.632 L88.7234 215.118 Q90.6678 216.252 92.9826 216.831 Q95.2974 217.409 97.8206 217.409 Q102.219 217.409 104.51 215.673 Q106.825 213.937 106.825 210.627 Q106.825 207.571 104.672 205.858 Q102.543 204.122 98.7234 204.122 L94.6956 204.122 L94.6956 200.28 L98.9085 200.28 Q102.358 200.28 104.186 198.914 Q106.015 197.525 106.015 194.933 Q106.015 192.271 104.117 190.859 Q102.242 189.423 98.7234 189.423 Q96.8021 189.423 94.603 189.84 Q92.4039 190.257 89.7651 191.136 L89.7651 186.97 Q92.4271 186.229 94.7419 185.859 Q97.0798 185.488 99.14 185.488 Q104.464 185.488 107.566 187.919 Q110.668 190.326 110.668 194.447 Q110.668 197.317 109.024 199.308 Q107.381 201.275 104.348 202.039 Z" fill="#000000" fill-rule="nonzero" fill-opacity="1" /><polyline clip-path="url(#clip722)" style="stroke:#000000; stroke-linecap:round; stroke-linejoin:round; stroke-width:4; stroke-opacity:1; fill:none" points="642.334,766.779 427.822,1187.92 "/>
<polyline clip-path="url(#clip722)" style="stroke:#000000; stroke-linecap:round; stroke-linejoin:round; stroke-width:4; stroke-opacity:1; fill:none" points="642.334,766.779 221.278,981.306 "/>
<polyline clip-path="url(#clip722)" style="stroke:#000000; stroke-linecap:round; stroke-linejoin:round; stroke-width:4; stroke-opacity:1; fill:none" points="642.334,766.779 175.485,692.756 "/>
<polyline clip-path="url(#clip722)" style="stroke:#000000; stroke-linecap:round; stroke-linejoin:round; stroke-width:4; stroke-opacity:1; fill:none" points="642.334,766.779 308.074,432.427 "/>
<polyline clip-path="url(#clip722)" style="stroke:#000000; stroke-linecap:round; stroke-linejoin:round; stroke-width:4; stroke-opacity:1; fill:none" points="642.334,766.779 568.371,299.778 "/>
<polyline clip-path="url(#clip722)" style="stroke:#000000; stroke-linecap:round; stroke-linejoin:round; stroke-width:4; stroke-opacity:1; fill:none" points="642.334,766.779 856.938,345.515 "/>
<polyline clip-path="url(#clip722)" style="stroke:#000000; stroke-linecap:round; stroke-linejoin:round; stroke-width:4; stroke-opacity:1; fill:none" points="642.334,766.779 1063.47,552.228 "/>
<polyline clip-path="url(#clip722)" style="stroke:#000000; stroke-linecap:round; stroke-linejoin:round; stroke-width:4; stroke-opacity:1; fill:none" points="642.334,766.779 1109.05,840.876 "/>
<polyline clip-path="url(#clip722)" style="stroke:#000000; stroke-linecap:round; stroke-linejoin:round; stroke-width:4; stroke-opacity:1; fill:none" points="642.334,766.779 976.474,1101.24 "/>
<polyline clip-path="url(#clip722)" style="stroke:#000000; stroke-linecap:round; stroke-linejoin:round; stroke-width:4; stroke-opacity:1; fill:none" points="642.334,766.779 716.265,1233.91 "/>
<polyline clip-path="url(#clip722)" style="stroke:#000000; stroke-linecap:round; stroke-linejoin:round; stroke-width:4; stroke-opacity:1; fill:none" points="427.822,1187.92 221.278,981.306 "/>
<polyline clip-path="url(#clip722)" style="stroke:#000000; stroke-linecap:round; stroke-linejoin:round; stroke-width:4; stroke-opacity:1; fill:none" points="427.822,1187.92 716.265,1233.91 "/>
<polyline clip-path="url(#clip722)" style="stroke:#000000; stroke-linecap:round; stroke-linejoin:round; stroke-width:4; stroke-opacity:1; fill:none" points="221.278,981.306 175.485,692.756 "/>
<polyline clip-path="url(#clip722)" style="stroke:#000000; stroke-linecap:round; stroke-linejoin:round; stroke-width:4; stroke-opacity:1; fill:none" points="175.485,692.756 308.074,432.427 "/>
<polyline clip-path="url(#clip722)" style="stroke:#000000; stroke-linecap:round; stroke-linejoin:round; stroke-width:4; stroke-opacity:1; fill:none" points="308.074,432.427 568.371,299.778 "/>
<polyline clip-path="url(#clip722)" style="stroke:#000000; stroke-linecap:round; stroke-linejoin:round; stroke-width:4; stroke-opacity:1; fill:none" points="568.371,299.778 856.938,345.515 "/>
<polyline clip-path="url(#clip722)" style="stroke:#000000; stroke-linecap:round; stroke-linejoin:round; stroke-width:4; stroke-opacity:1; fill:none" points="856.938,345.515 1063.47,552.228 "/>
<polyline clip-path="url(#clip722)" style="stroke:#000000; stroke-linecap:round; stroke-linejoin:round; stroke-width:4; stroke-opacity:1; fill:none" points="1063.47,552.228 1109.05,840.876 "/>
<polyline clip-path="url(#clip722)" style="stroke:#000000; stroke-linecap:round; stroke-linejoin:round; stroke-width:4; stroke-opacity:1; fill:none" points="1109.05,840.876 976.474,1101.24 "/>
<polyline clip-path="url(#clip722)" style="stroke:#000000; stroke-linecap:round; stroke-linejoin:round; stroke-width:4; stroke-opacity:1; fill:none" points="976.474,1101.24 716.265,1233.91 "/>
<circle clip-path="url(#clip722)" cx="642.334" cy="766.779" r="18" fill="#0000ff" fill-rule="evenodd" fill-opacity="1" stroke="#000000" stroke-opacity="1" stroke-width="3.2"/>
<circle clip-path="url(#clip722)" cx="427.822" cy="1187.92" r="18" fill="#0000ff" fill-rule="evenodd" fill-opacity="1" stroke="#000000" stroke-opacity="1" stroke-width="3.2"/>
<circle clip-path="url(#clip722)" cx="221.278" cy="981.306" r="18" fill="#0000ff" fill-rule="evenodd" fill-opacity="1" stroke="#000000" stroke-opacity="1" stroke-width="3.2"/>
<circle clip-path="url(#clip722)" cx="175.485" cy="692.756" r="18" fill="#0000ff" fill-rule="evenodd" fill-opacity="1" stroke="#000000" stroke-opacity="1" stroke-width="3.2"/>
<circle clip-path="url(#clip722)" cx="308.074" cy="432.427" r="18" fill="#0000ff" fill-rule="evenodd" fill-opacity="1" stroke="#000000" stroke-opacity="1" stroke-width="3.2"/>
<circle clip-path="url(#clip722)" cx="568.371" cy="299.778" r="18" fill="#0000ff" fill-rule="evenodd" fill-opacity="1" stroke="#000000" stroke-opacity="1" stroke-width="3.2"/>
<circle clip-path="url(#clip722)" cx="856.938" cy="345.515" r="18" fill="#0000ff" fill-rule="evenodd" fill-opacity="1" stroke="#000000" stroke-opacity="1" stroke-width="3.2"/>
<circle clip-path="url(#clip722)" cx="1063.47" cy="552.228" r="18" fill="#0000ff" fill-rule="evenodd" fill-opacity="1" stroke="#000000" stroke-opacity="1" stroke-width="3.2"/>
<circle clip-path="url(#clip722)" cx="1109.05" cy="840.876" r="18" fill="#0000ff" fill-rule="evenodd" fill-opacity="1" stroke="#000000" stroke-opacity="1" stroke-width="3.2"/>
<circle clip-path="url(#clip722)" cx="976.474" cy="1101.24" r="18" fill="#0000ff" fill-rule="evenodd" fill-opacity="1" stroke="#000000" stroke-opacity="1" stroke-width="3.2"/>
<circle clip-path="url(#clip722)" cx="716.265" cy="1233.91" r="18" fill="#0000ff" fill-rule="evenodd" fill-opacity="1" stroke="#000000" stroke-opacity="1" stroke-width="3.2"/>
<path clip-path="url(#clip720)" d="M1363.17 1486.45 L2352.76 1486.45 L2352.76 47.2441 L1363.17 47.2441  Z" fill="#ffffff" fill-rule="evenodd" fill-opacity="1"/>
<polyline clip-path="url(#clip721)" style="stroke:#000000; stroke-linecap:round; stroke-linejoin:round; stroke-width:2; stroke-opacity:0.1; fill:none" points="1374.8,1486.45 1374.8,47.2441 "/>
<polyline clip-path="url(#clip721)" style="stroke:#000000; stroke-linecap:round; stroke-linejoin:round; stroke-width:2; stroke-opacity:0.1; fill:none" points="1538.59,1486.45 1538.59,47.2441 "/>
<polyline clip-path="url(#clip721)" style="stroke:#000000; stroke-linecap:round; stroke-linejoin:round; stroke-width:2; stroke-opacity:0.1; fill:none" points="1702.37,1486.45 1702.37,47.2441 "/>
<polyline clip-path="url(#clip721)" style="stroke:#000000; stroke-linecap:round; stroke-linejoin:round; stroke-width:2; stroke-opacity:0.1; fill:none" points="1866.15,1486.45 1866.15,47.2441 "/>
<polyline clip-path="url(#clip721)" style="stroke:#000000; stroke-linecap:round; stroke-linejoin:round; stroke-width:2; stroke-opacity:0.1; fill:none" points="2029.94,1486.45 2029.94,47.2441 "/>
<polyline clip-path="url(#clip721)" style="stroke:#000000; stroke-linecap:round; stroke-linejoin:round; stroke-width:2; stroke-opacity:0.1; fill:none" points="2193.72,1486.45 2193.72,47.2441 "/>
<polyline clip-path="url(#clip721)" style="stroke:#000000; stroke-linecap:round; stroke-linejoin:round; stroke-width:2; stroke-opacity:0.1; fill:none" points="1363.17,1202.31 2352.76,1202.31 "/>
<polyline clip-path="url(#clip721)" style="stroke:#000000; stroke-linecap:round; stroke-linejoin:round; stroke-width:2; stroke-opacity:0.1; fill:none" points="1363.17,835.048 2352.76,835.048 "/>
<polyline clip-path="url(#clip721)" style="stroke:#000000; stroke-linecap:round; stroke-linejoin:round; stroke-width:2; stroke-opacity:0.1; fill:none" points="1363.17,467.791 2352.76,467.791 "/>
<polyline clip-path="url(#clip721)" style="stroke:#000000; stroke-linecap:round; stroke-linejoin:round; stroke-width:2; stroke-opacity:0.1; fill:none" points="1363.17,100.533 2352.76,100.533 "/>
<polyline clip-path="url(#clip720)" style="stroke:#000000; stroke-linecap:round; stroke-linejoin:round; stroke-width:4; stroke-opacity:1; fill:none" points="1363.17,1486.45 2352.76,1486.45 "/>
<polyline clip-path="url(#clip720)" style="stroke:#000000; stroke-linecap:round; stroke-linejoin:round; stroke-width:4; stroke-opacity:1; fill:none" points="1374.8,1486.45 1374.8,1467.55 "/>
<polyline clip-path="url(#clip720)" style="stroke:#000000; stroke-linecap:round; stroke-linejoin:round; stroke-width:4; stroke-opacity:1; fill:none" points="1538.59,1486.45 1538.59,1467.55 "/>
<polyline clip-path="url(#clip720)" style="stroke:#000000; stroke-linecap:round; stroke-linejoin:round; stroke-width:4; stroke-opacity:1; fill:none" points="1702.37,1486.45 1702.37,1467.55 "/>
<polyline clip-path="url(#clip720)" style="stroke:#000000; stroke-linecap:round; stroke-linejoin:round; stroke-width:4; stroke-opacity:1; fill:none" points="1866.15,1486.45 1866.15,1467.55 "/>
<polyline clip-path="url(#clip720)" style="stroke:#000000; stroke-linecap:round; stroke-linejoin:round; stroke-width:4; stroke-opacity:1; fill:none" points="2029.94,1486.45 2029.94,1467.55 "/>
<polyline clip-path="url(#clip720)" style="stroke:#000000; stroke-linecap:round; stroke-linejoin:round; stroke-width:4; stroke-opacity:1; fill:none" points="2193.72,1486.45 2193.72,1467.55 "/>
<path clip-path="url(#clip720)" d="M1374.8 1517.37 Q1371.19 1517.37 1369.36 1520.93 Q1367.56 1524.47 1367.56 1531.6 Q1367.56 1538.71 1369.36 1542.27 Q1371.19 1545.82 1374.8 1545.82 Q1378.44 1545.82 1380.24 1542.27 Q1382.07 1538.71 1382.07 1531.6 Q1382.07 1524.47 1380.24 1520.93 Q1378.44 1517.37 1374.8 1517.37 M1374.8 1513.66 Q1380.61 1513.66 1383.67 1518.27 Q1386.75 1522.85 1386.75 1531.6 Q1386.75 1540.33 1383.67 1544.94 Q1380.61 1549.52 1374.8 1549.52 Q1368.99 1549.52 1365.91 1544.94 Q1362.86 1540.33 1362.86 1531.6 Q1362.86 1522.85 1365.91 1518.27 Q1368.99 1513.66 1374.8 1513.66 Z" fill="#000000" fill-rule="nonzero" fill-opacity="1" /><path clip-path="url(#clip720)" d="M1513.27 1544.91 L1520.91 1544.91 L1520.91 1518.55 L1512.6 1520.21 L1512.6 1515.95 L1520.87 1514.29 L1525.54 1514.29 L1525.54 1544.91 L1533.18 1544.91 L1533.18 1548.85 L1513.27 1548.85 L1513.27 1544.91 Z" fill="#000000" fill-rule="nonzero" fill-opacity="1" /><path clip-path="url(#clip720)" d="M1552.62 1517.37 Q1549.01 1517.37 1547.18 1520.93 Q1545.38 1524.47 1545.38 1531.6 Q1545.38 1538.71 1547.18 1542.27 Q1549.01 1545.82 1552.62 1545.82 Q1556.26 1545.82 1558.06 1542.27 Q1559.89 1538.71 1559.89 1531.6 Q1559.89 1524.47 1558.06 1520.93 Q1556.26 1517.37 1552.62 1517.37 M1552.62 1513.66 Q1558.43 1513.66 1561.49 1518.27 Q1564.57 1522.85 1564.57 1531.6 Q1564.57 1540.33 1561.49 1544.94 Q1558.43 1549.52 1552.62 1549.52 Q1546.81 1549.52 1543.74 1544.94 Q1540.68 1540.33 1540.68 1531.6 Q1540.68 1522.85 1543.74 1518.27 Q1546.81 1513.66 1552.62 1513.66 Z" fill="#000000" fill-rule="nonzero" fill-opacity="1" /><path clip-path="url(#clip720)" d="M1681.14 1544.91 L1697.46 1544.91 L1697.46 1548.85 L1675.52 1548.85 L1675.52 1544.91 Q1678.18 1542.16 1682.76 1537.53 Q1687.37 1532.88 1688.55 1531.53 Q1690.8 1529.01 1691.67 1527.27 Q1692.58 1525.51 1692.58 1523.82 Q1692.58 1521.07 1690.63 1519.33 Q1688.71 1517.6 1685.61 1517.6 Q1683.41 1517.6 1680.96 1518.36 Q1678.53 1519.13 1675.75 1520.68 L1675.75 1515.95 Q1678.57 1514.82 1681.03 1514.24 Q1683.48 1513.66 1685.52 1513.66 Q1690.89 1513.66 1694.08 1516.35 Q1697.28 1519.03 1697.28 1523.52 Q1697.28 1525.65 1696.47 1527.57 Q1695.68 1529.47 1693.57 1532.07 Q1692.99 1532.74 1689.89 1535.95 Q1686.79 1539.15 1681.14 1544.91 Z" fill="#000000" fill-rule="nonzero" fill-opacity="1" /><path clip-path="url(#clip720)" d="M1717.28 1517.37 Q1713.67 1517.37 1711.84 1520.93 Q1710.03 1524.47 1710.03 1531.6 Q1710.03 1538.71 1711.84 1542.27 Q1713.67 1545.82 1717.28 1545.82 Q1720.91 1545.82 1722.72 1542.27 Q1724.54 1538.71 1724.54 1531.6 Q1724.54 1524.47 1722.72 1520.93 Q1720.91 1517.37 1717.28 1517.37 M1717.28 1513.66 Q1723.09 1513.66 1726.14 1518.27 Q1729.22 1522.85 1729.22 1531.6 Q1729.22 1540.33 1726.14 1544.94 Q1723.09 1549.52 1717.28 1549.52 Q1711.47 1549.52 1708.39 1544.94 Q1705.33 1540.33 1705.33 1531.6 Q1705.33 1522.85 1708.39 1518.27 Q1711.47 1513.66 1717.28 1513.66 Z" fill="#000000" fill-rule="nonzero" fill-opacity="1" /><path clip-path="url(#clip720)" d="M1855 1530.21 Q1858.35 1530.93 1860.23 1533.2 Q1862.13 1535.47 1862.13 1538.8 Q1862.13 1543.92 1858.61 1546.72 Q1855.09 1549.52 1848.61 1549.52 Q1846.43 1549.52 1844.12 1549.08 Q1841.82 1548.66 1839.37 1547.81 L1839.37 1543.29 Q1841.32 1544.43 1843.63 1545.01 Q1845.95 1545.58 1848.47 1545.58 Q1852.87 1545.58 1855.16 1543.85 Q1857.47 1542.11 1857.47 1538.8 Q1857.47 1535.75 1855.32 1534.03 Q1853.19 1532.3 1849.37 1532.3 L1845.34 1532.3 L1845.34 1528.45 L1849.56 1528.45 Q1853.01 1528.45 1854.83 1527.09 Q1856.66 1525.7 1856.66 1523.11 Q1856.66 1520.45 1854.76 1519.03 Q1852.89 1517.6 1849.37 1517.6 Q1847.45 1517.6 1845.25 1518.01 Q1843.05 1518.43 1840.41 1519.31 L1840.41 1515.14 Q1843.07 1514.4 1845.39 1514.03 Q1847.73 1513.66 1849.79 1513.66 Q1855.11 1513.66 1858.21 1516.09 Q1861.32 1518.5 1861.32 1522.62 Q1861.32 1525.49 1859.67 1527.48 Q1858.03 1529.45 1855 1530.21 Z" fill="#000000" fill-rule="nonzero" fill-opacity="1" /><path clip-path="url(#clip720)" d="M1880.99 1517.37 Q1877.38 1517.37 1875.55 1520.93 Q1873.75 1524.47 1873.75 1531.6 Q1873.75 1538.71 1875.55 1542.27 Q1877.38 1545.82 1880.99 1545.82 Q1884.63 1545.82 1886.43 1542.27 Q1888.26 1538.71 1888.26 1531.6 Q1888.26 1524.47 1886.43 1520.93 Q1884.63 1517.37 1880.99 1517.37 M1880.99 1513.66 Q1886.8 1513.66 1889.86 1518.27 Q1892.94 1522.85 1892.94 1531.6 Q1892.94 1540.33 1889.86 1544.94 Q1886.8 1549.52 1880.99 1549.52 Q1875.18 1549.52 1872.1 1544.94 Q1869.05 1540.33 1869.05 1531.6 Q1869.05 1522.85 1872.1 1518.27 Q1875.18 1513.66 1880.99 1513.66 Z" fill="#000000" fill-rule="nonzero" fill-opacity="1" /><path clip-path="url(#clip720)" d="M2018.11 1518.36 L2006.3 1536.81 L2018.11 1536.81 L2018.11 1518.36 M2016.88 1514.29 L2022.76 1514.29 L2022.76 1536.81 L2027.69 1536.81 L2027.69 1540.7 L2022.76 1540.7 L2022.76 1548.85 L2018.11 1548.85 L2018.11 1540.7 L2002.51 1540.7 L2002.51 1536.19 L2016.88 1514.29 Z" fill="#000000" fill-rule="nonzero" fill-opacity="1" /><path clip-path="url(#clip720)" d="M2045.42 1517.37 Q2041.81 1517.37 2039.98 1520.93 Q2038.18 1524.47 2038.18 1531.6 Q2038.18 1538.71 2039.98 1542.27 Q2041.81 1545.82 2045.42 1545.82 Q2049.06 1545.82 2050.86 1542.27 Q2052.69 1538.71 2052.69 1531.6 Q2052.69 1524.47 2050.86 1520.93 Q2049.06 1517.37 2045.42 1517.37 M2045.42 1513.66 Q2051.23 1513.66 2054.29 1518.27 Q2057.37 1522.85 2057.37 1531.6 Q2057.37 1540.33 2054.29 1544.94 Q2051.23 1549.52 2045.42 1549.52 Q2039.61 1549.52 2036.53 1544.94 Q2033.48 1540.33 2033.48 1531.6 Q2033.48 1522.85 2036.53 1518.27 Q2039.61 1513.66 2045.42 1513.66 Z" fill="#000000" fill-rule="nonzero" fill-opacity="1" /><path clip-path="url(#clip720)" d="M2168.42 1514.29 L2186.78 1514.29 L2186.78 1518.22 L2172.7 1518.22 L2172.7 1526.7 Q2173.72 1526.35 2174.74 1526.19 Q2175.76 1526 2176.78 1526 Q2182.56 1526 2185.94 1529.17 Q2189.32 1532.34 2189.32 1537.76 Q2189.32 1543.34 2185.85 1546.44 Q2182.38 1549.52 2176.06 1549.52 Q2173.88 1549.52 2171.62 1549.15 Q2169.37 1548.78 2166.96 1548.04 L2166.96 1543.34 Q2169.05 1544.47 2171.27 1545.03 Q2173.49 1545.58 2175.97 1545.58 Q2179.97 1545.58 2182.31 1543.48 Q2184.65 1541.37 2184.65 1537.76 Q2184.65 1534.15 2182.31 1532.04 Q2179.97 1529.94 2175.97 1529.94 Q2174.09 1529.94 2172.22 1530.35 Q2170.37 1530.77 2168.42 1531.65 L2168.42 1514.29 Z" fill="#000000" fill-rule="nonzero" fill-opacity="1" /><path clip-path="url(#clip720)" d="M2208.54 1517.37 Q2204.93 1517.37 2203.1 1520.93 Q2201.29 1524.47 2201.29 1531.6 Q2201.29 1538.71 2203.1 1542.27 Q2204.93 1545.82 2208.54 1545.82 Q2212.17 1545.82 2213.98 1542.27 Q2215.8 1538.71 2215.8 1531.6 Q2215.8 1524.47 2213.98 1520.93 Q2212.17 1517.37 2208.54 1517.37 M2208.54 1513.66 Q2214.35 1513.66 2217.4 1518.27 Q2220.48 1522.85 2220.48 1531.6 Q2220.48 1540.33 2217.4 1544.94 Q2214.35 1549.52 2208.54 1549.52 Q2202.73 1549.52 2199.65 1544.94 Q2196.59 1540.33 2196.59 1531.6 Q2196.59 1522.85 2199.65 1518.27 Q2202.73 1513.66 2208.54 1513.66 Z" fill="#000000" fill-rule="nonzero" fill-opacity="1" /><polyline clip-path="url(#clip720)" style="stroke:#000000; stroke-linecap:round; stroke-linejoin:round; stroke-width:4; stroke-opacity:1; fill:none" points="1363.17,1486.45 1363.17,47.2441 "/>
<polyline clip-path="url(#clip720)" style="stroke:#000000; stroke-linecap:round; stroke-linejoin:round; stroke-width:4; stroke-opacity:1; fill:none" points="1363.17,1202.31 1382.07,1202.31 "/>
<polyline clip-path="url(#clip720)" style="stroke:#000000; stroke-linecap:round; stroke-linejoin:round; stroke-width:4; stroke-opacity:1; fill:none" points="1363.17,835.048 1382.07,835.048 "/>
<polyline clip-path="url(#clip720)" style="stroke:#000000; stroke-linecap:round; stroke-linejoin:round; stroke-width:4; stroke-opacity:1; fill:none" points="1363.17,467.791 1382.07,467.791 "/>
<polyline clip-path="url(#clip720)" style="stroke:#000000; stroke-linecap:round; stroke-linejoin:round; stroke-width:4; stroke-opacity:1; fill:none" points="1363.17,100.533 1382.07,100.533 "/>
<path clip-path="url(#clip720)" d="M1235.3 1202.76 L1264.97 1202.76 L1264.97 1206.69 L1235.3 1206.69 L1235.3 1202.76 Z" fill="#000000" fill-rule="nonzero" fill-opacity="1" /><path clip-path="url(#clip720)" d="M1279.09 1215.65 L1295.41 1215.65 L1295.41 1219.59 L1273.47 1219.59 L1273.47 1215.65 Q1276.13 1212.9 1280.71 1208.27 Q1285.32 1203.61 1286.5 1202.27 Q1288.75 1199.75 1289.63 1198.01 Q1290.53 1196.25 1290.53 1194.56 Q1290.53 1191.81 1288.58 1190.07 Q1286.66 1188.34 1283.56 1188.34 Q1281.36 1188.34 1278.91 1189.1 Q1276.48 1189.86 1273.7 1191.41 L1273.7 1186.69 Q1276.52 1185.56 1278.98 1184.98 Q1281.43 1184.4 1283.47 1184.4 Q1288.84 1184.4 1292.03 1187.09 Q1295.23 1189.77 1295.23 1194.26 Q1295.23 1196.39 1294.42 1198.31 Q1293.63 1200.21 1291.52 1202.8 Q1290.95 1203.47 1287.84 1206.69 Q1284.74 1209.89 1279.09 1215.65 Z" fill="#000000" fill-rule="nonzero" fill-opacity="1" /><path clip-path="url(#clip720)" d="M1315.23 1188.1 Q1311.62 1188.1 1309.79 1191.67 Q1307.98 1195.21 1307.98 1202.34 Q1307.98 1209.45 1309.79 1213.01 Q1311.62 1216.55 1315.23 1216.55 Q1318.86 1216.55 1320.67 1213.01 Q1322.5 1209.45 1322.5 1202.34 Q1322.5 1195.21 1320.67 1191.67 Q1318.86 1188.1 1315.23 1188.1 M1315.23 1184.4 Q1321.04 1184.4 1324.09 1189.01 Q1327.17 1193.59 1327.17 1202.34 Q1327.17 1211.07 1324.09 1215.67 Q1321.04 1220.26 1315.23 1220.26 Q1309.42 1220.26 1306.34 1215.67 Q1303.28 1211.07 1303.28 1202.34 Q1303.28 1193.59 1306.34 1189.01 Q1309.42 1184.4 1315.23 1184.4 Z" fill="#000000" fill-rule="nonzero" fill-opacity="1" /><path clip-path="url(#clip720)" d="M1315.23 820.847 Q1311.62 820.847 1309.79 824.412 Q1307.98 827.953 1307.98 835.083 Q1307.98 842.189 1309.79 845.754 Q1311.62 849.296 1315.23 849.296 Q1318.86 849.296 1320.67 845.754 Q1322.5 842.189 1322.5 835.083 Q1322.5 827.953 1320.67 824.412 Q1318.86 820.847 1315.23 820.847 M1315.23 817.143 Q1321.04 817.143 1324.09 821.75 Q1327.17 826.333 1327.17 835.083 Q1327.17 843.81 1324.09 848.416 Q1321.04 853 1315.23 853 Q1309.42 853 1306.34 848.416 Q1303.28 843.81 1303.28 835.083 Q1303.28 826.333 1306.34 821.75 Q1309.42 817.143 1315.23 817.143 Z" fill="#000000" fill-rule="nonzero" fill-opacity="1" /><path clip-path="url(#clip720)" d="M1279.09 481.136 L1295.41 481.136 L1295.41 485.071 L1273.47 485.071 L1273.47 481.136 Q1276.13 478.381 1280.71 473.751 Q1285.32 469.099 1286.5 467.756 Q1288.75 465.233 1289.63 463.497 Q1290.53 461.737 1290.53 460.048 Q1290.53 457.293 1288.58 455.557 Q1286.66 453.821 1283.56 453.821 Q1281.36 453.821 1278.91 454.585 Q1276.48 455.349 1273.7 456.9 L1273.7 452.177 Q1276.52 451.043 1278.98 450.464 Q1281.43 449.886 1283.47 449.886 Q1288.84 449.886 1292.03 452.571 Q1295.23 455.256 1295.23 459.747 Q1295.23 461.876 1294.42 463.798 Q1293.63 465.696 1291.52 468.288 Q1290.95 468.96 1287.84 472.177 Q1284.74 475.372 1279.09 481.136 Z" fill="#000000" fill-rule="nonzero" fill-opacity="1" /><path clip-path="url(#clip720)" d="M1315.23 453.589 Q1311.62 453.589 1309.79 457.154 Q1307.98 460.696 1307.98 467.825 Q1307.98 474.932 1309.79 478.497 Q1311.62 482.038 1315.23 482.038 Q1318.86 482.038 1320.67 478.497 Q1322.5 474.932 1322.5 467.825 Q1322.5 460.696 1320.67 457.154 Q1318.86 453.589 1315.23 453.589 M1315.23 449.886 Q1321.04 449.886 1324.09 454.492 Q1327.17 459.075 1327.17 467.825 Q1327.17 476.552 1324.09 481.159 Q1321.04 485.742 1315.23 485.742 Q1309.42 485.742 1306.34 481.159 Q1303.28 476.552 1303.28 467.825 Q1303.28 459.075 1306.34 454.492 Q1309.42 449.886 1315.23 449.886 Z" fill="#000000" fill-rule="nonzero" fill-opacity="1" /><path clip-path="url(#clip720)" d="M1287.91 87.3272 L1276.11 105.776 L1287.91 105.776 L1287.91 87.3272 M1286.69 83.2531 L1292.57 83.2531 L1292.57 105.776 L1297.5 105.776 L1297.5 109.665 L1292.57 109.665 L1292.57 117.813 L1287.91 117.813 L1287.91 109.665 L1272.31 109.665 L1272.31 105.151 L1286.69 83.2531 Z" fill="#000000" fill-rule="nonzero" fill-opacity="1" /><path clip-path="url(#clip720)" d="M1315.23 86.3318 Q1311.62 86.3318 1309.79 89.8966 Q1307.98 93.4382 1307.98 100.568 Q1307.98 107.674 1309.79 111.239 Q1311.62 114.781 1315.23 114.781 Q1318.86 114.781 1320.67 111.239 Q1322.5 107.674 1322.5 100.568 Q1322.5 93.4382 1320.67 89.8966 Q1318.86 86.3318 1315.23 86.3318 M1315.23 82.6281 Q1321.04 82.6281 1324.09 87.2346 Q1327.17 91.8179 1327.17 100.568 Q1327.17 109.295 1324.09 113.901 Q1321.04 118.484 1315.23 118.484 Q1309.42 118.484 1306.34 113.901 Q1303.28 109.295 1303.28 100.568 Q1303.28 91.8179 1306.34 87.2346 Q1309.42 82.6281 1315.23 82.6281 Z" fill="#000000" fill-rule="nonzero" fill-opacity="1" /><polyline clip-path="url(#clip721)" style="stroke:#009af9; stroke-linecap:round; stroke-linejoin:round; stroke-width:4; stroke-opacity:1; fill:none" points="1391.18,87.9763 1407.56,503.574 1423.94,1056.31 1440.31,1167.93 1456.69,1213.09 1473.07,1243.15 1489.45,1264.48 1505.83,1279.75 1522.21,1292.03 1538.59,1302.69 1554.96,1312.99 1571.34,1324.2 1587.72,1336.13 1604.1,1346.76 1620.48,1355.27 1636.86,1362.13 1653.23,1367.8 1669.61,1372.68 1685.99,1377.12 1702.37,1381.45 1718.75,1385.86 1735.13,1390.39 1751.5,1394.85 1767.88,1398.99 1784.26,1402.66 1800.64,1405.91 1817.02,1409.02 1833.4,1412.43 1849.77,1416.52 1866.15,1421.33 1882.53,1426.44 1898.91,1431.26 1915.29,1435.38 1931.67,1438.62 1948.05,1441.02 1964.42,1442.7 1980.8,1443.83 1997.18,1444.55 2013.56,1445.01 2029.94,1445.29 2046.32,1445.46 2062.69,1445.56 2079.07,1445.62 2095.45,1445.66 2111.83,1445.68 2128.21,1445.7 2144.59,1445.7 2160.96,1445.71 2177.34,1445.71 2193.72,1445.71 2210.1,1445.71 2226.48,1445.71 2242.86,1445.72 2259.24,1445.72 2275.61,1445.72 2291.99,1445.72 2308.37,1445.72 2324.75,1445.72 "/>
<path clip-path="url(#clip720)" d="M2085.4 198.898 L2319.77 198.898 L2319.77 95.2176 L2085.4 95.2176  Z" fill="#ffffff" fill-rule="evenodd" fill-opacity="1"/>
<polyline clip-path="url(#clip720)" style="stroke:#000000; stroke-linecap:round; stroke-linejoin:round; stroke-width:4; stroke-opacity:1; fill:none" points="2085.4,198.898 2319.77,198.898 2319.77,95.2176 2085.4,95.2176 2085.4,198.898 "/>
<polyline clip-path="url(#clip720)" style="stroke:#009af9; stroke-linecap:round; stroke-linejoin:round; stroke-width:4; stroke-opacity:1; fill:none" points="2096.39,147.058 2162.36,147.058 "/>
<path clip-path="url(#clip720)" d="M2191.78 139.176 L2191.78 143.203 Q2189.98 142.277 2188.03 141.815 Q2186.09 141.352 2184.01 141.352 Q2180.84 141.352 2179.24 142.324 Q2177.66 143.296 2177.66 145.24 Q2177.66 146.722 2178.8 147.578 Q2179.93 148.412 2183.36 149.176 L2184.82 149.5 Q2189.35 150.472 2191.25 152.254 Q2193.17 154.014 2193.17 157.185 Q2193.17 160.796 2190.3 162.902 Q2187.46 165.009 2182.46 165.009 Q2180.37 165.009 2178.1 164.592 Q2175.86 164.199 2173.36 163.388 L2173.36 158.99 Q2175.72 160.217 2178.01 160.842 Q2180.3 161.444 2182.55 161.444 Q2185.56 161.444 2187.18 160.426 Q2188.8 159.384 2188.8 157.509 Q2188.8 155.773 2187.62 154.847 Q2186.46 153.921 2182.5 153.064 L2181.02 152.717 Q2177.06 151.884 2175.3 150.171 Q2173.54 148.435 2173.54 145.426 Q2173.54 141.768 2176.14 139.778 Q2178.73 137.787 2183.5 137.787 Q2185.86 137.787 2187.94 138.134 Q2190.03 138.481 2191.78 139.176 Z" fill="#000000" fill-rule="nonzero" fill-opacity="1" /><path clip-path="url(#clip720)" d="M2204.17 131.051 L2204.17 138.412 L2212.94 138.412 L2212.94 141.722 L2204.17 141.722 L2204.17 155.796 Q2204.17 158.967 2205.02 159.87 Q2205.9 160.773 2208.57 160.773 L2212.94 160.773 L2212.94 164.338 L2208.57 164.338 Q2203.64 164.338 2201.76 162.509 Q2199.89 160.657 2199.89 155.796 L2199.89 141.722 L2196.76 141.722 L2196.76 138.412 L2199.89 138.412 L2199.89 131.051 L2204.17 131.051 Z" fill="#000000" fill-rule="nonzero" fill-opacity="1" /><path clip-path="url(#clip720)" d="M2233.57 142.393 Q2232.85 141.977 2231.99 141.791 Q2231.16 141.583 2230.14 141.583 Q2226.53 141.583 2224.59 143.944 Q2222.66 146.282 2222.66 150.68 L2222.66 164.338 L2218.38 164.338 L2218.38 138.412 L2222.66 138.412 L2222.66 142.44 Q2224.01 140.078 2226.16 138.944 Q2228.31 137.787 2231.39 137.787 Q2231.83 137.787 2232.36 137.856 Q2232.9 137.903 2233.54 138.018 L2233.57 142.393 Z" fill="#000000" fill-rule="nonzero" fill-opacity="1" /><path clip-path="url(#clip720)" d="M2259.17 150.31 L2259.17 152.393 L2239.58 152.393 Q2239.86 156.791 2242.22 159.106 Q2244.61 161.398 2248.84 161.398 Q2251.3 161.398 2253.59 160.796 Q2255.9 160.194 2258.17 158.99 L2258.17 163.018 Q2255.88 163.99 2253.47 164.5 Q2251.07 165.009 2248.59 165.009 Q2242.39 165.009 2238.75 161.398 Q2235.14 157.787 2235.14 151.629 Q2235.14 145.264 2238.57 141.537 Q2242.02 137.787 2247.85 137.787 Q2253.08 137.787 2256.11 141.166 Q2259.17 144.523 2259.17 150.31 M2254.91 149.06 Q2254.86 145.565 2252.94 143.481 Q2251.04 141.398 2247.9 141.398 Q2244.33 141.398 2242.18 143.412 Q2240.05 145.426 2239.72 149.083 L2254.91 149.06 Z" fill="#000000" fill-rule="nonzero" fill-opacity="1" /><path clip-path="url(#clip720)" d="M2282.69 139.176 L2282.69 143.203 Q2280.88 142.277 2278.94 141.815 Q2276.99 141.352 2274.91 141.352 Q2271.74 141.352 2270.14 142.324 Q2268.57 143.296 2268.57 145.24 Q2268.57 146.722 2269.7 147.578 Q2270.83 148.412 2274.26 149.176 L2275.72 149.5 Q2280.26 150.472 2282.15 152.254 Q2284.08 154.014 2284.08 157.185 Q2284.08 160.796 2281.21 162.902 Q2278.36 165.009 2273.36 165.009 Q2271.27 165.009 2269.01 164.592 Q2266.76 164.199 2264.26 163.388 L2264.26 158.99 Q2266.62 160.217 2268.91 160.842 Q2271.21 161.444 2273.45 161.444 Q2276.46 161.444 2278.08 160.426 Q2279.7 159.384 2279.7 157.509 Q2279.7 155.773 2278.52 154.847 Q2277.36 153.921 2273.4 153.064 L2271.92 152.717 Q2267.96 151.884 2266.21 150.171 Q2264.45 148.435 2264.45 145.426 Q2264.45 141.768 2267.04 139.778 Q2269.63 137.787 2274.4 137.787 Q2276.76 137.787 2278.84 138.134 Q2280.93 138.481 2282.69 139.176 Z" fill="#000000" fill-rule="nonzero" fill-opacity="1" /><path clip-path="url(#clip720)" d="M2307.39 139.176 L2307.39 143.203 Q2305.58 142.277 2303.64 141.815 Q2301.69 141.352 2299.61 141.352 Q2296.44 141.352 2294.84 142.324 Q2293.27 143.296 2293.27 145.24 Q2293.27 146.722 2294.4 147.578 Q2295.53 148.412 2298.96 149.176 L2300.42 149.5 Q2304.95 150.472 2306.85 152.254 Q2308.77 154.014 2308.77 157.185 Q2308.77 160.796 2305.9 162.902 Q2303.06 165.009 2298.06 165.009 Q2295.97 165.009 2293.71 164.592 Q2291.46 164.199 2288.96 163.388 L2288.96 158.99 Q2291.32 160.217 2293.61 160.842 Q2295.9 161.444 2298.15 161.444 Q2301.16 161.444 2302.78 160.426 Q2304.4 159.384 2304.4 157.509 Q2304.4 155.773 2303.22 154.847 Q2302.06 153.921 2298.1 153.064 L2296.62 152.717 Q2292.66 151.884 2290.9 150.171 Q2289.14 148.435 2289.14 145.426 Q2289.14 141.768 2291.74 139.778 Q2294.33 137.787 2299.1 137.787 Q2301.46 137.787 2303.54 138.134 Q2305.63 138.481 2307.39 139.176 Z" fill="#000000" fill-rule="nonzero" fill-opacity="1" /></svg>
